<?xml version="1.0" encoding="UTF-8" standalone="no"?>
<svg
   xmlns:dc="http://purl.org/dc/elements/1.1/"
   xmlns:cc="http://creativecommons.org/ns#"
   xmlns:rdf="http://www.w3.org/1999/02/22-rdf-syntax-ns#"
   xmlns:svg="http://www.w3.org/2000/svg"
   xmlns="http://www.w3.org/2000/svg"
   xmlns:sodipodi="http://sodipodi.sourceforge.net/DTD/sodipodi-0.dtd"
   xmlns:inkscape="http://www.inkscape.org/namespaces/inkscape"
   version="1.1"
   width="25.376493mm"
   height="25.418053mm"
   viewBox="0 0 2537.6494 2541.8051"
   preserveAspectRatio="xMidYMid"
   fill-rule="evenodd"
   clip-path="url(#presentation_clip_path)"
   stroke-width="28.222"
   stroke-linejoin="round"
   xml:space="preserve"
   id="svg590"
   sodipodi:docname="Graph_paper_inch_green_pattern.svg"
   inkscape:version="1.0 (4035a4fb49, 2020-05-01)"><metadata
   id="metadata594"><rdf:RDF><cc:Work
       rdf:about=""><dc:format>image/svg+xml</dc:format><dc:type
         rdf:resource="http://purl.org/dc/dcmitype/StillImage" /><dc:title /></cc:Work></rdf:RDF></metadata><sodipodi:namedview
   inkscape:document-rotation="0"
   pagecolor="#ffffff"
   bordercolor="#666666"
   borderopacity="1"
   objecttolerance="10"
   gridtolerance="10"
   guidetolerance="10"
   inkscape:pageopacity="0"
   inkscape:pageshadow="2"
   inkscape:window-width="1920"
   inkscape:window-height="1015"
   id="namedview592"
   showgrid="false"
   fit-margin-top="0"
   fit-margin-left="0"
   fit-margin-right="0"
   fit-margin-bottom="0"
   inkscape:zoom="5.0373353"
   inkscape:cx="96.850709"
   inkscape:cy="56.461957"
   inkscape:window-x="0"
   inkscape:window-y="0"
   inkscape:window-maximized="1"
   inkscape:current-layer="svg590" />
 <defs
   class="ClipPathGroup"
   id="defs5">
  <clipPath
   id="presentation_clip_path"
   clipPathUnits="userSpaceOnUse">
   <rect
   x="0"
   y="0"
   width="21592"
   height="27942"
   id="rect2" />
  </clipPath>
 
  
 
   
  
    
   
     
    
      
      
      
      
     
       
      
       
      
       
      
       
      
        
       
        
        
        
        
        
        
        
        
        
        
        
        
        
        
        
        
        
        
        
       
        
        
        
        
        
        
        
        
        
        
        
        
        
        
        
        
        
        
        
        
        
        
        
        
        
        
        
        
        
        
        
        
        
        
        
        
       
        
        
        
        
        
        
        
        
        
        
        
        
        
        
        
        
        
        
        
        
        
        
        
        
        
        
        
        
        
        
        
        
        
        
        
        
        
        
        
        
        
        
        
        
        
        
        
        
        
        
        
        
        
        
        
        
        
        
        
        
        
        
        
        
        
        
        
        
        
        
        
        
        
        
        
        
        
        
        
        
        
        
        
        
        
        
        
        
        
        
        
        
        
        
        
        
        
        
        
        
        
        
        
        
        
        
        
        
        
        
        
        
        
        
        
        
        
        
        
        
        
        
        
        
        
        
        
        
        
        
        
        
        
        
        
        
        
        
        
        
        
        
        
        
        
        
        
        
        
        
        
        
        
        
        
        
        
        
        
        
        
        
        
        
        
        
        
        
        
        
        
        
        
        
        
        
        
        
        
        
        
        
        
        
        
        
        
        
        
        
        
        
        
        
        
        
        
        
        
        
        
        
        
        
        
        
       </defs>
 <defs
   class="TextShapeIndex"
   id="defs7">
  
 </defs>
 <defs
   class="EmbeddedBulletChars"
   id="defs36">
  <g
   id="bullet-char-template57356"
   transform="matrix(4.8828125e-4,0,0,-4.8828125e-4,0,0)">
   <path
   d="M 580,1141 1163,571 580,0 -4,571 Z"
   id="path9" />
  </g>
  <g
   id="bullet-char-template57354"
   transform="matrix(4.8828125e-4,0,0,-4.8828125e-4,0,0)">
   <path
   d="M 8,1128 H 1137 V 0 H 8 Z"
   id="path12" />
  </g>
  <g
   id="bullet-char-template10146"
   transform="matrix(4.8828125e-4,0,0,-4.8828125e-4,0,0)">
   <path
   d="M 174,0 602,739 174,1481 1456,739 Z M 1358,739 309,1346 659,739 Z"
   id="path15" />
  </g>
  <g
   id="bullet-char-template10132"
   transform="matrix(4.8828125e-4,0,0,-4.8828125e-4,0,0)">
   <path
   d="M 2015,739 1276,0 H 717 l 543,543 H 174 v 393 h 1086 l -543,545 h 557 z"
   id="path18" />
  </g>
  <g
   id="bullet-char-template10007"
   transform="matrix(4.8828125e-4,0,0,-4.8828125e-4,0,0)">
   <path
   d="m 0,-2 c -7,16 -16,29 -25,39 l 381,530 c -94,256 -141,385 -141,387 0,25 13,38 40,38 9,0 21,-2 34,-5 21,4 42,12 65,25 l 27,-13 111,-251 280,301 64,-25 24,25 c 21,-10 41,-24 62,-43 C 886,937 835,863 770,784 769,783 710,716 594,584 L 774,223 c 0,-27 -21,-55 -63,-84 l 16,-20 C 717,90 699,76 672,76 641,76 570,178 457,381 L 164,-76 c -22,-34 -53,-51 -92,-51 -42,0 -63,17 -64,51 -7,9 -10,24 -10,44 0,9 1,19 2,30 z"
   id="path21" />
  </g>
  <g
   id="bullet-char-template10004"
   transform="matrix(4.8828125e-4,0,0,-4.8828125e-4,0,0)">
   <path
   d="M 285,-33 C 182,-33 111,30 74,156 52,228 41,333 41,471 c 0,78 14,145 41,201 34,71 87,106 158,106 53,0 88,-31 106,-94 l 23,-176 c 8,-64 28,-97 59,-98 l 735,706 c 11,11 33,17 66,17 42,0 63,-15 63,-46 V 965 c 0,-36 -10,-64 -30,-84 L 442,47 C 390,-6 338,-33 285,-33 Z"
   id="path24" />
  </g>
  <g
   id="bullet-char-template9679"
   transform="matrix(4.8828125e-4,0,0,-4.8828125e-4,0,0)">
   <path
   d="M 813,0 C 632,0 489,54 383,161 276,268 223,411 223,592 c 0,181 53,324 160,431 106,107 249,161 430,161 179,0 323,-54 432,-161 108,-107 162,-251 162,-431 0,-180 -54,-324 -162,-431 C 1136,54 992,0 813,0 Z"
   id="path27" />
  </g>
  <g
   id="bullet-char-template8226"
   transform="matrix(4.8828125e-4,0,0,-4.8828125e-4,0,0)">
   <path
   d="m 346,457 c -73,0 -137,26 -191,78 -54,51 -81,114 -81,188 0,73 27,136 81,188 54,52 118,78 191,78 73,0 134,-26 185,-79 51,-51 77,-114 77,-187 0,-75 -25,-137 -76,-188 -50,-52 -112,-78 -186,-78 z"
   id="path30" />
  </g>
  <g
   id="bullet-char-template8211"
   transform="matrix(4.8828125e-4,0,0,-4.8828125e-4,0,0)">
   <path
   d="M -4,459 H 1135 V 606 H -4 Z"
   id="path33" />
  </g>
 </defs>
 <defs
   class="TextEmbeddedBitmaps"
   id="defs38" />
 <g
   id="g43"
   transform="translate(-3173.8832,-2534.5171)">
  <g
   id="id2"
   class="Master_Slide">
   <g
   id="bg-id2"
   class="Background" />
   <g
   id="bo-id2"
   class="BackgroundObjects" />
  </g>
 </g>
 <g
   transform="matrix(1,0,0,-1,0,2541.8052)"
   id="g916"><path
     fill="none"
     stroke="#008000"
     stroke-width="0.62623"
     d="M 1266.1168,2533.6882 V 0"
     id="path52" /><path
     fill="none"
     stroke="#008000"
     stroke-width="4.15568"
     d="M 0,1270.4829 H 2537.6492"
     id="path68" /><path
     fill="none"
     stroke="#008000"
     stroke-width="0.62623"
     d="M 1266.1168,2533.6882 V 0"
     id="path95" /><path
     fill="none"
     stroke="#008000"
     stroke-width="0.62623"
     d="M 2536.1168,2533.6882 V 0"
     id="path97" /><path
     fill="none"
     stroke="#008000"
     stroke-width="2.64453"
     d="M 0,1270.4829 H 2537.6492"
     id="path125" /><path
     fill="none"
     stroke="#008000"
     stroke-width="2.64453"
     d="M 0,2540.4829 H 2537.6492"
     id="path127" /><path
     fill="none"
     stroke="#008000"
     stroke-width="0.62623"
     d="M 208.1168,2533.6882 V 0"
     id="path180" /><path
     fill="none"
     stroke="#008000"
     stroke-width="0.62623"
     d="M 419.1168,2533.6882 V 0"
     id="path182" /><path
     fill="none"
     stroke="#008000"
     stroke-width="0.62623"
     d="M 631.1168,2533.6882 V 0"
     id="path184" /><path
     fill="none"
     stroke="#008000"
     stroke-width="0.62623"
     d="M 843.1168,2533.6882 V 0"
     id="path186" /><path
     fill="none"
     stroke="#008000"
     stroke-width="0.62623"
     d="M 1054.1168,2533.6882 V 0"
     id="path188" /><path
     fill="none"
     stroke="#008000"
     stroke-width="0.62623"
     d="M 1266.1168,2533.6882 V 0"
     id="path190" /><path
     fill="none"
     stroke="#008000"
     stroke-width="0.62623"
     d="M 1478.1168,2533.6882 V 0"
     id="path192" /><path
     fill="none"
     stroke="#008000"
     stroke-width="0.62623"
     d="M 1689.1168,2533.6882 V 0"
     id="path194" /><path
     fill="none"
     stroke="#008000"
     stroke-width="0.62623"
     d="M 1901.1168,2533.6882 V 0"
     id="path196" /><path
     fill="none"
     stroke="#008000"
     stroke-width="0.62623"
     d="M 2113.1168,2533.6882 V 0"
     id="path198" /><path
     fill="none"
     stroke="#008000"
     stroke-width="0.62623"
     d="M 2324.1168,2533.6882 V 0"
     id="path200" /><path
     fill="none"
     stroke="#008000"
     stroke-width="0.62623"
     d="M 2536.1168,2533.6882 V 0"
     id="path202" /><path
     fill="none"
     stroke="#008000"
     stroke-width="1.51116"
     d="M 0,212.4829 H 2537.6492"
     id="path350" /><path
     fill="none"
     stroke="#008000"
     stroke-width="1.51116"
     d="M 0,424.4829 H 2537.6492"
     id="path352" /><path
     fill="none"
     stroke="#008000"
     stroke-width="1.51116"
     d="M 0,635.4829 H 2537.6492"
     id="path354" /><path
     fill="none"
     stroke="#008000"
     stroke-width="1.51116"
     d="M 0,847.4829 H 2537.6492"
     id="path356" /><path
     fill="none"
     stroke="#008000"
     stroke-width="1.51116"
     d="M 0,1059.4829 H 2537.6492"
     id="path358" /><path
     fill="none"
     stroke="#008000"
     stroke-width="1.51116"
     d="M 0,1270.4829 H 2537.6492"
     id="path360" /><path
     fill="none"
     stroke="#008000"
     stroke-width="1.51116"
     d="M 0,1484.4829 H 2537.6492"
     id="path362" /><path
     fill="none"
     stroke="#008000"
     stroke-width="1.51116"
     d="M 0,1694.4829 H 2537.6492"
     id="path364" /><path
     fill="none"
     stroke="#008000"
     stroke-width="1.51116"
     d="M 0,1905.4829 H 2537.6492"
     id="path366" /><path
     fill="none"
     stroke="#008000"
     stroke-width="1.51116"
     d="M 0,2117.4829 H 2537.6492"
     id="path368" /><path
     fill="none"
     stroke="#008000"
     stroke-width="1.51116"
     d="M 0,2329.4829 H 2537.6492"
     id="path370" /><path
     fill="none"
     stroke="#008000"
     stroke-width="1.51116"
     d="M 0,2540.4829 H 2537.6492"
     id="path372" /></g>
</svg>
