<?xml version="1.0" encoding="UTF-8" standalone="no"?>
<!-- Created with Inkscape (http://www.inkscape.org/) -->

<svg
   xmlns:dc="http://purl.org/dc/elements/1.1/"
   xmlns:cc="http://creativecommons.org/ns#"
   xmlns:rdf="http://www.w3.org/1999/02/22-rdf-syntax-ns#"
   xmlns:svg="http://www.w3.org/2000/svg"
   xmlns="http://www.w3.org/2000/svg"
   xmlns:sodipodi="http://sodipodi.sourceforge.net/DTD/sodipodi-0.dtd"
   xmlns:inkscape="http://www.inkscape.org/namespaces/inkscape"
   width="326.71664"
   height="215.07715"
   id="svg3801"
   version="1.1"
   inkscape:version="0.48.0 r9654"
   sodipodi:docname="Puzzly sharing (from licensing tutorial).svg">
  <defs
     id="defs3803" />
  <sodipodi:namedview
     id="base"
     pagecolor="#ffffff"
     bordercolor="#666666"
     borderopacity="1.0"
     inkscape:pageopacity="0.0"
     inkscape:pageshadow="2"
     inkscape:zoom="0.35"
     inkscape:cx="234.80276"
     inkscape:cy="316.63892"
     inkscape:document-units="px"
     inkscape:current-layer="layer1"
     showgrid="false"
     fit-margin-top="5"
     fit-margin-left="5"
     fit-margin-right="5"
     fit-margin-bottom="5"
     inkscape:window-width="618"
     inkscape:window-height="459"
     inkscape:window-x="487"
     inkscape:window-y="24"
     inkscape:window-maximized="0" />
  <metadata
     id="metadata3806">
    <rdf:RDF>
      <cc:Work
         rdf:about="">
        <dc:format>image/svg+xml</dc:format>
        <dc:type
           rdf:resource="http://purl.org/dc/dcmitype/StillImage" />
        <dc:title />
      </cc:Work>
    </rdf:RDF>
  </metadata>
  <g
     inkscape:label="Calque 1"
     inkscape:groupmode="layer"
     id="layer1"
     transform="translate(-140.19722,-291.06685)">
    <g
       transform="matrix(1.5828354,0,0,1.5828354,-464.83627,-154.99178)"
       style="display:inline"
       id="g6194">
      <line
         x1="488.159"
         y1="356.897"
         x2="521.909"
         y2="375.85501"
         id="line152"
         style="fill:none;stroke:#000000;stroke-linecap:round;stroke-dasharray:3, 3, 3, 3, 3, 3" />
      <line
         x1="483.82599"
         y1="342.23001"
         x2="521.17999"
         y2="332.53"
         id="line154"
         style="fill:none;stroke:#000000;stroke-linecap:round;stroke-dasharray:3, 3, 3, 3, 3, 3" />
      <line
         x1="478.82599"
         y1="338.56299"
         x2="524.534"
         y2="305.22501"
         id="line156"
         style="fill:none;stroke:#000000;stroke-linecap:round;stroke-dasharray:3, 3, 3, 3, 3, 3" />
      <line
         x1="489.992"
         y1="349.23001"
         x2="520.07501"
         y2="353.647"
         id="line158"
         style="fill:none;stroke:#000000;stroke-linecap:round;stroke-dasharray:3, 3, 3, 3, 3, 3" />
      <g
         id="g6097">
        <path
           style="fill:#ffffff;stroke:#000000;stroke-width:0.5"
           inkscape:connector-curvature="0"
           id="path242"
           d="m 565.683,297.685 c 0,0 -3.743,-2.093 -7.453,-5.939 -3.71,-3.848 -5.599,-6.45 -5.599,-6.45 0,0 -6.707,3.266 -14.352,5.42 -7.648,2.156 -9.809,1.957 -9.809,1.957 l 10.854,12.449 c 0,0 4.452,-0.495 13.334,-3.222 9.359,-2.874 13.025,-4.215 13.025,-4.215 z" />
        <polyline
           style="fill:none;stroke:#808285;stroke-linecap:round"
           id="polyline244"
           points="555.799,295.536 547.751,291.001 537.251,295.251    541.751,300.501 552.251,298.001 547.001,294.001 542.501,296.751 547.001,297.251  " />
      </g>
      <polygon
         points="525.076,354.23 517.076,351.23 516.576,355.23 "
         id="polygon250" />
      <polygon
         points="529.054,379.929 522.831,374.073 520.824,377.571 "
         id="polygon252" />
      <polygon
         points="529.078,330.704 520.534,330.594 521.419,334.527 "
         id="polygon254" />
      <polygon
         points="526.5,303.841 518.604,307.099 520.963,310.368 "
         id="polygon256" />
      <g
         id="g6069">
        <path
           style="fill:#e28f26;stroke:#000000"
           inkscape:connector-curvature="0"
           id="path274"
           d="m 574.149,306.01 c 0,0 -2.99,-9.112 -4.271,-8.727 -2.818,0.85 -0.119,6.312 -0.119,6.312 0,0 -11.504,-2.146 -13.188,1.009 -1.237,2.324 3.643,8.763 6.444,8.275 5.03,-0.874 11.134,-6.869 11.134,-6.869 z" />
        <line
           style="fill:none;stroke:#000000;stroke-width:0.77749997"
           id="line276"
           y2="305.20499"
           x2="563.18103"
           y1="306.97501"
           x1="556.69897" />
        <line
           style="fill:none;stroke:#000000;stroke-width:0.77749997"
           id="line278"
           y2="307.302"
           x2="564.47601"
           y1="309.07501"
           x1="557.99597" />
        <line
           style="fill:none;stroke:#000000;stroke-width:0.77749997"
           id="line280"
           y2="309.39801"
           x2="565.771"
           y1="311.17001"
           x1="559.28802" />
        <line
           style="fill:none;stroke:#000000;stroke-width:2.5"
           id="line282"
           y2="309.23499"
           x2="585.15802"
           y1="306.01001"
           x1="574.14899" />
      </g>
      <g
         id="g6101">
        <path
           style="fill:#ffffff;stroke:#000000;stroke-width:0.5"
           inkscape:connector-curvature="0"
           id="path284"
           d="m 565.683,328.281 c 0,0 -3.743,-2.093 -7.453,-5.939 -3.71,-3.848 -5.599,-6.45 -5.599,-6.45 0,0 -6.707,3.266 -14.352,5.42 -7.648,2.156 -9.809,1.957 -9.809,1.957 l 10.854,12.449 c 0,0 4.452,-0.495 13.334,-3.222 9.359,-2.873 13.025,-4.215 13.025,-4.215 z" />
        <path
           style="fill:none;stroke:#808285;stroke-linecap:round"
           inkscape:connector-curvature="0"
           id="path286"
           d="m 555.799,326.132 c 0,0 -15.298,-8.498 -17.618,0.677 -1.361,5.375 11.222,4.57 14.073,2.542 2.673,-1.903 -4.965,-5.644 -9.545,-2.987 -4.776,2.771 4.522,1.422 4.522,1.422 l 8.568,-1.654 z" />
      </g>
      <g
         id="g6076">
        <path
           style="fill:#a97c50;stroke:#000000"
           inkscape:connector-curvature="0"
           id="path288"
           d="m 574.149,336.606 c 0,0 -2.99,-9.112 -4.271,-8.727 -2.818,0.85 -0.119,6.312 -0.119,6.312 0,0 -11.504,-2.146 -13.188,1.009 -1.237,2.324 3.643,8.763 6.445,8.275 5.029,-0.873 11.133,-6.869 11.133,-6.869 z" />
        <line
           style="fill:none;stroke:#000000;stroke-width:0.77749997"
           id="line290"
           y2="335.80099"
           x2="563.18201"
           y1="337.57101"
           x1="556.70001" />
        <line
           style="fill:none;stroke:#000000;stroke-width:0.77749997"
           id="line292"
           y2="337.89801"
           x2="564.47601"
           y1="339.67001"
           x1="557.99597" />
        <line
           style="fill:none;stroke:#000000;stroke-width:0.77749997"
           id="line294"
           y2="339.99399"
           x2="565.771"
           y1="341.767"
           x1="559.28802" />
        <line
           style="fill:none;stroke:#000000;stroke-width:2.5"
           id="line296"
           y2="339.83099"
           x2="585.15802"
           y1="336.60599"
           x1="574.14899" />
      </g>
      <g
         id="g6105">
        <path
           style="fill:#ffffff;stroke:#000000;stroke-width:0.5"
           inkscape:connector-curvature="0"
           id="path298"
           d="m 565.683,361.568 c 0,0 -3.743,-2.093 -7.453,-5.939 -3.71,-3.848 -5.599,-6.45 -5.599,-6.45 0,0 -6.707,3.266 -14.352,5.42 -7.648,2.156 -9.809,1.957 -9.809,1.957 l 10.854,12.449 c 0,0 4.452,-0.495 13.334,-3.221 9.359,-2.874 13.025,-4.216 13.025,-4.216 z" />
        <path
           style="fill:none;stroke:#808285;stroke-linecap:round"
           inkscape:connector-curvature="0"
           id="path300"
           d="m 556.881,358.9 c -2.739,-5.042 -19.465,-6.413 -19.284,2.256 0.14,6.72 21.49,1.807 19.284,-2.256 z" />
        <path
           style="fill:none;stroke:#808285;stroke-width:0.80000001;stroke-linecap:round"
           inkscape:connector-curvature="0"
           id="path302"
           d="m 552.434,358.874 c -1.517,-2.792 -10.775,-3.55 -10.675,1.249 0.078,3.719 11.896,0.999 10.675,-1.249 z" />
        <path
           style="fill:none;stroke:#808285;stroke-width:0.60000002;stroke-linecap:round"
           inkscape:connector-curvature="0"
           id="path304"
           d="m 549.249,359.132 c -0.604,-1.112 -4.293,-1.415 -4.253,0.497 0.031,1.483 4.739,0.399 4.253,-0.497 z" />
      </g>
      <g
         id="g6083">
        <path
           style="fill:#fff7c0;stroke:#000000"
           inkscape:connector-curvature="0"
           id="path306"
           d="m 574.149,369.894 c 0,0 -2.99,-9.112 -4.271,-8.727 -2.818,0.85 -0.119,6.311 -0.119,6.311 0,0 -11.504,-2.145 -13.188,1.01 -1.238,2.324 3.643,8.764 6.444,8.275 5.03,-0.875 11.134,-6.869 11.134,-6.869 z" />
        <line
           style="fill:none;stroke:#000000;stroke-width:0.77749997"
           id="line308"
           y2="369.08801"
           x2="563.18103"
           y1="370.85901"
           x1="556.69897" />
        <line
           style="fill:none;stroke:#000000;stroke-width:0.77749997"
           id="line310"
           y2="371.185"
           x2="564.47601"
           y1="372.95801"
           x1="557.99597" />
        <line
           style="fill:none;stroke:#000000;stroke-width:0.77749997"
           id="line312"
           y2="373.28201"
           x2="565.771"
           y1="375.05399"
           x1="559.28699" />
        <line
           style="fill:none;stroke:#000000;stroke-width:2.5"
           id="line314"
           y2="373.11899"
           x2="585.15802"
           y1="369.89401"
           x1="574.14899" />
      </g>
      <g
         id="g6090">
        <path
           style="fill:#f8c1d9;stroke:#000000"
           inkscape:connector-curvature="0"
           id="path330"
           d="m 574.149,402.222 c 0,0 -2.99,-9.111 -4.271,-8.725 -2.818,0.849 -0.119,6.311 -0.119,6.311 0,0 -11.504,-2.146 -13.188,1.008 -1.237,2.324 3.643,8.765 6.444,8.277 5.03,-0.875 11.134,-6.871 11.134,-6.871 z" />
        <line
           style="fill:none;stroke:#000000;stroke-width:0.77749997"
           id="line332"
           y2="401.41699"
           x2="563.18103"
           y1="403.189"
           x1="556.69897" />
        <line
           style="fill:none;stroke:#000000;stroke-width:0.77749997"
           id="line334"
           y2="403.513"
           x2="564.47601"
           y1="405.28699"
           x1="557.99597" />
        <line
           style="fill:none;stroke:#000000;stroke-width:0.77749997"
           id="line336"
           y2="405.60999"
           x2="565.771"
           y1="407.383"
           x1="559.28699" />
        <line
           style="fill:none;stroke:#000000;stroke-width:2.5"
           id="line338"
           y2="405.448"
           x2="585.15802"
           y1="402.22198"
           x1="574.14899" />
      </g>
      <g
         id="g6143">
        <path
           style="fill:#ffffff;stroke:#000000;stroke-width:0.5"
           inkscape:connector-curvature="0"
           id="path328"
           d="m 565.683,393.897 c 0,0 -3.743,-2.093 -7.453,-5.939 -3.71,-3.848 -5.599,-6.45 -5.599,-6.45 0,0 -6.707,3.266 -14.352,5.42 -7.648,2.156 -9.809,1.957 -9.809,1.957 l 10.854,12.449 c 0,0 4.452,-0.495 13.334,-3.222 9.359,-2.873 13.025,-4.215 13.025,-4.215 z" />
        <g
           id="g6111">
          <ellipse
             d="m 546.13101,389.80301 c 0,1.2338 -1.78907,2.234 -3.996,2.234 -2.20693,0 -3.996,-1.0002 -3.996,-2.234 0,-1.23381 1.78907,-2.234 3.996,-2.234 2.20693,0 3.996,1.00019 3.996,2.234 z"
             cx="542.13501"
             cy="389.80301"
             rx="3.9960001"
             ry="2.234"
             id="ellipse804"
             sodipodi:cx="542.13501"
             sodipodi:cy="389.80301"
             sodipodi:rx="3.9960001"
             sodipodi:ry="2.234"
             style="fill:none;stroke:#808285;stroke-width:0.60000002;stroke-linecap:round" />
          <path
             d="m 538.14,389.803 v 2.031 c 0,1.234 1.79,2.235 3.996,2.235 2.206,0 3.995,-1.001 3.995,-2.235 v -2.031"
             id="path806"
             inkscape:connector-curvature="0"
             style="fill:none;stroke:#808285;stroke-width:0.60000002;stroke-linecap:round" />
          <line
             x1="538.86798"
             y1="390.95499"
             x2="538.86798"
             y2="392.98599"
             id="line808"
             style="fill:none;stroke:#808285;stroke-width:0.40000001" />
          <line
             x1="542.13599"
             y1="392.03799"
             x2="542.13599"
             y2="394.07001"
             id="line810"
             style="fill:none;stroke:#808285;stroke-width:0.40000001" />
          <line
             x1="541.23798"
             y1="392.05399"
             x2="541.23798"
             y2="394.086"
             id="line812"
             style="fill:none;stroke:#808285;stroke-width:0.40000001" />
          <line
             x1="540.375"
             y1="391.784"
             x2="540.375"
             y2="393.81601"
             id="line814"
             style="fill:none;stroke:#808285;stroke-width:0.40000001" />
          <line
             x1="539.57898"
             y1="391.44501"
             x2="539.57898"
             y2="393.47699"
             id="line816"
             style="fill:none;stroke:#808285;stroke-width:0.40000001" />
          <line
             x1="545.38702"
             y1="390.92001"
             x2="545.38702"
             y2="392.952"
             id="line818"
             style="fill:none;stroke:#808285;stroke-width:0.40000001" />
          <line
             x1="543.01599"
             y1="392.021"
             x2="543.01599"
             y2="394.052"
             id="line820"
             style="fill:none;stroke:#808285;stroke-width:0.40000001" />
          <line
             x1="543.88"
             y1="391.75"
             x2="543.88"
             y2="393.78201"
             id="line822"
             style="fill:none;stroke:#808285;stroke-width:0.40000001" />
          <line
             x1="544.67499"
             y1="391.41199"
             x2="544.67499"
             y2="393.44299"
             id="line824"
             style="fill:none;stroke:#808285;stroke-width:0.40000001" />
          <path
             d="m 543.896,390.074 c 0,0 -1.084,-1.558 -1.89,-1.296 -0.622,0.202 0.883,1.703 0.228,1.905 -0.878,0.271 -1.986,-1.286 -1.986,-1.286"
             id="path826"
             inkscape:connector-curvature="0"
             style="fill:none;stroke:#808285;stroke-width:0.5;stroke-linecap:round" />
          <line
             x1="539.87903"
             y1="390.57101"
             x2="540.78998"
             y2="390.24301"
             id="line828"
             style="fill:none;stroke:#808285;stroke-width:0.5;stroke-linecap:round" />
          <line
             x1="543.39301"
             y1="389.29501"
             x2="544.24701"
             y2="388.957"
             id="line830"
             style="fill:none;stroke:#808285;stroke-width:0.5;stroke-linecap:round" />
        </g>
        <g
           id="g6127">
          <ellipse
             d="m 555.613,392.10501 c 0,1.23436 -1.78907,2.235 -3.996,2.235 -2.20693,0 -3.996,-1.00064 -3.996,-2.235 0,-1.23436 1.78907,-2.235 3.996,-2.235 2.20693,0 3.996,1.00064 3.996,2.235 z"
             cx="551.617"
             cy="392.10501"
             rx="3.9960001"
             ry="2.2349999"
             id="ellipse832"
             sodipodi:cx="551.617"
             sodipodi:cy="392.10501"
             sodipodi:rx="3.9960001"
             sodipodi:ry="2.2349999"
             style="fill:none;stroke:#808285;stroke-width:0.60000002;stroke-linecap:round" />
          <path
             d="m 547.621,392.105 v 2.032 c 0,1.233 1.789,2.234 3.996,2.234 2.206,0 3.995,-1.001 3.995,-2.234 v -2.032"
             id="path834"
             inkscape:connector-curvature="0"
             style="fill:none;stroke:#808285;stroke-width:0.60000002;stroke-linecap:round" />
          <line
             x1="548.34998"
             y1="393.25601"
             x2="548.34998"
             y2="395.289"
             id="line836"
             style="fill:none;stroke:#808285;stroke-width:0.40000001" />
          <line
             x1="551.617"
             y1="394.34"
             x2="551.617"
             y2="396.37201"
             id="line838"
             style="fill:none;stroke:#808285;stroke-width:0.40000001" />
          <line
             x1="550.71997"
             y1="394.35699"
             x2="550.71997"
             y2="396.38901"
             id="line840"
             style="fill:none;stroke:#808285;stroke-width:0.40000001" />
          <line
             x1="549.85602"
             y1="394.086"
             x2="549.85602"
             y2="396.11801"
             id="line842"
             style="fill:none;stroke:#808285;stroke-width:0.40000001" />
          <line
             x1="549.06097"
             y1="393.74799"
             x2="549.06097"
             y2="395.78"
             id="line844"
             style="fill:none;stroke:#808285;stroke-width:0.40000001" />
          <line
             x1="554.867"
             y1="393.22299"
             x2="554.867"
             y2="395.254"
             id="line846"
             style="fill:none;stroke:#808285;stroke-width:0.40000001" />
          <line
             x1="552.49701"
             y1="394.32401"
             x2="552.49701"
             y2="396.35501"
             id="line848"
             style="fill:none;stroke:#808285;stroke-width:0.40000001" />
          <line
             x1="553.35999"
             y1="394.052"
             x2="553.35999"
             y2="396.08401"
             id="line850"
             style="fill:none;stroke:#808285;stroke-width:0.40000001" />
          <line
             x1="554.15601"
             y1="393.71399"
             x2="554.15601"
             y2="395.746"
             id="line852"
             style="fill:none;stroke:#808285;stroke-width:0.40000001" />
          <path
             d="m 553.378,392.376 c 0,0 -1.084,-1.558 -1.891,-1.296 -0.622,0.202 0.884,1.703 0.228,1.905 -0.877,0.271 -1.985,-1.287 -1.985,-1.287"
             id="path854"
             inkscape:connector-curvature="0"
             style="fill:none;stroke:#808285;stroke-width:0.5;stroke-linecap:round" />
          <line
             x1="549.35901"
             y1="392.87399"
             x2="550.271"
             y2="392.54501"
             id="line856"
             style="fill:none;stroke:#808285;stroke-width:0.5;stroke-linecap:round" />
          <line
             x1="552.87402"
             y1="391.59698"
             x2="553.72803"
             y2="391.259"
             id="line858"
             style="fill:none;stroke:#808285;stroke-width:0.5;stroke-linecap:round" />
        </g>
      </g>
      <g
         id="g6176">
        <path
           style="fill:none;stroke:#1c75bc;stroke-width:2.5"
           inkscape:connector-curvature="0"
           id="path120"
           d="m 446.159,372.23 c 0,0 -3.337,9.346 -16.852,14.41 -12.234,4.586 -21.63,-3.41 -21.63,-3.41" />
        <rect
           style="fill:#016699"
           id="rect122"
           height="35.094002"
           width="5.2540002"
           y="378.30399"
           x="404.66901" />
        <path
           style="fill:#016699"
           inkscape:connector-curvature="0"
           id="path124"
           d="m 409.923,413.398 h 7.883 c 0,0 3.785,-3.153 1.051,-3.994 -2.732,-0.842 -9.879,1.472 -9.879,1.472 l 0.945,2.522 z" />
        <line
           style="fill:none;stroke:#329966;stroke-width:1.5;stroke-linecap:round"
           id="line126"
           y2="413.785"
           x2="397.82501"
           y1="413.785"
           x1="471.159" />
        <path
           style="fill:#ffffff;stroke:#000000;stroke-width:0.69999999"
           inkscape:connector-curvature="0"
           id="path246"
           d="m 487.016,352.258 c 0,0 -4.951,-2.768 -9.857,-7.854 -4.906,-5.089 -7.404,-8.53 -7.404,-8.53 0,0 -8.87,4.318 -18.979,7.168 -10.115,2.852 -12.972,2.588 -12.972,2.588 l 14.354,16.464 c 0,0 5.889,-0.654 17.635,-4.261 12.374,-3.8 17.223,-5.575 17.223,-5.575 z" />
        <path
           style="fill:none;stroke:#808285;stroke-width:1.25;stroke-linecap:round"
           inkscape:connector-curvature="0"
           id="path248"
           d="m 473.944,349.417 c 0,0 -20.231,-11.239 -23.301,0.895 -1.8,7.108 14.841,6.045 18.612,3.362 3.535,-2.518 -6.566,-7.464 -12.623,-3.951 -6.317,3.664 5.98,1.881 5.98,1.881" />
        <path
           style="fill:#ffffff;stroke:#000000;stroke-width:1.30490005"
           inkscape:connector-curvature="0"
           id="path378"
           d="m 418.032,369.101 c 1.098,-1.415 -0.447,-8.097 0.399,-8.575 1.524,-0.858 6.176,0.801 7.476,-1.377 0.934,-1.553 1.631,-6.616 -0.717,-7.759 -1.592,-0.777 -4.324,2.479 -6.38,1.575 -2.321,-1.022 -0.071,-13.59 -0.071,-13.59 0,0 -10.861,-1.486 -11.602,1.433 -0.738,2.913 2.784,5.301 1.125,7.396 -1.338,1.694 -7.168,2.288 -9.054,-0.057 -1.888,-2.338 1.159,-7.668 1.366,-7.9 0.211,-0.233 -9.095,-1.333 -12.686,2.4 -2.957,3.069 -1.412,12.587 -1.412,12.587 0,0 6.368,-3.499 9.494,-1.394 3.002,2.031 3.455,8.89 1.244,10.004 -2.412,1.217 -7.912,-2.378 -7.912,-2.378 0,0 -0.295,9.325 2.277,10.451 2.572,1.131 7.176,-2.363 9.811,0.018 1.862,1.686 -1.782,4.617 -0.441,6.312 1.371,1.731 8.87,1.317 10.285,-0.509 1.416,-1.828 -3.234,-4.367 -2.074,-6.309 0.642,-1.067 7.043,0.022 8.872,-2.328 z" />
        <path
           style="fill:#fff7c0;stroke:#000000;stroke-width:1.30490005"
           inkscape:connector-curvature="0"
           id="path380"
           d="m 418.603,370.561 c 1.098,-1.417 -0.449,-8.096 0.398,-8.575 1.526,-0.859 6.176,0.802 7.477,-1.378 0.932,-1.551 1.631,-6.614 -0.719,-7.756 -1.594,-0.777 -4.322,2.474 -6.38,1.572 -2.319,-1.021 -0.069,-13.586 -0.069,-13.586 0,0 -10.863,-1.486 -11.602,1.428 -0.738,2.914 2.785,5.3 1.125,7.397 -1.34,1.693 -7.168,2.288 -9.056,-0.057 -1.886,-2.337 1.16,-7.668 1.368,-7.899 0.211,-0.234 -9.099,-1.336 -12.688,2.397 -2.957,3.069 -1.41,12.588 -1.41,12.588 0,0 6.367,-3.498 9.49,-1.391 3.002,2.028 3.459,8.886 1.248,10 -2.414,1.219 -7.911,-2.376 -7.911,-2.376 0,0 -0.296,9.322 2.276,10.451 2.572,1.133 7.176,-2.363 9.81,0.02 1.864,1.684 -1.78,4.615 -0.443,6.309 1.374,1.732 8.87,1.318 10.286,-0.506 1.418,-1.828 -3.236,-4.369 -2.071,-6.313 0.638,-1.064 7.04,0.024 8.871,-2.325 z" />
        <line
           style="fill:#ffffff;stroke:#000000;stroke-width:1.21749997"
           id="line382"
           y2="339.035"
           x2="418.88199"
           y1="340.57199"
           x1="419.51599" />
        <line
           style="fill:#ffffff;stroke:#000000;stroke-width:1.21749997"
           id="line384"
           y2="340.07199"
           x2="400.54401"
           y1="341.60901"
           x1="401.17899" />
        <path
           style="fill:#ffffff;stroke:#000000;stroke-width:1.20000005;stroke-linecap:round"
           inkscape:connector-curvature="0"
           id="path386"
           d="m 409.61,362.947 c 0,0 2.184,3.214 8.442,3.772" />
        <line
           style="fill:none;stroke:#000000;stroke-width:1.75;stroke-linecap:round"
           id="line388"
           y2="355.91"
           x2="413.603"
           y1="352.33499"
           x1="413.328" />
        <path
           style="fill:#fff7c0;stroke:#000000;stroke-width:1.5"
           inkscape:connector-curvature="0"
           id="path1096"
           d="m 446.159,372.23 c 0,0 -0.186,-10.653 1.299,-10.716 3.269,-0.136 2.427,6.58 2.427,6.58 0,0 11.292,-6.447 14.209,-3.749 2.147,1.987 -0.627,10.525 -3.745,11.034 -5.597,0.916 -14.19,-3.149 -14.19,-3.149 z" />
        <line
           style="fill:none;stroke:#000000;stroke-width:0.86390001"
           id="line1098"
           y2="367.38501"
           x2="457.37701"
           y1="366.88"
           x1="464.82599" />
        <line
           style="fill:none;stroke:#000000;stroke-width:0.86390001"
           id="line1100"
           y2="370.05801"
           x2="456.784"
           y1="369.55499"
           x1="464.23001" />
        <line
           style="fill:none;stroke:#000000;stroke-width:0.86390001"
           id="line1102"
           y2="372.73099"
           x2="456.18799"
           y1="372.22699"
           x1="463.63901" />
      </g>
    </g>
  </g>
</svg>
