<?xml version="1.0" encoding="UTF-8" standalone="no"?>
<!-- Created with Inkscape (http://www.inkscape.org/) -->

<svg
   xmlns:dc="http://purl.org/dc/elements/1.1/"
   xmlns:cc="http://creativecommons.org/ns#"
   xmlns:rdf="http://www.w3.org/1999/02/22-rdf-syntax-ns#"
   xmlns:svg="http://www.w3.org/2000/svg"
   xmlns="http://www.w3.org/2000/svg"
   xmlns:sodipodi="http://sodipodi.sourceforge.net/DTD/sodipodi-0.dtd"
   xmlns:inkscape="http://www.inkscape.org/namespaces/inkscape"
   width="951.34613"
   height="535.3382"
   id="svg2"
   version="1.1"
   inkscape:version="0.48.4 r9939"
   sodipodi:docname="Tech news process 1 - Monitoring and writing.svg">
  <defs
     id="defs4">
    <marker
       inkscape:stockid="Arrow2Mend"
       orient="auto"
       refY="0"
       refX="0"
       id="Arrow2Mend"
       style="overflow:visible">
      <path
         id="path12077"
         style="fill-rule:evenodd;stroke-width:0.625;stroke-linejoin:round"
         d="M 8.7185878,4.0337352 -2.2072895,0.01601326 8.7185884,-4.0017078 c -1.7454984,2.3720609 -1.7354408,5.6174519 -6e-7,8.035443 z"
         transform="scale(-0.6,-0.6)"
         inkscape:connector-curvature="0" />
    </marker>
    <marker
       inkscape:stockid="Arrow2Mstart"
       orient="auto"
       refY="0"
       refX="0"
       id="Arrow2Mstart"
       style="overflow:visible">
      <path
         id="path12074"
         style="fill-rule:evenodd;stroke-width:0.625;stroke-linejoin:round"
         d="M 8.7185878,4.0337352 -2.2072895,0.01601326 8.7185884,-4.0017078 c -1.7454984,2.3720609 -1.7354408,5.6174519 -6e-7,8.035443 z"
         transform="scale(0.6,0.6)"
         inkscape:connector-curvature="0" />
    </marker>
    <marker
       inkscape:stockid="Arrow2Lstart"
       orient="auto"
       refY="0"
       refX="0"
       id="Arrow2Lstart"
       style="overflow:visible">
      <path
         id="path12068"
         style="fill-rule:evenodd;stroke-width:0.625;stroke-linejoin:round"
         d="M 8.7185878,4.0337352 -2.2072895,0.01601326 8.7185884,-4.0017078 c -1.7454984,2.3720609 -1.7354408,5.6174519 -6e-7,8.035443 z"
         transform="matrix(1.1,0,0,1.1,1.1,0)"
         inkscape:connector-curvature="0" />
    </marker>
    <marker
       inkscape:stockid="Arrow1Lend"
       orient="auto"
       refY="0"
       refX="0"
       id="Arrow1Lend"
       style="overflow:visible">
      <path
         id="path12053"
         d="M 0,0 5,-5 -12.5,0 5,5 0,0 z"
         style="fill-rule:evenodd;stroke:#000000;stroke-width:1pt"
         transform="matrix(-0.8,0,0,-0.8,-10,0)"
         inkscape:connector-curvature="0" />
    </marker>
    <marker
       inkscape:stockid="Arrow1Lstart"
       orient="auto"
       refY="0"
       refX="0"
       id="Arrow1Lstart"
       style="overflow:visible">
      <path
         id="path12050"
         d="M 0,0 5,-5 -12.5,0 5,5 0,0 z"
         style="fill-rule:evenodd;stroke:#000000;stroke-width:1pt"
         transform="matrix(0.8,0,0,0.8,10,0)"
         inkscape:connector-curvature="0" />
    </marker>
    <marker
       inkscape:stockid="Arrow1Mend"
       orient="auto"
       refY="0"
       refX="0"
       id="Arrow1Mend"
       style="overflow:visible">
      <path
         id="path12059"
         d="M 0,0 5,-5 -12.5,0 5,5 0,0 z"
         style="fill-rule:evenodd;stroke:#000000;stroke-width:1pt"
         transform="matrix(-0.4,0,0,-0.4,-4,0)"
         inkscape:connector-curvature="0" />
    </marker>
    <marker
       inkscape:stockid="Arrow1Mstart"
       orient="auto"
       refY="0"
       refX="0"
       id="Arrow1Mstart"
       style="overflow:visible">
      <path
         id="path12056"
         d="M 0,0 5,-5 -12.5,0 5,5 0,0 z"
         style="fill-rule:evenodd;stroke:#000000;stroke-width:1pt"
         transform="matrix(0.4,0,0,0.4,4,0)"
         inkscape:connector-curvature="0" />
    </marker>
    <marker
       inkscape:stockid="Arrow2Mstart"
       orient="auto"
       refY="0"
       refX="0"
       id="Arrow2Mstart-0"
       style="overflow:visible">
      <path
         inkscape:connector-curvature="0"
         id="path12074-4"
         style="fill-rule:evenodd;stroke-width:0.625;stroke-linejoin:round"
         d="M 8.7185878,4.0337352 -2.2072895,0.01601326 8.7185884,-4.0017078 c -1.7454984,2.3720609 -1.7354408,5.6174519 -6e-7,8.035443 z"
         transform="scale(0.6,0.6)" />
    </marker>
    <marker
       inkscape:stockid="Arrow2Mend"
       orient="auto"
       refY="0"
       refX="0"
       id="Arrow2Mend-1"
       style="overflow:visible">
      <path
         inkscape:connector-curvature="0"
         id="path12077-4"
         style="fill-rule:evenodd;stroke-width:0.625;stroke-linejoin:round"
         d="M 8.7185878,4.0337352 -2.2072895,0.01601326 8.7185884,-4.0017078 c -1.7454984,2.3720609 -1.7354408,5.6174519 -6e-7,8.035443 z"
         transform="scale(-0.6,-0.6)" />
    </marker>
    <marker
       inkscape:stockid="Arrow2Mstart"
       orient="auto"
       refY="0"
       refX="0"
       id="Arrow2Mstart-7"
       style="overflow:visible">
      <path
         inkscape:connector-curvature="0"
         id="path12074-5"
         style="fill-rule:evenodd;stroke-width:0.625;stroke-linejoin:round"
         d="M 8.7185878,4.0337352 -2.2072895,0.01601326 8.7185884,-4.0017078 c -1.7454984,2.3720609 -1.7354408,5.6174519 -6e-7,8.035443 z"
         transform="scale(0.6,0.6)" />
    </marker>
    <marker
       inkscape:stockid="Arrow2Mend"
       orient="auto"
       refY="0"
       refX="0"
       id="Arrow2Mend-7"
       style="overflow:visible">
      <path
         inkscape:connector-curvature="0"
         id="path12077-46"
         style="fill-rule:evenodd;stroke-width:0.625;stroke-linejoin:round"
         d="M 8.7185878,4.0337352 -2.2072895,0.01601326 8.7185884,-4.0017078 c -1.7454984,2.3720609 -1.7354408,5.6174519 -6e-7,8.035443 z"
         transform="scale(-0.6,-0.6)" />
    </marker>
  </defs>
  <sodipodi:namedview
     id="base"
     pagecolor="#ffffff"
     bordercolor="#666666"
     borderopacity="1.0"
     inkscape:pageopacity="0.0"
     inkscape:pageshadow="2"
     inkscape:zoom="0.36934926"
     inkscape:cx="604.57311"
     inkscape:cy="211.29979"
     inkscape:document-units="px"
     inkscape:current-layer="layer1"
     showgrid="false"
     inkscape:window-width="1885"
     inkscape:window-height="1060"
     inkscape:window-x="33"
     inkscape:window-y="-3"
     inkscape:window-maximized="1"
     fit-margin-top="0"
     fit-margin-left="0"
     fit-margin-right="0"
     fit-margin-bottom="0">
    <inkscape:grid
       type="xygrid"
       id="grid4317"
       empspacing="5"
       visible="true"
       enabled="true"
       snapvisiblegridlinesonly="true"
       originx="278.43118px"
       originy="-124.59312px" />
  </sodipodi:namedview>
  <metadata
     id="metadata7">
    <rdf:RDF>
      <cc:Work
         rdf:about="">
        <dc:format>image/svg+xml</dc:format>
        <dc:type
           rdf:resource="http://purl.org/dc/dcmitype/StillImage" />
        <dc:title></dc:title>
      </cc:Work>
    </rdf:RDF>
  </metadata>
  <g
     inkscape:label="Calque 1"
     inkscape:groupmode="layer"
     id="layer1"
     transform="translate(278.43118,-392.43091)">
    <g
       id="g3575">
      <rect
         y="392.43091"
         x="-278.43118"
         height="535.3382"
         width="951.34613"
         id="rect3143"
         style="fill:#eee8d5;fill-opacity:1;stroke:none" />
      <g
         id="g3428">
        <g
           style="font-size:40px;font-style:normal;font-variant:normal;font-weight:normal;font-stretch:normal;text-align:start;line-height:125%;letter-spacing:0px;word-spacing:0px;writing-mode:lr-tb;text-anchor:start;fill:#2aa198;fill-opacity:1;stroke:none;font-family:Latin Modern Sans;-inkscape-font-specification:Latin Modern Sans"
           id="text3145-9-4">
          <path
             d="m 428.59439,523.15779 -2.88,0 -3.64,12.56 c -1.04,3.55999 -2.96,10.28 -3.16,12.32 l -0.04,0 c 0,0 -0.24001,-2.12001 -2.88,-11.24 l -3.92,-13.64 -3.24,0 -3.6,12.48 c -0.88,3.07999 -2.88,10.08 -3.08,12.32 l -0.04,0 c -0.16,-1.6 -1.24,-5.52001 -1.56,-6.84 l -1.88,-6.68 -3.24,-11.28 -3.44,0 8.12,27.76 3.24,0 4,-13.88 c 0.84,-2.92 2.56,-8.88001 2.8,-10.96 l 0.04,0 c 0.16,1.19999 1.12,5 2.2,8.8 l 4.6,16.04 3.48,0 8.12,-27.76"
             style="line-height:125%;fill:#2aa198;font-family:Latin Modern Sans;-inkscape-font-specification:Latin Modern Sans"
             id="path3393" />
          <path
             d="m 441.12877,535.39779 0,-2.68 c -3.56,0.04 -5.76,2 -7,3.84 l 0,-3.64 -2.8,0 0,18 3,0 0,-8.56 c 0,-4 2.88,-6.88 6.8,-6.96"
             style="line-height:125%;fill:#2aa198;font-family:Latin Modern Sans;-inkscape-font-specification:Latin Modern Sans"
             id="path3395" />
          <path
             d="m 447.96064,550.91779 0,-17.76 -3,0 0,17.76 3,0 m 0.32,-22.64 0,-3.56 -3.56,0 0,3.56 3.56,0"
             style="line-height:125%;fill:#2aa198;font-family:Latin Modern Sans;-inkscape-font-specification:Latin Modern Sans"
             id="path3397" />
          <path
             d="m 464.53189,549.83779 -0.64,-2.36 c -1.04,0.83999 -2.32,1.32 -3.6,1.32 -1.48,0 -2.04,-1.20001 -2.04,-3.32 l 0,-10 5.64,0 0,-2.32 -5.64,0 0,-5.08 -2.76,0 0,5.08 -3.48,0 0,2.32 3.36,0 0,10.68 c 0,2.39999 0.56,5.2 3.32,5.2 2.8,0 4.84,-1 5.84,-1.52"
             style="line-height:125%;fill:#2aa198;font-family:Latin Modern Sans;-inkscape-font-specification:Latin Modern Sans"
             id="path3399" />
          <path
             d="m 471.94502,550.91779 0,-17.76 -3,0 0,17.76 3,0 m 0.32,-22.64 0,-3.56 -3.56,0 0,3.56 3.56,0"
             style="line-height:125%;fill:#2aa198;font-family:Latin Modern Sans;-inkscape-font-specification:Latin Modern Sans"
             id="path3401" />
          <path
             d="m 492.63627,550.91779 0,-11.92 c 0,-2.64 -0.60001,-6.28 -5.48,-6.28 -3.6,0 -5.56,2.72 -5.8,3.04 l 0,-2.84 -2.88,0 0,18 3.12,0 0,-9.8 c 0,-2.64 1,-5.96 4.04,-5.96 3.83999,0 3.88,2.84 3.88,4.12 l 0,11.64 3.12,0"
             style="line-height:125%;fill:#2aa198;font-family:Latin Modern Sans;-inkscape-font-specification:Latin Modern Sans"
             id="path3403" />
          <path
             d="m 515.33939,535.23779 -0.44,-2.52 c -2.8,0 -5.12,0.76 -6.32,1.28 -0.84,-0.68 -2.2,-1.28 -3.8,-1.28 -3.43999,0 -6.36,2.88 -6.36,6.52 0,1.47999 0.52,2.92 1.32,3.96 -1.16,1.63999 -1.16,3.2 -1.16,3.4 0,1.03999 0.36,2.2 1.04,3.04 -2.08,1.23999 -2.56,3.08 -2.56,4.12 0,2.99999 3.96001,5.4 8.84,5.4 4.92,0 8.88,-2.36001 8.88,-5.44 0,-5.56 -6.68,-5.56 -8.24,-5.56 l -3.52,0 c -0.52,0 -2.32,-10e-6 -2.32,-2.12 0,-0.44 0.16,-1.08 0.44,-1.44 0.84,0.6 2.16,1.16 3.64,1.16 3.6,0 6.4,-2.96001 6.4,-6.52 0,-1.92 -0.88,-3.4 -1.32,-4 l 0.16,0.04 c 0.88,0 2,-0.16 2.96,-0.16 0.72,0 2.36,0.12 2.36,0.12 m -6.96,4 c 0,3.11999 -1.88,4.24 -3.6,4.24 -1.48,0 -3.56,-0.92001 -3.56,-4.24 0,-3.32 2.08,-4.24 3.56,-4.24 1.72,0 3.6,1.12 3.6,4.24 m 3.6,14.56 c 0,1.75999 -2.76,3.08 -6.04,3.08 -3.23999,0 -6.08,-1.24001 -6.08,-3.12 0,-0.12 10e-6,-2.72 3.12,-2.72 l 3.6,0 c 0.88,0 5.4,0 5.4,2.76"
             style="line-height:125%;fill:#2aa198;font-family:Latin Modern Sans;-inkscape-font-specification:Latin Modern Sans"
             id="path3405" />
        </g>
        <path
           style="font-size:63.45178604px;font-style:normal;font-variant:normal;font-weight:normal;font-stretch:normal;line-height:125%;letter-spacing:0px;word-spacing:0px;fill:#2aa198;fill-opacity:1;stroke:none;font-family:FontAwesome;-inkscape-font-specification:FontAwesome"
           inkscape:connector-curvature="0"
           id="path8243"
           d="m 327.39798,552.01132 -1.72664,0 0,-2.96005 -2.96006,0 0,-1.72664 3.57668,-3.57676 4.68678,4.68678 -3.57676,3.57667 m 13.56693,-22.2004 c 0.27753,0.27753 0.24671,0.74002 -0.0305,1.01754 l -10.79185,10.79185 c -0.27753,0.27752 -0.74001,0.30835 -1.01754,0.0305 -0.27753,-0.27744 -0.2467,-0.74002 0.0305,-1.01746 l 10.79184,-10.79193 c 0.27753,-0.27744 0.74002,-0.30835 1.01754,-0.0305 m 2.46675,18.31537 c 0,-0.40083 -0.24671,-0.74001 -0.61671,-0.89423 -0.37001,-0.15413 -0.77084,-0.0925 -1.0792,0.21587 l -1.97333,1.97334 c -0.18505,0.18505 -0.27753,0.43175 -0.27753,0.67836 l 0,3.88512 c 0,2.71335 -2.22004,4.93339 -4.93339,4.93339 l -25.65386,0 c -2.71335,0 -4.93339,-2.22004 -4.93339,-4.93339 l 0,-25.65385 c 0,-2.71336 2.22004,-4.9334 4.93339,-4.9334 l 25.65386,0 c 0.46248,0 0.92497,0.0618 1.38745,0.18496 0.33918,0.1234 0.70919,0.0305 0.98672,-0.24661 l 1.51085,-1.51085 c 0.2467,-0.2467 0.33918,-0.55506 0.27753,-0.89424 -0.0618,-0.30835 -0.27753,-0.58579 -0.55506,-0.70918 -1.14084,-0.52414 -2.37417,-0.77084 -3.60749,-0.77084 l -25.65386,0 c -4.90256,0 -8.88016,3.97759 -8.88016,8.88016 l 0,25.65385 c 0,4.90256 3.9776,8.88016 8.88016,8.88016 l 25.65386,0 c 4.90256,0 8.88016,-3.9776 8.88016,-8.88016 l 0,-5.85846 m -2.96006,-22.75545 -20.72037,20.72037 0,8.88016 8.88016,0 20.72037,-20.72037 -8.88016,-8.88016 m 13.69025,4.07008 c 1.14084,-1.14085 1.14084,-3.05254 0,-4.19338 l -4.68678,-4.68678 c -1.14085,-1.14085 -3.05254,-1.14085 -4.19338,0 l -2.83675,2.83674 8.88016,8.88016 2.83675,-2.83674" />
        <g
           style="font-size:40px;font-style:normal;font-variant:normal;font-weight:normal;font-stretch:normal;text-align:start;line-height:125%;letter-spacing:0px;word-spacing:0px;writing-mode:lr-tb;text-anchor:start;fill:#2aa198;fill-opacity:1;stroke:none;font-family:Latin Modern Sans;-inkscape-font-specification:Latin Modern Sans"
           id="text3145-9">
          <path
             d="m 418.95438,473.15036 0,-27.76 -4.56,0 -5.2,13.56 c -1.39999,3.64 -3.28,8.6 -3.72,10.48 l -0.04,0 c -0.2,-0.84 -0.68,-2.32 -1.28,-4 l -6.28,-16.56 -1.36,-3.48 -4.52,0 0,27.76 3.12,0 0,-24.8 0.04,0 c 0.24,1.28 1.84001,5.64 2.88,8.36 l 5.92,15.56 2.92,0 5.32,-13.92 1.92,-5.08 c 0.4,-1.16 1.48,-4.04 1.68,-4.96 l 0.04,0.04 0,24.8 3.12,0"
             style="line-height:125%;fill:#2aa198;font-family:Latin Modern Sans;-inkscape-font-specification:Latin Modern Sans"
             id="path3408" />
          <path
             d="m 441.75438,464.35036 c 0,-5.35999 -4,-9.64 -8.76,-9.64 -4.91999,0 -8.8,4.40001 -8.8,9.64 0,5.27999 4.08001,9.24 8.76,9.24 4.8,0 8.8,-4.04001 8.8,-9.24 m -3.12,-0.4 c 0,4.72 -2.72,7.08 -5.68,7.08 -2.75999,0 -5.64,-2.24 -5.64,-7.08 0,-4.84 3.04001,-6.8 5.64,-6.8 2.8,0 5.68,2.08 5.68,6.8"
             style="line-height:125%;fill:#2aa198;font-family:Latin Modern Sans;-inkscape-font-specification:Latin Modern Sans"
             id="path3410" />
          <path
             d="m 460.39438,473.15036 0,-11.92 c 0,-2.64 -0.6,-6.28 -5.48,-6.28 -3.59999,0 -5.56,2.72 -5.8,3.04 l 0,-2.84 -2.88,0 0,18 3.12,0 0,-9.8 c 0,-2.64 1.00001,-5.96 4.04,-5.96 3.84,0 3.88,2.84 3.88,4.12 l 0,11.64 3.12,0"
             style="line-height:125%;fill:#2aa198;font-family:Latin Modern Sans;-inkscape-font-specification:Latin Modern Sans"
             id="path3412" />
          <path
             d="m 469.93751,473.15036 0,-17.76 -3,0 0,17.76 3,0 m 0.32,-22.64 0,-3.56 -3.56,0 0,3.56 3.56,0"
             style="line-height:125%;fill:#2aa198;font-family:Latin Modern Sans;-inkscape-font-specification:Latin Modern Sans"
             id="path3414" />
          <path
             d="m 486.50876,472.07036 -0.64,-2.36 c -1.04,0.84 -2.32,1.32 -3.6,1.32 -1.48,0 -2.04,-1.2 -2.04,-3.32 l 0,-10 5.64,0 0,-2.32 -5.64,0 0,-5.08 -2.76,0 0,5.08 -3.48,0 0,2.32 3.36,0 0,10.68 c 0,2.4 0.56,5.2 3.32,5.2 2.8,0 4.84,-1 5.84,-1.52"
             style="line-height:125%;fill:#2aa198;font-family:Latin Modern Sans;-inkscape-font-specification:Latin Modern Sans"
             id="path3416" />
          <path
             d="m 506.44188,464.35036 c 0,-5.35999 -4,-9.64 -8.76,-9.64 -4.91999,0 -8.8,4.40001 -8.8,9.64 0,5.27999 4.08001,9.24 8.76,9.24 4.8,0 8.8,-4.04001 8.8,-9.24 m -3.12,-0.4 c 0,4.72 -2.72,7.08 -5.68,7.08 -2.75999,0 -5.64,-2.24 -5.64,-7.08 0,-4.84 3.04001,-6.8 5.64,-6.8 2.8,0 5.68,2.08 5.68,6.8"
             style="line-height:125%;fill:#2aa198;font-family:Latin Modern Sans;-inkscape-font-specification:Latin Modern Sans"
             id="path3418" />
          <path
             d="m 519.64189,457.63036 0,-2.68 c -3.56,0.04 -5.76,2 -7,3.84 l 0,-3.64 -2.8,0 0,18 3,0 0,-8.56 c 0,-4 2.88,-6.88 6.8,-6.96"
             style="line-height:125%;fill:#2aa198;font-family:Latin Modern Sans;-inkscape-font-specification:Latin Modern Sans"
             id="path3420" />
          <path
             d="m 526.47376,473.15036 0,-17.76 -3,0 0,17.76 3,0 m 0.32,-22.64 0,-3.56 -3.56,0 0,3.56 3.56,0"
             style="line-height:125%;fill:#2aa198;font-family:Latin Modern Sans;-inkscape-font-specification:Latin Modern Sans"
             id="path3422" />
          <path
             d="m 547.16501,473.15036 0,-11.92 c 0,-2.64 -0.6,-6.28 -5.48,-6.28 -3.59999,0 -5.56,2.72 -5.8,3.04 l 0,-2.84 -2.88,0 0,18 3.12,0 0,-9.8 c 0,-2.64 1.00001,-5.96 4.04,-5.96 3.84,0 3.88,2.84 3.88,4.12 l 0,11.64 3.12,0"
             style="line-height:125%;fill:#2aa198;font-family:Latin Modern Sans;-inkscape-font-specification:Latin Modern Sans"
             id="path3424" />
          <path
             d="m 569.86814,457.47036 -0.44,-2.52 c -2.8,0 -5.12,0.76 -6.32,1.28 -0.84,-0.68 -2.2,-1.28 -3.8,-1.28 -3.44,0 -6.36,2.88 -6.36,6.52 0,1.48 0.52,2.92 1.32,3.96 -1.16,1.64 -1.16,3.2 -1.16,3.4 0,1.04 0.36,2.2 1.04,3.04 -2.08,1.24 -2.56,3.08 -2.56,4.12 0,3 3.96,5.4 8.84,5.4 4.91999,0 8.88,-2.36 8.88,-5.44 0,-5.55999 -6.68,-5.56 -8.24,-5.56 l -3.52,0 c -0.52,0 -2.32,0 -2.32,-2.12 0,-0.44 0.16,-1.08 0.44,-1.44 0.84,0.6 2.16,1.16 3.64,1.16 3.6,0 6.4,-2.96 6.4,-6.52 0,-1.92 -0.88,-3.4 -1.32,-4 l 0.16,0.04 c 0.88,0 2,-0.16 2.96,-0.16 0.72,0 2.36,0.12 2.36,0.12 m -6.96,4 c 0,3.12 -1.88,4.24 -3.6,4.24 -1.48,0 -3.56,-0.92 -3.56,-4.24 0,-3.32 2.08,-4.24 3.56,-4.24 1.72,0 3.6,1.12 3.6,4.24 m 3.6,14.56 c 0,1.76 -2.76,3.08 -6.04,3.08 -3.24,0 -6.08,-1.24 -6.08,-3.12 0,-0.12 0,-2.72 3.12,-2.72 l 3.6,0 c 0.88,0 5.4,0 5.4,2.76"
             style="line-height:125%;fill:#2aa198;font-family:Latin Modern Sans;-inkscape-font-specification:Latin Modern Sans"
             id="path3426" />
        </g>
        <path
           style="font-size:63.45178604px;font-style:normal;font-variant:normal;font-weight:normal;font-stretch:normal;line-height:125%;letter-spacing:0px;word-spacing:0px;fill:#2aa198;fill-opacity:1;stroke:none;font-family:FontAwesome;-inkscape-font-specification:FontAwesome"
           inkscape:connector-curvature="0"
           id="path8240"
           d="m 327.51747,435.89032 c -15.18226,0 -27.5,12.31774 -27.5,27.5001 0,15.18226 12.31774,27.5 27.5,27.5 15.18236,0 27.5,-12.31774 27.5,-27.5 0,-15.18236 -12.31764,-27.5001 -27.5,-27.5001 m 4.58337,44.6518 c 0,0.64449 -0.50129,1.18157 -1.11007,1.18157 l -6.875,0 c -0.64448,0 -1.18157,-0.53708 -1.18157,-1.18157 l 0,-6.8034 c 0,-0.64458 0.53709,-1.18166 1.18157,-1.18166 l 6.875,0 c 0.60878,0 1.11007,0.53708 1.11007,1.18166 l 0,6.8034 m -0.0718,-12.31774 c -0.0354,0.50129 -0.57299,0.89518 -1.21747,0.89518 l -6.62441,0 c -0.68028,0 -1.21736,-0.39389 -1.21736,-0.89518 l -0.60878,-22.23635 c 0,-0.2507 0.10739,-0.50129 0.35809,-0.64458 0.21489,-0.179 0.53708,-0.28639 0.85937,-0.28639 l 7.87757,0 c 0.32229,0 0.64458,0.10739 0.85938,0.28639 0.25069,0.14329 0.35809,0.39388 0.35809,0.64458 l -0.64448,22.23635" />
        <path
           inkscape:connector-curvature="0"
           id="path3132"
           style="font-size:40px;font-style:normal;font-variant:normal;font-weight:normal;font-stretch:normal;line-height:125%;letter-spacing:0px;word-spacing:0px;fill:#2aa198;fill-opacity:1;stroke:none;font-family:FontAwesome;-inkscape-font-specification:FontAwesome"
           d="m 429.14029,712.92518 c 0,-0.63281 -0.49219,-1.12499 -1.125,-1.12499 l -24.75,0 c -0.63281,0 -1.125,0.49218 -1.125,1.12499 l 0,2.25001 c 0,0.63281 0.49219,1.12499 1.125,1.12499 l 24.75,0 c 0.63281,0 1.125,-0.49218 1.125,-1.12499 l 0,-2.25001 m 0,-8.99999 c 0,-0.63282 -0.49219,-1.12501 -1.125,-1.12501 l -24.75,0 c -0.63281,0 -1.125,0.49219 -1.125,1.12501 l 0,2.24999 c 0,0.63282 0.49219,1.12501 1.125,1.12501 l 24.75,0 c 0.63281,0 1.125,-0.49219 1.125,-1.12501 l 0,-2.24999 m -31.5,21.375 0,-45 18,0 0,14.62499 c 0,1.86329 1.51172,3.375 3.375,3.375 l 14.625,0 0,27.00001 -36,0 m 22.5,-31.5 0,-13.21876 c 0.59766,0.21094 1.19531,0.52735 1.4414,0.77344 l 11.00391,11.00391 c 0.24609,0.24609 0.5625,0.84374 0.77344,1.44141 l -13.21875,0 m 18,1.12499 c 0,-1.86327 -1.08985,-4.46484 -2.39063,-5.76562 l -10.96875,-10.96875 c -1.30078,-1.30078 -3.90234,-2.39062 -5.76562,-2.39062 l -22.5,0 c -1.86328,0 -3.375,1.51172 -3.375,3.37499 l 0,47.25 c 0,1.86329 1.51172,3.375 3.375,3.375 l 38.25,0 c 1.86328,0 3.375,-1.51171 3.375,-3.375 l 0,-31.5" />
        <g
           style="font-size:63.45178604px;font-style:normal;font-variant:normal;font-weight:normal;font-stretch:normal;line-height:125%;letter-spacing:0px;word-spacing:0px;fill:#657b83;fill-opacity:1;stroke:none;font-family:Latin Modern Sans;-inkscape-font-specification:Latin Modern Sans"
           id="text3145">
          <path
             d="m 487.53921,691.54021 0,-2.6 -24.32,0 0,2.6 5.36,0 c 0.47999,0 0.96,-0.04 1.44,-0.04 l 3.6,0 0,24.96 3.56,0 0,-24.96 3.56,0 c 0.47999,0 0.96,0.04 1.44,0.04 l 5.36,0"
             style="font-size:40px;fill:#657b83;font-family:LMSans17;-inkscape-font-specification:LMSans17 Bold"
             id="path3376" />
          <path
             d="m 500.84424,707.70021 c 0,-1.36 -0.04,-4.36001 -1.6,-6.76 -1.64,-2.48 -4.08,-2.92 -5.52,-2.92 -4.43999,0 -8.04,4.24 -8.04,9.4 0,5.27999 3.84001,9.48 8.64,9.48 2.52,0 4.8,-0.96001 6.36,-2.08 l -0.24,-2.6 c -2.52,2.07999 -5.16,2.24 -6.08,2.24 -3.2,0 -5.76,-2.84001 -5.88,-6.76 l 12.36,0 m -2.28,-2.2 -9.88,0 c 0.64,-3.04 2.76,-5.04 5.04,-5.04 2.08,0 4.32,1.36 4.84,5.04"
             style="font-size:40px;fill:#657b83;font-family:LMSans17;-inkscape-font-specification:LMSans17 Bold"
             id="path3378" />
          <path
             d="m 517.60299,714.86021 -0.24,-2.68 c -2.04,1.59999 -4.2,2.16 -6.24,2.16 -3.32,0 -5.56,-2.88001 -5.56,-6.8 0,-3.12 1.48,-6.96 5.72,-6.96 2.08,0 3.44,0.32 5.64,1.76 l 0.48,-2.6 c -2.36,-1.36 -3.72,-1.72 -6.16,-1.72 -5.55999,0 -8.8,4.84 -8.8,9.56 0,4.95999 3.64001,9.32 8.64,9.32 2.16,0 4.36,-0.56001 6.52,-2.04"
             style="font-size:40px;fill:#657b83;font-family:LMSans17;-inkscape-font-specification:LMSans17 Bold"
             id="path3380" />
          <path
             d="m 535.12174,716.46021 0,-11.92 c 0,-2.64 -0.6,-6.28 -5.48,-6.28 -2.48,0 -4.4,1.24 -5.68,2.88 l 0,-12.44 -3,0 0,27.76 3.12,0 0,-9.8 c 0,-2.64 1,-5.96 4.04,-5.96 3.84,0 3.88,2.84 3.88,4.12 l 0,11.64 3.12,0"
             style="font-size:40px;fill:#657b83;font-family:LMSans17;-inkscape-font-specification:LMSans17 Bold"
             id="path3382" />
          <path
             d="m 574.03674,716.46021 0,-27.76 -3.12,0 0,24.92 -0.04,0 -2.68,-5.48 -9.8,-19.44 -4.96,0 0,27.76 3.12,0 0,-24.92 0.04,0 2.68,5.48 9.8,19.44 4.96,0"
             style="font-size:40px;fill:#657b83;font-family:LMSans17;-inkscape-font-specification:LMSans17 Bold"
             id="path3384" />
          <path
             d="m 592.64112,707.70021 c 0,-1.36 -0.04,-4.36001 -1.6,-6.76 -1.64,-2.48 -4.08001,-2.92 -5.52,-2.92 -4.44,0 -8.04,4.24 -8.04,9.4 0,5.27999 3.84,9.48 8.64,9.48 2.51999,0 4.8,-0.96001 6.36,-2.08 l -0.24,-2.6 c -2.52,2.07999 -5.16001,2.24 -6.08,2.24 -3.2,0 -5.76,-2.84001 -5.88,-6.76 l 12.36,0 m -2.28,-2.2 -9.88,0 c 0.64,-3.04 2.76,-5.04 5.04,-5.04 2.07999,0 4.32,1.36 4.84,5.04"
             style="font-size:40px;fill:#657b83;font-family:LMSans17;-inkscape-font-specification:LMSans17 Bold"
             id="path3386" />
          <path
             d="m 619.51987,698.70021 -2.92,0 -2.56,8.48 c -0.44,1.43999 -1.64,5.4 -1.84,7.12 l -0.04,0 c -0.16,-1.24 -1.16,-4.80001 -1.84,-7.08 l -2.6,-8.52 -2.8,0 -2.28,7.52 c -0.44,1.39999 -1.8,6 -1.96,8.04 l -0.04,0 c -0.2,-1.92 -1.52,-6.44001 -2.16,-8.64 l -2.08,-6.92 -3.04,0 5.48,17.76 3.16,0 2.48,-8.24 c 0.56,-1.84 1.68,-5.80001 1.8,-7.28 l 0.04,0 c 0.08,1.11999 0.76,3.88 1.28,5.6 l 2.92,9.92 3.52,0 5.48,-17.76"
             style="font-size:40px;fill:#657b83;font-family:LMSans17;-inkscape-font-specification:LMSans17 Bold"
             id="path3388" />
          <path
             d="m 632.82487,711.34021 c 0,-2.2 -1.48,-3.56001 -1.56,-3.68 -1.56,-1.4 -2.64001,-1.64001 -4.64,-2 -2.2,-0.44 -4.04,-0.84001 -4.04,-2.8 0,-2.48 2.88,-2.48 3.4,-2.48 1.27999,0 3.4,0.16 5.68,1.52 l 0.48,-2.6 c -2.08,-0.96 -3.72001,-1.28 -5.76,-1.28 -1,0 -6.64,0 -6.64,5.24 0,1.95999 1.16,3.24 2.16,4 1.23999,0.87999 2.12,1.04 4.32,1.48 1.43999,0.27999 3.76,0.76 3.76,2.88 0,2.75999 -3.16,2.76 -3.76,2.76 -3.24,0 -5.48,-1.48001 -6.2,-1.96 l -0.48,2.72 c 1.27999,0.63999 3.48,1.76 6.72,1.76 0.72,0 2.92,-10e-6 4.64,-1.28 1.23999,-0.96 1.92,-2.56001 1.92,-4.28"
             style="font-size:40px;fill:#657b83;font-family:LMSans17;-inkscape-font-specification:LMSans17 Bold"
             id="path3390" />
        </g>
        <path
           inkscape:connector-curvature="0"
           id="path3129"
           style="font-size:40px;font-style:normal;font-variant:normal;font-weight:normal;font-stretch:normal;line-height:125%;letter-spacing:0px;word-spacing:0px;fill:#dc322f;fill-opacity:1;stroke:none;font-family:FontAwesome;-inkscape-font-specification:FontAwesome"
           d="m -184.98305,582.47387 c 0,-0.98437 -0.81563,-1.80001 -1.80001,-1.80001 l -6.3,0 c 0,-3.6 0,-6.41249 0,-8.26875 l 4.86563,-4.86562 c 0.70313,-0.70313 0.70313,-1.82813 0,-2.53125 -0.70312,-0.70313 -1.82813,-0.70313 -2.53125,0 l -4.86562,4.86563 -23.7375,0 -4.86563,-4.86563 c -0.70313,-0.70313 -1.82813,-0.70313 -2.53125,0 -0.70313,0.70312 -0.70313,1.82812 0,2.53125 l 4.86563,4.86562 c 0,1.85626 0,4.66875 0,8.26875 l -6.3,0 c -0.98438,0 -1.80001,0.81564 -1.80001,1.80001 0,0.98436 0.81563,1.8 1.80001,1.8 l 6.3,0 c 0,3.26249 0.64687,5.76562 1.63124,7.70625 l -5.68124,6.38437 c -0.64689,0.75937 -0.59064,1.88438 0.14062,2.55937 0.36562,0.30938 0.7875,0.45001 1.20937,0.45001 0.50626,0 0.98438,-0.19687 1.35001,-0.59062 l 5.14687,-5.82189 c 0,0 3.71251,3.71251 8.80313,3.71251 l 0,-25.2 3.59999,0 0,25.2 c 4.78125,0 8.46563,-3.375 8.46563,-3.375 l 5.56875,5.54062 c 0.3375,0.36563 0.81563,0.53438 1.26563,0.53438 0.44999,0 0.92812,-0.16875 1.26562,-0.53438 0.70312,-0.70313 0.70312,-1.82813 0,-2.53125 l -5.85,-5.87813 c 1.125,-1.99687 1.88437,-4.64063 1.88437,-8.15624 l 6.3,0 c 0.98438,0 1.80001,-0.81564 1.80001,-1.8 m -13.5,-16.20001 c 0,-4.97812 -4.02188,-8.99999 -9,-8.99999 -4.97812,0 -9,4.02187 -9,8.99999 l 18,0" />
        <g
           style="font-size:63.45178604px;font-style:normal;font-variant:normal;font-weight:normal;font-stretch:normal;line-height:125%;letter-spacing:0px;word-spacing:0px;fill:#657b83;fill-opacity:1;stroke:none;font-family:Latin Modern Sans;-inkscape-font-specification:Latin Modern Sans"
           id="text3145-2">
          <path
             d="m -136.05557,582.35032 c 0,-2.436 -2.43601,-4.424 -5.404,-4.9 2.54799,-0.644 4.648,-2.268 4.648,-4.396 0,-2.576 -2.99601,-4.872 -6.972,-4.872 l -6.636,0 0,19.432 7.392,0 c 4.03199,0 6.972,-2.52 6.972,-5.264 m -2.94,-9.268 c 0,1.68 -1.98801,3.584 -5.852,3.584 l -3.248,0 0,-6.916 3.528,0 c 3.10799,0 5.572,1.484 5.572,3.332 m 0.672,9.24 c 0,2.1 -2.46401,3.724 -5.488,3.724 l -4.284,0 0,-7.672 4.06,0 c 2.96799,0 5.712,1.708 5.712,3.948"
             style="font-size:28px;fill:#657b83;font-family:LMSans17;-inkscape-font-specification:LMSans17 Bold"
             id="path3308" />
          <path
             d="m -123.40089,587.61432 0,-12.432 -2.184,0 0,8.12 c 0,2.1 -1.568,3.08 -3.36,3.08 -1.98799,0 -2.184,-0.728 -2.184,-1.932 l 0,-9.268 -2.184,0 0,9.38 c 0,2.016 0.64401,3.36 2.968,3.36 1.484,0 3.472,-0.448 4.844,-1.652 l 0,1.344 2.1,0"
             style="font-size:28px;fill:#657b83;font-family:LMSans17;-inkscape-font-specification:LMSans17 Bold"
             id="path3310" />
          <path
             d="m -108.43839,576.63832 -0.308,-1.764 c -1.95999,0 -3.584,0.532 -4.424,0.896 -0.588,-0.476 -1.54,-0.896 -2.66,-0.896 -2.40799,0 -4.452,2.016 -4.452,4.564 0,1.036 0.364,2.044 0.924,2.772 -0.812,1.148 -0.812,2.24 -0.812,2.38 0,0.728 0.252,1.54 0.728,2.128 -1.456,0.868 -1.792,2.156 -1.792,2.884 0,2.1 2.77201,3.78 6.188,3.78 3.444,0 6.216,-1.652 6.216,-3.808 0,-3.892 -4.676,-3.892 -5.768,-3.892 l -2.464,0 c -0.364,0 -1.624,0 -1.624,-1.484 0,-0.308 0.112,-0.756 0.308,-1.008 0.588,0.42 1.512,0.812 2.548,0.812 2.52,0 4.48,-2.072 4.48,-4.564 0,-1.344 -0.616,-2.38 -0.924,-2.8 l 0.112,0.028 c 0.616,0 1.4,-0.112 2.072,-0.112 0.504,0 1.652,0.084 1.652,0.084 m -4.872,2.8 c 0,2.184 -1.316,2.968 -2.52,2.968 -1.036,0 -2.492,-0.644 -2.492,-2.968 0,-2.324 1.456,-2.968 2.492,-2.968 1.204,0 2.52,0.784 2.52,2.968 m 2.52,10.192 c 0,1.232 -1.932,2.156 -4.228,2.156 -2.26799,0 -4.256,-0.868 -4.256,-2.184 0,-0.084 1e-5,-1.904 2.184,-1.904 l 2.52,0 c 0.616,0 3.78,0 3.78,1.932"
             style="font-size:28px;fill:#657b83;font-family:LMSans17;-inkscape-font-specification:LMSans17 Bold"
             id="path3312" />
          <path
             d="m -98.758699,584.03032 c 0,-1.54 -1.036,-2.492 -1.092,-2.576 -1.092001,-0.98 -1.848001,-1.148 -3.248001,-1.4 -1.54,-0.308 -2.828,-0.588 -2.828,-1.96 0,-1.736 2.016,-1.736 2.38,-1.736 0.896,0 2.38,0.112 3.976001,1.064 l 0.336,-1.82 c -1.456001,-0.672 -2.604001,-0.896 -4.032001,-0.896 -0.7,0 -4.648,0 -4.648,3.668 0,1.372 0.812,2.268 1.512,2.8 0.868,0.616 1.484,0.728 3.024,1.036 1.008,0.196 2.632,0.532 2.632,2.016 0,1.932 -2.212,1.932 -2.632,1.932 -2.268,0 -3.836,-1.036 -4.34,-1.372 l -0.336,1.904 c 0.896,0.448 2.436,1.232 4.704,1.232 0.504,0 2.044,0 3.248,-0.896 0.868,-0.672 1.344001,-1.792 1.344001,-2.996"
             style="font-size:28px;fill:#657b83;font-family:LMSans17;-inkscape-font-specification:LMSans17 Bold"
             id="path3314" />
          <path
             d="m -78.574199,587.61432 0,-8.092 c 0,-2.856 -2.044003,-4.816 -4.62,-4.816 -1.819999,0 -3.080002,0.448 -4.396,1.204 l 0.168,1.848 c 1.455998,-1.036 2.856001,-1.4 4.228,-1.4 1.315998,0 2.436,1.12 2.436,3.192 l 0,1.204 c -4.199996,0.056 -7.756,1.232 -7.756,3.696 0,1.204 0.756002,3.472 3.192,3.472 0.391999,0 3.024001,-0.056 4.648,-1.316 l 0,1.008 2.1,0 m -2.184,-3.696 c 0,0.532 -10e-7,1.232 -0.952,1.764 -0.812,0.504 -1.876001,0.532 -2.184,0.532 -1.343999,0 -2.604,-0.644 -2.604,-1.82 0,-1.96 4.536001,-2.156 5.74,-2.212 l 0,1.736"
             style="font-size:28px;fill:#657b83;font-family:LMSans17;-inkscape-font-specification:LMSans17 Bold"
             id="path3316" />
          <path
             d="m -65.213387,587.61432 0,-8.344 c 0,-1.848 -0.420003,-4.396 -3.836,-4.396 -2.519997,0 -3.892,1.904 -4.06,2.128 l 0,-1.988 -2.016,0 0,12.6 2.184,0 0,-6.86 c 0,-1.848 0.700002,-4.172 2.828,-4.172 2.687997,0 2.716,1.988 2.716,2.884 l 0,8.148 2.184,0"
             style="font-size:28px;fill:#657b83;font-family:LMSans17;-inkscape-font-specification:LMSans17 Bold"
             id="path3318" />
          <path
             d="m -51.678887,587.61432 0,-19.432 -2.1,0 0,8.232 c -1.483998,-1.232 -3.052001,-1.54 -4.088,-1.54 -2.771997,0 -4.956,2.912 -4.956,6.524 0,3.668 2.156003,6.524 4.816,6.524 0.923999,0 2.576002,-0.252 4.144,-1.764 l 0,1.456 2.184,0 m -2.184,-3.892 c 0,0.392 -0.028,0.896 -0.924,1.708 -0.643999,0.56 -1.344001,0.784 -2.072,0.784 -1.735998,0 -3.78,-1.316 -3.78,-4.788 0,-3.696 2.408002,-4.844 4.06,-4.844 1.259999,0 2.100001,0.644 2.716,1.54 l 0,5.6"
             style="font-size:28px;fill:#657b83;font-family:LMSans17;-inkscape-font-specification:LMSans17 Bold"
             id="path3320" />
          <path
             d="m -28.386387,581.45432 c 0,-3.752 -2.800003,-6.748 -6.132,-6.748 -3.443996,0 -6.16,3.08 -6.16,6.748 0,3.696 2.856003,6.468 6.132,6.468 3.359997,0 6.16,-2.828 6.16,-6.468 m -2.184,-0.28 c 0,3.304 -1.904002,4.956 -3.976,4.956 -1.931998,0 -3.948,-1.568 -3.948,-4.956 0,-3.388 2.128002,-4.76 3.948,-4.76 1.959998,0 3.976,1.456 3.976,4.76"
             style="font-size:28px;fill:#657b83;font-family:LMSans17;-inkscape-font-specification:LMSans17 Bold"
             id="path3322" />
          <path
             d="m -19.042699,586.85832 -0.448,-1.652 c -0.728,0.588 -1.624001,0.924 -2.52,0.924 -1.035999,0 -1.428,-0.84 -1.428,-2.324 l 0,-7 3.948,0 0,-1.624 -3.948,0 0,-3.556 -1.932,0 0,3.556 -2.436,0 0,1.624 2.352,0 0,7.476 c 0,1.68 0.392002,3.64 2.324,3.64 1.959998,0 3.388,-0.7 4.088,-1.064"
             style="font-size:28px;fill:#657b83;font-family:LMSans17;-inkscape-font-specification:LMSans17 Bold"
             id="path3324" />
          <path
             d="m -6.6430743,587.61432 0,-8.344 c 0,-1.848 -0.4200035,-4.396 -3.8359997,-4.396 -1.735999,0 -3.080001,0.868 -3.976,2.016 l 0,-8.708 -2.1,0 0,19.432 2.184,0 0,-6.86 c 0,-1.848 0.700002,-4.172 2.828,-4.172 2.687997,0 2.7159997,1.988 2.7159997,2.884 l 0,8.148 2.184,0"
             style="font-size:28px;fill:#657b83;font-family:LMSans17;-inkscape-font-specification:LMSans17 Bold"
             id="path3326" />
          <path
             d="m 6.3314257,581.48232 c 0,-0.952 -0.028001,-3.052 -1.12,-4.732 -1.1479989,-1.736 -2.856001,-2.044 -3.864,-2.044 -3.1079969,0 -5.628,2.968 -5.628,6.58 0,3.696 2.6880033,6.636 6.048,6.636 1.7639982,0 3.3600011,-0.672 4.452,-1.456 l -0.168,-1.82 c -1.7639983,1.456 -3.6120007,1.568 -4.256,1.568 -2.2399978,0 -4.0320001,-1.988 -4.116,-4.732 l 8.652,0 m -1.596,-1.54 -6.916,0 c 0.4479995,-2.128 1.93200156,-3.528 3.528,-3.528 1.4559985,0 3.0240003,0.952 3.388,3.528"
             style="font-size:28px;fill:#657b83;font-family:LMSans17;-inkscape-font-specification:LMSans17 Bold"
             id="path3328" />
          <path
             d="m 15.598551,576.75032 0,-1.876 c -2.491998,0.028 -4.032001,1.4 -4.9,2.688 l 0,-2.548 -1.9600003,0 0,12.6 2.1000003,0 0,-5.992 c 0,-2.8 2.016002,-4.816 4.76,-4.872"
             style="font-size:28px;fill:#657b83;font-family:LMSans17;-inkscape-font-specification:LMSans17 Bold"
             id="path3330" />
          <path
             d="m 28.529301,587.61432 0,-12.432 -2.1,0 0,12.432 2.1,0 m 0.224,-15.848 0,-2.492 -2.492,0 0,2.492 2.492,0"
             style="font-size:28px;fill:#657b83;font-family:LMSans17;-inkscape-font-specification:LMSans17 Bold"
             id="path3332" />
          <path
             d="m 40.475676,584.03032 c 0,-1.54 -1.036,-2.492 -1.092,-2.576 -1.091999,-0.98 -1.848002,-1.148 -3.248,-1.4 -1.539999,-0.308 -2.828,-0.588 -2.828,-1.96 0,-1.736 2.016,-1.736 2.38,-1.736 0.895999,0 2.380001,0.112 3.976,1.064 l 0.336,-1.82 c -1.455999,-0.672 -2.604002,-0.896 -4.032,-0.896 -0.7,0 -4.648,0 -4.648,3.668 0,1.372 0.812,2.268 1.512,2.8 0.867999,0.616 1.484001,0.728 3.024,1.036 1.007999,0.196 2.632,0.532 2.632,2.016 0,1.932 -2.212001,1.932 -2.632,1.932 -2.267998,0 -3.836001,-1.036 -4.34,-1.372 l -0.336,1.904 c 0.895999,0.448 2.436002,1.232 4.704,1.232 0.503999,0 2.044001,0 3.248,-0.896 0.867999,-0.672 1.344,-1.792 1.344,-2.996"
             style="font-size:28px;fill:#657b83;font-family:LMSans17;-inkscape-font-specification:LMSans17 Bold"
             id="path3334" />
          <path
             d="m 50.538176,584.03032 c 0,-1.54 -1.036,-2.492 -1.092,-2.576 -1.091999,-0.98 -1.848002,-1.148 -3.248,-1.4 -1.539999,-0.308 -2.828,-0.588 -2.828,-1.96 0,-1.736 2.016,-1.736 2.38,-1.736 0.895999,0 2.380001,0.112 3.976,1.064 l 0.336,-1.82 c -1.455999,-0.672 -2.604002,-0.896 -4.032,-0.896 -0.7,0 -4.648,0 -4.648,3.668 0,1.372 0.812,2.268 1.512,2.8 0.867999,0.616 1.484001,0.728 3.024,1.036 1.007999,0.196 2.632,0.532 2.632,2.016 0,1.932 -2.212001,1.932 -2.632,1.932 -2.267998,0 -3.836001,-1.036 -4.34,-1.372 l -0.336,1.904 c 0.895999,0.448 2.436002,1.232 4.704,1.232 0.503999,0 2.044001,0 3.248,-0.896 0.867999,-0.672 1.344,-1.792 1.344,-2.996"
             style="font-size:28px;fill:#657b83;font-family:LMSans17;-inkscape-font-specification:LMSans17 Bold"
             id="path3336" />
          <path
             d="m 62.700676,587.61432 0,-12.432 -2.184,0 0,8.12 c 0,2.1 -1.568002,3.08 -3.36,3.08 -1.987998,0 -2.184,-0.728 -2.184,-1.932 l 0,-9.268 -2.184,0 0,9.38 c 0,2.016 0.644002,3.36 2.968,3.36 1.483998,0 3.472001,-0.448 4.844,-1.652 l 0,1.344 2.1,0"
             style="font-size:28px;fill:#657b83;font-family:LMSans17;-inkscape-font-specification:LMSans17 Bold"
             id="path3338" />
          <path
             d="m 75.675176,581.48232 c 0,-0.952 -0.028,-3.052 -1.12,-4.732 -1.147999,-1.736 -2.856001,-2.044 -3.864,-2.044 -3.107997,0 -5.628,2.968 -5.628,6.58 0,3.696 2.688003,6.636 6.048,6.636 1.763998,0 3.360001,-0.672 4.452,-1.456 l -0.168,-1.82 c -1.763999,1.456 -3.612001,1.568 -4.256,1.568 -2.239998,0 -4.032,-1.988 -4.116,-4.732 l 8.652,0 m -1.596,-1.54 -6.916,0 c 0.447999,-2.128 1.932001,-3.528 3.528,-3.528 1.455998,0 3.024,0.952 3.388,3.528"
             style="font-size:28px;fill:#657b83;font-family:LMSans17;-inkscape-font-specification:LMSans17 Bold"
             id="path3340" />
          <path
             d="m 85.866301,584.03032 c 0,-1.54 -1.036,-2.492 -1.092,-2.576 -1.091999,-0.98 -1.848002,-1.148 -3.248,-1.4 -1.539999,-0.308 -2.828,-0.588 -2.828,-1.96 0,-1.736 2.016,-1.736 2.38,-1.736 0.895999,0 2.380001,0.112 3.976,1.064 l 0.336,-1.82 c -1.455999,-0.672 -2.604002,-0.896 -4.032,-0.896 -0.7,0 -4.648,0 -4.648,3.668 0,1.372 0.812,2.268 1.512,2.8 0.867999,0.616 1.484001,0.728 3.024,1.036 1.007999,0.196 2.632,0.532 2.632,2.016 0,1.932 -2.212001,1.932 -2.632,1.932 -2.267998,0 -3.836001,-1.036 -4.34,-1.372 l -0.336,1.904 c 0.895999,0.448 2.436002,1.232 4.704,1.232 0.503999,0 2.044001,0 3.248,-0.896 0.867999,-0.672 1.344,-1.792 1.344,-2.996"
             style="font-size:28px;fill:#657b83;font-family:LMSans17;-inkscape-font-specification:LMSans17 Bold"
             id="path3342" />
        </g>
        <path
           inkscape:connector-curvature="0"
           id="path3123"
           style="font-size:40px;font-style:normal;font-variant:normal;font-weight:normal;font-stretch:normal;line-height:125%;letter-spacing:0px;word-spacing:0px;fill:#dc322f;fill-opacity:1;stroke:none;font-family:FontAwesome;-inkscape-font-specification:FontAwesome"
           d="m -191.03779,734.38377 c 0,-9.04344 -10.06604,-16.36128 -22.49677,-16.36128 -12.43074,0 -22.49677,7.31784 -22.49677,16.36128 0,5.17681 3.3234,9.81039 8.5002,12.81421 -1.08649,2.65232 -2.49255,3.8986 -3.73881,5.30464 -0.35152,0.41543 -0.76693,0.7989 -0.63911,1.40604 0,0 0,0 0,0 0.0959,0.54326 0.54325,0.92673 1.02258,0.92673 0.0319,0 0.0639,0 0.0959,0 0.95867,-0.12784 1.88539,-0.28761 2.74819,-0.5113 3.22751,-0.83084 6.23135,-2.20494 8.88366,-4.09032 1.78952,0.31955 3.6749,0.51129 5.6242,0.51129 12.43073,0 22.49677,-7.31785 22.49677,-16.36129 m 12.27096,8.18065 c 0,-5.33659 -3.51512,-10.06604 -8.91562,-13.03791 0.47933,1.56583 0.73498,3.19558 0.73498,4.85726 0,5.72005 -2.93993,10.99274 -8.27651,14.89134 -4.95312,3.57901 -11.44013,5.56028 -18.31058,5.56028 -0.92671,0 -1.88539,-0.064 -2.81209,-0.12784 3.99445,2.62035 9.2991,4.21814 15.08305,4.21814 1.94929,0 3.83468,-0.19173 5.62419,-0.51128 2.65232,1.88537 5.65615,3.25946 8.88367,4.09032 0.8628,0.22368 1.78953,0.38347 2.74819,0.51128 0.51129,0.0639 0.99062,-0.35152 1.11844,-0.92671 0,0 0,0 0,0 0.12783,-0.60716 -0.2876,-0.99063 -0.63911,-1.40604 -1.24627,-1.40606 -2.65232,-2.65232 -3.73881,-5.30464 5.17681,-3.00383 8.5002,-7.60545 8.5002,-12.81421" />
        <g
           style="font-size:63.45178604px;font-style:normal;font-variant:normal;font-weight:normal;font-stretch:normal;line-height:125%;letter-spacing:0px;word-spacing:0px;fill:#657b83;fill-opacity:1;stroke:none;font-family:Latin Modern Sans;-inkscape-font-specification:Latin Modern Sans"
           id="text3145-98">
          <path
             d="m -131.46357,747.61432 0,-19.432 -3.192,0 -3.64,9.492 c -0.98,2.548 -2.296,6.02 -2.604,7.336 l -0.028,0 c -0.14,-0.588 -0.476,-1.624 -0.896,-2.8 l -4.396,-11.592 -0.952,-2.436 -3.164,0 0,19.432 2.184,0 0,-17.36 0.028,0 c 0.168,0.896 1.288,3.948 2.016,5.852 l 4.144,10.892 2.044,0 3.724,-9.744 1.344,-3.556 c 0.28,-0.812 1.036,-2.828 1.176,-3.472 l 0.028,0.028 0,17.36 2.184,0"
             style="font-size:28px;fill:#657b83;font-family:LMSans17;-inkscape-font-specification:LMSans17 Bold"
             id="path3231" />
          <path
             d="m -118.71482,747.61432 0,-8.092 c 0,-2.856 -2.04401,-4.816 -4.62,-4.816 -1.82,0 -3.08001,0.448 -4.396,1.204 l 0.168,1.848 c 1.45599,-1.036 2.856,-1.4 4.228,-1.4 1.31599,0 2.436,1.12 2.436,3.192 l 0,1.204 c -4.2,0.056 -7.756,1.232 -7.756,3.696 0,1.204 0.756,3.472 3.192,3.472 0.392,0 3.024,-0.056 4.648,-1.316 l 0,1.008 2.1,0 m -2.184,-3.696 c 0,0.532 -1e-5,1.232 -0.952,1.764 -0.812,0.504 -1.876,0.532 -2.184,0.532 -1.344,0 -2.604,-0.644 -2.604,-1.82 0,-1.96 4.536,-2.156 5.74,-2.212 l 0,1.736"
             style="font-size:28px;fill:#657b83;font-family:LMSans17;-inkscape-font-specification:LMSans17 Bold"
             id="path3233" />
          <path
             d="m -113.16601,747.61432 0,-12.432 -2.1,0 0,12.432 2.1,0 m 0.224,-15.848 0,-2.492 -2.492,0 0,2.492 2.492,0"
             style="font-size:28px;fill:#657b83;font-family:LMSans17;-inkscape-font-specification:LMSans17 Bold"
             id="path3235" />
          <path
             d="m -106.93164,747.61432 0,-19.432 -2.1,0 0,19.432 2.1,0"
             style="font-size:28px;fill:#657b83;font-family:LMSans17;-inkscape-font-specification:LMSans17 Bold"
             id="path3237" />
          <path
             d="m -100.69726,747.61432 0,-12.432 -2.1,0 0,12.432 2.1,0 m 0.224,-15.848 0,-2.492 -2.492,0 0,2.492 2.492,0"
             style="font-size:28px;fill:#657b83;font-family:LMSans17;-inkscape-font-specification:LMSans17 Bold"
             id="path3239" />
          <path
             d="m -86.650887,747.61432 0,-8.344 c 0,-1.848 -0.420003,-4.396 -3.836,-4.396 -2.519997,0 -3.892,1.904 -4.06,2.128 l 0,-1.988 -2.016,0 0,12.6 2.184,0 0,-6.86 c 0,-1.848 0.700002,-4.172 2.828,-4.172 2.687997,0 2.716,1.988 2.716,2.884 l 0,8.148 2.184,0"
             style="font-size:28px;fill:#657b83;font-family:LMSans17;-inkscape-font-specification:LMSans17 Bold"
             id="path3241" />
          <path
             d="m -71.688387,736.63832 -0.308,-1.764 c -1.959998,0 -3.584001,0.532 -4.424,0.896 -0.587999,-0.476 -1.540001,-0.896 -2.66,-0.896 -2.407997,0 -4.452,2.016 -4.452,4.564 0,1.036 0.364001,2.044 0.924,2.772 -0.811999,1.148 -0.812,2.24 -0.812,2.38 0,0.728 0.252001,1.54 0.728,2.128 -1.455998,0.868 -1.792,2.156 -1.792,2.884 0,2.1 2.772004,3.78 6.188,3.78 3.443997,0 6.216,-1.652 6.216,-3.808 0,-3.892 -4.676001,-3.892 -5.768,-3.892 l -2.464,0 c -0.363999,0 -1.624,0 -1.624,-1.484 0,-0.308 0.112,-0.756 0.308,-1.008 0.588,0.42 1.512001,0.812 2.548,0.812 2.519998,0 4.48,-2.072 4.48,-4.564 0,-1.344 -0.616,-2.38 -0.924,-2.8 l 0.112,0.028 c 0.616,0 1.400001,-0.112 2.072,-0.112 0.504,0 1.652,0.084 1.652,0.084 m -4.872,2.8 c 0,2.184 -1.316001,2.968 -2.52,2.968 -1.035999,0 -2.492,-0.644 -2.492,-2.968 0,-2.324 1.456001,-2.968 2.492,-2.968 1.203999,0 2.52,0.784 2.52,2.968 m 2.52,10.192 c 0,1.232 -1.932002,2.156 -4.228,2.156 -2.267998,0 -4.256,-0.868 -4.256,-2.184 0,-0.084 2e-6,-1.904 2.184,-1.904 l 2.52,0 c 0.616,0 3.78,0 3.78,1.932"
             style="font-size:28px;fill:#657b83;font-family:LMSans17;-inkscape-font-specification:LMSans17 Bold"
             id="path3243" />
          <path
             d="m -58.970699,747.61432 0,-19.432 -2.1,0 0,19.432 2.1,0"
             style="font-size:28px;fill:#657b83;font-family:LMSans17;-inkscape-font-specification:LMSans17 Bold"
             id="path3245" />
          <path
             d="m -52.736324,747.61432 0,-12.432 -2.1,0 0,12.432 2.1,0 m 0.224,-15.848 0,-2.492 -2.492,0 0,2.492 2.492,0"
             style="font-size:28px;fill:#657b83;font-family:LMSans17;-inkscape-font-specification:LMSans17 Bold"
             id="path3247" />
          <path
             d="m -40.789949,744.03032 c 0,-1.54 -1.036,-2.492 -1.092,-2.576 -1.091999,-0.98 -1.848002,-1.148 -3.248,-1.4 -1.539999,-0.308 -2.828,-0.588 -2.828,-1.96 0,-1.736 2.016,-1.736 2.38,-1.736 0.895999,0 2.380001,0.112 3.976,1.064 l 0.336,-1.82 c -1.455999,-0.672 -2.604002,-0.896 -4.032,-0.896 -0.7,0 -4.648,0 -4.648,3.668 0,1.372 0.812,2.268 1.512,2.8 0.867999,0.616 1.484001,0.728 3.024,1.036 1.007999,0.196 2.632,0.532 2.632,2.016 0,1.932 -2.212001,1.932 -2.632,1.932 -2.267998,0 -3.836001,-1.036 -4.34,-1.372 l -0.336,1.904 c 0.895999,0.448 2.436002,1.232 4.704,1.232 0.503999,0 2.044001,0 3.248,-0.896 0.867999,-0.672 1.344,-1.792 1.344,-2.996"
             style="font-size:28px;fill:#657b83;font-family:LMSans17;-inkscape-font-specification:LMSans17 Bold"
             id="path3249" />
          <path
             d="m -31.511449,746.85832 -0.448,-1.652 c -0.728,0.588 -1.624001,0.924 -2.52,0.924 -1.035999,0 -1.428,-0.84 -1.428,-2.324 l 0,-7 3.948,0 0,-1.624 -3.948,0 0,-3.556 -1.932,0 0,3.556 -2.436,0 0,1.624 2.352,0 0,7.476 c 0,1.68 0.392002,3.64 2.324,3.64 1.959998,0 3.388,-0.7 4.088,-1.064"
             style="font-size:28px;fill:#657b83;font-family:LMSans17;-inkscape-font-specification:LMSans17 Bold"
             id="path3251" />
          <path
             d="m -21.211824,744.03032 c 0,-1.54 -1.036,-2.492 -1.092,-2.576 -1.091999,-0.98 -1.848002,-1.148 -3.248,-1.4 -1.539999,-0.308 -2.828,-0.588 -2.828,-1.96 0,-1.736 2.016,-1.736 2.38,-1.736 0.895999,0 2.380001,0.112 3.976,1.064 l 0.336,-1.82 c -1.455999,-0.672 -2.604002,-0.896 -4.032,-0.896 -0.7,0 -4.648,0 -4.648,3.668 0,1.372 0.812,2.268 1.512,2.8 0.867999,0.616 1.484001,0.728 3.024,1.036 1.007999,0.196 2.632,0.532 2.632,2.016 0,1.932 -2.212001,1.932 -2.632,1.932 -2.267998,0 -3.836001,-1.036 -4.34,-1.372 l -0.336,1.904 c 0.895999,0.448 2.436002,1.232 4.704,1.232 0.503999,0 2.044001,0 3.248,-0.896 0.867999,-0.672 1.344,-1.792 1.344,-2.996"
             style="font-size:28px;fill:#657b83;font-family:LMSans17;-inkscape-font-specification:LMSans17 Bold"
             id="path3253" />
        </g>
        <path
           inkscape:connector-curvature="0"
           id="path3126"
           style="font-size:40px;font-style:normal;font-variant:normal;font-weight:normal;font-stretch:normal;line-height:125%;letter-spacing:0px;word-spacing:0px;fill:#dc322f;fill-opacity:1;stroke:none;font-family:FontAwesome;-inkscape-font-specification:FontAwesome"
           d="m -219.19605,834.81759 c 0,-3.38778 -2.74858,-6.13636 -6.13635,-6.13636 -3.38777,0 -6.13636,2.74858 -6.13636,6.13636 0,3.38778 2.74858,6.13635 6.13635,6.13635 3.38778,0 6.13636,-2.74857 6.13636,-6.13635 m 16.36361,3.9311 c -0.54332,-6.80752 -3.51562,-13.23152 -8.37357,-18.05751 -4.82598,-4.85794 -11.24999,-7.83025 -18.0575,-8.37357 -0.0639,0 -0.0959,0 -0.1598,0 -0.51136,0 -1.02273,0.19177 -1.37429,0.54332 -0.44744,0.38353 -0.67116,0.92686 -0.67116,1.50213 l 0,4.31463 c 0,1.05469 0.799,1.91761 1.85369,2.01349 9.74784,0.92686 17.48222,8.66123 18.40906,18.40908 0.0959,1.05467 0.95881,1.85368 2.0135,1.85368 l 4.31462,0 c 0.57528,0 1.11861,-0.22372 1.50213,-0.67116 0.38352,-0.41549 0.57528,-0.9588 0.54332,-1.53409 m 16.36362,0.0639 c -0.57528,-11.18605 -5.27344,-21.70097 -13.23152,-29.62709 -7.92612,-7.95808 -18.44104,-12.65624 -29.62709,-13.23152 -0.032,0 -0.0639,0 -0.0959,0 -0.51136,0 -1.02272,0.19177 -1.40624,0.57528 -0.41549,0.38352 -0.63921,0.8949 -0.63921,1.47017 l 0,4.5703 c 0,1.05469 0.83097,1.94958 1.91761,2.0135 18.56885,1.08664 33.36645,15.88424 34.42114,34.45308 0.0639,1.08665 0.9588,1.91762 2.04544,1.91762 l 4.5703,0 c 0.57529,0 1.08665,-0.22373 1.47017,-0.63921 0.41548,-0.41548 0.60725,-0.9588 0.57529,-1.50213" />
        <g
           style="font-size:63.45178604px;font-style:normal;font-variant:normal;font-weight:normal;font-stretch:normal;line-height:125%;letter-spacing:0px;word-spacing:0px;fill:#657b83;fill-opacity:1;stroke:none;font-family:Latin Modern Sans;-inkscape-font-specification:Latin Modern Sans"
           id="text3145-09">
          <path
             d="m -139.16357,802.32232 c 0,-1.82 -0.868,-3.164 -1.484,-3.836 -1.316,-1.4 -2.24001,-1.652 -4.816,-2.296 -1.624,-0.392 -2.07201,-0.504 -2.912,-1.232 -0.196,-0.168 -0.98,-0.98 -0.98,-2.212 0,-1.652 1.512,-3.332 4.088,-3.332 2.35199,0 3.696,0.924 4.732,1.792 l 0.42,-2.24 c -1.54,-0.924 -3.08001,-1.4 -5.124,-1.4 -3.892,0 -6.328,2.744 -6.328,5.516 0,1.204 0.392,2.38 1.512,3.556 1.17599,1.26 2.408,1.596 4.06,1.988 2.37999,0.588 2.66,0.672 3.444,1.372 0.56,0.476 1.176,1.4 1.176,2.604 0,1.848 -1.54001,3.696 -4.088,3.696 -1.148,0 -3.66801,-0.28 -6.02,-2.268 l -0.42,2.268 c 2.46399,1.54 4.704,1.932 6.468,1.932 3.69599,0 6.272,-2.828 6.272,-5.908"
             style="font-size:28px;fill:#657b83;font-family:LMSans17;-inkscape-font-specification:LMSans17 Bold"
             id="path3196" />
          <path
             d="m -129.23801,806.85832 -0.448,-1.652 c -0.728,0.588 -1.624,0.924 -2.52,0.924 -1.036,0 -1.428,-0.84 -1.428,-2.324 l 0,-7 3.948,0 0,-1.624 -3.948,0 0,-3.556 -1.932,0 0,3.556 -2.436,0 0,1.624 2.352,0 0,7.476 c 0,1.68 0.392,3.64 2.324,3.64 1.96,0 3.388,-0.7 4.088,-1.064"
             style="font-size:28px;fill:#657b83;font-family:LMSans17;-inkscape-font-specification:LMSans17 Bold"
             id="path3198" />
          <path
             d="m -117.56639,807.61432 0,-8.092 c 0,-2.856 -2.044,-4.816 -4.62,-4.816 -1.82,0 -3.08,0.448 -4.396,1.204 l 0.168,1.848 c 1.456,-1.036 2.856,-1.4 4.228,-1.4 1.316,0 2.436,1.12 2.436,3.192 l 0,1.204 c -4.19999,0.056 -7.756,1.232 -7.756,3.696 0,1.204 0.75601,3.472 3.192,3.472 0.392,0 3.024,-0.056 4.648,-1.316 l 0,1.008 2.1,0 m -2.184,-3.696 c 0,0.532 0,1.232 -0.952,1.764 -0.812,0.504 -1.876,0.532 -2.184,0.532 -1.344,0 -2.604,-0.644 -2.604,-1.82 0,-1.96 4.536,-2.156 5.74,-2.212 l 0,1.736"
             style="font-size:28px;fill:#657b83;font-family:LMSans17;-inkscape-font-specification:LMSans17 Bold"
             id="path3200" />
          <path
             d="m -107.08957,806.85832 -0.448,-1.652 c -0.728,0.588 -1.62401,0.924 -2.52,0.924 -1.036,0 -1.428,-0.84 -1.428,-2.324 l 0,-7 3.948,0 0,-1.624 -3.948,0 0,-3.556 -1.932,0 0,3.556 -2.436,0 0,1.624 2.352,0 0,7.476 c 0,1.68 0.392,3.64 2.324,3.64 1.95999,0 3.388,-0.7 4.088,-1.064"
             style="font-size:28px;fill:#657b83;font-family:LMSans17;-inkscape-font-specification:LMSans17 Bold"
             id="path3202" />
          <path
             d="m -94.689949,807.61432 0,-12.432 -2.184,0 0,8.12 c 0,2.1 -1.568002,3.08 -3.360001,3.08 -1.988,0 -2.184,-0.728 -2.184,-1.932 l 0,-9.268 -2.184,0 0,9.38 c 0,2.016 0.644,3.36 2.968,3.36 1.484,0 3.472002,-0.448 4.844001,-1.652 l 0,1.344 2.1,0"
             style="font-size:28px;fill:#657b83;font-family:LMSans17;-inkscape-font-specification:LMSans17 Bold"
             id="path3204" />
          <path
             d="m -83.227449,804.03032 c 0,-1.54 -1.036,-2.492 -1.092,-2.576 -1.091999,-0.98 -1.848002,-1.148 -3.248,-1.4 -1.539999,-0.308 -2.828,-0.588 -2.828,-1.96 0,-1.736 2.016,-1.736 2.38,-1.736 0.895999,0 2.380001,0.112 3.976,1.064 l 0.336,-1.82 c -1.455999,-0.672 -2.604002,-0.896 -4.032,-0.896 -0.7,0 -4.648,0 -4.648,3.668 0,1.372 0.812,2.268 1.512,2.8 0.867999,0.616 1.484001,0.728 3.024,1.036 1.007999,0.196 2.632,0.532 2.632,2.016 0,1.932 -2.212001,1.932 -2.632,1.932 -2.267998,0 -3.836001,-1.036 -4.34,-1.372 l -0.336,1.904 c 0.895999,0.448 2.436002,1.232 4.704,1.232 0.503999,0 2.044001,0 3.248,-0.896 0.867999,-0.672 1.344,-1.792 1.344,-2.996"
             style="font-size:28px;fill:#657b83;font-family:LMSans17;-inkscape-font-specification:LMSans17 Bold"
             id="path3206" />
          <path
             d="m -62.314949,807.61432 0,-12.432 -2.184,0 0,8.12 c 0,2.1 -1.568002,3.08 -3.36,3.08 -1.987998,0 -2.184,-0.728 -2.184,-1.932 l 0,-9.268 -2.184,0 0,9.38 c 0,2.016 0.644002,3.36 2.968,3.36 1.483998,0 3.472001,-0.448 4.844,-1.652 l 0,1.344 2.1,0"
             style="font-size:28px;fill:#657b83;font-family:LMSans17;-inkscape-font-specification:LMSans17 Bold"
             id="path3208" />
          <path
             d="m -47.492449,801.37032 c 0,-3.36 -1.764003,-6.496 -4.452,-6.496 -1.679999,0 -3.304002,0.588 -4.592,1.68 l 0,-1.372 -2.1,0 0,17.864 2.184,0 0,-6.72 c 0.867999,0.812 2.100001,1.596 3.78,1.596 2.715997,0 5.18,-2.744 5.18,-6.552 m -2.184,0 c 0,2.884 -1.988002,4.844 -4.088,4.844 -1.091999,0 -1.848001,-0.56 -2.408,-1.316 -0.28,-0.42 -0.28,-0.476 -0.28,-0.98 l 0,-5.628 c 0.671999,-0.98 1.764001,-1.624 2.968,-1.624 2.127998,0 3.808,2.128 3.808,4.704"
             style="font-size:28px;fill:#657b83;font-family:LMSans17;-inkscape-font-specification:LMSans17 Bold"
             id="path3210" />
          <path
             d="m -34.489975,807.61432 0,-19.432 -2.1,0 0,8.232 c -1.483999,-1.232 -3.052001,-1.54 -4.088,-1.54 -2.771998,0 -4.956,2.912 -4.956,6.524 0,3.668 2.156002,6.524 4.816,6.524 0.923999,0 2.576001,-0.252 4.144,-1.764 l 0,1.456 2.184,0 m -2.184,-3.892 c 0,0.392 -0.028,0.896 -0.924,1.708 -0.644,0.56 -1.344001,0.784 -2.072,0.784 -1.735999,0 -3.78,-1.316 -3.78,-4.788 0,-3.696 2.408001,-4.844 4.06,-4.844 1.259998,0 2.1,0.644 2.716,1.54 l 0,5.6"
             style="font-size:28px;fill:#657b83;font-family:LMSans17;-inkscape-font-specification:LMSans17 Bold"
             id="path3212" />
          <path
             d="m -21.627475,807.61432 0,-8.092 c 0,-2.856 -2.044003,-4.816 -4.62,-4.816 -1.819999,0 -3.080002,0.448 -4.396,1.204 l 0.168,1.848 c 1.455998,-1.036 2.856001,-1.4 4.228,-1.4 1.315998,0 2.436,1.12 2.436,3.192 l 0,1.204 c -4.199996,0.056 -7.756,1.232 -7.756,3.696 0,1.204 0.756002,3.472 3.192,3.472 0.391999,0 3.024001,-0.056 4.648,-1.316 l 0,1.008 2.1,0 m -2.184,-3.696 c 0,0.532 -10e-7,1.232 -0.952,1.764 -0.812,0.504 -1.876001,0.532 -2.184,0.532 -1.343999,0 -2.604,-0.644 -2.604,-1.82 0,-1.96 4.536001,-2.156 5.74,-2.212 l 0,1.736"
             style="font-size:28px;fill:#657b83;font-family:LMSans17;-inkscape-font-specification:LMSans17 Bold"
             id="path3214" />
          <path
             d="m -11.150671,806.85832 -0.448,-1.652 c -0.727999,0.588 -1.624,0.924 -2.52,0.924 -1.035998,0 -1.428,-0.84 -1.428,-2.324 l 0,-7 3.948,0 0,-1.624 -3.948,0 0,-3.556 -1.932,0 0,3.556 -2.436,0 0,1.624 2.352,0 0,7.476 c 0,1.68 0.392002,3.64 2.324,3.64 1.959999,0 3.388001,-0.7 4.088,-1.064"
             style="font-size:28px;fill:#657b83;font-family:LMSans17;-inkscape-font-specification:LMSans17 Bold"
             id="path3216" />
          <path
             d="m 0.66095447,801.48232 c 0,-0.952 -0.0280011,-3.052 -1.12,-4.732 -1.14799887,-1.736 -2.85600097,-2.044 -3.86399997,-2.044 -3.1079969,0 -5.628,2.968 -5.628,6.58 0,3.696 2.6880033,6.636 6.048,6.636 1.7639982,0 3.36000106,-0.672 4.45199997,-1.456 l -0.168,-1.82 c -1.76399827,1.456 -3.61200067,1.568 -4.25599997,1.568 -2.2399978,0 -4.0320001,-1.988 -4.116,-4.732 l 8.65199997,0 m -1.596,-1.54 -6.91599997,0 c 0.4479995,-2.128 1.9320016,-3.528 3.528,-3.528 1.4559985,0 3.0240003,0.952 3.38799997,3.528"
             style="font-size:28px;fill:#657b83;font-family:LMSans17;-inkscape-font-specification:LMSans17 Bold"
             id="path3218" />
          <path
             d="m 10.852079,804.03032 c 0,-1.54 -1.0359996,-2.492 -1.0919995,-2.576 -1.0919989,-0.98 -1.8480014,-1.148 -3.248,-1.4 -1.5399985,-0.308 -2.828,-0.588 -2.828,-1.96 0,-1.736 2.0160003,-1.736 2.38,-1.736 0.8959991,0 2.3800016,0.112 3.9759995,1.064 l 0.336,-1.82 c -1.4559981,-0.672 -2.604001,-0.896 -4.0319995,-0.896 -0.6999993,0 -4.648,0 -4.648,3.668 0,1.372 0.8120007,2.268 1.512,2.8 0.8679991,0.616 1.4840015,0.728 3.024,1.036 1.007999,0.196 2.632,0.532 2.632,2.016 0,1.932 -2.2120005,1.932 -2.632,1.932 -2.2679978,0 -3.8360005,-1.036 -4.34,-1.372 l -0.336,1.904 c 0.8959991,0.448 2.4360022,1.232 4.704,1.232 0.5039995,0 2.0440012,0 3.248,-0.896 0.8679995,-0.672 1.3439995,-1.792 1.3439995,-2.996"
             style="font-size:28px;fill:#657b83;font-family:LMSans17;-inkscape-font-specification:LMSans17 Bold"
             id="path3220" />
          <path
             d="m 29.300579,790.05832 0,-1.876 c -0.335999,-0.084 -1.204001,-0.308 -2.24,-0.308 -2.631997,0 -4.648,1.988 -4.648,4.788 l 0,2.52 -2.072,0 0,1.624 2.072,0 0,10.808 2.1,0 0,-10.808 3.08,0 0,-1.624 -3.164,0 0,-3.332 c 0,-2.072 1.876001,-2.268 2.604,-2.268 0.56,0 1.316001,0.056 2.268,0.476"
             style="font-size:28px;fill:#657b83;font-family:LMSans17;-inkscape-font-specification:LMSans17 Bold"
             id="path3222" />
          <path
             d="m 36.779642,796.75032 0,-1.876 c -2.491998,0.028 -4.032001,1.4 -4.9,2.688 l 0,-2.548 -1.96,0 0,12.6 2.1,0 0,-5.992 c 0,-2.8 2.016003,-4.816 4.76,-4.872"
             style="font-size:28px;fill:#657b83;font-family:LMSans17;-inkscape-font-specification:LMSans17 Bold"
             id="path3224" />
          <path
             d="m 49.724392,801.45432 c 0,-3.752 -2.800003,-6.748 -6.132,-6.748 -3.443997,0 -6.16,3.08 -6.16,6.748 0,3.696 2.856003,6.468 6.132,6.468 3.359997,0 6.16,-2.828 6.16,-6.468 m -2.184,-0.28 c 0,3.304 -1.904002,4.956 -3.976,4.956 -1.931998,0 -3.948,-1.568 -3.948,-4.956 0,-3.388 2.128002,-4.76 3.948,-4.76 1.959998,0 3.976,1.456 3.976,4.76"
             style="font-size:28px;fill:#657b83;font-family:LMSans17;-inkscape-font-specification:LMSans17 Bold"
             id="path3226" />
          <path
             d="m 69.736079,807.61432 0,-8.344 c 0,-1.876 -0.448003,-4.396 -3.836,-4.396 -1.679998,0 -3.136001,0.784 -4.172,2.296 -0.727999,-2.128 -2.688,-2.296 -3.584,-2.296 -2.015998,0 -3.332,1.148 -4.088,2.156 l 0,-2.016 -2.016,0 0,12.6 2.184,0 0,-6.86 c 0,-1.904 0.756003,-4.172 2.828,-4.172 2.603998,0 2.744,1.82 2.744,2.884 l 0,8.148 2.184,0 0,-6.86 c 0,-1.904 0.756003,-4.172 2.828,-4.172 2.603998,0 2.744,1.82 2.744,2.884 l 0,8.148 2.184,0"
             style="font-size:28px;fill:#657b83;font-family:LMSans17;-inkscape-font-specification:LMSans17 Bold"
             id="path3228" />
        </g>
        <g
           style="font-size:63.45178604px;font-style:normal;font-variant:normal;font-weight:normal;font-stretch:normal;line-height:125%;letter-spacing:0px;word-spacing:0px;fill:#657b83;fill-opacity:1;stroke:none;font-family:Latin Modern Sans;-inkscape-font-specification:Latin Modern Sans"
           id="text3145-5">
          <path
             d="m -140.75958,842.89447 0,-19.432 -2.1,0 0,8.232 c -1.48399,-1.232 -3.052,-1.54 -4.088,-1.54 -2.77199,0 -4.956,2.912 -4.956,6.524 0,3.668 2.15601,6.524 4.816,6.524 0.924,0 2.57601,-0.252 4.144,-1.764 l 0,1.456 2.184,0 m -2.184,-3.892 c 0,0.392 -0.028,0.896 -0.924,1.708 -0.64399,0.56 -1.344,0.784 -2.072,0.784 -1.73599,0 -3.78,-1.316 -3.78,-4.788 0,-3.696 2.40801,-4.844 4.06,-4.844 1.26,0 2.10001,0.644 2.716,1.54 l 0,5.6"
             style="font-size:28px;fill:#657b83;font-family:LMSans17;-inkscape-font-specification:LMSans17 Bold"
             id="path3175" />
          <path
             d="m -127.75708,836.76247 c 0,-0.952 -0.028,-3.052 -1.12,-4.732 -1.14799,-1.736 -2.856,-2.044 -3.864,-2.044 -3.10799,0 -5.628,2.968 -5.628,6.58 0,3.696 2.68801,6.636 6.048,6.636 1.764,0 3.36001,-0.672 4.452,-1.456 l -0.168,-1.82 c -1.76399,1.456 -3.612,1.568 -4.256,1.568 -2.23999,0 -4.032,-1.988 -4.116,-4.732 l 8.652,0 m -1.596,-1.54 -6.916,0 c 0.448,-2.128 1.93201,-3.528 3.528,-3.528 1.456,0 3.02401,0.952 3.388,3.528"
             style="font-size:28px;fill:#657b83;font-family:LMSans17;-inkscape-font-specification:LMSans17 Bold"
             id="path3177" />
          <path
             d="m -115.15795,830.46247 -2.1,0 -2.212,5.824 c -0.588,1.54 -1.456,3.808 -1.68,5.124 l -0.028,0 c -0.168,-1.008 -0.896,-2.94 -1.176,-3.696 l -2.716,-7.252 -2.184,0 4.816,12.432 2.464,0 4.816,-12.432"
             style="font-size:28px;fill:#657b83;font-family:LMSans17;-inkscape-font-specification:LMSans17 Bold"
             id="path3179" />
          <path
             d="m -103.96801,836.76247 c 0,-0.952 -0.028,-3.052 -1.12,-4.732 -1.148,-1.736 -2.856,-2.044 -3.864,-2.044 -3.108,0 -5.628,2.968 -5.628,6.58 0,3.696 2.688,6.636 6.048,6.636 1.764,0 3.36,-0.672 4.452,-1.456 l -0.168,-1.82 c -1.764,1.456 -3.612,1.568 -4.256,1.568 -2.24,0 -4.032,-1.988 -4.116,-4.732 l 8.652,0 m -1.596,-1.54 -6.916,0 c 0.448,-2.128 1.932,-3.528 3.528,-3.528 1.456,0 3.024,0.952 3.388,3.528"
             style="font-size:28px;fill:#657b83;font-family:LMSans17;-inkscape-font-specification:LMSans17 Bold"
             id="path3181" />
          <path
             d="m -99.488888,842.89447 0,-19.432 -2.100002,0 0,19.432 2.100002,0"
             style="font-size:28px;fill:#657b83;font-family:LMSans17;-inkscape-font-specification:LMSans17 Bold"
             id="path3183" />
          <path
             d="m -84.490513,836.73447 c 0,-3.752 -2.800003,-6.748 -6.132,-6.748 -3.443996,0 -6.16,3.08 -6.16,6.748 0,3.696 2.856003,6.468 6.132,6.468 3.359997,0 6.16,-2.828 6.16,-6.468 m -2.184,-0.28 c 0,3.304 -1.904002,4.956 -3.976,4.956 -1.931998,0 -3.948,-1.568 -3.948,-4.956 0,-3.388 2.128002,-4.76 3.948,-4.76 1.959998,0 3.976,1.456 3.976,4.76"
             style="font-size:28px;fill:#657b83;font-family:LMSans17;-inkscape-font-specification:LMSans17 Bold"
             id="path3185" />
          <path
             d="m -71.002825,836.65047 c 0,-3.36 -1.764003,-6.496 -4.452,-6.496 -1.679999,0 -3.304002,0.588 -4.592,1.68 l 0,-1.372 -2.1,0 0,17.864 2.184,0 0,-6.72 c 0.867999,0.812 2.100001,1.596 3.78,1.596 2.715997,0 5.18,-2.744 5.18,-6.552 m -2.184,0 c 0,2.884 -1.988002,4.844 -4.088,4.844 -1.091999,0 -1.848001,-0.56 -2.408,-1.316 -0.28,-0.42 -0.28,-0.476 -0.28,-0.98 l 0,-5.628 c 0.671999,-0.98 1.764001,-1.624 2.968,-1.624 2.127998,0 3.808,2.128 3.808,4.704"
             style="font-size:28px;fill:#657b83;font-family:LMSans17;-inkscape-font-specification:LMSans17 Bold"
             id="path3187" />
          <path
             d="m -58.560351,836.76247 c 0,-0.952 -0.028,-3.052 -1.12,-4.732 -1.147999,-1.736 -2.856001,-2.044 -3.864,-2.044 -3.107997,0 -5.628,2.968 -5.628,6.58 0,3.696 2.688003,6.636 6.048,6.636 1.763998,0 3.360001,-0.672 4.452,-1.456 l -0.168,-1.82 c -1.763999,1.456 -3.612001,1.568 -4.256,1.568 -2.239998,0 -4.032,-1.988 -4.116,-4.732 l 8.652,0 m -1.596,-1.54 -6.916,0 c 0.447999,-2.128 1.932001,-3.528 3.528,-3.528 1.455998,0 3.024,0.952 3.388,3.528"
             style="font-size:28px;fill:#657b83;font-family:LMSans17;-inkscape-font-specification:LMSans17 Bold"
             id="path3189" />
          <path
             d="m -49.293226,832.03047 0,-1.876 c -2.491998,0.028 -4.032001,1.4 -4.9,2.688 l 0,-2.548 -1.96,0 0,12.6 2.1,0 0,-5.992 c 0,-2.8 2.016002,-4.816 4.76,-4.872"
             style="font-size:28px;fill:#657b83;font-family:LMSans17;-inkscape-font-specification:LMSans17 Bold"
             id="path3191" />
          <path
             d="m -39.400476,839.31047 c 0,-1.54 -1.036,-2.492 -1.092,-2.576 -1.091999,-0.98 -1.848002,-1.148 -3.248,-1.4 -1.539999,-0.308 -2.828,-0.588 -2.828,-1.96 0,-1.736 2.016,-1.736 2.38,-1.736 0.895999,0 2.380001,0.112 3.976,1.064 l 0.336,-1.82 c -1.455999,-0.672 -2.604002,-0.896 -4.032,-0.896 -0.7,0 -4.648,0 -4.648,3.668 0,1.372 0.812,2.268 1.512,2.8 0.867999,0.616 1.484001,0.728 3.024,1.036 1.007999,0.196 2.632,0.532 2.632,2.016 0,1.932 -2.212001,1.932 -2.632,1.932 -2.267998,0 -3.836001,-1.036 -4.34,-1.372 l -0.336,1.904 c 0.895999,0.448 2.436002,1.232 4.704,1.232 0.503999,0 2.044001,0 3.248,-0.896 0.867999,-0.672 1.344,-1.792 1.344,-2.996"
             style="font-size:28px;fill:#657b83;font-family:LMSans17;-inkscape-font-specification:LMSans17 Bold"
             id="path3193" />
        </g>
        <path
           inkscape:connector-curvature="0"
           id="path3120"
           style="font-size:40px;font-style:normal;font-variant:normal;font-weight:normal;font-stretch:normal;line-height:125%;letter-spacing:0px;word-spacing:0px;fill:#dc322f;fill-opacity:1;stroke:none;font-family:FontAwesome;-inkscape-font-specification:FontAwesome"
           d="m -219.59632,669.03106 c 0.42621,-0.4262 0.42621,-1.0819 0,-1.50811 l -12.8845,-12.88449 12.8845,-12.8845 c 0.42621,-0.42621 0.42621,-1.08191 0,-1.50811 l -1.63925,-1.63925 c -0.4262,-0.42621 -1.0819,-0.42621 -1.50811,0 l -15.2778,15.27779 c -0.4262,0.42621 -0.4262,1.08191 0,1.50812 l 15.2778,15.27781 c 0.42621,0.42619 1.08191,0.42619 1.50811,0 l 1.63925,-1.63926 m 19.37593,-34.98158 c 0.16392,-0.55733 -0.16393,-1.14747 -0.72127,-1.3114 l -2.03267,-0.55734 c -0.52456,-0.16393 -1.11469,0.16393 -1.27861,0.72127 l -12.2288,42.32541 c -0.16393,0.55735 0.16392,1.14747 0.72127,1.3114 l 2.03267,0.55735 c 0.52455,0.16392 1.11469,-0.16392 1.27861,-0.72128 l 12.2288,-42.32541 m 21.53973,21.34303 c 0.42621,-0.42621 0.42621,-1.08191 0,-1.50812 l -15.2778,-15.27779 c -0.4262,-0.42621 -1.0819,-0.42621 -1.50811,0 l -1.63925,1.63925 c -0.4262,0.4262 -0.4262,1.0819 0,1.50811 l 12.8845,12.8845 -12.8845,12.88449 c -0.4262,0.42621 -0.4262,1.08191 0,1.50811 l 1.63925,1.63926 c 0.42621,0.42619 1.08191,0.42619 1.50811,0 l 15.2778,-15.27781" />
        <g
           style="font-size:63.45178604px;font-style:normal;font-variant:normal;font-weight:normal;font-stretch:normal;line-height:125%;letter-spacing:0px;word-spacing:0px;fill:#657b83;fill-opacity:1;stroke:none;font-family:Latin Modern Sans;-inkscape-font-specification:Latin Modern Sans"
           id="text3145-0">
          <path
             d="m -136.69957,646.35432 -0.168,-1.932 c -0.812,0.56 -1.62401,1.092 -2.576,1.372 -0.896,0.308 -1.87601,0.336 -2.828,0.336 -1.82,0 -3.47201,-0.98 -4.62,-2.408 -1.288,-1.652 -1.904,-3.724 -1.904,-5.824 0,-2.1 0.616,-4.2 1.904,-5.852 1.14799,-1.428 2.8,-2.408 4.62,-2.408 0.83999,0 1.708,0.084 2.52,0.336 0.83999,0.252 1.624,0.672 2.352,1.176 l 0.392,-2.296 c -0.84,-0.336 -1.70801,-0.616 -2.604,-0.784 -0.868,-0.168 -1.76401,-0.224 -2.66,-0.224 -2.464,0 -4.73201,1.12 -6.384,2.94 -1.736,1.96 -2.632,4.508 -2.632,7.112 0,2.604 0.896,5.152 2.632,7.084 1.65199,1.82 3.92,2.94 6.384,2.94 0.97999,0 1.96,-0.028 2.912,-0.308 0.95199,-0.252 1.82,-0.756 2.66,-1.26"
             style="font-size:28px;fill:#657b83;font-family:LMSans17;-inkscape-font-specification:LMSans17 Bold"
             id="path3256" />
          <path
             d="m -123.15982,641.45432 c 0,-3.752 -2.80001,-6.748 -6.132,-6.748 -3.444,0 -6.16,3.08 -6.16,6.748 0,3.696 2.856,6.468 6.132,6.468 3.35999,0 6.16,-2.828 6.16,-6.468 m -2.184,-0.28 c 0,3.304 -1.90401,4.956 -3.976,4.956 -1.932,0 -3.948,-1.568 -3.948,-4.956 0,-3.388 2.128,-4.76 3.948,-4.76 1.95999,0 3.976,1.456 3.976,4.76"
             style="font-size:28px;fill:#657b83;font-family:LMSans17;-inkscape-font-specification:LMSans17 Bold"
             id="path3258" />
          <path
             d="m -110.23216,647.61432 0,-19.432 -2.1,0 0,8.232 c -1.484,-1.232 -3.052,-1.54 -4.088,-1.54 -2.772,0 -4.956,2.912 -4.956,6.524 0,3.668 2.156,6.524 4.816,6.524 0.924,0 2.576,-0.252 4.144,-1.764 l 0,1.456 2.184,0 m -2.184,-3.892 c 0,0.392 -0.028,0.896 -0.924,1.708 -0.644,0.56 -1.344,0.784 -2.072,0.784 -1.736,0 -3.78,-1.316 -3.78,-4.788 0,-3.696 2.408,-4.844 4.06,-4.844 1.26,0 2.1,0.644 2.716,1.54 l 0,5.6"
             style="font-size:28px;fill:#657b83;font-family:LMSans17;-inkscape-font-specification:LMSans17 Bold"
             id="path3260" />
          <path
             d="m -97.229663,641.48232 c 0,-0.952 -0.028,-3.052 -1.12,-4.732 -1.147999,-1.736 -2.855997,-2.044 -3.863997,-2.044 -3.108,0 -5.628,2.968 -5.628,6.58 0,3.696 2.688,6.636 6.048,6.636 1.764,0 3.359998,-0.672 4.451997,-1.456 l -0.168,-1.82 c -1.763998,1.456 -3.611997,1.568 -4.255997,1.568 -2.24,0 -4.032,-1.988 -4.116,-4.732 l 8.651997,0 m -1.596,-1.54 -6.915997,0 c 0.448,-2.128 1.932,-3.528 3.528,-3.528 1.456,0 3.023997,0.952 3.387997,3.528"
             style="font-size:28px;fill:#657b83;font-family:LMSans17;-inkscape-font-specification:LMSans17 Bold"
             id="path3262" />
          <path
             d="m -76.748538,646.49432 -0.168,-1.876 c -1.427998,1.12 -2.940001,1.512 -4.368,1.512 -2.323998,0 -3.892,-2.016 -3.892,-4.76 0,-2.184 1.036003,-4.872 4.004,-4.872 1.455999,0 2.408002,0.224 3.948,1.232 l 0.336,-1.82 c -1.651998,-0.952 -2.604002,-1.204 -4.312,-1.204 -3.891996,0 -6.16,3.388 -6.16,6.692 0,3.472 2.548004,6.524 6.048,6.524 1.511999,0 3.052002,-0.392 4.564,-1.428"
             style="font-size:28px;fill:#657b83;font-family:LMSans17;-inkscape-font-specification:LMSans17 Bold"
             id="path3264" />
          <path
             d="m -64.485413,647.61432 0,-8.344 c 0,-1.848 -0.420003,-4.396 -3.836,-4.396 -1.735998,0 -3.080001,0.868 -3.976,2.016 l 0,-8.708 -2.1,0 0,19.432 2.184,0 0,-6.86 c 0,-1.848 0.700002,-4.172 2.828,-4.172 2.687997,0 2.716,1.988 2.716,2.884 l 0,8.148 2.184,0"
             style="font-size:28px;fill:#657b83;font-family:LMSans17;-inkscape-font-specification:LMSans17 Bold"
             id="path3266" />
          <path
             d="m -51.650913,647.61432 0,-8.092 c 0,-2.856 -2.044002,-4.816 -4.62,-4.816 -1.819998,0 -3.080001,0.448 -4.396,1.204 l 0.168,1.848 c 1.455999,-1.036 2.856001,-1.4 4.228,-1.4 1.315999,0 2.436,1.12 2.436,3.192 l 0,1.204 c -4.199996,0.056 -7.756,1.232 -7.756,3.696 0,1.204 0.756003,3.472 3.192,3.472 0.392,0 3.024002,-0.056 4.648,-1.316 l 0,1.008 2.1,0 m -2.184,-3.696 c 0,0.532 -10e-7,1.232 -0.952,1.764 -0.811999,0.504 -1.876,0.532 -2.184,0.532 -1.343999,0 -2.604,-0.644 -2.604,-1.82 0,-1.96 4.536001,-2.156 5.74,-2.212 l 0,1.736"
             style="font-size:28px;fill:#657b83;font-family:LMSans17;-inkscape-font-specification:LMSans17 Bold"
             id="path3268" />
          <path
             d="m -38.2901,647.61432 0,-8.344 c 0,-1.848 -0.420004,-4.396 -3.836,-4.396 -2.519998,0 -3.892001,1.904 -4.06,2.128 l 0,-1.988 -2.016,0 0,12.6 2.184,0 0,-6.86 c 0,-1.848 0.700002,-4.172 2.828,-4.172 2.687997,0 2.716,1.988 2.716,2.884 l 0,8.148 2.184,0"
             style="font-size:28px;fill:#657b83;font-family:LMSans17;-inkscape-font-specification:LMSans17 Bold"
             id="path3270" />
          <path
             d="m -23.3276,636.63832 -0.308,-1.764 c -1.959998,0 -3.584001,0.532 -4.424,0.896 -0.588,-0.476 -1.540002,-0.896 -2.66,-0.896 -2.407998,0 -4.452,2.016 -4.452,4.564 0,1.036 0.364,2.044 0.924,2.772 -0.812,1.148 -0.812,2.24 -0.812,2.38 0,0.728 0.252,1.54 0.728,2.128 -1.455999,0.868 -1.792,2.156 -1.792,2.884 0,2.1 2.772003,3.78 6.188,3.78 3.443996,0 6.216,-1.652 6.216,-3.808 0,-3.892 -4.676001,-3.892 -5.768,-3.892 l -2.464,0 c -0.364,0 -1.624,0 -1.624,-1.484 0,-0.308 0.112,-0.756 0.308,-1.008 0.587999,0.42 1.512001,0.812 2.548,0.812 2.519997,0 4.48,-2.072 4.48,-4.564 0,-1.344 -0.616001,-2.38 -0.924,-2.8 l 0.112,0.028 c 0.615999,0 1.4,-0.112 2.072,-0.112 0.503999,0 1.652,0.084 1.652,0.084 m -4.872,2.8 c 0,2.184 -1.316002,2.968 -2.52,2.968 -1.035999,0 -2.492,-0.644 -2.492,-2.968 0,-2.324 1.456001,-2.968 2.492,-2.968 1.203998,0 2.52,0.784 2.52,2.968 m 2.52,10.192 c 0,1.232 -1.932003,2.156 -4.228,2.156 -2.267998,0 -4.256,-0.868 -4.256,-2.184 0,-0.084 2e-6,-1.904 2.184,-1.904 l 2.52,0 c 0.615999,0 3.78,0 3.78,1.932"
             style="font-size:28px;fill:#657b83;font-family:LMSans17;-inkscape-font-specification:LMSans17 Bold"
             id="path3272" />
          <path
             d="m -12.135921,641.48232 c 0,-0.952 -0.028,-3.052 -1.12,-4.732 -1.147998,-1.736 -2.856001,-2.044 -3.864,-2.044 -3.107996,0 -5.628,2.968 -5.628,6.58 0,3.696 2.688004,6.636 6.048,6.636 1.763999,0 3.360002,-0.672 4.452,-1.456 l -0.168,-1.82 c -1.763998,1.456 -3.612,1.568 -4.256,1.568 -2.239997,0 -4.032,-1.988 -4.116,-4.732 l 8.652,0 m -1.596,-1.54 -6.916,0 c 0.448,-2.128 1.932002,-3.528 3.528,-3.528 1.455999,0 3.024001,0.952 3.388,3.528"
             style="font-size:28px;fill:#657b83;font-family:LMSans17;-inkscape-font-specification:LMSans17 Bold"
             id="path3274" />
          <path
             d="m -1.9447955,644.03032 c 0,-1.54 -1.0360001,-2.492 -1.092,-2.576 -1.0919989,-0.98 -1.8480014,-1.148 -3.248,-1.4 -1.5399985,-0.308 -2.828,-0.588 -2.828,-1.96 0,-1.736 2.0160003,-1.736 2.38,-1.736 0.8959991,0 2.3800016,0.112 3.976,1.064 l 0.336,-1.82 c -1.4559986,-0.672 -2.6040015,-0.896 -4.032,-0.896 -0.6999993,0 -4.6480005,0 -4.6480005,3.668 0,1.372 0.812001,2.268 1.5120005,2.8 0.8679991,0.616 1.4840015,0.728 3.024,1.036 1.007999,0.196 2.632,0.532 2.632,2.016 0,1.932 -2.2120005,1.932 -2.632,1.932 -2.2679978,0 -3.8360005,-1.036 -4.3400005,-1.372 l -0.336,1.904 c 0.896,0.448 2.4360027,1.232 4.7040005,1.232 0.5039995,0 2.0440012,0 3.248,-0.896 0.8679991,-0.672 1.344,-1.792 1.344,-2.996"
             style="font-size:28px;fill:#657b83;font-family:LMSans17;-inkscape-font-specification:LMSans17 Bold"
             id="path3276" />
          <path
             d="m 18.239704,647.61432 0,-8.092 c 0,-2.856 -2.044002,-4.816 -4.62,-4.816 -1.819998,0 -3.080001,0.448 -4.3959995,1.204 l 0.168,1.848 c 1.4559985,-1.036 2.8560015,-1.4 4.2279995,-1.4 1.315999,0 2.436,1.12 2.436,3.192 l 0,1.204 c -4.199995,0.056 -7.7559995,1.232 -7.7559995,3.696 0,1.204 0.7560024,3.472 3.1919995,3.472 0.392,0 3.024002,-0.056 4.648,-1.316 l 0,1.008 2.1,0 m -2.184,-3.696 c 0,0.532 0,1.232 -0.952,1.764 -0.811999,0.504 -1.876,0.532 -2.184,0.532 -1.343998,0 -2.604,-0.644 -2.604,-1.82 0,-1.96 4.536002,-2.156 5.74,-2.212 l 0,1.736"
             style="font-size:28px;fill:#657b83;font-family:LMSans17;-inkscape-font-specification:LMSans17 Bold"
             id="path3278" />
          <path
             d="m 31.600517,647.61432 0,-8.344 c 0,-1.848 -0.420003,-4.396 -3.836,-4.396 -2.519998,0 -3.892,1.904 -4.06,2.128 l 0,-1.988 -2.016,0 0,12.6 2.184,0 0,-6.86 c 0,-1.848 0.700002,-4.172 2.828,-4.172 2.687997,0 2.716,1.988 2.716,2.884 l 0,8.148 2.184,0"
             style="font-size:28px;fill:#657b83;font-family:LMSans17;-inkscape-font-specification:LMSans17 Bold"
             id="path3280" />
          <path
             d="m 45.135017,647.61432 0,-19.432 -2.1,0 0,8.232 c -1.483999,-1.232 -3.052001,-1.54 -4.088,-1.54 -2.771997,0 -4.956,2.912 -4.956,6.524 0,3.668 2.156003,6.524 4.816,6.524 0.923999,0 2.576002,-0.252 4.144,-1.764 l 0,1.456 2.184,0 m -2.184,-3.892 c 0,0.392 -0.028,0.896 -0.924,1.708 -0.643999,0.56 -1.344001,0.784 -2.072,0.784 -1.735998,0 -3.78,-1.316 -3.78,-4.788 0,-3.696 2.408002,-4.844 4.06,-4.844 1.259999,0 2.100001,0.644 2.716,1.54 l 0,5.6"
             style="font-size:28px;fill:#657b83;font-family:LMSans17;-inkscape-font-specification:LMSans17 Bold"
             id="path3282" />
        </g>
        <g
           style="font-size:63.45178604px;font-style:normal;font-variant:normal;font-weight:normal;font-stretch:normal;line-height:125%;letter-spacing:0px;word-spacing:0px;fill:#657b83;fill-opacity:1;stroke:none;font-family:Latin Modern Sans;-inkscape-font-specification:Latin Modern Sans"
           id="text3145-97">
          <path
             d="m -140.67558,681.72088 -0.168,-1.876 c -1.428,1.12 -2.94,1.512 -4.368,1.512 -2.324,0 -3.892,-2.016 -3.892,-4.76 0,-2.184 1.036,-4.872 4.004,-4.872 1.456,0 2.408,0.224 3.948,1.232 l 0.336,-1.82 c -1.652,-0.952 -2.604,-1.204 -4.312,-1.204 -3.89199,0 -6.16,3.388 -6.16,6.692 0,3.472 2.54801,6.524 6.048,6.524 1.512,0 3.052,-0.392 4.564,-1.428"
             style="font-size:28px;fill:#657b83;font-family:LMSans17;-inkscape-font-specification:LMSans17 Bold"
             id="path3285" />
          <path
             d="m -127.46045,676.68088 c 0,-3.75199 -2.80001,-6.748 -6.132,-6.748 -3.444,0 -6.16,3.08001 -6.16,6.748 0,3.696 2.856,6.468 6.132,6.468 3.35999,0 6.16,-2.828 6.16,-6.468 m -2.184,-0.28 c 0,3.304 -1.90401,4.956 -3.976,4.956 -1.932,0 -3.948,-1.568 -3.948,-4.956 0,-3.388 2.128,-4.76 3.948,-4.76 1.96,0 3.976,1.456 3.976,4.76"
             style="font-size:28px;fill:#657b83;font-family:LMSans17;-inkscape-font-specification:LMSans17 Bold"
             id="path3287" />
          <path
             d="m -114.53279,682.84088 0,-19.432 -2.1,0 0,8.232 c -1.484,-1.232 -3.052,-1.54 -4.088,-1.54 -2.772,0 -4.956,2.912 -4.956,6.524 0,3.668 2.156,6.524 4.816,6.524 0.924,0 2.576,-0.252 4.144,-1.764 l 0,1.456 2.184,0 m -2.184,-3.892 c 0,0.392 -0.028,0.896 -0.924,1.708 -0.644,0.56 -1.344,0.784 -2.072,0.784 -1.736,0 -3.78,-1.316 -3.78,-4.788 0,-3.69599 2.408,-4.844 4.06,-4.844 1.26,0 2.1,0.644 2.716,1.54 l 0,5.6"
             style="font-size:28px;fill:#657b83;font-family:LMSans17;-inkscape-font-specification:LMSans17 Bold"
             id="path3289" />
          <path
             d="m -101.53029,676.70888 c 0,-0.952 -0.028,-3.052 -1.12,-4.732 -1.148,-1.736 -2.856,-2.044 -3.864,-2.044 -3.108,0 -5.628,2.968 -5.628,6.58 0,3.696 2.688,6.636 6.048,6.636 1.764,0 3.36,-0.672 4.452,-1.456 l -0.168,-1.82 c -1.764,1.456 -3.612,1.568 -4.256,1.568 -2.24,0 -4.032,-1.988 -4.116,-4.732 l 8.652,0 m -1.596,-1.54 -6.916,0 c 0.448,-2.128 1.932,-3.528 3.528,-3.528 1.456,0 3.024,0.952 3.388,3.528"
             style="font-size:28px;fill:#657b83;font-family:LMSans17;-inkscape-font-specification:LMSans17 Bold"
             id="path3291" />
          <path
             d="m -83.513167,671.97688 0,-1.876 c -2.491997,0.028 -4.032,1.4 -4.9,2.688 l 0,-2.548 -1.96,0 0,12.6 2.1,0 0,-5.992 c 0,-2.8 2.016003,-4.816 4.76,-4.872"
             style="font-size:28px;fill:#657b83;font-family:LMSans17;-inkscape-font-specification:LMSans17 Bold"
             id="path3293" />
          <path
             d="m -72.108417,676.70888 c 0,-0.952 -0.028,-3.052 -1.12,-4.732 -1.147998,-1.736 -2.856001,-2.044 -3.864,-2.044 -3.107996,0 -5.628,2.968 -5.628,6.58 0,3.696 2.688004,6.636 6.048,6.636 1.763999,0 3.360002,-0.672 4.452,-1.456 l -0.168,-1.82 c -1.763998,1.456 -3.612,1.568 -4.256,1.568 -2.239997,0 -4.032,-1.988 -4.116,-4.732 l 8.652,0 m -1.596,-1.54 -6.916,0 c 0.448,-2.128 1.932002,-3.528 3.528,-3.528 1.455999,0 3.024001,0.952 3.388,3.528"
             style="font-size:28px;fill:#657b83;font-family:LMSans17;-inkscape-font-specification:LMSans17 Bold"
             id="path3295" />
          <path
             d="m -59.509292,670.40888 -2.1,0 -2.212,5.824 c -0.587999,1.54 -1.456,3.808 -1.68,5.124 l -0.028,0 c -0.167999,-1.008 -0.896,-2.94 -1.176,-3.696 l -2.716,-7.252 -2.184,0 4.816,12.432 2.464,0 4.816,-12.432"
             style="font-size:28px;fill:#657b83;font-family:LMSans17;-inkscape-font-specification:LMSans17 Bold"
             id="path3297" />
          <path
             d="m -55.543354,682.84088 0,-12.432 -2.1,0 0,12.432 2.1,0 m 0.224,-15.848 0,-2.492 -2.492,0 0,2.492 2.492,0"
             style="font-size:28px;fill:#657b83;font-family:LMSans17;-inkscape-font-specification:LMSans17 Bold"
             id="path3299" />
          <path
             d="m -42.084979,676.70888 c 0,-0.952 -0.028,-3.052 -1.12,-4.732 -1.147999,-1.736 -2.856001,-2.044 -3.864,-2.044 -3.107997,0 -5.628,2.968 -5.628,6.58 0,3.696 2.688003,6.636 6.048,6.636 1.763998,0 3.360001,-0.672 4.452,-1.456 l -0.168,-1.82 c -1.763998,1.456 -3.612001,1.568 -4.256,1.568 -2.239998,0 -4.032,-1.988 -4.116,-4.732 l 8.652,0 m -1.596,-1.54 -6.916,0 c 0.447999,-2.128 1.932002,-3.528 3.528,-3.528 1.455998,0 3.024,0.952 3.388,3.528"
             style="font-size:28px;fill:#657b83;font-family:LMSans17;-inkscape-font-specification:LMSans17 Bold"
             id="path3301" />
          <path
             d="m -23.269854,670.40888 -2.044,0 -1.792,5.936 c -0.308,1.008 -1.148,3.78 -1.288,4.984 l -0.028,0 c -0.112,-0.868 -0.812001,-3.36 -1.288,-4.956 l -1.82,-5.964 -1.96,0 -1.596,5.264 c -0.308,0.98 -1.26,4.2 -1.372,5.628 l -0.028,0 c -0.14,-1.344 -1.064001,-4.508 -1.512,-6.048 l -1.456,-4.844 -2.128,0 3.836,12.432 2.212,0 1.736,-5.768 c 0.392,-1.288 1.176,-4.06 1.26,-5.096 l 0.028,0 c 0.056,0.784 0.532,2.716 0.896,3.92 l 2.044,6.944 2.464,0 3.836,-12.432"
             style="font-size:28px;fill:#657b83;font-family:LMSans17;-inkscape-font-specification:LMSans17 Bold"
             id="path3303" />
          <path
             d="m -13.956362,679.25688 c 0,-1.54 -1.036,-2.492 -1.092,-2.576 -1.091999,-0.98 -1.848001,-1.148 -3.248,-1.4 -1.539998,-0.308 -2.828,-0.588 -2.828,-1.96 0,-1.736 2.016001,-1.736 2.38,-1.736 0.895999,0 2.380002,0.112 3.976,1.064 l 0.336,-1.82 c -1.455998,-0.672 -2.604001,-0.896 -4.032,-0.896 -0.699999,0 -4.648,1e-5 -4.648,3.668 0,1.372 0.812001,2.268 1.512,2.8 0.867999,0.616 1.484002,0.728 3.024,1.036 1.007999,0.196 2.632,0.532 2.632,2.016 0,1.932 -2.212,1.932 -2.632,1.932 -2.267997,0 -3.836,-1.036 -4.34,-1.372 l -0.336,1.904 c 0.895999,0.448 2.436003,1.232 4.704,1.232 0.504,0 2.044002,0 3.248,-0.896 0.867999,-0.672 1.344,-1.792 1.344,-2.996"
             style="font-size:28px;fill:#657b83;font-family:LMSans17;-inkscape-font-specification:LMSans17 Bold"
             id="path3305" />
        </g>
        <g
           id="g40696"
           transform="translate(-4.0639171e-5,1.9951172e-5)">
          <path
             sodipodi:nodetypes="cc"
             inkscape:connector-curvature="0"
             id="path6330-1-4"
             d="m 98.055026,652.73852 270.000004,45"
             style="fill:#2aa198;stroke:#2aa198;stroke-width:1px;stroke-linecap:butt;stroke-linejoin:miter;stroke-opacity:1" />
          <path
             sodipodi:nodetypes="cc"
             inkscape:connector-curvature="0"
             id="path6330-3-9-9"
             d="m 98.055026,587.73852 270.000004,110"
             style="fill:#2aa198;stroke:#2aa198;stroke-width:1px;stroke-linecap:butt;stroke-linejoin:miter;stroke-opacity:1" />
          <path
             sodipodi:nodetypes="cc"
             inkscape:connector-curvature="0"
             id="path6330-58-0-5"
             d="m 98.055026,722.73852 270.000004,-25"
             style="fill:#2aa198;stroke:#2aa198;stroke-width:1px;stroke-linecap:butt;stroke-linejoin:miter;stroke-opacity:1" />
          <path
             sodipodi:nodetypes="cc"
             inkscape:connector-curvature="0"
             id="path6330-6-2-4"
             d="m 98.055026,792.73852 270.000004,-95"
             style="fill:#2aa198;stroke:#2aa198;stroke-width:1px;stroke-linecap:butt;stroke-linejoin:miter;stroke-opacity:1" />
        </g>
        <path
           inkscape:connector-curvature="0"
           id="path3135-86-6"
           style="font-size:40px;font-style:normal;font-variant:normal;font-weight:normal;font-stretch:normal;line-height:125%;letter-spacing:0px;word-spacing:0px;fill:#2aa198;fill-opacity:1;stroke:none;font-family:FontAwesome;-inkscape-font-specification:FontAwesome"
           d="m 205.38489,861.25772 c -1.33785,-1.9296 -2.08395,-4.2451 -2.08395,-6.5863 0,-0.566 0.0514,-1.132 0.12863,-1.698 -1.10629,0.3859 -2.23831,0.5917 -3.42178,0.5917 -3.47325,0 -6.14893,-2.1868 -6.68922,-2.1868 -3.26741,0 -3.19023,6.9979 -3.19023,9.0818 0,2.8558 2.41841,4.0908 4.99118,4.0908 l 3.44751,0 c 1.72376,-2.0583 4.14217,-3.216 6.81785,-3.2932 m 27.5544,16.3885 c 0,-5.8144 -1.36358,-14.742 -8.90179,-14.742 -0.87475,0 -4.06499,3.5762 -9.21054,3.5762 -5.14553,0 -8.33578,-3.5762 -9.21052,-3.5762 -7.53822,0 -8.90179,8.9276 -8.90179,14.742 0,4.168 2.75287,6.6635 6.8693,6.6635 l 22.48604,0 c 4.11643,0 6.8693,-2.4955 6.8693,-6.6635 m -26.3452,-32.8543 c 0,-3.6275 -2.95869,-6.5863 -6.58629,-6.5863 -3.62761,0 -6.5863,2.9588 -6.5863,6.5863 0,3.6276 2.95869,6.5864 6.5863,6.5864 3.6276,0 6.58629,-2.9588 6.58629,-6.5864 m 18.11233,9.8795 c 0,-5.4543 -4.42518,-9.8795 -9.87946,-9.8795 -5.45427,0 -9.87944,4.4252 -9.87944,9.8795 0,5.4542 4.42517,9.8795 9.87944,9.8795 5.45428,0 9.87946,-4.4253 9.87946,-9.8795 m 14.81917,5.7887 c 0,-2.0839 0.0772,-9.0818 -3.19025,-9.0818 -0.54027,0 -3.21596,2.1868 -6.6892,2.1868 -1.18347,0 -2.3155,-0.2058 -3.42179,-0.5917 0.0772,0.566 0.12864,1.132 0.12864,1.698 0,2.3412 -0.7461,4.6567 -2.08395,6.5863 2.67569,0.077 5.09409,1.2349 6.81785,3.2932 l 3.44752,0 c 2.57277,0 4.99118,-1.235 4.99118,-4.0908 m -3.29315,-15.6682 c 0,-3.6275 -2.9587,-6.5863 -6.5863,-6.5863 -3.6276,0 -6.5863,2.9588 -6.5863,6.5863 0,3.6276 2.9587,6.5864 6.5863,6.5864 3.6276,0 6.5863,-2.9588 6.5863,-6.5864" />
        <g
           style="font-size:63.45178604px;font-style:normal;font-variant:normal;font-weight:normal;font-stretch:normal;line-height:125%;letter-spacing:0px;word-spacing:0px;fill:#2aa198;fill-opacity:1;stroke:none;font-family:Latin Modern Sans;-inkscape-font-specification:Latin Modern Sans"
           id="text3145-85-0">
          <path
             d="m 296.74953,849.99766 0,-2.6 -24.32,0 0,2.6 5.36,0 c 0.48,0 0.96,-0.04 1.44,-0.04 l 3.6,0 0,24.96 3.56,0 0,-24.96 3.56,0 c 0.48,0 0.96,0.04 1.44,0.04 l 5.36,0"
             style="font-size:40px;fill:#2aa198;font-family:LMSans17;-inkscape-font-specification:LMSans17 Bold"
             id="path3345" />
          <path
             d="m 310.05457,866.15766 c 0,-1.36 -0.04,-4.36 -1.6,-6.76 -1.64,-2.47999 -4.08,-2.92 -5.52,-2.92 -4.44,0 -8.04,4.24001 -8.04,9.4 0,5.28 3.84,9.48 8.64,9.48 2.52,0 4.8,-0.96 6.36,-2.08 l -0.24,-2.6 c -2.52,2.08 -5.16,2.24 -6.08,2.24 -3.2,0 -5.76,-2.84 -5.88,-6.76 l 12.36,0 m -2.28,-2.2 -9.88,0 c 0.64,-3.03999 2.76,-5.04 5.04,-5.04 2.08,0 4.32,1.36001 4.84,5.04"
             style="font-size:40px;fill:#2aa198;font-family:LMSans17;-inkscape-font-specification:LMSans17 Bold"
             id="path3347" />
          <path
             d="m 326.81332,873.31766 -0.24,-2.68 c -2.04,1.6 -4.2,2.16 -6.24,2.16 -3.32,0 -5.56,-2.88 -5.56,-6.8 0,-3.11999 1.48,-6.96 5.72,-6.96 2.08,0 3.44,0.32001 5.64,1.76 l 0.48,-2.6 c -2.36,-1.36 -3.72,-1.72 -6.16,-1.72 -5.56,0 -8.8,4.84001 -8.8,9.56 0,4.96 3.64,9.32 8.64,9.32 2.16,0 4.36,-0.56 6.52,-2.04"
             style="font-size:40px;fill:#2aa198;font-family:LMSans17;-inkscape-font-specification:LMSans17 Bold"
             id="path3349" />
          <path
             d="m 344.33207,874.91766 0,-11.92 c 0,-2.63999 -0.60001,-6.28 -5.48,-6.28 -2.48,0 -4.4,1.24001 -5.68,2.88 l 0,-12.44 -3,0 0,27.76 3.12,0 0,-9.8 c 0,-2.63999 1,-5.96 4.04,-5.96 3.83999,0 3.88,2.84 3.88,4.12 l 0,11.64 3.12,0"
             style="font-size:40px;fill:#2aa198;font-family:LMSans17;-inkscape-font-specification:LMSans17 Bold"
             id="path3351" />
          <path
             d="m 375.16707,874.91766 0,-11.56 c 0,-4.07999 -2.92001,-6.88 -6.6,-6.88 -2.6,0 -4.4,0.64 -6.28,1.72 l 0.24,2.64 c 2.08,-1.47999 4.08,-2 6.04,-2 1.88,0 3.48,1.60001 3.48,4.56 l 0,1.72 c -6,0.08 -11.08,1.76001 -11.08,5.28 0,1.72 1.08,4.96 4.56,4.96 0.56,0 4.32,-0.08 6.64,-1.88 l 0,1.44 3,0 m -3.12,-5.28 c 0,0.76 0,1.76 -1.36,2.52 -1.16,0.72 -2.68,0.76 -3.12,0.76 -1.92,0 -3.72,-0.92 -3.72,-2.6 0,-2.79999 6.48,-3.08 8.2,-3.16 l 0,2.48"
             style="font-size:40px;fill:#2aa198;font-family:LMSans17;-inkscape-font-specification:LMSans17 Bold"
             id="path3353" />
          <path
             d="m 405.37394,874.91766 0,-11.92 c 0,-2.67999 -0.64,-6.28 -5.48,-6.28 -2.39999,0 -4.48,1.12001 -5.96,3.28 -1.04,-3.03999 -3.84,-3.28 -5.12,-3.28 -2.87999,0 -4.76,1.64001 -5.84,3.08 l 0,-2.88 -2.88,0 0,18 3.12,0 0,-9.8 c 0,-2.71999 1.08001,-5.96 4.04,-5.96 3.72,0 3.92,2.60001 3.92,4.12 l 0,11.64 3.12,0 0,-9.8 c 0,-2.71999 1.08001,-5.96 4.04,-5.96 3.72,0 3.92,2.60001 3.92,4.12 l 0,11.64 3.12,0"
             style="font-size:40px;fill:#2aa198;font-family:LMSans17;-inkscape-font-specification:LMSans17 Bold"
             id="path3355" />
          <path
             d="m 425.81957,865.99766 c 0,-4.95999 -2.72001,-9.28 -6.48,-9.28 -1.56,0 -4.04,0.40001 -6.44,2.36 l 0,-11.92 -3,0 0,27.76 3.12,0 0,-1.84 c 0.96,0.88 2.68,2.28 5.36,2.28 3.99999,0 7.44,-4 7.44,-9.36 m -3.12,0 c 0,5.2 -3.36,6.92 -5.8,6.92 -1.56,0 -2.88,-0.72 -3.88,-2.56 l 0,-8.84 c 0.64,-0.96 2.08,-2.36 4.28,-2.36 2.36,0 5.4,1.72001 5.4,6.84"
             style="font-size:40px;fill:#2aa198;font-family:LMSans17;-inkscape-font-specification:LMSans17 Bold"
             id="path3357" />
          <path
             d="m 442.35457,874.91766 0,-11.56 c 0,-4.07999 -2.92001,-6.88 -6.6,-6.88 -2.6,0 -4.4,0.64 -6.28,1.72 l 0.24,2.64 c 2.08,-1.47999 4.08,-2 6.04,-2 1.88,0 3.48,1.60001 3.48,4.56 l 0,1.72 c -6,0.08 -11.08,1.76001 -11.08,5.28 0,1.72 1.08,4.96 4.56,4.96 0.56,0 4.32,-0.08 6.64,-1.88 l 0,1.44 3,0 m -3.12,-5.28 c 0,0.76 0,1.76 -1.36,2.52 -1.16,0.72 -2.68,0.76 -3.12,0.76 -1.92,0 -3.72,-0.92 -3.72,-2.6 0,-2.79999 6.48,-3.08 8.2,-3.16 l 0,2.48"
             style="font-size:40px;fill:#2aa198;font-family:LMSans17;-inkscape-font-specification:LMSans17 Bold"
             id="path3359" />
          <path
             d="m 458.44144,869.79766 c 0,-2.19999 -1.48,-3.56 -1.56,-3.68 -1.56,-1.4 -2.64,-1.64 -4.64,-2 -2.19999,-0.44 -4.04,-0.84 -4.04,-2.8 0,-2.47999 2.88,-2.48 3.4,-2.48 1.28,0 3.40001,0.16 5.68,1.52 l 0.48,-2.6 c -2.08,-0.96 -3.72,-1.28 -5.76,-1.28 -1,0 -6.64,10e-6 -6.64,5.24 0,1.96 1.16,3.24 2.16,4 1.24,0.88 2.12001,1.04 4.32,1.48 1.44,0.28 3.76,0.76001 3.76,2.88 0,2.76 -3.16,2.76 -3.76,2.76 -3.23999,0 -5.48,-1.48 -6.2,-1.96 l -0.48,2.72 c 1.28,0.64 3.48001,1.76 6.72,1.76 0.72,0 2.92,0 4.64,-1.28 1.24,-0.96 1.92,-2.56 1.92,-4.28"
             style="font-size:40px;fill:#2aa198;font-family:LMSans17;-inkscape-font-specification:LMSans17 Bold"
             id="path3361" />
          <path
             d="m 472.81644,869.79766 c 0,-2.19999 -1.48,-3.56 -1.56,-3.68 -1.56,-1.4 -2.64,-1.64 -4.64,-2 -2.19999,-0.44 -4.04,-0.84 -4.04,-2.8 0,-2.47999 2.88,-2.48 3.4,-2.48 1.28,0 3.40001,0.16 5.68,1.52 l 0.48,-2.6 c -2.08,-0.96 -3.72,-1.28 -5.76,-1.28 -1,0 -6.64,10e-6 -6.64,5.24 0,1.96 1.16,3.24 2.16,4 1.24,0.88 2.12001,1.04 4.32,1.48 1.44,0.28 3.76,0.76001 3.76,2.88 0,2.76 -3.16,2.76 -3.76,2.76 -3.23999,0 -5.48,-1.48 -6.2,-1.96 l -0.48,2.72 c 1.28,0.64 3.48001,1.76 6.72,1.76 0.72,0 2.92,0 4.64,-1.28 1.24,-0.96 1.92,-2.56 1.92,-4.28"
             style="font-size:40px;fill:#2aa198;font-family:LMSans17;-inkscape-font-specification:LMSans17 Bold"
             id="path3363" />
          <path
             d="m 489.15144,874.91766 0,-11.56 c 0,-4.07999 -2.92,-6.88 -6.6,-6.88 -2.59999,0 -4.4,0.64 -6.28,1.72 l 0.24,2.64 c 2.08,-1.47999 4.08,-2 6.04,-2 1.88,0 3.48,1.60001 3.48,4.56 l 0,1.72 c -5.99999,0.08 -11.08,1.76001 -11.08,5.28 0,1.72 1.08001,4.96 4.56,4.96 0.56,0 4.32001,-0.08 6.64,-1.88 l 0,1.44 3,0 m -3.12,-5.28 c 0,0.76 0,1.76 -1.36,2.52 -1.16,0.72 -2.68,0.76 -3.12,0.76 -1.92,0 -3.72,-0.92 -3.72,-2.6 0,-2.79999 6.48,-3.08 8.2,-3.16 l 0,2.48"
             style="font-size:40px;fill:#2aa198;font-family:LMSans17;-inkscape-font-specification:LMSans17 Bold"
             id="path3365" />
          <path
             d="m 508.19832,874.91766 0,-27.76 -3,0 0,11.76 c -2.12,-1.75999 -4.36,-2.2 -5.84,-2.2 -3.96,0 -7.08,4.16001 -7.08,9.32 0,5.24 3.08,9.32 6.88,9.32 1.32,0 3.68,-0.36 5.92,-2.52 l 0,2.08 3.12,0 m -3.12,-5.56 c 0,0.56 -0.04,1.28 -1.32,2.44 -0.92,0.8 -1.92,1.12 -2.96,1.12 -2.48,0 -5.4,-1.88 -5.4,-6.84 0,-5.27999 3.44,-6.92 5.8,-6.92 1.8,0 3,0.92 3.88,2.2 l 0,8"
             style="font-size:40px;fill:#2aa198;font-family:LMSans17;-inkscape-font-specification:LMSans17 Bold"
             id="path3367" />
          <path
             d="m 528.97332,866.11766 c 0,-5.35999 -4.00001,-9.64 -8.76,-9.64 -4.92,0 -8.8,4.40001 -8.8,9.64 0,5.28 4.08,9.24 8.76,9.24 4.79999,0 8.8,-4.04 8.8,-9.24 m -3.12,-0.4 c 0,4.72 -2.72001,7.08 -5.68,7.08 -2.76,0 -5.64,-2.24 -5.64,-7.08 0,-4.83999 3.04,-6.8 5.64,-6.8 2.8,0 5.68,2.08001 5.68,6.8"
             style="font-size:40px;fill:#2aa198;font-family:LMSans17;-inkscape-font-specification:LMSans17 Bold"
             id="path3369" />
          <path
             d="m 541.0815,859.39766 0,-2.68 c -3.56,0.04 -5.76001,2.00001 -7,3.84 l 0,-3.64 -2.8,0 0,18 3,0 0,-8.56 c 0,-3.99999 2.88,-6.88 6.8,-6.96"
             style="font-size:40px;fill:#2aa198;font-family:LMSans17;-inkscape-font-specification:LMSans17 Bold"
             id="path3371" />
          <path
             d="m 555.214,869.79766 c 0,-2.19999 -1.48,-3.56 -1.56,-3.68 -1.56,-1.4 -2.64001,-1.64 -4.64,-2 -2.2,-0.44 -4.04,-0.84 -4.04,-2.8 0,-2.47999 2.88,-2.48 3.4,-2.48 1.27999,0 3.4,0.16 5.68,1.52 l 0.48,-2.6 c -2.08,-0.96 -3.72001,-1.28 -5.76,-1.28 -1,0 -6.64,10e-6 -6.64,5.24 0,1.96 1.16,3.24 2.16,4 1.23999,0.88 2.12,1.04 4.32,1.48 1.43999,0.28 3.76,0.76001 3.76,2.88 0,2.76 -3.16001,2.76 -3.76,2.76 -3.24,0 -5.48001,-1.48 -6.2,-1.96 l -0.48,2.72 c 1.27999,0.64 3.48,1.76 6.72,1.76 0.71999,0 2.92,0 4.64,-1.28 1.23999,-0.96 1.92,-2.56 1.92,-4.28"
             style="font-size:40px;fill:#2aa198;font-family:LMSans17;-inkscape-font-specification:LMSans17 Bold"
             id="path3373" />
        </g>
      </g>
    </g>
  </g>
</svg>
