<?xml version="1.0" encoding="UTF-8" standalone="no"?>
<!-- Created with Inkscape (http://www.inkscape.org/) -->

<svg
   xmlns:dc="http://purl.org/dc/elements/1.1/"
   xmlns:cc="http://creativecommons.org/ns#"
   xmlns:rdf="http://www.w3.org/1999/02/22-rdf-syntax-ns#"
   xmlns:svg="http://www.w3.org/2000/svg"
   xmlns="http://www.w3.org/2000/svg"
   xmlns:sodipodi="http://sodipodi.sourceforge.net/DTD/sodipodi-0.dtd"
   xmlns:inkscape="http://www.inkscape.org/namespaces/inkscape"
   width="696.84448"
   height="906.26086"
   id="svg2"
   version="1.1"
   inkscape:version="0.48.4 r9939"
   sodipodi:docname="Tech news process 4 - Language selection and delivery.svg">
  <defs
     id="defs4">
    <marker
       inkscape:stockid="Arrow2Mend"
       orient="auto"
       refY="0"
       refX="0"
       id="Arrow2Mend"
       style="overflow:visible">
      <path
         id="path12077"
         style="fill-rule:evenodd;stroke-width:0.625;stroke-linejoin:round"
         d="M 8.7185878,4.0337352 -2.2072895,0.01601326 8.7185884,-4.0017078 c -1.7454984,2.3720609 -1.7354408,5.6174519 -6e-7,8.035443 z"
         transform="scale(-0.6,-0.6)"
         inkscape:connector-curvature="0" />
    </marker>
    <marker
       inkscape:stockid="Arrow2Mstart"
       orient="auto"
       refY="0"
       refX="0"
       id="Arrow2Mstart"
       style="overflow:visible">
      <path
         id="path12074"
         style="fill-rule:evenodd;stroke-width:0.625;stroke-linejoin:round"
         d="M 8.7185878,4.0337352 -2.2072895,0.01601326 8.7185884,-4.0017078 c -1.7454984,2.3720609 -1.7354408,5.6174519 -6e-7,8.035443 z"
         transform="scale(0.6,0.6)"
         inkscape:connector-curvature="0" />
    </marker>
    <marker
       inkscape:stockid="Arrow2Lstart"
       orient="auto"
       refY="0"
       refX="0"
       id="Arrow2Lstart"
       style="overflow:visible">
      <path
         id="path12068"
         style="fill-rule:evenodd;stroke-width:0.625;stroke-linejoin:round"
         d="M 8.7185878,4.0337352 -2.2072895,0.01601326 8.7185884,-4.0017078 c -1.7454984,2.3720609 -1.7354408,5.6174519 -6e-7,8.035443 z"
         transform="matrix(1.1,0,0,1.1,1.1,0)"
         inkscape:connector-curvature="0" />
    </marker>
    <marker
       inkscape:stockid="Arrow1Lend"
       orient="auto"
       refY="0"
       refX="0"
       id="Arrow1Lend"
       style="overflow:visible">
      <path
         id="path12053"
         d="M 0,0 5,-5 -12.5,0 5,5 0,0 z"
         style="fill-rule:evenodd;stroke:#000000;stroke-width:1pt"
         transform="matrix(-0.8,0,0,-0.8,-10,0)"
         inkscape:connector-curvature="0" />
    </marker>
    <marker
       inkscape:stockid="Arrow1Lstart"
       orient="auto"
       refY="0"
       refX="0"
       id="Arrow1Lstart"
       style="overflow:visible">
      <path
         id="path12050"
         d="M 0,0 5,-5 -12.5,0 5,5 0,0 z"
         style="fill-rule:evenodd;stroke:#000000;stroke-width:1pt"
         transform="matrix(0.8,0,0,0.8,10,0)"
         inkscape:connector-curvature="0" />
    </marker>
    <marker
       inkscape:stockid="Arrow1Mend"
       orient="auto"
       refY="0"
       refX="0"
       id="Arrow1Mend"
       style="overflow:visible">
      <path
         id="path12059"
         d="M 0,0 5,-5 -12.5,0 5,5 0,0 z"
         style="fill-rule:evenodd;stroke:#000000;stroke-width:1pt"
         transform="matrix(-0.4,0,0,-0.4,-4,0)"
         inkscape:connector-curvature="0" />
    </marker>
    <marker
       inkscape:stockid="Arrow1Mstart"
       orient="auto"
       refY="0"
       refX="0"
       id="Arrow1Mstart"
       style="overflow:visible">
      <path
         id="path12056"
         d="M 0,0 5,-5 -12.5,0 5,5 0,0 z"
         style="fill-rule:evenodd;stroke:#000000;stroke-width:1pt"
         transform="matrix(0.4,0,0,0.4,4,0)"
         inkscape:connector-curvature="0" />
    </marker>
    <marker
       inkscape:stockid="Arrow2Mstart"
       orient="auto"
       refY="0"
       refX="0"
       id="Arrow2Mstart-0"
       style="overflow:visible">
      <path
         inkscape:connector-curvature="0"
         id="path12074-4"
         style="fill-rule:evenodd;stroke-width:0.625;stroke-linejoin:round"
         d="M 8.7185878,4.0337352 -2.2072895,0.01601326 8.7185884,-4.0017078 c -1.7454984,2.3720609 -1.7354408,5.6174519 -6e-7,8.035443 z"
         transform="scale(0.6,0.6)" />
    </marker>
    <marker
       inkscape:stockid="Arrow2Mend"
       orient="auto"
       refY="0"
       refX="0"
       id="Arrow2Mend-1"
       style="overflow:visible">
      <path
         inkscape:connector-curvature="0"
         id="path12077-4"
         style="fill-rule:evenodd;stroke-width:0.625;stroke-linejoin:round"
         d="M 8.7185878,4.0337352 -2.2072895,0.01601326 8.7185884,-4.0017078 c -1.7454984,2.3720609 -1.7354408,5.6174519 -6e-7,8.035443 z"
         transform="scale(-0.6,-0.6)" />
    </marker>
    <marker
       inkscape:stockid="Arrow2Mstart"
       orient="auto"
       refY="0"
       refX="0"
       id="Arrow2Mstart-7"
       style="overflow:visible">
      <path
         inkscape:connector-curvature="0"
         id="path12074-5"
         style="fill-rule:evenodd;stroke-width:0.625;stroke-linejoin:round"
         d="M 8.7185878,4.0337352 -2.2072895,0.01601326 8.7185884,-4.0017078 c -1.7454984,2.3720609 -1.7354408,5.6174519 -6e-7,8.035443 z"
         transform="scale(0.6,0.6)" />
    </marker>
    <marker
       inkscape:stockid="Arrow2Mend"
       orient="auto"
       refY="0"
       refX="0"
       id="Arrow2Mend-7"
       style="overflow:visible">
      <path
         inkscape:connector-curvature="0"
         id="path12077-46"
         style="fill-rule:evenodd;stroke-width:0.625;stroke-linejoin:round"
         d="M 8.7185878,4.0337352 -2.2072895,0.01601326 8.7185884,-4.0017078 c -1.7454984,2.3720609 -1.7354408,5.6174519 -6e-7,8.035443 z"
         transform="scale(-0.6,-0.6)" />
    </marker>
  </defs>
  <sodipodi:namedview
     id="base"
     pagecolor="#ffffff"
     bordercolor="#666666"
     borderopacity="1.0"
     inkscape:pageopacity="0.0"
     inkscape:pageshadow="2"
     inkscape:zoom="0.84409364"
     inkscape:cx="384.99934"
     inkscape:cy="425.1533"
     inkscape:document-units="px"
     inkscape:current-layer="layer1"
     showgrid="false"
     inkscape:window-width="1885"
     inkscape:window-height="1060"
     inkscape:window-x="33"
     inkscape:window-y="-3"
     inkscape:window-maximized="1"
     fit-margin-top="0"
     fit-margin-left="0"
     fit-margin-right="0"
     fit-margin-bottom="0">
    <inkscape:grid
       type="xygrid"
       id="grid4317"
       empspacing="5"
       visible="true"
       enabled="true"
       snapvisiblegridlinesonly="true"
       originx="-1539.6866px"
       originy="111.25539px" />
  </sodipodi:namedview>
  <metadata
     id="metadata7">
    <rdf:RDF>
      <cc:Work
         rdf:about="">
        <dc:format>image/svg+xml</dc:format>
        <dc:type
           rdf:resource="http://purl.org/dc/dcmitype/StillImage" />
        <dc:title></dc:title>
      </cc:Work>
    </rdf:RDF>
  </metadata>
  <g
     inkscape:label="Calque 1"
     inkscape:groupmode="layer"
     id="layer1"
     transform="translate(-1539.6866,-257.35675)">
    <g
       id="g6815">
      <rect
         y="257.35675"
         x="1539.6866"
         height="906.26086"
         width="696.84448"
         id="rect3143"
         style="fill:#eee8d5;fill-opacity:1;stroke:none" />
      <g
         id="g6656">
        <g
           id="g40623"
           transform="translate(-162.39412,18.952271)">
          <path
             d="m 1767.1593,303.29474 -21.2761,-7.50923 0,46.30691 21.2761,-6.88348 0,-31.9142"
             style="fill:#d33682;fill-opacity:1;fill-rule:nonzero;stroke:none"
             id="path14"
             inkscape:connector-curvature="0" />
          <path
             d="m 1766.6485,303.27128 22.0908,-7.5088 0,46.30687 -22.0908,-6.88349 0,-31.91458"
             style="fill:#eee8d5;fill-opacity:1;fill-rule:nonzero;stroke:none"
             id="path16"
             inkscape:connector-curvature="0" />
          <path
             d="m 1740.3661,350.19868 26.2824,-8.76028 0,-38.1719 -26.2824,8.75998 0,38.1722"
             style="fill:#eee8d5;fill-opacity:1;fill-rule:nonzero;stroke:none"
             id="path18"
             inkscape:connector-curvature="0" />
          <path
             d="m 1778.6246,350.77531 3.7249,6.12823 1.9641,-5.69273 -5.689,-0.4355"
             style="fill:#d33682;fill-opacity:1;fill-rule:nonzero;stroke:none"
             id="path20"
             inkscape:connector-curvature="0" />
          <path
             d="m 1749.3027,316.42401 c -0.1396,-0.13711 0.1818,1.1202 0.6291,1.57253 0.7931,0.80019 1.4127,0.90332 1.7425,0.91653 0.7299,0.0291 1.6307,-0.18181 2.1656,-0.40602 0.5175,-0.22083 1.4244,-0.68385 1.7678,-1.35927 0.073,-0.1444 0.2714,-0.38686 0.1466,-0.98586 -0.095,-0.46077 -0.388,-0.62203 -0.7456,-0.59648 -0.3577,0.0242 -1.4405,0.31296 -1.9642,0.47397 -0.524,0.159 -1.6031,0.48749 -2.0735,0.58944 -0.4692,0.10175 -1.5036,-0.0472 -1.6683,-0.20484"
             style="fill:#d33682;fill-opacity:1;fill-rule:nonzero;stroke:none"
             id="path22"
             inkscape:connector-curvature="0" />
          <path
             d="m 1762.5637,331.45413 c -0.2071,-0.0753 -4.4923,-1.85038 -5.0997,-2.14119 -0.4971,-0.23904 -1.7158,-0.75434 -2.2893,-0.98834 1.6152,-2.49042 2.6349,-4.36978 2.7706,-4.65603 0.2511,-0.52375 1.9607,-3.86911 2.0006,-4.07507 0.039,-0.20873 0.087,-0.97971 0.05,-1.16286 -0.038,-0.18682 -0.6645,0.17221 -1.5155,0.46077 -0.8524,0.2874 -2.4724,1.34099 -3.0981,1.47304 -0.628,0.13099 -2.6348,0.89122 -3.6617,1.23201 -1.0269,0.34078 -2.9695,0.9336 -3.7685,1.14936 -0.8002,0.21583 -1.4986,0.23294 -1.9462,0.36862 0,0 0.06,0.6269 0.1784,0.81483 0.1174,0.18799 0.5408,0.64869 1.033,0.77734 0.4923,0.12964 1.3071,0.0776 1.6782,-0.007 0.3709,-0.0863 1.0135,-0.40007 1.0997,-0.53723 0.087,-0.13937 -0.045,-0.56869 0.1017,-0.6984 0.1481,-0.12843 2.1038,-0.58558 2.8422,-0.80865 0.7383,-0.22698 3.5647,-1.20048 3.948,-1.15079 -0.1214,0.40263 -2.3948,4.9058 -3.1271,6.24935 -0.7324,1.34325 -4.987,7.25316 -5.8928,8.29468 -0.6874,0.79176 -2.3535,2.81779 -2.9307,3.27487 0.1456,0.0405 1.1773,-0.0483 1.3652,-0.16472 1.1713,-0.72146 3.1223,-3.15005 3.7505,-3.88976 1.8673,-2.18983 3.5078,-4.48998 4.8087,-6.46397 l 0,0 c 0.2534,0.10557 2.3025,1.77506 2.8372,2.1451 0.5346,0.36968 2.6445,1.54694 3.1017,1.74218 0.4571,0.1978 2.2139,1.0078 2.2878,0.73361 0.074,-0.27646 -0.3177,-1.89277 -0.5251,-1.9715"
             style="fill:#d33682;fill-opacity:1;fill-rule:nonzero;stroke:none"
             id="path24"
             inkscape:connector-curvature="0" />
          <path
             d="m 1752.6617,353.7701 c 0.4106,0.2509 0.7983,0.45615 1.2318,0.66147 0.8668,0.43344 1.8476,0.88959 2.7828,1.2318 1.2774,0.47901 2.5548,0.86672 3.8321,1.16328 0.7072,0.15967 1.4827,0.29655 2.2354,0.41057 0.068,0 2.0986,0.2509 2.5091,0.2509 l 2.053,0 c 0.7983,-0.0682 1.5511,-0.11402 2.3495,-0.22811 0.6387,-0.0912 1.3458,-0.20525 2.0301,-0.36492 0.5018,-0.11402 1.0264,-0.22811 1.5282,-0.38779 0.479,-0.13688 1.0265,-0.31934 1.5511,-0.5018 0.3423,-0.11409 0.7072,-0.27376 1.0721,-0.41057 0.2966,-0.13689 0.6616,-0.29656 1.0037,-0.43344 0.4106,-0.18246 0.8896,-0.43336 1.3458,-0.66148 0.3649,-0.18253 0.7756,-0.41057 1.1633,-0.63868 0.2965,-0.15967 0.9809,-0.68427 1.3458,-0.68427 0.4106,0 0.6843,0.36492 0.6843,0.68427 0,0.66147 -0.8895,0.8668 -1.3002,1.16335 -0.4334,0.29648 -0.958,0.52459 -1.4142,0.7755 -0.9124,0.47901 -1.8476,0.88959 -2.7372,1.23179 -1.1634,0.43336 -2.4407,0.84394 -3.5812,1.1177 -0.4334,0.0912 -0.8668,0.20525 -1.3002,0.27369 -0.2281,0.0454 -2.6004,0.41058 -3.2619,0.41058 l -3.0109,0 c -0.7984,-0.0682 -1.6424,-0.15968 -2.4407,-0.2737 -0.7072,-0.11402 -1.4599,-0.2509 -2.167,-0.41057 -0.5474,-0.11409 -1.1405,-0.27376 -1.6651,-0.43343 -0.9125,-0.25091 -1.8021,-0.57025 -2.6689,-0.91238 -1.5739,-0.59311 -3.2162,-1.36861 -4.7673,-2.39515 -0.2737,-0.18246 -0.2965,-0.36492 -0.2965,-0.57017 0,-0.34213 0.2509,-0.66148 0.6615,-0.66148 0.365,0 1.0949,0.5246 1.2317,0.59304"
             style="fill:#d33682;fill-opacity:1;fill-rule:evenodd;stroke:none"
             id="path26"
             inkscape:connector-curvature="0" />
          <path
             d="m 1767.3287,303.17701 0,38.32117 c -0.023,0.11402 -0.068,0.22811 -0.1596,0.34213 -0.046,0.0682 -0.1369,0.15967 -0.2054,0.18253 -0.5702,0.22804 -26.2545,8.85031 -26.5967,8.85031 -0.2737,0 -0.5246,-0.18246 -0.6615,-0.47902 0,-0.0227 -0.023,-0.0454 -0.023,-0.0912 l 0,-38.34419 c 0.045,-0.11383 0.068,-0.2737 0.1596,-0.36493 0.1825,-0.25067 0.5019,-0.29629 0.7072,-0.36493 0.3878,-0.13684 25.6843,-8.62226 26.0492,-8.62226 0.2282,0 0.73,0.15988 0.73,0.57042 z m -1.3914,37.75092 -24.8632,8.28006 0,-36.67887 24.8632,-8.27992 0,36.67873"
             style="fill:#d33682;fill-opacity:1;fill-rule:evenodd;stroke:none"
             id="path28"
             inkscape:connector-curvature="0" />
          <path
             d="m 1789.4318,295.83198 0,46.14521 c -0.023,0.5246 -0.3876,0.75271 -0.7299,0.75271 -0.2967,0 -2.4407,-0.72992 -2.8056,-0.84394 -2.8742,-0.88959 -5.771,-1.77918 -8.6223,-2.66884 -0.6387,-0.20525 -1.3002,-0.41057 -1.9161,-0.61589 -0.5474,-0.1596 -1.1405,-0.34206 -1.6879,-0.5246 -2.4408,-0.75277 -4.9271,-1.50548 -7.3677,-2.32663 -0.091,-0.0227 -0.3194,-0.34213 -0.3194,-0.41057 l 0,-32.23107 c 0.045,-0.11382 0.091,-0.25066 0.2053,-0.34189 0.1825,-0.2055 8.0064,-2.8056 11.0858,-3.83217 0.8212,-0.29672 11.1086,-3.83216 11.4279,-3.83216 0.4105,0 0.7299,0.29672 0.7299,0.72984 z m -1.3915,45.27841 -20.6888,-6.43251 0,-30.90787 20.6888,-7.0257 0,44.36608"
             style="fill:#d33682;fill-opacity:1;fill-rule:evenodd;stroke:none"
             id="path30"
             inkscape:connector-curvature="0" />
          <path
             d="m 1794.6828,350.77531 -27.6392,-8.80955 0.1157,-38.35084 27.5235,8.76041 0,38.39998"
             style="fill:#d33682;fill-opacity:1;fill-rule:nonzero;stroke:none"
             id="path32"
             inkscape:connector-curvature="0" />
          <path
             d="m 1779.1212,314.56359 3.5609,1.0787 6.4873,23.38094 -3.6576,-1.10968 -1.3142,-4.79994 -7.5586,-2.29113 -1.6255,3.91014 -3.6587,-1.10989 7.7664,-19.05914 z m 1.6279,6.18978 -2.7128,6.55704 4.9875,1.51188 -2.2747,-8.06892"
             style="fill:#eee8d5;fill-opacity:1;fill-rule:evenodd;stroke:none"
             id="path34"
             inkscape:connector-curvature="0" />
        </g>
        <g
           style="font-size:63.45178604px;font-style:normal;font-variant:normal;font-weight:normal;font-stretch:normal;line-height:125%;letter-spacing:0px;word-spacing:0px;fill:#657b83;fill-opacity:1;stroke:none;font-family:Latin Modern Sans;-inkscape-font-specification:Latin Modern Sans"
           id="text3145-9-4-5-8">
          <path
             d="m 1685.4656,355.6803 0,-2.64 -10.68,0.08 -1.96,0 0,-25.2 -3.56,0 0,27.76 16.2,0"
             style="font-size:40px;font-family:LMSans17;-inkscape-font-specification:LMSans17 Bold"
             id="path6622"
             inkscape:connector-curvature="0" />
          <path
             d="m 1702.2562,355.6803 0,-11.56 c 0,-4.08 -2.92,-6.88 -6.6,-6.88 -2.6,0 -4.4,0.64 -6.28,1.72 l 0.24,2.64 c 2.08,-1.48 4.08,-2 6.04,-2 1.88,0 3.48,1.6 3.48,4.56 l 0,1.72 c -6,0.08 -11.08,1.76 -11.08,5.28 0,1.72 1.08,4.96 4.56,4.96 0.56,0 4.32,-0.08 6.64,-1.88 l 0,1.44 3,0 m -3.12,-5.28 c 0,0.76 0,1.76 -1.36,2.52 -1.16,0.72 -2.68,0.76 -3.12,0.76 -1.92,0 -3.72,-0.92 -3.72,-2.6 0,-2.8 6.48,-3.08 8.2,-3.16 l 0,2.48"
             style="font-size:40px;font-family:LMSans17;-inkscape-font-specification:LMSans17 Bold"
             id="path6624"
             inkscape:connector-curvature="0" />
          <path
             d="m 1721.3431,355.6803 0,-11.92 c 0,-2.64 -0.6,-6.28 -5.48,-6.28 -3.6,0 -5.56,2.72 -5.8,3.04 l 0,-2.84 -2.88,0 0,18 3.12,0 0,-9.8 c 0,-2.64 1,-5.96 4.04,-5.96 3.84,0 3.88,2.84 3.88,4.12 l 0,11.64 3.12,0"
             style="font-size:40px;font-family:LMSans17;-inkscape-font-specification:LMSans17 Bold"
             id="path6626"
             inkscape:connector-curvature="0" />
          <path
             d="m 1742.7181,340.0003 -0.44,-2.52 c -2.8,0 -5.12,0.76 -6.32,1.28 -0.84,-0.68 -2.2,-1.28 -3.8,-1.28 -3.44,0 -6.36,2.88 -6.36,6.52 0,1.48 0.52,2.92 1.32,3.96 -1.16,1.64 -1.16,3.2 -1.16,3.4 0,1.04 0.36,2.2 1.04,3.04 -2.08,1.24 -2.56,3.08 -2.56,4.12 0,2.99999 3.96,5.4 8.84,5.4 4.92,0 8.88,-2.36001 8.88,-5.44 0,-5.56 -6.68,-5.56 -8.24,-5.56 l -3.52,0 c -0.52,0 -2.32,0 -2.32,-2.12 0,-0.44 0.16,-1.08 0.44,-1.44 0.84,0.6 2.16,1.16 3.64,1.16 3.6,0 6.4,-2.96001 6.4,-6.52 0,-1.92 -0.88,-3.4 -1.32,-4 l 0.16,0.04 c 0.88,0 2,-0.16 2.96,-0.16 0.72,0 2.36,0.12 2.36,0.12 m -6.96,4 c 0,3.11999 -1.88,4.24 -3.6,4.24 -1.48,0 -3.56,-0.92001 -3.56,-4.24 0,-3.32 2.08,-4.24 3.56,-4.24 1.72,0 3.6,1.12 3.6,4.24 m 3.6,14.56 c 0,1.76 -2.76,3.08 -6.04,3.08 -3.24,0 -6.08,-1.24 -6.08,-3.12 0,-0.12 0,-2.72 3.12,-2.72 l 3.6,0 c 0.88,0 5.4,0 5.4,2.76"
             style="font-size:40px;font-family:LMSans17;-inkscape-font-specification:LMSans17 Bold"
             id="path6628"
             inkscape:connector-curvature="0" />
          <path
             d="m 1759.5462,355.6803 0,-17.76 -3.12,0 0,11.6 c 0,2.99999 -2.24,4.4 -4.8,4.4 -2.84,0 -3.12,-1.04 -3.12,-2.76 l 0,-13.24 -3.12,0 0,13.4 c 0,2.87999 0.92,4.8 4.24,4.8 2.12,0 4.96,-0.64 6.92,-2.36 l 0,1.92 3,0"
             style="font-size:40px;font-family:LMSans17;-inkscape-font-specification:LMSans17 Bold"
             id="path6630"
             inkscape:connector-curvature="0" />
          <path
             d="m 1777.8812,355.6803 0,-11.56 c 0,-4.08 -2.92,-6.88 -6.6,-6.88 -2.6,0 -4.4,0.64 -6.28,1.72 l 0.24,2.64 c 2.08,-1.48 4.08,-2 6.04,-2 1.88,0 3.48,1.6 3.48,4.56 l 0,1.72 c -6,0.08 -11.08,1.76 -11.08,5.28 0,1.72 1.08,4.96 4.56,4.96 0.56,0 4.32,-0.08 6.64,-1.88 l 0,1.44 3,0 m -3.12,-5.28 c 0,0.76 0,1.76 -1.36,2.52 -1.16,0.72 -2.68,0.76 -3.12,0.76 -1.92,0 -3.72,-0.92 -3.72,-2.6 0,-2.8 6.48,-3.08 8.2,-3.16 l 0,2.48"
             style="font-size:40px;font-family:LMSans17;-inkscape-font-specification:LMSans17 Bold"
             id="path6632"
             inkscape:connector-curvature="0" />
          <path
             d="m 1798.9681,340.0003 -0.44,-2.52 c -2.8,0 -5.12,0.76 -6.32,1.28 -0.84,-0.68 -2.2,-1.28 -3.8,-1.28 -3.44,0 -6.36,2.88 -6.36,6.52 0,1.48 0.52,2.92 1.32,3.96 -1.16,1.64 -1.16,3.2 -1.16,3.4 0,1.04 0.36,2.2 1.04,3.04 -2.08,1.24 -2.56,3.08 -2.56,4.12 0,2.99999 3.96,5.4 8.84,5.4 4.92,0 8.88,-2.36001 8.88,-5.44 0,-5.56 -6.68,-5.56 -8.24,-5.56 l -3.52,0 c -0.52,0 -2.32,0 -2.32,-2.12 0,-0.44 0.16,-1.08 0.44,-1.44 0.84,0.6 2.16,1.16 3.64,1.16 3.6,0 6.4,-2.96001 6.4,-6.52 0,-1.92 -0.88,-3.4 -1.32,-4 l 0.16,0.04 c 0.88,0 2,-0.16 2.96,-0.16 0.72,0 2.36,0.12 2.36,0.12 m -6.96,4 c 0,3.11999 -1.88,4.24 -3.6,4.24 -1.48,0 -3.56,-0.92001 -3.56,-4.24 0,-3.32 2.08,-4.24 3.56,-4.24 1.72,0 3.6,1.12 3.6,4.24 m 3.6,14.56 c 0,1.76 -2.76,3.08 -6.04,3.08 -3.24,0 -6.08,-1.24 -6.08,-3.12 0,-0.12 0,-2.72 3.12,-2.72 l 3.6,0 c 0.88,0 5.4,0 5.4,2.76"
             style="font-size:40px;font-family:LMSans17;-inkscape-font-specification:LMSans17 Bold"
             id="path6634"
             inkscape:connector-curvature="0" />
          <path
             d="m 1814.9562,346.9203 c 0,-1.36 -0.04,-4.36 -1.6,-6.76 -1.64,-2.48 -4.08,-2.92 -5.52,-2.92 -4.44,0 -8.04,4.24 -8.04,9.4 0,5.27999 3.84,9.48 8.64,9.48 2.52,0 4.8,-0.96 6.36,-2.08 l -0.24,-2.6 c -2.52,2.08 -5.16,2.24 -6.08,2.24 -3.2,0 -5.76,-2.84001 -5.88,-6.76 l 12.36,0 m -2.28,-2.2 -9.88,0 c 0.64,-3.04 2.76,-5.04 5.04,-5.04 2.08,0 4.32,1.36 4.84,5.04"
             style="font-size:40px;font-family:LMSans17;-inkscape-font-specification:LMSans17 Bold"
             id="path6636"
             inkscape:connector-curvature="0" />
          <path
             d="m 1842.015,350.5603 c 0,-2.2 -1.48,-3.56 -1.56,-3.68 -1.56,-1.4 -2.64,-1.64 -4.64,-2 -2.2,-0.44 -4.04,-0.84 -4.04,-2.8 0,-2.48 2.88,-2.48 3.4,-2.48 1.28,0 3.4,0.16 5.68,1.52 l 0.48,-2.6 c -2.08,-0.96 -3.72,-1.28 -5.76,-1.28 -1,0 -6.64,0 -6.64,5.24 0,1.96 1.16,3.24 2.16,4 1.24,0.88 2.12,1.04 4.32,1.48 1.44,0.28 3.76,0.76 3.76,2.88 0,2.76 -3.16,2.76 -3.76,2.76 -3.24,0 -5.48,-1.48 -6.2,-1.96 l -0.48,2.72 c 1.28,0.64 3.48,1.76 6.72,1.76 0.72,0 2.92,0 4.64,-1.28 1.24,-0.96 1.92,-2.56 1.92,-4.28"
             style="font-size:40px;font-family:LMSans17;-inkscape-font-specification:LMSans17 Bold"
             id="path6638"
             inkscape:connector-curvature="0" />
          <path
             d="m 1858.55,346.9203 c 0,-1.36 -0.04,-4.36 -1.6,-6.76 -1.64,-2.48 -4.08,-2.92 -5.52,-2.92 -4.44,0 -8.04,4.24 -8.04,9.4 0,5.27999 3.84,9.48 8.64,9.48 2.52,0 4.8,-0.96 6.36,-2.08 l -0.24,-2.6 c -2.52,2.08 -5.16,2.24 -6.08,2.24 -3.2,0 -5.76,-2.84001 -5.88,-6.76 l 12.36,0 m -2.28,-2.2 -9.88,0 c 0.64,-3.04 2.76,-5.04 5.04,-5.04 2.08,0 4.32,1.36 4.84,5.04"
             style="font-size:40px;font-family:LMSans17;-inkscape-font-specification:LMSans17 Bold"
             id="path6640"
             inkscape:connector-curvature="0" />
          <path
             d="m 1864.9487,355.6803 0,-27.76 -3,0 0,27.76 3,0"
             style="font-size:40px;font-family:LMSans17;-inkscape-font-specification:LMSans17 Bold"
             id="path6642"
             inkscape:connector-curvature="0" />
          <path
             d="m 1884.175,346.9203 c 0,-1.36 -0.04,-4.36 -1.6,-6.76 -1.64,-2.48 -4.08,-2.92 -5.52,-2.92 -4.44,0 -8.04,4.24 -8.04,9.4 0,5.27999 3.84,9.48 8.64,9.48 2.52,0 4.8,-0.96 6.36,-2.08 l -0.24,-2.6 c -2.52,2.08 -5.16,2.24 -6.08,2.24 -3.2,0 -5.76,-2.84001 -5.88,-6.76 l 12.36,0 m -2.28,-2.2 -9.88,0 c 0.64,-3.04 2.76,-5.04 5.04,-5.04 2.08,0 4.32,1.36 4.84,5.04"
             style="font-size:40px;font-family:LMSans17;-inkscape-font-specification:LMSans17 Bold"
             id="path6644"
             inkscape:connector-curvature="0" />
          <path
             d="m 1900.9337,354.0803 -0.24,-2.68 c -2.04,1.6 -4.2,2.16 -6.24,2.16 -3.32,0 -5.56,-2.88001 -5.56,-6.8 0,-3.12 1.48,-6.96 5.72,-6.96 2.08,0 3.44,0.32 5.64,1.76 l 0.48,-2.6 c -2.36,-1.36 -3.72,-1.72 -6.16,-1.72 -5.56,0 -8.8,4.84 -8.8,9.56 0,4.95999 3.64,9.32 8.64,9.32 2.16,0 4.36,-0.56 6.52,-2.04"
             style="font-size:40px;font-family:LMSans17;-inkscape-font-specification:LMSans17 Bold"
             id="path6646"
             inkscape:connector-curvature="0" />
          <path
             d="m 1914.3325,354.6003 -0.64,-2.36 c -1.04,0.84 -2.32,1.32 -3.6,1.32 -1.48,0 -2.04,-1.2 -2.04,-3.32 l 0,-10 5.64,0 0,-2.32 -5.64,0 0,-5.08 -2.76,0 0,5.08 -3.48,0 0,2.32 3.36,0 0,10.68 c 0,2.4 0.56,5.2 3.32,5.2 2.8,0 4.84,-1 5.84,-1.52"
             style="font-size:40px;font-family:LMSans17;-inkscape-font-specification:LMSans17 Bold"
             id="path6648"
             inkscape:connector-curvature="0" />
          <path
             d="m 1920.8862,355.6803 0,-17.76 -3,0 0,17.76 3,0 m 0.32,-22.64 0,-3.56 -3.56,0 0,3.56 3.56,0"
             style="font-size:40px;font-family:LMSans17;-inkscape-font-specification:LMSans17 Bold"
             id="path6650"
             inkscape:connector-curvature="0" />
          <path
             d="m 1942.3125,346.8803 c 0,-5.36 -4,-9.64 -8.76,-9.64 -4.92,0 -8.8,4.4 -8.8,9.64 0,5.27999 4.08,9.24 8.76,9.24 4.8,0 8.8,-4.04001 8.8,-9.24 m -3.12,-0.4 c 0,4.71999 -2.72,7.08 -5.68,7.08 -2.76,0 -5.64,-2.24001 -5.64,-7.08 0,-4.84 3.04,-6.8 5.64,-6.8 2.8,0 5.68,2.08 5.68,6.8"
             style="font-size:40px;font-family:LMSans17;-inkscape-font-specification:LMSans17 Bold"
             id="path6652"
             inkscape:connector-curvature="0" />
          <path
             d="m 1959.7806,355.6803 0,-11.92 c 0,-2.64 -0.6,-6.28 -5.48,-6.28 -3.6,0 -5.56,2.72 -5.8,3.04 l 0,-2.84 -2.88,0 0,18 3.12,0 0,-9.8 c 0,-2.64 1,-5.96 4.04,-5.96 3.84,0 3.88,2.84 3.88,4.12 l 0,11.64 3.12,0"
             style="font-size:40px;font-family:LMSans17;-inkscape-font-specification:LMSans17 Bold"
             id="path6654"
             inkscape:connector-curvature="0" />
        </g>
        <path
           inkscape:connector-curvature="0"
           id="path3033"
           style="font-size:40px;font-style:normal;font-variant:normal;font-weight:normal;font-stretch:normal;line-height:125%;letter-spacing:0px;word-spacing:0px;fill:#d33682;fill-opacity:1;stroke:none;font-family:FontAwesome;-inkscape-font-specification:FontAwesome"
           d="m 1628.3601,442.59674 c 0,0.52177 -0.4604,0.98215 -0.9822,0.98215 l -45.1785,0 c -0.5218,0 -0.9822,-0.46038 -0.9822,-0.98215 l 0,-23.57142 c 0.6445,0.7366 1.3505,1.41183 2.1178,2.02566 4.3889,3.37612 8.8086,6.81362 13.0747,10.37389 2.3019,1.93359 5.1563,4.29687 8.3482,4.29687 l 0.031,0 0.031,0 c 3.192,0 6.0463,-2.36328 8.3482,-4.29687 4.2662,-3.56027 8.6859,-6.99777 13.0748,-10.37389 0.7673,-0.61383 1.4732,-1.28906 2.1178,-2.02566 l 0,23.57142 m 0,-32.25725 c 0,2.60881 -2.5168,6.01563 -4.5118,7.58091 -4.1127,3.22266 -8.2254,6.47601 -12.3074,9.72936 -1.6267,1.31975 -4.5731,4.14341 -6.7216,4.14341 l -0.031,0 -0.031,0 c -2.1484,0 -5.0948,-2.82366 -6.7215,-4.14341 -4.082,-3.25335 -8.1948,-6.5067 -12.3075,-9.72936 -2.7622,-2.17912 -4.5117,-5.21763 -4.5117,-8.71651 0,-0.52177 0.4604,-0.98215 0.9822,-0.98215 l 45.1785,0 c 1.1663,0 0.9822,1.35045 0.9822,2.11775 m 3.9285,-1.1356 c 0,-2.70089 -2.2098,-4.91072 -4.9107,-4.91072 l -45.1785,0 c -2.7009,0 -4.9108,2.20983 -4.9108,4.91072 l 0,33.39285 c 0,2.70089 2.2099,4.91072 4.9108,4.91072 l 45.1785,0 c 2.7009,0 4.9107,-2.20983 4.9107,-4.91072 l 0,-33.39285" />
        <g
           style="font-size:63.45178604px;font-style:normal;font-variant:normal;font-weight:normal;font-stretch:normal;line-height:125%;letter-spacing:0px;word-spacing:0px;fill:#657b83;fill-opacity:1;stroke:none;font-family:Latin Modern Sans;-inkscape-font-specification:Latin Modern Sans"
           id="text3145-9-4-5-8-9">
          <path
             d="m 1692.0257,422.04033 c 0,-7.75999 -5.4,-14.12 -12.28,-14.12 l -10.48,0 0,27.76 10.52,0 c 6.8,0 12.24,-6.08001 12.24,-13.64 m -3.44,0 c 0,6.79999 -4.16,11.4 -9.76,11.4 l -6.12,0 0,-23.28 6.12,0 c 5.6,0 9.76,4.84001 9.76,11.88"
             style="font-size:40px;font-family:LMSans17;-inkscape-font-specification:LMSans17 Bold"
             id="path6605"
             inkscape:connector-curvature="0" />
          <path
             d="m 1709.095,426.92033 c 0,-1.36 -0.04,-4.36 -1.6,-6.76 -1.64,-2.48 -4.08,-2.92 -5.52,-2.92 -4.44,0 -8.04,4.24 -8.04,9.4 0,5.27999 3.84,9.48 8.64,9.48 2.52,0 4.8,-0.96 6.36,-2.08 l -0.24,-2.6 c -2.52,2.08 -5.16,2.24 -6.08,2.24 -3.2,0 -5.76,-2.84001 -5.88,-6.76 l 12.36,0 m -2.28,-2.2 -9.88,0 c 0.64,-3.04 2.76,-5.04 5.04,-5.04 2.08,0 4.32,1.36 4.84,5.04"
             style="font-size:40px;font-family:LMSans17;-inkscape-font-specification:LMSans17 Bold"
             id="path6607"
             inkscape:connector-curvature="0" />
          <path
             d="m 1715.4938,435.68033 0,-27.76 -3,0 0,27.76 3,0"
             style="font-size:40px;font-family:LMSans17;-inkscape-font-specification:LMSans17 Bold"
             id="path6609"
             inkscape:connector-curvature="0" />
          <path
             d="m 1724.4,435.68033 0,-17.76 -3,0 0,17.76 3,0 m 0.32,-22.64 0,-3.56 -3.56,0 0,3.56 3.56,0"
             style="font-size:40px;font-family:LMSans17;-inkscape-font-specification:LMSans17 Bold"
             id="path6611"
             inkscape:connector-curvature="0" />
          <path
             d="m 1744.9063,417.92033 -3,0 -3.16,8.32 c -0.84,2.2 -2.08,5.44 -2.4,7.32 l -0.04,0 c -0.24,-1.44 -1.28,-4.2 -1.68,-5.28 l -3.88,-10.36 -3.12,0 6.88,17.76 3.52,0 6.88,-17.76"
             style="font-size:40px;font-family:LMSans17;-inkscape-font-specification:LMSans17 Bold"
             id="path6613"
             inkscape:connector-curvature="0" />
          <path
             d="m 1760.8919,426.92033 c 0,-1.36 -0.04,-4.36 -1.6,-6.76 -1.64,-2.48 -4.08,-2.92 -5.52,-2.92 -4.44,0 -8.04,4.24 -8.04,9.4 0,5.27999 3.84,9.48 8.64,9.48 2.52,0 4.8,-0.96 6.36,-2.08 l -0.24,-2.6 c -2.52,2.08 -5.16,2.24 -6.08,2.24 -3.2,0 -5.76,-2.84001 -5.88,-6.76 l 12.36,0 m -2.28,-2.2 -9.88,0 c 0.64,-3.04 2.76,-5.04 5.04,-5.04 2.08,0 4.32,1.36 4.84,5.04"
             style="font-size:40px;font-family:LMSans17;-inkscape-font-specification:LMSans17 Bold"
             id="path6615"
             inkscape:connector-curvature="0" />
          <path
             d="m 1774.1307,420.16033 0,-2.68 c -3.56,0.04 -5.76,2 -7,3.84 l 0,-3.64 -2.8,0 0,18 3,0 0,-8.56 c 0,-4 2.88,-6.88 6.8,-6.96"
             style="font-size:40px;font-family:LMSans17;-inkscape-font-specification:LMSans17 Bold"
             id="path6617"
             inkscape:connector-curvature="0" />
          <path
             d="m 1791.7032,417.92033 -3,0 c -5.2,12.71999 -5.28,14.56 -5.32,15.48 l -0.04,0 c -0.24,-2.68 -3.44,-10.12 -3.6,-10.48 l -2.16,-5 -3.16,0 7.76,17.76 -1.44,3.6 c -1.04,2.32 -1.72,2.32 -2.28,2.32 -0.64,0 -1.92,-0.16 -3.12,-0.64 l 0.24,2.6 c 0.88,0.2 2,0.32 2.88,0.32 1.4,0 2.88,-0.48001 4.52,-4.56 l 8.72,-21.4"
             style="font-size:40px;font-family:LMSans17;-inkscape-font-specification:LMSans17 Bold"
             id="path6619"
             inkscape:connector-curvature="0" />
        </g>
        <g
           id="g49775"
           transform="translate(0,1.9951172e-5)">
          <path
             sodipodi:nodetypes="cccccc"
             inkscape:connector-curvature="0"
             id="rect5865"
             d="m 1577.1501,661.56495 25.7935,0 14.1865,14.18644 0,32.67181 -39.98,0 z"
             style="fill:#eee8d5;fill-opacity:1;stroke:none" />
          <path
             d="m 1609.9607,694.47676 c 0,-0.60478 -0.4704,-1.07517 -1.0751,-1.07517 l -23.654,0 c -0.6047,0 -1.0751,0.47039 -1.0751,1.07517 l 0,2.15036 c 0,0.60478 0.4704,1.07517 1.0751,1.07517 l 23.654,0 c 0.6047,0 1.0751,-0.47039 1.0751,-1.07517 l 0,-2.15036 m 0,-8.60142 c 0,-0.60479 -0.4704,-1.07518 -1.0751,-1.07518 l -23.654,0 c -0.6047,0 -1.0751,0.47039 -1.0751,1.07518 l 0,2.15036 c 0,0.60479 0.4704,1.07518 1.0751,1.07518 l 23.654,0 c 0.6047,0 1.0751,-0.47039 1.0751,-1.07518 l 0,-2.15036 m -30.1049,20.42838 0,-43.00711 17.2028,0 0,13.9773 c 0,1.78077 1.4448,3.22554 3.2255,3.22554 l 13.9773,0 0,25.80427 -34.4056,0 m 21.5035,-30.10497 0,-12.63335 c 0.5712,0.2016 1.1424,0.50399 1.3776,0.73919 l 10.5166,10.51658 c 0.2352,0.2352 0.5376,0.80638 0.7391,1.37758 l -12.6333,0 m 17.2029,1.07516 c 0,-1.78075 -1.0416,-4.2671 -2.2848,-5.51027 l -10.483,-10.48299 c -1.2432,-1.24317 -3.7295,-2.28475 -5.5103,-2.28475 l -21.5035,0 c -1.7808,0 -3.2256,1.44477 -3.2256,3.22553 l 0,45.15746 c 0,1.78077 1.4448,3.22554 3.2256,3.22554 l 36.556,0 c 1.7808,0 3.2256,-1.44477 3.2256,-3.22554 l 0,-30.10498"
             style="font-size:40px;font-style:normal;font-variant:normal;font-weight:normal;font-stretch:normal;line-height:125%;letter-spacing:0px;word-spacing:0px;fill:#d33682;fill-opacity:1;stroke:none;font-family:FontAwesome;-inkscape-font-specification:FontAwesome"
             id="path3132-6-64"
             inkscape:connector-curvature="0" />
          <path
             sodipodi:nodetypes="cccccc"
             inkscape:connector-curvature="0"
             id="rect5865-1"
             d="m 1592.1501,679.56495 25.7935,0 14.1865,14.18644 0,32.67181 -39.98,0 z"
             style="fill:#eee8d5;fill-opacity:1;stroke:none" />
          <path
             d="m 1624.9607,712.47676 c 0,-0.60478 -0.4704,-1.07517 -1.0751,-1.07517 l -23.654,0 c -0.6047,0 -1.0751,0.47039 -1.0751,1.07517 l 0,2.15036 c 0,0.60478 0.4704,1.07517 1.0751,1.07517 l 23.654,0 c 0.6047,0 1.0751,-0.47039 1.0751,-1.07517 l 0,-2.15036 m 0,-8.60142 c 0,-0.60479 -0.4704,-1.07518 -1.0751,-1.07518 l -23.654,0 c -0.6047,0 -1.0751,0.47039 -1.0751,1.07518 l 0,2.15036 c 0,0.60479 0.4704,1.07518 1.0751,1.07518 l 23.654,0 c 0.6047,0 1.0751,-0.47039 1.0751,-1.07518 l 0,-2.15036 m -30.1049,20.42838 0,-43.00711 17.2028,0 0,13.9773 c 0,1.78077 1.4448,3.22554 3.2255,3.22554 l 13.9773,0 0,25.80427 -34.4056,0 m 21.5035,-30.10497 0,-12.63335 c 0.5712,0.2016 1.1424,0.50399 1.3776,0.73919 l 10.5166,10.51658 c 0.2352,0.2352 0.5376,0.80638 0.7391,1.37758 l -12.6333,0 m 17.2029,1.07516 c 0,-1.78075 -1.0416,-4.2671 -2.2848,-5.51027 l -10.483,-10.48299 c -1.2432,-1.24317 -3.7295,-2.28475 -5.5103,-2.28475 l -21.5035,0 c -1.7808,0 -3.2256,1.44477 -3.2256,3.22553 l 0,45.15746 c 0,1.78077 1.4448,3.22554 3.2256,3.22554 l 36.556,0 c 1.7808,0 3.2256,-1.44477 3.2256,-3.22554 l 0,-30.10498"
             style="font-size:40px;font-style:normal;font-variant:normal;font-weight:normal;font-stretch:normal;line-height:125%;letter-spacing:0px;word-spacing:0px;fill:#d33682;fill-opacity:1;stroke:none;font-family:FontAwesome;-inkscape-font-specification:FontAwesome"
             id="path3132-6-64-4"
             inkscape:connector-curvature="0" />
          <path
             sodipodi:nodetypes="cccccc"
             inkscape:connector-curvature="0"
             id="rect5865-2"
             d="m 1607.1501,697.56495 25.7935,0 14.1865,14.18644 0,32.67181 -39.98,0 z"
             style="fill:#eee8d5;fill-opacity:1;stroke:none" />
          <path
             d="m 1639.9607,730.47676 c 0,-0.60478 -0.4704,-1.07517 -1.0751,-1.07517 l -23.654,0 c -0.6047,0 -1.0751,0.47039 -1.0751,1.07517 l 0,2.15036 c 0,0.60478 0.4704,1.07517 1.0751,1.07517 l 23.654,0 c 0.6047,0 1.0751,-0.47039 1.0751,-1.07517 l 0,-2.15036 m 0,-8.60142 c 0,-0.60479 -0.4704,-1.07518 -1.0751,-1.07518 l -23.654,0 c -0.6047,0 -1.0751,0.47039 -1.0751,1.07518 l 0,2.15036 c 0,0.60479 0.4704,1.07518 1.0751,1.07518 l 23.654,0 c 0.6047,0 1.0751,-0.47039 1.0751,-1.07518 l 0,-2.15036 m -30.1049,20.42838 0,-43.00711 17.2028,0 0,13.9773 c 0,1.78077 1.4448,3.22554 3.2255,3.22554 l 13.9773,0 0,25.80427 -34.4056,0 m 21.5035,-30.10497 0,-12.63335 c 0.5712,0.2016 1.1424,0.50399 1.3776,0.73919 l 10.5166,10.51658 c 0.2352,0.2352 0.5376,0.80638 0.7391,1.37758 l -12.6333,0 m 17.2029,1.07516 c 0,-1.78075 -1.0416,-4.2671 -2.2848,-5.51027 l -10.483,-10.48299 c -1.2432,-1.24317 -3.7295,-2.28475 -5.5103,-2.28475 l -21.5035,0 c -1.7808,0 -3.2256,1.44477 -3.2256,3.22553 l 0,45.15746 c 0,1.78077 1.4448,3.22554 3.2256,3.22554 l 36.556,0 c 1.7808,0 3.2256,-1.44477 3.2256,-3.22554 l 0,-30.10498"
             style="font-size:40px;font-style:normal;font-variant:normal;font-weight:normal;font-stretch:normal;line-height:125%;letter-spacing:0px;word-spacing:0px;fill:#d33682;fill-opacity:1;stroke:none;font-family:FontAwesome;-inkscape-font-specification:FontAwesome"
             id="path3132-6-64-7"
             inkscape:connector-curvature="0" />
        </g>
        <g
           id="g40476"
           transform="translate(-4.0639171e-5,1.9951172e-5)">
          <g
             style="font-size:63.45178604px;font-style:normal;font-variant:normal;font-weight:normal;font-stretch:normal;line-height:125%;letter-spacing:0px;word-spacing:0px;fill:#657b83;fill-opacity:1;stroke:none;font-family:Latin Modern Sans;-inkscape-font-specification:Latin Modern Sans"
             id="text3145-25-4-7">
            <path
               d="m 1698.6584,692.58899 0,-27.76 -4.56,0 -5.2,13.56 c -1.4,3.64 -3.28,8.6 -3.72,10.48 l -0.04,0 c -0.2,-0.84 -0.68,-2.32 -1.28,-4 l -6.28,-16.56 -1.36,-3.48 -4.52,0 0,27.76 3.12,0 0,-24.8 0.04,0 c 0.24,1.28 1.84,5.64 2.88,8.36 l 5.92,15.56 2.92,0 5.32,-13.92 1.92,-5.08 c 0.4,-1.16 1.48,-4.04 1.68,-4.96 l 0.04,0.04 0,24.8 3.12,0"
               style="font-size:40px;fill:#657b83;font-family:LMSans17;-inkscape-font-specification:LMSans17 Bold"
               id="path6559"
               inkscape:connector-curvature="0" />
            <path
               d="m 1717.9109,692.58899 0,-17.76 -3.12,0 0,11.6 c 0,3 -2.24,4.4 -4.8,4.4 -2.84,0 -3.12,-1.04 -3.12,-2.76 l 0,-13.24 -3.12,0 0,13.4 c 0,2.88 0.92,4.8 4.24,4.8 2.12,0 4.96,-0.64 6.92,-2.36 l 0,1.92 3,0"
               style="font-size:40px;fill:#657b83;font-family:LMSans17;-inkscape-font-specification:LMSans17 Bold"
               id="path6561"
               inkscape:connector-curvature="0" />
            <path
               d="m 1726.1259,692.58899 0,-27.76 -3,0 0,27.76 3,0"
               style="font-size:40px;fill:#657b83;font-family:LMSans17;-inkscape-font-specification:LMSans17 Bold"
               id="path6563"
               inkscape:connector-curvature="0" />
            <path
               d="m 1742.0721,691.50899 -0.64,-2.36 c -1.04,0.84 -2.32,1.32 -3.6,1.32 -1.48,0 -2.04,-1.2 -2.04,-3.32 l 0,-10 5.64,0 0,-2.32 -5.64,0 0,-5.08 -2.76,0 0,5.08 -3.48,0 0,2.32 3.36,0 0,10.68 c 0,2.4 0.56,5.2 3.32,5.2 2.8,0 4.84,-1 5.84,-1.52"
               style="font-size:40px;fill:#657b83;font-family:LMSans17;-inkscape-font-specification:LMSans17 Bold"
               id="path6565"
               inkscape:connector-curvature="0" />
            <path
               d="m 1748.6259,692.58899 0,-17.76 -3,0 0,17.76 3,0 m 0.32,-22.64 0,-3.56 -3.56,0 0,3.56 3.56,0"
               style="font-size:40px;fill:#657b83;font-family:LMSans17;-inkscape-font-specification:LMSans17 Bold"
               id="path6567"
               inkscape:connector-curvature="0" />
            <path
               d="m 1757.5321,692.58899 0,-27.76 -3,0 0,27.76 3,0"
               style="font-size:40px;fill:#657b83;font-family:LMSans17;-inkscape-font-specification:LMSans17 Bold"
               id="path6569"
               inkscape:connector-curvature="0" />
            <path
               d="m 1766.4384,692.58899 0,-17.76 -3,0 0,17.76 3,0 m 0.32,-22.64 0,-3.56 -3.56,0 0,3.56 3.56,0"
               style="font-size:40px;fill:#657b83;font-family:LMSans17;-inkscape-font-specification:LMSans17 Bold"
               id="path6571"
               inkscape:connector-curvature="0" />
            <path
               d="m 1786.5046,692.58899 0,-11.92 c 0,-2.64 -0.6,-6.28 -5.48,-6.28 -3.6,0 -5.56,2.72 -5.8,3.04 l 0,-2.84 -2.88,0 0,18 3.12,0 0,-9.8 c 0,-2.64 1,-5.96 4.04,-5.96 3.84,0 3.88,2.84 3.88,4.12 l 0,11.64 3.12,0"
               style="font-size:40px;fill:#657b83;font-family:LMSans17;-inkscape-font-specification:LMSans17 Bold"
               id="path6573"
               inkscape:connector-curvature="0" />
            <path
               d="m 1807.8796,676.90899 -0.44,-2.52 c -2.8,0 -5.12,0.76 -6.32,1.28 -0.84,-0.68 -2.2,-1.28 -3.8,-1.28 -3.44,0 -6.36,2.88 -6.36,6.52 0,1.48 0.52,2.92 1.32,3.96 -1.16,1.64 -1.16,3.2 -1.16,3.4 0,1.04 0.36,2.2 1.04,3.04 -2.08,1.24 -2.56,3.08 -2.56,4.12 0,3 3.96,5.4 8.84,5.4 4.92,0 8.88,-2.36 8.88,-5.44 0,-5.56 -6.68,-5.56 -8.24,-5.56 l -3.52,0 c -0.52,0 -2.32,0 -2.32,-2.12 0,-0.44 0.16,-1.08 0.44,-1.44 0.84,0.6 2.16,1.16 3.64,1.16 3.6,0 6.4,-2.96 6.4,-6.52 0,-1.92 -0.88,-3.4 -1.32,-4 l 0.16,0.04 c 0.88,0 2,-0.16 2.96,-0.16 0.72,0 2.36,0.12 2.36,0.12 m -6.96,4 c 0,3.12 -1.88,4.24 -3.6,4.24 -1.48,0 -3.56,-0.92 -3.56,-4.24 0,-3.32 2.08,-4.24 3.56,-4.24 1.72,0 3.6,1.12 3.6,4.24 m 3.6,14.56 c 0,1.76 -2.76,3.08 -6.04,3.08 -3.24,0 -6.08,-1.24 -6.08,-3.12 0,-0.12 0,-2.72 3.12,-2.72 l 3.6,0 c 0.88,0 5.4,0 5.4,2.76"
               style="font-size:40px;fill:#657b83;font-family:LMSans17;-inkscape-font-specification:LMSans17 Bold"
               id="path6575"
               inkscape:connector-curvature="0" />
            <path
               d="m 1824.7077,692.58899 0,-17.76 -3.12,0 0,11.6 c 0,3 -2.24,4.4 -4.8,4.4 -2.84,0 -3.12,-1.04 -3.12,-2.76 l 0,-13.24 -3.12,0 0,13.4 c 0,2.88 0.92,4.8 4.24,4.8 2.12,0 4.96,-0.64 6.92,-2.36 l 0,1.92 3,0"
               style="font-size:40px;fill:#657b83;font-family:LMSans17;-inkscape-font-specification:LMSans17 Bold"
               id="path6577"
               inkscape:connector-curvature="0" />
            <path
               d="m 1843.0427,692.58899 0,-11.56 c 0,-4.08 -2.92,-6.88 -6.6,-6.88 -2.6,0 -4.4,0.64 -6.28,1.72 l 0.24,2.64 c 2.08,-1.48 4.08,-2 6.04,-2 1.88,0 3.48,1.6 3.48,4.56 l 0,1.72 c -6,0.08 -11.08,1.76 -11.08,5.28 0,1.72 1.08,4.96 4.56,4.96 0.56,0 4.32,-0.08 6.64,-1.88 l 0,1.44 3,0 m -3.12,-5.28 c 0,0.76 0,1.76 -1.36,2.52 -1.16,0.72 -2.68,0.76 -3.12,0.76 -1.92,0 -3.72,-0.92 -3.72,-2.6 0,-2.8 6.48,-3.08 8.2,-3.16 l 0,2.48"
               style="font-size:40px;fill:#657b83;font-family:LMSans17;-inkscape-font-specification:LMSans17 Bold"
               id="path6579"
               inkscape:connector-curvature="0" />
            <path
               d="m 1850.9696,692.58899 0,-27.76 -3,0 0,27.76 3,0"
               style="font-size:40px;fill:#657b83;font-family:LMSans17;-inkscape-font-specification:LMSans17 Bold"
               id="path6581"
               inkscape:connector-curvature="0" />
          </g>
          <g
             style="font-size:63.45178604px;font-style:normal;font-variant:normal;font-weight:normal;font-stretch:normal;line-height:125%;letter-spacing:0px;word-spacing:0px;fill:#657b83;fill-opacity:1;stroke:none;font-family:Latin Modern Sans;-inkscape-font-specification:Latin Modern Sans"
             id="text3145-25-4-72">
            <path
               d="m 1685.0984,737.58899 0,-11.92 c 0,-2.64 -0.6,-6.28 -5.48,-6.28 -3.6,0 -5.56,2.72 -5.8,3.04 l 0,-2.84 -2.88,0 0,18 3.12,0 0,-9.8 c 0,-2.64 1,-5.96 4.04,-5.96 3.84,0 3.88,2.84 3.88,4.12 l 0,11.64 3.12,0"
               style="font-size:40px;fill:#657b83;font-family:LMSans17;-inkscape-font-specification:LMSans17 Bold"
               id="path6584"
               inkscape:connector-curvature="0" />
            <path
               d="m 1703.6334,728.82899 c 0,-1.36 -0.04,-4.36 -1.6,-6.76 -1.64,-2.48 -4.08,-2.92 -5.52,-2.92 -4.44,0 -8.04,4.24 -8.04,9.4 0,5.27999 3.84,9.48 8.64,9.48 2.52,0 4.8,-0.96 6.36,-2.08 l -0.24,-2.6 c -2.52,2.08 -5.16,2.24 -6.08,2.24 -3.2,0 -5.76,-2.84 -5.88,-6.76 l 12.36,0 m -2.28,-2.2 -9.88,0 c 0.64,-3.04 2.76,-5.04 5.04,-5.04 2.08,0 4.32,1.36 4.84,5.04"
               style="font-size:40px;fill:#657b83;font-family:LMSans17;-inkscape-font-specification:LMSans17 Bold"
               id="path6586"
               inkscape:connector-curvature="0" />
            <path
               d="m 1730.5121,719.82899 -2.92,0 -2.56,8.48 c -0.44,1.44 -1.64,5.4 -1.84,7.12 l -0.04,0 c -0.16,-1.24 -1.16,-4.8 -1.84,-7.08 l -2.6,-8.52 -2.8,0 -2.28,7.52 c -0.44,1.4 -1.8,6 -1.96,8.04 l -0.04,0 c -0.2,-1.92 -1.52,-6.44 -2.16,-8.64 l -2.08,-6.92 -3.04,0 5.48,17.76 3.16,0 2.48,-8.24 c 0.56,-1.84 1.68,-5.8 1.8,-7.28 l 0.04,0 c 0.08,1.12 0.76,3.88 1.28,5.6 l 2.92,9.92 3.52,0 5.48,-17.76"
               style="font-size:40px;fill:#657b83;font-family:LMSans17;-inkscape-font-specification:LMSans17 Bold"
               id="path6588"
               inkscape:connector-curvature="0" />
            <path
               d="m 1743.8171,732.46899 c 0,-2.2 -1.48,-3.56 -1.56,-3.68 -1.56,-1.4 -2.64,-1.64 -4.64,-2 -2.2,-0.44 -4.04,-0.84 -4.04,-2.8 0,-2.48 2.88,-2.48 3.4,-2.48 1.28,0 3.4,0.16 5.68,1.52 l 0.48,-2.6 c -2.08,-0.96 -3.72,-1.28 -5.76,-1.28 -1,0 -6.64,0 -6.64,5.24 0,1.96 1.16,3.24 2.16,4 1.24,0.88 2.12,1.04 4.32,1.48 1.44,0.28 3.76,0.76 3.76,2.88 0,2.76 -3.16,2.76 -3.76,2.76 -3.24,0 -5.48,-1.48 -6.2,-1.96 l -0.48,2.72 c 1.28,0.64 3.48,1.76 6.72,1.76 0.72,0 2.92,0 4.64,-1.28 1.24,-0.96 1.92,-2.56 1.92,-4.28"
               style="font-size:40px;fill:#657b83;font-family:LMSans17;-inkscape-font-specification:LMSans17 Bold"
               id="path6590"
               inkscape:connector-curvature="0" />
            <path
               d="m 1750.0321,737.58899 0,-27.76 -3,0 0,27.76 3,0"
               style="font-size:40px;fill:#657b83;font-family:LMSans17;-inkscape-font-specification:LMSans17 Bold"
               id="path6592"
               inkscape:connector-curvature="0" />
            <path
               d="m 1769.2584,728.82899 c 0,-1.36 -0.04,-4.36 -1.6,-6.76 -1.64,-2.48 -4.08,-2.92 -5.52,-2.92 -4.44,0 -8.04,4.24 -8.04,9.4 0,5.27999 3.84,9.48 8.64,9.48 2.52,0 4.8,-0.96 6.36,-2.08 l -0.24,-2.6 c -2.52,2.08 -5.16,2.24 -6.08,2.24 -3.2,0 -5.76,-2.84 -5.88,-6.76 l 12.36,0 m -2.28,-2.2 -9.88,0 c 0.64,-3.04 2.76,-5.04 5.04,-5.04 2.08,0 4.32,1.36 4.84,5.04"
               style="font-size:40px;fill:#657b83;font-family:LMSans17;-inkscape-font-specification:LMSans17 Bold"
               id="path6594"
               inkscape:connector-curvature="0" />
            <path
               d="m 1782.6971,736.50899 -0.64,-2.36 c -1.04,0.84 -2.32,1.32 -3.6,1.32 -1.48,0 -2.04,-1.2 -2.04,-3.32 l 0,-10 5.64,0 0,-2.32 -5.64,0 0,-5.08 -2.76,0 0,5.08 -3.48,0 0,2.32 3.36,0 0,10.68 c 0,2.4 0.56,5.2 3.32,5.2 2.8,0 4.84,-1 5.84,-1.52"
               style="font-size:40px;fill:#657b83;font-family:LMSans17;-inkscape-font-specification:LMSans17 Bold"
               id="path6596"
               inkscape:connector-curvature="0" />
            <path
               d="m 1796.2909,736.50899 -0.64,-2.36 c -1.04,0.84 -2.32,1.32 -3.6,1.32 -1.48,0 -2.04,-1.2 -2.04,-3.32 l 0,-10 5.64,0 0,-2.32 -5.64,0 0,-5.08 -2.76,0 0,5.08 -3.48,0 0,2.32 3.36,0 0,10.68 c 0,2.4 0.56,5.2 3.32,5.2 2.8,0 4.84,-1 5.84,-1.52"
               style="font-size:40px;fill:#657b83;font-family:LMSans17;-inkscape-font-specification:LMSans17 Bold"
               id="path6598"
               inkscape:connector-curvature="0" />
            <path
               d="m 1813.1646,728.82899 c 0,-1.36 -0.04,-4.36 -1.6,-6.76 -1.64,-2.48 -4.08,-2.92 -5.52,-2.92 -4.44,0 -8.04,4.24 -8.04,9.4 0,5.27999 3.84,9.48 8.64,9.48 2.52,0 4.8,-0.96 6.36,-2.08 l -0.24,-2.6 c -2.52,2.08 -5.16,2.24 -6.08,2.24 -3.2,0 -5.76,-2.84 -5.88,-6.76 l 12.36,0 m -2.28,-2.2 -9.88,0 c 0.64,-3.04 2.76,-5.04 5.04,-5.04 2.08,0 4.32,1.36 4.84,5.04"
               style="font-size:40px;fill:#657b83;font-family:LMSans17;-inkscape-font-specification:LMSans17 Bold"
               id="path6600"
               inkscape:connector-curvature="0" />
            <path
               d="m 1826.4034,722.06899 0,-2.68 c -3.56,0.04 -5.76,2 -7,3.84 l 0,-3.64 -2.8,0 0,18 3,0 0,-8.56 c 0,-4 2.88,-6.88 6.8,-6.96"
               style="font-size:40px;fill:#657b83;font-family:LMSans17;-inkscape-font-specification:LMSans17 Bold"
               id="path6602"
               inkscape:connector-curvature="0" />
          </g>
        </g>
        <g
           id="g40527"
           transform="translate(-4.0639171e-5,1.9951172e-5)">
          <g
             id="g40513">
            <path
               inkscape:connector-curvature="0"
               id="path3135"
               style="font-size:40px;font-style:normal;font-variant:normal;font-weight:normal;font-stretch:normal;line-height:125%;letter-spacing:0px;word-spacing:0px;fill:#268bd2;fill-opacity:1;stroke:none;font-family:FontAwesome;-inkscape-font-specification:FontAwesome"
               d="m 2170.5351,416.80164 c -1.2187,-1.7578 -1.8984,-3.86716 -1.8984,-5.99996 0,-0.51562 0.047,-1.03124 0.1172,-1.54686 -1.0078,0.35156 -2.0391,0.53905 -3.1172,0.53905 -3.1641,0 -5.6015,-1.99217 -6.0937,-1.99217 -2.9766,0 -2.9063,6.37496 -2.9063,8.27338 0,2.60155 2.2032,3.72654 4.5469,3.72654 l 3.1406,0 c 1.5703,-1.87498 3.7734,-2.92967 6.2109,-2.99998 m 25.1014,14.9296 c 0,-5.29684 -1.2422,-13.42961 -8.1093,-13.42961 -0.7969,0 -3.7031,3.2578 -8.3906,3.2578 -4.6875,0 -7.5937,-3.2578 -8.3906,-3.2578 -6.8671,0 -8.1093,8.13277 -8.1093,13.42961 0,3.79684 2.5078,6.07027 6.2578,6.07027 l 20.4842,0 c 3.75,0 6.2578,-2.27343 6.2578,-6.07027 m -23.9998,-29.92951 c 0,-3.30466 -2.6953,-5.99995 -6,-5.99995 -3.3047,0 -6,2.69529 -6,5.99995 0,3.30467 2.6953,5.99997 6,5.99997 3.3047,0 6,-2.6953 6,-5.99997 m 16.4998,8.99995 c 0,-4.96872 -4.0312,-8.99995 -8.9999,-8.99995 -4.9687,0 -8.9999,4.03123 -8.9999,8.99995 0,4.96871 4.0312,8.99994 8.9999,8.99994 4.9687,0 8.9999,-4.03123 8.9999,-8.99994 m 13.5,5.2734 c 0,-1.89842 0.07,-8.27338 -2.9063,-8.27338 -0.4922,0 -2.9296,1.99217 -6.0937,1.99217 -1.0781,0 -2.1093,-0.18749 -3.1172,-0.53905 0.07,0.51562 0.1172,1.03124 0.1172,1.54686 0,2.1328 -0.6796,4.24216 -1.8984,5.99996 2.4375,0.0703 4.6406,1.125 6.2109,2.99998 l 3.1406,0 c 2.3437,0 4.5469,-1.12499 4.5469,-3.72654 m -3,-14.27335 c 0,-3.30466 -2.6953,-5.99995 -6,-5.99995 -3.3046,0 -5.9999,2.69529 -5.9999,5.99995 0,3.30467 2.6953,5.99997 5.9999,5.99997 3.3047,0 6,-2.6953 6,-5.99997" />
            <path
               inkscape:connector-curvature="0"
               id="path3138-3"
               style="font-size:40px;font-style:normal;font-variant:normal;font-weight:normal;font-stretch:normal;line-height:125%;letter-spacing:0px;word-spacing:0px;fill:#b58900;fill-opacity:1;stroke:none;font-family:FontAwesome;-inkscape-font-specification:FontAwesome"
               d="m 2195.6365,324.73179 c 0,-5.29684 -1.2422,-13.4296 -8.1093,-13.4296 -0.7266,0 -3.7969,3.25779 -8.3906,3.25779 -4.5937,0 -7.664,-3.25779 -8.3905,-3.25779 -6.8672,0 -8.1094,8.13276 -8.1094,13.4296 0,3.79685 2.5313,6.07028 6.2578,6.07028 l 20.4843,0 c 3.7265,0 6.2577,-2.27343 6.2577,-6.07028 m -7.4999,-20.92955 c 0,-4.96871 -4.0313,-8.99994 -9,-8.99994 -4.9687,0 -8.9999,4.03123 -8.9999,8.99994 0,4.96871 4.0312,8.99994 8.9999,8.99994 4.9687,0 9,-4.03123 9,-8.99994" />
            <path
               inkscape:connector-curvature="0"
               id="path3138-6"
               style="font-size:40px;font-style:normal;font-variant:normal;font-weight:normal;font-stretch:normal;line-height:125%;letter-spacing:0px;word-spacing:0px;fill:#b58900;fill-opacity:1;stroke:none;font-family:FontAwesome;-inkscape-font-specification:FontAwesome"
               d="m 2195.6365,376.73152 c 0,-5.29683 -1.2422,-13.4296 -8.1093,-13.4296 -0.7266,0 -3.7969,3.25779 -8.3906,3.25779 -4.5937,0 -7.664,-3.25779 -8.3905,-3.25779 -6.8672,0 -8.1094,8.13277 -8.1094,13.4296 0,3.79685 2.5313,6.07028 6.2578,6.07028 l 20.4843,0 c 3.7265,0 6.2577,-2.27343 6.2577,-6.07028 m -7.4999,-20.92954 c 0,-4.96872 -4.0313,-8.99995 -9,-8.99995 -4.9687,0 -8.9999,4.03123 -8.9999,8.99995 0,4.9687 4.0312,8.99993 8.9999,8.99993 4.9687,0 9,-4.03123 9,-8.99993" />
            <path
               inkscape:connector-curvature="0"
               id="path3138-2"
               style="font-size:40px;font-style:normal;font-variant:normal;font-weight:normal;font-stretch:normal;line-height:125%;letter-spacing:0px;word-spacing:0px;fill:#b58900;fill-opacity:1;stroke:none;font-family:FontAwesome;-inkscape-font-specification:FontAwesome"
               d="m 2195.6365,532.73072 c 0,-5.29683 -1.2422,-13.4296 -8.1093,-13.4296 -0.7266,0 -3.7969,3.25779 -8.3906,3.25779 -4.5937,0 -7.664,-3.25779 -8.3905,-3.25779 -6.8672,0 -8.1094,8.13277 -8.1094,13.4296 0,3.79685 2.5313,6.07028 6.2578,6.07028 l 20.4843,0 c 3.7265,0 6.2577,-2.27343 6.2577,-6.07028 m -7.4999,-20.92954 c 0,-4.96872 -4.0313,-8.99995 -9,-8.99995 -4.9687,0 -8.9999,4.03123 -8.9999,8.99995 0,4.9687 4.0312,8.99993 8.9999,8.99993 4.9687,0 9,-4.03123 9,-8.99993" />
            <path
               inkscape:connector-curvature="0"
               id="path3138-61"
               style="font-size:40px;font-style:normal;font-variant:normal;font-weight:normal;font-stretch:normal;line-height:125%;letter-spacing:0px;word-spacing:0px;fill:#b58900;fill-opacity:1;stroke:none;font-family:FontAwesome;-inkscape-font-specification:FontAwesome"
               d="m 2195.6365,1052.728 c 0,-5.2968 -1.2422,-13.4296 -8.1093,-13.4296 -0.7266,0 -3.7969,3.2578 -8.3906,3.2578 -4.5937,0 -7.664,-3.2578 -8.3905,-3.2578 -6.8672,0 -8.1094,8.1328 -8.1094,13.4296 0,3.7969 2.5313,6.0703 6.2578,6.0703 l 20.4843,0 c 3.7265,0 6.2577,-2.2734 6.2577,-6.0703 m -7.4999,-20.9295 c 0,-4.9687 -4.0313,-8.9999 -9,-8.9999 -4.9687,0 -8.9999,4.0312 -8.9999,8.9999 0,4.9687 4.0312,8.9999 8.9999,8.9999 4.9687,0 9,-4.0312 9,-8.9999" />
            <path
               inkscape:connector-curvature="0"
               id="path3138-7"
               style="font-size:40px;font-style:normal;font-variant:normal;font-weight:normal;font-stretch:normal;line-height:125%;letter-spacing:0px;word-spacing:0px;fill:#b58900;fill-opacity:1;stroke:none;font-family:FontAwesome;-inkscape-font-specification:FontAwesome"
               d="m 2195.6365,1104.7278 c 0,-5.2969 -1.2422,-13.4296 -8.1093,-13.4296 -0.7266,0 -3.7969,3.2578 -8.3906,3.2578 -4.5937,0 -7.664,-3.2578 -8.3905,-3.2578 -6.8672,0 -8.1094,8.1327 -8.1094,13.4296 0,3.7968 2.5313,6.0702 6.2578,6.0702 l 20.4843,0 c 3.7265,0 6.2577,-2.2734 6.2577,-6.0702 m -7.4999,-20.9296 c 0,-4.9687 -4.0313,-8.9999 -9,-8.9999 -4.9687,0 -8.9999,4.0312 -8.9999,8.9999 0,4.9687 4.0312,9 8.9999,9 4.9687,0 9,-4.0313 9,-9" />
            <path
               inkscape:connector-curvature="0"
               id="path3138-5"
               style="font-size:40px;font-style:normal;font-variant:normal;font-weight:normal;font-stretch:normal;line-height:125%;letter-spacing:0px;word-spacing:0px;fill:#b58900;fill-opacity:1;stroke:none;font-family:FontAwesome;-inkscape-font-specification:FontAwesome"
               d="m 2195.6365,792.72938 c 0,-5.29683 -1.2422,-13.4296 -8.1093,-13.4296 -0.7266,0 -3.7969,3.25779 -8.3906,3.25779 -4.5937,0 -7.664,-3.25779 -8.3905,-3.25779 -6.8672,0 -8.1094,8.13277 -8.1094,13.4296 0,3.79685 2.5313,6.07028 6.2578,6.07028 l 20.4843,0 c 3.7265,0 6.2577,-2.27343 6.2577,-6.07028 m -7.4999,-20.92954 c 0,-4.96872 -4.0313,-8.99995 -9,-8.99995 -4.9687,0 -8.9999,4.03123 -8.9999,8.99995 0,4.9687 4.0312,8.99993 8.9999,8.99993 4.9687,0 9,-4.03123 9,-8.99993" />
            <path
               inkscape:connector-curvature="0"
               id="path3138-21"
               style="font-size:40px;font-style:normal;font-variant:normal;font-weight:normal;font-stretch:normal;line-height:125%;letter-spacing:0px;word-spacing:0px;fill:#b58900;fill-opacity:1;stroke:none;font-family:FontAwesome;-inkscape-font-specification:FontAwesome"
               d="m 2195.6365,844.72911 c 0,-5.29683 -1.2422,-13.4296 -8.1093,-13.4296 -0.7266,0 -3.7969,3.25779 -8.3906,3.25779 -4.5937,0 -7.664,-3.25779 -8.3905,-3.25779 -6.8672,0 -8.1094,8.13277 -8.1094,13.4296 0,3.79685 2.5313,6.07028 6.2578,6.07028 l 20.4843,0 c 3.7265,0 6.2577,-2.27343 6.2577,-6.07028 m -7.4999,-20.92954 c 0,-4.96872 -4.0313,-8.99995 -9,-8.99995 -4.9687,0 -8.9999,4.03123 -8.9999,8.99995 0,4.9687 4.0312,8.99993 8.9999,8.99993 4.9687,0 9,-4.03123 9,-8.99993" />
            <path
               inkscape:connector-curvature="0"
               id="path3138-1"
               style="font-size:40px;font-style:normal;font-variant:normal;font-weight:normal;font-stretch:normal;line-height:125%;letter-spacing:0px;word-spacing:0px;fill:#b58900;fill-opacity:1;stroke:none;font-family:FontAwesome;-inkscape-font-specification:FontAwesome"
               d="m 2195.6365,896.72884 c 0,-5.29683 -1.2422,-13.4296 -8.1093,-13.4296 -0.7266,0 -3.7969,3.25779 -8.3906,3.25779 -4.5937,0 -7.664,-3.25779 -8.3905,-3.25779 -6.8672,0 -8.1094,8.13277 -8.1094,13.4296 0,3.79685 2.5313,6.07028 6.2578,6.07028 l 20.4843,0 c 3.7265,0 6.2577,-2.27343 6.2577,-6.07028 m -7.4999,-20.92954 c 0,-4.96872 -4.0313,-8.99995 -9,-8.99995 -4.9687,0 -8.9999,4.03123 -8.9999,8.99995 0,4.9687 4.0312,8.99993 8.9999,8.99993 4.9687,0 9,-4.03123 9,-8.99993" />
            <path
               inkscape:connector-curvature="0"
               id="path3135-95"
               style="font-size:40px;font-style:normal;font-variant:normal;font-weight:normal;font-stretch:normal;line-height:125%;letter-spacing:0px;word-spacing:0px;fill:#268bd2;fill-opacity:1;stroke:none;font-family:FontAwesome;-inkscape-font-specification:FontAwesome"
               d="m 2170.5351,572.80084 c -1.2187,-1.7578 -1.8984,-3.86716 -1.8984,-5.99996 0,-0.51562 0.047,-1.03124 0.1172,-1.54686 -1.0078,0.35156 -2.0391,0.53905 -3.1172,0.53905 -3.1641,0 -5.6015,-1.99217 -6.0937,-1.99217 -2.9766,0 -2.9063,6.37496 -2.9063,8.27338 0,2.60155 2.2032,3.72654 4.5469,3.72654 l 3.1406,0 c 1.5703,-1.87498 3.7734,-2.92967 6.2109,-2.99998 m 25.1014,14.9296 c 0,-5.29684 -1.2422,-13.42961 -8.1093,-13.42961 -0.7969,0 -3.7031,3.2578 -8.3906,3.2578 -4.6875,0 -7.5937,-3.2578 -8.3906,-3.2578 -6.8671,0 -8.1093,8.13277 -8.1093,13.42961 0,3.79684 2.5078,6.07027 6.2578,6.07027 l 20.4842,0 c 3.75,0 6.2578,-2.27343 6.2578,-6.07027 m -23.9998,-29.92951 c 0,-3.30466 -2.6953,-5.99995 -6,-5.99995 -3.3047,0 -6,2.69529 -6,5.99995 0,3.30467 2.6953,5.99997 6,5.99997 3.3047,0 6,-2.6953 6,-5.99997 m 16.4998,8.99995 c 0,-4.96872 -4.0312,-8.99995 -8.9999,-8.99995 -4.9687,0 -8.9999,4.03123 -8.9999,8.99995 0,4.96871 4.0312,8.99994 8.9999,8.99994 4.9687,0 8.9999,-4.03123 8.9999,-8.99994 m 13.5,5.2734 c 0,-1.89842 0.07,-8.27338 -2.9063,-8.27338 -0.4922,0 -2.9296,1.99217 -6.0937,1.99217 -1.0781,0 -2.1093,-0.18749 -3.1172,-0.53905 0.07,0.51562 0.1172,1.03124 0.1172,1.54686 0,2.1328 -0.6796,4.24216 -1.8984,5.99996 2.4375,0.0703 4.6406,1.125 6.2109,2.99998 l 3.1406,0 c 2.3437,0 4.5469,-1.12499 4.5469,-3.72654 m -3,-14.27335 c 0,-3.30466 -2.6953,-5.99995 -6,-5.99995 -3.3046,0 -5.9999,2.69529 -5.9999,5.99995 0,3.30467 2.6953,5.99997 5.9999,5.99997 3.3047,0 6,-2.6953 6,-5.99997" />
            <path
               inkscape:connector-curvature="0"
               id="path3135-5"
               style="font-size:40px;font-style:normal;font-variant:normal;font-weight:normal;font-stretch:normal;line-height:125%;letter-spacing:0px;word-spacing:0px;fill:#268bd2;fill-opacity:1;stroke:none;font-family:FontAwesome;-inkscape-font-specification:FontAwesome"
               d="m 2170.5351,676.8003 c -1.2187,-1.7578 -1.8984,-3.86716 -1.8984,-5.99996 0,-0.51562 0.047,-1.03124 0.1172,-1.54686 -1.0078,0.35156 -2.0391,0.53905 -3.1172,0.53905 -3.1641,0 -5.6015,-1.99217 -6.0937,-1.99217 -2.9766,0 -2.9063,6.37496 -2.9063,8.27338 0,2.60155 2.2032,3.72654 4.5469,3.72654 l 3.1406,0 c 1.5703,-1.87498 3.7734,-2.92967 6.2109,-2.99998 m 25.1014,14.9296 c 0,-5.29684 -1.2422,-13.42961 -8.1093,-13.42961 -0.7969,0 -3.7031,3.2578 -8.3906,3.2578 -4.6875,0 -7.5937,-3.2578 -8.3906,-3.2578 -6.8671,0 -8.1093,8.13277 -8.1093,13.42961 0,3.79684 2.5078,6.07027 6.2578,6.07027 l 20.4842,0 c 3.75,0 6.2578,-2.27343 6.2578,-6.07027 m -23.9998,-29.92951 c 0,-3.30466 -2.6953,-5.99995 -6,-5.99995 -3.3047,0 -6,2.69529 -6,5.99995 0,3.30467 2.6953,5.99997 6,5.99997 3.3047,0 6,-2.6953 6,-5.99997 m 16.4998,8.99995 c 0,-4.96872 -4.0312,-8.99995 -8.9999,-8.99995 -4.9687,0 -8.9999,4.03123 -8.9999,8.99995 0,4.96871 4.0312,8.99994 8.9999,8.99994 4.9687,0 8.9999,-4.03123 8.9999,-8.99994 m 13.5,5.2734 c 0,-1.89842 0.07,-8.27338 -2.9063,-8.27338 -0.4922,0 -2.9296,1.99217 -6.0937,1.99217 -1.0781,0 -2.1093,-0.18749 -3.1172,-0.53905 0.07,0.51562 0.1172,1.03124 0.1172,1.54686 0,2.1328 -0.6796,4.24216 -1.8984,5.99996 2.4375,0.0703 4.6406,1.125 6.2109,2.99998 l 3.1406,0 c 2.3437,0 4.5469,-1.12499 4.5469,-3.72654 m -3,-14.27335 c 0,-3.30466 -2.6953,-5.99995 -6,-5.99995 -3.3046,0 -5.9999,2.69529 -5.9999,5.99995 0,3.30467 2.6953,5.99997 5.9999,5.99997 3.3047,0 6,-2.6953 6,-5.99997" />
            <path
               inkscape:connector-curvature="0"
               id="path3135-8"
               style="font-size:40px;font-style:normal;font-variant:normal;font-weight:normal;font-stretch:normal;line-height:125%;letter-spacing:0px;word-spacing:0px;fill:#268bd2;fill-opacity:1;stroke:none;font-family:FontAwesome;-inkscape-font-specification:FontAwesome"
               d="m 2170.5351,936.79896 c -1.2187,-1.7578 -1.8984,-3.86716 -1.8984,-5.99996 0,-0.51562 0.047,-1.03124 0.1172,-1.54686 -1.0078,0.35156 -2.0391,0.53905 -3.1172,0.53905 -3.1641,0 -5.6015,-1.99217 -6.0937,-1.99217 -2.9766,0 -2.9063,6.37496 -2.9063,8.27338 0,2.60155 2.2032,3.72654 4.5469,3.72654 l 3.1406,0 c 1.5703,-1.87498 3.7734,-2.92967 6.2109,-2.99998 m 25.1014,14.9296 c 0,-5.29684 -1.2422,-13.42961 -8.1093,-13.42961 -0.7969,0 -3.7031,3.2578 -8.3906,3.2578 -4.6875,0 -7.5937,-3.2578 -8.3906,-3.2578 -6.8671,0 -8.1093,8.13277 -8.1093,13.42961 0,3.79684 2.5078,6.07027 6.2578,6.07027 l 20.4842,0 c 3.75,0 6.2578,-2.27343 6.2578,-6.07027 m -23.9998,-29.92951 c 0,-3.30466 -2.6953,-5.99995 -6,-5.99995 -3.3047,0 -6,2.69529 -6,5.99995 0,3.30467 2.6953,5.99997 6,5.99997 3.3047,0 6,-2.6953 6,-5.99997 m 16.4998,8.99995 c 0,-4.96872 -4.0312,-8.99995 -8.9999,-8.99995 -4.9687,0 -8.9999,4.03123 -8.9999,8.99995 0,4.96871 4.0312,8.99994 8.9999,8.99994 4.9687,0 8.9999,-4.03123 8.9999,-8.99994 m 13.5,5.2734 c 0,-1.89842 0.07,-8.27338 -2.9063,-8.27338 -0.4922,0 -2.9296,1.99217 -6.0937,1.99217 -1.0781,0 -2.1093,-0.18749 -3.1172,-0.53905 0.07,0.51562 0.1172,1.03124 0.1172,1.54686 0,2.1328 -0.6796,4.24216 -1.8984,5.99996 2.4375,0.0704 4.6406,1.125 6.2109,2.99998 l 3.1406,0 c 2.3437,0 4.5469,-1.12499 4.5469,-3.72654 m -3,-14.27335 c 0,-3.30466 -2.6953,-5.99995 -6,-5.99995 -3.3046,0 -5.9999,2.69529 -5.9999,5.99995 0,3.30467 2.6953,5.99997 5.9999,5.99997 3.3047,0 6,-2.6953 6,-5.99997" />
          </g>
          <g
             id="g40499">
            <path
               style="fill:#d33682;stroke:#d33682;stroke-width:1px;stroke-linecap:butt;stroke-linejoin:miter;stroke-opacity:1"
               d="m 2146.0548,677.80016 -270,20"
               id="path6330-7"
               inkscape:connector-curvature="0"
               sodipodi:nodetypes="cc" />
            <path
               style="fill:#d33682;stroke:#d33682;stroke-width:1px;stroke-linecap:butt;stroke-linejoin:miter;stroke-opacity:1"
               d="m 2146.0548,577.80016 -270,120"
               id="path6330-3-3"
               inkscape:connector-curvature="0"
               sodipodi:nodetypes="cc" />
            <path
               style="fill:#d33682;stroke:#d33682;stroke-width:1px;stroke-linecap:butt;stroke-linejoin:miter;stroke-opacity:1"
               d="m 2146.0548,527.80016 -270,170"
               id="path6330-5-5"
               inkscape:connector-curvature="0"
               sodipodi:nodetypes="cc" />
            <path
               style="fill:#d33682;stroke:#d33682;stroke-width:1px;stroke-linecap:butt;stroke-linejoin:miter;stroke-opacity:1"
               d="m 2146.0548,427.80016 -270,270"
               id="path6330-51-8"
               inkscape:connector-curvature="0"
               sodipodi:nodetypes="cc" />
            <path
               style="fill:#d33682;stroke:#d33682;stroke-width:1px;stroke-linecap:butt;stroke-linejoin:miter;stroke-opacity:1"
               d="m 2146.0548,377.80016 -270,320"
               id="path6330-38-4"
               inkscape:connector-curvature="0"
               sodipodi:nodetypes="cc" />
            <path
               style="fill:#d33682;stroke:#d33682;stroke-width:1px;stroke-linecap:butt;stroke-linejoin:miter;stroke-opacity:1"
               d="m 2146.0548,327.80016 -270,370"
               id="path6330-2-9"
               inkscape:connector-curvature="0"
               sodipodi:nodetypes="cc" />
            <path
               style="fill:#d33682;stroke:#d33682;stroke-width:1px;stroke-linecap:butt;stroke-linejoin:miter;stroke-opacity:1"
               d="m 2146.0548,777.80016 -270,-80"
               id="path6330-58-8"
               inkscape:connector-curvature="0"
               sodipodi:nodetypes="cc" />
            <path
               style="fill:#d33682;stroke:#d33682;stroke-width:1px;stroke-linecap:butt;stroke-linejoin:miter;stroke-opacity:1"
               d="m 2146.0548,827.80016 -270,-130"
               id="path6330-6-5"
               inkscape:connector-curvature="0"
               sodipodi:nodetypes="cc" />
            <path
               style="fill:#d33682;stroke:#d33682;stroke-width:1px;stroke-linecap:butt;stroke-linejoin:miter;stroke-opacity:1"
               d="m 2146.0548,877.80016 -270,-180"
               id="path6330-4-1"
               inkscape:connector-curvature="0"
               sodipodi:nodetypes="cc" />
            <path
               style="fill:#d33682;stroke:#d33682;stroke-width:1px;stroke-linecap:butt;stroke-linejoin:miter;stroke-opacity:1"
               d="m 2146.0548,927.80018 -270,-230.00002"
               id="path6330-32-7"
               inkscape:connector-curvature="0"
               sodipodi:nodetypes="cc" />
            <path
               style="fill:#d33682;stroke:#d33682;stroke-width:1px;stroke-linecap:butt;stroke-linejoin:miter;stroke-opacity:1"
               d="m 2146.0548,1077.8002 -270,-380.00004"
               id="path6330-55-3"
               inkscape:connector-curvature="0"
               sodipodi:nodetypes="cc" />
            <path
               style="fill:#d33682;stroke:#d33682;stroke-width:1px;stroke-linecap:butt;stroke-linejoin:miter;stroke-opacity:1"
               d="m 2146.0548,1027.8002 -270,-330.00004"
               id="path6330-8-0"
               inkscape:connector-curvature="0"
               sodipodi:nodetypes="cc" />
          </g>
        </g>
        <g
           id="g40749"
           transform="translate(-165.10158,-138.08067)">
          <path
             sodipodi:nodetypes="cssssssc"
             d="m 1794.4073,1257.4972 c 0,-5.8947 -1.3824,-14.9454 -9.0246,-14.9454 -0.8086,0 -4.2254,3.6255 -9.3377,3.6255 -5.1122,0 -8.529,-3.6255 -9.3376,-3.6255 -7.6423,0 -9.0247,9.0507 -9.0247,14.9454 0,4.2255 2.817,6.7555 6.9641,6.7555 l 22.7964,0 c 4.1472,0 6.9641,-2.53 6.9641,-6.7555"
             style="font-size:40px;font-style:normal;font-variant:normal;font-weight:normal;font-stretch:normal;line-height:125%;letter-spacing:0px;word-spacing:0px;fill:#d33682;fill-opacity:1;stroke:none;font-family:FontAwesome;-inkscape-font-specification:FontAwesome"
             id="path3138-2-5"
             inkscape:connector-curvature="0" />
          <path
             d="m 1779.1889,1234.16 c 0,1.8189 -1.4835,3.3024 -3.3025,3.3024 -1.8189,0 -3.3024,-1.4835 -3.3024,-3.3024 0,-1.8189 1.4835,-3.3024 3.3024,-3.3024 1.819,0 3.3025,1.4835 3.3025,3.3024 m 6.6048,-1.4061 c 0,-0.2193 -0.1548,-0.4257 -0.3741,-0.4644 l -2.3607,-0.3612 c -0.129,-0.4257 -0.3096,-0.8514 -0.5289,-1.2642 0.4386,-0.6063 0.9159,-1.1739 1.3545,-1.7673 0.065,-0.09 0.1032,-0.1806 0.1032,-0.2967 0,-0.1032 -0.026,-0.2064 -0.09,-0.2838 -0.5418,-0.7612 -1.4448,-1.561 -2.1285,-2.1931 -0.09,-0.077 -0.2064,-0.129 -0.3225,-0.129 -0.1161,0 -0.2322,0.039 -0.3096,0.1161 l -1.8318,1.3803 c -0.3741,-0.1935 -0.7611,-0.3483 -1.161,-0.4773 l -0.3612,-2.3736 c -0.026,-0.2193 -0.2322,-0.387 -0.4644,-0.387 l -2.8639,0 c -0.2322,0 -0.4128,0.1548 -0.4644,0.3612 -0.2064,0.774 -0.2838,1.6125 -0.3741,2.3994 -0.3999,0.129 -0.7998,0.2967 -1.1739,0.4902 l -1.7802,-1.3803 c -0.1032,-0.077 -0.2193,-0.129 -0.3354,-0.129 -0.4386,0 -2.1801,1.8834 -2.4897,2.3092 -0.064,0.09 -0.1161,0.1806 -0.1161,0.2967 0,0.1161 0.052,0.2193 0.129,0.3096 0.4773,0.5805 0.9417,1.161 1.3803,1.7802 -0.2064,0.387 -0.3741,0.774 -0.5031,1.1868 l -2.3994,0.3612 c -0.1935,0.039 -0.3483,0.2709 -0.3483,0.4644 l 0,2.8638 c 0,0.2193 0.1548,0.4257 0.3741,0.4644 l 2.3607,0.3483 c 0.129,0.4386 0.3096,0.8643 0.5289,1.2771 -0.4386,0.6063 -0.9159,1.1739 -1.3545,1.7673 -0.064,0.09 -0.1032,0.1806 -0.1032,0.2967 0,0.1032 0.026,0.2064 0.09,0.2967 0.5418,0.7482 1.4448,1.5481 2.1285,2.1673 0.09,0.09 0.2064,0.1419 0.3225,0.1419 0.1161,0 0.2322,-0.039 0.3225,-0.1161 l 1.8189,-1.3803 c 0.3741,0.1935 0.7611,0.3483 1.161,0.4773 l 0.3612,2.3736 c 0.026,0.2193 0.2322,0.387 0.4644,0.387 l 2.8639,0 c 0.2322,0 0.4128,-0.1548 0.4644,-0.3612 0.2064,-0.774 0.2838,-1.6125 0.3741,-2.3994 0.3999,-0.129 0.7998,-0.2967 1.1739,-0.4902 l 1.7802,1.3932 c 0.1032,0.064 0.2193,0.1161 0.3354,0.1161 0.4386,0 2.1801,-1.8964 2.4897,-2.3092 0.077,-0.09 0.1161,-0.1806 0.1161,-0.2967 0,-0.1161 -0.052,-0.2322 -0.129,-0.3225 -0.4773,-0.5805 -0.9417,-1.1481 -1.3803,-1.7802 0.2064,-0.3741 0.3612,-0.7611 0.5031,-1.1739 l 2.3865,-0.3612 c 0.2064,-0.039 0.3612,-0.2709 0.3612,-0.4644 l 0,-2.8638"
             style="font-size:40px;font-style:normal;font-variant:normal;font-weight:normal;font-stretch:normal;line-height:125%;letter-spacing:0px;word-spacing:0px;fill:#d33682;fill-opacity:1;stroke:none;font-family:FontAwesome;-inkscape-font-specification:FontAwesome"
             id="path3141"
             inkscape:connector-curvature="0" />
        </g>
        <g
           style="font-size:63.45178604px;font-style:normal;font-variant:normal;font-weight:normal;font-stretch:normal;line-height:125%;letter-spacing:0px;word-spacing:0px;fill:#d33682;fill-opacity:1;stroke:none;font-family:Latin Modern Sans;-inkscape-font-specification:Latin Modern Sans"
           id="text3145-74">
          <path
             d="m 1664.8039,1126.172 c -1.536,-1.536 -5.6,-5.664 -5.6,-16 0,-1.792 0.096,-5.536 1.408,-9.312 1.312,-3.712 3.136,-5.632 4.192,-6.688 l -1.952,0 c -1.024,0.96 -3.168,2.912 -4.64,6.848 -1.28,3.424 -1.504,6.816 -1.504,9.152 0,10.336 4.608,14.592 6.144,16 l 1.952,0"
             style="font-size:32px;fill:#d33682;font-family:LMSans17;-inkscape-font-specification:LMSans17 Bold"
             id="path6534"
             inkscape:connector-curvature="0" />
          <path
             d="m 1683.5954,1118.172 0,-2.272 -4.032,0 c -0.384,0 -0.768,0.032 -1.152,0.032 l -6.688,0 0,-8.288 10.56,0 0,-1.952 -10.56,0 0,-7.584 4.416,0 c 0.384,0 0.768,0.032 1.152,0.032 l 5.856,0 0,-2.08 -14.272,0 0,22.112 14.72,0"
             style="font-size:32px;fill:#d33682;font-family:LMSans17;-inkscape-font-specification:LMSans17 Bold"
             id="path6536"
             inkscape:connector-curvature="0" />
          <path
             d="m 1697.6929,1118.172 0,-22.208 -2.4,0 0,9.408 c -1.696,-1.408 -3.488,-1.76 -4.672,-1.76 -3.168,0 -5.664,3.328 -5.664,7.456 0,4.192 2.464,7.456 5.504,7.456 1.056,0 2.944,-0.288 4.736,-2.016 l 0,1.664 2.496,0 m -2.496,-4.448 c 0,0.448 -0.032,1.024 -1.056,1.952 -0.736,0.64 -1.536,0.896 -2.368,0.896 -1.984,0 -4.32,-1.504 -4.32,-5.472 0,-4.224 2.752,-5.536 4.64,-5.536 1.44,0 2.4,0.736 3.104,1.76 l 0,6.4"
             style="font-size:32px;fill:#d33682;font-family:LMSans17;-inkscape-font-specification:LMSans17 Bold"
             id="path6538"
             inkscape:connector-curvature="0" />
          <path
             d="m 1720.6809,1103.964 -2.336,0 -2.048,6.784 c -0.352,1.152 -1.312,4.32 -1.472,5.696 l -0.032,0 c -0.128,-0.992 -0.928,-3.84 -1.472,-5.664 l -2.08,-6.816 -2.24,0 -1.824,6.016 c -0.352,1.12 -1.44,4.8 -1.568,6.432 l -0.032,0 c -0.16,-1.536 -1.216,-5.152 -1.728,-6.912 l -1.664,-5.536 -2.432,0 4.384,14.208 2.528,0 1.984,-6.592 c 0.448,-1.472 1.344,-4.64 1.44,-5.824 l 0.032,0 c 0.064,0.896 0.608,3.104 1.024,4.48 l 2.336,7.936 2.816,0 4.384,-14.208"
             style="font-size:32px;fill:#d33682;font-family:LMSans17;-inkscape-font-specification:LMSans17 Bold"
             id="path6540"
             inkscape:connector-curvature="0" />
          <path
             d="m 1732.061,1118.172 0,-9.248 c 0,-3.264 -2.336,-5.504 -5.28,-5.504 -2.08,0 -3.52,0.512 -5.024,1.376 l 0.192,2.112 c 1.664,-1.184 3.264,-1.6 4.832,-1.6 1.504,0 2.784,1.28 2.784,3.648 l 0,1.376 c -4.8,0.064 -8.864,1.408 -8.864,4.224 0,1.376 0.864,3.968 3.648,3.968 0.448,0 3.456,-0.064 5.312,-1.504 l 0,1.152 2.4,0 m -2.496,-4.224 c 0,0.608 0,1.408 -1.088,2.016 -0.928,0.576 -2.144,0.608 -2.496,0.608 -1.536,0 -2.976,-0.736 -2.976,-2.08 0,-2.24 5.184,-2.464 6.56,-2.528 l 0,1.984"
             style="font-size:32px;fill:#d33682;font-family:LMSans17;-inkscape-font-specification:LMSans17 Bold"
             id="path6542"
             inkscape:connector-curvature="0" />
          <path
             d="m 1743.0425,1105.756 0,-2.144 c -2.848,0.032 -4.608,1.6 -5.6,3.072 l 0,-2.912 -2.24,0 0,14.4 2.4,0 0,-6.848 c 0,-3.2 2.304,-5.504 5.44,-5.568"
             style="font-size:32px;fill:#d33682;font-family:LMSans17;-inkscape-font-specification:LMSans17 Bold"
             id="path6544"
             inkscape:connector-curvature="0" />
          <path
             d="m 1756.7165,1118.172 0,-22.208 -2.4,0 0,9.408 c -1.696,-1.408 -3.488,-1.76 -4.672,-1.76 -3.168,0 -5.664,3.328 -5.664,7.456 0,4.192 2.464,7.456 5.504,7.456 1.056,0 2.944,-0.288 4.736,-2.016 l 0,1.664 2.496,0 m -2.496,-4.448 c 0,0.448 -0.032,1.024 -1.056,1.952 -0.736,0.64 -1.536,0.896 -2.368,0.896 -1.984,0 -4.32,-1.504 -4.32,-5.472 0,-4.224 2.752,-5.536 4.64,-5.536 1.44,0 2.4,0.736 3.104,1.76 l 0,6.4"
             style="font-size:32px;fill:#d33682;font-family:LMSans17;-inkscape-font-specification:LMSans17 Bold"
             id="path6546"
             inkscape:connector-curvature="0" />
          <path
             d="m 1769.8485,1114.076 c 0,-1.76 -1.184,-2.848 -1.248,-2.944 -1.248,-1.12 -2.112,-1.312 -3.712,-1.6 -1.76,-0.352 -3.232,-0.672 -3.232,-2.24 0,-1.984 2.304,-1.984 2.72,-1.984 1.024,0 2.72,0.128 4.544,1.216 l 0.384,-2.08 c -1.664,-0.768 -2.976,-1.024 -4.608,-1.024 -0.8,0 -5.312,0 -5.312,4.192 0,1.568 0.928,2.592 1.728,3.2 0.992,0.704 1.696,0.832 3.456,1.184 1.152,0.224 3.008,0.608 3.008,2.304 0,2.208 -2.528,2.208 -3.008,2.208 -2.592,0 -4.384,-1.184 -4.96,-1.568 l -0.384,2.176 c 1.024,0.512 2.784,1.408 5.376,1.408 0.576,0 2.336,0 3.712,-1.024 0.992,-0.768 1.536,-2.048 1.536,-3.424"
             style="font-size:32px;fill:#d33682;font-family:LMSans17;-inkscape-font-specification:LMSans17 Bold"
             id="path6548"
             inkscape:connector-curvature="0" />
          <path
             d="m 1789.3485,1112.156 c 0,-2.784 -2.784,-5.056 -6.176,-5.6 2.912,-0.736 5.312,-2.592 5.312,-5.024 0,-2.944 -3.424,-5.568 -7.968,-5.568 l -7.584,0 0,22.208 8.448,0 c 4.608,0 7.968,-2.88 7.968,-6.016 m -3.36,-10.592 c 0,1.92 -2.272,4.096 -6.688,4.096 l -3.712,0 0,-7.904 4.032,0 c 3.552,0 6.368,1.696 6.368,3.808 m 0.768,10.56 c 0,2.4 -2.816,4.256 -6.272,4.256 l -4.896,0 0,-8.768 4.64,0 c 3.392,0 6.528,1.952 6.528,4.512"
             style="font-size:32px;fill:#d33682;font-family:LMSans17;-inkscape-font-specification:LMSans17 Bold"
             id="path6550"
             inkscape:connector-curvature="0" />
          <path
             d="m 1804.899,1111.132 c 0,-4.288 -3.2,-7.712 -7.008,-7.712 -3.936,0 -7.04,3.52 -7.04,7.712 0,4.224 3.264,7.392 7.008,7.392 3.84,0 7.04,-3.232 7.04,-7.392 m -2.496,-0.32 c 0,3.776 -2.176,5.664 -4.544,5.664 -2.208,0 -4.512,-1.792 -4.512,-5.664 0,-3.872 2.432,-5.44 4.512,-5.44 2.24,0 4.544,1.664 4.544,5.44"
             style="font-size:32px;fill:#d33682;font-family:LMSans17;-inkscape-font-specification:LMSans17 Bold"
             id="path6552"
             inkscape:connector-curvature="0" />
          <path
             d="m 1815.5775,1117.308 -0.512,-1.888 c -0.832,0.672 -1.856,1.056 -2.88,1.056 -1.184,0 -1.632,-0.96 -1.632,-2.656 l 0,-8 4.512,0 0,-1.856 -4.512,0 0,-4.064 -2.208,0 0,4.064 -2.784,0 0,1.856 2.688,0 0,8.544 c 0,1.92 0.448,4.16 2.656,4.16 2.24,0 3.872,-0.8 4.672,-1.216"
             style="font-size:32px;fill:#d33682;font-family:LMSans17;-inkscape-font-specification:LMSans17 Bold"
             id="path6554"
             inkscape:connector-curvature="0" />
          <path
             d="m 1825.7165,1110.172 c 0,-10.336 -4.608,-14.592 -6.144,-16 l -1.952,0 c 1.536,1.536 5.6,5.664 5.6,16 0,1.792 -0.096,5.536 -1.408,9.312 -1.312,3.712 -3.136,5.632 -4.192,6.688 l 1.952,0 c 1.024,-0.96 3.168,-2.912 4.64,-6.848 1.28,-3.424 1.504,-6.816 1.504,-9.152"
             style="font-size:32px;fill:#d33682;font-family:LMSans17;-inkscape-font-specification:LMSans17 Bold"
             id="path6556"
             inkscape:connector-curvature="0" />
        </g>
        <g
           id="g40745"
           transform="translate(-165.10158,-138.08067)">
          <path
             sodipodi:nodetypes="cssssssc"
             d="m 1789.5377,1168.9363 c 0,-8.0023 -1.8767,-20.289 -12.2513,-20.289 -1.0976,0 -5.7361,4.9218 -12.6762,4.9218 -6.94,0 -11.5785,-4.9218 -12.6762,-4.9218 -10.3746,0 -12.2513,12.2867 -12.2513,20.289 0,5.7362 3.8241,9.1708 9.4541,9.1708 l 30.9469,0 c 5.6299,0 9.454,-3.4346 9.454,-9.1708"
             style="font-size:40px;font-style:normal;font-variant:normal;font-weight:normal;font-stretch:normal;line-height:125%;letter-spacing:0px;word-spacing:0px;fill:#d33682;fill-opacity:1;stroke:none;font-family:FontAwesome;-inkscape-font-specification:FontAwesome"
             id="path3138-2-5-7"
             inkscape:connector-curvature="0" />
          <path
             d="m 1768.878,1137.2551 c 0,2.4692 -2.0139,4.4832 -4.4831,4.4832 -2.4693,0 -4.4832,-2.014 -4.4832,-4.4832 0,-2.4692 2.0139,-4.4832 4.4832,-4.4832 2.4692,0 4.4831,2.014 4.4831,4.4832 m 8.9664,-1.9088 c 0,-0.2978 -0.2102,-0.578 -0.5079,-0.6305 l -3.2047,-0.4903 c -0.1752,-0.5779 -0.4203,-1.1559 -0.7181,-1.7163 0.5955,-0.823 1.2434,-1.5936 1.8388,-2.3991 0.088,-0.1226 0.1401,-0.2452 0.1401,-0.4028 0,-0.1401 -0.035,-0.2802 -0.1225,-0.3853 -0.7356,-1.0332 -1.9614,-2.119 -2.8896,-2.9771 -0.1226,-0.1051 -0.2802,-0.1751 -0.4378,-0.1751 -0.1576,0 -0.3152,0.053 -0.4203,0.1576 l -2.4867,1.8738 c -0.5079,-0.2627 -1.0333,-0.4728 -1.5762,-0.6479 l -0.4903,-3.2223 c -0.035,-0.2977 -0.3152,-0.5254 -0.6304,-0.5254 l -3.8878,0 c -0.3152,0 -0.5604,0.2102 -0.6304,0.4904 -0.2802,1.0507 -0.3853,2.189 -0.5079,3.2573 -0.5429,0.1751 -1.0858,0.4027 -1.5936,0.6654 l -2.4167,-1.8738 c -0.1401,-0.1051 -0.2977,-0.1751 -0.4553,-0.1751 -0.5955,0 -2.9596,2.5568 -3.3799,3.1347 -0.088,0.1226 -0.1576,0.2452 -0.1576,0.4028 0,0.1576 0.07,0.2977 0.1751,0.4203 0.6479,0.788 1.2784,1.5761 1.8738,2.4167 -0.2802,0.5253 -0.5079,1.0507 -0.683,1.6111 l -3.2573,0.4904 c -0.2627,0.053 -0.4728,0.3677 -0.4728,0.6304 l 0,3.8877 c 0,0.2978 0.2101,0.578 0.5078,0.6305 l 3.2048,0.4728 c 0.1751,0.5954 0.4203,1.1734 0.718,1.7337 -0.5954,0.8231 -1.2434,1.5937 -1.8388,2.3992 -0.088,0.1226 -0.1401,0.2452 -0.1401,0.4028 0,0.1401 0.035,0.2802 0.1226,0.4028 0.7355,1.0157 1.9614,2.1015 2.8895,2.9421 0.1226,0.1226 0.2802,0.1926 0.4379,0.1926 0.1576,0 0.3152,-0.053 0.4378,-0.1576 l 2.4692,-1.8738 c 0.5079,0.2627 1.0332,0.4728 1.5761,0.6479 l 0.4904,3.2223 c 0.035,0.2977 0.3152,0.5254 0.6304,0.5254 l 3.8878,0 c 0.3152,0 0.5603,-0.2102 0.6304,-0.4904 0.2802,-1.0507 0.3853,-2.189 0.5079,-3.2573 0.5428,-0.1751 1.0857,-0.4027 1.5936,-0.6654 l 2.4167,1.8913 c 0.1401,0.088 0.2977,0.1576 0.4553,0.1576 0.5954,0 2.9596,-2.5743 3.3799,-3.1347 0.1051,-0.1226 0.1576,-0.2452 0.1576,-0.4028 0,-0.1576 -0.07,-0.3152 -0.1751,-0.4378 -0.648,-0.788 -1.2784,-1.5586 -1.8738,-2.4167 0.2802,-0.5078 0.4903,-1.0332 0.6829,-1.5936 l 3.2398,-0.4904 c 0.2802,-0.053 0.4904,-0.3677 0.4904,-0.6304 l 0,-3.8877"
             style="font-size:40px;font-style:normal;font-variant:normal;font-weight:normal;font-stretch:normal;line-height:125%;letter-spacing:0px;word-spacing:0px;fill:#d33682;fill-opacity:1;stroke:none;font-family:FontAwesome;-inkscape-font-specification:FontAwesome"
             id="path3141-1"
             inkscape:connector-curvature="0" />
        </g>
        <g
           style="font-size:63.45178604px;font-style:normal;font-variant:normal;font-weight:normal;font-stretch:normal;line-height:125%;letter-spacing:0px;word-spacing:0px;fill:#d33682;fill-opacity:1;stroke:none;font-family:Latin Modern Sans;-inkscape-font-specification:Latin Modern Sans"
           id="text3145-22">
          <path
             d="m 1684.4599,996.75562 0,-27.76 -4.56,0 -5.2,13.56 c -1.4,3.63999 -3.28,8.6 -3.72,10.48 l -0.04,0 c -0.2,-0.84 -0.68,-2.32001 -1.28,-4 l -6.28,-16.56 -1.36,-3.48 -4.52,0 0,27.76 3.12,0 0,-24.8 0.04,0 c 0.24,1.27999 1.84,5.64 2.88,8.36 l 5.92,15.56 2.92,0 5.32,-13.92 1.92,-5.08 c 0.4,-1.16 1.48,-4.04001 1.68,-4.96 l 0.04,0.04 0,24.8 3.12,0"
             style="font-size:40px;fill:#d33682;font-family:LMSans17;-inkscape-font-specification:LMSans17 Bold"
             id="path6501"
             inkscape:connector-curvature="0" />
          <path
             d="m 1702.8724,987.99562 c 0,-1.36 -0.04,-4.36001 -1.6,-6.76 -1.64,-2.48 -4.08,-2.92 -5.52,-2.92 -4.44,0 -8.04,4.24 -8.04,9.4 0,5.27999 3.84,9.48 8.64,9.48 2.52,0 4.8,-0.96001 6.36,-2.08 l -0.24,-2.6 c -2.52,2.07999 -5.16,2.24 -6.08,2.24 -3.2,0 -5.76,-2.84001 -5.88,-6.76 l 12.36,0 m -2.28,-2.2 -9.88,0 c 0.64,-3.04 2.76,-5.04 5.04,-5.04 2.08,0 4.32,1.36 4.84,5.04"
             style="font-size:40px;fill:#d33682;font-family:LMSans17;-inkscape-font-specification:LMSans17 Bold"
             id="path6503"
             inkscape:connector-curvature="0" />
          <path
             d="m 1720.3911,996.75562 0,-27.76 -3,0 0,11.76 c -2.12,-1.76 -4.36,-2.2 -5.84,-2.2 -3.96,0 -7.08,4.16 -7.08,9.32 0,5.23999 3.08,9.32 6.88,9.32 1.32,0 3.68,-0.36001 5.92,-2.52 l 0,2.08 3.12,0 m -3.12,-5.56 c 0,0.55999 -0.04,1.28 -1.32,2.44 -0.92,0.79999 -1.92,1.12 -2.96,1.12 -2.48,0 -5.4,-1.88001 -5.4,-6.84 0,-5.28 3.44,-6.92 5.8,-6.92 1.8,0 3,0.92 3.88,2.2 l 0,8"
             style="font-size:40px;fill:#d33682;font-family:LMSans17;-inkscape-font-specification:LMSans17 Bold"
             id="path6505"
             inkscape:connector-curvature="0" />
          <path
             d="m 1728.6461,996.75562 0,-17.76 -3,0 0,17.76 3,0 m 0.32,-22.64 0,-3.56 -3.56,0 0,3.56 3.56,0"
             style="font-size:40px;fill:#d33682;font-family:LMSans17;-inkscape-font-specification:LMSans17 Bold"
             id="path6507"
             inkscape:connector-curvature="0" />
          <path
             d="m 1747.6724,996.75562 0,-11.56 c 0,-4.08 -2.92,-6.88 -6.6,-6.88 -2.6,0 -4.4,0.64 -6.28,1.72 l 0.24,2.64 c 2.08,-1.48 4.08,-2 6.04,-2 1.88,0 3.48,1.6 3.48,4.56 l 0,1.72 c -6,0.08 -11.08,1.76 -11.08,5.28 0,1.71999 1.08,4.96 4.56,4.96 0.56,0 4.32,-0.08 6.64,-1.88 l 0,1.44 3,0 m -3.12,-5.28 c 0,0.75999 0,1.76 -1.36,2.52 -1.16,0.71999 -2.68,0.76 -3.12,0.76 -1.92,0 -3.72,-0.92001 -3.72,-2.6 0,-2.8 6.48,-3.08 8.2,-3.16 l 0,2.48"
             style="font-size:40px;fill:#d33682;font-family:LMSans17;-inkscape-font-specification:LMSans17 Bold"
             id="path6509"
             inkscape:connector-curvature="0" />
          <path
             d="m 1786.5193,968.99562 -2.88,0 -3.64,12.56 c -1.04,3.55999 -2.96,10.28 -3.16,12.32 l -0.04,0 c 0,0 -0.24,-2.12001 -2.88,-11.24 l -3.92,-13.64 -3.24,0 -3.6,12.48 c -0.88,3.07999 -2.88,10.08 -3.08,12.32 l -0.04,0 c -0.16,-1.6 -1.24,-5.52001 -1.56,-6.84 l -1.88,-6.68 -3.24,-11.28 -3.44,0 8.12,27.76 3.24,0 4,-13.88 c 0.84,-2.92 2.56,-8.88001 2.8,-10.96 l 0.04,0 c 0.16,1.19999 1.12,5 2.2,8.8 l 4.6,16.04 3.48,0 8.12,-27.76"
             style="font-size:40px;fill:#d33682;font-family:LMSans17;-inkscape-font-specification:LMSans17 Bold"
             id="path6511"
             inkscape:connector-curvature="0" />
          <path
             d="m 1791.068,996.75562 0,-17.76 -3,0 0,17.76 3,0 m 0.32,-22.64 0,-3.56 -3.56,0 0,3.56 3.56,0"
             style="font-size:40px;fill:#d33682;font-family:LMSans17;-inkscape-font-specification:LMSans17 Bold"
             id="path6513"
             inkscape:connector-curvature="0" />
          <path
             d="m 1812.5743,996.75562 -7.6,-10.88 6.72,-6.88 -3.6,0 -8.12,8.32 0,-18.32 -2.88,0 0,27.76 2.76,0 0,-5.64 3.2,-3.32 6.24,8.96 3.28,0"
             style="font-size:40px;fill:#d33682;font-family:LMSans17;-inkscape-font-specification:LMSans17 Bold"
             id="path6515"
             inkscape:connector-curvature="0" />
          <path
             d="m 1818.3336,996.75562 0,-17.76 -3,0 0,17.76 3,0 m 0.32,-22.64 0,-3.56 -3.56,0 0,3.56 3.56,0"
             style="font-size:40px;fill:#d33682;font-family:LMSans17;-inkscape-font-specification:LMSans17 Bold"
             id="path6517"
             inkscape:connector-curvature="0" />
          <path
             d="m 1864.4599,996.75562 0,-27.76 -4.56,0 -5.2,13.56 c -1.4,3.63999 -3.28,8.6 -3.72,10.48 l -0.04,0 c -0.2,-0.84 -0.68,-2.32001 -1.28,-4 l -6.28,-16.56 -1.36,-3.48 -4.52,0 0,27.76 3.12,0 0,-24.8 0.04,0 c 0.24,1.27999 1.84,5.64 2.88,8.36 l 5.92,15.56 2.92,0 5.32,-13.92 1.92,-5.08 c 0.4,-1.16 1.48,-4.04001 1.68,-4.96 l 0.04,0.04 0,24.8 3.12,0"
             style="font-size:40px;fill:#d33682;font-family:LMSans17;-inkscape-font-specification:LMSans17 Bold"
             id="path6519"
             inkscape:connector-curvature="0" />
          <path
             d="m 1882.8724,987.99562 c 0,-1.36 -0.04,-4.36001 -1.6,-6.76 -1.64,-2.48 -4.08,-2.92 -5.52,-2.92 -4.44,0 -8.04,4.24 -8.04,9.4 0,5.27999 3.84,9.48 8.64,9.48 2.52,0 4.8,-0.96001 6.36,-2.08 l -0.24,-2.6 c -2.52,2.07999 -5.16,2.24 -6.08,2.24 -3.2,0 -5.76,-2.84001 -5.88,-6.76 l 12.36,0 m -2.28,-2.2 -9.88,0 c 0.64,-3.04 2.76,-5.04 5.04,-5.04 2.08,0 4.32,1.36 4.84,5.04"
             style="font-size:40px;fill:#d33682;font-family:LMSans17;-inkscape-font-specification:LMSans17 Bold"
             id="path6521"
             inkscape:connector-curvature="0" />
          <path
             d="m 1897.4311,991.63562 c 0,-2.2 -1.48,-3.56 -1.56,-3.68 -1.56,-1.4 -2.64,-1.64001 -4.64,-2 -2.2,-0.44 -4.04,-0.84001 -4.04,-2.8 0,-2.48 2.88,-2.48 3.4,-2.48 1.28,0 3.4,0.16 5.68,1.52 l 0.48,-2.6 c -2.08,-0.96 -3.72,-1.28 -5.76,-1.28 -1,0 -6.64,0 -6.64,5.24 0,1.95999 1.16,3.24 2.16,4 1.24,0.87999 2.12,1.04 4.32,1.48 1.44,0.27999 3.76,0.76 3.76,2.88 0,2.75999 -3.16,2.76 -3.76,2.76 -3.24,0 -5.48,-1.48001 -6.2,-1.96 l -0.48,2.72 c 1.28,0.63999 3.48,1.76 6.72,1.76 0.72,0 2.92,-10e-6 4.64,-1.28 1.24,-0.96 1.92,-2.56001 1.92,-4.28"
             style="font-size:40px;fill:#d33682;font-family:LMSans17;-inkscape-font-specification:LMSans17 Bold"
             id="path6523"
             inkscape:connector-curvature="0" />
          <path
             d="m 1911.8061,991.63562 c 0,-2.2 -1.48,-3.56 -1.56,-3.68 -1.56,-1.4 -2.64,-1.64001 -4.64,-2 -2.2,-0.44 -4.04,-0.84001 -4.04,-2.8 0,-2.48 2.88,-2.48 3.4,-2.48 1.28,0 3.4,0.16 5.68,1.52 l 0.48,-2.6 c -2.08,-0.96 -3.72,-1.28 -5.76,-1.28 -1,0 -6.64,0 -6.64,5.24 0,1.95999 1.16,3.24 2.16,4 1.24,0.87999 2.12,1.04 4.32,1.48 1.44,0.27999 3.76,0.76 3.76,2.88 0,2.75999 -3.16,2.76 -3.76,2.76 -3.24,0 -5.48,-1.48001 -6.2,-1.96 l -0.48,2.72 c 1.28,0.63999 3.48,1.76 6.72,1.76 0.72,0 2.92,-10e-6 4.64,-1.28 1.24,-0.96 1.92,-2.56001 1.92,-4.28"
             style="font-size:40px;fill:#d33682;font-family:LMSans17;-inkscape-font-specification:LMSans17 Bold"
             id="path6525"
             inkscape:connector-curvature="0" />
          <path
             d="m 1928.1411,996.75562 0,-11.56 c 0,-4.08 -2.92,-6.88 -6.6,-6.88 -2.6,0 -4.4,0.64 -6.28,1.72 l 0.24,2.64 c 2.08,-1.48 4.08,-2 6.04,-2 1.88,0 3.48,1.6 3.48,4.56 l 0,1.72 c -6,0.08 -11.08,1.76 -11.08,5.28 0,1.71999 1.08,4.96 4.56,4.96 0.56,0 4.32,-0.08 6.64,-1.88 l 0,1.44 3,0 m -3.12,-5.28 c 0,0.75999 0,1.76 -1.36,2.52 -1.16,0.71999 -2.68,0.76 -3.12,0.76 -1.92,0 -3.72,-0.92001 -3.72,-2.6 0,-2.8 6.48,-3.08 8.2,-3.16 l 0,2.48"
             style="font-size:40px;fill:#d33682;font-family:LMSans17;-inkscape-font-specification:LMSans17 Bold"
             id="path6527"
             inkscape:connector-curvature="0" />
          <path
             d="m 1949.228,981.07562 -0.44,-2.52 c -2.8,0 -5.12,0.76 -6.32,1.28 -0.84,-0.68 -2.2,-1.28 -3.8,-1.28 -3.44,0 -6.36,2.88 -6.36,6.52 0,1.47999 0.52,2.92 1.32,3.96 -1.16,1.63999 -1.16,3.2 -1.16,3.4 0,1.03999 0.36,2.2 1.04,3.04 -2.08,1.23999 -2.56,3.08 -2.56,4.12 0,2.99998 3.96,5.39998 8.84,5.39998 4.92,0 8.88,-2.36 8.88,-5.43998 0,-5.56 -6.68,-5.56 -8.24,-5.56 l -3.52,0 c -0.52,0 -2.32,-10e-6 -2.32,-2.12 0,-0.44 0.16,-1.08001 0.44,-1.44 0.84,0.59999 2.16,1.16 3.64,1.16 3.6,0 6.4,-2.96001 6.4,-6.52 0,-1.92 -0.88,-3.40001 -1.32,-4 l 0.16,0.04 c 0.88,0 2,-0.16 2.96,-0.16 0.72,0 2.36,0.12 2.36,0.12 m -6.96,4 c 0,3.11999 -1.88,4.24 -3.6,4.24 -1.48,0 -3.56,-0.92001 -3.56,-4.24 0,-3.32 2.08,-4.24 3.56,-4.24 1.72,0 3.6,1.12 3.6,4.24 m 3.6,14.56 c 0,1.75998 -2.76,3.07998 -6.04,3.07998 -3.24,0 -6.08,-1.24 -6.08,-3.11998 0,-0.12 0,-2.72 3.12,-2.72 l 3.6,0 c 0.88,0 5.4,0 5.4,2.76"
             style="font-size:40px;fill:#d33682;font-family:LMSans17;-inkscape-font-specification:LMSans17 Bold"
             id="path6529"
             inkscape:connector-curvature="0" />
          <path
             d="m 1965.2161,987.99562 c 0,-1.36 -0.04,-4.36001 -1.6,-6.76 -1.64,-2.48 -4.08,-2.92 -5.52,-2.92 -4.44,0 -8.04,4.24 -8.04,9.4 0,5.27999 3.84,9.48 8.64,9.48 2.52,0 4.8,-0.96001 6.36,-2.08 l -0.24,-2.6 c -2.52,2.07999 -5.16,2.24 -6.08,2.24 -3.2,0 -5.76,-2.84001 -5.88,-6.76 l 12.36,0 m -2.28,-2.2 -9.88,0 c 0.64,-3.04 2.76,-5.04 5.04,-5.04 2.08,0 4.32,1.36 4.84,5.04"
             style="font-size:40px;fill:#d33682;font-family:LMSans17;-inkscape-font-specification:LMSans17 Bold"
             id="path6531"
             inkscape:connector-curvature="0" />
        </g>
        <g
           style="font-size:63.45178604px;font-style:normal;font-variant:normal;font-weight:normal;font-stretch:normal;line-height:125%;letter-spacing:0px;word-spacing:0px;fill:#d33682;fill-opacity:1;stroke:none;font-family:Latin Modern Sans;-inkscape-font-specification:Latin Modern Sans"
           id="text3145-05">
          <path
             d="m 1680.0999,1033.1156 c 0,-7.76 -5.4,-14.12 -12.28,-14.12 l -10.48,0 0,27.76 10.52,0 c 6.8,0 12.24,-6.08 12.24,-13.64 m -3.44,0 c 0,6.8 -4.16,11.4 -9.76,11.4 l -6.12,0 0,-23.28 6.12,0 c 5.6,0 9.76,4.84 9.76,11.88"
             style="font-size:40px;fill:#d33682;font-family:LMSans17;-inkscape-font-specification:LMSans17 Bold"
             id="path6458"
             inkscape:connector-curvature="0" />
          <path
             d="m 1697.1693,1037.9956 c 0,-1.36 -0.04,-4.36 -1.6,-6.76 -1.64,-2.48 -4.08,-2.92 -5.52,-2.92 -4.44,0 -8.04,4.24 -8.04,9.4 0,5.28 3.84,9.48 8.64,9.48 2.52,0 4.8,-0.96 6.36,-2.08 l -0.24,-2.6 c -2.52,2.08 -5.16,2.24 -6.08,2.24 -3.2,0 -5.76,-2.84 -5.88,-6.76 l 12.36,0 m -2.28,-2.2 -9.88,0 c 0.64,-3.04 2.76,-5.04 5.04,-5.04 2.08,0 4.32,1.36 4.84,5.04"
             style="font-size:40px;fill:#d33682;font-family:LMSans17;-inkscape-font-specification:LMSans17 Bold"
             id="path6460"
             inkscape:connector-curvature="0" />
          <path
             d="m 1703.568,1046.7556 0,-27.76 -3,0 0,27.76 3,0"
             style="font-size:40px;fill:#d33682;font-family:LMSans17;-inkscape-font-specification:LMSans17 Bold"
             id="path6462"
             inkscape:connector-curvature="0" />
          <path
             d="m 1712.4743,1046.7556 0,-17.76 -3,0 0,17.76 3,0 m 0.32,-22.64 0,-3.56 -3.56,0 0,3.56 3.56,0"
             style="font-size:40px;fill:#d33682;font-family:LMSans17;-inkscape-font-specification:LMSans17 Bold"
             id="path6464"
             inkscape:connector-curvature="0" />
          <path
             d="m 1732.9805,1028.9956 -3,0 -3.16,8.32 c -0.84,2.2 -2.08,5.44 -2.4,7.32 l -0.04,0 c -0.24,-1.44 -1.28,-4.2 -1.68,-5.28 l -3.88,-10.36 -3.12,0 6.88,17.76 3.52,0 6.88,-17.76"
             style="font-size:40px;fill:#d33682;font-family:LMSans17;-inkscape-font-specification:LMSans17 Bold"
             id="path6466"
             inkscape:connector-curvature="0" />
          <path
             d="m 1748.9661,1037.9956 c 0,-1.36 -0.04,-4.36 -1.6,-6.76 -1.64,-2.48 -4.08,-2.92 -5.52,-2.92 -4.44,0 -8.04,4.24 -8.04,9.4 0,5.28 3.84,9.48 8.64,9.48 2.52,0 4.8,-0.96 6.36,-2.08 l -0.24,-2.6 c -2.52,2.08 -5.16,2.24 -6.08,2.24 -3.2,0 -5.76,-2.84 -5.88,-6.76 l 12.36,0 m -2.28,-2.2 -9.88,0 c 0.64,-3.04 2.76,-5.04 5.04,-5.04 2.08,0 4.32,1.36 4.84,5.04"
             style="font-size:40px;fill:#d33682;font-family:LMSans17;-inkscape-font-specification:LMSans17 Bold"
             id="path6468"
             inkscape:connector-curvature="0" />
          <path
             d="m 1762.2049,1031.2356 0,-2.68 c -3.56,0.04 -5.76,2 -7,3.84 l 0,-3.64 -2.8,0 0,18 3,0 0,-8.56 c 0,-4 2.88,-6.88 6.8,-6.96"
             style="font-size:40px;fill:#d33682;font-family:LMSans17;-inkscape-font-specification:LMSans17 Bold"
             id="path6470"
             inkscape:connector-curvature="0" />
          <path
             d="m 1779.7774,1028.9956 -3,0 c -5.2,12.72 -5.28,14.56 -5.32,15.48 l -0.04,0 c -0.24,-2.68 -3.44,-10.12 -3.6,-10.48 l -2.16,-5 -3.16,0 7.76,17.76 -1.44,3.6 c -1.04,2.32 -1.72,2.32 -2.28,2.32 -0.64,0 -1.92,-0.16 -3.12,-0.64 l 0.24,2.6 c 0.88,0.2 2,0.32 2.88,0.32 1.4,0 2.88,-0.48 4.52,-4.56 l 8.72,-21.4"
             style="font-size:40px;fill:#d33682;font-family:LMSans17;-inkscape-font-specification:LMSans17 Bold"
             id="path6472"
             inkscape:connector-curvature="0" />
          <path
             d="m 1802.343,1056.7556 0,-2.44 -3.68,0 0,-35.12 3.68,0 0,-2.44 -6.56,0 0,40 6.56,0"
             style="font-size:40px;fill:#d33682;font-family:LMSans17;-inkscape-font-specification:LMSans17 Bold"
             id="path6474"
             inkscape:connector-curvature="0" />
          <path
             d="m 1833.6005,1046.7556 0,-27.76 -4.56,0 -5.2,13.56 c -1.4,3.64 -3.28,8.6 -3.72,10.48 l -0.04,0 c -0.2,-0.84 -0.68,-2.32 -1.28,-4 l -6.28,-16.56 -1.36,-3.48 -4.52,0 0,27.76 3.12,0 0,-24.8 0.04,0 c 0.24,1.28 1.84,5.64 2.88,8.36 l 5.92,15.56 2.92,0 5.32,-13.92 1.92,-5.08 c 0.4,-1.16 1.48,-4.04 1.68,-4.96 l 0.04,0.04 0,24.8 3.12,0"
             style="font-size:40px;fill:#d33682;font-family:LMSans17;-inkscape-font-specification:LMSans17 Bold"
             id="path6476"
             inkscape:connector-curvature="0" />
          <path
             d="m 1851.813,1046.7556 0,-11.56 c 0,-4.08 -2.92,-6.88 -6.6,-6.88 -2.6,0 -4.4,0.64 -6.28,1.72 l 0.24,2.64 c 2.08,-1.48 4.08,-2 6.04,-2 1.88,0 3.48,1.6 3.48,4.56 l 0,1.72 c -6,0.08 -11.08,1.76 -11.08,5.28 0,1.72 1.08,4.96 4.56,4.96 0.56,0 4.32,-0.08 6.64,-1.88 l 0,1.44 3,0 m -3.12,-5.28 c 0,0.76 0,1.76 -1.36,2.52 -1.16,0.72 -2.68,0.76 -3.12,0.76 -1.92,0 -3.72,-0.92 -3.72,-2.6 0,-2.8 6.48,-3.08 8.2,-3.16 l 0,2.48"
             style="font-size:40px;fill:#d33682;font-family:LMSans17;-inkscape-font-specification:LMSans17 Bold"
             id="path6478"
             inkscape:connector-curvature="0" />
          <path
             d="m 1867.8999,1041.6356 c 0,-2.2 -1.48,-3.56 -1.56,-3.68 -1.56,-1.4 -2.64,-1.64 -4.64,-2 -2.2,-0.44 -4.04,-0.84 -4.04,-2.8 0,-2.48 2.88,-2.48 3.4,-2.48 1.28,0 3.4,0.16 5.68,1.52 l 0.48,-2.6 c -2.08,-0.96 -3.72,-1.28 -5.76,-1.28 -1,0 -6.64,0 -6.64,5.24 0,1.96 1.16,3.24 2.16,4 1.24,0.88 2.12,1.04 4.32,1.48 1.44,0.28 3.76,0.76 3.76,2.88 0,2.76 -3.16,2.76 -3.76,2.76 -3.24,0 -5.48,-1.48 -6.2,-1.96 l -0.48,2.72 c 1.28,0.64 3.48,1.76 6.72,1.76 0.72,0 2.92,0 4.64,-1.28 1.24,-0.96 1.92,-2.56 1.92,-4.28"
             style="font-size:40px;fill:#d33682;font-family:LMSans17;-inkscape-font-specification:LMSans17 Bold"
             id="path6480"
             inkscape:connector-curvature="0" />
          <path
             d="m 1882.2749,1041.6356 c 0,-2.2 -1.48,-3.56 -1.56,-3.68 -1.56,-1.4 -2.64,-1.64 -4.64,-2 -2.2,-0.44 -4.04,-0.84 -4.04,-2.8 0,-2.48 2.88,-2.48 3.4,-2.48 1.28,0 3.4,0.16 5.68,1.52 l 0.48,-2.6 c -2.08,-0.96 -3.72,-1.28 -5.76,-1.28 -1,0 -6.64,0 -6.64,5.24 0,1.96 1.16,3.24 2.16,4 1.24,0.88 2.12,1.04 4.32,1.48 1.44,0.28 3.76,0.76 3.76,2.88 0,2.76 -3.16,2.76 -3.76,2.76 -3.24,0 -5.48,-1.48 -6.2,-1.96 l -0.48,2.72 c 1.28,0.64 3.48,1.76 6.72,1.76 0.72,0 2.92,0 4.64,-1.28 1.24,-0.96 1.92,-2.56 1.92,-4.28"
             style="font-size:40px;fill:#d33682;font-family:LMSans17;-inkscape-font-specification:LMSans17 Bold"
             id="path6482"
             inkscape:connector-curvature="0" />
          <path
             d="m 1913.2099,1046.7556 0,-27.76 -4.56,0 -5.2,13.56 c -1.4,3.64 -3.28,8.6 -3.72,10.48 l -0.04,0 c -0.2,-0.84 -0.68,-2.32 -1.28,-4 l -6.28,-16.56 -1.36,-3.48 -4.52,0 0,27.76 3.12,0 0,-24.8 0.04,0 c 0.24,1.28 1.84,5.64 2.88,8.36 l 5.92,15.56 2.92,0 5.32,-13.92 1.92,-5.08 c 0.4,-1.16 1.48,-4.04 1.68,-4.96 l 0.04,0.04 0,24.8 3.12,0"
             style="font-size:40px;fill:#d33682;font-family:LMSans17;-inkscape-font-specification:LMSans17 Bold"
             id="path6484"
             inkscape:connector-curvature="0" />
          <path
             d="m 1931.6224,1037.9956 c 0,-1.36 -0.04,-4.36 -1.6,-6.76 -1.64,-2.48 -4.08,-2.92 -5.52,-2.92 -4.44,0 -8.04,4.24 -8.04,9.4 0,5.28 3.84,9.48 8.64,9.48 2.52,0 4.8,-0.96 6.36,-2.08 l -0.24,-2.6 c -2.52,2.08 -5.16,2.24 -6.08,2.24 -3.2,0 -5.76,-2.84 -5.88,-6.76 l 12.36,0 m -2.28,-2.2 -9.88,0 c 0.64,-3.04 2.76,-5.04 5.04,-5.04 2.08,0 4.32,1.36 4.84,5.04"
             style="font-size:40px;fill:#d33682;font-family:LMSans17;-inkscape-font-specification:LMSans17 Bold"
             id="path6486"
             inkscape:connector-curvature="0" />
          <path
             d="m 1946.1811,1041.6356 c 0,-2.2 -1.48,-3.56 -1.56,-3.68 -1.56,-1.4 -2.64,-1.64 -4.64,-2 -2.2,-0.44 -4.04,-0.84 -4.04,-2.8 0,-2.48 2.88,-2.48 3.4,-2.48 1.28,0 3.4,0.16 5.68,1.52 l 0.48,-2.6 c -2.08,-0.96 -3.72,-1.28 -5.76,-1.28 -1,0 -6.64,0 -6.64,5.24 0,1.96 1.16,3.24 2.16,4 1.24,0.88 2.12,1.04 4.32,1.48 1.44,0.28 3.76,0.76 3.76,2.88 0,2.76 -3.16,2.76 -3.76,2.76 -3.24,0 -5.48,-1.48 -6.2,-1.96 l -0.48,2.72 c 1.28,0.64 3.48,1.76 6.72,1.76 0.72,0 2.92,0 4.64,-1.28 1.24,-0.96 1.92,-2.56 1.92,-4.28"
             style="font-size:40px;fill:#d33682;font-family:LMSans17;-inkscape-font-specification:LMSans17 Bold"
             id="path6488"
             inkscape:connector-curvature="0" />
          <path
             d="m 1960.5561,1041.6356 c 0,-2.2 -1.48,-3.56 -1.56,-3.68 -1.56,-1.4 -2.64,-1.64 -4.64,-2 -2.2,-0.44 -4.04,-0.84 -4.04,-2.8 0,-2.48 2.88,-2.48 3.4,-2.48 1.28,0 3.4,0.16 5.68,1.52 l 0.48,-2.6 c -2.08,-0.96 -3.72,-1.28 -5.76,-1.28 -1,0 -6.64,0 -6.64,5.24 0,1.96 1.16,3.24 2.16,4 1.24,0.88 2.12,1.04 4.32,1.48 1.44,0.28 3.76,0.76 3.76,2.88 0,2.76 -3.16,2.76 -3.76,2.76 -3.24,0 -5.48,-1.48 -6.2,-1.96 l -0.48,2.72 c 1.28,0.64 3.48,1.76 6.72,1.76 0.72,0 2.92,0 4.64,-1.28 1.24,-0.96 1.92,-2.56 1.92,-4.28"
             style="font-size:40px;fill:#d33682;font-family:LMSans17;-inkscape-font-specification:LMSans17 Bold"
             id="path6490"
             inkscape:connector-curvature="0" />
          <path
             d="m 1976.8911,1046.7556 0,-11.56 c 0,-4.08 -2.92,-6.88 -6.6,-6.88 -2.6,0 -4.4,0.64 -6.28,1.72 l 0.24,2.64 c 2.08,-1.48 4.08,-2 6.04,-2 1.88,0 3.48,1.6 3.48,4.56 l 0,1.72 c -6,0.08 -11.08,1.76 -11.08,5.28 0,1.72 1.08,4.96 4.56,4.96 0.56,0 4.32,-0.08 6.64,-1.88 l 0,1.44 3,0 m -3.12,-5.28 c 0,0.76 0,1.76 -1.36,2.52 -1.16,0.72 -2.68,0.76 -3.12,0.76 -1.92,0 -3.72,-0.92 -3.72,-2.6 0,-2.8 6.48,-3.08 8.2,-3.16 l 0,2.48"
             style="font-size:40px;fill:#d33682;font-family:LMSans17;-inkscape-font-specification:LMSans17 Bold"
             id="path6492"
             inkscape:connector-curvature="0" />
          <path
             d="m 1997.978,1031.0756 -0.44,-2.52 c -2.8,0 -5.12,0.76 -6.32,1.28 -0.84,-0.68 -2.2,-1.28 -3.8,-1.28 -3.44,0 -6.36,2.88 -6.36,6.52 0,1.48 0.52,2.92 1.32,3.96 -1.16,1.64 -1.16,3.2 -1.16,3.4 0,1.04 0.36,2.2 1.04,3.04 -2.08,1.24 -2.56,3.08 -2.56,4.12 0,3 3.96,5.4 8.84,5.4 4.92,0 8.88,-2.36 8.88,-5.44 0,-5.56 -6.68,-5.56 -8.24,-5.56 l -3.52,0 c -0.52,0 -2.32,0 -2.32,-2.12 0,-0.44 0.16,-1.08 0.44,-1.44 0.84,0.6 2.16,1.16 3.64,1.16 3.6,0 6.4,-2.96 6.4,-6.52 0,-1.92 -0.88,-3.4 -1.32,-4 l 0.16,0.04 c 0.88,0 2,-0.16 2.96,-0.16 0.72,0 2.36,0.12 2.36,0.12 m -6.96,4 c 0,3.12 -1.88,4.24 -3.6,4.24 -1.48,0 -3.56,-0.92 -3.56,-4.24 0,-3.32 2.08,-4.24 3.56,-4.24 1.72,0 3.6,1.12 3.6,4.24 m 3.6,14.56 c 0,1.76 -2.76,3.08 -6.04,3.08 -3.24,0 -6.08,-1.24 -6.08,-3.12 0,-0.12 0,-2.72 3.12,-2.72 l 3.6,0 c 0.88,0 5.4,0 5.4,2.76"
             style="font-size:40px;fill:#d33682;font-family:LMSans17;-inkscape-font-specification:LMSans17 Bold"
             id="path6494"
             inkscape:connector-curvature="0" />
          <path
             d="m 2013.9661,1037.9956 c 0,-1.36 -0.04,-4.36 -1.6,-6.76 -1.64,-2.48 -4.08,-2.92 -5.52,-2.92 -4.44,0 -8.04,4.24 -8.04,9.4 0,5.28 3.84,9.48 8.64,9.48 2.52,0 4.8,-0.96 6.36,-2.08 l -0.24,-2.6 c -2.52,2.08 -5.16,2.24 -6.08,2.24 -3.2,0 -5.76,-2.84 -5.88,-6.76 l 12.36,0 m -2.28,-2.2 -9.88,0 c 0.64,-3.04 2.76,-5.04 5.04,-5.04 2.08,0 4.32,1.36 4.84,5.04"
             style="font-size:40px;fill:#d33682;font-family:LMSans17;-inkscape-font-specification:LMSans17 Bold"
             id="path6496"
             inkscape:connector-curvature="0" />
          <path
             d="m 2021.5649,1056.7556 0,-40 -6.56,0 0,2.44 3.68,0 0,35.12 -3.68,0 0,2.44 6.56,0"
             style="font-size:40px;fill:#d33682;font-family:LMSans17;-inkscape-font-specification:LMSans17 Bold"
             id="path6498"
             inkscape:connector-curvature="0" />
        </g>
      </g>
    </g>
  </g>
</svg>
