<?xml version="1.0" encoding="UTF-8" standalone="no"?>
<!-- Created with Inkscape (http://www.inkscape.org/) -->

<svg
   xmlns:dc="http://purl.org/dc/elements/1.1/"
   xmlns:cc="http://creativecommons.org/ns#"
   xmlns:rdf="http://www.w3.org/1999/02/22-rdf-syntax-ns#"
   xmlns:svg="http://www.w3.org/2000/svg"
   xmlns="http://www.w3.org/2000/svg"
   xmlns:sodipodi="http://sodipodi.sourceforge.net/DTD/sodipodi-0.dtd"
   xmlns:inkscape="http://www.inkscape.org/namespaces/inkscape"
   width="1673.8716"
   height="769.66669"
   id="svg5674"
   version="1.1"
   inkscape:version="0.48.4 r9939"
   sodipodi:docname="tech news subscribers.svg">
  <defs
     id="defs5676">
    <clipPath
       id="presentation_clip_path"
       clipPathUnits="userSpaceOnUse">
      <rect
         x="0"
         y="0"
         width="28000"
         height="21000"
         id="rect3995" />
    </clipPath>
  </defs>
  <sodipodi:namedview
     id="base"
     pagecolor="#ffffff"
     bordercolor="#666666"
     borderopacity="1.0"
     inkscape:pageopacity="0.0"
     inkscape:pageshadow="2"
     inkscape:zoom="0.89992582"
     inkscape:cx="921.03197"
     inkscape:cy="427.85293"
     inkscape:document-units="px"
     inkscape:current-layer="id1"
     showgrid="false"
     inkscape:window-width="1885"
     inkscape:window-height="1060"
     inkscape:window-x="33"
     inkscape:window-y="-3"
     inkscape:window-maximized="1"
     fit-margin-top="0"
     fit-margin-left="0"
     fit-margin-right="0"
     fit-margin-bottom="0" />
  <metadata
     id="metadata5679">
    <rdf:RDF>
      <cc:Work
         rdf:about="">
        <dc:format>image/svg+xml</dc:format>
        <dc:type
           rdf:resource="http://purl.org/dc/dcmitype/StillImage" />
        <dc:title></dc:title>
      </cc:Work>
    </rdf:RDF>
  </metadata>
  <g
     inkscape:label="Calque 1"
     inkscape:groupmode="layer"
     id="layer1"
     transform="translate(628.36433,-210.386)">
    <g
       id="id1"
       class="Slide"
       visibility="visible"
       clip-path="url(#presentation_clip_path)"
       style="fill-rule:evenodd;stroke-width:28.22200012;stroke-linejoin:round;visibility:visible"
       transform="translate(-1523.2691,-15349.42)">
      <g
         id="g10243">
        <path
           style="fill:#eee8d5;stroke:none"
           inkscape:connector-curvature="0"
           id="path4183"
           d="m 1731.8406,16329.406 -836.93583,0 0,-769.6 1673.80543,0 0,769.6 -836.8696,0 z" />
        <rect
           style="fill:none;stroke:none"
           id="rect4185"
           height="769.66608"
           width="1673.8716"
           y="15559.807"
           x="894.90479" />
        <rect
           style="fill:none;stroke:none"
           id="rect4187"
           height="614.75391"
           width="1545.0206"
           y="15613.318"
           x="1003.7799" />
        <rect
           style="fill:none;stroke:none"
           id="rect4189"
           height="710.13531"
           width="1614.1423"
           y="15586.992"
           x="934.65808" />
        <path
           style="fill:none;stroke:#93a1a1;stroke-width:1.86675107;stroke-opacity:1"
           inkscape:connector-curvature="0"
           id="path4195"
           d="m 2548.7343,16104.975 -1544.9544,0" />
        <path
           style="fill:none;stroke:#93a1a1;stroke-width:1.86675107;stroke-opacity:1"
           inkscape:connector-curvature="0"
           id="path4197"
           d="m 2548.7343,15982.011 -1544.9544,0" />
        <path
           style="fill:none;stroke:#93a1a1;stroke-width:1.86675107;stroke-opacity:1"
           inkscape:connector-curvature="0"
           id="path4199"
           d="m 2548.7343,15859.113 -1544.9544,0" />
        <path
           style="fill:none;stroke:#93a1a1;stroke-width:1.86675107;stroke-opacity:1"
           inkscape:connector-curvature="0"
           id="path4201"
           d="m 2548.7343,15736.149 -1544.9544,0" />
        <path
           style="fill:none;stroke:#93a1a1;stroke-width:1.86675107;stroke-opacity:1"
           inkscape:connector-curvature="0"
           id="path4203"
           d="m 2548.7343,15613.251 -1544.9544,0" />
        <rect
           style="fill:none;stroke:none"
           id="rect4205"
           height="614.75391"
           width="0.066145241"
           y="15613.252"
           x="1003.7799" />
        <path
           style="fill:#b58900;stroke:none"
           inkscape:connector-curvature="0"
           id="path4363"
           d="m 2511.2961,16227.939 24.9368,0 0,-103.319 -24.9368,0 0,103.319 z" />
        <rect
           style="fill:none;stroke:none"
           id="rect4365"
           height="103.45116"
           width="25.002901"
           y="16124.555"
           x="2511.2961" />
        <path
           style="fill:#b58900;stroke:none"
           inkscape:connector-curvature="0"
           id="path4367"
           d="m 2461.4887,16227.939 24.9368,0 0,-103.319 -24.9368,0 0,103.319 z" />
        <rect
           style="fill:none;stroke:none"
           id="rect4369"
           height="103.45116"
           width="25.069048"
           y="16124.555"
           x="2461.4226" />
        <path
           style="fill:#b58900;stroke:none"
           inkscape:connector-curvature="0"
           id="path4371"
           d="m 2411.6814,16227.939 24.8706,0 0,-103.319 -24.8706,0 0,103.319 z" />
        <rect
           style="fill:none;stroke:none"
           id="rect4373"
           height="103.45116"
           width="24.936756"
           y="16124.555"
           x="2411.6814" />
        <path
           style="fill:#b58900;stroke:none"
           inkscape:connector-curvature="0"
           id="path4375"
           d="m 2361.8079,16227.939 24.9367,0 0,-103.319 -24.9367,0 0,103.319 z" />
        <rect
           style="fill:none;stroke:none"
           id="rect4377"
           height="103.45116"
           width="25.069048"
           y="16124.555"
           x="2361.7417" />
        <path
           style="fill:#b58900;stroke:none"
           inkscape:connector-curvature="0"
           id="path4379"
           d="m 2312.0005,16227.939 24.8706,0 0,-108.214 -24.8706,0 0,108.214 z" />
        <rect
           style="fill:none;stroke:none"
           id="rect4381"
           height="108.27976"
           width="24.936756"
           y="16119.727"
           x="2312.0005" />
        <path
           style="fill:#b58900;stroke:none"
           inkscape:connector-curvature="0"
           id="path4383"
           d="m 2262.127,16227.939 24.9367,0 0,-108.214 -24.9367,0 0,108.214 z" />
        <rect
           style="fill:none;stroke:none"
           id="rect4385"
           height="108.27976"
           width="25.069048"
           y="16119.727"
           x="2262.0608" />
        <path
           style="fill:#b58900;stroke:none"
           inkscape:connector-curvature="0"
           id="path4387"
           d="m 2212.3196,16227.939 24.8706,0 0,-108.214 -24.8706,0 0,108.214 z" />
        <rect
           style="fill:none;stroke:none"
           id="rect4389"
           height="108.27976"
           width="24.936756"
           y="16119.727"
           x="2212.3196" />
        <path
           style="fill:#b58900;stroke:none"
           inkscape:connector-curvature="0"
           id="path4391"
           d="m 2162.4461,16227.939 24.9368,0 0,-108.214 -24.9368,0 0,108.214 z" />
        <rect
           style="fill:none;stroke:none"
           id="rect4393"
           height="108.27976"
           width="25.002901"
           y="16119.727"
           x="2162.446" />
        <path
           style="fill:#b58900;stroke:none"
           inkscape:connector-curvature="0"
           id="path4395"
           d="m 2112.6387,16227.939 24.9368,0 0,-108.214 -24.9368,0 0,108.214 z" />
        <rect
           style="fill:none;stroke:none"
           id="rect4397"
           height="108.27976"
           width="25.002901"
           y="16119.727"
           x="2112.6387" />
        <path
           style="fill:#b58900;stroke:none"
           inkscape:connector-curvature="0"
           id="path4399"
           d="m 2062.7652,16227.939 24.9368,0 0,-108.214 -24.9368,0 0,108.214 z" />
        <rect
           style="fill:none;stroke:none"
           id="rect4401"
           height="108.27976"
           width="25.002901"
           y="16119.727"
           x="2062.7651" />
        <path
           style="fill:#b58900;stroke:none"
           inkscape:connector-curvature="0"
           id="path4403"
           d="m 2012.9578,16227.939 24.9368,0 0,-108.214 -24.9368,0 0,108.214 z" />
        <rect
           style="fill:none;stroke:none"
           id="rect4405"
           height="108.27976"
           width="25.002901"
           y="16119.727"
           x="2012.9578" />
        <path
           style="fill:#b58900;stroke:none"
           inkscape:connector-curvature="0"
           id="path4407"
           d="m 1963.0843,16227.939 24.9368,0 0,-108.214 -24.9368,0 0,108.214 z" />
        <rect
           style="fill:none;stroke:none"
           id="rect4409"
           height="108.27976"
           width="25.002901"
           y="16119.727"
           x="1963.0842" />
        <path
           style="fill:#b58900;stroke:none"
           inkscape:connector-curvature="0"
           id="path4411"
           d="m 1913.277,16227.939 24.9367,0 0,-108.214 -24.9367,0 0,108.214 z" />
        <rect
           style="fill:none;stroke:none"
           id="rect4413"
           height="108.27976"
           width="25.002901"
           y="16119.727"
           x="1913.2769" />
        <path
           style="fill:#b58900;stroke:none"
           inkscape:connector-curvature="0"
           id="path4415"
           d="m 1863.4696,16227.939 24.8706,0 0,-108.214 -24.8706,0 0,108.214 z" />
        <rect
           style="fill:none;stroke:none"
           id="rect4417"
           height="108.27976"
           width="24.936756"
           y="16119.727"
           x="1863.4695" />
        <path
           style="fill:#b58900;stroke:none"
           inkscape:connector-curvature="0"
           id="path4419"
           d="m 1813.5961,16227.939 24.9367,0 0,-108.214 -24.9367,0 0,108.214 z" />
        <rect
           style="fill:none;stroke:none"
           id="rect4421"
           height="108.27976"
           width="25.002901"
           y="16119.727"
           x="1813.5959" />
        <path
           style="fill:#b58900;stroke:none"
           inkscape:connector-curvature="0"
           id="path4423"
           d="m 1763.7887,16227.939 24.8706,0 0,-108.214 -24.8706,0 0,108.214 z" />
        <rect
           style="fill:none;stroke:none"
           id="rect4425"
           height="108.27976"
           width="24.936756"
           y="16119.727"
           x="1763.7888" />
        <path
           style="fill:#b58900;stroke:none"
           inkscape:connector-curvature="0"
           id="path4427"
           d="m 1713.9152,16227.939 24.9368,0 0,-108.214 -24.9368,0 0,108.214 z" />
        <rect
           style="fill:none;stroke:none"
           id="rect4429"
           height="108.27976"
           width="25.002901"
           y="16119.727"
           x="1713.9153" />
        <path
           style="fill:#b58900;stroke:none"
           inkscape:connector-curvature="0"
           id="path4431"
           d="m 1664.1078,16227.939 24.8706,0 0,-108.214 -24.8706,0 0,108.214 z" />
        <rect
           style="fill:none;stroke:none"
           id="rect4433"
           height="108.27976"
           width="24.936756"
           y="16119.727"
           x="1664.1079" />
        <path
           style="fill:#b58900;stroke:none"
           inkscape:connector-curvature="0"
           id="path4435"
           d="m 1614.2343,16227.939 24.9368,0 0,-108.214 -24.9368,0 0,108.214 z" />
        <rect
           style="fill:none;stroke:none"
           id="rect4437"
           height="108.27976"
           width="25.069048"
           y="16119.727"
           x="1614.1682" />
        <path
           style="fill:#b58900;stroke:none"
           inkscape:connector-curvature="0"
           id="path4439"
           d="m 1564.427,16227.939 24.9367,0 0,-108.214 -24.9367,0 0,108.214 z" />
        <rect
           style="fill:none;stroke:none"
           id="rect4441"
           height="108.27976"
           width="25.069048"
           y="16119.727"
           x="1564.3608" />
        <path
           style="fill:#b58900;stroke:none"
           inkscape:connector-curvature="0"
           id="path4443"
           d="m 1514.5534,16227.939 24.9368,0 0,-108.214 -24.9368,0 0,108.214 z" />
        <rect
           style="fill:none;stroke:none"
           id="rect4445"
           height="108.27976"
           width="25.069048"
           y="16119.727"
           x="1514.4873" />
        <path
           style="fill:#b58900;stroke:none"
           inkscape:connector-curvature="0"
           id="path4447"
           d="m 1464.7461,16227.939 24.9367,0 0,-108.214 -24.9367,0 0,108.214 z" />
        <rect
           style="fill:none;stroke:none"
           id="rect4449"
           height="108.27976"
           width="25.069048"
           y="16119.727"
           x="1464.6799" />
        <path
           style="fill:#b58900;stroke:none"
           inkscape:connector-curvature="0"
           id="path4451"
           d="m 1414.8726,16227.939 24.9367,0 0,-108.214 -24.9367,0 0,108.214 z" />
        <rect
           style="fill:none;stroke:none"
           id="rect4453"
           height="108.27976"
           width="25.069048"
           y="16119.727"
           x="1414.8064" />
        <path
           style="fill:#b58900;stroke:none"
           inkscape:connector-curvature="0"
           id="path4455"
           d="m 1365.0652,16227.939 24.9367,0 0,-105.766 -24.9367,0 0,105.766 z" />
        <rect
           style="fill:none;stroke:none"
           id="rect4457"
           height="105.83239"
           width="25.002901"
           y="16122.174"
           x="1365.0652" />
        <path
           style="fill:#b58900;stroke:none"
           inkscape:connector-curvature="0"
           id="path4459"
           d="m 1315.2578,16227.939 24.8706,0 0,-100.871 -24.8706,0 0,100.871 z" />
        <rect
           style="fill:none;stroke:none"
           id="rect4461"
           height="100.93764"
           width="24.936756"
           y="16127.068"
           x="1315.2578" />
        <path
           style="fill:#b58900;stroke:none"
           inkscape:connector-curvature="0"
           id="path4463"
           d="m 1265.3843,16227.939 24.9368,0 0,-100.871 -24.9368,0 0,100.871 z" />
        <rect
           style="fill:none;stroke:none"
           id="rect4465"
           height="100.93764"
           width="25.002901"
           y="16127.068"
           x="1265.3843" />
        <path
           style="fill:#b58900;stroke:none"
           inkscape:connector-curvature="0"
           id="path4467"
           d="m 1215.5769,16227.939 24.8707,0 0,-98.358 -24.8707,0 0,98.358 z" />
        <rect
           style="fill:none;stroke:none"
           id="rect4469"
           height="98.424118"
           width="24.936756"
           y="16129.582"
           x="1215.5769" />
        <path
           style="fill:#b58900;stroke:none"
           inkscape:connector-curvature="0"
           id="path4471"
           d="m 1165.7034,16227.939 24.9368,0 0,-93.463 -24.9368,0 0,93.463 z" />
        <rect
           style="fill:none;stroke:none"
           id="rect4473"
           height="93.529373"
           width="25.002901"
           y="16134.477"
           x="1165.7034" />
        <path
           style="fill:#b58900;stroke:none"
           inkscape:connector-curvature="0"
           id="path4475"
           d="m 1115.8961,16227.939 24.8706,0 0,-86.121 -24.8706,0 0,86.121 z" />
        <rect
           style="fill:none;stroke:none"
           id="rect4477"
           height="86.187248"
           width="24.936756"
           y="16141.818"
           x="1115.896" />
        <path
           style="fill:#b58900;stroke:none"
           inkscape:connector-curvature="0"
           id="path4479"
           d="m 1066.0225,16227.939 24.9368,0 0,-76.265 -24.9368,0 0,76.265 z" />
        <rect
           style="fill:none;stroke:none"
           id="rect4481"
           height="76.397758"
           width="25.002901"
           y="16151.608"
           x="1066.0226" />
        <path
           style="fill:#b58900;stroke:none"
           inkscape:connector-curvature="0"
           id="path4483"
           d="m 1016.2152,16227.939 24.9367,0 0,-2.513 -24.9367,0 0,2.513 z" />
        <rect
           style="fill:none;stroke:none"
           id="rect4485"
           height="2.5796645"
           width="25.069048"
           y="16225.426"
           x="1016.149" />
        <path
           style="fill:#268bd2;stroke:none"
           inkscape:connector-curvature="0"
           id="path4487"
           d="m 2511.2961,16124.62 24.9368,0 0,-449.92 -24.9368,0 0,449.92 z" />
        <rect
           style="fill:none;stroke:none"
           id="rect4489"
           height="450.05225"
           width="25.002901"
           y="15674.635"
           x="2511.2961" />
        <path
           style="fill:#268bd2;stroke:none"
           inkscape:connector-curvature="0"
           id="path4491"
           d="m 2461.4887,16124.62 24.9368,0 0,-449.92 -24.9368,0 0,449.92 z" />
        <rect
           style="fill:none;stroke:none"
           id="rect4493"
           height="450.05225"
           width="25.069048"
           y="15674.635"
           x="2461.4226" />
        <path
           style="fill:#268bd2;stroke:none"
           inkscape:connector-curvature="0"
           id="path4495"
           d="m 2411.6814,16124.62 24.8706,0 0,-445.025 -24.8706,0 0,445.025 z" />
        <rect
           style="fill:none;stroke:none"
           id="rect4497"
           height="445.09134"
           width="24.936756"
           y="15679.596"
           x="2411.6814" />
        <path
           style="fill:#268bd2;stroke:none"
           inkscape:connector-curvature="0"
           id="path4499"
           d="m 2361.8079,16124.62 24.9367,0 0,-437.617 -24.9367,0 0,437.617 z" />
        <rect
           style="fill:none;stroke:none"
           id="rect4501"
           height="437.68307"
           width="25.069048"
           y="15687.004"
           x="2361.7417" />
        <path
           style="fill:#268bd2;stroke:none"
           inkscape:connector-curvature="0"
           id="path4503"
           d="m 2312.0005,16119.725 24.8706,0 0,-430.274 -24.8706,0 0,430.274 z" />
        <rect
           style="fill:none;stroke:none"
           id="rect4505"
           height="430.34094"
           width="24.936756"
           y="15689.451"
           x="2312.0005" />
        <path
           style="fill:#268bd2;stroke:none"
           inkscape:connector-curvature="0"
           id="path4507"
           d="m 2262.127,16119.725 24.9367,0 0,-417.971 -24.9367,0 0,417.971 z" />
        <rect
           style="fill:none;stroke:none"
           id="rect4509"
           height="418.03793"
           width="25.069048"
           y="15701.754"
           x="2262.0608" />
        <path
           style="fill:#268bd2;stroke:none"
           inkscape:connector-curvature="0"
           id="path4511"
           d="m 2212.3196,16119.725 24.8706,0 0,-415.524 -24.8706,0 0,415.524 z" />
        <rect
           style="fill:none;stroke:none"
           id="rect4513"
           height="415.59058"
           width="24.936756"
           y="15704.201"
           x="2212.3196" />
        <path
           style="fill:#268bd2;stroke:none"
           inkscape:connector-curvature="0"
           id="path4515"
           d="m 2162.4461,16119.725 24.9368,0 0,-413.077 -24.9368,0 0,413.077 z" />
        <rect
           style="fill:none;stroke:none"
           id="rect4517"
           height="413.14319"
           width="25.002901"
           y="15706.649"
           x="2162.446" />
        <path
           style="fill:#268bd2;stroke:none"
           inkscape:connector-curvature="0"
           id="path4519"
           d="m 2112.6387,16119.725 24.9368,0 0,-405.668 -24.9368,0 0,405.668 z" />
        <rect
           style="fill:none;stroke:none"
           id="rect4521"
           height="405.73492"
           width="25.002901"
           y="15714.058"
           x="2112.6387" />
        <path
           style="fill:#268bd2;stroke:none"
           inkscape:connector-curvature="0"
           id="path4523"
           d="m 2062.7652,16119.725 24.9368,0 0,-405.668 -24.9368,0 0,405.668 z" />
        <rect
           style="fill:none;stroke:none"
           id="rect4525"
           height="405.73492"
           width="25.002901"
           y="15714.058"
           x="2062.7651" />
        <path
           style="fill:#268bd2;stroke:none"
           inkscape:connector-curvature="0"
           id="path4527"
           d="m 2012.9578,16119.725 24.9368,0 0,-405.668 -24.9368,0 0,405.668 z" />
        <rect
           style="fill:none;stroke:none"
           id="rect4529"
           height="405.73492"
           width="25.002901"
           y="15714.058"
           x="2012.9578" />
        <path
           style="fill:#268bd2;stroke:none"
           inkscape:connector-curvature="0"
           id="path4531"
           d="m 1963.0843,16119.725 24.9368,0 0,-386.023 -24.9368,0 0,386.023 z" />
        <rect
           style="fill:none;stroke:none"
           id="rect4533"
           height="386.08978"
           width="25.002901"
           y="15733.701"
           x="1963.0842" />
        <path
           style="fill:#268bd2;stroke:none"
           inkscape:connector-curvature="0"
           id="path4535"
           d="m 1913.277,16119.725 24.9367,0 0,-383.576 -24.9367,0 0,383.576 z" />
        <rect
           style="fill:none;stroke:none"
           id="rect4537"
           height="383.64243"
           width="25.002901"
           y="15736.149"
           x="1913.2769" />
        <path
           style="fill:#268bd2;stroke:none"
           inkscape:connector-curvature="0"
           id="path4539"
           d="m 1863.4696,16119.725 24.8706,0 0,-386.023 -24.8706,0 0,386.023 z" />
        <rect
           style="fill:none;stroke:none"
           id="rect4541"
           height="386.08978"
           width="24.936756"
           y="15733.701"
           x="1863.4695" />
        <path
           style="fill:#268bd2;stroke:none"
           inkscape:connector-curvature="0"
           id="path4543"
           d="m 1813.5961,16119.725 24.9367,0 0,-386.023 -24.9367,0 0,386.023 z" />
        <rect
           style="fill:none;stroke:none"
           id="rect4545"
           height="386.08978"
           width="25.002901"
           y="15733.701"
           x="1813.5959" />
        <path
           style="fill:#268bd2;stroke:none"
           inkscape:connector-curvature="0"
           id="path4547"
           d="m 1763.7887,16119.725 24.8706,0 0,-386.023 -24.8706,0 0,386.023 z" />
        <rect
           style="fill:none;stroke:none"
           id="rect4549"
           height="386.08978"
           width="24.936756"
           y="15733.701"
           x="1763.7888" />
        <path
           style="fill:#268bd2;stroke:none"
           inkscape:connector-curvature="0"
           id="path4551"
           d="m 1713.9152,16119.725 24.9368,0 0,-376.168 -24.9368,0 0,376.168 z" />
        <rect
           style="fill:none;stroke:none"
           id="rect4553"
           height="376.23413"
           width="25.002901"
           y="15743.558"
           x="1713.9153" />
        <path
           style="fill:#268bd2;stroke:none"
           inkscape:connector-curvature="0"
           id="path4555"
           d="m 1664.1078,16119.725 24.8706,0 0,-371.273 -24.8706,0 0,371.273 z" />
        <rect
           style="fill:none;stroke:none"
           id="rect4557"
           height="371.33939"
           width="24.936756"
           y="15748.453"
           x="1664.1079" />
        <path
           style="fill:#268bd2;stroke:none"
           inkscape:connector-curvature="0"
           id="path4559"
           d="m 1614.2343,16119.725 24.9368,0 0,-368.825 -24.9368,0 0,368.825 z" />
        <rect
           style="fill:none;stroke:none"
           id="rect4561"
           height="368.89203"
           width="25.069048"
           y="15750.9"
           x="1614.1682" />
        <path
           style="fill:#268bd2;stroke:none"
           inkscape:connector-curvature="0"
           id="path4563"
           d="m 1564.427,16119.725 24.9367,0 0,-363.931 -24.9367,0 0,363.931 z" />
        <rect
           style="fill:none;stroke:none"
           id="rect4565"
           height="363.99728"
           width="25.069048"
           y="15755.795"
           x="1564.3608" />
        <path
           style="fill:#268bd2;stroke:none"
           inkscape:connector-curvature="0"
           id="path4567"
           d="m 1514.5534,16119.725 24.9368,0 0,-363.931 -24.9368,0 0,363.931 z" />
        <rect
           style="fill:none;stroke:none"
           id="rect4569"
           height="363.99728"
           width="25.069048"
           y="15755.795"
           x="1514.4873" />
        <path
           style="fill:#268bd2;stroke:none"
           inkscape:connector-curvature="0"
           id="path4571"
           d="m 1464.7461,16119.725 24.9367,0 0,-356.522 -24.9367,0 0,356.522 z" />
        <rect
           style="fill:none;stroke:none"
           id="rect4573"
           height="356.58902"
           width="25.069048"
           y="15763.203"
           x="1464.6799" />
        <path
           style="fill:#268bd2;stroke:none"
           inkscape:connector-curvature="0"
           id="path4575"
           d="m 1414.8726,16119.725 24.9367,0 0,-346.667 -24.9367,0 0,346.667 z" />
        <rect
           style="fill:none;stroke:none"
           id="rect4577"
           height="346.73337"
           width="25.069048"
           y="15773.059"
           x="1414.8064" />
        <path
           style="fill:#268bd2;stroke:none"
           inkscape:connector-curvature="0"
           id="path4579"
           d="m 1365.0652,16122.173 24.9367,0 0,-344.22 -24.9367,0 0,344.22 z" />
        <rect
           style="fill:none;stroke:none"
           id="rect4581"
           height="344.28598"
           width="25.002901"
           y="15777.954"
           x="1365.0652" />
        <path
           style="fill:#268bd2;stroke:none"
           inkscape:connector-curvature="0"
           id="path4583"
           d="m 1315.2578,16127.068 24.8706,0 0,-322.062 -24.8706,0 0,322.062 z" />
        <rect
           style="fill:none;stroke:none"
           id="rect4585"
           height="322.12732"
           width="24.936756"
           y="15805.007"
           x="1315.2578" />
        <path
           style="fill:#268bd2;stroke:none"
           inkscape:connector-curvature="0"
           id="path4587"
           d="m 1265.3843,16127.068 24.9368,0 0,-322.062 -24.9368,0 0,322.062 z" />
        <rect
           style="fill:none;stroke:none"
           id="rect4589"
           height="322.12732"
           width="25.002901"
           y="15805.007"
           x="1265.3843" />
        <path
           style="fill:#268bd2;stroke:none"
           inkscape:connector-curvature="0"
           id="path4591"
           d="m 1215.5769,16129.581 24.8707,0 0,-302.482 -24.8707,0 0,302.482 z" />
        <rect
           style="fill:none;stroke:none"
           id="rect4593"
           height="302.54834"
           width="24.936756"
           y="15827.1"
           x="1215.5769" />
        <path
           style="fill:#268bd2;stroke:none"
           inkscape:connector-curvature="0"
           id="path4595"
           d="m 1165.7034,16134.476 24.9368,0 0,-265.573 -24.9368,0 0,265.573 z" />
        <rect
           style="fill:none;stroke:none"
           id="rect4597"
           height="265.63928"
           width="25.002901"
           y="15868.903"
           x="1165.7034" />
        <path
           style="fill:#268bd2;stroke:none"
           inkscape:connector-curvature="0"
           id="path4599"
           d="m 1115.8961,16141.818 24.8706,0 0,-248.309 -24.8706,0 0,248.309 z" />
        <rect
           style="fill:none;stroke:none"
           id="rect4601"
           height="248.44153"
           width="24.936756"
           y="15893.443"
           x="1115.896" />
        <path
           style="fill:#268bd2;stroke:none"
           inkscape:connector-curvature="0"
           id="path4603"
           d="m 1066.0225,16151.674 24.9368,0 0,-216.362 -24.9368,0 0,216.362 z" />
        <rect
           style="fill:none;stroke:none"
           id="rect4605"
           height="216.49338"
           width="25.002901"
           y="15935.247"
           x="1066.0226" />
        <path
           style="fill:#268bd2;stroke:none"
           inkscape:connector-curvature="0"
           id="path4607"
           d="m 1016.2152,16225.426 24.9367,0 0,-22.093 -24.9367,0 0,22.093 z" />
        <rect
           style="fill:none;stroke:none"
           id="rect4609"
           height="22.158657"
           width="25.069048"
           y="16203.334"
           x="1016.149" />
        <g
           id="text6939"
           style="font-size:40px;font-style:normal;font-variant:normal;font-weight:normal;font-stretch:normal;line-height:125%;letter-spacing:0px;word-spacing:0px;fill:#657b83;fill-opacity:1;stroke:none;font-family:Latin Modern Sans;-inkscape-font-specification:Latin Modern Sans">
          <path
             id="path10237"
             style=""
             d="m 945.64695,15623.052 0,-2.84 -7.28,0 c -0.48,0 -0.96,0.04 -1.44,0.04 l -4.36,0 c 1.28,-1.12 4.32,-4.12 5.56,-5.28 0.76,-0.72 2.8,-2.4 3.56,-3.12 1.8,-1.8 3.96,-3.92 3.96,-7.32 0,-4.6 -3.24,-8.6 -8.52,-8.6 -4.55999,0 -6.8,3.12 -7.76,6.56 0.48,0.68 0.68,0.92 0.76,1.04 0.08,0.08 0.48,0.6 0.88,1.16 0.8,-3.08 1.92,-6.2 5.56,-6.2 3.76,0 5.8,3 5.8,6.12 0,3.4 -2.28,5.68 -4.64,8.08 l -3.08,2.84 -4.96,4.96 0,2.56 15.96,0" />
          <path
             id="path10239"
             style=""
             d="m 965.64695,15614.932 c 0,-5 -3.44,-8.96 -7.56,-8.96 -1.6,0 -3.12,0.6 -4.28,1.64 l 0,-8.24 10.52,0 0,-2.56 -13.4,0 0,14.76 2.64,0 c 0.68,-1.6 2.16,-3.16 4.48,-3.16 1.88,0 4.04,1.64 4.04,6.44 0,6.64 -4.88,6.64 -5.24,6.64 -2.68,0 -5.12,-1.56 -6.28,-3.72 l -1.32,2.24 c 1.64,2.28 4.4,3.92 7.64,3.92 4.76,0 8.76,-3.96 8.76,-9" />
          <path
             id="path10241"
             style=""
             d="m 985.96695,15610.012 c 0,-3.16 -0.16,-6.88 -1.84,-10.12 -1.64,-3 -4.4,-3.96 -6.44,-3.96 -2.36,0 -5.16,1.08 -6.8,4.64 -1.32,2.92 -1.52,6.24 -1.52,9.44 0,3.16 0.16,6.08 1.36,9 1.6,3.84 4.64,4.92 6.92,4.92 2.92,0 5.44,-1.64 6.72,-4.4 1.2,-2.6 1.6,-5.24 1.6,-9.52 m -3.12,-0.48 c 0,2.64 0,5.16 -0.72,7.68 -1.04,3.64 -3.16,4.28 -4.44,4.28 -2.08,0 -3.72,-1.52 -4.52,-4.4 -0.64,-2.28 -0.68,-4.44 -0.68,-7.56 0,-2.52 0,-4.92 0.68,-7.12 0.24,-0.76 1.24,-4.04 4.48,-4.04 3.12,0 4.16,3.04 4.44,3.76 0.76,2.24 0.76,4.92 0.76,7.4" />
        </g>
        <g
           id="text6939-6"
           style="font-size:40px;font-style:normal;font-variant:normal;font-weight:normal;font-stretch:normal;line-height:125%;letter-spacing:0px;word-spacing:0px;fill:#657b83;fill-opacity:1;stroke:none;visibility:visible;font-family:Latin Modern Sans;-inkscape-font-specification:Latin Modern Sans">
          <path
             id="path10230"
             style=""
             d="m 945.64695,15746.574 0,-2.84 -7.28,0 c -0.48,0 -0.96,0.04 -1.44,0.04 l -4.36,0 c 1.28,-1.12 4.32,-4.12 5.56,-5.28 0.76,-0.72 2.8,-2.4 3.56,-3.12 1.8,-1.8 3.96,-3.92 3.96,-7.32 0,-4.6 -3.24,-8.6 -8.52,-8.6 -4.55999,0 -6.8,3.12 -7.76,6.56 0.48,0.68 0.68,0.92 0.76,1.04 0.08,0.08 0.48,0.6 0.88,1.16 0.8,-3.08 1.92,-6.2 5.56,-6.2 3.76,0 5.8,3 5.8,6.12 0,3.4 -2.28,5.68 -4.64,8.08 l -3.08,2.84 -4.96,4.96 0,2.56 15.96,0" />
          <path
             id="path10232"
             style=""
             d="m 965.96695,15733.534 c 0,-3.16 -0.16,-6.88 -1.84,-10.12 -1.64,-3 -4.4,-3.96 -6.44,-3.96 -2.36,0 -5.16,1.08 -6.8,4.64 -1.32,2.92 -1.52,6.24 -1.52,9.44 0,3.16 0.16,6.08 1.36,9 1.6,3.84 4.64,4.92 6.92,4.92 2.92,0 5.44,-1.64 6.72,-4.4 1.2,-2.6 1.6,-5.24 1.6,-9.52 m -3.12,-0.48 c 0,2.64 0,5.16 -0.72,7.68 -1.04,3.64 -3.16,4.28 -4.44,4.28 -2.08,0 -3.72,-1.52 -4.52,-4.4 -0.64,-2.28 -0.68,-4.44 -0.68,-7.56 0,-2.52 0,-4.92 0.68,-7.12 0.24,-0.76 1.24,-4.04 4.48,-4.04 3.12,0 4.16,3.04 4.44,3.76 0.76,2.24 0.76,4.92 0.76,7.4" />
          <path
             id="path10234"
             style=""
             d="m 985.96695,15733.534 c 0,-3.16 -0.16,-6.88 -1.84,-10.12 -1.64,-3 -4.4,-3.96 -6.44,-3.96 -2.36,0 -5.16,1.08 -6.8,4.64 -1.32,2.92 -1.52,6.24 -1.52,9.44 0,3.16 0.16,6.08 1.36,9 1.6,3.84 4.64,4.92 6.92,4.92 2.92,0 5.44,-1.64 6.72,-4.4 1.2,-2.6 1.6,-5.24 1.6,-9.52 m -3.12,-0.48 c 0,2.64 0,5.16 -0.72,7.68 -1.04,3.64 -3.16,4.28 -4.44,4.28 -2.08,0 -3.72,-1.52 -4.52,-4.4 -0.64,-2.28 -0.68,-4.44 -0.68,-7.56 0,-2.52 0,-4.92 0.68,-7.12 0.24,-0.76 1.24,-4.04 4.48,-4.04 3.12,0 4.16,3.04 4.44,3.76 0.76,2.24 0.76,4.92 0.76,7.4" />
        </g>
        <g
           id="text6939-9"
           style="font-size:40px;font-style:normal;font-variant:normal;font-weight:normal;font-stretch:normal;line-height:125%;letter-spacing:0px;word-spacing:0px;fill:#657b83;fill-opacity:1;stroke:none;visibility:visible;font-family:Latin Modern Sans;-inkscape-font-specification:Latin Modern Sans">
          <path
             id="path10223"
             style=""
             d="m 944.64695,15870.097 0,-2.32 -5,0 0,-24.8 -0.8,0 c -2.36,2.44 -5.68,2.56 -7.6,2.64 l 0,2.32 c 1.32,-0.04 3.24,-0.12 5.24,-0.96 l 0,20.8 -5,0 0,2.32 13.16,0" />
          <path
             id="path10225"
             style=""
             d="m 965.64695,15861.977 c 0,-5 -3.44,-8.96 -7.56,-8.96 -1.6,0 -3.12,0.6 -4.28,1.64 l 0,-8.24 10.52,0 0,-2.56 -13.4,0 0,14.76 2.64,0 c 0.68,-1.6 2.16,-3.16 4.48,-3.16 1.88,0 4.04,1.64 4.04,6.44 0,6.64 -4.88,6.64 -5.24,6.64 -2.68,0 -5.12,-1.56 -6.28,-3.72 l -1.32,2.24 c 1.64,2.28 4.4,3.92 7.64,3.92 4.76,0 8.76,-3.96 8.76,-9" />
          <path
             id="path10227"
             style=""
             d="m 985.96695,15857.057 c 0,-3.16 -0.16,-6.88 -1.84,-10.12 -1.64,-3 -4.4,-3.96 -6.44,-3.96 -2.36,0 -5.16,1.08 -6.8,4.64 -1.32,2.92 -1.52,6.24 -1.52,9.44 0,3.16 0.16,6.08 1.36,9 1.6,3.84 4.64,4.92 6.92,4.92 2.92,0 5.44,-1.64 6.72,-4.4 1.2,-2.6 1.6,-5.24 1.6,-9.52 m -3.12,-0.48 c 0,2.64 0,5.16 -0.72,7.68 -1.04,3.64 -3.16,4.28 -4.44,4.28 -2.08,0 -3.72,-1.52 -4.52,-4.4 -0.64,-2.28 -0.68,-4.44 -0.68,-7.56 0,-2.52 0,-4.92 0.68,-7.12 0.24,-0.76 1.24,-4.04 4.48,-4.04 3.12,0 4.16,3.04 4.44,3.76 0.76,2.24 0.76,4.92 0.76,7.4" />
        </g>
        <g
           id="text6939-5"
           style="font-size:40px;font-style:normal;font-variant:normal;font-weight:normal;font-stretch:normal;line-height:125%;letter-spacing:0px;word-spacing:0px;fill:#657b83;fill-opacity:1;stroke:none;visibility:visible;font-family:Latin Modern Sans;-inkscape-font-specification:Latin Modern Sans">
          <path
             id="path10216"
             style=""
             d="m 944.64695,15993.62 0,-2.32 -5,0 0,-24.8 -0.8,0 c -2.36,2.44 -5.68,2.56 -7.6,2.64 l 0,2.32 c 1.32,-0.04 3.24,-0.12 5.24,-0.96 l 0,20.8 -5,0 0,2.32 13.16,0" />
          <path
             id="path10218"
             style=""
             d="m 965.96695,15980.58 c 0,-3.16 -0.16,-6.88 -1.84,-10.12 -1.64,-3 -4.4,-3.96 -6.44,-3.96 -2.36,0 -5.16,1.08 -6.8,4.64 -1.32,2.92 -1.52,6.24 -1.52,9.44 0,3.16 0.16,6.08 1.36,9 1.6,3.84 4.64,4.92 6.92,4.92 2.92,0 5.44,-1.64 6.72,-4.4 1.2,-2.6 1.6,-5.24 1.6,-9.52 m -3.12,-0.48 c 0,2.64 0,5.16 -0.72,7.68 -1.04,3.64 -3.16,4.28 -4.44,4.28 -2.08,0 -3.72,-1.52 -4.52,-4.4 -0.64,-2.28 -0.68,-4.44 -0.68,-7.56 0,-2.52 0,-4.92 0.68,-7.12 0.24,-0.76 1.24,-4.04 4.48,-4.04 3.12,0 4.16,3.04 4.44,3.76 0.76,2.24 0.76,4.92 0.76,7.4" />
          <path
             id="path10220"
             style=""
             d="m 985.96695,15980.58 c 0,-3.16 -0.16,-6.88 -1.84,-10.12 -1.64,-3 -4.4,-3.96 -6.44,-3.96 -2.36,0 -5.16,1.08 -6.8,4.64 -1.32,2.92 -1.52,6.24 -1.52,9.44 0,3.16 0.16,6.08 1.36,9 1.6,3.84 4.64,4.92 6.92,4.92 2.92,0 5.44,-1.64 6.72,-4.4 1.2,-2.6 1.6,-5.24 1.6,-9.52 m -3.12,-0.48 c 0,2.64 0,5.16 -0.72,7.68 -1.04,3.64 -3.16,4.28 -4.44,4.28 -2.08,0 -3.72,-1.52 -4.52,-4.4 -0.64,-2.28 -0.68,-4.44 -0.68,-7.56 0,-2.52 0,-4.92 0.68,-7.12 0.24,-0.76 1.24,-4.04 4.48,-4.04 3.12,0 4.16,3.04 4.44,3.76 0.76,2.24 0.76,4.92 0.76,7.4" />
        </g>
        <g
           id="text6939-0"
           style="font-size:40px;font-style:normal;font-variant:normal;font-weight:normal;font-stretch:normal;line-height:125%;letter-spacing:0px;word-spacing:0px;fill:#657b83;fill-opacity:1;stroke:none;visibility:visible;font-family:Latin Modern Sans;-inkscape-font-specification:Latin Modern Sans">
          <path
             id="path10211"
             style=""
             d="m 965.64695,16109.023 c 0,-5 -3.44,-8.96 -7.56,-8.96 -1.6,0 -3.12,0.6 -4.28,1.64 l 0,-8.24 10.52,0 0,-2.56 -13.4,0 0,14.76 2.64,0 c 0.68,-1.6 2.16,-3.16 4.48,-3.16 1.88,0 4.04,1.64 4.04,6.44 0,6.64 -4.88,6.64 -5.24,6.64 -2.68,0 -5.12,-1.56 -6.28,-3.72 l -1.32,2.24 c 1.64,2.28 4.4,3.92 7.64,3.92 4.76,0 8.76,-3.96 8.76,-9" />
          <path
             id="path10213"
             style=""
             d="m 985.96695,16104.103 c 0,-3.16 -0.16,-6.88 -1.84,-10.12 -1.64,-3 -4.4,-3.96 -6.44,-3.96 -2.36,0 -5.16,1.08 -6.8,4.64 -1.32,2.92 -1.52,6.24 -1.52,9.44 0,3.16 0.16,6.08 1.36,9 1.6,3.84 4.64,4.92 6.92,4.92 2.92,0 5.44,-1.64 6.72,-4.4 1.2,-2.6 1.6,-5.24 1.6,-9.52 m -3.12,-0.48 c 0,2.64 0,5.16 -0.72,7.68 -1.04,3.64 -3.16,4.28 -4.44,4.28 -2.08,0 -3.72,-1.52 -4.52,-4.4 -0.64,-2.28 -0.68,-4.44 -0.68,-7.56 0,-2.52 0,-4.92 0.68,-7.12 0.24,-0.76 1.24,-4.04 4.48,-4.04 3.12,0 4.16,3.04 4.44,3.76 0.76,2.24 0.76,4.92 0.76,7.4" />
        </g>
        <g
           id="text6939-64"
           style="font-size:40px;font-style:normal;font-variant:normal;font-weight:normal;font-stretch:normal;line-height:125%;letter-spacing:0px;word-spacing:0px;fill:#657b83;fill-opacity:1;stroke:none;visibility:visible;font-family:Latin Modern Sans;-inkscape-font-specification:Latin Modern Sans">
          <path
             id="path10208"
             style=""
             d="m 985.96695,16227.625 c 0,-3.16 -0.16,-6.88 -1.84,-10.12 -1.64,-3 -4.4,-3.96 -6.44,-3.96 -2.36,0 -5.16,1.08 -6.8,4.64 -1.32,2.92 -1.52,6.24 -1.52,9.44 0,3.16 0.16,6.08 1.36,9 1.6,3.84 4.64,4.92 6.92,4.92 2.92,0 5.44,-1.64 6.72,-4.4 1.2,-2.6 1.6,-5.24 1.6,-9.52 m -3.12,-0.48 c 0,2.64 0,5.16 -0.72,7.68 -1.04,3.64 -3.16,4.28 -4.44,4.28 -2.08,0 -3.72,-1.52 -4.52,-4.4 -0.64,-2.28 -0.68,-4.44 -0.68,-7.56 0,-2.52 0,-4.92 0.68,-7.12 0.24,-0.76 1.24,-4.04 4.48,-4.04 3.12,0 4.16,3.04 4.44,3.76 0.76,2.24 0.76,4.92 0.76,7.4" />
        </g>
        <g
           id="text7059"
           style="font-size:40px;font-style:normal;font-variant:normal;font-weight:normal;font-stretch:normal;line-height:125%;letter-spacing:0px;word-spacing:0px;fill:#657b83;fill-opacity:1;stroke:none;font-family:Latin Modern Sans;-inkscape-font-specification:Latin Modern Sans">
          <path
             id="path10203"
             style=""
             d="m 1030.2001,16286.037 0,-2.84 -7.28,0 c -0.48,0 -0.96,0.04 -1.44,0.04 l -4.36,0 c 1.28,-1.12 4.32,-4.12 5.56,-5.28 0.76,-0.72 2.8,-2.4 3.56,-3.12 1.8,-1.8 3.96,-3.92 3.96,-7.32 0,-4.6 -3.24,-8.6 -8.52,-8.6 -4.56,0 -6.8,3.12 -7.76,6.56 0.48,0.68 0.68,0.92 0.76,1.04 0.08,0.08 0.48,0.6 0.88,1.16 0.8,-3.08 1.92,-6.2 5.56,-6.2 3.76,0 5.8,3 5.8,6.12 0,3.4 -2.28,5.68 -4.64,8.08 l -3.08,2.84 -4.96,4.96 0,2.56 15.96,0" />
          <path
             id="path10205"
             style=""
             d="m 1049.2001,16286.037 0,-2.32 -5,0 0,-24.8 -0.8,0 c -2.36,2.44 -5.68,2.56 -7.6,2.64 l 0,2.32 c 1.32,-0.04 3.24,-0.12 5.24,-0.96 l 0,20.8 -5,0 0,2.32 13.16,0" />
        </g>
        <g
           id="text7059-5"
           style="font-size:40px;font-style:normal;font-variant:normal;font-weight:normal;font-stretch:normal;line-height:125%;letter-spacing:0px;word-spacing:0px;fill:#657b83;fill-opacity:1;stroke:none;visibility:visible;font-family:Latin Modern Sans;-inkscape-font-specification:Latin Modern Sans">
          <path
             id="path10198"
             style=""
             d="m 1080.0741,16286.037 0,-2.84 -7.28,0 c -0.48,0 -0.96,0.04 -1.44,0.04 l -4.36,0 c 1.28,-1.12 4.32,-4.12 5.56,-5.28 0.76,-0.72 2.8,-2.4 3.56,-3.12 1.8,-1.8 3.96,-3.92 3.96,-7.32 0,-4.6 -3.24,-8.6 -8.52,-8.6 -4.56,0 -6.8,3.12 -7.76,6.56 0.48,0.68 0.68,0.92 0.76,1.04 0.08,0.08 0.48,0.6 0.88,1.16 0.8,-3.08 1.92,-6.2 5.56,-6.2 3.76,0 5.8,3 5.8,6.12 0,3.4 -2.28,5.68 -4.64,8.08 l -3.08,2.84 -4.96,4.96 0,2.56 15.96,0" />
          <path
             id="path10200"
             style=""
             d="m 1100.0741,16286.037 0,-2.84 -7.28,0 c -0.48,0 -0.96,0.04 -1.44,0.04 l -4.36,0 c 1.28,-1.12 4.32,-4.12 5.56,-5.28 0.76,-0.72 2.8,-2.4 3.56,-3.12 1.8,-1.8 3.96,-3.92 3.96,-7.32 0,-4.6 -3.24,-8.6 -8.52,-8.6 -4.56,0 -6.8,3.12 -7.76,6.56 0.48,0.68 0.68,0.92 0.76,1.04 0.08,0.08 0.48,0.6 0.88,1.16 0.8,-3.08 1.92,-6.2 5.56,-6.2 3.76,0 5.8,3 5.8,6.12 0,3.4 -2.28,5.68 -4.64,8.08 l -3.08,2.84 -4.96,4.96 0,2.56 15.96,0" />
        </g>
        <g
           id="text7059-3"
           style="font-size:40px;font-style:normal;font-variant:normal;font-weight:normal;font-stretch:normal;line-height:125%;letter-spacing:0px;word-spacing:0px;fill:#657b83;fill-opacity:1;stroke:none;visibility:visible;font-family:Latin Modern Sans;-inkscape-font-specification:Latin Modern Sans">
          <path
             id="path10193"
             style=""
             d="m 1179.755,16286.037 0,-2.84 -7.28,0 c -0.48,0 -0.96,0.04 -1.44,0.04 l -4.36,0 c 1.28,-1.12 4.32,-4.12 5.56,-5.28 0.76,-0.72 2.8,-2.4 3.56,-3.12 1.8,-1.8 3.96,-3.92 3.96,-7.32 0,-4.6 -3.24,-8.6 -8.52,-8.6 -4.56,0 -6.8,3.12 -7.76,6.56 0.48,0.68 0.68,0.92 0.76,1.04 0.08,0.08 0.48,0.6 0.88,1.16 0.8,-3.08 1.92,-6.2 5.56,-6.2 3.76,0 5.8,3 5.8,6.12 0,3.4 -2.28,5.68 -4.64,8.08 l -3.08,2.84 -4.96,4.96 0,2.56 15.96,0" />
          <path
             id="path10195"
             style=""
             d="m 1200.635,16279.197 0,-2.44 -3.96,0 0,-16.96 -3.64,0 -10.12,16.96 0,2.44 10.6,0 0,6.84 3.16,0 0,-6.84 3.96,0 m -6.88,-2.44 -7.72,0 c 2.08,-3.44 7.68,-12.92 7.72,-15.2 l 0,15.2" />
        </g>
        <g
           id="text7059-6"
           style="font-size:40px;font-style:normal;font-variant:normal;font-weight:normal;font-stretch:normal;line-height:125%;letter-spacing:0px;word-spacing:0px;fill:#657b83;fill-opacity:1;stroke:none;visibility:visible;font-family:Latin Modern Sans;-inkscape-font-specification:Latin Modern Sans">
          <path
             id="path10188"
             style=""
             d="m 1129.8811,16285.598 0,-2.84 -7.28,0 c -0.48,0 -0.96,0.04 -1.44,0.04 l -4.36,0 c 1.28,-1.12 4.32,-4.12 5.56,-5.28 0.76,-0.72 2.8,-2.4 3.56,-3.12 1.8,-1.8 3.96,-3.92 3.96,-7.32 0,-4.6 -3.24,-8.6 -8.52,-8.6 -4.56,0 -6.8,3.12 -7.76,6.56 0.48,0.68 0.68,0.92 0.76,1.04 0.08,0.08 0.48,0.6 0.88,1.16 0.8,-3.08 1.92,-6.2 5.56,-6.2 3.76,0 5.8,3 5.8,6.12 0,3.4 -2.28,5.68 -4.64,8.08 l -3.08,2.84 -4.96,4.96 0,2.56 15.96,0" />
          <path
             id="path10190"
             style=""
             d="m 1150.2011,16278.398 c 0,-3.64 -2.8,-6.12 -5.52,-6.96 3.04,-1.64 4.44,-4.36 4.44,-6.88 0,-3.44 -3.32,-6.08 -7.28,-6.08 -3.08,0 -6,1.6 -7.68,4.4 l 1.44,2.16 c 1.16,-2.8 3.76,-4.24 6.2,-4.24 2.08,0 4.04,1.2 4.04,3.76 0,2.44 -1.64,4.8 -4.08,5.36 -0.24,0.04 -0.32,0.04 -3.16,0.28 l 0,2.44 2.84,0 c 4.32,0 5.2,3.72 5.2,5.72 0,3.12 -1.84,5.68 -4.92,5.68 -2.76,0 -5.92,-1.4 -7.68,-4.12 l -0.44,2.4 c 2.92,3.76 6.6,4.16 8.2,4.16 4.88,0 8.4,-3.88 8.4,-8.08" />
        </g>
        <g
           id="text7059-1"
           style="font-size:40px;font-style:normal;font-variant:normal;font-weight:normal;font-stretch:normal;line-height:125%;letter-spacing:0px;word-spacing:0px;fill:#657b83;fill-opacity:1;stroke:none;visibility:visible;font-family:Latin Modern Sans;-inkscape-font-specification:Latin Modern Sans">
          <path
             id="path10183"
             style=""
             d="m 1229.5621,16285.598 0,-2.84 -7.28,0 c -0.48,0 -0.96,0.04 -1.44,0.04 l -4.36,0 c 1.2799,-1.12 4.32,-4.12 5.56,-5.28 0.76,-0.72 2.8,-2.4 3.56,-3.12 1.7999,-1.8 3.96,-3.92 3.96,-7.32 0,-4.6 -3.2401,-8.6 -8.52,-8.6 -4.56,0 -6.8001,3.12 -7.76,6.56 0.48,0.68 0.68,0.92 0.76,1.04 0.08,0.08 0.48,0.6 0.88,1.16 0.7999,-3.08 1.92,-6.2 5.56,-6.2 3.7599,0 5.8,3 5.8,6.12 0,3.4 -2.2801,5.68 -4.64,8.08 l -3.08,2.84 -4.96,4.96 0,2.56 15.96,0" />
          <path
             id="path10185"
             style=""
             d="m 1249.5621,16277.478 c 0,-5 -3.4401,-8.96 -7.56,-8.96 -1.6,0 -3.1201,0.6 -4.28,1.64 l 0,-8.24 10.52,0 0,-2.56 -13.4,0 0,14.76 2.64,0 c 0.68,-1.6 2.16,-3.16 4.48,-3.16 1.8799,0 4.04,1.64 4.04,6.44 0,6.64 -4.88,6.64 -5.24,6.64 -2.68,0 -5.1201,-1.56 -6.28,-3.72 l -1.32,2.24 c 1.6399,2.28 4.4,3.92 7.64,3.92 4.7599,0 8.76,-3.96 8.76,-9" />
        </g>
        <g
           id="text7059-0"
           style="font-size:40px;font-style:normal;font-variant:normal;font-weight:normal;font-stretch:normal;line-height:125%;letter-spacing:0px;word-spacing:0px;fill:#657b83;fill-opacity:1;stroke:none;visibility:visible;font-family:Latin Modern Sans;-inkscape-font-specification:Latin Modern Sans">
          <path
             id="path10178"
             style=""
             d="m 1279.3702,16285.598 0,-2.84 -7.28,0 c -0.48,0 -0.96,0.04 -1.44,0.04 l -4.36,0 c 1.28,-1.12 4.32,-4.12 5.56,-5.28 0.76,-0.72 2.8,-2.4 3.56,-3.12 1.8,-1.8 3.96,-3.92 3.96,-7.32 0,-4.6 -3.24,-8.6 -8.52,-8.6 -4.56,0 -6.8,3.12 -7.76,6.56 0.48,0.68 0.68,0.92 0.76,1.04 0.08,0.08 0.48,0.6 0.88,1.16 0.8,-3.08 1.92,-6.2 5.56,-6.2 3.76,0 5.8,3 5.8,6.12 0,3.4 -2.28,5.68 -4.64,8.08 l -3.08,2.84 -4.96,4.96 0,2.56 15.96,0" />
          <path
             id="path10180"
             style=""
             d="m 1299.6902,16276.718 c 0,-5.12 -2.64,-9.6 -6.48,-9.6 -1.28,0 -4.32,0.32 -6.76,3.32 0.52,-6.44 3.68,-9.64 7.36,-9.64 1.52,0 2.8,0.28 4.2,0.84 l 0,-2.36 c -2.04,-0.8 -3.68,-0.8 -4.24,-0.8 -5.64,0 -10.68,5.64 -10.68,14.24 0,11.32 4.96,13.76 8.36,13.76 2.4,0 4.12,-0.92 5.68,-2.72 1.8,-2.04 2.56,-3.88 2.56,-7.04 m -3.28,0 c 0,1.36 0,3.2 -0.96,4.84 -0.68,1.12 -1.72,2.48 -4,2.48 -4.24,0 -4.84,-5.88 -4.96,-7.2 0,-0.56 0,-0.64 0.04,-1.12 0,-2.96 1.8,-6.16 5.12,-6.16 1.92,0 3.04,1 3.84,2.48 0.84,1.48 0.92,2.88 0.92,4.68" />
        </g>
        <g
           id="text7059-7"
           style="font-size:40px;font-style:normal;font-variant:normal;font-weight:normal;font-stretch:normal;line-height:125%;letter-spacing:0px;word-spacing:0px;fill:#657b83;fill-opacity:1;stroke:none;visibility:visible;font-family:Latin Modern Sans;-inkscape-font-specification:Latin Modern Sans">
          <path
             id="path10173"
             style=""
             d="m 1329.2431,16285.818 0,-2.84 -7.28,0 c -0.48,0 -0.96,0.04 -1.44,0.04 l -4.36,0 c 1.28,-1.12 4.32,-4.12 5.56,-5.28 0.76,-0.72 2.8,-2.4 3.56,-3.12 1.8,-1.8 3.96,-3.92 3.96,-7.32 0,-4.6 -3.24,-8.6 -8.52,-8.6 -4.56,0 -6.8,3.12 -7.76,6.56 0.48,0.68 0.68,0.92 0.76,1.04 0.08,0.08 0.48,0.6 0.88,1.16 0.8,-3.08 1.92,-6.2 5.56,-6.2 3.76,0 5.8,3 5.8,6.12 0,3.4 -2.28,5.68 -4.64,8.08 l -3.08,2.84 -4.96,4.96 0,2.56 15.96,0" />
          <path
             id="path10175"
             style=""
             d="m 1349.5631,16262.178 0,-2.6 -16.6,0 0,2.84 7.6,0 c 0.48,0 0.96,-0.04 1.44,-0.04 l 4.84,0 c -5.92,6.52 -9.48,14.52 -9.48,23.88 l 3.36,0 c 0,-12 5.72,-20.56 8.84,-24.08" />
        </g>
        <g
           id="text7059-4"
           style="font-size:40px;font-style:normal;font-variant:normal;font-weight:normal;font-stretch:normal;line-height:125%;letter-spacing:0px;word-spacing:0px;fill:#657b83;fill-opacity:1;stroke:none;visibility:visible;font-family:Latin Modern Sans;-inkscape-font-specification:Latin Modern Sans">
          <path
             id="path10168"
             style=""
             d="m 1379.0501,16285.598 0,-2.84 -7.28,0 c -0.48,0 -0.96,0.04 -1.44,0.04 l -4.36,0 c 1.28,-1.12 4.32,-4.12 5.56,-5.28 0.76,-0.72 2.8,-2.4 3.56,-3.12 1.8,-1.8 3.96,-3.92 3.96,-7.32 0,-4.6 -3.24,-8.6 -8.52,-8.6 -4.56,0 -6.8,3.12 -7.76,6.56 0.48,0.68 0.68,0.92 0.76,1.04 0.08,0.08 0.48,0.6 0.88,1.16 0.8,-3.08 1.92,-6.2 5.56,-6.2 3.76,0 5.8,3 5.8,6.12 0,3.4 -2.28,5.68 -4.64,8.08 l -3.08,2.84 -4.96,4.96 0,2.56 15.96,0" />
          <path
             id="path10170"
             style=""
             d="m 1399.3701,16278.398 c 0,-3.64 -2.8,-6.08 -5.48,-7 3.56,-1.16 4.92,-3.8 4.92,-5.92 0,-3.76 -3.4,-7 -7.72,-7 -4.48,0 -7.76,3.32 -7.76,7 0,2.12 1.36,4.76 4.92,5.92 -2.88,1 -5.48,3.52 -5.48,7 0,4.36 3.68,8.08 8.28,8.08 4.76,0 8.32,-3.84 8.32,-8.08 m -3.36,-12.92 c 0,2.88 -2.04,4.72 -4.92,4.72 -3.08,0 -4.96,-1.96 -4.96,-4.72 0,-2.76 1.96,-4.68 4.92,-4.68 3.16,0 4.96,2.08 4.96,4.68 m 0.12,12.88 c 0,3.88 -2.48,5.68 -5.04,5.68 -2.76,0 -5.08,-1.92 -5.08,-5.68 0,-4.2 2.88,-5.72 5.04,-5.72 2.32,0 5.08,1.6 5.08,5.72" />
        </g>
        <g
           id="text7059-43"
           style="font-size:40px;font-style:normal;font-variant:normal;font-weight:normal;font-stretch:normal;line-height:125%;letter-spacing:0px;word-spacing:0px;fill:#657b83;fill-opacity:1;stroke:none;visibility:visible;font-family:Latin Modern Sans;-inkscape-font-specification:Latin Modern Sans">
          <path
             id="path10163"
             style=""
             d="m 1428.9241,16285.598 0,-2.84 -7.28,0 c -0.48,0 -0.96,0.04 -1.44,0.04 l -4.36,0 c 1.28,-1.12 4.32,-4.12 5.56,-5.28 0.76,-0.72 2.8,-2.4 3.56,-3.12 1.8,-1.8 3.96,-3.92 3.96,-7.32 0,-4.6 -3.24,-8.6 -8.52,-8.6 -4.56,0 -6.8,3.12 -7.76,6.56 0.48,0.68 0.68,0.92 0.76,1.04 0.08,0.08 0.48,0.6 0.88,1.16 0.8,-3.08 1.92,-6.2 5.56,-6.2 3.76,0 5.8,3 5.8,6.12 0,3.4 -2.28,5.68 -4.64,8.08 l -3.08,2.84 -4.96,4.96 0,2.56 15.96,0" />
          <path
             id="path10165"
             style=""
             d="m 1449.2441,16272.198 c 0,-11.2 -4.76,-13.72 -8.16,-13.72 -2.8,0 -4.44,1.2 -5.84,2.68 -2.52,2.72 -2.6,5.36 -2.6,7.08 0,5.12 2.64,9.6 6.48,9.6 2.48,0 5.04,-1.16 6.76,-3.32 -0.44,6.44 -3.52,9.52 -6.68,9.52 -1.36,0 -2.68,-0.32 -4.12,-1.52 l -1.24,2.12 c 1.36,1 2.84,1.84 5.32,1.84 5.24,0 10.08,-5.56 10.08,-14.28 m -3.44,-3.04 c 0,3.28 -1.96,6.24 -5.12,6.24 -1.88,0 -3,-0.92 -3.84,-2.4 -0.88,-1.56 -0.92,-3.04 -0.92,-4.76 0,-1.76 0.04,-3.4 1.16,-5.16 0.8,-1.16 1.92,-2.28 4,-2.28 3.92,0 4.6,5.44 4.68,7.4 0.04,0.28 0.04,0.68 0.04,0.96" />
        </g>
        <g
           id="text7059-9"
           style="font-size:40px;font-style:normal;font-variant:normal;font-weight:normal;font-stretch:normal;line-height:125%;letter-spacing:0px;word-spacing:0px;fill:#657b83;fill-opacity:1;stroke:none;visibility:visible;font-family:Latin Modern Sans;-inkscape-font-specification:Latin Modern Sans">
          <path
             id="path10158"
             style=""
             d="m 1479.1611,16278.398 c 0,-3.64 -2.8,-6.12 -5.52,-6.96 3.04,-1.64 4.44,-4.36 4.44,-6.88 0,-3.44 -3.32,-6.08 -7.28,-6.08 -3.08,0 -6,1.6 -7.68,4.4 l 1.44,2.16 c 1.16,-2.8 3.76,-4.24 6.2,-4.24 2.08,0 4.04,1.2 4.04,3.76 0,2.44 -1.64,4.8 -4.08,5.36 -0.24,0.04 -0.32,0.04 -3.16,0.28 l 0,2.44 2.84,0 c 4.32,0 5.2,3.72 5.2,5.72 0,3.12 -1.84,5.68 -4.92,5.68 -2.76,0 -5.92,-1.4 -7.68,-4.12 l -0.44,2.4 c 2.92,3.76 6.6,4.16 8.2,4.16 4.88,0 8.4,-3.88 8.4,-8.08" />
          <path
             id="path10160"
             style=""
             d="m 1499.1611,16272.558 c 0,-3.16 -0.16,-6.88 -1.84,-10.12 -1.64,-3 -4.4,-3.96 -6.44,-3.96 -2.36,0 -5.16,1.08 -6.8,4.64 -1.32,2.92 -1.52,6.24 -1.52,9.44 0,3.16 0.16,6.08 1.36,9 1.6,3.84 4.64,4.92 6.92,4.92 2.92,0 5.44,-1.64 6.72,-4.4 1.2,-2.6 1.6,-5.24 1.6,-9.52 m -3.12,-0.48 c 0,2.64 0,5.16 -0.72,7.68 -1.04,3.64 -3.16,4.28 -4.44,4.28 -2.08,0 -3.72,-1.52 -4.52,-4.4 -0.64,-2.28 -0.68,-4.44 -0.68,-7.56 0,-2.52 0,-4.92 0.68,-7.12 0.24,-0.76 1.24,-4.04 4.48,-4.04 3.12,0 4.16,3.04 4.44,3.76 0.76,2.24 0.76,4.92 0.76,7.4" />
        </g>
        <g
           id="text7059-39"
           style="font-size:40px;font-style:normal;font-variant:normal;font-weight:normal;font-stretch:normal;line-height:125%;letter-spacing:0px;word-spacing:0px;fill:#657b83;fill-opacity:1;stroke:none;visibility:visible;font-family:Latin Modern Sans;-inkscape-font-specification:Latin Modern Sans">
          <path
             id="path10153"
             style=""
             d="m 1529.0342,16278.398 c 0,-3.64 -2.8001,-6.12 -5.52,-6.96 3.0399,-1.64 4.44,-4.36 4.44,-6.88 0,-3.44 -3.3201,-6.08 -7.28,-6.08 -3.08,0 -6.0001,1.6 -7.68,4.4 l 1.44,2.16 c 1.1599,-2.8 3.76,-4.24 6.2,-4.24 2.0799,0 4.04,1.2 4.04,3.76 0,2.44 -1.6401,4.8 -4.08,5.36 -0.24,0.04 -0.3201,0.04 -3.16,0.28 l 0,2.44 2.84,0 c 4.3199,0 5.2,3.72 5.2,5.72 0,3.12 -1.8401,5.68 -4.92,5.68 -2.76,0 -5.9201,-1.4 -7.68,-4.12 l -0.44,2.4 c 2.9199,3.76 6.6,4.16 8.2,4.16 4.8799,0 8.4,-3.88 8.4,-8.08" />
          <path
             id="path10155"
             style=""
             d="m 1547.7142,16285.598 0,-2.32 -5,0 0,-24.8 -0.8,0 c -2.36,2.44 -5.6801,2.56 -7.6,2.64 l 0,2.32 c 1.3199,-0.04 3.24,-0.12 5.24,-0.96 l 0,20.8 -5,0 0,2.32 13.16,0" />
        </g>
        <g
           id="text7059-5-2"
           style="font-size:40px;font-style:normal;font-variant:normal;font-weight:normal;font-stretch:normal;line-height:125%;letter-spacing:0px;word-spacing:0px;fill:#657b83;fill-opacity:1;stroke:none;visibility:visible;font-family:Latin Modern Sans;-inkscape-font-specification:Latin Modern Sans">
          <path
             id="path10148"
             style=""
             d="m 1578.8412,16278.398 c 0,-3.64 -2.8,-6.12 -5.52,-6.96 3.04,-1.64 4.44,-4.36 4.44,-6.88 0,-3.44 -3.32,-6.08 -7.28,-6.08 -3.08,0 -6,1.6 -7.68,4.4 l 1.44,2.16 c 1.16,-2.8 3.76,-4.24 6.2,-4.24 2.08,0 4.04,1.2 4.04,3.76 0,2.44 -1.64,4.8 -4.08,5.36 -0.24,0.04 -0.32,0.04 -3.16,0.28 l 0,2.44 2.84,0 c 4.32,0 5.2,3.72 5.2,5.72 0,3.12 -1.84,5.68 -4.92,5.68 -2.76,0 -5.92,-1.4 -7.68,-4.12 l -0.44,2.4 c 2.92,3.76 6.6,4.16 8.2,4.16 4.88,0 8.4,-3.88 8.4,-8.08" />
          <path
             id="path10150"
             style=""
             d="m 1598.5212,16285.598 0,-2.84 -7.28,0 c -0.48,0 -0.96,0.04 -1.44,0.04 l -4.36,0 c 1.28,-1.12 4.32,-4.12 5.56,-5.28 0.76,-0.72 2.8,-2.4 3.56,-3.12 1.8,-1.8 3.96,-3.92 3.96,-7.32 0,-4.6 -3.24,-8.6 -8.52,-8.6 -4.56,0 -6.8,3.12 -7.76,6.56 0.48,0.68 0.68,0.92 0.76,1.04 0.08,0.08 0.48,0.6 0.88,1.16 0.8,-3.08 1.92,-6.2 5.56,-6.2 3.76,0 5.8,3 5.8,6.12 0,3.4 -2.28,5.68 -4.64,8.08 l -3.08,2.84 -4.96,4.96 0,2.56 15.96,0" />
        </g>
        <g
           id="text7059-3-7"
           style="font-size:40px;font-style:normal;font-variant:normal;font-weight:normal;font-stretch:normal;line-height:125%;letter-spacing:0px;word-spacing:0px;fill:#657b83;fill-opacity:1;stroke:none;visibility:visible;font-family:Latin Modern Sans;-inkscape-font-specification:Latin Modern Sans">
          <path
             id="path10143"
             style=""
             d="m 1678.5221,16278.398 c 0,-3.64 -2.8,-6.12 -5.52,-6.96 3.04,-1.64 4.44,-4.36 4.44,-6.88 0,-3.44 -3.32,-6.08 -7.28,-6.08 -3.08,0 -6,1.6 -7.68,4.4 l 1.44,2.16 c 1.16,-2.8 3.76,-4.24 6.2,-4.24 2.08,0 4.04,1.2 4.04,3.76 0,2.44 -1.64,4.8 -4.08,5.36 -0.24,0.04 -0.32,0.04 -3.16,0.28 l 0,2.44 2.84,0 c 4.32,0 5.2,3.72 5.2,5.72 0,3.12 -1.84,5.68 -4.92,5.68 -2.76,0 -5.92,-1.4 -7.68,-4.12 l -0.44,2.4 c 2.92,3.76 6.6,4.16 8.2,4.16 4.88,0 8.4,-3.88 8.4,-8.08" />
          <path
             id="path10145"
             style=""
             d="m 1699.0821,16278.758 0,-2.44 -3.96,0 0,-16.96 -3.64,0 -10.12,16.96 0,2.44 10.6,0 0,6.84 3.16,0 0,-6.84 3.96,0 m -6.88,-2.44 -7.72,0 c 2.08,-3.44 7.68,-12.92 7.72,-15.2 l 0,15.2" />
        </g>
        <g
           id="text7059-6-0"
           style="font-size:40px;font-style:normal;font-variant:normal;font-weight:normal;font-stretch:normal;line-height:125%;letter-spacing:0px;word-spacing:0px;fill:#657b83;fill-opacity:1;stroke:none;visibility:visible;font-family:Latin Modern Sans;-inkscape-font-specification:Latin Modern Sans">
          <path
             id="path10138"
             style=""
             d="m 1628.7151,16278.398 c 0,-3.64 -2.8,-6.12 -5.52,-6.96 3.04,-1.64 4.44,-4.36 4.44,-6.88 0,-3.44 -3.32,-6.08 -7.28,-6.08 -3.08,0 -6,1.6 -7.68,4.4 l 1.44,2.16 c 1.16,-2.8 3.76,-4.24 6.2,-4.24 2.08,0 4.04,1.2 4.04,3.76 0,2.44 -1.64,4.8 -4.08,5.36 -0.24,0.04 -0.32,0.04 -3.16,0.28 l 0,2.44 2.84,0 c 4.32,0 5.2,3.72 5.2,5.72 0,3.12 -1.84,5.68 -4.92,5.68 -2.76,0 -5.92,-1.4 -7.68,-4.12 l -0.44,2.4 c 2.92,3.76 6.6,4.16 8.2,4.16 4.88,0 8.4,-3.88 8.4,-8.08" />
          <path
             id="path10140"
             style=""
             d="m 1648.7151,16278.398 c 0,-3.64 -2.8,-6.12 -5.52,-6.96 3.04,-1.64 4.44,-4.36 4.44,-6.88 0,-3.44 -3.32,-6.08 -7.28,-6.08 -3.08,0 -6,1.6 -7.68,4.4 l 1.44,2.16 c 1.16,-2.8 3.76,-4.24 6.2,-4.24 2.08,0 4.04,1.2 4.04,3.76 0,2.44 -1.64,4.8 -4.08,5.36 -0.24,0.04 -0.32,0.04 -3.16,0.28 l 0,2.44 2.84,0 c 4.32,0 5.2,3.72 5.2,5.72 0,3.12 -1.84,5.68 -4.92,5.68 -2.76,0 -5.92,-1.4 -7.68,-4.12 l -0.44,2.4 c 2.92,3.76 6.6,4.16 8.2,4.16 4.88,0 8.4,-3.88 8.4,-8.08" />
        </g>
        <g
           id="text7059-1-3"
           style="font-size:40px;font-style:normal;font-variant:normal;font-weight:normal;font-stretch:normal;line-height:125%;letter-spacing:0px;word-spacing:0px;fill:#657b83;fill-opacity:1;stroke:none;visibility:visible;font-family:Latin Modern Sans;-inkscape-font-specification:Latin Modern Sans">
          <path
             id="path10133"
             style=""
             d="m 1728.3961,16278.398 c 0,-3.64 -2.8,-6.12 -5.52,-6.96 3.04,-1.64 4.44,-4.36 4.44,-6.88 0,-3.44 -3.32,-6.08 -7.28,-6.08 -3.08,0 -6,1.6 -7.68,4.4 l 1.44,2.16 c 1.16,-2.8 3.76,-4.24 6.2,-4.24 2.08,0 4.04,1.2 4.04,3.76 0,2.44 -1.64,4.8 -4.08,5.36 -0.24,0.04 -0.32,0.04 -3.16,0.28 l 0,2.44 2.84,0 c 4.32,0 5.2,3.72 5.2,5.72 0,3.12 -1.84,5.68 -4.92,5.68 -2.76,0 -5.92,-1.4 -7.68,-4.12 l -0.44,2.4 c 2.92,3.76 6.6,4.16 8.2,4.16 4.88,0 8.4,-3.88 8.4,-8.08" />
          <path
             id="path10135"
             style=""
             d="m 1748.0761,16277.478 c 0,-5 -3.44,-8.96 -7.56,-8.96 -1.6,0 -3.12,0.6 -4.28,1.64 l 0,-8.24 10.52,0 0,-2.56 -13.4,0 0,14.76 2.64,0 c 0.68,-1.6 2.16,-3.16 4.48,-3.16 1.88,0 4.04,1.64 4.04,6.44 0,6.64 -4.88,6.64 -5.24,6.64 -2.68,0 -5.12,-1.56 -6.28,-3.72 l -1.32,2.24 c 1.64,2.28 4.4,3.92 7.64,3.92 4.76,0 8.76,-3.96 8.76,-9" />
        </g>
        <g
           id="text7059-0-8"
           style="font-size:40px;font-style:normal;font-variant:normal;font-weight:normal;font-stretch:normal;line-height:125%;letter-spacing:0px;word-spacing:0px;fill:#657b83;fill-opacity:1;stroke:none;visibility:visible;font-family:Latin Modern Sans;-inkscape-font-specification:Latin Modern Sans">
          <path
             id="path10128"
             style=""
             d="m 1778.2031,16278.398 c 0,-3.64 -2.8,-6.12 -5.52,-6.96 3.04,-1.64 4.44,-4.36 4.44,-6.88 0,-3.44 -3.32,-6.08 -7.28,-6.08 -3.08,0 -6,1.6 -7.68,4.4 l 1.44,2.16 c 1.16,-2.8 3.76,-4.24 6.2,-4.24 2.08,0 4.04,1.2 4.04,3.76 0,2.44 -1.64,4.8 -4.08,5.36 -0.24,0.04 -0.32,0.04 -3.16,0.28 l 0,2.44 2.84,0 c 4.32,0 5.2,3.72 5.2,5.72 0,3.12 -1.84,5.68 -4.92,5.68 -2.76,0 -5.92,-1.4 -7.68,-4.12 l -0.44,2.4 c 2.92,3.76 6.6,4.16 8.2,4.16 4.88,0 8.4,-3.88 8.4,-8.08" />
          <path
             id="path10130"
             style=""
             d="m 1798.2031,16276.718 c 0,-5.12 -2.64,-9.6 -6.48,-9.6 -1.28,0 -4.32,0.32 -6.76,3.32 0.52,-6.44 3.68,-9.64 7.36,-9.64 1.52,0 2.8,0.28 4.2,0.84 l 0,-2.36 c -2.04,-0.8 -3.68,-0.8 -4.24,-0.8 -5.64,0 -10.68,5.64 -10.68,14.24 0,11.32 4.96,13.76 8.36,13.76 2.4,0 4.12,-0.92 5.68,-2.72 1.8,-2.04 2.56,-3.88 2.56,-7.04 m -3.28,0 c 0,1.36 0,3.2 -0.96,4.84 -0.68,1.12 -1.72,2.48 -4,2.48 -4.24,0 -4.84,-5.88 -4.96,-7.2 0,-0.56 0,-0.64 0.04,-1.12 0,-2.96 1.8,-6.16 5.12,-6.16 1.92,0 3.04,1 3.84,2.48 0.84,1.48 0.92,2.88 0.92,4.68" />
        </g>
        <g
           id="text7059-7-2"
           style="font-size:40px;font-style:normal;font-variant:normal;font-weight:normal;font-stretch:normal;line-height:125%;letter-spacing:0px;word-spacing:0px;fill:#657b83;fill-opacity:1;stroke:none;visibility:visible;font-family:Latin Modern Sans;-inkscape-font-specification:Latin Modern Sans">
          <path
             id="path10123"
             style=""
             d="m 1828.0111,16278.398 c 0,-3.64 -2.8,-6.12 -5.52,-6.96 3.04,-1.64 4.44,-4.36 4.44,-6.88 0,-3.44 -3.32,-6.08 -7.28,-6.08 -3.08,0 -6,1.6 -7.68,4.4 l 1.44,2.16 c 1.16,-2.8 3.76,-4.24 6.2,-4.24 2.08,0 4.04,1.2 4.04,3.76 0,2.44 -1.64,4.8 -4.08,5.36 -0.24,0.04 -0.32,0.04 -3.16,0.28 l 0,2.44 2.84,0 c 4.32,0 5.2,3.72 5.2,5.72 0,3.12 -1.84,5.68 -4.92,5.68 -2.76,0 -5.92,-1.4 -7.68,-4.12 l -0.44,2.4 c 2.92,3.76 6.6,4.16 8.2,4.16 4.88,0 8.4,-3.88 8.4,-8.08" />
          <path
             id="path10125"
             style=""
             d="m 1848.0111,16261.958 0,-2.6 -16.6,0 0,2.84 7.6,0 c 0.48,0 0.96,-0.04 1.44,-0.04 l 4.84,0 c -5.92,6.52 -9.48,14.52 -9.48,23.88 l 3.36,0 c 0,-12 5.72,-20.56 8.84,-24.08" />
        </g>
        <g
           id="text7059-4-0"
           style="font-size:40px;font-style:normal;font-variant:normal;font-weight:normal;font-stretch:normal;line-height:125%;letter-spacing:0px;word-spacing:0px;fill:#657b83;fill-opacity:1;stroke:none;visibility:visible;font-family:Latin Modern Sans;-inkscape-font-specification:Latin Modern Sans">
          <path
             id="path10118"
             style=""
             d="m 1877.8841,16278.398 c 0,-3.64 -2.8,-6.12 -5.52,-6.96 3.04,-1.64 4.44,-4.36 4.44,-6.88 0,-3.44 -3.32,-6.08 -7.28,-6.08 -3.08,0 -6,1.6 -7.68,4.4 l 1.44,2.16 c 1.16,-2.8 3.76,-4.24 6.2,-4.24 2.08,0 4.04,1.2 4.04,3.76 0,2.44 -1.64,4.8 -4.08,5.36 -0.24,0.04 -0.32,0.04 -3.16,0.28 l 0,2.44 2.84,0 c 4.32,0 5.2,3.72 5.2,5.72 0,3.12 -1.84,5.68 -4.92,5.68 -2.76,0 -5.92,-1.4 -7.68,-4.12 l -0.44,2.4 c 2.92,3.76 6.6,4.16 8.2,4.16 4.88,0 8.4,-3.88 8.4,-8.08" />
          <path
             id="path10120"
             style=""
             d="m 1897.8841,16278.398 c 0,-3.64 -2.8,-6.08 -5.48,-7 3.56,-1.16 4.92,-3.8 4.92,-5.92 0,-3.76 -3.4,-7 -7.72,-7 -4.48,0 -7.76,3.32 -7.76,7 0,2.12 1.36,4.76 4.92,5.92 -2.88,1 -5.48,3.52 -5.48,7 0,4.36 3.68,8.08 8.28,8.08 4.76,0 8.32,-3.84 8.32,-8.08 m -3.36,-12.92 c 0,2.88 -2.04,4.72 -4.92,4.72 -3.08,0 -4.96,-1.96 -4.96,-4.72 0,-2.76 1.96,-4.68 4.92,-4.68 3.16,0 4.96,2.08 4.96,4.68 m 0.12,12.88 c 0,3.88 -2.48,5.68 -5.04,5.68 -2.76,0 -5.08,-1.92 -5.08,-5.68 0,-4.2 2.88,-5.72 5.04,-5.72 2.32,0 5.08,1.6 5.08,5.72" />
        </g>
        <g
           id="text7059-43-6"
           style="font-size:40px;font-style:normal;font-variant:normal;font-weight:normal;font-stretch:normal;line-height:125%;letter-spacing:0px;word-spacing:0px;fill:#657b83;fill-opacity:1;stroke:none;visibility:visible;font-family:Latin Modern Sans;-inkscape-font-specification:Latin Modern Sans">
          <path
             id="path10113"
             style=""
             d="m 1927.6911,16278.398 c 0,-3.64 -2.8,-6.12 -5.52,-6.96 3.04,-1.64 4.44,-4.36 4.44,-6.88 0,-3.44 -3.32,-6.08 -7.28,-6.08 -3.08,0 -6,1.6 -7.68,4.4 l 1.44,2.16 c 1.16,-2.8 3.76,-4.24 6.2,-4.24 2.08,0 4.04,1.2 4.04,3.76 0,2.44 -1.64,4.8 -4.08,5.36 -0.24,0.04 -0.32,0.04 -3.16,0.28 l 0,2.44 2.84,0 c 4.32,0 5.2,3.72 5.2,5.72 0,3.12 -1.84,5.68 -4.92,5.68 -2.76,0 -5.92,-1.4 -7.68,-4.12 l -0.44,2.4 c 2.92,3.76 6.6,4.16 8.2,4.16 4.88,0 8.4,-3.88 8.4,-8.08" />
          <path
             id="path10115"
             style=""
             d="m 1947.6911,16272.198 c 0,-11.2 -4.76,-13.72 -8.16,-13.72 -2.8,0 -4.44,1.2 -5.84,2.68 -2.52,2.72 -2.6,5.36 -2.6,7.08 0,5.12 2.64,9.6 6.48,9.6 2.48,0 5.04,-1.16 6.76,-3.32 -0.44,6.44 -3.52,9.52 -6.68,9.52 -1.36,0 -2.68,-0.32 -4.12,-1.52 l -1.24,2.12 c 1.36,1 2.84,1.84 5.32,1.84 5.24,0 10.08,-5.56 10.08,-14.28 m -3.44,-3.04 c 0,3.28 -1.96,6.24 -5.12,6.24 -1.88,0 -3,-0.92 -3.84,-2.4 -0.88,-1.56 -0.92,-3.04 -0.92,-4.76 0,-1.76 0.04,-3.4 1.16,-5.16 0.8,-1.16 1.92,-2.28 4,-2.28 3.92,0 4.6,5.44 4.68,7.4 0.04,0.28 0.04,0.68 0.04,0.96" />
        </g>
        <g
           id="text7059-9-6"
           style="font-size:40px;font-style:normal;font-variant:normal;font-weight:normal;font-stretch:normal;line-height:125%;letter-spacing:0px;word-spacing:0px;fill:#657b83;fill-opacity:1;stroke:none;visibility:visible;font-family:Latin Modern Sans;-inkscape-font-specification:Latin Modern Sans">
          <path
             id="path10108"
             style=""
             d="m 1977.6651,16278.758 0,-2.44 -3.96,0 0,-16.96 -3.64,0 -10.12,16.96 0,2.44 10.6,0 0,6.84 3.16,0 0,-6.84 3.96,0 m -6.88,-2.44 -7.72,0 c 2.08,-3.44 7.68,-12.92 7.72,-15.2 l 0,15.2" />
          <path
             id="path10110"
             style=""
             d="m 1997.1051,16272.558 c 0,-3.16 -0.16,-6.88 -1.84,-10.12 -1.64,-3 -4.4,-3.96 -6.44,-3.96 -2.36,0 -5.16,1.08 -6.8,4.64 -1.32,2.92 -1.52,6.24 -1.52,9.44 0,3.16 0.16,6.08 1.36,9 1.6,3.84 4.64,4.92 6.92,4.92 2.92,0 5.44,-1.64 6.72,-4.4 1.2,-2.6 1.6,-5.24 1.6,-9.52 m -3.12,-0.48 c 0,2.64 0,5.16 -0.72,7.68 -1.04,3.64 -3.16,4.28 -4.44,4.28 -2.08,0 -3.72,-1.52 -4.52,-4.4 -0.64,-2.28 -0.68,-4.44 -0.68,-7.56 0,-2.52 0,-4.92 0.68,-7.12 0.24,-0.76 1.24,-4.04 4.48,-4.04 3.12,0 4.16,3.04 4.44,3.76 0.76,2.24 0.76,4.92 0.76,7.4" />
        </g>
        <g
           id="text7059-39-2"
           style="font-size:40px;font-style:normal;font-variant:normal;font-weight:normal;font-stretch:normal;line-height:125%;letter-spacing:0px;word-spacing:0px;fill:#657b83;fill-opacity:1;stroke:none;visibility:visible;font-family:Latin Modern Sans;-inkscape-font-specification:Latin Modern Sans">
          <path
             id="path10103"
             style=""
             d="m 2027.4721,16279.197 0,-2.44 -3.96,0 0,-16.96 -3.64,0 -10.12,16.96 0,2.44 10.6,0 0,6.84 3.16,0 0,-6.84 3.96,0 m -6.88,-2.44 -7.72,0 c 2.08,-3.44 7.68,-12.92 7.72,-15.2 l 0,15.2" />
          <path
             id="path10105"
             style=""
             d="m 2045.5921,16286.037 0,-2.32 -5,0 0,-24.8 -0.8,0 c -2.36,2.44 -5.68,2.56 -7.6,2.64 l 0,2.32 c 1.32,-0.04 3.24,-0.12 5.24,-0.96 l 0,20.8 -5,0 0,2.32 13.16,0" />
        </g>
        <g
           id="text7059-5-2-5"
           style="font-size:40px;font-style:normal;font-variant:normal;font-weight:normal;font-stretch:normal;line-height:125%;letter-spacing:0px;word-spacing:0px;fill:#657b83;fill-opacity:1;stroke:none;visibility:visible;font-family:Latin Modern Sans;-inkscape-font-specification:Latin Modern Sans">
          <path
             id="path10098"
             style=""
             d="m 2077.3461,16279.197 0,-2.44 -3.96,0 0,-16.96 -3.64,0 -10.12,16.96 0,2.44 10.6,0 0,6.84 3.16,0 0,-6.84 3.96,0 m -6.88,-2.44 -7.72,0 c 2.08,-3.44 7.68,-12.92 7.72,-15.2 l 0,15.2" />
          <path
             id="path10100"
             style=""
             d="m 2096.4661,16286.037 0,-2.84 -7.28,0 c -0.48,0 -0.96,0.04 -1.44,0.04 l -4.36,0 c 1.28,-1.12 4.32,-4.12 5.56,-5.28 0.76,-0.72 2.8,-2.4 3.56,-3.12 1.8,-1.8 3.96,-3.92 3.96,-7.32 0,-4.6 -3.24,-8.6 -8.52,-8.6 -4.56,0 -6.8,3.12 -7.76,6.56 0.48,0.68 0.68,0.92 0.76,1.04 0.08,0.08 0.48,0.6 0.88,1.16 0.8,-3.08 1.92,-6.2 5.56,-6.2 3.76,0 5.8,3 5.8,6.12 0,3.4 -2.28,5.68 -4.64,8.08 l -3.08,2.84 -4.96,4.96 0,2.56 15.96,0" />
        </g>
        <g
           id="text7059-3-7-6"
           style="font-size:40px;font-style:normal;font-variant:normal;font-weight:normal;font-stretch:normal;line-height:125%;letter-spacing:0px;word-spacing:0px;fill:#657b83;fill-opacity:1;stroke:none;visibility:visible;font-family:Latin Modern Sans;-inkscape-font-specification:Latin Modern Sans">
          <path
             id="path10093"
             style=""
             d="m 2177.027,16278.758 0,-2.44 -3.96,0 0,-16.96 -3.64,0 -10.12,16.96 0,2.44 10.6,0 0,6.84 3.16,0 0,-6.84 3.96,0 m -6.88,-2.44 -7.72,0 c 2.08,-3.44 7.68,-12.92 7.72,-15.2 l 0,15.2" />
          <path
             id="path10095"
             style=""
             d="m 2197.027,16278.758 0,-2.44 -3.96,0 0,-16.96 -3.64,0 -10.12,16.96 0,2.44 10.6,0 0,6.84 3.16,0 0,-6.84 3.96,0 m -6.88,-2.44 -7.72,0 c 2.08,-3.44 7.68,-12.92 7.72,-15.2 l 0,15.2" />
        </g>
        <g
           id="text7059-6-0-4"
           style="font-size:40px;font-style:normal;font-variant:normal;font-weight:normal;font-stretch:normal;line-height:125%;letter-spacing:0px;word-spacing:0px;fill:#657b83;fill-opacity:1;stroke:none;visibility:visible;font-family:Latin Modern Sans;-inkscape-font-specification:Latin Modern Sans">
          <path
             id="path10088"
             style=""
             d="m 2127.153,16278.758 0,-2.44 -3.96,0 0,-16.96 -3.64,0 -10.12,16.96 0,2.44 10.6,0 0,6.84 3.16,0 0,-6.84 3.96,0 m -6.88,-2.44 -7.72,0 c 2.08,-3.44 7.68,-12.92 7.72,-15.2 l 0,15.2" />
          <path
             id="path10090"
             style=""
             d="m 2146.593,16278.398 c 0,-3.64 -2.8,-6.12 -5.52,-6.96 3.04,-1.64 4.44,-4.36 4.44,-6.88 0,-3.44 -3.32,-6.08 -7.28,-6.08 -3.08,0 -6,1.6 -7.68,4.4 l 1.44,2.16 c 1.16,-2.8 3.76,-4.24 6.2,-4.24 2.08,0 4.04,1.2 4.04,3.76 0,2.44 -1.64,4.8 -4.08,5.36 -0.24,0.04 -0.32,0.04 -3.16,0.28 l 0,2.44 2.84,0 c 4.32,0 5.2,3.72 5.2,5.72 0,3.12 -1.84,5.68 -4.92,5.68 -2.76,0 -5.92,-1.4 -7.68,-4.12 l -0.44,2.4 c 2.92,3.76 6.6,4.16 8.2,4.16 4.88,0 8.4,-3.88 8.4,-8.08" />
        </g>
        <g
           id="text7059-1-3-6"
           style="font-size:40px;font-style:normal;font-variant:normal;font-weight:normal;font-stretch:normal;line-height:125%;letter-spacing:0px;word-spacing:0px;fill:#657b83;fill-opacity:1;stroke:none;visibility:visible;font-family:Latin Modern Sans;-inkscape-font-specification:Latin Modern Sans">
          <path
             id="path10083"
             style=""
             d="m 2226.8341,16278.318 0,-2.44 -3.96,0 0,-16.96 -3.64,0 -10.12,16.96 0,2.44 10.6,0 0,6.84 3.16,0 0,-6.84 3.96,0 m -6.88,-2.44 -7.72,0 c 2.08,-3.44 7.68,-12.92 7.72,-15.2 l 0,15.2" />
          <path
             id="path10085"
             style=""
             d="m 2245.9541,16277.038 c 0,-5 -3.44,-8.96 -7.56,-8.96 -1.6,0 -3.12,0.6 -4.28,1.64 l 0,-8.24 10.52,0 0,-2.56 -13.4,0 0,14.76 2.64,0 c 0.68,-1.6 2.16,-3.16 4.48,-3.16 1.88,0 4.04,1.64 4.04,6.44 0,6.64 -4.88,6.64 -5.24,6.64 -2.68,0 -5.12,-1.56 -6.28,-3.72 l -1.32,2.24 c 1.64,2.28 4.4,3.92 7.64,3.92 4.76,0 8.76,-3.96 8.76,-9" />
        </g>
        <g
           id="text7059-0-8-2"
           style="font-size:40px;font-style:normal;font-variant:normal;font-weight:normal;font-stretch:normal;line-height:125%;letter-spacing:0px;word-spacing:0px;fill:#657b83;fill-opacity:1;stroke:none;visibility:visible;font-family:Latin Modern Sans;-inkscape-font-specification:Latin Modern Sans">
          <path
             id="path10078"
             style=""
             d="m 2276.7082,16278.758 0,-2.44 -3.96,0 0,-16.96 -3.64,0 -10.12,16.96 0,2.44 10.6,0 0,6.84 3.16,0 0,-6.84 3.96,0 m -6.88,-2.44 -7.72,0 c 2.08,-3.44 7.68,-12.92 7.72,-15.2 l 0,15.2" />
          <path
             id="path10080"
             style=""
             d="m 2296.1482,16276.718 c 0,-5.12 -2.64,-9.6 -6.48,-9.6 -1.28,0 -4.32,0.32 -6.76,3.32 0.52,-6.44 3.68,-9.64 7.36,-9.64 1.52,0 2.8,0.28 4.2,0.84 l 0,-2.36 c -2.04,-0.8 -3.68,-0.8 -4.24,-0.8 -5.64,0 -10.68,5.64 -10.68,14.24 0,11.32 4.96,13.76 8.36,13.76 2.4,0 4.12,-0.92 5.68,-2.72 1.8,-2.04 2.56,-3.88 2.56,-7.04 m -3.28,0 c 0,1.36 0,3.2 -0.96,4.84 -0.68,1.12 -1.72,2.48 -4,2.48 -4.24,0 -4.84,-5.88 -4.96,-7.2 0,-0.56 0,-0.64 0.04,-1.12 0,-2.96 1.8,-6.16 5.12,-6.16 1.92,0 3.04,1 3.84,2.48 0.84,1.48 0.92,2.88 0.92,4.68" />
        </g>
        <g
           id="text7059-7-2-7"
           style="font-size:40px;font-style:normal;font-variant:normal;font-weight:normal;font-stretch:normal;line-height:125%;letter-spacing:0px;word-spacing:0px;fill:#657b83;fill-opacity:1;stroke:none;visibility:visible;font-family:Latin Modern Sans;-inkscape-font-specification:Latin Modern Sans">
          <path
             id="path10073"
             style=""
             d="m 2326.515,16278.539 0,-2.44 -3.96,0 0,-16.96 -3.64,0 -10.12,16.96 0,2.44 10.6,0 0,6.84 3.16,0 0,-6.84 3.96,0 m -6.88,-2.44 -7.72,0 c 2.08,-3.44 7.68,-12.92 7.72,-15.2 l 0,15.2" />
          <path
             id="path10075"
             style=""
             d="m 2345.955,16261.739 0,-2.6 -16.6,0 0,2.84 7.6,0 c 0.48,0 0.96,-0.04 1.44,-0.04 l 4.84,0 c -5.9199,6.52 -9.48,14.52 -9.48,23.88 l 3.36,0 c 0,-12 5.7201,-20.56 8.84,-24.08" />
        </g>
        <g
           id="text7059-4-0-1"
           style="font-size:40px;font-style:normal;font-variant:normal;font-weight:normal;font-stretch:normal;line-height:125%;letter-spacing:0px;word-spacing:0px;fill:#657b83;fill-opacity:1;stroke:none;visibility:visible;font-family:Latin Modern Sans;-inkscape-font-specification:Latin Modern Sans">
          <path
             id="path10068"
             style=""
             d="m 2376.3222,16278.758 0,-2.44 -3.96,0 0,-16.96 -3.64,0 -10.12,16.96 0,2.44 10.6,0 0,6.84 3.16,0 0,-6.84 3.96,0 m -6.88,-2.44 -7.72,0 c 2.08,-3.44 7.68,-12.92 7.72,-15.2 l 0,15.2" />
          <path
             id="path10070"
             style=""
             d="m 2395.7622,16278.398 c 0,-3.64 -2.8,-6.08 -5.48,-7 3.56,-1.16 4.92,-3.8 4.92,-5.92 0,-3.76 -3.4,-7 -7.72,-7 -4.48,0 -7.76,3.32 -7.76,7 0,2.12 1.36,4.76 4.92,5.92 -2.88,1 -5.48,3.52 -5.48,7 0,4.36 3.68,8.08 8.28,8.08 4.76,0 8.32,-3.84 8.32,-8.08 m -3.36,-12.92 c 0,2.88 -2.04,4.72 -4.92,4.72 -3.08,0 -4.96,-1.96 -4.96,-4.72 0,-2.76 1.96,-4.68 4.92,-4.68 3.16,0 4.96,2.08 4.96,4.68 m 0.12,12.88 c 0,3.88 -2.48,5.68 -5.04,5.68 -2.76,0 -5.08,-1.92 -5.08,-5.68 0,-4.2 2.88,-5.72 5.04,-5.72 2.32,0 5.08,1.6 5.08,5.72" />
        </g>
        <g
           id="text7059-43-6-7"
           style="font-size:40px;font-style:normal;font-variant:normal;font-weight:normal;font-stretch:normal;line-height:125%;letter-spacing:0px;word-spacing:0px;fill:#657b83;fill-opacity:1;stroke:none;visibility:visible;font-family:Latin Modern Sans;-inkscape-font-specification:Latin Modern Sans">
          <path
             id="path10063"
             style=""
             d="m 2426.1962,16278.758 0,-2.44 -3.96,0 0,-16.96 -3.64,0 -10.12,16.96 0,2.44 10.6,0 0,6.84 3.16,0 0,-6.84 3.96,0 m -6.88,-2.44 -7.72,0 c 2.08,-3.44 7.68,-12.92 7.72,-15.2 l 0,15.2" />
          <path
             id="path10065"
             style=""
             d="m 2445.6362,16272.198 c 0,-11.2 -4.76,-13.72 -8.16,-13.72 -2.8,0 -4.44,1.2 -5.84,2.68 -2.52,2.72 -2.6,5.36 -2.6,7.08 0,5.12 2.64,9.6 6.48,9.6 2.48,0 5.04,-1.16 6.76,-3.32 -0.44,6.44 -3.52,9.52 -6.68,9.52 -1.36,0 -2.68,-0.32 -4.12,-1.52 l -1.24,2.12 c 1.36,1 2.84,1.84 5.32,1.84 5.24,0 10.08,-5.56 10.08,-14.28 m -3.44,-3.04 c 0,3.28 -1.96,6.24 -5.12,6.24 -1.88,0 -3,-0.92 -3.84,-2.4 -0.88,-1.56 -0.92,-3.04 -0.92,-4.76 0,-1.76 0.04,-3.4 1.16,-5.16 0.8,-1.16 1.92,-2.28 4,-2.28 3.92,0 4.6,5.44 4.68,7.4 0.04,0.28 0.04,0.68 0.04,0.96" />
        </g>
        <g
           id="text7059-43-6-7-2"
           style="font-size:40px;font-style:normal;font-variant:normal;font-weight:normal;font-stretch:normal;line-height:125%;letter-spacing:0px;word-spacing:0px;fill:#657b83;fill-opacity:1;stroke:none;visibility:visible;font-family:Latin Modern Sans;-inkscape-font-specification:Latin Modern Sans">
          <path
             id="path10058"
             style=""
             d="m 2475.74,16277.478 c 0,-5 -3.44,-8.96 -7.56,-8.96 -1.6,0 -3.12,0.6 -4.28,1.64 l 0,-8.24 10.52,0 0,-2.56 -13.4,0 0,14.76 2.64,0 c 0.68,-1.6 2.16,-3.16 4.48,-3.16 1.88,0 4.04,1.64 4.04,6.44 0,6.64 -4.88,6.64 -5.24,6.64 -2.68,0 -5.12,-1.56 -6.28,-3.72 l -1.32,2.24 c 1.64,2.28 4.4,3.92 7.64,3.92 4.76,0 8.76,-3.96 8.76,-9" />
          <path
             id="path10060"
             style=""
             d="m 2496.06,16272.558 c 0,-3.16 -0.16,-6.88 -1.84,-10.12 -1.64,-3 -4.4,-3.96 -6.44,-3.96 -2.36,0 -5.16,1.08 -6.8,4.64 -1.32,2.92 -1.52,6.24 -1.52,9.44 0,3.16 0.16,6.08 1.36,9 1.6,3.84 4.64,4.92 6.92,4.92 2.92,0 5.44,-1.64 6.72,-4.4 1.2,-2.6 1.6,-5.24 1.6,-9.52 m -3.12,-0.48 c 0,2.64 0,5.16 -0.72,7.68 -1.04,3.64 -3.16,4.28 -4.44,4.28 -2.08,0 -3.72,-1.52 -4.52,-4.4 -0.64,-2.28 -0.68,-4.44 -0.68,-7.56 0,-2.52 0,-4.92 0.68,-7.12 0.24,-0.76 1.24,-4.04 4.48,-4.04 3.12,0 4.16,3.04 4.44,3.76 0.76,2.24 0.76,4.92 0.76,7.4" />
        </g>
        <g
           id="text7059-43-6-7-7"
           style="font-size:40px;font-style:normal;font-variant:normal;font-weight:normal;font-stretch:normal;line-height:125%;letter-spacing:0px;word-spacing:0px;fill:#657b83;fill-opacity:1;stroke:none;visibility:visible;font-family:Latin Modern Sans;-inkscape-font-specification:Latin Modern Sans">
          <path
             id="path10053"
             style=""
             d="m 2525.6131,16277.478 c 0,-5 -3.44,-8.96 -7.56,-8.96 -1.6,0 -3.12,0.6 -4.28,1.64 l 0,-8.24 10.52,0 0,-2.56 -13.4,0 0,14.76 2.64,0 c 0.68,-1.6 2.16,-3.16 4.48,-3.16 1.88,0 4.04,1.64 4.04,6.44 0,6.64 -4.88,6.64 -5.24,6.64 -2.68,0 -5.12,-1.56 -6.28,-3.72 l -1.32,2.24 c 1.64,2.28 4.4,3.92 7.64,3.92 4.76,0 8.76,-3.96 8.76,-9" />
          <path
             id="path10055"
             style=""
             d="m 2544.6131,16285.598 0,-2.32 -5,0 0,-24.8 -0.8,0 c -2.36,2.44 -5.68,2.56 -7.6,2.64 l 0,2.32 c 1.32,-0.04 3.24,-0.12 5.24,-0.96 l 0,20.8 -5,0 0,2.32 13.16,0" />
        </g>
        <path
           style="fill:none;stroke:#93a1a1;stroke-width:1.86675107;stroke-linejoin:round;stroke-opacity:1;visibility:visible"
           inkscape:connector-curvature="0"
           id="path4195-8"
           d="m 2548.7339,16227.991 -1544.9544,0" />
        <path
           style="fill:#268bd2;fill-rule:evenodd;stroke:none;visibility:visible"
           inkscape:connector-curvature="0"
           id="path4603-9"
           d="m 1057.43,15659.373 24.937,0 0,-24.937 -24.937,0 0,24.937 z" />
        <path
           style="fill:#b58900;fill-rule:evenodd;stroke:none;visibility:visible"
           inkscape:connector-curvature="0"
           id="path4479-7"
           d="m 1057.4301,15711.997 24.9368,0 0,-24.937 -24.9368,0 0,24.937 z" />
        <g
           id="text6939-91"
           style="font-size:40px;font-style:normal;font-variant:normal;font-weight:normal;font-stretch:normal;line-height:125%;letter-spacing:0px;word-spacing:0px;fill:#657b83;fill-opacity:1;stroke:none;visibility:visible;font-family:Latin Modern Sans;-inkscape-font-specification:Latin Modern Sans">
          <path
             id="path10022"
             style=""
             d="m 1116.5458,15653.444 c 0,-2.2 -1.48,-3.56 -1.56,-3.68 -1.56,-1.4 -2.6401,-1.64 -4.64,-2 -2.2,-0.44 -4.04,-0.84 -4.04,-2.8 0,-2.48 2.88,-2.48 3.4,-2.48 1.28,0 3.4,0.16 5.68,1.52 l 0.48,-2.6 c -2.08,-0.96 -3.7201,-1.28 -5.76,-1.28 -1,0 -6.64,0 -6.64,5.24 0,1.96 1.16,3.24 2.16,4 1.24,0.88 2.12,1.04 4.32,1.48 1.44,0.28 3.76,0.76 3.76,2.88 0,2.76 -3.16,2.76 -3.76,2.76 -3.24,0 -5.48,-1.48 -6.2,-1.96 l -0.48,2.72 c 1.28,0.64 3.48,1.76 6.72,1.76 0.72,0 2.92,0 4.64,-1.28 1.24,-0.96 1.92,-2.56 1.92,-4.28" />
          <path
             id="path10024"
             style=""
             d="m 1134.8583,15658.564 0,-17.76 -3.12,0 0,11.6 c 0,3 -2.2401,4.4 -4.8,4.4 -2.84,0 -3.12,-1.04 -3.12,-2.76 l 0,-13.24 -3.12,0 0,13.4 c 0,2.88 0.92,4.8 4.24,4.8 2.1199,0 4.96,-0.64 6.92,-2.36 l 0,1.92 3,0" />
          <path
             id="path10026"
             style=""
             d="m 1157.3614,15649.644 c 0,-4.96 -2.72,-9.28 -6.48,-9.28 -1.56,0 -4.04,0.4 -6.44,2.36 l 0,-11.92 -3,0 0,27.76 3.12,0 0,-1.84 c 0.96,0.88 2.68,2.28 5.36,2.28 4,0 7.44,-4 7.44,-9.36 m -3.12,0 c 0,5.2 -3.36,6.92 -5.8,6.92 -1.56,0 -2.88,-0.72 -3.88,-2.56 l 0,-8.84 c 0.64,-0.96 2.08,-2.36 4.28,-2.36 2.36,0 5.4,1.72 5.4,6.84" />
          <path
             id="path10028"
             style=""
             d="m 1173.2645,15653.444 c 0,-2.2 -1.48,-3.56 -1.56,-3.68 -1.56,-1.4 -2.64,-1.64 -4.64,-2 -2.2,-0.44 -4.04,-0.84 -4.04,-2.8 0,-2.48 2.88,-2.48 3.4,-2.48 1.28,0 3.4,0.16 5.68,1.52 l 0.48,-2.6 c -2.08,-0.96 -3.72,-1.28 -5.76,-1.28 -1,0 -6.64,0 -6.64,5.24 0,1.96 1.16,3.24 2.16,4 1.24,0.88 2.12,1.04 4.32,1.48 1.44,0.28 3.76,0.76 3.76,2.88 0,2.76 -3.16,2.76 -3.76,2.76 -3.24,0 -5.48,-1.48 -6.2,-1.96 l -0.48,2.72 c 1.28,0.64 3.48,1.76 6.72,1.76 0.72,0 2.92,0 4.64,-1.28 1.24,-0.96 1.92,-2.56 1.92,-4.28" />
          <path
             id="path10030"
             style=""
             d="m 1190.777,15656.964 -0.24,-2.68 c -2.04,1.6 -4.2,2.16 -6.24,2.16 -3.32,0 -5.56,-2.88 -5.56,-6.8 0,-3.12 1.48,-6.96 5.72,-6.96 2.08,0 3.44,0.32 5.64,1.76 l 0.48,-2.6 c -2.36,-1.36 -3.72,-1.72 -6.16,-1.72 -5.56,0 -8.8,4.84 -8.8,9.56 0,4.96 3.64,9.32 8.64,9.32 2.16,0 4.36,-0.56 6.52,-2.04" />
          <path
             id="path10032"
             style=""
             d="m 1204.9914,15643.044 0,-2.68 c -3.56,0.04 -5.76,2 -7,3.84 l 0,-3.64 -2.8,0 0,18 3,0 0,-8.56 c 0,-4 2.88,-6.88 6.8,-6.96" />
          <path
             id="path10034"
             style=""
             d="m 1211.8233,15658.564 0,-17.76 -3,0 0,17.76 3,0 m 0.32,-22.64 0,-3.56 -3.56,0 0,3.56 3.56,0" />
          <path
             id="path10036"
             style=""
             d="m 1234.3145,15649.644 c 0,-4.96 -2.72,-9.28 -6.48,-9.28 -1.56,0 -4.04,0.4 -6.44,2.36 l 0,-11.92 -3,0 0,27.76 3.12,0 0,-1.84 c 0.96,0.88 2.68,2.28 5.36,2.28 4,0 7.44,-4 7.44,-9.36 m -3.12,0 c 0,5.2 -3.36,6.92 -5.8,6.92 -1.56,0 -2.88,-0.72 -3.88,-2.56 l 0,-8.84 c 0.64,-0.96 2.08,-2.36 4.28,-2.36 2.36,0 5.4,1.72 5.4,6.84" />
          <path
             id="path10038"
             style=""
             d="m 1253.4976,15649.804 c 0,-1.36 -0.04,-4.36 -1.6,-6.76 -1.64,-2.48 -4.08,-2.92 -5.52,-2.92 -4.44,0 -8.04,4.24 -8.04,9.4 0,5.28 3.84,9.48 8.64,9.48 2.52,0 4.8,-0.96 6.36,-2.08 l -0.24,-2.6 c -2.52,2.08 -5.16,2.24 -6.08,2.24 -3.2,0 -5.76,-2.84 -5.88,-6.76 l 12.36,0 m -2.28,-2.2 -9.88,0 c 0.64,-3.04 2.76,-5.04 5.04,-5.04 2.08,0 4.32,1.36 4.84,5.04" />
          <path
             id="path10040"
             style=""
             d="m 1272.032,15658.564 0,-27.76 -3,0 0,11.76 c -2.12,-1.76 -4.36,-2.2 -5.84,-2.2 -3.96,0 -7.08,4.16 -7.08,9.32 0,5.24 3.08,9.32 6.88,9.32 1.32,0 3.68,-0.36 5.92,-2.52 l 0,2.08 3.12,0 m -3.12,-5.56 c 0,0.56 -0.04,1.28 -1.32,2.44 -0.92,0.8 -1.92,1.12 -2.96,1.12 -2.48,0 -5.4,-1.88 -5.4,-6.84 0,-5.28 3.44,-6.92 5.8,-6.92 1.8,0 3,0.92 3.88,2.2 l 0,8" />
          <path
             id="path10042"
             style=""
             d="m 1306.1345,15658.564 0,-17.76 -3.12,0 0,11.6 c 0,3 -2.24,4.4 -4.8,4.4 -2.84,0 -3.12,-1.04 -3.12,-2.76 l 0,-13.24 -3.12,0 0,13.4 c 0,2.88 0.92,4.8 4.24,4.8 2.12,0 4.96,-0.64 6.92,-2.36 l 0,1.92 3,0" />
          <path
             id="path10044"
             style=""
             d="m 1323.8376,15653.444 c 0,-2.2 -1.48,-3.56 -1.56,-3.68 -1.56,-1.4 -2.64,-1.64 -4.64,-2 -2.2,-0.44 -4.04,-0.84 -4.04,-2.8 0,-2.48 2.88,-2.48 3.4,-2.48 1.28,0 3.4,0.16 5.68,1.52 l 0.48,-2.6 c -2.08,-0.96 -3.72,-1.28 -5.76,-1.28 -1,0 -6.64,0 -6.64,5.24 0,1.96 1.16,3.24 2.16,4 1.24,0.88 2.12,1.04 4.32,1.48 1.44,0.28 3.76,0.76 3.76,2.88 0,2.76 -3.16,2.76 -3.76,2.76 -3.24,0 -5.48,-1.48 -6.2,-1.96 l -0.48,2.72 c 1.28,0.64 3.48,1.76 6.72,1.76 0.72,0 2.92,0 4.64,-1.28 1.24,-0.96 1.92,-2.56 1.92,-4.28" />
          <path
             id="path10046"
             style=""
             d="m 1341.3101,15649.804 c 0,-1.36 -0.04,-4.36 -1.6,-6.76 -1.64,-2.48 -4.08,-2.92 -5.52,-2.92 -4.44,0 -8.04,4.24 -8.04,9.4 0,5.28 3.84,9.48 8.64,9.48 2.52,0 4.8,-0.96 6.36,-2.08 l -0.24,-2.6 c -2.52,2.08 -5.16,2.24 -6.08,2.24 -3.2,0 -5.76,-2.84 -5.88,-6.76 l 12.36,0 m -2.28,-2.2 -9.88,0 c 0.64,-3.04 2.76,-5.04 5.04,-5.04 2.08,0 4.32,1.36 4.84,5.04" />
          <path
             id="path10048"
             style=""
             d="m 1355.5645,15643.044 0,-2.68 c -3.56,0.04 -5.76,2 -7,3.84 l 0,-3.64 -2.8,0 0,18 3,0 0,-8.56 c 0,-4 2.88,-6.88 6.8,-6.96" />
          <path
             id="path10050"
             style=""
             d="m 1370.5564,15653.444 c 0,-2.2 -1.48,-3.56 -1.56,-3.68 -1.56,-1.4 -2.64,-1.64 -4.64,-2 -2.2,-0.44 -4.04,-0.84 -4.04,-2.8 0,-2.48 2.88,-2.48 3.4,-2.48 1.28,0 3.4,0.16 5.68,1.52 l 0.48,-2.6 c -2.08,-0.96 -3.72,-1.28 -5.76,-1.28 -1,0 -6.64,0 -6.64,5.24 0,1.96 1.16,3.24 2.16,4 1.24,0.88 2.12,1.04 4.32,1.48 1.44,0.28 3.76,0.76 3.76,2.88 0,2.76 -3.16,2.76 -3.76,2.76 -3.24,0 -5.48,-1.48 -6.2,-1.96 l -0.48,2.72 c 1.28,0.64 3.48,1.76 6.72,1.76 0.72,0 2.92,0 4.64,-1.28 1.24,-0.96 1.92,-2.56 1.92,-4.28" />
        </g>
        <g
           id="text6939-91-2"
           style="font-size:40px;font-style:normal;font-variant:normal;font-weight:normal;font-stretch:normal;line-height:125%;letter-spacing:0px;word-spacing:0px;fill:#657b83;fill-opacity:1;stroke:none;visibility:visible;font-family:Latin Modern Sans;-inkscape-font-specification:Latin Modern Sans">
          <path
             id="path9973"
             style=""
             d="m 1116.5458,15706.168 c 0,-2.2 -1.48,-3.56 -1.56,-3.68 -1.56,-1.4 -2.6401,-1.64 -4.64,-2 -2.2,-0.44 -4.04,-0.84 -4.04,-2.8 0,-2.48 2.88,-2.48 3.4,-2.48 1.28,0 3.4,0.16 5.68,1.52 l 0.48,-2.6 c -2.08,-0.96 -3.7201,-1.28 -5.76,-1.28 -1,0 -6.64,0 -6.64,5.24 0,1.96 1.16,3.24 2.16,4 1.24,0.88 2.12,1.04 4.32,1.48 1.44,0.28 3.76,0.76 3.76,2.88 0,2.76 -3.16,2.76 -3.76,2.76 -3.24,0 -5.48,-1.48 -6.2,-1.96 l -0.48,2.72 c 1.28,0.64 3.48,1.76 6.72,1.76 0.72,0 2.92,0 4.64,-1.28 1.24,-0.96 1.92,-2.56 1.92,-4.28" />
          <path
             id="path9975"
             style=""
             d="m 1134.8583,15711.288 0,-17.76 -3.12,0 0,11.6 c 0,3 -2.2401,4.4 -4.8,4.4 -2.84,0 -3.12,-1.04 -3.12,-2.76 l 0,-13.24 -3.12,0 0,13.4 c 0,2.88 0.92,4.8 4.24,4.8 2.1199,0 4.96,-0.64 6.92,-2.36 l 0,1.92 3,0" />
          <path
             id="path9977"
             style=""
             d="m 1157.3614,15702.368 c 0,-4.96 -2.72,-9.28 -6.48,-9.28 -1.56,0 -4.04,0.4 -6.44,2.36 l 0,-11.92 -3,0 0,27.76 3.12,0 0,-1.84 c 0.96,0.88 2.68,2.28 5.36,2.28 4,0 7.44,-4 7.44,-9.36 m -3.12,0 c 0,5.2 -3.36,6.92 -5.8,6.92 -1.56,0 -2.88,-0.72 -3.88,-2.56 l 0,-8.84 c 0.64,-0.96 2.08,-2.36 4.28,-2.36 2.36,0 5.4,1.72 5.4,6.84" />
          <path
             id="path9979"
             style=""
             d="m 1173.2645,15706.168 c 0,-2.2 -1.48,-3.56 -1.56,-3.68 -1.56,-1.4 -2.64,-1.64 -4.64,-2 -2.2,-0.44 -4.04,-0.84 -4.04,-2.8 0,-2.48 2.88,-2.48 3.4,-2.48 1.28,0 3.4,0.16 5.68,1.52 l 0.48,-2.6 c -2.08,-0.96 -3.72,-1.28 -5.76,-1.28 -1,0 -6.64,0 -6.64,5.24 0,1.96 1.16,3.24 2.16,4 1.24,0.88 2.12,1.04 4.32,1.48 1.44,0.28 3.76,0.76 3.76,2.88 0,2.76 -3.16,2.76 -3.76,2.76 -3.24,0 -5.48,-1.48 -6.2,-1.96 l -0.48,2.72 c 1.28,0.64 3.48,1.76 6.72,1.76 0.72,0 2.92,0 4.64,-1.28 1.24,-0.96 1.92,-2.56 1.92,-4.28" />
          <path
             id="path9981"
             style=""
             d="m 1190.777,15709.688 -0.24,-2.68 c -2.04,1.6 -4.2,2.16 -6.24,2.16 -3.32,0 -5.56,-2.88 -5.56,-6.8 0,-3.12 1.48,-6.96 5.72,-6.96 2.08,0 3.44,0.32 5.64,1.76 l 0.48,-2.6 c -2.36,-1.36 -3.72,-1.72 -6.16,-1.72 -5.56,0 -8.8,4.84 -8.8,9.56 0,4.96 3.64,9.32 8.64,9.32 2.16,0 4.36,-0.56 6.52,-2.04" />
          <path
             id="path9983"
             style=""
             d="m 1204.9914,15695.768 0,-2.68 c -3.56,0.04 -5.76,2 -7,3.84 l 0,-3.64 -2.8,0 0,18 3,0 0,-8.56 c 0,-4 2.88,-6.88 6.8,-6.96" />
          <path
             id="path9985"
             style=""
             d="m 1211.8233,15711.288 0,-17.76 -3,0 0,17.76 3,0 m 0.32,-22.64 0,-3.56 -3.56,0 0,3.56 3.56,0" />
          <path
             id="path9987"
             style=""
             d="m 1234.3145,15702.368 c 0,-4.96 -2.72,-9.28 -6.48,-9.28 -1.56,0 -4.04,0.4 -6.44,2.36 l 0,-11.92 -3,0 0,27.76 3.12,0 0,-1.84 c 0.96,0.88 2.68,2.28 5.36,2.28 4,0 7.44,-4 7.44,-9.36 m -3.12,0 c 0,5.2 -3.36,6.92 -5.8,6.92 -1.56,0 -2.88,-0.72 -3.88,-2.56 l 0,-8.84 c 0.64,-0.96 2.08,-2.36 4.28,-2.36 2.36,0 5.4,1.72 5.4,6.84" />
          <path
             id="path9989"
             style=""
             d="m 1253.4976,15702.528 c 0,-1.36 -0.04,-4.36 -1.6,-6.76 -1.64,-2.48 -4.08,-2.92 -5.52,-2.92 -4.44,0 -8.04,4.24 -8.04,9.4 0,5.28 3.84,9.48 8.64,9.48 2.52,0 4.8,-0.96 6.36,-2.08 l -0.24,-2.6 c -2.52,2.08 -5.16,2.24 -6.08,2.24 -3.2,0 -5.76,-2.84 -5.88,-6.76 l 12.36,0 m -2.28,-2.2 -9.88,0 c 0.64,-3.04 2.76,-5.04 5.04,-5.04 2.08,0 4.32,1.36 4.84,5.04" />
          <path
             id="path9991"
             style=""
             d="m 1272.032,15711.288 0,-27.76 -3,0 0,11.76 c -2.12,-1.76 -4.36,-2.2 -5.84,-2.2 -3.96,0 -7.08,4.16 -7.08,9.32 0,5.24 3.08,9.32 6.88,9.32 1.32,0 3.68,-0.36 5.92,-2.52 l 0,2.08 3.12,0 m -3.12,-5.56 c 0,0.56 -0.04,1.28 -1.32,2.44 -0.92,0.8 -1.92,1.12 -2.96,1.12 -2.48,0 -5.4,-1.88 -5.4,-6.84 0,-5.28 3.44,-6.92 5.8,-6.92 1.8,0 3,0.92 3.88,2.2 l 0,8" />
          <path
             id="path9993"
             style=""
             d="m 1305.3345,15709.688 -0.24,-2.68 c -2.04,1.6 -4.2,2.16 -6.24,2.16 -3.32,0 -5.56,-2.88 -5.56,-6.8 0,-3.12 1.48,-6.96 5.72,-6.96 2.08,0 3.44,0.32 5.64,1.76 l 0.48,-2.6 c -2.36,-1.36 -3.72,-1.72 -6.16,-1.72 -5.56,0 -8.8,4.84 -8.8,9.56 0,4.96 3.64,9.32 8.64,9.32 2.16,0 4.36,-0.56 6.52,-2.04" />
          <path
             id="path9995"
             style=""
             d="m 1325.2289,15702.488 c 0,-5.36 -4,-9.64 -8.76,-9.64 -4.92,0 -8.8,4.4 -8.8,9.64 0,5.28 4.08,9.24 8.76,9.24 4.8,0 8.8,-4.04 8.8,-9.24 m -3.12,-0.4 c 0,4.72 -2.72,7.08 -5.68,7.08 -2.76,0 -5.64,-2.24 -5.64,-7.08 0,-4.84 3.04,-6.8 5.64,-6.8 2.8,0 5.68,2.08 5.68,6.8" />
          <path
             id="path9997"
             style=""
             d="m 1354.9889,15711.288 0,-11.92 c 0,-2.68 -0.64,-6.28 -5.48,-6.28 -2.4,0 -4.48,1.12 -5.96,3.28 -1.04,-3.04 -3.84,-3.28 -5.12,-3.28 -2.88,0 -4.76,1.64 -5.84,3.08 l 0,-2.88 -2.88,0 0,18 3.12,0 0,-9.8 c 0,-2.72 1.08,-5.96 4.04,-5.96 3.72,0 3.92,2.6 3.92,4.12 l 0,11.64 3.12,0 0,-9.8 c 0,-2.72 1.08,-5.96 4.04,-5.96 3.72,0 3.92,2.6 3.92,4.12 l 0,11.64 3.12,0" />
          <path
             id="path9999"
             style=""
             d="m 1386.7857,15711.288 0,-11.92 c 0,-2.68 -0.64,-6.28 -5.48,-6.28 -2.4,0 -4.48,1.12 -5.96,3.28 -1.04,-3.04 -3.84,-3.28 -5.12,-3.28 -2.88,0 -4.76,1.64 -5.84,3.08 l 0,-2.88 -2.88,0 0,18 3.12,0 0,-9.8 c 0,-2.72 1.0801,-5.96 4.04,-5.96 3.72,0 3.92,2.6 3.92,4.12 l 0,11.64 3.12,0 0,-9.8 c 0,-2.72 1.0801,-5.96 4.04,-5.96 3.72,0 3.92,2.6 3.92,4.12 l 0,11.64 3.12,0" />
          <path
             id="path10001"
             style=""
             d="m 1407.4626,15711.288 0,-17.76 -3.12,0 0,11.6 c 0,3 -2.24,4.4 -4.8,4.4 -2.84,0 -3.12,-1.04 -3.12,-2.76 l 0,-13.24 -3.12,0 0,13.4 c 0,2.88 0.92,4.8 4.24,4.8 2.12,0 4.96,-0.64 6.92,-2.36 l 0,1.92 3,0" />
          <path
             id="path10003"
             style=""
             d="m 1428.1657,15711.288 0,-11.92 c 0,-2.64 -0.6,-6.28 -5.48,-6.28 -3.5999,0 -5.56,2.72 -5.8,3.04 l 0,-2.84 -2.88,0 0,18 3.12,0 0,-9.8 c 0,-2.64 1.0001,-5.96 4.04,-5.96 3.84,0 3.88,2.84 3.88,4.12 l 0,11.64 3.12,0" />
          <path
             id="path10005"
             style=""
             d="m 1437.7089,15711.288 0,-17.76 -3,0 0,17.76 3,0 m 0.32,-22.64 0,-3.56 -3.56,0 0,3.56 3.56,0" />
          <path
             id="path10007"
             style=""
             d="m 1454.2801,15710.208 -0.64,-2.36 c -1.04,0.84 -2.32,1.32 -3.6,1.32 -1.48,0 -2.04,-1.2 -2.04,-3.32 l 0,-10 5.64,0 0,-2.32 -5.64,0 0,-5.08 -2.76,0 0,5.08 -3.48,0 0,2.32 3.36,0 0,10.68 c 0,2.4 0.56,5.2 3.32,5.2 2.8,0 4.84,-1 5.84,-1.52" />
          <path
             id="path10009"
             style=""
             d="m 1472.1733,15693.528 -3,0 c -5.2,12.72 -5.28,14.56 -5.32,15.48 l -0.04,0 c -0.24,-2.68 -3.44,-10.12 -3.6,-10.48 l -2.16,-5 -3.16,0 7.76,17.76 -1.44,3.6 c -1.04,2.32 -1.72,2.32 -2.28,2.32 -0.64,0 -1.92,-0.16 -3.12,-0.64 l 0.24,2.6 c 0.88,0.2 2,0.32 2.88,0.32 1.4,0 2.88,-0.48 4.52,-4.56 l 8.72,-21.4" />
          <path
             id="path10011"
             style=""
             d="m 1505.3301,15702.368 c 0,-4.8 -2.52,-9.28 -6.36,-9.28 -2.4,0 -4.72,0.84 -6.56,2.4 l 0,-1.96 -3,0 0,25.52 3.12,0 0,-9.6 c 1.24,1.16 3,2.28 5.4,2.28 3.88,0 7.4,-3.92 7.4,-9.36 m -3.12,0 c 0,4.12 -2.84,6.92 -5.84,6.92 -1.56,0 -2.64,-0.8 -3.44,-1.88 -0.4,-0.6 -0.4,-0.68 -0.4,-1.4 l 0,-8.04 c 0.96,-1.4 2.52,-2.32 4.24,-2.32 3.04,0 5.44,3.04 5.44,6.72" />
          <path
             id="path10013"
             style=""
             d="m 1523.1933,15711.288 0,-11.56 c 0,-4.08 -2.9201,-6.88 -6.6,-6.88 -2.6,0 -4.4,0.64 -6.28,1.72 l 0.24,2.64 c 2.0799,-1.48 4.08,-2 6.04,-2 1.88,0 3.48,1.6 3.48,4.56 l 0,1.72 c -6,0.08 -11.08,1.76 -11.08,5.28 0,1.72 1.08,4.96 4.56,4.96 0.56,0 4.32,-0.08 6.64,-1.88 l 0,1.44 3,0 m -3.12,-5.28 c 0,0.76 0,1.76 -1.36,2.52 -1.16,0.72 -2.68,0.76 -3.12,0.76 -1.92,0 -3.72,-0.92 -3.72,-2.6 0,-2.8 6.48,-3.08 8.2,-3.16 l 0,2.48" />
          <path
             id="path10015"
             style=""
             d="m 1545.452,15695.608 -0.44,-2.52 c -2.8,0 -5.12,0.76 -6.32,1.28 -0.84,-0.68 -2.2,-1.28 -3.8,-1.28 -3.44,0 -6.36,2.88 -6.36,6.52 0,1.48 0.52,2.92 1.32,3.96 -1.16,1.64 -1.16,3.2 -1.16,3.4 0,1.04 0.36,2.2 1.04,3.04 -2.08,1.24 -2.56,3.08 -2.56,4.12 0,3 3.96,5.4 8.84,5.4 4.92,0 8.88,-2.36 8.88,-5.44 0,-5.56 -6.68,-5.56 -8.24,-5.56 l -3.52,0 c -0.52,0 -2.32,0 -2.32,-2.12 0,-0.44 0.16,-1.08 0.44,-1.44 0.84,0.6 2.16,1.16 3.64,1.16 3.6,0 6.4,-2.96 6.4,-6.52 0,-1.92 -0.88,-3.4 -1.32,-4 l 0.16,0.04 c 0.88,0 2,-0.16 2.96,-0.16 0.72,0 2.36,0.12 2.36,0.12 m -6.96,4 c 0,3.12 -1.88,4.24 -3.6,4.24 -1.48,0 -3.56,-0.92 -3.56,-4.24 0,-3.32 2.08,-4.24 3.56,-4.24 1.72,0 3.6,1.12 3.6,4.24 m 3.6,14.56 c 0,1.76 -2.76,3.08 -6.04,3.08 -3.24,0 -6.08,-1.24 -6.08,-3.12 0,-0.12 0,-2.72 3.12,-2.72 l 3.6,0 c 0.88,0 5.4,0 5.4,2.76" />
          <path
             id="path10017"
             style=""
             d="m 1562.612,15702.528 c 0,-1.36 -0.04,-4.36 -1.6,-6.76 -1.64,-2.48 -4.08,-2.92 -5.52,-2.92 -4.44,0 -8.04,4.24 -8.04,9.4 0,5.28 3.84,9.48 8.64,9.48 2.52,0 4.8,-0.96 6.36,-2.08 l -0.24,-2.6 c -2.52,2.08 -5.16,2.24 -6.08,2.24 -3.2,0 -5.76,-2.84 -5.88,-6.76 l 12.36,0 m -2.28,-2.2 -9.88,0 c 0.64,-3.04 2.76,-5.04 5.04,-5.04 2.08,0 4.32,1.36 4.84,5.04" />
          <path
             id="path10019"
             style=""
             d="m 1578.1864,15706.168 c 0,-2.2 -1.48,-3.56 -1.56,-3.68 -1.56,-1.4 -2.64,-1.64 -4.64,-2 -2.2,-0.44 -4.04,-0.84 -4.04,-2.8 0,-2.48 2.88,-2.48 3.4,-2.48 1.28,0 3.4,0.16 5.68,1.52 l 0.48,-2.6 c -2.08,-0.96 -3.72,-1.28 -5.76,-1.28 -1,0 -6.64,0 -6.64,5.24 0,1.96 1.16,3.24 2.16,4 1.24,0.88 2.12,1.04 4.32,1.48 1.44,0.28 3.76,0.76 3.76,2.88 0,2.76 -3.16,2.76 -3.76,2.76 -3.24,0 -5.48,-1.48 -6.2,-1.96 l -0.48,2.72 c 1.28,0.64 3.48,1.76 6.72,1.76 0.72,0 2.92,0 4.64,-1.28 1.24,-0.96 1.92,-2.56 1.92,-4.28" />
        </g>
      </g>
    </g>
  </g>
</svg>
