<?xml version="1.0" encoding="UTF-8" standalone="no"?>
<svg
   xmlns:dc="http://purl.org/dc/elements/1.1/"
   xmlns:cc="http://creativecommons.org/ns#"
   xmlns:rdf="http://www.w3.org/1999/02/22-rdf-syntax-ns#"
   xmlns:svg="http://www.w3.org/2000/svg"
   xmlns="http://www.w3.org/2000/svg"
   xmlns:sodipodi="http://sodipodi.sourceforge.net/DTD/sodipodi-0.dtd"
   xmlns:inkscape="http://www.inkscape.org/namespaces/inkscape"
   inkscape:version="1.0 (4035a4fb49, 2020-05-01)"
   sodipodi:docname="Biochips_functionalization_cea2_step4.svg"
   viewBox="0 0 283.24167 264.16446"
   height="264.16446"
   width="283.24167"
   xml:space="preserve"
   id="svg2"
   version="1.1"><metadata
     id="metadata8"><rdf:RDF><cc:Work
         rdf:about=""><dc:format>image/svg+xml</dc:format><dc:type
           rdf:resource="http://purl.org/dc/dcmitype/StillImage" /><dc:title /></cc:Work></rdf:RDF></metadata><defs
     id="defs6"><clipPath
       id="clipPath22"
       clipPathUnits="userSpaceOnUse"><path
         id="path20"
         d="M 951.417,834.339 H 4861.42 V 7244.34 H 951.417 Z" /></clipPath><clipPath
       id="clipPath54"
       clipPathUnits="userSpaceOnUse"><path
         id="path52"
         clip-rule="evenodd"
         d="M 951.417,834.339 H 4861.42 V 7244.34 H 951.417 Z M 4719.62,1345.34 h -45 v -82.8 l 22.8,67.2 22.2,-67.2 z" /></clipPath><clipPath
       id="clipPath64"
       clipPathUnits="userSpaceOnUse"><path
         id="path62"
         d="M 951.417,834.339 H 4861.42 V 7244.34 H 951.417 Z" /></clipPath><clipPath
       id="clipPath286"
       clipPathUnits="userSpaceOnUse"><path
         id="path284"
         clip-rule="evenodd"
         d="M 951.417,834.339 H 4861.42 V 7244.34 H 951.417 Z M 2424.62,5755.34 h -45 v -84 l 22.8,67.8 22.2,-67.8 z" /></clipPath><clipPath
       id="clipPath296"
       clipPathUnits="userSpaceOnUse"><path
         id="path294"
         d="M 951.417,834.339 H 4861.42 V 7244.34 H 951.417 Z" /></clipPath><clipPath
       id="clipPath308"
       clipPathUnits="userSpaceOnUse"><path
         id="path306"
         clip-rule="evenodd"
         d="M 951.417,834.339 H 4861.42 V 7244.34 H 951.417 Z M 2424.62,3055.34 h -45 v -84 l 22.8,67.8 22.2,-67.8 z" /></clipPath><clipPath
       id="clipPath318"
       clipPathUnits="userSpaceOnUse"><path
         id="path316"
         d="M 951.417,834.339 H 4861.42 V 7244.34 H 951.417 Z" /></clipPath><clipPath
       id="clipPath370"
       clipPathUnits="userSpaceOnUse"><path
         id="path368"
         clip-rule="evenodd"
         d="M 951.417,834.339 H 4861.42 V 7244.34 H 951.417 Z M 4719.62,5755.34 h -45 v -84 l 22.8,67.8 22.2,-67.8 z" /></clipPath><clipPath
       id="clipPath380"
       clipPathUnits="userSpaceOnUse"><path
         id="path378"
         d="M 951.417,834.339 H 4861.42 V 7244.34 H 951.417 Z" /></clipPath><clipPath
       id="clipPath392"
       clipPathUnits="userSpaceOnUse"><path
         id="path390"
         clip-rule="evenodd"
         d="M 951.417,834.339 H 4861.42 V 7244.34 H 951.417 Z M 4719.62,3460.34 h -45 v -84 l 22.8,67.8 22.2,-67.8 z" /></clipPath><clipPath
       id="clipPath402"
       clipPathUnits="userSpaceOnUse"><path
         id="path400"
         d="M 951.417,834.339 H 4861.42 V 7244.34 H 951.417 Z" /></clipPath></defs><sodipodi:namedview
     inkscape:current-layer="g10"
     inkscape:window-maximized="1"
     inkscape:window-y="0"
     inkscape:window-x="0"
     inkscape:cy="89.586093"
     inkscape:cx="701.60833"
     inkscape:zoom="0.9983453"
     showgrid="false"
     id="namedview4"
     inkscape:window-height="1015"
     inkscape:window-width="1920"
     inkscape:pageshadow="2"
     inkscape:pageopacity="0"
     guidetolerance="10"
     gridtolerance="10"
     objecttolerance="10"
     borderopacity="1"
     bordercolor="#666666"
     pagecolor="#ffffff"
     inkscape:document-rotation="0"
     fit-margin-top="5"
     fit-margin-left="5"
     fit-margin-right="5"
     fit-margin-bottom="5" /><g
     transform="matrix(0,1.3333333,1.3333333,0,-100.15475,-416.55375)"
     inkscape:label="rapport"
     inkscape:groupmode="layer"
     id="g10"><g
       id="g1138"><path
         id="path56"
         style="fill:none;stroke:#000000;stroke-width:0.45;stroke-linecap:butt;stroke-linejoin:miter;stroke-miterlimit:10;stroke-dasharray:none;stroke-opacity:1"
         d="M 469.742,84.1339 V 133.634" /><path
         id="path66"
         style="fill:#000000;fill-opacity:1;fill-rule:evenodd;stroke:none;stroke-width:0.1"
         d="m 471.962,126.254 -2.22,6.72 -2.28,-6.72 2.28,1.32 2.22,-1.32" /><path
         id="path68"
         style="fill:none;stroke:#000000;stroke-width:0.45;stroke-linecap:butt;stroke-linejoin:miter;stroke-miterlimit:10;stroke-dasharray:none;stroke-opacity:1"
         d="m 471.962,126.254 -2.22,6.72 -2.28,-6.72 2.28,1.32 z" /><path
         id="path118"
         style="fill:#87cfff;fill-opacity:1;fill-rule:evenodd;stroke:none;stroke-width:0.1"
         d="m 460.742,147.134 h 4.5 v 135 h -4.5 z" /><path
         id="path120"
         style="fill:none;stroke:#87cfff;stroke-width:0.45;stroke-linecap:butt;stroke-linejoin:miter;stroke-miterlimit:10;stroke-dasharray:none;stroke-opacity:1"
         d="m 460.742,147.134 h 4.5 v 135 h -4.5 z" /><path
         id="path122"
         style="fill:#00008f;fill-opacity:1;fill-rule:evenodd;stroke:none;stroke-width:0.1"
         d="m 465.242,147.134 h 13.5 v 135 h -13.5 z" /><path
         id="path124"
         style="fill:none;stroke:#000000;stroke-width:0.45;stroke-linecap:butt;stroke-linejoin:miter;stroke-miterlimit:10;stroke-dasharray:none;stroke-opacity:1"
         d="m 465.242,147.134 h 13.5 v 135 h -13.5 z" /><g
         style="font-style:normal;font-weight:normal;font-size:12px;line-height:1.25;font-family:sans-serif;letter-spacing:0px;word-spacing:0px;fill:#000000;fill-opacity:1;stroke:none;stroke-width:0.75"
         id="text2317-5-2"
         transform="matrix(0,1,1,0,0,0)"
         aria-label="Opening of epoxide ring"><path
           id="path5201"
           style="font-style:normal;font-variant:normal;font-weight:normal;font-stretch:normal;font-size:12px;font-family:'Latin Modern Sans';-inkscape-font-specification:'Latin Modern Sans';text-align:center;text-anchor:middle;stroke-width:0.75"
           d="m 89.090036,485.03892 c 0,-2.52 -1.74,-4.452 -3.732,-4.452 -2.04,0 -3.744,1.956 -3.744,4.452 0,2.544 1.776,4.404 3.732,4.404 2.004,0 3.744,-1.884 3.744,-4.404 z m -1.068,-0.18 c 0,2.34 -1.296,3.804 -2.664,3.804 -1.416,0 -2.676,-1.5 -2.676,-3.804 0,-2.196 1.32,-3.504 2.664,-3.504 1.392,0 2.676,1.356 2.676,3.504 z" /><path
           id="path5203"
           style="font-style:normal;font-variant:normal;font-weight:normal;font-stretch:normal;font-size:12px;font-family:'Latin Modern Sans';-inkscape-font-specification:'Latin Modern Sans';text-align:center;text-anchor:middle;stroke-width:0.75"
           d="m 95.534014,486.50292 c 0,-1.44 -0.756,-2.784 -1.908,-2.784 -0.72,0 -1.416,0.252 -1.968,0.72 v -0.588 h -0.9 v 7.656 h 0.936 v -2.88 c 0.372,0.348 0.9,0.684 1.62,0.684 1.164,0 2.22,-1.176 2.22,-2.808 z m -0.936,0 c 0,1.236 -0.852,2.076 -1.752,2.076 -0.468,0 -0.792,-0.24 -1.032,-0.564 -0.12,-0.18 -0.12,-0.204 -0.12,-0.42 v -2.412 c 0.288,-0.42 0.756,-0.696 1.272,-0.696 0.912,0 1.632,0.912 1.632,2.016 z" /><path
           id="path5205"
           style="font-style:normal;font-variant:normal;font-weight:normal;font-stretch:normal;font-size:12px;font-family:'Latin Modern Sans';-inkscape-font-specification:'Latin Modern Sans';text-align:center;text-anchor:middle;stroke-width:0.75"
           d="m 101.28199,486.55092 c 0,-0.408 -0.012,-1.308 -0.48,-2.028 -0.492,-0.744 -1.223998,-0.876 -1.655998,-0.876 -1.332,0 -2.412,1.272 -2.412,2.82 0,1.584 1.152,2.844 2.592,2.844 0.755998,0 1.439998,-0.288 1.907998,-0.624 l -0.072,-0.78 c -0.756,0.624 -1.547998,0.672 -1.823998,0.672 -0.96,0 -1.728,-0.852 -1.764,-2.028 z m -0.684,-0.66 h -2.963998 c 0.192,-0.912 0.828,-1.512 1.512,-1.512 0.624,0 1.295998,0.408 1.451998,1.512 z" /><path
           id="path5207"
           style="font-style:normal;font-variant:normal;font-weight:normal;font-stretch:normal;font-size:12px;font-family:'Latin Modern Sans';-inkscape-font-specification:'Latin Modern Sans';text-align:center;text-anchor:middle;stroke-width:0.75"
           d="m 106.86197,489.17892 v -3.576 c 0,-0.792 -0.18,-1.884 -1.644,-1.884 -1.08,0 -1.668,0.816 -1.74,0.912 v -0.852 h -0.864 v 5.4 h 0.936 v -2.94 c 0,-0.792 0.3,-1.788 1.212,-1.788 1.152,0 1.164,0.852 1.164,1.236 v 3.492 z" /><path
           id="path5209"
           style="font-style:normal;font-variant:normal;font-weight:normal;font-stretch:normal;font-size:12px;font-family:'Latin Modern Sans';-inkscape-font-specification:'Latin Modern Sans';text-align:center;text-anchor:middle;stroke-width:0.75"
           d="m 109.71795,489.17892 v -5.328 h -0.9 v 5.328 z m 0.096,-6.792 v -1.068 h -1.068 v 1.068 z" /><path
           id="path5211"
           style="font-style:normal;font-variant:normal;font-weight:normal;font-stretch:normal;font-size:12px;font-family:'Latin Modern Sans';-inkscape-font-specification:'Latin Modern Sans';text-align:center;text-anchor:middle;stroke-width:0.75"
           d="m 115.93393,489.17892 v -3.576 c 0,-0.792 -0.18,-1.884 -1.644,-1.884 -1.08,0 -1.668,0.816 -1.74,0.912 v -0.852 h -0.864 v 5.4 h 0.936 v -2.94 c 0,-0.792 0.3,-1.788 1.212,-1.788 1.152,0 1.164,0.852 1.164,1.236 v 3.492 z" /><path
           id="path5213"
           style="font-style:normal;font-variant:normal;font-weight:normal;font-stretch:normal;font-size:12px;font-family:'Latin Modern Sans';-inkscape-font-specification:'Latin Modern Sans';text-align:center;text-anchor:middle;stroke-width:0.75"
           d="m 122.73791,484.47492 -0.132,-0.756 c -0.84,0 -1.536,0.228 -1.896,0.384 -0.252,-0.204 -0.66,-0.384 -1.14,-0.384 -1.032,0 -1.908,0.864 -1.908,1.956 0,0.444 0.156,0.876 0.396,1.188 -0.348,0.492 -0.348,0.96 -0.348,1.02 0,0.312 0.108,0.66 0.312,0.912 -0.624,0.372 -0.768,0.924 -0.768,1.236 0,0.9 1.188,1.62 2.652,1.62 1.476,0 2.664,-0.708 2.664,-1.632 0,-1.668 -2.004,-1.668 -2.472,-1.668 h -1.056 c -0.156,0 -0.696,0 -0.696,-0.636 0,-0.132 0.048,-0.324 0.132,-0.432 0.252,0.18 0.648,0.348 1.092,0.348 1.08,0 1.92,-0.888 1.92,-1.956 0,-0.576 -0.264,-1.02 -0.396,-1.2 l 0.048,0.012 c 0.264,0 0.6,-0.048 0.888,-0.048 0.216,0 0.708,0.036 0.708,0.036 z m -2.088,1.2 c 0,0.936 -0.564,1.272 -1.08,1.272 -0.444,0 -1.068,-0.276 -1.068,-1.272 0,-0.996 0.624,-1.272 1.068,-1.272 0.516,0 1.08,0.336 1.08,1.272 z m 1.08,4.368 c 0,0.528 -0.828,0.924 -1.812,0.924 -0.972,0 -1.824,-0.372 -1.824,-0.936 0,-0.036 0,-0.816 0.936,-0.816 h 1.08 c 0.264,0 1.62,0 1.62,0.828 z" /><path
           id="path5215"
           style="font-style:normal;font-variant:normal;font-weight:normal;font-stretch:normal;font-size:12px;font-family:'Latin Modern Sans';-inkscape-font-specification:'Latin Modern Sans';text-align:center;text-anchor:middle;stroke-width:0.75"
           d="m 132.54187,486.53892 c 0,-1.608 -1.2,-2.892 -2.628,-2.892 -1.476,0 -2.64,1.32 -2.64,2.892 0,1.584 1.224,2.772 2.628,2.772 1.44,0 2.64,-1.212 2.64,-2.772 z m -0.936,-0.12 c 0,1.416 -0.816,2.124 -1.704,2.124 -0.828,0 -1.692,-0.672 -1.692,-2.124 0,-1.452 0.912,-2.04 1.692,-2.04 0.84,0 1.704,0.624 1.704,2.04 z" /><path
           id="path5217"
           style="font-style:normal;font-variant:normal;font-weight:normal;font-stretch:normal;font-size:12px;font-family:'Latin Modern Sans';-inkscape-font-specification:'Latin Modern Sans';text-align:center;text-anchor:middle;stroke-width:0.75"
           d="m 137.07785,481.65492 v -0.804 c -0.144,-0.036 -0.516,-0.132 -0.96,-0.132 -1.128,0 -1.992,0.852 -1.992,2.052 v 1.08 h -0.888 v 0.696 h 0.888 v 4.632 h 0.9 v -4.632 h 1.32 v -0.696 h -1.356 v -1.428 c 0,-0.888 0.804,-0.972 1.116,-0.972 0.24,0 0.564,0.024 0.972,0.204 z" /><path
           id="path5219"
           style="font-style:normal;font-variant:normal;font-weight:normal;font-stretch:normal;font-size:12px;font-family:'Latin Modern Sans';-inkscape-font-specification:'Latin Modern Sans';text-align:center;text-anchor:middle;stroke-width:0.75"
           d="m 83.414068,501.68868 c 0,-0.408 -0.012,-1.308 -0.48,-2.028 -0.492,-0.744 -1.224,-0.876 -1.656,-0.876 -1.332,0 -2.412,1.272 -2.412,2.82 0,1.584 1.152,2.844 2.592,2.844 0.756,0 1.44,-0.288 1.908,-0.624 l -0.072,-0.78 c -0.756,0.624 -1.548,0.672 -1.824,0.672 -0.96,0 -1.728,-0.852 -1.764,-2.028 z m -0.684,-0.66 h -2.964 c 0.192,-0.912 0.828,-1.512 1.512,-1.512 0.624,0 1.296,0.408 1.452,1.512 z" /><path
           id="path5221"
           style="font-style:normal;font-variant:normal;font-weight:normal;font-stretch:normal;font-size:12px;font-family:'Latin Modern Sans';-inkscape-font-specification:'Latin Modern Sans';text-align:center;text-anchor:middle;stroke-width:0.75"
           d="m 89.534048,501.64068 c 0,-1.44 -0.756,-2.784 -1.908,-2.784 -0.72,0 -1.416,0.252 -1.968,0.72 v -0.588 h -0.9 v 7.656 h 0.936 v -2.88 c 0.372,0.348 0.9,0.684 1.62,0.684 1.164,0 2.22,-1.176 2.22,-2.808 z m -0.936,0 c 0,1.236 -0.852,2.076 -1.752,2.076 -0.468,0 -0.792,-0.24 -1.032,-0.564 -0.12,-0.18 -0.12,-0.204 -0.12,-0.42 v -2.412 c 0.288,-0.42 0.756,-0.696 1.272,-0.696 0.912,0 1.632,0.912 1.632,2.016 z" /><path
           id="path5223"
           style="font-style:normal;font-variant:normal;font-weight:normal;font-stretch:normal;font-size:12px;font-family:'Latin Modern Sans';-inkscape-font-specification:'Latin Modern Sans';text-align:center;text-anchor:middle;stroke-width:0.75"
           d="m 95.942026,501.67668 c 0,-1.608 -1.2,-2.892 -2.628,-2.892 -1.476,0 -2.64,1.32 -2.64,2.892 0,1.584 1.224,2.772 2.628,2.772 1.44,0 2.64,-1.212 2.64,-2.772 z m -0.936,-0.12 c 0,1.416 -0.816,2.124 -1.704,2.124 -0.828,0 -1.692,-0.672 -1.692,-2.124 0,-1.452 0.912,-2.04 1.692,-2.04 0.84,0 1.704,0.624 1.704,2.04 z" /><path
           id="path5225"
           style="font-style:normal;font-variant:normal;font-weight:normal;font-stretch:normal;font-size:12px;font-family:'Latin Modern Sans';-inkscape-font-specification:'Latin Modern Sans';text-align:center;text-anchor:middle;stroke-width:0.75"
           d="m 101.49798,504.31668 -2.399998,-2.748 2.195998,-2.58 h -0.984 l -1.607998,1.98 -1.656,-1.98 h -0.996 l 2.256,2.58 -2.328,2.748 h 0.984 l 1.74,-2.256 1.799998,2.256 z" /><path
           id="path5227"
           style="font-style:normal;font-variant:normal;font-weight:normal;font-stretch:normal;font-size:12px;font-family:'Latin Modern Sans';-inkscape-font-specification:'Latin Modern Sans';text-align:center;text-anchor:middle;stroke-width:0.75"
           d="m 103.38196,504.31668 v -5.328 h -0.9 v 5.328 z m 0.096,-6.792 v -1.068 h -1.068 v 1.068 z" /><path
           id="path5229"
           style="font-style:normal;font-variant:normal;font-weight:normal;font-stretch:normal;font-size:12px;font-family:'Latin Modern Sans';-inkscape-font-specification:'Latin Modern Sans';text-align:center;text-anchor:middle;stroke-width:0.75"
           d="m 109.58594,504.31668 v -8.328 h -0.9 v 3.528 c -0.636,-0.528 -1.308,-0.66 -1.752,-0.66 -1.188,0 -2.124,1.248 -2.124,2.796 0,1.572 0.924,2.796 2.064,2.796 0.396,0 1.104,-0.108 1.776,-0.756 v 0.624 z m -0.936,-1.668 c 0,0.168 -0.012,0.384 -0.396,0.732 -0.276,0.24 -0.576,0.336 -0.888,0.336 -0.744,0 -1.62,-0.564 -1.62,-2.052 0,-1.584 1.032,-2.076 1.74,-2.076 0.54,0 0.9,0.276 1.164,0.66 z" /><path
           id="path5231"
           style="font-style:normal;font-variant:normal;font-weight:normal;font-stretch:normal;font-size:12px;font-family:'Latin Modern Sans';-inkscape-font-specification:'Latin Modern Sans';text-align:center;text-anchor:middle;stroke-width:0.75"
           d="m 115.54992,501.68868 c 0,-0.408 -0.012,-1.308 -0.48,-2.028 -0.492,-0.744 -1.224,-0.876 -1.656,-0.876 -1.332,0 -2.412,1.272 -2.412,2.82 0,1.584 1.152,2.844 2.592,2.844 0.756,0 1.44,-0.288 1.908,-0.624 l -0.072,-0.78 c -0.756,0.624 -1.548,0.672 -1.824,0.672 -0.96,0 -1.728,-0.852 -1.764,-2.028 z m -0.684,-0.66 h -2.964 c 0.192,-0.912 0.828,-1.512 1.512,-1.512 0.624,0 1.296,0.408 1.452,1.512 z" /><path
           id="path5233"
           style="font-style:normal;font-variant:normal;font-weight:normal;font-stretch:normal;font-size:12px;font-family:'Latin Modern Sans';-inkscape-font-specification:'Latin Modern Sans';text-align:center;text-anchor:middle;stroke-width:0.75"
           d="m 123.82988,499.66068 v -0.804 c -1.068,0.012 -1.728,0.6 -2.1,1.152 v -1.092 h -0.84 v 5.4 h 0.9 v -2.568 c 0,-1.2 0.864,-2.064 2.04,-2.088 z" /><path
           id="path5235"
           style="font-style:normal;font-variant:normal;font-weight:normal;font-stretch:normal;font-size:12px;font-family:'Latin Modern Sans';-inkscape-font-specification:'Latin Modern Sans';text-align:center;text-anchor:middle;stroke-width:0.75"
           d="m 125.88187,504.31668 v -5.328 h -0.9 v 5.328 z m 0.096,-6.792 v -1.068 h -1.068 v 1.068 z" /><path
           id="path5237"
           style="font-style:normal;font-variant:normal;font-weight:normal;font-stretch:normal;font-size:12px;font-family:'Latin Modern Sans';-inkscape-font-specification:'Latin Modern Sans';text-align:center;text-anchor:middle;stroke-width:0.75"
           d="m 132.09785,504.31668 v -3.576 c 0,-0.792 -0.18,-1.884 -1.644,-1.884 -1.08,0 -1.668,0.816 -1.74,0.912 v -0.852 h -0.864 v 5.4 h 0.936 v -2.94 c 0,-0.792 0.3,-1.788 1.212,-1.788 1.152,0 1.164,0.852 1.164,1.236 v 3.492 z" /><path
           id="path5239"
           style="font-style:normal;font-variant:normal;font-weight:normal;font-stretch:normal;font-size:12px;font-family:'Latin Modern Sans';-inkscape-font-specification:'Latin Modern Sans';text-align:center;text-anchor:middle;stroke-width:0.75"
           d="m 138.90183,499.61268 -0.132,-0.756 c -0.84,0 -1.536,0.228 -1.896,0.384 -0.252,-0.204 -0.66,-0.384 -1.14,-0.384 -1.032,0 -1.908,0.864 -1.908,1.956 0,0.444 0.156,0.876 0.396,1.188 -0.348,0.492 -0.348,0.96 -0.348,1.02 0,0.312 0.108,0.66 0.312,0.912 -0.624,0.372 -0.768,0.924 -0.768,1.236 0,0.9 1.188,1.62 2.652,1.62 1.476,0 2.664,-0.708 2.664,-1.632 0,-1.668 -2.004,-1.668 -2.472,-1.668 h -1.056 c -0.156,0 -0.696,0 -0.696,-0.636 0,-0.132 0.048,-0.324 0.132,-0.432 0.252,0.18 0.648,0.348 1.092,0.348 1.08,0 1.92,-0.888 1.92,-1.956 0,-0.576 -0.264,-1.02 -0.396,-1.2 l 0.048,0.012 c 0.264,0 0.6,-0.048 0.888,-0.048 0.216,0 0.708,0.036 0.708,0.036 z m -2.088,1.2 c 0,0.936 -0.564,1.272 -1.08,1.272 -0.444,0 -1.068,-0.276 -1.068,-1.272 0,-0.996 0.624,-1.272 1.068,-1.272 0.516,0 1.08,0.336 1.08,1.272 z m 1.08,4.368 c 0,0.528 -0.828,0.924 -1.812,0.924 -0.972,0 -1.824,-0.372 -1.824,-0.936 0,-0.036 0,-0.816 0.936,-0.816 h 1.08 c 0.264,0 1.62,0 1.62,0.828 z" /></g><g
         style="font-style:normal;font-weight:normal;font-size:12px;line-height:1.25;font-family:sans-serif;letter-spacing:0px;word-spacing:0px;fill:#000000;fill-opacity:1;stroke:none;stroke-width:0.75"
         id="text2317-2-0-3-61"
         transform="matrix(0,1,1,0,0,0)"
         aria-label="HCl, H2O"><path
           id="path5242"
           style="font-style:normal;font-variant:normal;font-weight:normal;font-stretch:normal;font-size:12px;font-family:'Latin Modern Sans';-inkscape-font-specification:'Latin Modern Sans';stroke-width:0.75"
           d="m 92.221997,457.87433 v -8.328 h -1.068 v 3.636 h -4.092 v -3.636 h -1.068 v 8.328 h 1.068 v -3.96 h 4.092 v 3.96 z" /><path
           id="path5244"
           style="font-style:normal;font-variant:normal;font-weight:normal;font-stretch:normal;font-size:12px;font-family:'Latin Modern Sans';-inkscape-font-specification:'Latin Modern Sans';stroke-width:0.75"
           d="m 100.40598,457.33433 -0.072,-0.828 c -0.348003,0.24 -0.696003,0.468 -1.104003,0.588 -0.384,0.132 -0.804,0.144 -1.212,0.144 -0.78,0 -1.488,-0.42 -1.98,-1.032 -0.552,-0.708 -0.816,-1.596 -0.816,-2.496 0,-0.9 0.264,-1.8 0.816,-2.508 0.492,-0.612 1.2,-1.032 1.98,-1.032 0.36,0 0.732,0.036 1.08,0.144 0.36,0.108 0.696,0.288 1.008003,0.504 l 0.168,-0.984 c -0.360003,-0.144 -0.732003,-0.264 -1.116003,-0.336 -0.372,-0.072 -0.756,-0.096 -1.14,-0.096 -1.056,0 -2.028,0.48 -2.736,1.26 -0.744,0.84 -1.128,1.932 -1.128,3.048 0,1.116 0.384,2.208 1.128,3.036 0.708,0.78 1.68,1.26 2.736,1.26 0.42,0 0.84,-0.012 1.248,-0.132 0.408,-0.108 0.780003,-0.324 1.140003,-0.54 z" /><path
           id="path5246"
           style="font-style:normal;font-variant:normal;font-weight:normal;font-stretch:normal;font-size:12px;font-family:'Latin Modern Sans';-inkscape-font-specification:'Latin Modern Sans';stroke-width:0.75"
           d="m 102.90198,457.87433 v -8.328 h -0.9 v 8.328 z" /><path
           id="path5248"
           style="font-style:normal;font-variant:normal;font-weight:normal;font-stretch:normal;font-size:12px;font-family:'Latin Modern Sans';-inkscape-font-specification:'Latin Modern Sans';stroke-width:0.75"
           d="m 106.05796,457.86233 v -0.984 h -0.996 v 0.996 h 0.3 l -0.3,1.5 h 0.492 z" /><path
           id="path5250"
           style="font-style:normal;font-variant:normal;font-weight:normal;font-stretch:normal;font-size:12px;font-family:'Latin Modern Sans';-inkscape-font-specification:'Latin Modern Sans';stroke-width:0.75"
           d="m 118.58593,457.87433 v -8.328 h -1.068 v 3.636 h -4.092 v -3.636 h -1.068 v 8.328 h 1.068 v -3.96 h 4.092 v 3.96 z" /><path
           id="path5252"
           style="font-size:65%;baseline-shift:sub"
           d="m 123.22811,460.27433 v -0.5538 h -1.4196 c -0.0936,0 -0.1872,0.008 -0.2808,0.008 h -0.8502 c 0.2496,-0.2184 0.8424,-0.8034 1.0842,-1.0296 0.1482,-0.1404 0.546,-0.468 0.6942,-0.6084 0.351,-0.351 0.7722,-0.7644 0.7722,-1.4274 0,-0.897 -0.6318,-1.677 -1.6614,-1.677 -0.8892,0 -1.326,0.6084 -1.5132,1.2792 0.0936,0.1326 0.1326,0.1794 0.1482,0.2028 0.0156,0.0156 0.0936,0.117 0.1716,0.2262 0.156,-0.6006 0.3744,-1.209 1.0842,-1.209 0.7332,0 1.131,0.585 1.131,1.1934 0,0.663 -0.4446,1.1076 -0.9048,1.5756 l -0.6006,0.5538 -0.9672,0.9672 v 0.4992 z" /><path
           id="path5254"
           style="font-style:normal;font-variant:normal;font-weight:normal;font-stretch:normal;font-size:12px;font-family:'Latin Modern Sans';-inkscape-font-specification:'Latin Modern Sans';stroke-width:0.75"
           d="m 131.7739,453.73433 c 0,-2.52 -1.74,-4.452 -3.732,-4.452 -2.04,0 -3.744,1.956 -3.744,4.452 0,2.544 1.776,4.404 3.732,4.404 2.004,0 3.744,-1.884 3.744,-4.404 z m -1.068,-0.18 c 0,2.34 -1.296,3.804 -2.664,3.804 -1.416,0 -2.676,-1.5 -2.676,-3.804 0,-2.196 1.32,-3.504 2.664,-3.504 1.392,0 2.676,1.356 2.676,3.504 z" /></g><g
         style="font-style:normal;font-weight:normal;font-size:12px;line-height:1.25;font-family:sans-serif;letter-spacing:0px;word-spacing:0px;fill:#000000;fill-opacity:1;stroke:none;stroke-width:0.75"
         id="text2317-2-0-3-2-10-2-43-59-4"
         transform="matrix(0,1,1,0,0,0)"
         aria-label="O"><path
           id="path5333"
           style="font-style:normal;font-variant:normal;font-weight:normal;font-stretch:normal;font-size:12px;font-family:'Latin Modern Sans';-inkscape-font-specification:'Latin Modern Sans';stroke-width:0.75"
           d="m 282.18209,423.33961 c 0,-2.52 -1.74,-4.452 -3.732,-4.452 -2.04,0 -3.744,1.956 -3.744,4.452 0,2.544 1.776,4.404 3.732,4.404 2.004,0 3.744,-1.884 3.744,-4.404 z m -1.068,-0.18 c 0,2.34 -1.296,3.804 -2.664,3.804 -1.416,0 -2.676,-1.5 -2.676,-3.804 0,-2.196 1.32,-3.504 2.664,-3.504 1.392,0 2.676,1.356 2.676,3.504 z" /></g><path
         id="path70"
         style="fill:none;stroke:#000000;stroke-width:0.45;stroke-linecap:butt;stroke-linejoin:miter;stroke-miterlimit:10;stroke-dasharray:none;stroke-opacity:1"
         d="m 416.52986,257.83679 h -14.52 l -14.58,-14.46 -14.52,14.46 -14.52,-14.46 -21.84,21.72" /><path
         id="path72"
         style="fill:none;stroke:#000000;stroke-width:0.45;stroke-linecap:butt;stroke-linejoin:miter;stroke-miterlimit:10;stroke-dasharray:none;stroke-opacity:1"
         d="m 343.86986,257.83679 h -14.58 l -7.26,7.26" /><g
         style="font-style:normal;font-weight:normal;font-size:12px;line-height:1.25;font-family:sans-serif;letter-spacing:0px;word-spacing:0px;fill:#000000;fill-opacity:1;stroke:none;stroke-width:0.75"
         id="text2317-2-0-3-2"
         transform="matrix(0,1,1,0,0,0)"
         aria-label="OH"><path
           id="path5257"
           style="font-style:normal;font-variant:normal;font-weight:normal;font-stretch:normal;font-size:12px;font-family:'Latin Modern Sans';-inkscape-font-specification:'Latin Modern Sans';stroke-width:0.75"
           d="m 275.75734,320.61732 c 0,-2.52 -1.74,-4.452 -3.732,-4.452 -2.04,0 -3.744,1.956 -3.744,4.452 0,2.544 1.776,4.404 3.732,4.404 2.004,0 3.744,-1.884 3.744,-4.404 z m -1.068,-0.18 c 0,2.34 -1.296,3.804 -2.664,3.804 -1.416,0 -2.676,-1.5 -2.676,-3.804 0,-2.196 1.32,-3.504 2.664,-3.504 1.392,0 2.676,1.356 2.676,3.504 z" /><path
           id="path5259"
           style="font-style:normal;font-variant:normal;font-weight:normal;font-stretch:normal;font-size:12px;font-family:'Latin Modern Sans';-inkscape-font-specification:'Latin Modern Sans';stroke-width:0.75"
           d="m 283.79732,324.75732 v -8.328 h -1.068 v 3.636 h -4.092 v -3.636 h -1.068 v 8.328 h 1.068 v -3.96 h 4.092 v 3.96 z" /></g><g
         style="font-style:normal;font-weight:normal;font-size:12px;line-height:1.25;font-family:sans-serif;letter-spacing:0px;word-spacing:0px;fill:#000000;fill-opacity:1;stroke:none;stroke-width:0.75"
         id="text2317-2-0-3-2-9"
         transform="matrix(0,1,1,0,0,0)"
         aria-label="OH"><path
           id="path5262"
           style="font-style:normal;font-variant:normal;font-weight:normal;font-stretch:normal;font-size:12px;font-family:'Latin Modern Sans';-inkscape-font-specification:'Latin Modern Sans';stroke-width:0.75"
           d="m 275.75734,335.71886 c 0,-2.52 -1.74,-4.452 -3.732,-4.452 -2.04,0 -3.744,1.956 -3.744,4.452 0,2.544 1.776,4.404 3.732,4.404 2.004,0 3.744,-1.884 3.744,-4.404 z m -1.068,-0.18 c 0,2.34 -1.296,3.804 -2.664,3.804 -1.416,0 -2.676,-1.5 -2.676,-3.804 0,-2.196 1.32,-3.504 2.664,-3.504 1.392,0 2.676,1.356 2.676,3.504 z" /><path
           id="path5264"
           style="font-style:normal;font-variant:normal;font-weight:normal;font-stretch:normal;font-size:12px;font-family:'Latin Modern Sans';-inkscape-font-specification:'Latin Modern Sans';stroke-width:0.75"
           d="m 283.79732,339.85886 v -8.328 h -1.068 v 3.636 h -4.092 v -3.636 h -1.068 v 8.328 h 1.068 v -3.96 h 4.092 v 3.96 z" /></g><g
         style="font-style:normal;font-weight:normal;font-size:12px;line-height:1.25;font-family:sans-serif;letter-spacing:0px;word-spacing:0px;fill:#000000;fill-opacity:1;stroke:none;stroke-width:0.75"
         id="text2317-2-0-3-2-10-2-43-5-3"
         transform="matrix(0,1,1,0,0,0)"
         aria-label="O"><path
           id="path5336"
           style="font-style:normal;font-variant:normal;font-weight:normal;font-stretch:normal;font-size:12px;font-family:'Latin Modern Sans';-inkscape-font-specification:'Latin Modern Sans';stroke-width:0.75"
           d="m 239.87195,423.33961 c 0,-2.52 -1.74,-4.452 -3.732,-4.452 -2.04,0 -3.744,1.956 -3.744,4.452 0,2.544 1.776,4.404 3.732,4.404 2.004,0 3.744,-1.884 3.744,-4.404 z m -1.068,-0.18 c 0,2.34 -1.296,3.804 -2.664,3.804 -1.416,0 -2.676,-1.5 -2.676,-3.804 0,-2.196 1.32,-3.504 2.664,-3.504 1.392,0 2.676,1.356 2.676,3.504 z" /></g><path
         id="path224-7-8"
         style="fill:none;stroke:#000000;stroke-width:0.45;stroke-linecap:butt;stroke-linejoin:miter;stroke-miterlimit:10;stroke-dasharray:none;stroke-opacity:1"
         d="m 423.31561,264.46126 v 7.62" /><path
         id="path226-2-4"
         style="fill:none;stroke:#000000;stroke-width:0.45;stroke-linecap:butt;stroke-linejoin:miter;stroke-miterlimit:10;stroke-dasharray:none;stroke-opacity:1"
         d="m 423.31561,243.04126 v 7.68" /><path
         id="path230-1-1"
         style="fill:none;stroke:#000000;stroke-width:0.45;stroke-linecap:butt;stroke-linejoin:miter;stroke-miterlimit:10;stroke-dasharray:none;stroke-opacity:1"
         d="m 438.19561,257.18187 h -7.62" /><path
         id="path232-0-0"
         style="fill:none;stroke:#000000;stroke-width:0.45;stroke-linecap:butt;stroke-linejoin:miter;stroke-miterlimit:10;stroke-dasharray:none;stroke-opacity:1"
         d="m 459.37561,257.18187 h -7.74" /><g
         style="font-style:normal;font-weight:normal;font-size:12px;line-height:1.25;font-family:sans-serif;letter-spacing:0px;word-spacing:0px;fill:#000000;fill-opacity:1;stroke:none;stroke-width:0.75"
         id="text2317-2-0-3-2-10-2-4-6-3"
         transform="matrix(0,1,1,0,0,0)"
         aria-label="O"><path
           id="path5339"
           style="font-style:normal;font-variant:normal;font-weight:normal;font-stretch:normal;font-size:12px;font-family:'Latin Modern Sans';-inkscape-font-specification:'Latin Modern Sans';stroke-width:0.75"
           d="m 260.91988,444.70882 c 0,-2.52 -1.74,-4.452 -3.732,-4.452 -2.04,0 -3.744,1.956 -3.744,4.452 0,2.544 1.776,4.404 3.732,4.404 2.004,0 3.744,-1.884 3.744,-4.404 z m -1.068,-0.18 c 0,2.34 -1.296,3.804 -2.664,3.804 -1.416,0 -2.676,-1.5 -2.676,-3.804 0,-2.196 1.32,-3.504 2.664,-3.504 1.392,0 2.676,1.356 2.676,3.504 z" /></g><g
         style="font-style:normal;font-weight:normal;font-size:12px;line-height:1.25;font-family:sans-serif;letter-spacing:0px;word-spacing:0px;fill:#000000;fill-opacity:1;stroke:none;stroke-width:0.75"
         id="text2317-2-0-3-2-10-2-78-9-4"
         transform="matrix(0,1,1,0,0,0)"
         aria-label="Si"><path
           id="path5342"
           style="font-style:normal;font-variant:normal;font-weight:normal;font-stretch:normal;font-size:12px;font-family:'Latin Modern Sans';-inkscape-font-specification:'Latin Modern Sans';stroke-width:0.75"
           d="m 258.58587,425.21161 c 0,-0.78 -0.372,-1.356 -0.636,-1.644 -0.564,-0.6 -0.96,-0.708 -2.064,-0.984 -0.696,-0.168 -0.888,-0.216 -1.248,-0.528 -0.084,-0.072 -0.42,-0.42 -0.42,-0.948 0,-0.708 0.648,-1.428 1.752,-1.428 1.008,0 1.584,0.396 2.028,0.768 l 0.18,-0.96 c -0.66,-0.396 -1.32,-0.6 -2.196,-0.6 -1.668,0 -2.712,1.176 -2.712,2.364 0,0.516 0.168,1.02 0.648,1.524 0.504,0.54 1.032,0.684 1.74,0.852 1.02,0.252 1.14,0.288 1.476,0.588 0.24,0.204 0.504,0.6 0.504,1.116 0,0.792 -0.66,1.584 -1.752,1.584 -0.492,0 -1.572,-0.12 -2.58,-0.972 l -0.18,0.972 c 1.056,0.66 2.016,0.828 2.772,0.828 1.584,0 2.688,-1.212 2.688,-2.532 z" /><path
           id="path5344"
           style="font-style:normal;font-variant:normal;font-weight:normal;font-stretch:normal;font-size:12px;font-family:'Latin Modern Sans';-inkscape-font-specification:'Latin Modern Sans';stroke-width:0.75"
           d="m 261.14187,427.47961 v -5.328 h -0.9 v 5.328 z m 0.096,-6.792 v -1.068 h -1.068 v 1.068 z" /></g><path
         d="m 416.52986,214.57002 h -14.52 l -14.58,-14.46 -14.52,14.46 -14.52,-14.46 -21.84,21.72"
         style="fill:none;stroke:#000000;stroke-width:0.45;stroke-linecap:butt;stroke-linejoin:miter;stroke-miterlimit:10;stroke-dasharray:none;stroke-opacity:1"
         id="path70-7" /><path
         d="m 343.86986,214.57002 h -14.58 l -7.26,7.26"
         style="fill:none;stroke:#000000;stroke-width:0.45;stroke-linecap:butt;stroke-linejoin:miter;stroke-miterlimit:10;stroke-dasharray:none;stroke-opacity:1"
         id="path72-5" /><g
         style="font-style:normal;font-weight:normal;font-size:12px;line-height:1.25;font-family:sans-serif;letter-spacing:0px;word-spacing:0px;fill:#000000;fill-opacity:1;stroke:none;stroke-width:0.75"
         id="text2317-2-0-3-2-96"
         transform="matrix(0,1,1,0,0,0)"
         aria-label="OH"><path
           id="path5267"
           style="font-style:normal;font-variant:normal;font-weight:normal;font-stretch:normal;font-size:12px;font-family:'Latin Modern Sans';-inkscape-font-specification:'Latin Modern Sans';stroke-width:0.75"
           d="m 232.49056,320.61732 c 0,-2.52 -1.74,-4.452 -3.732,-4.452 -2.04,0 -3.744,1.956 -3.744,4.452 0,2.544 1.776,4.404 3.732,4.404 2.004,0 3.744,-1.884 3.744,-4.404 z m -1.068,-0.18 c 0,2.34 -1.296,3.804 -2.664,3.804 -1.416,0 -2.676,-1.5 -2.676,-3.804 0,-2.196 1.32,-3.504 2.664,-3.504 1.392,0 2.676,1.356 2.676,3.504 z" /><path
           id="path5269"
           style="font-style:normal;font-variant:normal;font-weight:normal;font-stretch:normal;font-size:12px;font-family:'Latin Modern Sans';-inkscape-font-specification:'Latin Modern Sans';stroke-width:0.75"
           d="m 240.53054,324.75732 v -8.328 h -1.068 v 3.636 h -4.092 v -3.636 h -1.068 v 8.328 h 1.068 v -3.96 h 4.092 v 3.96 z" /></g><g
         style="font-style:normal;font-weight:normal;font-size:12px;line-height:1.25;font-family:sans-serif;letter-spacing:0px;word-spacing:0px;fill:#000000;fill-opacity:1;stroke:none;stroke-width:0.75"
         id="text2317-2-0-3-2-9-1"
         transform="matrix(0,1,1,0,0,0)"
         aria-label="OH"><path
           id="path5272"
           style="font-style:normal;font-variant:normal;font-weight:normal;font-stretch:normal;font-size:12px;font-family:'Latin Modern Sans';-inkscape-font-specification:'Latin Modern Sans';stroke-width:0.75"
           d="m 232.49056,335.71886 c 0,-2.52 -1.74,-4.452 -3.732,-4.452 -2.04,0 -3.744,1.956 -3.744,4.452 0,2.544 1.776,4.404 3.732,4.404 2.004,0 3.744,-1.884 3.744,-4.404 z m -1.068,-0.18 c 0,2.34 -1.296,3.804 -2.664,3.804 -1.416,0 -2.676,-1.5 -2.676,-3.804 0,-2.196 1.32,-3.504 2.664,-3.504 1.392,0 2.676,1.356 2.676,3.504 z" /><path
           id="path5274"
           style="font-style:normal;font-variant:normal;font-weight:normal;font-stretch:normal;font-size:12px;font-family:'Latin Modern Sans';-inkscape-font-specification:'Latin Modern Sans';stroke-width:0.75"
           d="m 240.53054,339.85886 v -8.328 h -1.068 v 3.636 h -4.092 v -3.636 h -1.068 v 8.328 h 1.068 v -3.96 h 4.092 v 3.96 z" /></g><g
         style="font-style:normal;font-weight:normal;font-size:12px;line-height:1.25;font-family:sans-serif;letter-spacing:0px;word-spacing:0px;fill:#000000;fill-opacity:1;stroke:none;stroke-width:0.75"
         id="text2317-2-0-3-2-10-2-43-5-3-8"
         transform="matrix(0,1,1,0,0,0)"
         aria-label="O"><path
           id="path5347"
           style="font-style:normal;font-variant:normal;font-weight:normal;font-stretch:normal;font-size:12px;font-family:'Latin Modern Sans';-inkscape-font-specification:'Latin Modern Sans';stroke-width:0.75"
           d="m 196.60518,423.33961 c 0,-2.52 -1.74,-4.452 -3.732,-4.452 -2.04,0 -3.744,1.956 -3.744,4.452 0,2.544 1.776,4.404 3.732,4.404 2.004,0 3.744,-1.884 3.744,-4.404 z m -1.068,-0.18 c 0,2.34 -1.296,3.804 -2.664,3.804 -1.416,0 -2.676,-1.5 -2.676,-3.804 0,-2.196 1.32,-3.504 2.664,-3.504 1.392,0 2.676,1.356 2.676,3.504 z" /></g><path
         d="m 423.31561,221.19449 v 7.62"
         style="fill:none;stroke:#000000;stroke-width:0.45;stroke-linecap:butt;stroke-linejoin:miter;stroke-miterlimit:10;stroke-dasharray:none;stroke-opacity:1"
         id="path224-7-8-7" /><path
         d="m 423.31561,199.77449 v 7.68"
         style="fill:none;stroke:#000000;stroke-width:0.45;stroke-linecap:butt;stroke-linejoin:miter;stroke-miterlimit:10;stroke-dasharray:none;stroke-opacity:1"
         id="path226-2-4-4" /><path
         d="m 438.19561,213.9151 h -7.62"
         style="fill:none;stroke:#000000;stroke-width:0.45;stroke-linecap:butt;stroke-linejoin:miter;stroke-miterlimit:10;stroke-dasharray:none;stroke-opacity:1"
         id="path230-1-1-1" /><path
         d="m 459.37561,213.9151 h -7.74"
         style="fill:none;stroke:#000000;stroke-width:0.45;stroke-linecap:butt;stroke-linejoin:miter;stroke-miterlimit:10;stroke-dasharray:none;stroke-opacity:1"
         id="path232-0-0-8" /><g
         style="font-style:normal;font-weight:normal;font-size:12px;line-height:1.25;font-family:sans-serif;letter-spacing:0px;word-spacing:0px;fill:#000000;fill-opacity:1;stroke:none;stroke-width:0.75"
         id="text2317-2-0-3-2-10-2-4-6-3-5"
         transform="matrix(0,1,1,0,0,0)"
         aria-label="O"><path
           id="path5350"
           style="font-style:normal;font-variant:normal;font-weight:normal;font-stretch:normal;font-size:12px;font-family:'Latin Modern Sans';-inkscape-font-specification:'Latin Modern Sans';stroke-width:0.75"
           d="m 217.65311,444.70882 c 0,-2.52 -1.74,-4.452 -3.732,-4.452 -2.04,0 -3.744,1.956 -3.744,4.452 0,2.544 1.776,4.404 3.732,4.404 2.004,0 3.744,-1.884 3.744,-4.404 z m -1.068,-0.18 c 0,2.34 -1.296,3.804 -2.664,3.804 -1.416,0 -2.676,-1.5 -2.676,-3.804 0,-2.196 1.32,-3.504 2.664,-3.504 1.392,0 2.676,1.356 2.676,3.504 z" /></g><g
         style="font-style:normal;font-weight:normal;font-size:12px;line-height:1.25;font-family:sans-serif;letter-spacing:0px;word-spacing:0px;fill:#000000;fill-opacity:1;stroke:none;stroke-width:0.75"
         id="text2317-2-0-3-2-10-2-78-9-4-7"
         transform="matrix(0,1,1,0,0,0)"
         aria-label="Si"><path
           id="path5353"
           style="font-style:normal;font-variant:normal;font-weight:normal;font-stretch:normal;font-size:12px;font-family:'Latin Modern Sans';-inkscape-font-specification:'Latin Modern Sans';stroke-width:0.75"
           d="m 215.3191,425.21161 c 0,-0.78 -0.372,-1.356 -0.636,-1.644 -0.564,-0.6 -0.96,-0.708 -2.064,-0.984 -0.696,-0.168 -0.888,-0.216 -1.248,-0.528 -0.084,-0.072 -0.42,-0.42 -0.42,-0.948 0,-0.708 0.648,-1.428 1.752,-1.428 1.008,0 1.584,0.396 2.028,0.768 l 0.18,-0.96 c -0.66,-0.396 -1.32,-0.6 -2.196,-0.6 -1.668,0 -2.712,1.176 -2.712,2.364 0,0.516 0.168,1.02 0.648,1.524 0.504,0.54 1.032,0.684 1.74,0.852 1.02,0.252 1.14,0.288 1.476,0.588 0.24,0.204 0.504,0.6 0.504,1.116 0,0.792 -0.66,1.584 -1.752,1.584 -0.492,0 -1.572,-0.12 -2.58,-0.972 l -0.18,0.972 c 1.056,0.66 2.016,0.828 2.772,0.828 1.584,0 2.688,-1.212 2.688,-2.532 z" /><path
           id="path5355"
           style="font-style:normal;font-variant:normal;font-weight:normal;font-stretch:normal;font-size:12px;font-family:'Latin Modern Sans';-inkscape-font-specification:'Latin Modern Sans';stroke-width:0.75"
           d="m 217.8751,427.47961 v -5.328 h -0.9 v 5.328 z m 0.096,-6.792 v -1.068 h -1.068 v 1.068 z" /></g><path
         d="m 416.52986,171.30325 h -14.52 l -14.58,-14.46 -14.52,14.46 -14.52,-14.46 -21.84,21.72"
         style="fill:none;stroke:#000000;stroke-width:0.45;stroke-linecap:butt;stroke-linejoin:miter;stroke-miterlimit:10;stroke-dasharray:none;stroke-opacity:1"
         id="path70-3" /><path
         d="m 343.86986,171.30325 h -14.58 l -7.26,7.26"
         style="fill:none;stroke:#000000;stroke-width:0.45;stroke-linecap:butt;stroke-linejoin:miter;stroke-miterlimit:10;stroke-dasharray:none;stroke-opacity:1"
         id="path72-1" /><g
         style="font-style:normal;font-weight:normal;font-size:12px;line-height:1.25;font-family:sans-serif;letter-spacing:0px;word-spacing:0px;fill:#000000;fill-opacity:1;stroke:none;stroke-width:0.75"
         id="text2317-2-0-3-2-8"
         transform="matrix(0,1,1,0,0,0)"
         aria-label="OH"><path
           id="path5277"
           style="font-style:normal;font-variant:normal;font-weight:normal;font-stretch:normal;font-size:12px;font-family:'Latin Modern Sans';-inkscape-font-specification:'Latin Modern Sans';stroke-width:0.75"
           d="m 189.22379,320.61732 c 0,-2.52 -1.74,-4.452 -3.732,-4.452 -2.04,0 -3.744,1.956 -3.744,4.452 0,2.544 1.776,4.404 3.732,4.404 2.004,0 3.744,-1.884 3.744,-4.404 z m -1.068,-0.18 c 0,2.34 -1.296,3.804 -2.664,3.804 -1.416,0 -2.676,-1.5 -2.676,-3.804 0,-2.196 1.32,-3.504 2.664,-3.504 1.392,0 2.676,1.356 2.676,3.504 z" /><path
           id="path5279"
           style="font-style:normal;font-variant:normal;font-weight:normal;font-stretch:normal;font-size:12px;font-family:'Latin Modern Sans';-inkscape-font-specification:'Latin Modern Sans';stroke-width:0.75"
           d="m 197.26377,324.75732 v -8.328 h -1.068 v 3.636 h -4.092 v -3.636 h -1.068 v 8.328 h 1.068 v -3.96 h 4.092 v 3.96 z" /></g><g
         style="font-style:normal;font-weight:normal;font-size:12px;line-height:1.25;font-family:sans-serif;letter-spacing:0px;word-spacing:0px;fill:#000000;fill-opacity:1;stroke:none;stroke-width:0.75"
         id="text2317-2-0-3-2-9-6"
         transform="matrix(0,1,1,0,0,0)"
         aria-label="OH"><path
           id="path5282"
           style="font-style:normal;font-variant:normal;font-weight:normal;font-stretch:normal;font-size:12px;font-family:'Latin Modern Sans';-inkscape-font-specification:'Latin Modern Sans';stroke-width:0.75"
           d="m 189.22379,335.71886 c 0,-2.52 -1.74,-4.452 -3.732,-4.452 -2.04,0 -3.744,1.956 -3.744,4.452 0,2.544 1.776,4.404 3.732,4.404 2.004,0 3.744,-1.884 3.744,-4.404 z m -1.068,-0.18 c 0,2.34 -1.296,3.804 -2.664,3.804 -1.416,0 -2.676,-1.5 -2.676,-3.804 0,-2.196 1.32,-3.504 2.664,-3.504 1.392,0 2.676,1.356 2.676,3.504 z" /><path
           id="path5284"
           style="font-style:normal;font-variant:normal;font-weight:normal;font-stretch:normal;font-size:12px;font-family:'Latin Modern Sans';-inkscape-font-specification:'Latin Modern Sans';stroke-width:0.75"
           d="m 197.26377,339.85886 v -8.328 h -1.068 v 3.636 h -4.092 v -3.636 h -1.068 v 8.328 h 1.068 v -3.96 h 4.092 v 3.96 z" /></g><g
         style="font-style:normal;font-weight:normal;font-size:12px;line-height:1.25;font-family:sans-serif;letter-spacing:0px;word-spacing:0px;fill:#000000;fill-opacity:1;stroke:none;stroke-width:0.75"
         id="text2317-2-0-3-2-10-2-43-5-3-3"
         transform="matrix(0,1,1,0,0,0)"
         aria-label="O"><path
           id="path5358"
           style="font-style:normal;font-variant:normal;font-weight:normal;font-stretch:normal;font-size:12px;font-family:'Latin Modern Sans';-inkscape-font-specification:'Latin Modern Sans';stroke-width:0.75"
           d="m 153.33841,423.33961 c 0,-2.52 -1.74,-4.452 -3.732,-4.452 -2.04,0 -3.744,1.956 -3.744,4.452 0,2.544 1.776,4.404 3.732,4.404 2.004,0 3.744,-1.884 3.744,-4.404 z m -1.068,-0.18 c 0,2.34 -1.296,3.804 -2.664,3.804 -1.416,0 -2.676,-1.5 -2.676,-3.804 0,-2.196 1.32,-3.504 2.664,-3.504 1.392,0 2.676,1.356 2.676,3.504 z" /></g><path
         d="m 423.31561,177.92772 v 7.62"
         style="fill:none;stroke:#000000;stroke-width:0.45;stroke-linecap:butt;stroke-linejoin:miter;stroke-miterlimit:10;stroke-dasharray:none;stroke-opacity:1"
         id="path224-7-8-3" /><path
         d="m 423.31561,156.50772 v 7.68"
         style="fill:none;stroke:#000000;stroke-width:0.45;stroke-linecap:butt;stroke-linejoin:miter;stroke-miterlimit:10;stroke-dasharray:none;stroke-opacity:1"
         id="path226-2-4-8" /><path
         d="m 438.19561,170.64833 h -7.62"
         style="fill:none;stroke:#000000;stroke-width:0.45;stroke-linecap:butt;stroke-linejoin:miter;stroke-miterlimit:10;stroke-dasharray:none;stroke-opacity:1"
         id="path230-1-1-6" /><path
         d="m 459.37561,170.64833 h -7.74"
         style="fill:none;stroke:#000000;stroke-width:0.45;stroke-linecap:butt;stroke-linejoin:miter;stroke-miterlimit:10;stroke-dasharray:none;stroke-opacity:1"
         id="path232-0-0-0" /><g
         style="font-style:normal;font-weight:normal;font-size:12px;line-height:1.25;font-family:sans-serif;letter-spacing:0px;word-spacing:0px;fill:#000000;fill-opacity:1;stroke:none;stroke-width:0.75"
         id="text2317-2-0-3-2-10-2-4-6-3-4"
         transform="matrix(0,1,1,0,0,0)"
         aria-label="O"><path
           id="path5361"
           style="font-style:normal;font-variant:normal;font-weight:normal;font-stretch:normal;font-size:12px;font-family:'Latin Modern Sans';-inkscape-font-specification:'Latin Modern Sans';stroke-width:0.75"
           d="m 174.38633,444.70882 c 0,-2.52 -1.74,-4.452 -3.732,-4.452 -2.04,0 -3.744,1.956 -3.744,4.452 0,2.544 1.776,4.404 3.732,4.404 2.004,0 3.744,-1.884 3.744,-4.404 z m -1.068,-0.18 c 0,2.34 -1.296,3.804 -2.664,3.804 -1.416,0 -2.676,-1.5 -2.676,-3.804 0,-2.196 1.32,-3.504 2.664,-3.504 1.392,0 2.676,1.356 2.676,3.504 z" /></g><g
         style="font-style:normal;font-weight:normal;font-size:12px;line-height:1.25;font-family:sans-serif;letter-spacing:0px;word-spacing:0px;fill:#000000;fill-opacity:1;stroke:none;stroke-width:0.75"
         id="text2317-2-0-3-2-10-2-78-9-4-8"
         transform="matrix(0,1,1,0,0,0)"
         aria-label="Si"><path
           id="path5364"
           style="font-style:normal;font-variant:normal;font-weight:normal;font-stretch:normal;font-size:12px;font-family:'Latin Modern Sans';-inkscape-font-specification:'Latin Modern Sans';stroke-width:0.75"
           d="m 172.05232,425.21161 c 0,-0.78 -0.372,-1.356 -0.636,-1.644 -0.564,-0.6 -0.96,-0.708 -2.064,-0.984 -0.696,-0.168 -0.888,-0.216 -1.248,-0.528 -0.084,-0.072 -0.42,-0.42 -0.42,-0.948 0,-0.708 0.648,-1.428 1.752,-1.428 1.008,0 1.584,0.396 2.028,0.768 l 0.18,-0.96 c -0.66,-0.396 -1.32,-0.6 -2.196,-0.6 -1.668,0 -2.712,1.176 -2.712,2.364 0,0.516 0.168,1.02 0.648,1.524 0.504,0.54 1.032,0.684 1.74,0.852 1.02,0.252 1.14,0.288 1.476,0.588 0.24,0.204 0.504,0.6 0.504,1.116 0,0.792 -0.66,1.584 -1.752,1.584 -0.492,0 -1.572,-0.12 -2.58,-0.972 l -0.18,0.972 c 1.056,0.66 2.016,0.828 2.772,0.828 1.584,0 2.688,-1.212 2.688,-2.532 z" /><path
           id="path5366"
           style="font-style:normal;font-variant:normal;font-weight:normal;font-stretch:normal;font-size:12px;font-family:'Latin Modern Sans';-inkscape-font-specification:'Latin Modern Sans';stroke-width:0.75"
           d="m 174.60831,427.47961 v -5.328 h -0.9 v 5.328 z m 0.096,-6.792 v -1.068 h -1.068 v 1.068 z" /></g></g></g></svg>
