<?xml version="1.0" encoding="UTF-8" standalone="no"?>
<svg
   xmlns:dc="http://purl.org/dc/elements/1.1/"
   xmlns:cc="http://creativecommons.org/ns#"
   xmlns:rdf="http://www.w3.org/1999/02/22-rdf-syntax-ns#"
   xmlns:svg="http://www.w3.org/2000/svg"
   xmlns="http://www.w3.org/2000/svg"
   xmlns:sodipodi="http://sodipodi.sourceforge.net/DTD/sodipodi-0.dtd"
   xmlns:inkscape="http://www.inkscape.org/namespaces/inkscape"
   inkscape:version="1.0 (4035a4fb49, 2020-05-01)"
   sodipodi:docname="Biochips_functionalization_cea2_step5.svg"
   viewBox="0 0 274.29999 267.01791"
   height="267.01791"
   width="274.29999"
   xml:space="preserve"
   id="svg2"
   version="1.1"><metadata
     id="metadata8"><rdf:RDF><cc:Work
         rdf:about=""><dc:format>image/svg+xml</dc:format><dc:type
           rdf:resource="http://purl.org/dc/dcmitype/StillImage" /><dc:title /></cc:Work></rdf:RDF></metadata><defs
     id="defs6"><clipPath
       id="clipPath22"
       clipPathUnits="userSpaceOnUse"><path
         id="path20"
         d="M 951.417,834.339 H 4861.42 V 7244.34 H 951.417 Z" /></clipPath><clipPath
       id="clipPath54"
       clipPathUnits="userSpaceOnUse"><path
         id="path52"
         clip-rule="evenodd"
         d="M 951.417,834.339 H 4861.42 V 7244.34 H 951.417 Z M 4719.62,1345.34 h -45 v -82.8 l 22.8,67.2 22.2,-67.2 z" /></clipPath><clipPath
       id="clipPath64"
       clipPathUnits="userSpaceOnUse"><path
         id="path62"
         d="M 951.417,834.339 H 4861.42 V 7244.34 H 951.417 Z" /></clipPath><clipPath
       id="clipPath286"
       clipPathUnits="userSpaceOnUse"><path
         id="path284"
         clip-rule="evenodd"
         d="M 951.417,834.339 H 4861.42 V 7244.34 H 951.417 Z M 2424.62,5755.34 h -45 v -84 l 22.8,67.8 22.2,-67.8 z" /></clipPath><clipPath
       id="clipPath296"
       clipPathUnits="userSpaceOnUse"><path
         id="path294"
         d="M 951.417,834.339 H 4861.42 V 7244.34 H 951.417 Z" /></clipPath><clipPath
       id="clipPath308"
       clipPathUnits="userSpaceOnUse"><path
         id="path306"
         clip-rule="evenodd"
         d="M 951.417,834.339 H 4861.42 V 7244.34 H 951.417 Z M 2424.62,3055.34 h -45 v -84 l 22.8,67.8 22.2,-67.8 z" /></clipPath><clipPath
       id="clipPath318"
       clipPathUnits="userSpaceOnUse"><path
         id="path316"
         d="M 951.417,834.339 H 4861.42 V 7244.34 H 951.417 Z" /></clipPath><clipPath
       id="clipPath370"
       clipPathUnits="userSpaceOnUse"><path
         id="path368"
         clip-rule="evenodd"
         d="M 951.417,834.339 H 4861.42 V 7244.34 H 951.417 Z M 4719.62,5755.34 h -45 v -84 l 22.8,67.8 22.2,-67.8 z" /></clipPath><clipPath
       id="clipPath380"
       clipPathUnits="userSpaceOnUse"><path
         id="path378"
         d="M 951.417,834.339 H 4861.42 V 7244.34 H 951.417 Z" /></clipPath><clipPath
       id="clipPath392"
       clipPathUnits="userSpaceOnUse"><path
         id="path390"
         clip-rule="evenodd"
         d="M 951.417,834.339 H 4861.42 V 7244.34 H 951.417 Z M 4719.62,3460.34 h -45 v -84 l 22.8,67.8 22.2,-67.8 z" /></clipPath><clipPath
       id="clipPath402"
       clipPathUnits="userSpaceOnUse"><path
         id="path400"
         d="M 951.417,834.339 H 4861.42 V 7244.34 H 951.417 Z" /></clipPath></defs><sodipodi:namedview
     inkscape:current-layer="g10"
     inkscape:window-maximized="1"
     inkscape:window-y="0"
     inkscape:window-x="0"
     inkscape:cy="32.927496"
     inkscape:cx="412.58442"
     inkscape:zoom="0.9983453"
     showgrid="false"
     id="namedview4"
     inkscape:window-height="1015"
     inkscape:window-width="1920"
     inkscape:pageshadow="2"
     inkscape:pageopacity="0"
     guidetolerance="10"
     gridtolerance="10"
     objecttolerance="10"
     borderopacity="1"
     bordercolor="#666666"
     pagecolor="#ffffff"
     inkscape:document-rotation="0"
     fit-margin-top="5"
     fit-margin-left="5"
     fit-margin-right="5"
     fit-margin-bottom="5" /><g
     transform="matrix(0,1.3333333,1.3333333,0,-389.17866,-413.70032)"
     inkscape:label="rapport"
     inkscape:groupmode="layer"
     id="g10"><g
       id="g1096"><path
         id="path182"
         style="fill:#87cfff;fill-opacity:1;fill-rule:evenodd;stroke:none;stroke-width:0.1"
         d="m 460.742,358.634 h 4.5 v 135 h -4.5 z" /><path
         id="path184"
         style="fill:none;stroke:#87cfff;stroke-width:0.45;stroke-linecap:butt;stroke-linejoin:miter;stroke-miterlimit:10;stroke-dasharray:none;stroke-opacity:1"
         d="m 460.742,358.634 h 4.5 v 135 h -4.5 z" /><path
         id="path186"
         style="fill:#00008f;fill-opacity:1;fill-rule:evenodd;stroke:none;stroke-width:0.1"
         d="m 465.242,358.634 h 13.5 v 135 h -13.5 z" /><path
         id="path188"
         style="fill:none;stroke:#000000;stroke-width:0.45;stroke-linecap:butt;stroke-linejoin:miter;stroke-miterlimit:10;stroke-dasharray:none;stroke-opacity:1"
         d="m 465.242,358.634 h 13.5 v 135 h -13.5 z" /><path
         id="path394"
         style="fill:none;stroke:#000000;stroke-width:0.45;stroke-linecap:butt;stroke-linejoin:miter;stroke-miterlimit:10;stroke-dasharray:none;stroke-opacity:1"
         d="m 469.742,295.634 v 49.5" /><path
         id="path404"
         style="fill:#000000;fill-opacity:1;fill-rule:evenodd;stroke:none;stroke-width:0.1"
         d="m 471.962,337.634 -2.22,6.78 -2.28,-6.78 2.28,1.38 2.22,-1.38" /><path
         id="path406"
         style="fill:none;stroke:#000000;stroke-width:0.45;stroke-linecap:butt;stroke-linejoin:miter;stroke-miterlimit:10;stroke-dasharray:none;stroke-opacity:1"
         d="m 471.962,337.634 -2.22,6.78 -2.28,-6.78 2.28,1.38 z" /><g
         style="font-style:normal;font-weight:normal;font-size:12px;line-height:1.25;font-family:sans-serif;letter-spacing:0px;word-spacing:0px;fill:#000000;fill-opacity:1;stroke:none;stroke-width:0.75"
         id="text2317-5"
         transform="matrix(0,1,1,0,0,0)"
         aria-label="Oxidative cleavage"><path
           id="path5298"
           style="font-style:normal;font-variant:normal;font-weight:normal;font-stretch:normal;font-size:12px;font-family:'Latin Modern Sans';-inkscape-font-specification:'Latin Modern Sans';text-align:center;text-anchor:middle;stroke-width:0.75"
           d="m 304.46608,485.03892 c 0,-2.52 -1.74,-4.452 -3.732,-4.452 -2.04,0 -3.744,1.956 -3.744,4.452 0,2.544 1.776,4.404 3.732,4.404 2.004,0 3.744,-1.884 3.744,-4.404 z m -1.068,-0.18 c 0,2.34 -1.296,3.804 -2.664,3.804 -1.416,0 -2.676,-1.5 -2.676,-3.804 0,-2.196 1.32,-3.504 2.664,-3.504 1.392,0 2.676,1.356 2.676,3.504 z" /><path
           id="path5300"
           style="font-style:normal;font-variant:normal;font-weight:normal;font-stretch:normal;font-size:12px;font-family:'Latin Modern Sans';-inkscape-font-specification:'Latin Modern Sans';text-align:center;text-anchor:middle;stroke-width:0.75"
           d="m 310.67006,489.17892 -2.4,-2.748 2.196,-2.58 h -0.984 l -1.608,1.98 -1.656,-1.98 h -0.996 l 2.256,2.58 -2.328,2.748 h 0.984 l 1.74,-2.256 1.8,2.256 z" /><path
           id="path5302"
           style="font-style:normal;font-variant:normal;font-weight:normal;font-stretch:normal;font-size:12px;font-family:'Latin Modern Sans';-inkscape-font-specification:'Latin Modern Sans';text-align:center;text-anchor:middle;stroke-width:0.75"
           d="m 312.55404,489.17892 v -5.328 h -0.9 v 5.328 z m 0.096,-6.792 v -1.068 h -1.068 v 1.068 z" /><path
           id="path5304"
           style="font-style:normal;font-variant:normal;font-weight:normal;font-stretch:normal;font-size:12px;font-family:'Latin Modern Sans';-inkscape-font-specification:'Latin Modern Sans';text-align:center;text-anchor:middle;stroke-width:0.75"
           d="m 318.75802,489.17892 v -8.328 h -0.9 v 3.528 c -0.636,-0.528 -1.308,-0.66 -1.752,-0.66 -1.188,0 -2.124,1.248 -2.124,2.796 0,1.572 0.924,2.796 2.064,2.796 0.396,0 1.104,-0.108 1.776,-0.756 v 0.624 z m -0.936,-1.668 c 0,0.168 -0.012,0.384 -0.396,0.732 -0.276,0.24 -0.576,0.336 -0.888,0.336 -0.744,0 -1.62,-0.564 -1.62,-2.052 0,-1.584 1.032,-2.076 1.74,-2.076 0.54,0 0.9,0.276 1.164,0.66 z" /><path
           id="path5306"
           style="font-style:normal;font-variant:normal;font-weight:normal;font-stretch:normal;font-size:12px;font-family:'Latin Modern Sans';-inkscape-font-specification:'Latin Modern Sans';text-align:center;text-anchor:middle;stroke-width:0.75"
           d="m 324.662,489.17892 v -3.468 c 0,-1.224 -0.876,-2.064 -1.98,-2.064 -0.78,0 -1.32,0.192 -1.884,0.516 l 0.072,0.792 c 0.624,-0.444 1.224,-0.6 1.812,-0.6 0.564,0 1.044,0.48 1.044,1.368 v 0.516 c -1.8,0.024 -3.324,0.528 -3.324,1.584 0,0.516 0.324,1.488 1.368,1.488 0.168,0 1.296,-0.024 1.992,-0.564 v 0.432 z m -0.936,-1.584 c 0,0.228 0,0.528 -0.408,0.756 -0.348,0.216 -0.804,0.228 -0.936,0.228 -0.576,0 -1.116,-0.276 -1.116,-0.78 0,-0.84 1.944,-0.924 2.46,-0.948 z" /><path
           id="path5308"
           style="font-style:normal;font-variant:normal;font-weight:normal;font-stretch:normal;font-size:12px;font-family:'Latin Modern Sans';-inkscape-font-specification:'Latin Modern Sans';text-align:center;text-anchor:middle;stroke-width:0.75"
           d="m 329.50999,488.85492 -0.192,-0.708 c -0.312,0.252 -0.696,0.396 -1.08,0.396 -0.444,0 -0.612,-0.36 -0.612,-0.996 v -3 h 1.692 v -0.696 h -1.692 v -1.524 h -0.828 v 1.524 h -1.044 v 0.696 h 1.008 v 3.204 c 0,0.72 0.168,1.56 0.996,1.56 0.84,0 1.452,-0.3 1.752,-0.456 z" /><path
           id="path5310"
           style="font-style:normal;font-variant:normal;font-weight:normal;font-stretch:normal;font-size:12px;font-family:'Latin Modern Sans';-inkscape-font-specification:'Latin Modern Sans';text-align:center;text-anchor:middle;stroke-width:0.75"
           d="m 331.72997,489.17892 v -5.328 h -0.9 v 5.328 z m 0.096,-6.792 v -1.068 h -1.068 v 1.068 z" /><path
           id="path5312"
           style="font-style:normal;font-variant:normal;font-weight:normal;font-stretch:normal;font-size:12px;font-family:'Latin Modern Sans';-inkscape-font-specification:'Latin Modern Sans';text-align:center;text-anchor:middle;stroke-width:0.75"
           d="m 338.07795,483.85092 h -0.9 l -0.948,2.496 c -0.252,0.66 -0.624,1.632 -0.72,2.196 h -0.012 c -0.072,-0.432 -0.384,-1.26 -0.504,-1.584 l -1.164,-3.108 h -0.936 l 2.064,5.328 h 1.056 z" /><path
           id="path5314"
           style="font-style:normal;font-variant:normal;font-weight:normal;font-stretch:normal;font-size:12px;font-family:'Latin Modern Sans';-inkscape-font-specification:'Latin Modern Sans';text-align:center;text-anchor:middle;stroke-width:0.75"
           d="m 343.22593,486.55092 c 0,-0.408 -0.012,-1.308 -0.48,-2.028 -0.492,-0.744 -1.224,-0.876 -1.656,-0.876 -1.332,0 -2.412,1.272 -2.412,2.82 0,1.584 1.152,2.844 2.592,2.844 0.756,0 1.44,-0.288 1.908,-0.624 l -0.072,-0.78 c -0.756,0.624 -1.548,0.672 -1.824,0.672 -0.96,0 -1.728,-0.852 -1.764,-2.028 z m -0.684,-0.66 h -2.964 c 0.192,-0.912 0.828,-1.512 1.512,-1.512 0.624,0 1.296,0.408 1.452,1.512 z" /><path
           id="path5316"
           style="font-style:normal;font-variant:normal;font-weight:normal;font-stretch:normal;font-size:12px;font-family:'Latin Modern Sans';-inkscape-font-specification:'Latin Modern Sans';text-align:center;text-anchor:middle;stroke-width:0.75"
           d="m 303.96807,503.83668 -0.072,-0.804 c -0.612,0.48 -1.26,0.648 -1.872,0.648 -0.996,0 -1.668,-0.864 -1.668,-2.04 0,-0.936 0.444,-2.088 1.716,-2.088 0.624,0 1.032,0.096 1.692,0.528 l 0.144,-0.78 c -0.708,-0.408 -1.116,-0.516 -1.848,-0.516 -1.668,0 -2.64,1.452 -2.64,2.868 0,1.488 1.092,2.796 2.592,2.796 0.648,0 1.308,-0.168 1.956,-0.612 z" /><path
           id="path5318"
           style="font-style:normal;font-variant:normal;font-weight:normal;font-stretch:normal;font-size:12px;font-family:'Latin Modern Sans';-inkscape-font-specification:'Latin Modern Sans';text-align:center;text-anchor:middle;stroke-width:0.75"
           d="m 306.18805,504.31668 v -8.328 h -0.9 v 8.328 z" /><path
           id="path5320"
           style="font-style:normal;font-variant:normal;font-weight:normal;font-stretch:normal;font-size:12px;font-family:'Latin Modern Sans';-inkscape-font-specification:'Latin Modern Sans';text-align:center;text-anchor:middle;stroke-width:0.75"
           d="m 312.15203,501.68868 c 0,-0.408 -0.012,-1.308 -0.48,-2.028 -0.492,-0.744 -1.224,-0.876 -1.656,-0.876 -1.332,0 -2.412,1.272 -2.412,2.82 0,1.584 1.152,2.844 2.592,2.844 0.756,0 1.44,-0.288 1.908,-0.624 l -0.072,-0.78 c -0.756,0.624 -1.548,0.672 -1.824,0.672 -0.96,0 -1.728,-0.852 -1.764,-2.028 z m -0.684,-0.66 h -2.964 c 0.192,-0.912 0.828,-1.512 1.512,-1.512 0.624,0 1.296,0.408 1.452,1.512 z" /><path
           id="path5322"
           style="font-style:normal;font-variant:normal;font-weight:normal;font-stretch:normal;font-size:12px;font-family:'Latin Modern Sans';-inkscape-font-specification:'Latin Modern Sans';text-align:center;text-anchor:middle;stroke-width:0.75"
           d="m 317.42001,504.31668 v -3.468 c 0,-1.224 -0.876,-2.064 -1.98,-2.064 -0.78,0 -1.32,0.192 -1.884,0.516 l 0.072,0.792 c 0.624,-0.444 1.224,-0.6 1.812,-0.6 0.564,0 1.044,0.48 1.044,1.368 v 0.516 c -1.8,0.024 -3.324,0.528 -3.324,1.584 0,0.516 0.324,1.488 1.368,1.488 0.168,0 1.296,-0.024 1.992,-0.564 v 0.432 z m -0.936,-1.584 c 0,0.228 0,0.528 -0.408,0.756 -0.348,0.216 -0.804,0.228 -0.936,0.228 -0.576,0 -1.116,-0.276 -1.116,-0.78 0,-0.84 1.944,-0.924 2.46,-0.948 z" /><path
           id="path5324"
           style="font-style:normal;font-variant:normal;font-weight:normal;font-stretch:normal;font-size:12px;font-family:'Latin Modern Sans';-inkscape-font-specification:'Latin Modern Sans';text-align:center;text-anchor:middle;stroke-width:0.75"
           d="m 323.636,498.98868 h -0.9 l -0.948,2.496 c -0.252,0.66 -0.624,1.632 -0.72,2.196 h -0.012 c -0.072,-0.432 -0.384,-1.26 -0.504,-1.584 l -1.164,-3.108 h -0.936 l 2.064,5.328 h 1.056 z" /><path
           id="path5326"
           style="font-style:normal;font-variant:normal;font-weight:normal;font-stretch:normal;font-size:12px;font-family:'Latin Modern Sans';-inkscape-font-specification:'Latin Modern Sans';text-align:center;text-anchor:middle;stroke-width:0.75"
           d="m 328.72398,504.31668 v -3.468 c 0,-1.224 -0.876,-2.064 -1.98,-2.064 -0.78,0 -1.32,0.192 -1.884,0.516 l 0.072,0.792 c 0.624,-0.444 1.224,-0.6 1.812,-0.6 0.564,0 1.044,0.48 1.044,1.368 v 0.516 c -1.8,0.024 -3.324,0.528 -3.324,1.584 0,0.516 0.324,1.488 1.368,1.488 0.168,0 1.296,-0.024 1.992,-0.564 v 0.432 z m -0.936,-1.584 c 0,0.228 0,0.528 -0.408,0.756 -0.348,0.216 -0.804,0.228 -0.936,0.228 -0.576,0 -1.116,-0.276 -1.116,-0.78 0,-0.84 1.944,-0.924 2.46,-0.948 z" /><path
           id="path5328"
           style="font-style:normal;font-variant:normal;font-weight:normal;font-stretch:normal;font-size:12px;font-family:'Latin Modern Sans';-inkscape-font-specification:'Latin Modern Sans';text-align:center;text-anchor:middle;stroke-width:0.75"
           d="m 335.40797,499.61268 -0.132,-0.756 c -0.84,0 -1.536,0.228 -1.896,0.384 -0.252,-0.204 -0.66,-0.384 -1.14,-0.384 -1.032,0 -1.908,0.864 -1.908,1.956 0,0.444 0.156,0.876 0.396,1.188 -0.348,0.492 -0.348,0.96 -0.348,1.02 0,0.312 0.108,0.66 0.312,0.912 -0.624,0.372 -0.768,0.924 -0.768,1.236 0,0.9 1.188,1.62 2.652,1.62 1.476,0 2.664,-0.708 2.664,-1.632 0,-1.668 -2.004,-1.668 -2.472,-1.668 h -1.056 c -0.156,0 -0.696,0 -0.696,-0.636 0,-0.132 0.048,-0.324 0.132,-0.432 0.252,0.18 0.648,0.348 1.092,0.348 1.08,0 1.92,-0.888 1.92,-1.956 0,-0.576 -0.264,-1.02 -0.396,-1.2 l 0.048,0.012 c 0.264,0 0.6,-0.048 0.888,-0.048 0.216,0 0.708,0.036 0.708,0.036 z m -2.088,1.2 c 0,0.936 -0.564,1.272 -1.08,1.272 -0.444,0 -1.068,-0.276 -1.068,-1.272 0,-0.996 0.624,-1.272 1.068,-1.272 0.516,0 1.08,0.336 1.08,1.272 z m 1.08,4.368 c 0,0.528 -0.828,0.924 -1.812,0.924 -0.972,0 -1.824,-0.372 -1.824,-0.936 0,-0.036 0,-0.816 0.936,-0.816 h 1.08 c 0.264,0 1.62,0 1.62,0.828 z" /><path
           id="path5330"
           style="font-style:normal;font-variant:normal;font-weight:normal;font-stretch:normal;font-size:12px;font-family:'Latin Modern Sans';-inkscape-font-specification:'Latin Modern Sans';text-align:center;text-anchor:middle;stroke-width:0.75"
           d="m 340.55594,501.68868 c 0,-0.408 -0.012,-1.308 -0.48,-2.028 -0.492,-0.744 -1.224,-0.876 -1.656,-0.876 -1.332,0 -2.412,1.272 -2.412,2.82 0,1.584 1.152,2.844 2.592,2.844 0.756,0 1.44,-0.288 1.908,-0.624 l -0.072,-0.78 c -0.756,0.624 -1.548,0.672 -1.824,0.672 -0.96,0 -1.728,-0.852 -1.764,-2.028 z m -0.684,-0.66 h -2.964 c 0.192,-0.912 0.828,-1.512 1.512,-1.512 0.624,0 1.296,0.408 1.452,1.512 z" /></g><g
         style="font-style:normal;font-weight:normal;font-size:12px;line-height:1.25;font-family:sans-serif;letter-spacing:0px;word-spacing:0px;fill:#000000;fill-opacity:1;stroke:none;stroke-width:0.75"
         id="text2317-2-0-3-6"
         transform="matrix(0,1,1,0,0,0)"
         aria-label="NaIO4"><path
           id="path5287"
           style="font-style:normal;font-variant:normal;font-weight:normal;font-stretch:normal;font-size:12px;font-family:'Latin Modern Sans';-inkscape-font-specification:'Latin Modern Sans';stroke-width:0.75"
           d="m 312.08514,458.30463 v -8.328 h -0.936 v 7.476 h -0.012 l -0.804,-1.644 -2.94,-5.832 h -1.488 v 8.328 h 0.936 v -7.476 h 0.012 l 0.804,1.644 2.94,5.832 z" /><path
           id="path5289"
           style="font-style:normal;font-variant:normal;font-weight:normal;font-stretch:normal;font-size:12px;font-family:'Latin Modern Sans';-inkscape-font-specification:'Latin Modern Sans';stroke-width:0.75"
           d="m 318.15712,458.30463 v -3.468 c 0,-1.224 -0.876,-2.064 -1.98,-2.064 -0.78,0 -1.32,0.192 -1.884,0.516 l 0.072,0.792 c 0.624,-0.444 1.224,-0.6 1.812,-0.6 0.564,0 1.044,0.48 1.044,1.368 v 0.516 c -1.8,0.024 -3.324,0.528 -3.324,1.584 0,0.516 0.324,1.488 1.368,1.488 0.168,0 1.296,-0.024 1.992,-0.564 v 0.432 z m -0.936,-1.584 c 0,0.228 0,0.528 -0.408,0.756 -0.348,0.216 -0.804,0.228 -0.936,0.228 -0.576,0 -1.116,-0.276 -1.116,-0.78 0,-0.84 1.944,-0.924 2.46,-0.948 z" /><path
           id="path5291"
           style="font-style:normal;font-variant:normal;font-weight:normal;font-stretch:normal;font-size:12px;font-family:'Latin Modern Sans';-inkscape-font-specification:'Latin Modern Sans';stroke-width:0.75"
           d="m 321.21711,458.30463 v -8.328 h -1.068 v 8.328 z" /><path
           id="path5293"
           style="font-style:normal;font-variant:normal;font-weight:normal;font-stretch:normal;font-size:12px;font-family:'Latin Modern Sans';-inkscape-font-specification:'Latin Modern Sans';stroke-width:0.75"
           d="m 330.50511,454.16463 c 0,-2.52 -1.74,-4.452 -3.732,-4.452 -2.04,0 -3.744,1.956 -3.744,4.452 0,2.544 1.776,4.404 3.732,4.404 2.004,0 3.744,-1.884 3.744,-4.404 z m -1.068,-0.18 c 0,2.34 -1.296,3.804 -2.664,3.804 -1.416,0 -2.676,-1.5 -2.676,-3.804 0,-2.196 1.32,-3.504 2.664,-3.504 1.392,0 2.676,1.356 2.676,3.504 z" /><path
           id="path5295"
           style="font-size:65%;baseline-shift:sub"
           d="m 334.86289,459.37083 v -0.4758 h -0.7722 v -3.3072 h -0.7098 l -1.9734,3.3072 v 0.4758 h 2.067 v 1.3338 h 0.6162 v -1.3338 z m -1.3416,-0.4758 h -1.5054 c 0.4056,-0.6708 1.4976,-2.5194 1.5054,-2.964 z" /></g><g
         style="font-style:normal;font-weight:normal;font-size:12px;line-height:1.25;font-family:sans-serif;letter-spacing:0px;word-spacing:0px;fill:#000000;fill-opacity:1;stroke:none;stroke-width:0.75"
         id="text2317-2-0-3-2-10-2-43-59-4-7"
         transform="matrix(0,1,1,0,0,0)"
         aria-label="O"><path
           id="path5378"
           style="font-style:normal;font-variant:normal;font-weight:normal;font-stretch:normal;font-size:12px;font-family:'Latin Modern Sans';-inkscape-font-specification:'Latin Modern Sans';stroke-width:0.75"
           d="m 492.11721,423.97697 c 0,-2.52 -1.74,-4.452 -3.732,-4.452 -2.04,0 -3.744,1.956 -3.744,4.452 0,2.544 1.776,4.404 3.732,4.404 2.004,0 3.744,-1.884 3.744,-4.404 z m -1.068,-0.18 c 0,2.34 -1.296,3.804 -2.664,3.804 -1.416,0 -2.676,-1.5 -2.676,-3.804 0,-2.196 1.32,-3.504 2.664,-3.504 1.392,0 2.676,1.356 2.676,3.504 z" /></g><path
         id="path126"
         style="fill:none;stroke:#000000;stroke-width:0.45;stroke-linecap:butt;stroke-linejoin:miter;stroke-miterlimit:10;stroke-dasharray:none;stroke-opacity:1"
         d="m 341.51203,467.27957 h -15" /><path
         id="path128"
         style="fill:none;stroke:#000000;stroke-width:0.45;stroke-linecap:butt;stroke-linejoin:miter;stroke-miterlimit:10;stroke-dasharray:none;stroke-opacity:1"
         d="m 341.51203,469.31957 h -15" /><path
         id="path130"
         style="fill:none;stroke:#000000;stroke-width:0.45;stroke-linecap:butt;stroke-linejoin:miter;stroke-miterlimit:10;stroke-dasharray:none;stroke-opacity:1"
         d="m 416.51203,467.27957 h -15 l -15,-14.94 -15,14.94 -15,-14.94 -15,14.94" /><g
         style="font-style:normal;font-weight:normal;font-size:12px;line-height:1.25;font-family:sans-serif;letter-spacing:0px;word-spacing:0px;fill:#000000;fill-opacity:1;stroke:none;stroke-width:0.75"
         id="text2317-2-0-3-2-10"
         transform="matrix(0,1,1,0,0,0)"
         aria-label="O"><path
           id="path5369"
           style="font-style:normal;font-variant:normal;font-weight:normal;font-stretch:normal;font-size:12px;font-family:'Latin Modern Sans';-inkscape-font-specification:'Latin Modern Sans';stroke-width:0.75"
           d="m 471.61382,318.47725 c 0,-2.52 -1.74,-4.452 -3.732,-4.452 -2.04,0 -3.744,1.956 -3.744,4.452 0,2.544 1.776,4.404 3.732,4.404 2.004,0 3.744,-1.884 3.744,-4.404 z m -1.068,-0.18 c 0,2.34 -1.296,3.804 -2.664,3.804 -1.416,0 -2.676,-1.5 -2.676,-3.804 0,-2.196 1.32,-3.504 2.664,-3.504 1.392,0 2.676,1.356 2.676,3.504 z" /></g><g
         style="font-style:normal;font-weight:normal;font-size:12px;line-height:1.25;font-family:sans-serif;letter-spacing:0px;word-spacing:0px;fill:#000000;fill-opacity:1;stroke:none;stroke-width:0.75"
         id="text2317-2-0-3-2-10-2-43-5-3-5"
         transform="matrix(0,1,1,0,0,0)"
         aria-label="O"><path
           id="path5381"
           style="font-style:normal;font-variant:normal;font-weight:normal;font-stretch:normal;font-size:12px;font-family:'Latin Modern Sans';-inkscape-font-specification:'Latin Modern Sans';stroke-width:0.75"
           d="m 449.80706,423.97697 c 0,-2.52 -1.74,-4.452 -3.732,-4.452 -2.04,0 -3.744,1.956 -3.744,4.452 0,2.544 1.776,4.404 3.732,4.404 2.004,0 3.744,-1.884 3.744,-4.404 z m -1.068,-0.18 c 0,2.34 -1.296,3.804 -2.664,3.804 -1.416,0 -2.676,-1.5 -2.676,-3.804 0,-2.196 1.32,-3.504 2.664,-3.504 1.392,0 2.676,1.356 2.676,3.504 z" /></g><path
         d="m 423.95298,474.39638 v 7.62"
         style="fill:none;stroke:#000000;stroke-width:0.45;stroke-linecap:butt;stroke-linejoin:miter;stroke-miterlimit:10;stroke-dasharray:none;stroke-opacity:1"
         id="path224-7-8-0" /><path
         d="m 423.95298,452.97638 v 7.68"
         style="fill:none;stroke:#000000;stroke-width:0.45;stroke-linecap:butt;stroke-linejoin:miter;stroke-miterlimit:10;stroke-dasharray:none;stroke-opacity:1"
         id="path226-2-4-5" /><path
         d="m 438.83298,467.11699 h -7.62"
         style="fill:none;stroke:#000000;stroke-width:0.45;stroke-linecap:butt;stroke-linejoin:miter;stroke-miterlimit:10;stroke-dasharray:none;stroke-opacity:1"
         id="path230-1-1-9" /><path
         d="m 460.01298,467.11699 h -7.74"
         style="fill:none;stroke:#000000;stroke-width:0.45;stroke-linecap:butt;stroke-linejoin:miter;stroke-miterlimit:10;stroke-dasharray:none;stroke-opacity:1"
         id="path232-0-0-4" /><g
         style="font-style:normal;font-weight:normal;font-size:12px;line-height:1.25;font-family:sans-serif;letter-spacing:0px;word-spacing:0px;fill:#000000;fill-opacity:1;stroke:none;stroke-width:0.75"
         id="text2317-2-0-3-2-10-2-4-6-3-6"
         transform="matrix(0,1,1,0,0,0)"
         aria-label="O"><path
           id="path5384"
           style="font-style:normal;font-variant:normal;font-weight:normal;font-stretch:normal;font-size:12px;font-family:'Latin Modern Sans';-inkscape-font-specification:'Latin Modern Sans';stroke-width:0.75"
           d="m 470.855,445.34618 c 0,-2.52 -1.74,-4.452 -3.732,-4.452 -2.04,0 -3.744,1.956 -3.744,4.452 0,2.544 1.776,4.404 3.732,4.404 2.004,0 3.744,-1.884 3.744,-4.404 z m -1.068,-0.18 c 0,2.34 -1.296,3.804 -2.664,3.804 -1.416,0 -2.676,-1.5 -2.676,-3.804 0,-2.196 1.32,-3.504 2.664,-3.504 1.392,0 2.676,1.356 2.676,3.504 z" /></g><g
         style="font-style:normal;font-weight:normal;font-size:12px;line-height:1.25;font-family:sans-serif;letter-spacing:0px;word-spacing:0px;fill:#000000;fill-opacity:1;stroke:none;stroke-width:0.75"
         id="text2317-2-0-3-2-10-2-78-9-4-2"
         transform="matrix(0,1,1,0,0,0)"
         aria-label="Si"><path
           id="path5387"
           style="font-style:normal;font-variant:normal;font-weight:normal;font-stretch:normal;font-size:12px;font-family:'Latin Modern Sans';-inkscape-font-specification:'Latin Modern Sans';stroke-width:0.75"
           d="m 468.52099,425.84897 c 0,-0.78 -0.372,-1.356 -0.636,-1.644 -0.564,-0.6 -0.96,-0.708 -2.064,-0.984 -0.696,-0.168 -0.888,-0.216 -1.248,-0.528 -0.084,-0.072 -0.42,-0.42 -0.42,-0.948 0,-0.708 0.648,-1.428 1.752,-1.428 1.008,0 1.584,0.396 2.028,0.768 l 0.18,-0.96 c -0.66,-0.396 -1.32,-0.6 -2.196,-0.6 -1.668,0 -2.712,1.176 -2.712,2.364 0,0.516 0.168,1.02 0.648,1.524 0.504,0.54 1.032,0.684 1.74,0.852 1.02,0.252 1.14,0.288 1.476,0.588 0.24,0.204 0.504,0.6 0.504,1.116 0,0.792 -0.66,1.584 -1.752,1.584 -0.492,0 -1.572,-0.12 -2.58,-0.972 l -0.18,0.972 c 1.056,0.66 2.016,0.828 2.772,0.828 1.584,0 2.688,-1.212 2.688,-2.532 z" /><path
           id="path5389"
           style="font-style:normal;font-variant:normal;font-weight:normal;font-stretch:normal;font-size:12px;font-family:'Latin Modern Sans';-inkscape-font-specification:'Latin Modern Sans';stroke-width:0.75"
           d="m 471.07699,428.11697 v -5.328 h -0.9 v 5.328 z m 0.096,-6.792 v -1.068 h -1.068 v 1.068 z" /></g><path
         d="m 341.51203,424.96769 h -15"
         style="fill:none;stroke:#000000;stroke-width:0.45;stroke-linecap:butt;stroke-linejoin:miter;stroke-miterlimit:10;stroke-dasharray:none;stroke-opacity:1"
         id="path126-5" /><path
         d="m 341.51203,427.00769 h -15"
         style="fill:none;stroke:#000000;stroke-width:0.45;stroke-linecap:butt;stroke-linejoin:miter;stroke-miterlimit:10;stroke-dasharray:none;stroke-opacity:1"
         id="path128-4" /><path
         d="m 416.51203,424.96769 h -15 l -15,-14.94 -15,14.94 -15,-14.94 -15,14.94"
         style="fill:none;stroke:#000000;stroke-width:0.45;stroke-linecap:butt;stroke-linejoin:miter;stroke-miterlimit:10;stroke-dasharray:none;stroke-opacity:1"
         id="path130-8" /><g
         style="font-style:normal;font-weight:normal;font-size:12px;line-height:1.25;font-family:sans-serif;letter-spacing:0px;word-spacing:0px;fill:#000000;fill-opacity:1;stroke:none;stroke-width:0.75"
         id="text2317-2-0-3-2-10-1"
         transform="matrix(0,1,1,0,0,0)"
         aria-label="O"><path
           id="path5372"
           style="font-style:normal;font-variant:normal;font-weight:normal;font-stretch:normal;font-size:12px;font-family:'Latin Modern Sans';-inkscape-font-specification:'Latin Modern Sans';stroke-width:0.75"
           d="m 429.30196,318.47725 c 0,-2.52 -1.74,-4.452 -3.732,-4.452 -2.04,0 -3.744,1.956 -3.744,4.452 0,2.544 1.776,4.404 3.732,4.404 2.004,0 3.744,-1.884 3.744,-4.404 z m -1.068,-0.18 c 0,2.34 -1.296,3.804 -2.664,3.804 -1.416,0 -2.676,-1.5 -2.676,-3.804 0,-2.196 1.32,-3.504 2.664,-3.504 1.392,0 2.676,1.356 2.676,3.504 z" /></g><g
         style="font-style:normal;font-weight:normal;font-size:12px;line-height:1.25;font-family:sans-serif;letter-spacing:0px;word-spacing:0px;fill:#000000;fill-opacity:1;stroke:none;stroke-width:0.75"
         id="text2317-2-0-3-2-10-2-43-5-3-5-8"
         transform="matrix(0,1,1,0,0,0)"
         aria-label="O"><path
           id="path5392"
           style="font-style:normal;font-variant:normal;font-weight:normal;font-stretch:normal;font-size:12px;font-family:'Latin Modern Sans';-inkscape-font-specification:'Latin Modern Sans';stroke-width:0.75"
           d="m 407.49517,423.97697 c 0,-2.52 -1.74,-4.452 -3.732,-4.452 -2.04,0 -3.744,1.956 -3.744,4.452 0,2.544 1.776,4.404 3.732,4.404 2.004,0 3.744,-1.884 3.744,-4.404 z m -1.068,-0.18 c 0,2.34 -1.296,3.804 -2.664,3.804 -1.416,0 -2.676,-1.5 -2.676,-3.804 0,-2.196 1.32,-3.504 2.664,-3.504 1.392,0 2.676,1.356 2.676,3.504 z" /></g><path
         id="path224-7-8-0-3"
         style="fill:none;stroke:#000000;stroke-width:0.45;stroke-linecap:butt;stroke-linejoin:miter;stroke-miterlimit:10;stroke-dasharray:none;stroke-opacity:1"
         d="m 423.95298,432.0845 v 7.62" /><path
         id="path226-2-4-5-6"
         style="fill:none;stroke:#000000;stroke-width:0.45;stroke-linecap:butt;stroke-linejoin:miter;stroke-miterlimit:10;stroke-dasharray:none;stroke-opacity:1"
         d="m 423.95298,410.6645 v 7.68" /><path
         id="path230-1-1-9-8"
         style="fill:none;stroke:#000000;stroke-width:0.45;stroke-linecap:butt;stroke-linejoin:miter;stroke-miterlimit:10;stroke-dasharray:none;stroke-opacity:1"
         d="m 438.83298,424.80511 h -7.62" /><path
         id="path232-0-0-4-0"
         style="fill:none;stroke:#000000;stroke-width:0.45;stroke-linecap:butt;stroke-linejoin:miter;stroke-miterlimit:10;stroke-dasharray:none;stroke-opacity:1"
         d="m 460.01298,424.80511 h -7.74" /><g
         style="font-style:normal;font-weight:normal;font-size:12px;line-height:1.25;font-family:sans-serif;letter-spacing:0px;word-spacing:0px;fill:#000000;fill-opacity:1;stroke:none;stroke-width:0.75"
         id="text2317-2-0-3-2-10-2-4-6-3-6-2"
         transform="matrix(0,1,1,0,0,0)"
         aria-label="O"><path
           id="path5395"
           style="font-style:normal;font-variant:normal;font-weight:normal;font-stretch:normal;font-size:12px;font-family:'Latin Modern Sans';-inkscape-font-specification:'Latin Modern Sans';stroke-width:0.75"
           d="m 428.54311,445.34618 c 0,-2.52 -1.74,-4.452 -3.732,-4.452 -2.04,0 -3.744,1.956 -3.744,4.452 0,2.544 1.776,4.404 3.732,4.404 2.004,0 3.744,-1.884 3.744,-4.404 z m -1.068,-0.18 c 0,2.34 -1.296,3.804 -2.664,3.804 -1.416,0 -2.676,-1.5 -2.676,-3.804 0,-2.196 1.32,-3.504 2.664,-3.504 1.392,0 2.676,1.356 2.676,3.504 z" /></g><g
         style="font-style:normal;font-weight:normal;font-size:12px;line-height:1.25;font-family:sans-serif;letter-spacing:0px;word-spacing:0px;fill:#000000;fill-opacity:1;stroke:none;stroke-width:0.75"
         id="text2317-2-0-3-2-10-2-78-9-4-2-0"
         transform="matrix(0,1,1,0,0,0)"
         aria-label="Si"><path
           id="path5398"
           style="font-style:normal;font-variant:normal;font-weight:normal;font-stretch:normal;font-size:12px;font-family:'Latin Modern Sans';-inkscape-font-specification:'Latin Modern Sans';stroke-width:0.75"
           d="m 426.2091,425.84897 c 0,-0.78 -0.372,-1.356 -0.636,-1.644 -0.564,-0.6 -0.96,-0.708 -2.064,-0.984 -0.696,-0.168 -0.888,-0.216 -1.248,-0.528 -0.084,-0.072 -0.42,-0.42 -0.42,-0.948 0,-0.708 0.648,-1.428 1.752,-1.428 1.008,0 1.584,0.396 2.028,0.768 l 0.18,-0.96 c -0.66,-0.396 -1.32,-0.6 -2.196,-0.6 -1.668,0 -2.712,1.176 -2.712,2.364 0,0.516 0.168,1.02 0.648,1.524 0.504,0.54 1.032,0.684 1.74,0.852 1.02,0.252 1.14,0.288 1.476,0.588 0.24,0.204 0.504,0.6 0.504,1.116 0,0.792 -0.66,1.584 -1.752,1.584 -0.492,0 -1.572,-0.12 -2.58,-0.972 l -0.18,0.972 c 1.056,0.66 2.016,0.828 2.772,0.828 1.584,0 2.688,-1.212 2.688,-2.532 z" /><path
           id="path5400"
           style="font-style:normal;font-variant:normal;font-weight:normal;font-stretch:normal;font-size:12px;font-family:'Latin Modern Sans';-inkscape-font-specification:'Latin Modern Sans';stroke-width:0.75"
           d="m 428.7651,428.11697 v -5.328 h -0.9 v 5.328 z m 0.096,-6.792 v -1.068 h -1.068 v 1.068 z" /></g><path
         d="m 341.51203,382.65579 h -15"
         style="fill:none;stroke:#000000;stroke-width:0.45;stroke-linecap:butt;stroke-linejoin:miter;stroke-miterlimit:10;stroke-dasharray:none;stroke-opacity:1"
         id="path126-0" /><path
         d="m 341.51203,384.69579 h -15"
         style="fill:none;stroke:#000000;stroke-width:0.45;stroke-linecap:butt;stroke-linejoin:miter;stroke-miterlimit:10;stroke-dasharray:none;stroke-opacity:1"
         id="path128-8" /><path
         d="m 416.51203,382.65579 h -15 l -15,-14.94 -15,14.94 -15,-14.94 -15,14.94"
         style="fill:none;stroke:#000000;stroke-width:0.45;stroke-linecap:butt;stroke-linejoin:miter;stroke-miterlimit:10;stroke-dasharray:none;stroke-opacity:1"
         id="path130-5" /><g
         style="font-style:normal;font-weight:normal;font-size:12px;line-height:1.25;font-family:sans-serif;letter-spacing:0px;word-spacing:0px;fill:#000000;fill-opacity:1;stroke:none;stroke-width:0.75"
         id="text2317-2-0-3-2-10-0"
         transform="matrix(0,1,1,0,0,0)"
         aria-label="O"><path
           id="path5375"
           style="font-style:normal;font-variant:normal;font-weight:normal;font-stretch:normal;font-size:12px;font-family:'Latin Modern Sans';-inkscape-font-specification:'Latin Modern Sans';stroke-width:0.75"
           d="m 386.99004,318.47725 c 0,-2.52 -1.74,-4.452 -3.732,-4.452 -2.04,0 -3.744,1.956 -3.744,4.452 0,2.544 1.776,4.404 3.732,4.404 2.004,0 3.744,-1.884 3.744,-4.404 z m -1.068,-0.18 c 0,2.34 -1.296,3.804 -2.664,3.804 -1.416,0 -2.676,-1.5 -2.676,-3.804 0,-2.196 1.32,-3.504 2.664,-3.504 1.392,0 2.676,1.356 2.676,3.504 z" /></g><g
         style="font-style:normal;font-weight:normal;font-size:12px;line-height:1.25;font-family:sans-serif;letter-spacing:0px;word-spacing:0px;fill:#000000;fill-opacity:1;stroke:none;stroke-width:0.75"
         id="text2317-2-0-3-2-10-2-43-5-3-5-4"
         transform="matrix(0,1,1,0,0,0)"
         aria-label="O"><path
           id="path5403"
           style="font-style:normal;font-variant:normal;font-weight:normal;font-stretch:normal;font-size:12px;font-family:'Latin Modern Sans';-inkscape-font-specification:'Latin Modern Sans';stroke-width:0.75"
           d="m 365.18328,423.97697 c 0,-2.52 -1.74,-4.452 -3.732,-4.452 -2.04,0 -3.744,1.956 -3.744,4.452 0,2.544 1.776,4.404 3.732,4.404 2.004,0 3.744,-1.884 3.744,-4.404 z m -1.068,-0.18 c 0,2.34 -1.296,3.804 -2.664,3.804 -1.416,0 -2.676,-1.5 -2.676,-3.804 0,-2.196 1.32,-3.504 2.664,-3.504 1.392,0 2.676,1.356 2.676,3.504 z" /></g><path
         id="path224-7-8-0-2"
         style="fill:none;stroke:#000000;stroke-width:0.45;stroke-linecap:butt;stroke-linejoin:miter;stroke-miterlimit:10;stroke-dasharray:none;stroke-opacity:1"
         d="m 423.95298,389.7726 v 7.62" /><path
         id="path226-2-4-5-5"
         style="fill:none;stroke:#000000;stroke-width:0.45;stroke-linecap:butt;stroke-linejoin:miter;stroke-miterlimit:10;stroke-dasharray:none;stroke-opacity:1"
         d="m 423.95298,368.3526 v 7.68" /><path
         id="path230-1-1-9-86"
         style="fill:none;stroke:#000000;stroke-width:0.45;stroke-linecap:butt;stroke-linejoin:miter;stroke-miterlimit:10;stroke-dasharray:none;stroke-opacity:1"
         d="m 438.83298,382.49321 h -7.62" /><path
         id="path232-0-0-4-2"
         style="fill:none;stroke:#000000;stroke-width:0.45;stroke-linecap:butt;stroke-linejoin:miter;stroke-miterlimit:10;stroke-dasharray:none;stroke-opacity:1"
         d="m 460.01298,382.49321 h -7.74" /><g
         style="font-style:normal;font-weight:normal;font-size:12px;line-height:1.25;font-family:sans-serif;letter-spacing:0px;word-spacing:0px;fill:#000000;fill-opacity:1;stroke:none;stroke-width:0.75"
         id="text2317-2-0-3-2-10-2-4-6-3-6-8"
         transform="matrix(0,1,1,0,0,0)"
         aria-label="O"><path
           id="path5406"
           style="font-style:normal;font-variant:normal;font-weight:normal;font-stretch:normal;font-size:12px;font-family:'Latin Modern Sans';-inkscape-font-specification:'Latin Modern Sans';stroke-width:0.75"
           d="m 386.23122,445.34618 c 0,-2.52 -1.74,-4.452 -3.732,-4.452 -2.04,0 -3.744,1.956 -3.744,4.452 0,2.544 1.776,4.404 3.732,4.404 2.004,0 3.744,-1.884 3.744,-4.404 z m -1.068,-0.18 c 0,2.34 -1.296,3.804 -2.664,3.804 -1.416,0 -2.676,-1.5 -2.676,-3.804 0,-2.196 1.32,-3.504 2.664,-3.504 1.392,0 2.676,1.356 2.676,3.504 z" /></g><g
         style="font-style:normal;font-weight:normal;font-size:12px;line-height:1.25;font-family:sans-serif;letter-spacing:0px;word-spacing:0px;fill:#000000;fill-opacity:1;stroke:none;stroke-width:0.75"
         id="text2317-2-0-3-2-10-2-78-9-4-2-7"
         transform="matrix(0,1,1,0,0,0)"
         aria-label="Si"><path
           id="path5409"
           style="font-style:normal;font-variant:normal;font-weight:normal;font-stretch:normal;font-size:12px;font-family:'Latin Modern Sans';-inkscape-font-specification:'Latin Modern Sans';stroke-width:0.75"
           d="m 383.89721,425.84897 c 0,-0.78 -0.372,-1.356 -0.636,-1.644 -0.564,-0.6 -0.96,-0.708 -2.064,-0.984 -0.696,-0.168 -0.888,-0.216 -1.248,-0.528 -0.084,-0.072 -0.42,-0.42 -0.42,-0.948 0,-0.708 0.648,-1.428 1.752,-1.428 1.008,0 1.584,0.396 2.028,0.768 l 0.18,-0.96 c -0.66,-0.396 -1.32,-0.6 -2.196,-0.6 -1.668,0 -2.712,1.176 -2.712,2.364 0,0.516 0.168,1.02 0.648,1.524 0.504,0.54 1.032,0.684 1.74,0.852 1.02,0.252 1.14,0.288 1.476,0.588 0.24,0.204 0.504,0.6 0.504,1.116 0,0.792 -0.66,1.584 -1.752,1.584 -0.492,0 -1.572,-0.12 -2.58,-0.972 l -0.18,0.972 c 1.056,0.66 2.016,0.828 2.772,0.828 1.584,0 2.688,-1.212 2.688,-2.532 z" /><path
           id="path5411"
           style="font-style:normal;font-variant:normal;font-weight:normal;font-stretch:normal;font-size:12px;font-family:'Latin Modern Sans';-inkscape-font-specification:'Latin Modern Sans';stroke-width:0.75"
           d="m 386.45321,428.11697 v -5.328 h -0.9 v 5.328 z m 0.096,-6.792 v -1.068 h -1.068 v 1.068 z" /></g></g></g></svg>
