<?xml version="1.0" encoding="UTF-8" standalone="no"?>
<svg
   xmlns:dc="http://purl.org/dc/elements/1.1/"
   xmlns:cc="http://creativecommons.org/ns#"
   xmlns:rdf="http://www.w3.org/1999/02/22-rdf-syntax-ns#"
   xmlns:svg="http://www.w3.org/2000/svg"
   xmlns="http://www.w3.org/2000/svg"
   xmlns:sodipodi="http://sodipodi.sourceforge.net/DTD/sodipodi-0.dtd"
   xmlns:inkscape="http://www.inkscape.org/namespaces/inkscape"
   version="1.1"
   id="svg2"
   xml:space="preserve"
   width="275.67767"
   height="201.56514"
   viewBox="0 0 275.67767 201.56514"
   sodipodi:docname="Biochips_Stokes.svg"
   inkscape:version="1.0 (4035a4fb49, 2020-05-01)"><metadata
     id="metadata8"><rdf:RDF><cc:Work
         rdf:about=""><dc:format>image/svg+xml</dc:format><dc:type
           rdf:resource="http://purl.org/dc/dcmitype/StillImage" /><dc:title /></cc:Work></rdf:RDF></metadata><defs
     id="defs6"><clipPath
       clipPathUnits="userSpaceOnUse"
       id="clipPath22"><path
         d="m 1989.92,7407.6 v -1080 h 2070 v 1080 z m 1260,-212.2 v 45 h -84 l 67.8,-22.8 -67.8,-22.2 z"
         clip-rule="evenodd"
         id="path20" /></clipPath><clipPath
       clipPathUnits="userSpaceOnUse"
       id="clipPath32"><path
         d="m 1989.92,7407.6 v -1080 h 2070 v 1080 z"
         id="path30" /></clipPath><clipPath
       clipPathUnits="userSpaceOnUse"
       id="clipPath44"><path
         d="m 1989.92,7407.6 v -1080 h 2070 v 1080 z m 283.2,-1 h -44.4 v -83.4 l 22.2,67.2 22.2,-67.2 z"
         clip-rule="evenodd"
         id="path42" /></clipPath><clipPath
       clipPathUnits="userSpaceOnUse"
       id="clipPath54"><path
         d="m 1989.92,7407.6 v -1080 h 2070 v 1080 z"
         id="path52" /></clipPath><clipPath
       clipPathUnits="userSpaceOnUse"
       id="clipPath66"><path
         d="m 1989.92,7407.6 v -1080 h 2070 v 1080 z m 2070,-932.2 v 45 h -84 l 67.8,-22.8 -67.8,-22.2 z"
         clip-rule="evenodd"
         id="path64" /></clipPath><clipPath
       clipPathUnits="userSpaceOnUse"
       id="clipPath76"><path
         d="m 1989.92,7407.6 v -1080 h 2070 v 1080 z"
         id="path74" /></clipPath></defs><sodipodi:namedview
     inkscape:document-rotation="0"
     pagecolor="#ffffff"
     bordercolor="#666666"
     borderopacity="1"
     objecttolerance="10"
     gridtolerance="10"
     guidetolerance="10"
     inkscape:pageopacity="0"
     inkscape:pageshadow="2"
     inkscape:window-width="1920"
     inkscape:window-height="1015"
     id="namedview4"
     showgrid="false"
     inkscape:zoom="2.3579016"
     inkscape:cx="122.66715"
     inkscape:cy="93.35887"
     inkscape:window-x="0"
     inkscape:window-y="0"
     inkscape:window-maximized="1"
     inkscape:current-layer="g10"
     fit-margin-top="5"
     fit-margin-left="5"
     fit-margin-right="5"
     fit-margin-bottom="5" /><g
     id="g10"
     inkscape:groupmode="layer"
     inkscape:label="rapport"
     transform="matrix(1.3333333,0,0,-1.3333333,-284.90874,1033.6232)"><path
       id="path34"
       style="fill:#0000d1;fill-opacity:1;fill-rule:evenodd;stroke:#0000d1;stroke-width:0.1;stroke-opacity:1"
       d="m 316.592,719.54 6.78,2.22 -6.78,2.28 1.38,-2.28 -1.38,-2.22" /><path
       id="path36"
       style="fill:#0000d1;fill-opacity:1;stroke:#0000d1;stroke-width:0.45;stroke-linecap:butt;stroke-linejoin:miter;stroke-miterlimit:10;stroke-dasharray:none;stroke-opacity:1"
       d="m 316.592,719.54 6.78,2.22 -6.78,2.28 1.38,-2.28 z" /><path
       id="path24"
       style="fill:none;stroke:#0000d1;stroke-width:0.45;stroke-linecap:butt;stroke-linejoin:miter;stroke-miterlimit:10;stroke-dasharray:none;stroke-opacity:1"
       d="m 297.092,721.76 h 27" /><path
       id="path46"
       style="fill:none;stroke:#000000;stroke-width:0.45;stroke-linecap:butt;stroke-linejoin:miter;stroke-miterlimit:10;stroke-dasharray:none;stroke-opacity:1"
       d="m 225.092,649.76 v 90" /><path
       id="path56"
       style="fill:#000000;fill-opacity:1;fill-rule:evenodd;stroke:none;stroke-width:0.1"
       d="m 227.312,732.32 -2.22,6.72 -2.22,-6.72 2.22,1.32 2.22,-1.32" /><path
       id="path58"
       style="fill:none;stroke:#000000;stroke-width:0.45;stroke-linecap:butt;stroke-linejoin:miter;stroke-miterlimit:10;stroke-dasharray:none;stroke-opacity:1"
       d="m 227.312,732.32 -2.22,6.72 -2.22,-6.72 2.22,1.32 z" /><path
       id="path68"
       style="fill:none;stroke:#000000;stroke-width:0.45;stroke-linecap:butt;stroke-linejoin:miter;stroke-miterlimit:10;stroke-dasharray:none;stroke-opacity:1"
       d="m 225.092,649.76 h 180" /><path
       id="path78"
       style="fill:#000000;fill-opacity:1;fill-rule:evenodd;stroke:none;stroke-width:0.1"
       d="m 397.592,647.54 6.78,2.22 -6.78,2.28 1.38,-2.28 -1.38,-2.22" /><path
       id="path80"
       style="fill:#000000;fill-opacity:1;stroke:#000000;stroke-width:0.45;stroke-linecap:butt;stroke-linejoin:miter;stroke-miterlimit:10;stroke-dasharray:none;stroke-opacity:1"
       d="m 397.592,647.54 6.78,2.22 -6.78,2.28 1.38,-2.28 z" /><path
       id="path82"
       style="fill:none;fill-opacity:1;stroke:#00b000;stroke-width:0.9;stroke-linecap:butt;stroke-linejoin:bevel;stroke-miterlimit:10;stroke-dasharray:none;stroke-opacity:1"
       d="m 234.092,649.76 0.12,0.06 0.18,0.06 0.42,0.24 0.54,0.3 0.72,0.48 0.84,0.6 0.9,0.72 0.96,0.9 0.96,1.02 0.96,1.2 0.96,1.32 0.9,1.5 0.96,1.68 0.96,1.92 0.96,2.22 1.08,2.46 1.08,2.82 0.66,1.74 0.66,1.8 0.72,1.92 0.78,2.04 0.72,2.1 0.84,2.22 0.84,2.28 0.84,2.34 0.96,2.4 0.9,2.46 0.96,2.52 1.02,2.52 1.02,2.52 1.02,2.52 1.08,2.46 1.08,2.46 1.14,2.4 1.08,2.28 1.14,2.22 1.14,2.1 1.08,1.98 1.14,1.86 1.08,1.68 1.14,1.56 1.08,1.44 1.08,1.2 1.08,1.02 1.08,0.9 1.02,0.66 1.08,0.48 1.02,0.3 1.02,0.12 1.02,-0.12 1.02,-0.3 1.08,-0.48 1.02,-0.66 1.08,-0.9 1.08,-1.02 1.08,-1.2 1.08,-1.44 1.14,-1.56 1.08,-1.68 1.14,-1.86 1.08,-1.98 1.14,-2.1 1.14,-2.22 1.08,-2.28 1.14,-2.4 1.08,-2.46 1.08,-2.46 1.02,-2.52 1.02,-2.52 1.02,-2.52 0.96,-2.52 0.9,-2.46 0.96,-2.4 0.84,-2.34 0.84,-2.28 0.84,-2.22 0.72,-2.1 0.78,-2.04 0.72,-1.92 0.66,-1.8 0.66,-1.74 1.08,-2.82 1.08,-2.46 0.96,-2.22 0.96,-1.92 0.96,-1.68 0.9,-1.5 0.96,-1.32 0.96,-1.2 0.96,-1.02 0.96,-0.9 0.9,-0.72 0.84,-0.6 0.72,-0.48 0.54,-0.3 0.42,-0.24 0.18,-0.06 0.12,-0.06" /><path
       id="path84"
       style="fill:none;fill-opacity:1;stroke:#ff0000;stroke-width:0.9;stroke-linecap:butt;stroke-linejoin:bevel;stroke-miterlimit:10;stroke-dasharray:none;stroke-opacity:1"
       d="m 297.092,649.76 0.12,0.06 0.18,0.06 0.42,0.24 0.54,0.3 0.72,0.48 0.84,0.6 0.9,0.72 0.96,0.9 0.96,1.02 0.96,1.2 0.96,1.32 0.9,1.5 0.96,1.68 0.96,1.92 0.96,2.22 1.08,2.46 1.08,2.82 0.66,1.74 0.66,1.8 0.72,1.92 0.78,2.04 0.72,2.1 0.84,2.22 0.84,2.28 0.84,2.34 0.96,2.4 0.9,2.46 0.96,2.52 1.02,2.52 1.02,2.52 1.02,2.52 1.08,2.46 1.08,2.46 1.14,2.4 1.08,2.28 1.14,2.22 1.14,2.1 1.08,1.98 1.14,1.86 1.08,1.68 1.14,1.56 1.08,1.44 1.08,1.2 1.08,1.02 1.08,0.9 1.02,0.66 1.08,0.48 1.02,0.3 1.02,0.12 1.02,-0.12 1.02,-0.3 1.08,-0.48 1.02,-0.66 1.08,-0.9 1.08,-1.02 1.08,-1.2 1.08,-1.44 1.14,-1.56 1.08,-1.68 1.14,-1.86 1.08,-1.98 1.14,-2.1 1.14,-2.22 1.08,-2.28 1.14,-2.4 1.08,-2.46 1.08,-2.46 1.02,-2.52 1.02,-2.52 1.02,-2.52 0.96,-2.52 0.9,-2.46 0.96,-2.4 0.84,-2.34 0.84,-2.28 0.84,-2.22 0.72,-2.1 0.78,-2.04 0.72,-1.92 0.66,-1.8 0.66,-1.74 1.08,-2.82 1.08,-2.46 0.96,-2.22 0.96,-1.92 0.96,-1.68 0.9,-1.5 0.96,-1.32 0.96,-1.2 0.96,-1.02 0.96,-0.9 0.9,-0.72 0.84,-0.6 0.72,-0.48 0.54,-0.3 0.42,-0.24 0.18,-0.06 0.12,-0.06" /><text
       transform="scale(1,-1)"
       id="text1326"
       y="-630.67755"
       x="339.95877"
       style="font-style:normal;font-weight:normal;font-size:14px;line-height:1.25;font-family:sans-serif;letter-spacing:0px;word-spacing:0px;fill:#000000;fill-opacity:1;stroke:none;stroke-width:0.75"
       xml:space="preserve"><tspan
         style="font-style:normal;font-variant:normal;font-weight:normal;font-stretch:normal;font-size:14px;font-family:'Latin Modern Sans';-inkscape-font-specification:'Latin Modern Sans';stroke-width:0.75"
         y="-630.67755"
         x="339.95877"
         id="tspan1324"
         sodipodi:role="line">wavelength λ</tspan></text><text
       transform="scale(1,-1)"
       xml:space="preserve"
       style="font-style:normal;font-weight:normal;font-size:14px;line-height:0.85;font-family:sans-serif;text-align:center;letter-spacing:0px;word-spacing:0px;text-anchor:middle;fill:#000000;fill-opacity:1;stroke:none;stroke-width:0.75"
       x="217.05356"
       y="-761.59741"
       id="text1326-3"><tspan
         sodipodi:role="line"
         id="tspan1324-6"
         x="217.05356"
         y="-761.59741"
         style="font-style:normal;font-variant:normal;font-weight:normal;font-stretch:normal;font-size:14px;font-family:'Latin Modern Sans';-inkscape-font-specification:'Latin Modern Sans';text-align:start;text-anchor:start;stroke-width:0.75">ﬂuorescence</tspan><tspan
         sodipodi:role="line"
         x="217.05356"
         y="-749.53668"
         style="font-style:normal;font-variant:normal;font-weight:normal;font-stretch:normal;font-size:14px;font-family:'Latin Modern Sans';-inkscape-font-specification:'Latin Modern Sans';text-align:start;text-anchor:start;stroke-width:0.75"
         id="tspan865">intensity</tspan></text><text
       transform="scale(1,-1)"
       id="text1326-3-7"
       y="-732.58813"
       x="252.53911"
       style="font-style:normal;font-weight:normal;font-size:14px;line-height:1.25;font-family:sans-serif;letter-spacing:0px;word-spacing:0px;fill:#00b000;fill-opacity:1;stroke:none;stroke-width:0.75;stroke-opacity:1;"
       xml:space="preserve"><tspan
         style="font-style:normal;font-variant:normal;font-weight:normal;font-stretch:normal;font-size:14px;font-family:'Latin Modern Sans';-inkscape-font-specification:'Latin Modern Sans';fill:#00b000;fill-opacity:1;stroke:none;stroke-width:0.75;stroke-opacity:1;"
         y="-732.58813"
         x="252.53911"
         id="tspan1324-6-5"
         sodipodi:role="line">excitation</tspan></text><text
       transform="scale(1,-1)"
       xml:space="preserve"
       style="font-style:normal;font-weight:normal;font-size:14px;line-height:1.25;font-family:sans-serif;letter-spacing:0px;word-spacing:0px;fill:#ff0000;fill-opacity:1;stroke:none;stroke-width:0.75;"
       x="327.93036"
       y="-732.58813"
       id="text1326-3-7-3"><tspan
         sodipodi:role="line"
         id="tspan1324-6-5-5"
         x="327.93036"
         y="-732.58813"
         style="font-style:normal;font-variant:normal;font-weight:normal;font-stretch:normal;font-size:14px;font-family:'Latin Modern Sans';-inkscape-font-specification:'Latin Modern Sans';fill:#ff0000;fill-opacity:1;stroke-width:0.75;">emission</tspan></text></g></svg>
