<?xml version="1.0" encoding="UTF-8" standalone="no"?>
<svg
   xmlns:dc="http://purl.org/dc/elements/1.1/"
   xmlns:cc="http://creativecommons.org/ns#"
   xmlns:rdf="http://www.w3.org/1999/02/22-rdf-syntax-ns#"
   xmlns:svg="http://www.w3.org/2000/svg"
   xmlns="http://www.w3.org/2000/svg"
   xmlns:sodipodi="http://sodipodi.sourceforge.net/DTD/sodipodi-0.dtd"
   xmlns:inkscape="http://www.inkscape.org/namespaces/inkscape"
   version="1.1"
   id="svg2"
   xml:space="preserve"
   width="304.29999"
   height="99.707558"
   viewBox="0 0 304.29999 99.707558"
   sodipodi:docname="Biochips_functionalization_cea2_step2.svg"
   inkscape:version="1.0 (4035a4fb49, 2020-05-01)"><metadata
     id="metadata8"><rdf:RDF><cc:Work
         rdf:about=""><dc:format>image/svg+xml</dc:format><dc:type
           rdf:resource="http://purl.org/dc/dcmitype/StillImage" /><dc:title></dc:title></cc:Work></rdf:RDF></metadata><defs
     id="defs6"><clipPath
       clipPathUnits="userSpaceOnUse"
       id="clipPath22"><path
         d="M 951.417,834.339 H 4861.42 V 7244.34 H 951.417 Z"
         id="path20" /></clipPath><clipPath
       clipPathUnits="userSpaceOnUse"
       id="clipPath54"><path
         d="M 951.417,834.339 H 4861.42 V 7244.34 H 951.417 Z M 4719.62,1345.34 h -45 v -82.8 l 22.8,67.2 22.2,-67.2 z"
         clip-rule="evenodd"
         id="path52" /></clipPath><clipPath
       clipPathUnits="userSpaceOnUse"
       id="clipPath64"><path
         d="M 951.417,834.339 H 4861.42 V 7244.34 H 951.417 Z"
         id="path62" /></clipPath><clipPath
       clipPathUnits="userSpaceOnUse"
       id="clipPath286"><path
         d="M 951.417,834.339 H 4861.42 V 7244.34 H 951.417 Z M 2424.62,5755.34 h -45 v -84 l 22.8,67.8 22.2,-67.8 z"
         clip-rule="evenodd"
         id="path284" /></clipPath><clipPath
       clipPathUnits="userSpaceOnUse"
       id="clipPath296"><path
         d="M 951.417,834.339 H 4861.42 V 7244.34 H 951.417 Z"
         id="path294" /></clipPath><clipPath
       clipPathUnits="userSpaceOnUse"
       id="clipPath308"><path
         d="M 951.417,834.339 H 4861.42 V 7244.34 H 951.417 Z M 2424.62,3055.34 h -45 v -84 l 22.8,67.8 22.2,-67.8 z"
         clip-rule="evenodd"
         id="path306" /></clipPath><clipPath
       clipPathUnits="userSpaceOnUse"
       id="clipPath318"><path
         d="M 951.417,834.339 H 4861.42 V 7244.34 H 951.417 Z"
         id="path316" /></clipPath><clipPath
       clipPathUnits="userSpaceOnUse"
       id="clipPath370"><path
         d="M 951.417,834.339 H 4861.42 V 7244.34 H 951.417 Z M 4719.62,5755.34 h -45 v -84 l 22.8,67.8 22.2,-67.8 z"
         clip-rule="evenodd"
         id="path368" /></clipPath><clipPath
       clipPathUnits="userSpaceOnUse"
       id="clipPath380"><path
         d="M 951.417,834.339 H 4861.42 V 7244.34 H 951.417 Z"
         id="path378" /></clipPath><clipPath
       clipPathUnits="userSpaceOnUse"
       id="clipPath392"><path
         d="M 951.417,834.339 H 4861.42 V 7244.34 H 951.417 Z M 4719.62,3460.34 h -45 v -84 l 22.8,67.8 22.2,-67.8 z"
         clip-rule="evenodd"
         id="path390" /></clipPath><clipPath
       clipPathUnits="userSpaceOnUse"
       id="clipPath402"><path
         d="M 951.417,834.339 H 4861.42 V 7244.34 H 951.417 Z"
         id="path400" /></clipPath></defs><sodipodi:namedview
     fit-margin-bottom="5"
     fit-margin-right="5"
     fit-margin-left="5"
     fit-margin-top="5"
     inkscape:document-rotation="0"
     pagecolor="#ffffff"
     bordercolor="#666666"
     borderopacity="1"
     objecttolerance="10"
     gridtolerance="10"
     guidetolerance="10"
     inkscape:pageopacity="0"
     inkscape:pageshadow="2"
     inkscape:window-width="1920"
     inkscape:window-height="1015"
     id="namedview4"
     showgrid="false"
     inkscape:zoom="0.9983453"
     inkscape:cx="749.7511"
     inkscape:cy="-171.43226"
     inkscape:window-x="0"
     inkscape:window-y="0"
     inkscape:window-maximized="1"
     inkscape:current-layer="g10" /><g
     id="g10"
     inkscape:groupmode="layer"
     inkscape:label="rapport"
     transform="matrix(0,1.3333333,1.3333333,0,575.51391,-581.01067)"><g
       transform="translate(0.375)"
       id="g5593"><path
         d="m 459.38412,-342.38544 h 4.5 v 135 h -4.5 z"
         style="fill:#87cfff;fill-opacity:1;fill-rule:evenodd;stroke:none;stroke-width:0.1"
         id="path262" /><path
         d="m 459.38412,-342.38544 h 4.5 v 135 h -4.5 z"
         style="fill:none;stroke:#87cfff;stroke-width:0.45;stroke-linecap:butt;stroke-linejoin:miter;stroke-miterlimit:10;stroke-dasharray:none;stroke-opacity:1"
         id="path264" /><path
         d="m 463.88412,-342.38544 h 13.5 v 135 h -13.5 z"
         style="fill:#00008f;fill-opacity:1;fill-rule:evenodd;stroke:none;stroke-width:0.1"
         id="path266" /><path
         d="m 463.88412,-342.38544 h 13.5 v 135 h -13.5 z"
         style="fill:none;stroke:#000000;stroke-width:0.45;stroke-linecap:butt;stroke-linejoin:miter;stroke-miterlimit:10;stroke-dasharray:none;stroke-opacity:1"
         id="path268" /><path
         d="m 468.38412,-427.88544 v 72"
         style="fill:none;stroke:#000000;stroke-width:0.45;stroke-linecap:butt;stroke-linejoin:miter;stroke-miterlimit:10;stroke-dasharray:none;stroke-opacity:1"
         id="path310" /><path
         d="m 470.60412,-363.38544 -2.22,6.78 -2.28,-6.78 2.28,1.38 2.22,-1.38"
         style="fill:#000000;fill-opacity:1;fill-rule:evenodd;stroke:none;stroke-width:0.1"
         id="path320" /><path
         d="m 470.60412,-363.38544 -2.22,6.78 -2.28,-6.78 2.28,1.38 z"
         style="fill:none;stroke:#000000;stroke-width:0.45;stroke-linecap:butt;stroke-linejoin:miter;stroke-miterlimit:10;stroke-dasharray:none;stroke-opacity:1"
         id="path322" /><g
         aria-label="Activation"
         transform="matrix(0,1,1,0,0,0)"
         id="text2317"
         style="font-style:normal;font-weight:normal;font-size:12px;line-height:1.25;font-family:sans-serif;letter-spacing:0px;word-spacing:0px;fill:#000000;fill-opacity:1;stroke:none;stroke-width:0.75"><path
           d="m -409.35734,484.43826 -3.132,-8.328 h -1.056 l -3.132,8.328 h 0.888 l 0.924,-2.448 h 3.492 l 0.912,2.448 z m -2.28,-3.12 h -2.976 c 0.612,-1.716 0.168,-0.456 0.78,-2.172 0.252,-0.708 0.624,-1.728 0.708,-2.172 h 0.012 c 0.024,0.168 0.108,0.468 0.384,1.26 z"
           style="font-style:normal;font-variant:normal;font-weight:normal;font-stretch:normal;font-size:12px;font-family:'Latin Modern Sans';-inkscape-font-specification:'Latin Modern Sans';stroke-width:0.75"
           id="path5095" /><path
           d="m -404.36536,483.95826 -0.072,-0.804 c -0.612,0.48 -1.26,0.648 -1.872,0.648 -0.996,0 -1.668,-0.864 -1.668,-2.04 0,-0.936 0.444,-2.088 1.716,-2.088 0.624,0 1.032,0.096 1.692,0.528 l 0.144,-0.78 c -0.708,-0.408 -1.116,-0.516 -1.848,-0.516 -1.668,0 -2.64,1.452 -2.64,2.868 0,1.488 1.092,2.796 2.592,2.796 0.648,0 1.308,-0.168 1.956,-0.612 z"
           style="font-style:normal;font-variant:normal;font-weight:normal;font-stretch:normal;font-size:12px;font-family:'Latin Modern Sans';-inkscape-font-specification:'Latin Modern Sans';stroke-width:0.75"
           id="path5097" /><path
           d="m -400.03338,484.11426 -0.192,-0.708 c -0.312,0.252 -0.696,0.396 -1.08,0.396 -0.444,0 -0.612,-0.36 -0.612,-0.996 v -3 h 1.692 v -0.696 h -1.692 v -1.524 h -0.828 v 1.524 h -1.044 v 0.696 h 1.008 v 3.204 c 0,0.72 0.168,1.56 0.996,1.56 0.84,0 1.452,-0.3 1.752,-0.456 z"
           style="font-style:normal;font-variant:normal;font-weight:normal;font-stretch:normal;font-size:12px;font-family:'Latin Modern Sans';-inkscape-font-specification:'Latin Modern Sans';stroke-width:0.75"
           id="path5099" /><path
           d="m -397.8134,484.43826 v -5.328 h -0.9 v 5.328 z m 0.096,-6.792 v -1.068 h -1.068 v 1.068 z"
           style="font-style:normal;font-variant:normal;font-weight:normal;font-stretch:normal;font-size:12px;font-family:'Latin Modern Sans';-inkscape-font-specification:'Latin Modern Sans';stroke-width:0.75"
           id="path5101" /><path
           d="m -391.46542,479.11026 h -0.9 l -0.948,2.496 c -0.252,0.66 -0.624,1.632 -0.72,2.196 h -0.012 c -0.072,-0.432 -0.384,-1.26 -0.504,-1.584 l -1.164,-3.108 h -0.936 l 2.064,5.328 h 1.056 z"
           style="font-style:normal;font-variant:normal;font-weight:normal;font-stretch:normal;font-size:12px;font-family:'Latin Modern Sans';-inkscape-font-specification:'Latin Modern Sans';stroke-width:0.75"
           id="path5103" /><path
           d="m -386.37744,484.43826 v -3.468 c 0,-1.224 -0.876,-2.064 -1.98,-2.064 -0.78,0 -1.32,0.192 -1.884,0.516 l 0.072,0.792 c 0.624,-0.444 1.224,-0.6 1.812,-0.6 0.564,0 1.044,0.48 1.044,1.368 v 0.516 c -1.8,0.024 -3.324,0.528 -3.324,1.584 0,0.516 0.324,1.488 1.368,1.488 0.168,0 1.296,-0.024 1.992,-0.564 v 0.432 z m -0.936,-1.584 c 0,0.228 0,0.528 -0.408,0.756 -0.348,0.216 -0.804,0.228 -0.936,0.228 -0.576,0 -1.116,-0.276 -1.116,-0.78 0,-0.84 1.944,-0.924 2.46,-0.948 z"
           style="font-style:normal;font-variant:normal;font-weight:normal;font-stretch:normal;font-size:12px;font-family:'Latin Modern Sans';-inkscape-font-specification:'Latin Modern Sans';stroke-width:0.75"
           id="path5105" /><path
           d="m -381.52945,484.11426 -0.192,-0.708 c -0.312,0.252 -0.696,0.396 -1.08,0.396 -0.444,0 -0.612,-0.36 -0.612,-0.996 v -3 h 1.692 v -0.696 h -1.692 v -1.524 h -0.828 v 1.524 h -1.044 v 0.696 h 1.008 v 3.204 c 0,0.72 0.168,1.56 0.996,1.56 0.84,0 1.452,-0.3 1.752,-0.456 z"
           style="font-style:normal;font-variant:normal;font-weight:normal;font-stretch:normal;font-size:12px;font-family:'Latin Modern Sans';-inkscape-font-specification:'Latin Modern Sans';stroke-width:0.75"
           id="path5107" /><path
           d="m -379.30947,484.43826 v -5.328 h -0.9 v 5.328 z m 0.096,-6.792 v -1.068 h -1.068 v 1.068 z"
           style="font-style:normal;font-variant:normal;font-weight:normal;font-stretch:normal;font-size:12px;font-family:'Latin Modern Sans';-inkscape-font-specification:'Latin Modern Sans';stroke-width:0.75"
           id="path5109" /><path
           d="m -372.68549,481.79826 c 0,-1.608 -1.2,-2.892 -2.628,-2.892 -1.476,0 -2.64,1.32 -2.64,2.892 0,1.584 1.224,2.772 2.628,2.772 1.44,0 2.64,-1.212 2.64,-2.772 z m -0.936,-0.12 c 0,1.416 -0.816,2.124 -1.704,2.124 -0.828,0 -1.692,-0.672 -1.692,-2.124 0,-1.452 0.912,-2.04 1.692,-2.04 0.84,0 1.704,0.624 1.704,2.04 z"
           style="font-style:normal;font-variant:normal;font-weight:normal;font-stretch:normal;font-size:12px;font-family:'Latin Modern Sans';-inkscape-font-specification:'Latin Modern Sans';stroke-width:0.75"
           id="path5111" /><path
           d="m -367.09351,484.43826 v -3.576 c 0,-0.792 -0.18,-1.884 -1.644,-1.884 -1.08,0 -1.668,0.816 -1.74,0.912 v -0.852 h -0.864 v 5.4 h 0.936 v -2.94 c 0,-0.792 0.3,-1.788 1.212,-1.788 1.152,0 1.164,0.852 1.164,1.236 v 3.492 z"
           style="font-style:normal;font-variant:normal;font-weight:normal;font-stretch:normal;font-size:12px;font-family:'Latin Modern Sans';-inkscape-font-specification:'Latin Modern Sans';stroke-width:0.75"
           id="path5113" /></g><path
         d="m 458.36412,-318.26544 h -7.74"
         style="fill:none;stroke:#000000;stroke-width:0.45;stroke-linecap:butt;stroke-linejoin:miter;stroke-miterlimit:10;stroke-dasharray:none;stroke-opacity:1"
         id="path252" /><g
         aria-label="OH"
         transform="matrix(0,1,1,0,0,0)"
         id="text2317-2-0-3-2-2"
         style="font-style:normal;font-weight:normal;font-size:12px;line-height:1.25;font-family:sans-serif;letter-spacing:0px;word-spacing:0px;fill:#000000;fill-opacity:1;stroke:none;stroke-width:0.75"><path
           d="m -314.49238,443.58501 c 0,-2.52 -1.74,-4.452 -3.732,-4.452 -2.04,0 -3.744,1.956 -3.744,4.452 0,2.544 1.776,4.404 3.732,4.404 2.004,0 3.744,-1.884 3.744,-4.404 z m -1.068,-0.18 c 0,2.34 -1.296,3.804 -2.664,3.804 -1.416,0 -2.676,-1.5 -2.676,-3.804 0,-2.196 1.32,-3.504 2.664,-3.504 1.392,0 2.676,1.356 2.676,3.504 z"
           style="font-style:normal;font-variant:normal;font-weight:normal;font-stretch:normal;font-size:12px;font-family:'Latin Modern Sans';-inkscape-font-specification:'Latin Modern Sans';stroke-width:0.75"
           id="path5116" /><path
           d="m -306.4524,447.72501 v -8.328 h -1.068 v 3.636 h -4.092 v -3.636 h -1.068 v 8.328 h 1.068 v -3.96 h 4.092 v 3.96 z"
           style="font-style:normal;font-variant:normal;font-weight:normal;font-stretch:normal;font-size:12px;font-family:'Latin Modern Sans';-inkscape-font-specification:'Latin Modern Sans';stroke-width:0.75"
           id="path5118" /></g><path
         d="m 458.36412,-278.13887 h -7.74"
         style="fill:none;stroke:#000000;stroke-width:0.45;stroke-linecap:butt;stroke-linejoin:miter;stroke-miterlimit:10;stroke-dasharray:none;stroke-opacity:1"
         id="path250" /><g
         aria-label="OH"
         transform="matrix(0,1,1,0,0,0)"
         id="text2317-2-0-3-2-2-7"
         style="font-style:normal;font-weight:normal;font-size:12px;line-height:1.25;font-family:sans-serif;letter-spacing:0px;word-spacing:0px;fill:#000000;fill-opacity:1;stroke:none;stroke-width:0.75"><path
           d="m -273.81373,443.58501 c 0,-2.52 -1.74,-4.452 -3.732,-4.452 -2.04,0 -3.744,1.956 -3.744,4.452 0,2.544 1.776,4.404 3.732,4.404 2.004,0 3.744,-1.884 3.744,-4.404 z m -1.068,-0.18 c 0,2.34 -1.296,3.804 -2.664,3.804 -1.416,0 -2.676,-1.5 -2.676,-3.804 0,-2.196 1.32,-3.504 2.664,-3.504 1.392,0 2.676,1.356 2.676,3.504 z"
           style="font-style:normal;font-variant:normal;font-weight:normal;font-stretch:normal;font-size:12px;font-family:'Latin Modern Sans';-inkscape-font-specification:'Latin Modern Sans';stroke-width:0.75"
           id="path5121" /><path
           d="m -265.77375,447.72501 v -8.328 h -1.068 v 3.636 h -4.092 v -3.636 h -1.068 v 8.328 h 1.068 v -3.96 h 4.092 v 3.96 z"
           style="font-style:normal;font-variant:normal;font-weight:normal;font-stretch:normal;font-size:12px;font-family:'Latin Modern Sans';-inkscape-font-specification:'Latin Modern Sans';stroke-width:0.75"
           id="path5123" /></g><path
         d="m 458.36412,-237.26546 h -7.74"
         style="fill:none;stroke:#000000;stroke-width:0.45;stroke-linecap:butt;stroke-linejoin:miter;stroke-miterlimit:10;stroke-dasharray:none;stroke-opacity:1"
         id="path248" /><g
         aria-label="OH"
         transform="matrix(0,1,1,0,0,0)"
         id="text2317-2-0-3-2-2-9"
         style="font-style:normal;font-weight:normal;font-size:12px;line-height:1.25;font-family:sans-serif;letter-spacing:0px;word-spacing:0px;fill:#000000;fill-opacity:1;stroke:none;stroke-width:0.75"><path
           d="m -233.13507,443.58501 c 0,-2.52 -1.74,-4.452 -3.732,-4.452 -2.04,0 -3.744,1.956 -3.744,4.452 0,2.544 1.776,4.404 3.732,4.404 2.004,0 3.744,-1.884 3.744,-4.404 z m -1.068,-0.18 c 0,2.34 -1.296,3.804 -2.664,3.804 -1.416,0 -2.676,-1.5 -2.676,-3.804 0,-2.196 1.32,-3.504 2.664,-3.504 1.392,0 2.676,1.356 2.676,3.504 z"
           style="font-style:normal;font-variant:normal;font-weight:normal;font-stretch:normal;font-size:12px;font-family:'Latin Modern Sans';-inkscape-font-specification:'Latin Modern Sans';stroke-width:0.75"
           id="path5126" /><path
           d="m -225.09509,447.72501 v -8.328 h -1.068 v 3.636 h -4.092 v -3.636 h -1.068 v 8.328 h 1.068 v -3.96 h 4.092 v 3.96 z"
           style="font-style:normal;font-variant:normal;font-weight:normal;font-stretch:normal;font-size:12px;font-family:'Latin Modern Sans';-inkscape-font-specification:'Latin Modern Sans';stroke-width:0.75"
           id="path5128" /></g><path
         style="fill:none;stroke:none;stroke-width:0.75px;stroke-linecap:butt;stroke-linejoin:miter;stroke-opacity:1"
         d="m 506.41368,-299.28798 v 41.71519"
         id="path4606-9" /></g></g></svg>
