<?xml version="1.0" encoding="UTF-8" standalone="no"?>
<svg
   xmlns:dc="http://purl.org/dc/elements/1.1/"
   xmlns:cc="http://creativecommons.org/ns#"
   xmlns:rdf="http://www.w3.org/1999/02/22-rdf-syntax-ns#"
   xmlns:svg="http://www.w3.org/2000/svg"
   xmlns="http://www.w3.org/2000/svg"
   xmlns:sodipodi="http://sodipodi.sourceforge.net/DTD/sodipodi-0.dtd"
   xmlns:inkscape="http://www.inkscape.org/namespaces/inkscape"
   inkscape:version="1.0 (4035a4fb49, 2020-05-01)"
   sodipodi:docname="Biochips_functionalization_cea2_step3.svg"
   viewBox="0 0 358.06421 259.8848"
   height="259.8848"
   width="358.06421"
   xml:space="preserve"
   id="svg2"
   version="1.1"><metadata
     id="metadata8"><rdf:RDF><cc:Work
         rdf:about=""><dc:format>image/svg+xml</dc:format><dc:type
           rdf:resource="http://purl.org/dc/dcmitype/StillImage" /><dc:title></dc:title></cc:Work></rdf:RDF></metadata><defs
     id="defs6"><clipPath
       id="clipPath22"
       clipPathUnits="userSpaceOnUse"><path
         id="path20"
         d="M 951.417,834.339 H 4861.42 V 7244.34 H 951.417 Z" /></clipPath><clipPath
       id="clipPath54"
       clipPathUnits="userSpaceOnUse"><path
         id="path52"
         clip-rule="evenodd"
         d="M 951.417,834.339 H 4861.42 V 7244.34 H 951.417 Z M 4719.62,1345.34 h -45 v -82.8 l 22.8,67.2 22.2,-67.2 z" /></clipPath><clipPath
       id="clipPath64"
       clipPathUnits="userSpaceOnUse"><path
         id="path62"
         d="M 951.417,834.339 H 4861.42 V 7244.34 H 951.417 Z" /></clipPath><clipPath
       id="clipPath286"
       clipPathUnits="userSpaceOnUse"><path
         id="path284"
         clip-rule="evenodd"
         d="M 951.417,834.339 H 4861.42 V 7244.34 H 951.417 Z M 2424.62,5755.34 h -45 v -84 l 22.8,67.8 22.2,-67.8 z" /></clipPath><clipPath
       id="clipPath296"
       clipPathUnits="userSpaceOnUse"><path
         id="path294"
         d="M 951.417,834.339 H 4861.42 V 7244.34 H 951.417 Z" /></clipPath><clipPath
       id="clipPath308"
       clipPathUnits="userSpaceOnUse"><path
         id="path306"
         clip-rule="evenodd"
         d="M 951.417,834.339 H 4861.42 V 7244.34 H 951.417 Z M 2424.62,3055.34 h -45 v -84 l 22.8,67.8 22.2,-67.8 z" /></clipPath><clipPath
       id="clipPath318"
       clipPathUnits="userSpaceOnUse"><path
         id="path316"
         d="M 951.417,834.339 H 4861.42 V 7244.34 H 951.417 Z" /></clipPath><clipPath
       id="clipPath370"
       clipPathUnits="userSpaceOnUse"><path
         id="path368"
         clip-rule="evenodd"
         d="M 951.417,834.339 H 4861.42 V 7244.34 H 951.417 Z M 4719.62,5755.34 h -45 v -84 l 22.8,67.8 22.2,-67.8 z" /></clipPath><clipPath
       id="clipPath380"
       clipPathUnits="userSpaceOnUse"><path
         id="path378"
         d="M 951.417,834.339 H 4861.42 V 7244.34 H 951.417 Z" /></clipPath><clipPath
       id="clipPath392"
       clipPathUnits="userSpaceOnUse"><path
         id="path390"
         clip-rule="evenodd"
         d="M 951.417,834.339 H 4861.42 V 7244.34 H 951.417 Z M 4719.62,3460.34 h -45 v -84 l 22.8,67.8 22.2,-67.8 z" /></clipPath><clipPath
       id="clipPath402"
       clipPathUnits="userSpaceOnUse"><path
         id="path400"
         d="M 951.417,834.339 H 4861.42 V 7244.34 H 951.417 Z" /></clipPath></defs><sodipodi:namedview
     inkscape:current-layer="g10"
     inkscape:window-maximized="1"
     inkscape:window-y="0"
     inkscape:window-x="0"
     inkscape:cy="56.321238"
     inkscape:cx="96.435943"
     inkscape:zoom="1.414741"
     showgrid="false"
     id="namedview4"
     inkscape:window-height="1015"
     inkscape:window-width="1920"
     inkscape:pageshadow="2"
     inkscape:pageopacity="0"
     guidetolerance="10"
     gridtolerance="10"
     objecttolerance="10"
     borderopacity="1"
     bordercolor="#666666"
     pagecolor="#ffffff"
     inkscape:document-rotation="0"
     fit-margin-top="5"
     fit-margin-left="5"
     fit-margin-right="5"
     fit-margin-bottom="5" /><g
     transform="matrix(0,1.3333333,1.3333333,0,269.27814,-420.83342)"
     inkscape:label="rapport"
     inkscape:groupmode="layer"
     id="g10"><g
       id="g5686"><path
         id="path254"
         style="fill:#87cfff;fill-opacity:1;fill-rule:evenodd;stroke:none;stroke-width:0.1"
         d="m 459.38412,-72.385437 h 4.5 v 135 h -4.5 z" /><path
         id="path256"
         style="fill:none;stroke:#87cfff;stroke-width:0.45;stroke-linecap:butt;stroke-linejoin:miter;stroke-miterlimit:10;stroke-dasharray:none;stroke-opacity:1"
         d="m 459.38412,-72.385437 h 4.5 v 135 h -4.5 z" /><path
         id="path258"
         style="fill:#00008f;fill-opacity:1;fill-rule:evenodd;stroke:none;stroke-width:0.1"
         d="m 463.88412,-72.385437 h 13.5 v 135 h -13.5 z" /><path
         id="path260"
         style="fill:none;stroke:#000000;stroke-width:0.45;stroke-linecap:butt;stroke-linejoin:miter;stroke-miterlimit:10;stroke-dasharray:none;stroke-opacity:1"
         d="m 463.88412,-72.385437 h 13.5 v 135 h -13.5 z" /><path
         id="path288"
         style="fill:none;stroke:#000000;stroke-width:0.45;stroke-linecap:butt;stroke-linejoin:miter;stroke-miterlimit:10;stroke-dasharray:none;stroke-opacity:1"
         d="M 468.38412,-193.88544 V -85.885437" /><path
         id="path298"
         style="fill:#000000;fill-opacity:1;fill-rule:evenodd;stroke:none;stroke-width:0.1"
         d="m 470.60412,-93.385437 -2.22,6.78 -2.28,-6.78 2.28,1.38 2.22,-1.38" /><path
         id="path300"
         style="fill:none;stroke:#000000;stroke-width:0.45;stroke-linecap:butt;stroke-linejoin:miter;stroke-miterlimit:10;stroke-dasharray:none;stroke-opacity:1"
         d="m 470.60412,-93.385437 -2.22,6.78 -2.28,-6.78 2.28,1.38 z" /><g
         transform="matrix(0,0.81917358,-0.81917358,0,941.81263,-388.14725)"
         id="g1303"><path
           d="m 274.323,607.751 9,-9 18,18 18,-18 18,18 18,-18 18,18 v -22.5"
           style="fill:none;stroke:#000000;stroke-width:0.45;stroke-linecap:butt;stroke-linejoin:miter;stroke-miterlimit:10;stroke-dasharray:none;stroke-opacity:1"
           id="path106-3" /><path
           d="m 355.323,598.751 9,-9"
           style="fill:none;stroke:#000000;stroke-width:0.45;stroke-linecap:butt;stroke-linejoin:miter;stroke-miterlimit:10;stroke-dasharray:none;stroke-opacity:1"
           id="path108-6" /><path
           d="m 260.823,607.751 -9,-4.5"
           style="fill:none;stroke:#000000;stroke-width:0.45;stroke-linecap:butt;stroke-linejoin:miter;stroke-miterlimit:10;stroke-dasharray:none;stroke-opacity:1"
           id="path110-7" /><path
           d="m 265.323,606.311 -4.5,-7.56"
           style="fill:none;stroke:#000000;stroke-width:0.45;stroke-linecap:butt;stroke-linejoin:miter;stroke-miterlimit:10;stroke-dasharray:none;stroke-opacity:1"
           id="path112-5" /><path
           d="m 269.823,625.751 v -9"
           style="fill:none;stroke:#000000;stroke-width:0.45;stroke-linecap:butt;stroke-linejoin:miter;stroke-miterlimit:10;stroke-dasharray:none;stroke-opacity:1"
           id="path114-3" /></g><g
         style="font-style:normal;font-variant:normal;font-weight:normal;font-stretch:normal;font-size:20px;line-height:1.25;font-family:'Latin Modern Sans';-inkscape-font-specification:'Latin Modern Sans';letter-spacing:0px;word-spacing:0px;fill:#000000;fill-opacity:1;stroke:none;stroke-width:0.75"
         id="text1296-3"
         transform="matrix(0,0.47094534,0.47094534,0,736.50008,-258.06729)"
         aria-label="OEt"><path
           id="path1403"
           style="font-style:normal;font-variant:normal;font-weight:normal;font-stretch:normal;font-size:20px;font-family:'Latin Modern Sans';-inkscape-font-specification:'Latin Modern Sans';stroke-width:0.75"
           d="m 199.43953,-663.24149 c 0,-4.2 -2.9,-7.42 -6.22,-7.42 -3.4,0 -6.24,3.26 -6.24,7.42 0,4.24 2.96,7.34 6.22,7.34 3.34,0 6.24,-3.14 6.24,-7.34 z m -1.78,-0.3 c 0,3.9 -2.16,6.34 -4.44,6.34 -2.36,0 -4.46,-2.5 -4.46,-6.34 0,-3.66 2.2,-5.84 4.44,-5.84 2.32,0 4.46,2.26 4.46,5.84 z" /><path
           id="path1405"
           style="font-style:normal;font-variant:normal;font-weight:normal;font-stretch:normal;font-size:20px;font-family:'Latin Modern Sans';-inkscape-font-specification:'Latin Modern Sans';stroke-width:0.75"
           d="m 211.65949,-656.34149 v -1.42 h -2.52 c -0.24,0 -0.48,0.02 -0.72,0.02 h -4.18 v -5.18 h 6.6 v -1.22 h -6.6 v -4.74 h 2.76 c 0.24,0 0.48,0.02 0.72,0.02 h 3.66 v -1.3 h -8.92 v 13.82 z" /><path
           id="path1407"
           style="font-style:normal;font-variant:normal;font-weight:normal;font-stretch:normal;font-size:20px;font-family:'Latin Modern Sans';-inkscape-font-specification:'Latin Modern Sans';stroke-width:0.75"
           d="m 219.15945,-656.88149 -0.32,-1.18 c -0.52,0.42 -1.16,0.66 -1.8,0.66 -0.74,0 -1.02,-0.6 -1.02,-1.66 v -5 h 2.82 v -1.16 h -2.82 v -2.54 h -1.38 v 2.54 h -1.74 v 1.16 h 1.68 v 5.34 c 0,1.2 0.28,2.6 1.66,2.6 1.4,0 2.42,-0.5 2.92,-0.76 z" /></g><g
         style="font-style:normal;font-variant:normal;font-weight:normal;font-stretch:normal;font-size:20px;line-height:1.25;font-family:'Latin Modern Sans';-inkscape-font-specification:'Latin Modern Sans';letter-spacing:0px;word-spacing:0px;fill:#000000;fill-opacity:1;stroke:none;stroke-width:0.75"
         id="text1296-7"
         transform="matrix(0,0.47094534,0.47094534,0,736.50008,-258.06729)"
         aria-label="Si"><path
           id="path1410"
           style="font-style:normal;font-variant:normal;font-weight:normal;font-stretch:normal;font-size:20px;font-family:'Latin Modern Sans';-inkscape-font-specification:'Latin Modern Sans';stroke-width:0.75"
           d="m 191.32926,-624.62772 c 0,-1.3 -0.62,-2.26 -1.06,-2.74 -0.94,-1 -1.6,-1.18 -3.44,-1.64 -1.16,-0.28 -1.48,-0.36 -2.08,-0.88 -0.14,-0.12 -0.7,-0.7 -0.7,-1.58 0,-1.18 1.08,-2.38 2.92,-2.38 1.68,0 2.64,0.66 3.38,1.28 l 0.3,-1.6 c -1.1,-0.66 -2.2,-1 -3.66,-1 -2.78,0 -4.52,1.96 -4.52,3.94 0,0.86 0.28,1.7 1.08,2.54 0.84,0.9 1.72,1.14 2.9,1.42 1.7,0.42 1.9,0.48 2.46,0.98 0.4,0.34 0.84,1 0.84,1.86 0,1.32 -1.1,2.64 -2.92,2.64 -0.82,0 -2.62,-0.2 -4.3,-1.62 l -0.3,1.62 c 1.76,1.1 3.36,1.38 4.62,1.38 2.64,0 4.48,-2.02 4.48,-4.22 z" /><path
           id="path1412"
           style="font-style:normal;font-variant:normal;font-weight:normal;font-stretch:normal;font-size:20px;font-family:'Latin Modern Sans';-inkscape-font-specification:'Latin Modern Sans';stroke-width:0.75"
           d="m 195.58925,-620.84772 v -8.88 h -1.5 v 8.88 z m 0.16,-11.32 v -1.78 h -1.78 v 1.78 z" /></g><g
         style="font-style:normal;font-variant:normal;font-weight:normal;font-stretch:normal;font-size:20px;line-height:1.25;font-family:'Latin Modern Sans';-inkscape-font-specification:'Latin Modern Sans';letter-spacing:0px;word-spacing:0px;fill:#000000;fill-opacity:1;stroke:none;stroke-width:0.75"
         id="text1296-3-3"
         transform="matrix(0,0.47094534,0.47094534,0,736.50008,-258.06729)"
         aria-label="O"><path
           id="path1415"
           style="font-style:normal;font-variant:normal;font-weight:normal;font-stretch:normal;font-size:20px;font-family:'Latin Modern Sans';-inkscape-font-specification:'Latin Modern Sans';stroke-width:0.75"
           d="m 374.78877,-587.93552 c 0,-4.2 -2.9,-7.42 -6.22,-7.42 -3.4,0 -6.24,3.26 -6.24,7.42 0,4.24 2.96,7.34 6.22,7.34 3.34,0 6.24,-3.14 6.24,-7.34 z m -1.78,-0.3 c 0,3.9 -2.16,6.34 -4.44,6.34 -2.36,0 -4.46,-2.5 -4.46,-6.34 0,-3.66 2.2,-5.84 4.44,-5.84 2.32,0 4.46,2.26 4.46,5.84 z" /></g><g
         style="font-style:normal;font-variant:normal;font-weight:normal;font-stretch:normal;font-size:20px;line-height:1.25;font-family:'Latin Modern Sans';-inkscape-font-specification:'Latin Modern Sans';letter-spacing:0px;word-spacing:0px;fill:#000000;fill-opacity:1;stroke:none;stroke-width:0.75"
         id="text1296-3-6"
         transform="matrix(0,0.47094534,0.47094534,0,736.50008,-258.06729)"
         aria-label="EtO"><path
           id="path1396"
           style="font-style:normal;font-variant:normal;font-weight:normal;font-stretch:normal;font-size:20px;font-family:'Latin Modern Sans';-inkscape-font-specification:'Latin Modern Sans';stroke-width:0.75"
           d="m 162.00009,-588.72736 v -1.42 h -2.52 c -0.24,0 -0.48,0.02 -0.72,0.02 h -4.18 v -5.18 h 6.6 v -1.22 h -6.6 v -4.74 h 2.76 c 0.24,0 0.48,0.02 0.72,0.02 h 3.66 v -1.3 h -8.92 v 13.82 z" /><path
           id="path1398"
           style="font-style:normal;font-variant:normal;font-weight:normal;font-stretch:normal;font-size:20px;font-family:'Latin Modern Sans';-inkscape-font-specification:'Latin Modern Sans';stroke-width:0.75"
           d="m 169.50005,-589.26736 -0.32,-1.18 c -0.52,0.42 -1.16,0.66 -1.8,0.66 -0.74,0 -1.02,-0.6 -1.02,-1.66 v -5 h 2.82 v -1.16 h -2.82 v -2.54 h -1.38 v 2.54 h -1.74 v 1.16 h 1.68 v 5.34 c 0,1.2 0.28,2.6 1.66,2.6 1.4,0 2.42,-0.5 2.92,-0.76 z" /><path
           id="path1400"
           style="font-style:normal;font-variant:normal;font-weight:normal;font-stretch:normal;font-size:20px;font-family:'Latin Modern Sans';-inkscape-font-specification:'Latin Modern Sans';stroke-width:0.75"
           d="m 183.66002,-595.62736 c 0,-4.2 -2.9,-7.42 -6.22,-7.42 -3.4,0 -6.24,3.26 -6.24,7.42 0,4.24 2.96,7.34 6.22,7.34 3.34,0 6.24,-3.14 6.24,-7.34 z m -1.78,-0.3 c 0,3.9 -2.16,6.34 -4.44,6.34 -2.36,0 -4.46,-2.5 -4.46,-6.34 0,-3.66 2.2,-5.84 4.44,-5.84 2.32,0 4.46,2.26 4.46,5.84 z" /></g><g
         style="font-style:normal;font-variant:normal;font-weight:normal;font-stretch:normal;font-size:20px;line-height:1.25;font-family:'Latin Modern Sans';-inkscape-font-specification:'Latin Modern Sans';letter-spacing:0px;word-spacing:0px;fill:#000000;fill-opacity:1;stroke:none;stroke-width:0.75"
         id="text1296-3-6-9"
         transform="matrix(0,0.47094534,0.47094534,0,736.50008,-258.06729)"
         aria-label="EtO"><path
           id="path1389"
           style="font-style:normal;font-variant:normal;font-weight:normal;font-stretch:normal;font-size:20px;font-family:'Latin Modern Sans';-inkscape-font-specification:'Latin Modern Sans';stroke-width:0.75"
           d="m 136.30325,-606.60907 v -1.42 h -2.52 c -0.24,0 -0.48,0.02 -0.72,0.02 h -4.18 v -5.18 h 6.6 v -1.22 h -6.6 v -4.74 h 2.76 c 0.24,0 0.48,0.02 0.72,0.02 h 3.66 v -1.3 h -8.92 v 13.82 z" /><path
           id="path1391"
           style="font-style:normal;font-variant:normal;font-weight:normal;font-stretch:normal;font-size:20px;font-family:'Latin Modern Sans';-inkscape-font-specification:'Latin Modern Sans';stroke-width:0.75"
           d="m 143.80322,-607.14907 -0.32,-1.18 c -0.52,0.42 -1.16,0.66 -1.8,0.66 -0.74,0 -1.02,-0.6 -1.02,-1.66 v -5 h 2.82 v -1.16 h -2.82 v -2.54 h -1.38 v 2.54 h -1.74 v 1.16 h 1.68 v 5.34 c 0,1.2 0.28,2.6 1.66,2.6 1.4,0 2.42,-0.5 2.92,-0.76 z" /><path
           id="path1393"
           style="font-style:normal;font-variant:normal;font-weight:normal;font-stretch:normal;font-size:20px;font-family:'Latin Modern Sans';-inkscape-font-specification:'Latin Modern Sans';stroke-width:0.75"
           d="m 157.96318,-613.50907 c 0,-4.2 -2.9,-7.42 -6.22,-7.42 -3.4,0 -6.24,3.26 -6.24,7.42 0,4.24 2.96,7.34 6.22,7.34 3.34,0 6.24,-3.14 6.24,-7.34 z m -1.78,-0.3 c 0,3.9 -2.16,6.34 -4.44,6.34 -2.36,0 -4.46,-2.5 -4.46,-6.34 0,-3.66 2.2,-5.84 4.44,-5.84 2.32,0 4.46,2.26 4.46,5.84 z" /></g><g
         style="font-style:normal;font-weight:normal;font-size:12px;line-height:1.25;font-family:sans-serif;letter-spacing:0px;word-spacing:0px;fill:#000000;fill-opacity:1;stroke:none;stroke-width:0.75"
         id="text2317-2"
         transform="matrix(0,1,1,0,0,0)"
         aria-label="Silanization"><path
           id="path5131"
           style="font-style:normal;font-variant:normal;font-weight:normal;font-stretch:normal;font-size:12px;font-family:'Latin Modern Sans';-inkscape-font-specification:'Latin Modern Sans';stroke-width:0.75"
           d="m -162.49335,482.03827 c 0,-0.78 -0.372,-1.356 -0.636,-1.644 -0.564,-0.6 -0.96,-0.708 -2.064,-0.984 -0.696,-0.168 -0.888,-0.216 -1.248,-0.528 -0.084,-0.072 -0.42,-0.42 -0.42,-0.948 0,-0.708 0.648,-1.428 1.752,-1.428 1.008,0 1.584,0.396 2.028,0.768 l 0.18,-0.96 c -0.66,-0.396 -1.32,-0.6 -2.196,-0.6 -1.668,0 -2.712,1.176 -2.712,2.364 0,0.516 0.168,1.02 0.648,1.524 0.504,0.54 1.032,0.684 1.74,0.852 1.02,0.252 1.14,0.288 1.476,0.588 0.24,0.204 0.504,0.6 0.504,1.116 0,0.792 -0.66,1.584 -1.752,1.584 -0.492,0 -1.572,-0.12 -2.58,-0.972 l -0.18,0.972 c 1.056,0.66 2.016,0.828 2.772,0.828 1.584,0 2.688,-1.212 2.688,-2.532 z" /><path
           id="path5133"
           style="font-style:normal;font-variant:normal;font-weight:normal;font-stretch:normal;font-size:12px;font-family:'Latin Modern Sans';-inkscape-font-specification:'Latin Modern Sans';stroke-width:0.75"
           d="m -159.93736,484.30627 v -5.328 h -0.9 v 5.328 z m 0.096,-6.792 v -1.068 h -1.068 v 1.068 z" /><path
           id="path5135"
           style="font-style:normal;font-variant:normal;font-weight:normal;font-stretch:normal;font-size:12px;font-family:'Latin Modern Sans';-inkscape-font-specification:'Latin Modern Sans';stroke-width:0.75"
           d="m -157.06938,484.30627 v -8.328 h -0.9 v 8.328 z" /><path
           id="path5137"
           style="font-style:normal;font-variant:normal;font-weight:normal;font-stretch:normal;font-size:12px;font-family:'Latin Modern Sans';-inkscape-font-specification:'Latin Modern Sans';stroke-width:0.75"
           d="m -151.16539,484.30627 v -3.468 c 0,-1.224 -0.876,-2.064 -1.98,-2.064 -0.78,0 -1.32,0.192 -1.884,0.516 l 0.072,0.792 c 0.624,-0.444 1.224,-0.6 1.812,-0.6 0.564,0 1.044,0.48 1.044,1.368 v 0.516 c -1.8,0.024 -3.324,0.528 -3.324,1.584 0,0.516 0.324,1.488 1.368,1.488 0.168,0 1.296,-0.024 1.992,-0.564 v 0.432 z m -0.936,-1.584 c 0,0.228 0,0.528 -0.408,0.756 -0.348,0.216 -0.804,0.228 -0.936,0.228 -0.576,0 -1.116,-0.276 -1.116,-0.78 0,-0.84 1.944,-0.924 2.46,-0.948 z" /><path
           id="path5139"
           style="font-style:normal;font-variant:normal;font-weight:normal;font-stretch:normal;font-size:12px;font-family:'Latin Modern Sans';-inkscape-font-specification:'Latin Modern Sans';stroke-width:0.75"
           d="m -145.08141,484.30627 v -3.576 c 0,-0.792 -0.18,-1.884 -1.644,-1.884 -1.08,0 -1.668,0.816 -1.74,0.912 v -0.852 h -0.864 v 5.4 h 0.936 v -2.94 c 0,-0.792 0.3,-1.788 1.212,-1.788 1.152,0 1.164,0.852 1.164,1.236 v 3.492 z" /><path
           id="path5141"
           style="font-style:normal;font-variant:normal;font-weight:normal;font-stretch:normal;font-size:12px;font-family:'Latin Modern Sans';-inkscape-font-specification:'Latin Modern Sans';stroke-width:0.75"
           d="m -142.22543,484.30627 v -5.328 h -0.9 v 5.328 z m 0.096,-6.792 v -1.068 h -1.068 v 1.068 z" /><path
           id="path5143"
           style="font-style:normal;font-variant:normal;font-weight:normal;font-stretch:normal;font-size:12px;font-family:'Latin Modern Sans';-inkscape-font-specification:'Latin Modern Sans';stroke-width:0.75"
           d="m -136.40545,484.30627 v -0.744 h -1.764 c -0.144,0 -0.288,0.012 -0.432,0.012 h -1.02 l 3.192,-4.128 v -0.468 h -4.296 v 0.708 h 1.668 c 0.144,0 0.288,-0.012 0.432,-0.012 h 0.936 l -3.204,4.14 v 0.492 z" /><path
           id="path5145"
           style="font-style:normal;font-variant:normal;font-weight:normal;font-stretch:normal;font-size:12px;font-family:'Latin Modern Sans';-inkscape-font-specification:'Latin Modern Sans';stroke-width:0.75"
           d="m -131.10145,484.30627 v -3.468 c 0,-1.224 -0.876,-2.064 -1.98,-2.064 -0.78,0 -1.32,0.192 -1.884,0.516 l 0.072,0.792 c 0.624,-0.444 1.224,-0.6 1.812,-0.6 0.564,0 1.044,0.48 1.044,1.368 v 0.516 c -1.8,0.024 -3.324,0.528 -3.324,1.584 0,0.516 0.324,1.488 1.368,1.488 0.168,0 1.296,-0.024 1.992,-0.564 v 0.432 z m -0.936,-1.584 c 0,0.228 0,0.528 -0.408,0.756 -0.348,0.216 -0.804,0.228 -0.936,0.228 -0.576,0 -1.116,-0.276 -1.116,-0.78 0,-0.84 1.944,-0.924 2.46,-0.948 z" /><path
           id="path5147"
           style="font-style:normal;font-variant:normal;font-weight:normal;font-stretch:normal;font-size:12px;font-family:'Latin Modern Sans';-inkscape-font-specification:'Latin Modern Sans';stroke-width:0.75"
           d="m -126.25346,483.98227 -0.192,-0.708 c -0.312,0.252 -0.696,0.396 -1.08,0.396 -0.444,0 -0.612,-0.36 -0.612,-0.996 v -3 h 1.692 v -0.696 h -1.692 v -1.524 h -0.828 v 1.524 h -1.044 v 0.696 h 1.008 v 3.204 c 0,0.72 0.168,1.56 0.996,1.56 0.84,0 1.452,-0.3 1.752,-0.456 z" /><path
           id="path5149"
           style="font-style:normal;font-variant:normal;font-weight:normal;font-stretch:normal;font-size:12px;font-family:'Latin Modern Sans';-inkscape-font-specification:'Latin Modern Sans';stroke-width:0.75"
           d="m -124.03349,484.30627 v -5.328 h -0.9 v 5.328 z m 0.096,-6.792 v -1.068 h -1.068 v 1.068 z" /><path
           id="path5151"
           style="font-style:normal;font-variant:normal;font-weight:normal;font-stretch:normal;font-size:12px;font-family:'Latin Modern Sans';-inkscape-font-specification:'Latin Modern Sans';stroke-width:0.75"
           d="m -117.40951,481.66627 c 0,-1.608 -1.2,-2.892 -2.628,-2.892 -1.476,0 -2.64,1.32 -2.64,2.892 0,1.584 1.224,2.772 2.628,2.772 1.44,0 2.64,-1.212 2.64,-2.772 z m -0.936,-0.12 c 0,1.416 -0.816,2.124 -1.704,2.124 -0.828,0 -1.692,-0.672 -1.692,-2.124 0,-1.452 0.912,-2.04 1.692,-2.04 0.84,0 1.704,0.624 1.704,2.04 z" /><path
           id="path5153"
           style="font-style:normal;font-variant:normal;font-weight:normal;font-stretch:normal;font-size:12px;font-family:'Latin Modern Sans';-inkscape-font-specification:'Latin Modern Sans';stroke-width:0.75"
           d="m -111.81753,484.30627 v -3.576 c 0,-0.792 -0.18,-1.884 -1.644,-1.884 -1.08,0 -1.668,0.816 -1.74,0.912 v -0.852 h -0.864 v 5.4 h 0.936 v -2.94 c 0,-0.792 0.3,-1.788 1.212,-1.788 1.152,0 1.164,0.852 1.164,1.236 v 3.492 z" /></g><path
         d="m 341.99859,-5.9553 -7.38,7.38"
         style="fill:none;stroke:#000000;stroke-width:0.45;stroke-linecap:butt;stroke-linejoin:miter;stroke-miterlimit:10;stroke-dasharray:none;stroke-opacity:1"
         id="path222-6" /><path
         d="m 422.33859,0.5847 v 7.62"
         style="fill:none;stroke:#000000;stroke-width:0.45;stroke-linecap:butt;stroke-linejoin:miter;stroke-miterlimit:10;stroke-dasharray:none;stroke-opacity:1"
         id="path224-8" /><path
         d="m 422.33859,-20.8353 v 7.68"
         style="fill:none;stroke:#000000;stroke-width:0.45;stroke-linecap:butt;stroke-linejoin:miter;stroke-miterlimit:10;stroke-dasharray:none;stroke-opacity:1"
         id="path226-9" /><path
         d="m 327.29859,1.4247 -7.3803,-7.38 h 22.0803 l 14.76,-14.7 14.7,14.7 14.76,-14.7 14.7,14.7 h 14.7"
         style="fill:none;stroke:#000000;stroke-width:0.45;stroke-linecap:butt;stroke-linejoin:miter;stroke-miterlimit:10;stroke-dasharray:none;stroke-opacity:1"
         id="path228-2" /><path
         d="m 437.21859,-6.69469 h -7.62"
         style="fill:none;stroke:#000000;stroke-width:0.45;stroke-linecap:butt;stroke-linejoin:miter;stroke-miterlimit:10;stroke-dasharray:none;stroke-opacity:1"
         id="path230-6" /><path
         d="m 458.39859,-6.69469 h -7.74"
         style="fill:none;stroke:#000000;stroke-width:0.45;stroke-linecap:butt;stroke-linejoin:miter;stroke-miterlimit:10;stroke-dasharray:none;stroke-opacity:1"
         id="path232-6" /><g
         style="font-style:normal;font-weight:normal;font-size:12px;line-height:1.25;font-family:sans-serif;letter-spacing:0px;word-spacing:0px;fill:#000000;fill-opacity:1;stroke:none;stroke-width:0.75"
         id="text2317-2-0-3-2-10-2-4-4"
         transform="matrix(0,1,1,0,0,0)"
         aria-label="O"><path
           id="path5156"
           style="font-style:normal;font-variant:normal;font-weight:normal;font-stretch:normal;font-size:12px;font-family:'Latin Modern Sans';-inkscape-font-specification:'Latin Modern Sans';stroke-width:0.75"
           d="m -2.9566858,443.7318 c 0,-2.52 -1.74,-4.452 -3.732,-4.452 -2.04,0 -3.7440002,1.956 -3.7440002,4.452 0,2.544 1.7760002,4.404 3.7320002,4.404 2.004,0 3.744,-1.884 3.744,-4.404 z m -1.068,-0.18 c 0,2.34 -1.296,3.804 -2.664,3.804 -1.416,0 -2.676,-1.5 -2.676,-3.804 0,-2.196 1.32,-3.504 2.664,-3.504 1.392,0 2.676,1.356 2.676,3.504 z" /></g><g
         style="font-style:normal;font-weight:normal;font-size:12px;line-height:1.25;font-family:sans-serif;letter-spacing:0px;word-spacing:0px;fill:#000000;fill-opacity:1;stroke:none;stroke-width:0.75"
         id="text2317-2-0-3-2-10-2-43-5"
         transform="matrix(0,1,1,0,0,0)"
         aria-label="O"><path
           id="path5159"
           style="font-style:normal;font-variant:normal;font-weight:normal;font-stretch:normal;font-size:12px;font-family:'Latin Modern Sans';-inkscape-font-specification:'Latin Modern Sans';stroke-width:0.75"
           d="m 18.305521,422.36259 c 0,-2.52 -1.74,-4.452 -3.732,-4.452 -2.04,0 -3.744,1.956 -3.744,4.452 0,2.544 1.776,4.404 3.732,4.404 2.004,0 3.744,-1.884 3.744,-4.404 z m -1.068,-0.18 c 0,2.34 -1.296,3.804 -2.664,3.804 -1.416,0 -2.676,-1.5 -2.676,-3.804 0,-2.196 1.32,-3.504 2.664,-3.504 1.392,0 2.676,1.356 2.676,3.504 z" /></g><g
         style="font-style:normal;font-weight:normal;font-size:12px;line-height:1.25;font-family:sans-serif;letter-spacing:0px;word-spacing:0px;fill:#000000;fill-opacity:1;stroke:none;stroke-width:0.75"
         id="text2317-2-0-3-2-10-2-78-4"
         transform="matrix(0,1,1,0,0,0)"
         aria-label="Si"><path
           id="path5162"
           style="font-style:normal;font-variant:normal;font-weight:normal;font-stretch:normal;font-size:12px;font-family:'Latin Modern Sans';-inkscape-font-specification:'Latin Modern Sans';stroke-width:0.75"
           d="m -5.290697,424.23459 c 0,-0.78 -0.372,-1.356 -0.636,-1.644 -0.564,-0.6 -0.96,-0.708 -2.064,-0.984 -0.696,-0.168 -0.888,-0.216 -1.248,-0.528 -0.084,-0.072 -0.42,-0.42 -0.42,-0.948 0,-0.708 0.648,-1.428 1.752,-1.428 1.008,0 1.584,0.396 2.028,0.768 l 0.18,-0.96 c -0.66,-0.396 -1.32,-0.6 -2.196,-0.6 -1.668,0 -2.712,1.176 -2.712,2.364 0,0.516 0.168,1.02 0.648,1.524 0.504,0.54 1.032,0.684 1.74,0.852 1.02,0.252 1.14,0.288 1.476,0.588 0.24,0.204 0.504,0.6 0.504,1.116 0,0.792 -0.66,1.584 -1.752,1.584 -0.492,0 -1.572,-0.12 -2.58,-0.972 l -0.18,0.972 c 1.056,0.66 2.016,0.828 2.772,0.828 1.584,0 2.688,-1.212 2.688,-2.532 z" /><path
           id="path5164"
           style="font-style:normal;font-variant:normal;font-weight:normal;font-stretch:normal;font-size:12px;font-family:'Latin Modern Sans';-inkscape-font-specification:'Latin Modern Sans';stroke-width:0.75"
           d="m -2.7346999,426.50259 v -5.328 h -0.9 v 5.328 z m 0.096,-6.792 v -1.068 h -1.068 v 1.068 z" /></g><g
         style="font-style:normal;font-weight:normal;font-size:12px;line-height:1.25;font-family:sans-serif;letter-spacing:0px;word-spacing:0px;fill:#000000;fill-opacity:1;stroke:none;stroke-width:0.75"
         id="text2317-2-0-3-2-10-2-43-9-7"
         transform="matrix(0,1,1,0,0,0)"
         aria-label="O"><path
           id="path5192"
           style="font-style:normal;font-variant:normal;font-weight:normal;font-stretch:normal;font-size:12px;font-family:'Latin Modern Sans';-inkscape-font-specification:'Latin Modern Sans';stroke-width:0.75"
           d="m 9.1849768,331.03993 c 0,-2.52 -1.74,-4.452 -3.732,-4.452 -2.04,0 -3.744,1.956 -3.744,4.452 0,2.544 1.776,4.404 3.732,4.404 2.004,0 3.744,-1.884 3.744,-4.404 z m -1.068,-0.18 c 0,2.34 -1.296,3.804 -2.664,3.804 -1.416,0 -2.676,-1.5 -2.676,-3.804 0,-2.196 1.32,-3.504 2.664,-3.504 1.392,0 2.676,1.356 2.676,3.504 z" /></g><path
         d="m 341.99859,36.35484 -7.38,7.38"
         style="fill:none;stroke:#000000;stroke-width:0.45;stroke-linecap:butt;stroke-linejoin:miter;stroke-miterlimit:10;stroke-dasharray:none;stroke-opacity:1"
         id="path222-2" /><path
         d="m 422.33859,42.89484 v 7.62"
         style="fill:none;stroke:#000000;stroke-width:0.45;stroke-linecap:butt;stroke-linejoin:miter;stroke-miterlimit:10;stroke-dasharray:none;stroke-opacity:1"
         id="path224-7" /><path
         d="m 422.33859,21.47484 v 7.68"
         style="fill:none;stroke:#000000;stroke-width:0.45;stroke-linecap:butt;stroke-linejoin:miter;stroke-miterlimit:10;stroke-dasharray:none;stroke-opacity:1"
         id="path226-2" /><path
         d="m 327.29859,43.73484 -7.3803,-7.38 h 22.0803 l 14.76,-14.7 14.7,14.7 14.76,-14.7 14.7,14.7 h 14.7"
         style="fill:none;stroke:#000000;stroke-width:0.45;stroke-linecap:butt;stroke-linejoin:miter;stroke-miterlimit:10;stroke-dasharray:none;stroke-opacity:1"
         id="path228-26" /><path
         d="m 437.21859,35.61545 h -7.62"
         style="fill:none;stroke:#000000;stroke-width:0.45;stroke-linecap:butt;stroke-linejoin:miter;stroke-miterlimit:10;stroke-dasharray:none;stroke-opacity:1"
         id="path230-1" /><path
         d="m 458.39859,35.61545 h -7.74"
         style="fill:none;stroke:#000000;stroke-width:0.45;stroke-linecap:butt;stroke-linejoin:miter;stroke-miterlimit:10;stroke-dasharray:none;stroke-opacity:1"
         id="path232-0" /><g
         style="font-style:normal;font-weight:normal;font-size:12px;line-height:1.25;font-family:sans-serif;letter-spacing:0px;word-spacing:0px;fill:#000000;fill-opacity:1;stroke:none;stroke-width:0.75"
         id="text2317-2-0-3-2-10-2-4-6"
         transform="matrix(0,1,1,0,0,0)"
         aria-label="O"><path
           id="path5167"
           style="font-style:normal;font-variant:normal;font-weight:normal;font-stretch:normal;font-size:12px;font-family:'Latin Modern Sans';-inkscape-font-specification:'Latin Modern Sans';stroke-width:0.75"
           d="m 39.353454,443.7318 c 0,-2.52 -1.74,-4.452 -3.732,-4.452 -2.04,0 -3.744,1.956 -3.744,4.452 0,2.544 1.776,4.404 3.732,4.404 2.004,0 3.744,-1.884 3.744,-4.404 z m -1.068,-0.18 c 0,2.34 -1.296,3.804 -2.664,3.804 -1.416,0 -2.676,-1.5 -2.676,-3.804 0,-2.196 1.32,-3.504 2.664,-3.504 1.392,0 2.676,1.356 2.676,3.504 z" /></g><g
         style="font-style:normal;font-weight:normal;font-size:12px;line-height:1.25;font-family:sans-serif;letter-spacing:0px;word-spacing:0px;fill:#000000;fill-opacity:1;stroke:none;stroke-width:0.75"
         id="text2317-2-0-3-2-10-2-43-59"
         transform="matrix(0,1,1,0,0,0)"
         aria-label="O"><path
           id="path5170"
           style="font-style:normal;font-variant:normal;font-weight:normal;font-stretch:normal;font-size:12px;font-family:'Latin Modern Sans';-inkscape-font-specification:'Latin Modern Sans';stroke-width:0.75"
           d="m 60.615663,422.36259 c 0,-2.52 -1.74,-4.452 -3.732,-4.452 -2.04,0 -3.744,1.956 -3.744,4.452 0,2.544 1.776,4.404 3.732,4.404 2.004,0 3.744,-1.884 3.744,-4.404 z m -1.068,-0.18 c 0,2.34 -1.296,3.804 -2.664,3.804 -1.416,0 -2.676,-1.5 -2.676,-3.804 0,-2.196 1.32,-3.504 2.664,-3.504 1.392,0 2.676,1.356 2.676,3.504 z" /></g><g
         style="font-style:normal;font-weight:normal;font-size:12px;line-height:1.25;font-family:sans-serif;letter-spacing:0px;word-spacing:0px;fill:#000000;fill-opacity:1;stroke:none;stroke-width:0.75"
         id="text2317-2-0-3-2-10-2-78-9"
         transform="matrix(0,1,1,0,0,0)"
         aria-label="Si"><path
           id="path5173"
           style="font-style:normal;font-variant:normal;font-weight:normal;font-stretch:normal;font-size:12px;font-family:'Latin Modern Sans';-inkscape-font-specification:'Latin Modern Sans';stroke-width:0.75"
           d="m 37.019443,424.23459 c 0,-0.78 -0.372,-1.356 -0.636,-1.644 -0.564,-0.6 -0.96,-0.708 -2.064,-0.984 -0.696,-0.168 -0.888,-0.216 -1.248,-0.528 -0.084,-0.072 -0.42,-0.42 -0.42,-0.948 0,-0.708 0.648,-1.428 1.752,-1.428 1.008,0 1.584,0.396 2.028,0.768 l 0.18,-0.96 c -0.66,-0.396 -1.32,-0.6 -2.196,-0.6 -1.668,0 -2.712,1.176 -2.712,2.364 0,0.516 0.168,1.02 0.648,1.524 0.504,0.54 1.032,0.684 1.74,0.852 1.02,0.252 1.14,0.288 1.476,0.588 0.24,0.204 0.504,0.6 0.504,1.116 0,0.792 -0.66,1.584 -1.752,1.584 -0.492,0 -1.572,-0.12 -2.58,-0.972 l -0.18,0.972 c 1.056,0.66 2.016,0.828 2.772,0.828 1.584,0 2.688,-1.212 2.688,-2.532 z" /><path
           id="path5175"
           style="font-style:normal;font-variant:normal;font-weight:normal;font-stretch:normal;font-size:12px;font-family:'Latin Modern Sans';-inkscape-font-specification:'Latin Modern Sans';stroke-width:0.75"
           d="m 39.57544,426.50259 v -5.328 h -0.9 v 5.328 z m 0.096,-6.792 v -1.068 h -1.068 v 1.068 z" /></g><g
         style="font-style:normal;font-weight:normal;font-size:12px;line-height:1.25;font-family:sans-serif;letter-spacing:0px;word-spacing:0px;fill:#000000;fill-opacity:1;stroke:none;stroke-width:0.75"
         id="text2317-2-0-3-2-10-2-43-9-9"
         transform="matrix(0,1,1,0,0,0)"
         aria-label="O"><path
           id="path5195"
           style="font-style:normal;font-variant:normal;font-weight:normal;font-stretch:normal;font-size:12px;font-family:'Latin Modern Sans';-inkscape-font-specification:'Latin Modern Sans';stroke-width:0.75"
           d="m 51.495118,331.03993 c 0,-2.52 -1.74,-4.452 -3.732,-4.452 -2.04,0 -3.744,1.956 -3.744,4.452 0,2.544 1.776,4.404 3.732,4.404 2.004,0 3.744,-1.884 3.744,-4.404 z m -1.068,-0.18 c 0,2.34 -1.296,3.804 -2.664,3.804 -1.416,0 -2.676,-1.5 -2.676,-3.804 0,-2.196 1.32,-3.504 2.664,-3.504 1.392,0 2.676,1.356 2.676,3.504 z" /></g><path
         id="path222"
         style="fill:none;stroke:#000000;stroke-width:0.45;stroke-linecap:butt;stroke-linejoin:miter;stroke-miterlimit:10;stroke-dasharray:none;stroke-opacity:1"
         d="m 341.99859,-48.26543 -7.38,7.38" /><path
         id="path224"
         style="fill:none;stroke:#000000;stroke-width:0.45;stroke-linecap:butt;stroke-linejoin:miter;stroke-miterlimit:10;stroke-dasharray:none;stroke-opacity:1"
         d="m 422.33859,-41.72543 v 7.62" /><path
         id="path226"
         style="fill:none;stroke:#000000;stroke-width:0.45;stroke-linecap:butt;stroke-linejoin:miter;stroke-miterlimit:10;stroke-dasharray:none;stroke-opacity:1"
         d="m 422.33859,-63.14543 v 7.68" /><path
         id="path228"
         style="fill:none;stroke:#000000;stroke-width:0.45;stroke-linecap:butt;stroke-linejoin:miter;stroke-miterlimit:10;stroke-dasharray:none;stroke-opacity:1"
         d="m 327.29859,-40.88543 -7.3803,-7.38 h 22.0803 l 14.76,-14.7 14.7,14.7 14.76,-14.7 14.7,14.7 h 14.7" /><path
         id="path230"
         style="fill:none;stroke:#000000;stroke-width:0.45;stroke-linecap:butt;stroke-linejoin:miter;stroke-miterlimit:10;stroke-dasharray:none;stroke-opacity:1"
         d="m 437.21859,-49.00482 h -7.62" /><path
         id="path232"
         style="fill:none;stroke:#000000;stroke-width:0.45;stroke-linecap:butt;stroke-linejoin:miter;stroke-miterlimit:10;stroke-dasharray:none;stroke-opacity:1"
         d="m 458.39859,-49.00482 h -7.74" /><g
         style="font-style:normal;font-weight:normal;font-size:12px;line-height:1.25;font-family:sans-serif;letter-spacing:0px;word-spacing:0px;fill:#000000;fill-opacity:1;stroke:none;stroke-width:0.75"
         id="text2317-2-0-3-2-10-2-4"
         transform="matrix(0,1,1,0,0,0)"
         aria-label="O"><path
           id="path5178"
           style="font-style:normal;font-variant:normal;font-weight:normal;font-stretch:normal;font-size:12px;font-family:'Latin Modern Sans';-inkscape-font-specification:'Latin Modern Sans';stroke-width:0.75"
           d="m -45.266814,443.7318 c 0,-2.52 -1.74,-4.452 -3.732,-4.452 -2.04,0 -3.744,1.956 -3.744,4.452 0,2.544 1.776,4.404 3.732,4.404 2.004,0 3.744,-1.884 3.744,-4.404 z m -1.068,-0.18 c 0,2.34 -1.296,3.804 -2.664,3.804 -1.416,0 -2.676,-1.5 -2.676,-3.804 0,-2.196 1.32,-3.504 2.664,-3.504 1.392,0 2.676,1.356 2.676,3.504 z" /></g><g
         style="font-style:normal;font-weight:normal;font-size:12px;line-height:1.25;font-family:sans-serif;letter-spacing:0px;word-spacing:0px;fill:#000000;fill-opacity:1;stroke:none;stroke-width:0.75"
         id="text2317-2-0-3-2-10-2-43"
         transform="matrix(0,1,1,0,0,0)"
         aria-label="O"><path
           id="path5181"
           style="font-style:normal;font-variant:normal;font-weight:normal;font-stretch:normal;font-size:12px;font-family:'Latin Modern Sans';-inkscape-font-specification:'Latin Modern Sans';stroke-width:0.75"
           d="m -24.004607,422.36259 c 0,-2.52 -1.74,-4.452 -3.732,-4.452 -2.04,0 -3.744,1.956 -3.744,4.452 0,2.544 1.776,4.404 3.732,4.404 2.004,0 3.744,-1.884 3.744,-4.404 z m -1.068,-0.18 c 0,2.34 -1.296,3.804 -2.664,3.804 -1.416,0 -2.676,-1.5 -2.676,-3.804 0,-2.196 1.32,-3.504 2.664,-3.504 1.392,0 2.676,1.356 2.676,3.504 z" /></g><g
         style="font-style:normal;font-weight:normal;font-size:12px;line-height:1.25;font-family:sans-serif;letter-spacing:0px;word-spacing:0px;fill:#000000;fill-opacity:1;stroke:none;stroke-width:0.75"
         id="text2317-2-0-3-2-10-2-78"
         transform="matrix(0,1,1,0,0,0)"
         aria-label="Si"><path
           id="path5184"
           style="font-style:normal;font-variant:normal;font-weight:normal;font-stretch:normal;font-size:12px;font-family:'Latin Modern Sans';-inkscape-font-specification:'Latin Modern Sans';stroke-width:0.75"
           d="m -47.600825,424.23459 c 0,-0.78 -0.372,-1.356 -0.636,-1.644 -0.564,-0.6 -0.96,-0.708 -2.064,-0.984 -0.696,-0.168 -0.888,-0.216 -1.248,-0.528 -0.084,-0.072 -0.42,-0.42 -0.42,-0.948 0,-0.708 0.648,-1.428 1.752,-1.428 1.008,0 1.584,0.396 2.028,0.768 l 0.18,-0.96 c -0.66,-0.396 -1.32,-0.6 -2.196,-0.6 -1.668,0 -2.712,1.176 -2.712,2.364 0,0.516 0.168,1.02 0.648,1.524 0.504,0.54 1.032,0.684 1.74,0.852 1.02,0.252 1.14,0.288 1.476,0.588 0.24,0.204 0.504,0.6 0.504,1.116 0,0.792 -0.66,1.584 -1.752,1.584 -0.492,0 -1.572,-0.12 -2.58,-0.972 l -0.18,0.972 c 1.056,0.66 2.016,0.828 2.772,0.828 1.584,0 2.688,-1.212 2.688,-2.532 z" /><path
           id="path5186"
           style="font-style:normal;font-variant:normal;font-weight:normal;font-stretch:normal;font-size:12px;font-family:'Latin Modern Sans';-inkscape-font-specification:'Latin Modern Sans';stroke-width:0.75"
           d="m -45.044828,426.50259 v -5.328 h -0.9 v 5.328 z m 0.096,-6.792 v -1.068 h -1.068 v 1.068 z" /></g><g
         style="font-style:normal;font-weight:normal;font-size:12px;line-height:1.25;font-family:sans-serif;letter-spacing:0px;word-spacing:0px;fill:#000000;fill-opacity:1;stroke:none;stroke-width:0.75"
         id="text2317-2-0-3-2-10-2-43-9"
         transform="matrix(0,1,1,0,0,0)"
         aria-label="O"><path
           id="path5198"
           style="font-style:normal;font-variant:normal;font-weight:normal;font-stretch:normal;font-size:12px;font-family:'Latin Modern Sans';-inkscape-font-specification:'Latin Modern Sans';stroke-width:0.75"
           d="m -33.125151,331.03993 c 0,-2.52 -1.74,-4.452 -3.732,-4.452 -2.04,0 -3.744,1.956 -3.744,4.452 0,2.544 1.776,4.404 3.732,4.404 2.004,0 3.744,-1.884 3.744,-4.404 z m -1.068,-0.18 c 0,2.34 -1.296,3.804 -2.664,3.804 -1.416,0 -2.676,-1.5 -2.676,-3.804 0,-2.196 1.32,-3.504 2.664,-3.504 1.392,0 2.676,1.356 2.676,3.504 z" /></g><g
         style="font-style:normal;font-weight:normal;font-size:12px;line-height:1.25;font-family:sans-serif;letter-spacing:0px;word-spacing:0px;fill:#000000;fill-opacity:1;stroke:none;stroke-width:0.75"
         id="text2317-2-0-3-2-10-2-43-54"
         transform="matrix(0,1,1,0,0,0)"
         aria-label="O"><path
           id="path5189"
           style="font-style:normal;font-variant:normal;font-weight:normal;font-stretch:normal;font-size:12px;font-family:'Latin Modern Sans';-inkscape-font-specification:'Latin Modern Sans';stroke-width:0.75"
           d="m -65.346835,422.36259 c 0,-2.52 -1.74,-4.452 -3.732,-4.452 -2.04,0 -3.744,1.956 -3.744,4.452 0,2.544 1.776,4.404 3.732,4.404 2.004,0 3.744,-1.884 3.744,-4.404 z m -1.068,-0.18 c 0,2.34 -1.296,3.804 -2.664,3.804 -1.416,0 -2.676,-1.5 -2.676,-3.804 0,-2.196 1.32,-3.504 2.664,-3.504 1.392,0 2.676,1.356 2.676,3.504 z" /></g><path
         style="fill:none;stroke:none;stroke-width:0.75px;stroke-linecap:butt;stroke-linejoin:miter;stroke-opacity:1"
         d="M 506.78868,-43.285889 V -1.5707033"
         id="path4606-9-4" /></g></g></svg>
