<?xml version="1.0" encoding="UTF-8" standalone="no"?>
<svg
   xmlns:dc="http://purl.org/dc/elements/1.1/"
   xmlns:cc="http://creativecommons.org/ns#"
   xmlns:rdf="http://www.w3.org/1999/02/22-rdf-syntax-ns#"
   xmlns:svg="http://www.w3.org/2000/svg"
   xmlns="http://www.w3.org/2000/svg"
   xmlns:sodipodi="http://sodipodi.sourceforge.net/DTD/sodipodi-0.dtd"
   xmlns:inkscape="http://www.inkscape.org/namespaces/inkscape"
   version="1.1"
   id="svg2"
   xml:space="preserve"
   width="340.24734"
   height="130.08795"
   viewBox="0 0 340.24734 130.08795"
   sodipodi:docname="Biochips_silane.svg"
   inkscape:version="1.0 (4035a4fb49, 2020-05-01)"><metadata
     id="metadata8"><rdf:RDF><cc:Work
         rdf:about=""><dc:format>image/svg+xml</dc:format><dc:type
           rdf:resource="http://purl.org/dc/dcmitype/StillImage" /><dc:title></dc:title></cc:Work></rdf:RDF></metadata><defs
     id="defs6"><clipPath
       clipPathUnits="userSpaceOnUse"
       id="clipPath104"><path
         d="m 2293.23,6392.51 v -540 h 1470 v 540 z"
         id="path102" /></clipPath></defs><sodipodi:namedview
     fit-margin-bottom="5"
     fit-margin-right="5"
     fit-margin-left="5"
     fit-margin-top="5"
     inkscape:document-rotation="0"
     pagecolor="#ffffff"
     bordercolor="#666666"
     borderopacity="1"
     objecttolerance="10"
     gridtolerance="10"
     guidetolerance="10"
     inkscape:pageopacity="0"
     inkscape:pageshadow="2"
     inkscape:window-width="1920"
     inkscape:window-height="1015"
     id="namedview4"
     showgrid="false"
     inkscape:zoom="1.0289025"
     inkscape:cx="243.529"
     inkscape:cy="215.7098"
     inkscape:window-x="0"
     inkscape:window-y="0"
     inkscape:window-maximized="1"
     inkscape:current-layer="g10" /><g
     id="g10"
     inkscape:groupmode="layer"
     inkscape:label="rapport"
     transform="matrix(1.3333333,0,0,-1.3333333,-164.471,899.2153)"><g
       id="g1441"><g
         id="g1303"
         transform="matrix(1.7394239,0,0,1.7394239,-276.21032,-435.95834)"><path
           id="path106"
           style="fill:none;stroke:#000000;stroke-width:0.45;stroke-linecap:butt;stroke-linejoin:miter;stroke-miterlimit:10;stroke-dasharray:none;stroke-opacity:1"
           d="m 274.323,607.751 9,-9 18,18 18,-18 18,18 18,-18 18,18 v -22.5" /><path
           id="path108"
           style="fill:none;stroke:#000000;stroke-width:0.45;stroke-linecap:butt;stroke-linejoin:miter;stroke-miterlimit:10;stroke-dasharray:none;stroke-opacity:1"
           d="m 355.323,598.751 9,-9" /><path
           id="path110"
           style="fill:none;stroke:#000000;stroke-width:0.45;stroke-linecap:butt;stroke-linejoin:miter;stroke-miterlimit:10;stroke-dasharray:none;stroke-opacity:1"
           d="m 260.823,607.751 -9,-4.5" /><path
           id="path112"
           style="fill:none;stroke:#000000;stroke-width:0.45;stroke-linecap:butt;stroke-linejoin:miter;stroke-miterlimit:10;stroke-dasharray:none;stroke-opacity:1"
           d="m 265.323,606.311 -4.5,-7.56" /><path
           id="path114"
           style="fill:none;stroke:#000000;stroke-width:0.45;stroke-linecap:butt;stroke-linejoin:miter;stroke-miterlimit:10;stroke-dasharray:none;stroke-opacity:1"
           d="m 269.823,625.751 v -9" /></g><g
         aria-label="OEt"
         transform="scale(1,-1)"
         id="text1296-3"
         style="font-style:normal;font-variant:normal;font-weight:normal;font-stretch:normal;font-size:20px;line-height:1.25;font-family:'Latin Modern Sans';-inkscape-font-specification:'Latin Modern Sans';letter-spacing:0px;word-spacing:0px;fill:#000000;fill-opacity:1;stroke:none;stroke-width:0.75"><path
           d="m 199.43953,-663.24149 c 0,-4.2 -2.9,-7.42 -6.22,-7.42 -3.4,0 -6.24,3.26 -6.24,7.42 0,4.24 2.96,7.34 6.22,7.34 3.34,0 6.24,-3.14 6.24,-7.34 z m -1.78,-0.3 c 0,3.9 -2.16,6.34 -4.44,6.34 -2.36,0 -4.46,-2.5 -4.46,-6.34 0,-3.66 2.2,-5.84 4.44,-5.84 2.32,0 4.46,2.26 4.46,5.84 z"
           style="font-style:normal;font-variant:normal;font-weight:normal;font-stretch:normal;font-size:20px;font-family:'Latin Modern Sans';-inkscape-font-specification:'Latin Modern Sans';stroke-width:0.75"
           id="path1403" /><path
           d="m 211.65949,-656.34149 v -1.42 h -2.52 c -0.24,0 -0.48,0.02 -0.72,0.02 h -4.18 v -5.18 h 6.6 v -1.22 h -6.6 v -4.74 h 2.76 c 0.24,0 0.48,0.02 0.72,0.02 h 3.66 v -1.3 h -8.92 v 13.82 z"
           style="font-style:normal;font-variant:normal;font-weight:normal;font-stretch:normal;font-size:20px;font-family:'Latin Modern Sans';-inkscape-font-specification:'Latin Modern Sans';stroke-width:0.75"
           id="path1405" /><path
           d="m 219.15945,-656.88149 -0.32,-1.18 c -0.52,0.42 -1.16,0.66 -1.8,0.66 -0.74,0 -1.02,-0.6 -1.02,-1.66 v -5 h 2.82 v -1.16 h -2.82 v -2.54 h -1.38 v 2.54 h -1.74 v 1.16 h 1.68 v 5.34 c 0,1.2 0.28,2.6 1.66,2.6 1.4,0 2.42,-0.5 2.92,-0.76 z"
           style="font-style:normal;font-variant:normal;font-weight:normal;font-stretch:normal;font-size:20px;font-family:'Latin Modern Sans';-inkscape-font-specification:'Latin Modern Sans';stroke-width:0.75"
           id="path1407" /></g><g
         aria-label="Si"
         transform="scale(1,-1)"
         id="text1296-7"
         style="font-style:normal;font-variant:normal;font-weight:normal;font-stretch:normal;font-size:20px;line-height:1.25;font-family:'Latin Modern Sans';-inkscape-font-specification:'Latin Modern Sans';letter-spacing:0px;word-spacing:0px;fill:#000000;fill-opacity:1;stroke:none;stroke-width:0.75"><path
           d="m 191.32926,-624.62772 c 0,-1.3 -0.62,-2.26 -1.06,-2.74 -0.94,-1 -1.6,-1.18 -3.44,-1.64 -1.16,-0.28 -1.48,-0.36 -2.08,-0.88 -0.14,-0.12 -0.7,-0.7 -0.7,-1.58 0,-1.18 1.08,-2.38 2.92,-2.38 1.68,0 2.64,0.66 3.38,1.28 l 0.3,-1.6 c -1.1,-0.66 -2.2,-1 -3.66,-1 -2.78,0 -4.52,1.96 -4.52,3.94 0,0.86 0.28,1.7 1.08,2.54 0.84,0.9 1.72,1.14 2.9,1.42 1.7,0.42 1.9,0.48 2.46,0.98 0.4,0.34 0.84,1 0.84,1.86 0,1.32 -1.1,2.64 -2.92,2.64 -0.82,0 -2.62,-0.2 -4.3,-1.62 l -0.3,1.62 c 1.76,1.1 3.36,1.38 4.62,1.38 2.64,0 4.48,-2.02 4.48,-4.22 z"
           style="font-style:normal;font-variant:normal;font-weight:normal;font-stretch:normal;font-size:20px;font-family:'Latin Modern Sans';-inkscape-font-specification:'Latin Modern Sans';stroke-width:0.75"
           id="path1410" /><path
           d="m 195.58925,-620.84772 v -8.88 h -1.5 v 8.88 z m 0.16,-11.32 v -1.78 h -1.78 v 1.78 z"
           style="font-style:normal;font-variant:normal;font-weight:normal;font-stretch:normal;font-size:20px;font-family:'Latin Modern Sans';-inkscape-font-specification:'Latin Modern Sans';stroke-width:0.75"
           id="path1412" /></g><g
         aria-label="O"
         transform="scale(1,-1)"
         id="text1296-3-3"
         style="font-style:normal;font-variant:normal;font-weight:normal;font-stretch:normal;font-size:20px;line-height:1.25;font-family:'Latin Modern Sans';-inkscape-font-specification:'Latin Modern Sans';letter-spacing:0px;word-spacing:0px;fill:#000000;fill-opacity:1;stroke:none;stroke-width:0.75"><path
           d="m 374.78877,-587.93552 c 0,-4.2 -2.9,-7.42 -6.22,-7.42 -3.4,0 -6.24,3.26 -6.24,7.42 0,4.24 2.96,7.34 6.22,7.34 3.34,0 6.24,-3.14 6.24,-7.34 z m -1.78,-0.3 c 0,3.9 -2.16,6.34 -4.44,6.34 -2.36,0 -4.46,-2.5 -4.46,-6.34 0,-3.66 2.2,-5.84 4.44,-5.84 2.32,0 4.46,2.26 4.46,5.84 z"
           style="font-style:normal;font-variant:normal;font-weight:normal;font-stretch:normal;font-size:20px;font-family:'Latin Modern Sans';-inkscape-font-specification:'Latin Modern Sans';stroke-width:0.75"
           id="path1415" /></g><g
         aria-label="EtO"
         transform="scale(1,-1)"
         id="text1296-3-6"
         style="font-style:normal;font-variant:normal;font-weight:normal;font-stretch:normal;font-size:20px;line-height:1.25;font-family:'Latin Modern Sans';-inkscape-font-specification:'Latin Modern Sans';letter-spacing:0px;word-spacing:0px;fill:#000000;fill-opacity:1;stroke:none;stroke-width:0.75"><path
           d="m 162.00009,-588.72736 v -1.42 h -2.52 c -0.24,0 -0.48,0.02 -0.72,0.02 h -4.18 v -5.18 h 6.6 v -1.22 h -6.6 v -4.74 h 2.76 c 0.24,0 0.48,0.02 0.72,0.02 h 3.66 v -1.3 h -8.92 v 13.82 z"
           style="font-style:normal;font-variant:normal;font-weight:normal;font-stretch:normal;font-size:20px;font-family:'Latin Modern Sans';-inkscape-font-specification:'Latin Modern Sans';stroke-width:0.75"
           id="path1396" /><path
           d="m 169.50005,-589.26736 -0.32,-1.18 c -0.52,0.42 -1.16,0.66 -1.8,0.66 -0.74,0 -1.02,-0.6 -1.02,-1.66 v -5 h 2.82 v -1.16 h -2.82 v -2.54 h -1.38 v 2.54 h -1.74 v 1.16 h 1.68 v 5.34 c 0,1.2 0.28,2.6 1.66,2.6 1.4,0 2.42,-0.5 2.92,-0.76 z"
           style="font-style:normal;font-variant:normal;font-weight:normal;font-stretch:normal;font-size:20px;font-family:'Latin Modern Sans';-inkscape-font-specification:'Latin Modern Sans';stroke-width:0.75"
           id="path1398" /><path
           d="m 183.66002,-595.62736 c 0,-4.2 -2.9,-7.42 -6.22,-7.42 -3.4,0 -6.24,3.26 -6.24,7.42 0,4.24 2.96,7.34 6.22,7.34 3.34,0 6.24,-3.14 6.24,-7.34 z m -1.78,-0.3 c 0,3.9 -2.16,6.34 -4.44,6.34 -2.36,0 -4.46,-2.5 -4.46,-6.34 0,-3.66 2.2,-5.84 4.44,-5.84 2.32,0 4.46,2.26 4.46,5.84 z"
           style="font-style:normal;font-variant:normal;font-weight:normal;font-stretch:normal;font-size:20px;font-family:'Latin Modern Sans';-inkscape-font-specification:'Latin Modern Sans';stroke-width:0.75"
           id="path1400" /></g><g
         aria-label="EtO"
         transform="scale(1,-1)"
         id="text1296-3-6-9"
         style="font-style:normal;font-variant:normal;font-weight:normal;font-stretch:normal;font-size:20px;line-height:1.25;font-family:'Latin Modern Sans';-inkscape-font-specification:'Latin Modern Sans';letter-spacing:0px;word-spacing:0px;fill:#000000;fill-opacity:1;stroke:none;stroke-width:0.75"><path
           d="m 136.30325,-606.60907 v -1.42 h -2.52 c -0.24,0 -0.48,0.02 -0.72,0.02 h -4.18 v -5.18 h 6.6 v -1.22 h -6.6 v -4.74 h 2.76 c 0.24,0 0.48,0.02 0.72,0.02 h 3.66 v -1.3 h -8.92 v 13.82 z"
           style="font-style:normal;font-variant:normal;font-weight:normal;font-stretch:normal;font-size:20px;font-family:'Latin Modern Sans';-inkscape-font-specification:'Latin Modern Sans';stroke-width:0.75"
           id="path1389" /><path
           d="m 143.80322,-607.14907 -0.32,-1.18 c -0.52,0.42 -1.16,0.66 -1.8,0.66 -0.74,0 -1.02,-0.6 -1.02,-1.66 v -5 h 2.82 v -1.16 h -2.82 v -2.54 h -1.38 v 2.54 h -1.74 v 1.16 h 1.68 v 5.34 c 0,1.2 0.28,2.6 1.66,2.6 1.4,0 2.42,-0.5 2.92,-0.76 z"
           style="font-style:normal;font-variant:normal;font-weight:normal;font-stretch:normal;font-size:20px;font-family:'Latin Modern Sans';-inkscape-font-specification:'Latin Modern Sans';stroke-width:0.75"
           id="path1391" /><path
           d="m 157.96318,-613.50907 c 0,-4.2 -2.9,-7.42 -6.22,-7.42 -3.4,0 -6.24,3.26 -6.24,7.42 0,4.24 2.96,7.34 6.22,7.34 3.34,0 6.24,-3.14 6.24,-7.34 z m -1.78,-0.3 c 0,3.9 -2.16,6.34 -4.44,6.34 -2.36,0 -4.46,-2.5 -4.46,-6.34 0,-3.66 2.2,-5.84 4.44,-5.84 2.32,0 4.46,2.26 4.46,5.84 z"
           style="font-style:normal;font-variant:normal;font-weight:normal;font-stretch:normal;font-size:20px;font-family:'Latin Modern Sans';-inkscape-font-specification:'Latin Modern Sans';stroke-width:0.75"
           id="path1393" /></g></g></g></svg>
