<?xml version="1.0" encoding="UTF-8" standalone="no"?>
<svg
   xmlns:dc="http://purl.org/dc/elements/1.1/"
   xmlns:cc="http://creativecommons.org/ns#"
   xmlns:rdf="http://www.w3.org/1999/02/22-rdf-syntax-ns#"
   xmlns:svg="http://www.w3.org/2000/svg"
   xmlns="http://www.w3.org/2000/svg"
   xmlns:sodipodi="http://sodipodi.sourceforge.net/DTD/sodipodi-0.dtd"
   xmlns:inkscape="http://www.inkscape.org/namespaces/inkscape"
   version="1.1"
   id="svg2"
   xml:space="preserve"
   width="248.35219"
   height="197.39764"
   viewBox="0 0 248.35219 197.39764"
   sodipodi:docname="Biochips_vapor_phase.svg"
   inkscape:version="1.0 (4035a4fb49, 2020-05-01)"><metadata
     id="metadata8"><rdf:RDF><cc:Work
         rdf:about=""><dc:format>image/svg+xml</dc:format><dc:type
           rdf:resource="http://purl.org/dc/dcmitype/StillImage" /><dc:title></dc:title></cc:Work></rdf:RDF></metadata><defs
     id="defs6"><clipPath
       clipPathUnits="userSpaceOnUse"
       id="clipPath180"><path
         d="m 2311.37,3586.64 v -1350 h 1430 v 1350 z"
         id="path178" /></clipPath><clipPath
       clipPathUnits="userSpaceOnUse"
       id="clipPath200"><path
         d="m 2311.37,3586.64 v -1350 h 1430 v 1350 z m 637,-1162.6 -16.2,-32.4 76.8,-38.4 -52.2,46.2 68.4,-13.8 z"
         clip-rule="evenodd"
         id="path198" /></clipPath><clipPath
       clipPathUnits="userSpaceOnUse"
       id="clipPath210"><path
         d="m 2311.37,3586.64 v -1350 h 1430 v 1350 z"
         id="path208" /></clipPath></defs><sodipodi:namedview
     fit-margin-bottom="5"
     fit-margin-right="5"
     fit-margin-left="5"
     fit-margin-top="5"
     inkscape:document-rotation="0"
     pagecolor="#ffffff"
     bordercolor="#666666"
     borderopacity="1"
     objecttolerance="10"
     gridtolerance="10"
     guidetolerance="10"
     inkscape:pageopacity="0"
     inkscape:pageshadow="2"
     inkscape:window-width="1920"
     inkscape:window-height="1015"
     id="namedview4"
     showgrid="false"
     inkscape:zoom="2.7115869"
     inkscape:cx="104.18401"
     inkscape:cy="86.215012"
     inkscape:window-x="0"
     inkscape:window-y="0"
     inkscape:window-maximized="1"
     inkscape:current-layer="g10" /><g
     id="g10"
     inkscape:groupmode="layer"
     inkscape:label="rapport"
     transform="matrix(1.3333333,0,0,-1.3333333,-303.81599,481.78532)"><g
       id="g1471"><path
         d="m 242.157,357.364 v 0 c -3.479,0 -6.3,-2.821 -6.3,-6.3 v -104.4 c 0,-3.48 2.821,-6.3 6.3,-6.3 h 100.8 c 3.479,0 6.3,2.82 6.3,6.3 v 104.4 c 0,3.479 -2.821,6.3 -6.3,6.3"
         style="fill:#b3b3b3;fill-opacity:1;fill-rule:evenodd;stroke:none;stroke-width:0.1"
         id="path182" /><path
         d="m 242.157,357.364 v 0 c -3.479,0 -6.3,-2.821 -6.3,-6.3 v -104.4 c 0,-3.48 2.821,-6.3 6.3,-6.3 h 100.8 c 3.479,0 6.3,2.82 6.3,6.3 v 104.4 c 0,3.479 -2.821,6.3 -6.3,6.3 z"
         style="fill:none;stroke:#000000;stroke-width:0.45;stroke-linecap:butt;stroke-linejoin:miter;stroke-miterlimit:10;stroke-dasharray:none;stroke-opacity:1"
         id="path184" /><path
         d="m 347.217,334.864 -16.38,-94.5"
         style="fill:none;stroke:#0000d1;stroke-width:1.8;stroke-linecap:butt;stroke-linejoin:miter;stroke-miterlimit:10;stroke-dasharray:none;stroke-opacity:1"
         id="path186" /><path
         d="m 237.957,334.864 16.38,-94.5"
         style="fill:none;stroke:#0000d1;stroke-width:1.8;stroke-linecap:butt;stroke-linejoin:miter;stroke-miterlimit:10;stroke-dasharray:none;stroke-opacity:1"
         id="path188" /><path
         d="m 292.137,258.364 v 0 c -3.479,0 -6.3,-2.821 -6.3,-6.3 v -5.4 c 0,-3.48 2.821,-6.3 6.3,-6.3 h 5.4 c 3.479,0 6.3,2.82 6.3,6.3 v 5.4 c 0,3.479 -2.821,6.3 -6.3,6.3 z"
         style="fill:none;stroke:#000000;stroke-width:0.45;stroke-linecap:butt;stroke-linejoin:miter;stroke-miterlimit:10;stroke-dasharray:none;stroke-opacity:1"
         id="path190" /><path
         d="m 285.837,244.864 h 18"
         style="fill:none;stroke:#000000;stroke-width:0.45;stroke-linecap:butt;stroke-linejoin:miter;stroke-miterlimit:10;stroke-dasharray:none;stroke-opacity:1"
         id="path192" /><path
         d="m 312.837,231.364 -18,9"
         style="fill:none;stroke:#000000;stroke-width:0.45;stroke-linecap:butt;stroke-linejoin:miter;stroke-miterlimit:10;stroke-dasharray:none;stroke-opacity:1"
         id="path202" /><path
         d="m 302.517,238.564 -6.84,1.38 5.22,-4.62 -0.42,2.22 2.04,1.02"
         style="fill:#000000;fill-opacity:1;fill-rule:evenodd;stroke:none;stroke-width:0.1"
         id="path212" /><path
         d="m 302.517,238.564 -6.84,1.38 5.22,-4.62 -0.42,2.22 z"
         style="fill:none;stroke:#000000;stroke-width:0.45;stroke-linecap:butt;stroke-linejoin:miter;stroke-miterlimit:10;stroke-dasharray:none;stroke-opacity:1"
         id="path214" /><path
         d="m 238.137,357.364 v 0 c -3.479,0 -6.3,-2.821 -6.3,-6.3 v -5.4 c 0,-3.48 2.821,-6.3 6.3,-6.3 h 108.9 c 3.479,0 6.3,2.82 6.3,6.3 v 5.4 c 0,3.479 -2.821,6.3 -6.3,6.3"
         style="fill:#ffffff;fill-opacity:1;fill-rule:evenodd;stroke:none;stroke-width:0.1"
         id="path216" /><path
         d="m 238.137,357.364 v 0 c -3.479,0 -6.3,-2.821 -6.3,-6.3 v -5.4 c 0,-3.48 2.821,-6.3 6.3,-6.3 h 108.9 c 3.479,0 6.3,2.82 6.3,6.3 v 5.4 c 0,3.479 -2.821,6.3 -6.3,6.3 z"
         style="fill:none;stroke:#000000;stroke-width:0.45;stroke-linecap:butt;stroke-linejoin:miter;stroke-miterlimit:10;stroke-dasharray:none;stroke-opacity:1"
         id="path218" /><path
         d="m 281.337,253.864 h 27 v 9 h -27 z"
         style="fill:#b3b3b3;fill-opacity:1;fill-rule:evenodd;stroke:none;stroke-width:0.1"
         id="path220" /><g
         aria-label="liquid silane"
         transform="scale(1,-1)"
         id="text1314"
         style="font-style:normal;font-weight:normal;font-size:20px;line-height:1.25;font-family:sans-serif;letter-spacing:0px;word-spacing:0px;fill:#000000;fill-opacity:1;stroke:none;stroke-width:0.75"><path
           d="m 316.01651,-220.92076 v -13.88 h -1.5 v 13.88 z"
           style="font-style:normal;font-variant:normal;font-weight:normal;font-stretch:normal;font-size:20px;font-family:'Latin Modern Sans';-inkscape-font-specification:'Latin Modern Sans';stroke-width:0.75"
           id="path1386" /><path
           d="m 320.79648,-220.92076 v -8.88 h -1.5 v 8.88 z m 0.16,-11.32 v -1.78 h -1.78 v 1.78 z"
           style="font-style:normal;font-variant:normal;font-weight:normal;font-stretch:normal;font-size:20px;font-family:'Latin Modern Sans';-inkscape-font-specification:'Latin Modern Sans';stroke-width:0.75"
           id="path1388" /><path
           d="m 331.13645,-217.04076 v -12.98 h -1.5 v 1.36 c -0.2,-0.26 -1.18,-1.36 -2.74,-1.36 -2,0 -3.72,1.98 -3.72,4.68 0,2.54 1.46,4.64 3.38,4.64 1.12,0 2.18,-0.46 3.02,-1.22 v 4.88 z m -1.5,-6.68 c 0,0.36 0,0.4 -0.2,0.66 -0.52,0.8 -1.26,1.14 -1.98,1.14 -1.52,0 -2.72,-1.56 -2.72,-3.42 0,-2.04 1.44,-3.4 2.9,-3.4 1.38,0 2,1.42 2,2.22 z"
           style="font-style:normal;font-variant:normal;font-weight:normal;font-stretch:normal;font-size:20px;font-family:'Latin Modern Sans';-inkscape-font-specification:'Latin Modern Sans';stroke-width:0.75"
           id="path1390" /><path
           d="m 341.49642,-220.92076 v -8.88 h -1.56 v 5.8 c 0,1.5 -1.12,2.2 -2.4,2.2 -1.42,0 -1.56,-0.52 -1.56,-1.38 v -6.62 h -1.56 v 6.7 c 0,1.44 0.46,2.4 2.12,2.4 1.06,0 2.48,-0.32 3.46,-1.18 v 0.96 z"
           style="font-style:normal;font-variant:normal;font-weight:normal;font-stretch:normal;font-size:20px;font-family:'Latin Modern Sans';-inkscape-font-specification:'Latin Modern Sans';stroke-width:0.75"
           id="path1392" /><path
           d="m 346.25638,-220.92076 v -8.88 h -1.5 v 8.88 z m 0.16,-11.32 v -1.78 h -1.78 v 1.78 z"
           style="font-style:normal;font-variant:normal;font-weight:normal;font-stretch:normal;font-size:20px;font-family:'Latin Modern Sans';-inkscape-font-specification:'Latin Modern Sans';stroke-width:0.75"
           id="path1394" /><path
           d="m 356.59635,-220.92076 v -13.88 h -1.5 v 5.88 c -1.06,-0.88 -2.18,-1.1 -2.92,-1.1 -1.98,0 -3.54,2.08 -3.54,4.66 0,2.62 1.54,4.66 3.44,4.66 0.66,0 1.84,-0.18 2.96,-1.26 v 1.04 z m -1.56,-2.78 c 0,0.28 -0.02,0.64 -0.66,1.22 -0.46,0.4 -0.96,0.56 -1.48,0.56 -1.24,0 -2.7,-0.94 -2.7,-3.42 0,-2.64 1.72,-3.46 2.9,-3.46 0.9,0 1.5,0.46 1.94,1.1 z"
           style="font-style:normal;font-variant:normal;font-weight:normal;font-stretch:normal;font-size:20px;font-family:'Latin Modern Sans';-inkscape-font-specification:'Latin Modern Sans';stroke-width:0.75"
           id="path1396" /><path
           d="m 372.11628,-223.48076 c 0,-1.1 -0.74,-1.78 -0.78,-1.84 -0.78,-0.7 -1.32,-0.82 -2.32,-1 -1.1,-0.22 -2.02,-0.42 -2.02,-1.4 0,-1.24 1.44,-1.24 1.7,-1.24 0.64,0 1.7,0.08 2.84,0.76 l 0.24,-1.3 c -1.04,-0.48 -1.86,-0.64 -2.88,-0.64 -0.5,0 -3.32,0 -3.32,2.62 0,0.98 0.58,1.62 1.08,2 0.62,0.44 1.06,0.52 2.16,0.74 0.72,0.14 1.88,0.38 1.88,1.44 0,1.38 -1.58,1.38 -1.88,1.38 -1.62,0 -2.74,-0.74 -3.1,-0.98 l -0.24,1.36 c 0.64,0.32 1.74,0.88 3.36,0.88 0.36,0 1.46,0 2.32,-0.64 0.62,-0.48 0.96,-1.28 0.96,-2.14 z"
           style="font-style:normal;font-variant:normal;font-weight:normal;font-stretch:normal;font-size:20px;font-family:'Latin Modern Sans';-inkscape-font-specification:'Latin Modern Sans';stroke-width:0.75"
           id="path1398" /><path
           d="m 375.69627,-220.92076 v -8.88 h -1.5 v 8.88 z m 0.16,-11.32 v -1.78 h -1.78 v 1.78 z"
           style="font-style:normal;font-variant:normal;font-weight:normal;font-stretch:normal;font-size:20px;font-family:'Latin Modern Sans';-inkscape-font-specification:'Latin Modern Sans';stroke-width:0.75"
           id="path1400" /><path
           d="m 380.47624,-220.92076 v -13.88 h -1.5 v 13.88 z"
           style="font-style:normal;font-variant:normal;font-weight:normal;font-stretch:normal;font-size:20px;font-family:'Latin Modern Sans';-inkscape-font-specification:'Latin Modern Sans';stroke-width:0.75"
           id="path1402" /><path
           d="m 390.31621,-220.92076 v -5.78 c 0,-2.04 -1.46,-3.44 -3.3,-3.44 -1.3,0 -2.2,0.32 -3.14,0.86 l 0.12,1.32 c 1.04,-0.74 2.04,-1 3.02,-1 0.94,0 1.74,0.8 1.74,2.28 v 0.86 c -3,0.04 -5.54,0.88 -5.54,2.64 0,0.86 0.54,2.48 2.28,2.48 0.28,0 2.16,-0.04 3.32,-0.94 v 0.72 z m -1.56,-2.64 c 0,0.38 0,0.88 -0.68,1.26 -0.58,0.36 -1.34,0.38 -1.56,0.38 -0.96,0 -1.86,-0.46 -1.86,-1.3 0,-1.4 3.24,-1.54 4.1,-1.58 z"
           style="font-style:normal;font-variant:normal;font-weight:normal;font-stretch:normal;font-size:20px;font-family:'Latin Modern Sans';-inkscape-font-specification:'Latin Modern Sans';stroke-width:0.75"
           id="path1404" /><path
           d="m 400.45619,-220.92076 v -5.96 c 0,-1.32 -0.3,-3.14 -2.74,-3.14 -1.8,0 -2.78,1.36 -2.9,1.52 v -1.42 h -1.44 v 9 h 1.56 v -4.9 c 0,-1.32 0.5,-2.98 2.02,-2.98 1.92,0 1.94,1.42 1.94,2.06 v 5.82 z"
           style="font-style:normal;font-variant:normal;font-weight:normal;font-stretch:normal;font-size:20px;font-family:'Latin Modern Sans';-inkscape-font-specification:'Latin Modern Sans';stroke-width:0.75"
           id="path1406" /><path
           d="m 410.37615,-225.30076 c 0,-0.68 -0.02,-2.18 -0.8,-3.38 -0.82,-1.24 -2.04,-1.46 -2.76,-1.46 -2.22,0 -4.02,2.12 -4.02,4.7 0,2.64 1.92,4.74 4.32,4.74 1.26,0 2.4,-0.48 3.18,-1.04 l -0.12,-1.3 c -1.26,1.04 -2.58,1.12 -3.04,1.12 -1.6,0 -2.88,-1.42 -2.94,-3.38 z m -1.14,-1.1 h -4.94 c 0.32,-1.52 1.38,-2.52 2.52,-2.52 1.04,0 2.16,0.68 2.42,2.52 z"
           style="font-style:normal;font-variant:normal;font-weight:normal;font-stretch:normal;font-size:20px;font-family:'Latin Modern Sans';-inkscape-font-specification:'Latin Modern Sans';stroke-width:0.75"
           id="path1408" /></g><g
         aria-label="silane
vapor"
         transform="scale(1,-1)"
         id="text1314-3"
         style="font-style:normal;font-weight:normal;font-size:20px;line-height:0.85;font-family:sans-serif;text-align:center;letter-spacing:0px;word-spacing:0px;text-anchor:middle;fill:#000000;fill-opacity:1;stroke:none;stroke-width:0.75"><path
           d="m 276.73707,-305.42697 c 0,-1.1 -0.74,-1.78 -0.78,-1.84 -0.78,-0.7 -1.32,-0.82 -2.32,-1 -1.1,-0.22 -2.02,-0.42 -2.02,-1.4 0,-1.24 1.44,-1.24 1.7,-1.24 0.64,0 1.7,0.08 2.84,0.76 l 0.24,-1.3 c -1.04,-0.48 -1.86,-0.64 -2.88,-0.64 -0.5,0 -3.32,0 -3.32,2.62 0,0.98 0.58,1.62 1.08,2 0.62,0.44 1.06,0.52 2.16,0.74 0.72,0.14 1.88,0.38 1.88,1.44 0,1.38 -1.58,1.38 -1.88,1.38 -1.62,0 -2.74,-0.74 -3.1,-0.98 l -0.24,1.36 c 0.64,0.32 1.74,0.88 3.36,0.88 0.36,0 1.46,0 2.32,-0.64 0.62,-0.48 0.96,-1.28 0.96,-2.14 z"
           style="font-style:normal;font-variant:normal;font-weight:normal;font-stretch:normal;font-size:20px;font-family:'Latin Modern Sans';-inkscape-font-specification:'Latin Modern Sans';text-align:center;text-anchor:middle;stroke-width:0.75"
           id="path1411" /><path
           d="m 280.31706,-302.86697 v -8.88 h -1.5 v 8.88 z m 0.16,-11.32 v -1.78 h -1.78 v 1.78 z"
           style="font-style:normal;font-variant:normal;font-weight:normal;font-stretch:normal;font-size:20px;font-family:'Latin Modern Sans';-inkscape-font-specification:'Latin Modern Sans';text-align:center;text-anchor:middle;stroke-width:0.75"
           id="path1413" /><path
           d="m 285.09702,-302.86697 v -13.88 h -1.5 v 13.88 z"
           style="font-style:normal;font-variant:normal;font-weight:normal;font-stretch:normal;font-size:20px;font-family:'Latin Modern Sans';-inkscape-font-specification:'Latin Modern Sans';text-align:center;text-anchor:middle;stroke-width:0.75"
           id="path1415" /><path
           d="m 294.93699,-302.86697 v -5.78 c 0,-2.04 -1.46,-3.44 -3.3,-3.44 -1.3,0 -2.2,0.32 -3.14,0.86 l 0.12,1.32 c 1.04,-0.74 2.04,-1 3.02,-1 0.94,0 1.74,0.8 1.74,2.28 v 0.86 c -3,0.04 -5.54,0.88 -5.54,2.64 0,0.86 0.54,2.48 2.28,2.48 0.28,0 2.16,-0.04 3.32,-0.94 v 0.72 z m -1.56,-2.64 c 0,0.38 0,0.88 -0.68,1.26 -0.58,0.36 -1.34,0.38 -1.56,0.38 -0.96,0 -1.86,-0.46 -1.86,-1.3 0,-1.4 3.24,-1.54 4.1,-1.58 z"
           style="font-style:normal;font-variant:normal;font-weight:normal;font-stretch:normal;font-size:20px;font-family:'Latin Modern Sans';-inkscape-font-specification:'Latin Modern Sans';text-align:center;text-anchor:middle;stroke-width:0.75"
           id="path1417" /><path
           d="m 305.07697,-302.86697 v -5.96 c 0,-1.32 -0.3,-3.14 -2.74,-3.14 -1.8,0 -2.78,1.36 -2.9,1.52 v -1.42 h -1.44 v 9 h 1.56 v -4.9 c 0,-1.32 0.5,-2.98 2.02,-2.98 1.92,0 1.94,1.42 1.94,2.06 v 5.82 z"
           style="font-style:normal;font-variant:normal;font-weight:normal;font-stretch:normal;font-size:20px;font-family:'Latin Modern Sans';-inkscape-font-specification:'Latin Modern Sans';text-align:center;text-anchor:middle;stroke-width:0.75"
           id="path1419" /><path
           d="m 314.99694,-307.24697 c 0,-0.68 -0.02,-2.18 -0.8,-3.38 -0.82,-1.24 -2.04,-1.46 -2.76,-1.46 -2.22,0 -4.02,2.12 -4.02,4.7 0,2.64 1.92,4.74 4.32,4.74 1.26,0 2.4,-0.48 3.18,-1.04 l -0.12,-1.3 c -1.26,1.04 -2.58,1.12 -3.04,1.12 -1.6,0 -2.88,-1.42 -2.94,-3.38 z m -1.14,-1.1 h -4.94 c 0.32,-1.52 1.38,-2.52 2.52,-2.52 1.04,0 2.16,0.68 2.42,2.52 z"
           style="font-style:normal;font-variant:normal;font-weight:normal;font-stretch:normal;font-size:20px;font-family:'Latin Modern Sans';-inkscape-font-specification:'Latin Modern Sans';text-align:center;text-anchor:middle;stroke-width:0.75"
           id="path1421" /><path
           d="m 278.47708,-294.51738 h -1.5 l -1.58,4.16 c -0.42,1.1 -1.04,2.72 -1.2,3.66 h -0.02 c -0.12,-0.72 -0.64,-2.1 -0.84,-2.64 l -1.94,-5.18 h -1.56 l 3.44,8.88 h 1.76 z"
           style="font-style:normal;font-variant:normal;font-weight:normal;font-stretch:normal;font-size:20px;font-family:'Latin Modern Sans';-inkscape-font-specification:'Latin Modern Sans';text-align:center;text-anchor:middle;stroke-width:0.75"
           id="path1423" /><path
           d="m 286.95705,-285.63738 v -5.78 c 0,-2.04 -1.46,-3.44 -3.3,-3.44 -1.3,0 -2.2,0.32 -3.14,0.86 l 0.12,1.32 c 1.04,-0.74 2.04,-1 3.02,-1 0.94,0 1.74,0.8 1.74,2.28 v 0.86 c -3,0.04 -5.54,0.88 -5.54,2.64 0,0.86 0.54,2.48 2.28,2.48 0.28,0 2.16,-0.04 3.32,-0.94 v 0.72 z m -1.56,-2.64 c 0,0.38 0,0.88 -0.68,1.26 -0.58,0.36 -1.34,0.38 -1.56,0.38 -0.96,0 -1.86,-0.46 -1.86,-1.3 0,-1.4 3.24,-1.54 4.1,-1.58 z"
           style="font-style:normal;font-variant:normal;font-weight:normal;font-stretch:normal;font-size:20px;font-family:'Latin Modern Sans';-inkscape-font-specification:'Latin Modern Sans';text-align:center;text-anchor:middle;stroke-width:0.75"
           id="path1425" /><path
           d="m 297.99703,-290.09738 c 0,-2.4 -1.26,-4.64 -3.18,-4.64 -1.2,0 -2.36,0.42 -3.28,1.2 v -0.98 h -1.5 v 12.76 h 1.56 v -4.8 c 0.62,0.58 1.5,1.14 2.7,1.14 1.94,0 3.7,-1.96 3.7,-4.68 z m -1.56,0 c 0,2.06 -1.42,3.46 -2.92,3.46 -0.78,0 -1.32,-0.4 -1.72,-0.94 -0.2,-0.3 -0.2,-0.34 -0.2,-0.7 v -4.02 c 0.48,-0.7 1.26,-1.16 2.12,-1.16 1.52,0 2.72,1.52 2.72,3.36 z"
           style="font-style:normal;font-variant:normal;font-weight:normal;font-stretch:normal;font-size:20px;font-family:'Latin Modern Sans';-inkscape-font-specification:'Latin Modern Sans';text-align:center;text-anchor:middle;stroke-width:0.75"
           id="path1427" /><path
           d="m 308.67699,-290.03738 c 0,-2.68 -2,-4.82 -4.38,-4.82 -2.46,0 -4.4,2.2 -4.4,4.82 0,2.64 2.04,4.62 4.38,4.62 2.4,0 4.4,-2.02 4.4,-4.62 z m -1.56,-0.2 c 0,2.36 -1.36,3.54 -2.84,3.54 -1.38,0 -2.82,-1.12 -2.82,-3.54 0,-2.42 1.52,-3.4 2.82,-3.4 1.4,0 2.84,1.04 2.84,3.4 z"
           style="font-style:normal;font-variant:normal;font-weight:normal;font-stretch:normal;font-size:20px;font-family:'Latin Modern Sans';-inkscape-font-specification:'Latin Modern Sans';text-align:center;text-anchor:middle;stroke-width:0.75"
           id="path1429" /><path
           d="m 315.27692,-293.39738 v -1.34 c -1.78,0.02 -2.88,1 -3.5,1.92 v -1.82 h -1.4 v 9 h 1.5 v -4.28 c 0,-2 1.44,-3.44 3.4,-3.48 z"
           style="font-style:normal;font-variant:normal;font-weight:normal;font-stretch:normal;font-size:20px;font-family:'Latin Modern Sans';-inkscape-font-specification:'Latin Modern Sans';text-align:center;text-anchor:middle;stroke-width:0.75"
           id="path1431" /></g></g></g></svg>
