<?xml version="1.0" encoding="UTF-8" standalone="no"?>
<svg
   xmlns:dc="http://purl.org/dc/elements/1.1/"
   xmlns:cc="http://creativecommons.org/ns#"
   xmlns:rdf="http://www.w3.org/1999/02/22-rdf-syntax-ns#"
   xmlns:svg="http://www.w3.org/2000/svg"
   xmlns="http://www.w3.org/2000/svg"
   xmlns:sodipodi="http://sodipodi.sourceforge.net/DTD/sodipodi-0.dtd"
   xmlns:inkscape="http://www.inkscape.org/namespaces/inkscape"
   inkscape:version="1.0 (4035a4fb49, 2020-05-01)"
   sodipodi:docname="Biochips_Jablonski_diagram.svg"
   viewBox="0 0 291.79105 126.77042"
   height="126.77042"
   width="291.79105"
   xml:space="preserve"
   id="svg2"
   version="1.1"><metadata
     id="metadata8"><rdf:RDF><cc:Work
         rdf:about=""><dc:format>image/svg+xml</dc:format><dc:type
           rdf:resource="http://purl.org/dc/dcmitype/StillImage" /><dc:title /></cc:Work></rdf:RDF></metadata><defs
     id="defs6"><clipPath
       id="clipPath130"
       clipPathUnits="userSpaceOnUse"><path
         id="path128"
         clip-rule="evenodd"
         d="m 1893.26,5491.66 v -900 h 2270 v 900 z m 603.2,-91 h -44.4 v -84.6 l 22.2,67.8 22.2,-67.8 z" /></clipPath><clipPath
       id="clipPath140"
       clipPathUnits="userSpaceOnUse"><path
         id="path138"
         d="m 1893.26,5491.66 v -900 h 2270 v 900 z" /></clipPath><clipPath
       id="clipPath152"
       clipPathUnits="userSpaceOnUse"><path
         id="path150"
         clip-rule="evenodd"
         d="m 1893.26,5491.66 v -900 h 2270 v 900 z m 1638.2,-874 h 45 v 84 l -22.2,-67.8 -22.8,67.8 z" /></clipPath><clipPath
       id="clipPath162"
       clipPathUnits="userSpaceOnUse"><path
         id="path160"
         d="m 1893.26,5491.66 v -900 h 2270 v 900 z" /></clipPath><clipPath
       id="clipPath174"
       clipPathUnits="userSpaceOnUse"><path
         id="path172"
         clip-rule="evenodd"
         d="m 1893.26,5491.66 v -900 h 2270 v 900 z m 1362.2,-298.6 40.8,18.6 -24.6,54 -1.8,-50.4 -39.6,31.8 z" /></clipPath><clipPath
       id="clipPath184"
       clipPathUnits="userSpaceOnUse"><path
         id="path182"
         d="m 1893.26,5491.66 v -900 h 2270 v 900 z" /></clipPath><clipPath
       id="clipPath210"
       clipPathUnits="userSpaceOnUse"><path
         id="path208"
         clip-rule="evenodd"
         d="m 1893.26,5491.66 v -900 h 2270 v 900 z m 153.8,-181 h -45 l 0.6,-83.4 22.2,67.2 22.8,-67.2 z" /></clipPath><clipPath
       id="clipPath220"
       clipPathUnits="userSpaceOnUse"><path
         id="path218"
         d="m 1893.26,5491.66 v -900 h 2270 v 900 z" /></clipPath></defs><sodipodi:namedview
     inkscape:current-layer="g10"
     inkscape:window-maximized="1"
     inkscape:window-y="0"
     inkscape:window-x="0"
     inkscape:cy="91.785643"
     inkscape:cx="167.60164"
     inkscape:zoom="3.108143"
     showgrid="false"
     id="namedview4"
     inkscape:window-height="1015"
     inkscape:window-width="1920"
     inkscape:pageshadow="2"
     inkscape:pageopacity="0"
     guidetolerance="10"
     gridtolerance="10"
     objecttolerance="10"
     borderopacity="1"
     bordercolor="#666666"
     pagecolor="#ffffff"
     inkscape:document-rotation="0"
     fit-margin-top="5"
     fit-margin-left="5"
     fit-margin-right="5"
     fit-margin-bottom="5" /><g
     transform="matrix(1.3333333,0,0,-1.3333333,-240.39836,731.21599)"
     inkscape:label="rapport"
     inkscape:groupmode="layer"
     id="g10"><g
       id="g1062"><g
         transform="scale(0.1)"
         id="g126"
         clip-path="url(#clipPath130)"><path
           d="m 2474.26,4626.66 v 765"
           style="fill:none;stroke:#00b000;stroke-width:4.5;stroke-linecap:butt;stroke-linejoin:miter;stroke-miterlimit:10;stroke-dasharray:none;stroke-opacity:1"
           id="path132" /></g><g
         transform="scale(0.1)"
         id="g136"
         clip-path="url(#clipPath140)"><path
           d="m 2496.46,5316.06 -22.2,67.8 -22.2,-67.8 22.2,13.8 22.2,-13.8"
           style="fill:#00b000;fill-opacity:1;fill-rule:evenodd;stroke:none"
           id="path142" /><path
           d="m 2496.46,5316.06 -22.2,67.8 -22.2,-67.8 22.2,13.8 z"
           style="fill:none;stroke:#00b000;stroke-width:4.5;stroke-linecap:butt;stroke-linejoin:miter;stroke-miterlimit:10;stroke-dasharray:none;stroke-opacity:1"
           id="path144" /></g><g
         transform="scale(0.1)"
         id="g148"
         clip-path="url(#clipPath152)"><path
           d="m 3554.26,5211.66 v -585"
           style="fill:none;stroke:#ff0000;stroke-width:4.5;stroke-linecap:butt;stroke-linejoin:miter;stroke-miterlimit:10;stroke-dasharray:none;stroke-opacity:1"
           id="path154" /></g><g
         transform="scale(0.1)"
         id="g158"
         clip-path="url(#clipPath162)"><path
           d="m 3531.46,4701.66 22.8,-67.8 22.2,67.8 -22.2,-13.8 -22.8,13.8"
           style="fill:#ff0000;fill-opacity:1;fill-rule:evenodd;stroke:none"
           id="path164" /><path
           d="m 3531.46,4701.66 22.8,-67.8 22.2,67.8 -22.2,-13.8 z"
           style="fill:none;stroke:#ff0000;stroke-width:4.5;stroke-linecap:butt;stroke-linejoin:miter;stroke-miterlimit:10;stroke-dasharray:none;stroke-opacity:1"
           id="path166" /></g><path
         id="path176"
         style="fill:none;stroke:#ffd700;stroke-width:0.45;stroke-linecap:butt;stroke-linejoin:bevel;stroke-miterlimit:10;stroke-dasharray:none;stroke-opacity:1"
         d="m 276.586,539.526 0.06,0.06 0.48,0.24 0.9,0.42 1.08,0.48 0.96,0.36 0.72,0.18 h 0.6 l 0.48,-0.18 0.42,-0.36 0.42,-0.48 0.42,-0.66 0.36,-0.66 0.42,-0.66 0.42,-0.54 0.42,-0.48 0.48,-0.24 0.48,-0.12 0.66,0.06 0.66,0.18 0.72,0.24 0.72,0.24 0.66,0.18 0.6,0.06 0.54,-0.12 0.48,-0.24 0.42,-0.42 0.42,-0.6 0.42,-0.66 0.36,-0.6 0.42,-0.6 0.42,-0.42 0.48,-0.24 0.54,-0.12 0.6,0.06 0.66,0.18 0.72,0.24 0.72,0.18 0.66,0.18 0.6,0.06 0.54,-0.12 0.42,-0.24 0.42,-0.42 0.42,-0.6 0.42,-0.6 0.36,-0.66 0.42,-0.6 0.42,-0.42 0.48,-0.24 0.48,-0.12 0.6,0.06 0.72,0.18 0.72,0.24 0.72,0.24 0.72,0.18 0.6,0.06 0.54,-0.12 0.48,-0.24 0.42,-0.42 0.42,-0.6 0.42,-0.66 0.42,-0.6 0.42,-0.6 0.42,-0.42 0.42,-0.24 0.54,-0.12 0.6,0.06 0.66,0.18 0.72,0.24 0.66,0.18 0.66,0.18 0.6,0.06 0.54,-0.12 0.48,-0.24 0.42,-0.42 0.42,-0.54 0.42,-0.66 0.42,-0.66 0.42,-0.54 0.42,-0.42 0.48,-0.3 0.48,-0.06 0.6,0.06 0.72,0.18 0.72,0.24 0.72,0.24 0.72,0.24 0.6,0.12 h 0.6 l 0.48,-0.18 0.42,-0.36 0.48,-0.66 0.48,-0.9 1.14,-2.52" /><path
         id="path186"
         style="fill:#ffd700;fill-opacity:1;fill-rule:evenodd;stroke:none;stroke-width:0.1"
         d="m 323.026,524.706 3.96,-3.18 0.18,5.04 -1.68,-1.74 -2.46,-0.12" /><path
         id="path188"
         style="fill:none;stroke:#ffd700;stroke-width:0.45;stroke-linecap:butt;stroke-linejoin:miter;stroke-miterlimit:10;stroke-dasharray:none;stroke-opacity:1"
         d="m 323.026,524.706 3.96,-3.18 0.18,5.04 -1.68,-1.74 z" /><path
         id="path190"
         style="fill:#ffffff;fill-opacity:1;fill-rule:evenodd;stroke:none;stroke-width:0.1"
         d="m 361.786,494.166 c 0,-3.512 -2.848,-6.36 -6.36,-6.36 -3.513,0 -6.36,2.848 -6.36,6.36 0,3.513 2.847,6.36 6.36,6.36 3.512,0 6.36,-2.847 6.36,-6.36" /><path
         id="path192"
         style="fill:none;stroke:#ff0000;stroke-width:0.45;stroke-linecap:butt;stroke-linejoin:miter;stroke-miterlimit:10;stroke-dasharray:none;stroke-opacity:1"
         d="m 361.786,494.166 c 0,-3.512 -2.848,-6.36 -6.36,-6.36 -3.513,0 -6.36,2.848 -6.36,6.36 0,3.513 2.847,6.36 6.36,6.36 3.512,0 6.36,-2.847 6.36,-6.36 z" /><path
         id="path194"
         style="fill:#ffffff;fill-opacity:1;fill-rule:evenodd;stroke:none;stroke-width:0.1"
         d="m 253.786,498.666 c 0,-3.512 -2.848,-6.36 -6.36,-6.36 -3.513,0 -6.36,2.848 -6.36,6.36 0,3.513 2.847,6.36 6.36,6.36 3.512,0 6.36,-2.847 6.36,-6.36" /><path
         id="path196"
         style="fill:none;stroke:#00b000;stroke-width:0.45;stroke-linecap:butt;stroke-linejoin:miter;stroke-miterlimit:10;stroke-dasharray:none;stroke-opacity:1"
         d="m 253.786,498.666 c 0,-3.512 -2.848,-6.36 -6.36,-6.36 -3.513,0 -6.36,2.848 -6.36,6.36 0,3.513 2.847,6.36 6.36,6.36 3.512,0 6.36,-2.847 6.36,-6.36 z" /><path
         id="path198"
         style="fill:#ffffff;fill-opacity:1;fill-rule:evenodd;stroke:none;stroke-width:0.1"
         d="m 307.786,534.666 c 0,-3.512 -2.848,-6.36 -6.36,-6.36 -3.513,0 -6.36,2.848 -6.36,6.36 0,3.513 2.847,6.36 6.36,6.36 3.512,0 6.36,-2.847 6.36,-6.36" /><path
         id="path200"
         style="fill:none;stroke:#ffd700;stroke-width:0.45;stroke-linecap:butt;stroke-linejoin:miter;stroke-miterlimit:10;stroke-dasharray:none;stroke-opacity:1"
         d="m 307.786,534.666 c 0,-3.512 -2.848,-6.36 -6.36,-6.36 -3.513,0 -6.36,2.848 -6.36,6.36 0,3.513 2.847,6.36 6.36,6.36 3.512,0 6.36,-2.847 6.36,-6.36 z" /><path
         id="path202"
         style="fill:none;stroke:#0000b0;stroke-width:0.9;stroke-linecap:butt;stroke-linejoin:miter;stroke-miterlimit:10;stroke-dasharray:none;stroke-opacity:1"
         d="m 220.426,539.166 h 54" /><path
         id="path212"
         style="fill:none;stroke:#0000b0;stroke-width:0.45;stroke-linecap:butt;stroke-linejoin:miter;stroke-miterlimit:10;stroke-dasharray:none;stroke-opacity:1"
         d="m 202.426,476.166 v 54" /><path
         id="path222"
         style="fill:#0000b0;fill-opacity:1;fill-rule:evenodd;stroke:none;stroke-width:0.1"
         d="m 204.766,522.726 -2.28,6.72 -2.22,-6.72 2.22,1.32 2.28,-1.32" /><path
         id="path224"
         style="fill:none;stroke:#0000b0;stroke-width:0.45;stroke-linecap:butt;stroke-linejoin:miter;stroke-miterlimit:10;stroke-dasharray:none;stroke-opacity:1"
         d="m 204.766,522.726 -2.28,6.72 -2.22,-6.72 2.22,1.32 z" /><path
         id="path226"
         style="fill:none;stroke:#0000b0;stroke-width:0.9;stroke-linecap:butt;stroke-linejoin:miter;stroke-miterlimit:10;stroke-dasharray:none;stroke-opacity:1"
         d="m 328.426,521.166 h 54" /><path
         id="path228"
         style="fill:none;stroke:#0000b0;stroke-width:0.9;stroke-linecap:butt;stroke-linejoin:miter;stroke-miterlimit:10;stroke-dasharray:none;stroke-opacity:1"
         d="m 220.426,462.666 h 162" /><g
         aria-label="Energy"
         transform="matrix(0,1,1,0,0,0)"
         id="text1796"
         style="font-style:normal;font-weight:normal;font-size:12px;line-height:1.25;font-family:sans-serif;letter-spacing:0px;word-spacing:0px;fill:#000000;fill-opacity:1;stroke:none;stroke-width:0.75"><path
           d="m 490.01101,192.34077 v -0.852 h -1.512 c -0.144,0 -0.288,0.012 -0.432,0.012 h -2.508 v -3.108 h 3.96 v -0.732 h -3.96 v -2.844 h 1.656 c 0.144,0 0.288,0.012 0.432,0.012 h 2.196 v -0.78 h -5.352 v 8.292 z"
           style="font-style:normal;font-variant:normal;font-weight:normal;font-stretch:normal;font-size:12px;font-family:'Latin Modern Sans';-inkscape-font-specification:'Latin Modern Sans';fill:#0000b0;fill-opacity:1;stroke-width:0.75"
           id="path954" /><path
           d="m 495.74699,192.34077 v -3.576 c 0,-0.792 -0.18,-1.884 -1.644,-1.884 -1.08,0 -1.668,0.816 -1.74,0.912 v -0.852 h -0.864 v 5.4 h 0.936 v -2.94 c 0,-0.792 0.3,-1.788 1.212,-1.788 1.152,0 1.164,0.852 1.164,1.236 v 3.492 z"
           style="font-style:normal;font-variant:normal;font-weight:normal;font-stretch:normal;font-size:12px;font-family:'Latin Modern Sans';-inkscape-font-specification:'Latin Modern Sans';fill:#0000b0;fill-opacity:1;stroke-width:0.75"
           id="path956" /><path
           d="m 501.69896,189.71277 c 0,-0.408 -0.012,-1.308 -0.48,-2.028 -0.492,-0.744 -1.224,-0.876 -1.656,-0.876 -1.332,0 -2.412,1.272 -2.412,2.82 0,1.584 1.152,2.844 2.592,2.844 0.756,0 1.44,-0.288 1.908,-0.624 l -0.072,-0.78 c -0.756,0.624 -1.548,0.672 -1.824,0.672 -0.96,0 -1.728,-0.852 -1.764,-2.028 z m -0.684,-0.66 h -2.964 c 0.192,-0.912 0.828,-1.512 1.512,-1.512 0.624,0 1.296,0.408 1.452,1.512 z"
           style="font-style:normal;font-variant:normal;font-weight:normal;font-stretch:normal;font-size:12px;font-family:'Latin Modern Sans';-inkscape-font-specification:'Latin Modern Sans';fill:#0000b0;fill-opacity:1;stroke-width:0.75"
           id="path958" /><path
           d="m 505.98294,187.68477 v -0.804 c -1.068,0.012 -1.728,0.6 -2.1,1.152 v -1.092 h -0.84 v 5.4 h 0.9 v -2.568 c 0,-1.2 0.864,-2.064 2.04,-2.088 z"
           style="font-style:normal;font-variant:normal;font-weight:normal;font-stretch:normal;font-size:12px;font-family:'Latin Modern Sans';-inkscape-font-specification:'Latin Modern Sans';fill:#0000b0;fill-opacity:1;stroke-width:0.75"
           id="path960" /><path
           d="m 511.98293,187.63677 -0.132,-0.756 c -0.84,0 -1.536,0.228 -1.896,0.384 -0.252,-0.204 -0.66,-0.384 -1.14,-0.384 -1.032,0 -1.908,0.864 -1.908,1.956 0,0.444 0.156,0.876 0.396,1.188 -0.348,0.492 -0.348,0.96 -0.348,1.02 0,0.312 0.108,0.66 0.312,0.912 -0.624,0.372 -0.768,0.924 -0.768,1.236 0,0.9 1.188,1.62 2.652,1.62 1.476,0 2.664,-0.708 2.664,-1.632 0,-1.668 -2.004,-1.668 -2.472,-1.668 h -1.056 c -0.156,0 -0.696,0 -0.696,-0.636 0,-0.132 0.048,-0.324 0.132,-0.432 0.252,0.18 0.648,0.348 1.092,0.348 1.08,0 1.92,-0.888 1.92,-1.956 0,-0.576 -0.264,-1.02 -0.396,-1.2 l 0.048,0.012 c 0.264,0 0.6,-0.048 0.888,-0.048 0.216,0 0.708,0.036 0.708,0.036 z m -2.088,1.2 c 0,0.936 -0.564,1.272 -1.08,1.272 -0.444,0 -1.068,-0.276 -1.068,-1.272 0,-0.996 0.624,-1.272 1.068,-1.272 0.516,0 1.08,0.336 1.08,1.272 z m 1.08,4.368 c 0,0.528 -0.828,0.924 -1.812,0.924 -0.972,0 -1.824,-0.372 -1.824,-0.936 0,-0.036 0,-0.816 0.936,-0.816 h 1.08 c 0.264,0 1.62,0 1.62,0.828 z"
           style="font-style:normal;font-variant:normal;font-weight:normal;font-stretch:normal;font-size:12px;font-family:'Latin Modern Sans';-inkscape-font-specification:'Latin Modern Sans';fill:#0000b0;fill-opacity:1;stroke-width:0.75"
           id="path962" /><path
           d="m 517.51491,187.01277 h -0.9 c -1.56,3.816 -1.584,4.368 -1.596,4.644 h -0.012 c -0.072,-0.804 -1.032,-3.036 -1.08,-3.144 l -0.648,-1.5 h -0.948 l 2.328,5.328 -0.432,1.08 c -0.312,0.696 -0.516,0.696 -0.684,0.696 -0.192,0 -0.576,-0.048 -0.936,-0.192 l 0.072,0.78 c 0.264,0.06 0.6,0.096 0.864,0.096 0.42,0 0.864,-0.144 1.356,-1.368 z"
           style="font-style:normal;font-variant:normal;font-weight:normal;font-stretch:normal;font-size:12px;font-family:'Latin Modern Sans';-inkscape-font-specification:'Latin Modern Sans';fill:#0000b0;fill-opacity:1;stroke-width:0.75"
           id="path964" /></g><g
         aria-label="S0"
         transform="scale(1,-1)"
         id="text1796-3"
         style="font-style:normal;font-weight:normal;font-size:12px;line-height:1.25;font-family:sans-serif;letter-spacing:0px;word-spacing:0px;fill:#000000;fill-opacity:1;stroke:none;stroke-width:0.75"><path
           d="m 210.86799,-461.92379 c 0,-0.78 -0.372,-1.356 -0.636,-1.644 -0.564,-0.6 -0.96,-0.708 -2.064,-0.984 -0.696,-0.168 -0.888,-0.216 -1.248,-0.528 -0.084,-0.072 -0.42,-0.42 -0.42,-0.948 0,-0.708 0.648,-1.428 1.752,-1.428 1.008,0 1.584,0.396 2.028,0.768 l 0.18,-0.96 c -0.66,-0.396 -1.32,-0.6 -2.196,-0.6 -1.668,0 -2.712,1.176 -2.712,2.364 0,0.516 0.168,1.02 0.648,1.524 0.504,0.54 1.032,0.684 1.74,0.852 1.02,0.252 1.14,0.288 1.476,0.588 0.24,0.204 0.504,0.6 0.504,1.116 0,0.792 -0.66,1.584 -1.752,1.584 -0.492,0 -1.572,-0.12 -2.58,-0.972 l -0.18,0.972 c 1.056,0.66 2.016,0.828 2.772,0.828 1.584,0 2.688,-1.212 2.688,-2.532 z"
           style="font-style:normal;font-variant:normal;font-weight:normal;font-stretch:normal;font-size:12px;font-family:'Latin Modern Sans';-inkscape-font-specification:'Latin Modern Sans';stroke-width:0.75"
           id="path970" /><path
           d="m 215.11659,-459.79859 c 0,-0.6162 -0.0312,-1.3416 -0.3588,-1.9734 -0.3198,-0.585 -0.858,-0.7722 -1.2558,-0.7722 -0.4602,0 -1.0062,0.2106 -1.326,0.9048 -0.2574,0.5694 -0.2964,1.2168 -0.2964,1.8408 0,0.6162 0.0312,1.1856 0.2652,1.755 0.312,0.7488 0.9048,0.9594 1.3494,0.9594 0.5694,0 1.0608,-0.3198 1.3104,-0.858 0.234,-0.507 0.312,-1.0218 0.312,-1.8564 z m -0.6084,-0.0936 c 0,0.5148 0,1.0062 -0.1404,1.4976 -0.2028,0.7098 -0.6162,0.8346 -0.8658,0.8346 -0.4056,0 -0.7254,-0.2964 -0.8814,-0.858 -0.1248,-0.4446 -0.1326,-0.8658 -0.1326,-1.4742 0,-0.4914 0,-0.9594 0.1326,-1.3884 0.0468,-0.1482 0.2418,-0.7878 0.8736,-0.7878 0.6084,0 0.8112,0.5928 0.8658,0.7332 0.1482,0.4368 0.1482,0.9594 0.1482,1.443 z"
           style="font-size:65%;baseline-shift:sub"
           id="path972" /></g><g
         aria-label="S’1"
         transform="scale(1,-1)"
         id="text1796-3-7"
         style="font-style:normal;font-weight:normal;font-size:12px;line-height:1.25;font-family:sans-serif;letter-spacing:0px;word-spacing:0px;fill:#000000;fill-opacity:1;stroke:none;stroke-width:0.75"><path
           d="m 209.32868,-538.33801 c 0,-0.78 -0.372,-1.356 -0.636,-1.644 -0.564,-0.6 -0.96,-0.708 -2.064,-0.984 -0.696,-0.168 -0.888,-0.216 -1.248,-0.528 -0.084,-0.072 -0.42,-0.42 -0.42,-0.948 0,-0.708 0.648,-1.428 1.752,-1.428 1.008,0 1.584,0.396 2.028,0.768 l 0.18,-0.96 c -0.66,-0.396 -1.32,-0.6 -2.196,-0.6 -1.668,0 -2.712,1.176 -2.712,2.364 0,0.516 0.168,1.02 0.648,1.524 0.504,0.54 1.032,0.684 1.74,0.852 1.02,0.252 1.14,0.288 1.476,0.588 0.24,0.204 0.504,0.6 0.504,1.116 0,0.792 -0.66,1.584 -1.752,1.584 -0.492,0 -1.572,-0.12 -2.58,-0.972 l -0.18,0.972 c 1.056,0.66 2.016,0.828 2.772,0.828 1.584,0 2.688,-1.212 2.688,-2.532 z"
           style="font-style:normal;font-variant:normal;font-weight:normal;font-stretch:normal;font-size:12px;font-family:'Latin Modern Sans';-inkscape-font-specification:'Latin Modern Sans';stroke-width:0.75"
           id="path947" /><path
           d="m 212.17268,-543.41401 v -0.984 h -0.996 v 0.996 h 0.3 l -0.3,1.5 h 0.492 z"
           style="font-style:normal;font-variant:normal;font-weight:normal;font-stretch:normal;font-size:12px;font-family:'Latin Modern Sans';-inkscape-font-specification:'Latin Modern Sans';stroke-width:0.75"
           id="path949" /><path
           d="m 216.65588,-533.67001 v -0.4524 h -0.975 v -4.836 h -0.156 c -0.4602,0.4758 -1.1076,0.4992 -1.482,0.5148 v 0.4524 c 0.2574,-0.008 0.6318,-0.0234 1.0218,-0.1872 v 4.056 h -0.975 v 0.4524 z"
           style="font-size:65%;baseline-shift:sub"
           id="path951" /></g><g
         aria-label="S1"
         transform="scale(1,-1)"
         id="text1796-3-5"
         style="font-style:normal;font-weight:normal;font-size:12px;line-height:1.25;font-family:sans-serif;letter-spacing:0px;word-spacing:0px;fill:#000000;fill-opacity:1;stroke:none;stroke-width:0.75"><path
           d="m 391.40087,-520.33801 c 0,-0.78 -0.372,-1.356 -0.636,-1.644 -0.564,-0.6 -0.96,-0.708 -2.064,-0.984 -0.696,-0.168 -0.888,-0.216 -1.248,-0.528 -0.084,-0.072 -0.42,-0.42 -0.42,-0.948 0,-0.708 0.648,-1.428 1.752,-1.428 1.008,0 1.584,0.396 2.028,0.768 l 0.18,-0.96 c -0.66,-0.396 -1.32,-0.6 -2.196,-0.6 -1.668,0 -2.712,1.176 -2.712,2.364 0,0.516 0.168,1.02 0.648,1.524 0.504,0.54 1.032,0.684 1.74,0.852 1.02,0.252 1.14,0.288 1.476,0.588 0.24,0.204 0.504,0.6 0.504,1.116 0,0.792 -0.66,1.584 -1.752,1.584 -0.492,0 -1.572,-0.12 -2.58,-0.972 l -0.18,0.972 c 1.056,0.66 2.016,0.828 2.772,0.828 1.584,0 2.688,-1.212 2.688,-2.532 z"
           style="font-style:normal;font-variant:normal;font-weight:normal;font-stretch:normal;font-size:12px;font-family:'Latin Modern Sans';-inkscape-font-specification:'Latin Modern Sans';stroke-width:0.75"
           id="path999" /><path
           d="m 395.39207,-515.67001 v -0.4524 h -0.975 v -4.836 h -0.156 c -0.4602,0.4758 -1.1076,0.4992 -1.482,0.5148 v 0.4524 c 0.2574,-0.008 0.6318,-0.0234 1.0218,-0.1872 v 4.056 h -0.975 v 0.4524 z"
           style="font-size:65%;baseline-shift:sub"
           id="path1001" /></g><g
         aria-label="1"
         transform="scale(1,-1)"
         id="text1796-3-9"
         style="font-style:normal;font-weight:normal;font-size:12px;line-height:1.25;font-family:sans-serif;letter-spacing:0px;word-spacing:0px;fill:#000000;fill-opacity:1;stroke:none;stroke-width:0.75"><path
           d="m 249.43601,-494.59799 v -0.696 h -1.5 v -7.44 h -0.24 c -0.708,0.732 -1.704,0.768 -2.28,0.792 v 0.696 c 0.396,-0.012 0.972,-0.036 1.572,-0.288 v 6.24 h -1.5 v 0.696 z"
           style="font-style:normal;font-variant:normal;font-weight:normal;font-stretch:normal;font-size:12px;font-family:'Latin Modern Sans';-inkscape-font-specification:'Latin Modern Sans';stroke-width:0.75"
           id="path967" /></g><g
         aria-label="2"
         transform="scale(1,-1)"
         id="text1796-3-9-7"
         style="font-style:normal;font-weight:normal;font-size:12px;line-height:1.25;font-family:sans-serif;letter-spacing:0px;word-spacing:0px;fill:#000000;fill-opacity:1;stroke:none;stroke-width:0.75"><path
           d="m 303.86801,-530.59802 v -0.852 h -2.184 c -0.144,0 -0.288,0.012 -0.432,0.012 h -1.308 c 0.384,-0.336 1.296,-1.236 1.668,-1.584 0.228,-0.216 0.84,-0.72 1.068,-0.936 0.54,-0.54 1.188,-1.176 1.188,-2.196 0,-1.38 -0.972,-2.58 -2.556,-2.58 -1.368,0 -2.04,0.936 -2.328,1.968 0.144,0.204 0.204,0.276 0.228,0.312 0.024,0.024 0.144,0.18 0.264,0.348 0.24,-0.924 0.576,-1.86 1.668,-1.86 1.128,0 1.74,0.9 1.74,1.836 0,1.02 -0.684,1.704 -1.392,2.424 l -0.924,0.852 -1.488,1.488 v 0.768 z"
           style="font-style:normal;font-variant:normal;font-weight:normal;font-stretch:normal;font-size:12px;font-family:'Latin Modern Sans';-inkscape-font-specification:'Latin Modern Sans';stroke-width:0.75"
           id="path984" /></g><g
         aria-label="hνem"
         transform="scale(1,-1)"
         id="text1796-3-9-9-2"
         style="font-style:normal;font-weight:normal;font-size:12px;line-height:1.25;font-family:sans-serif;letter-spacing:0px;word-spacing:0px;fill:#000000;fill-opacity:1;stroke:none;stroke-width:0.75"><path
           d="m 372.75038,-492.9609 c 0,-0.12 -0.096,-0.12 -0.18,-0.12 -0.156,0 -0.156,0.024 -0.204,0.204 -0.096,0.324 -0.42,1.5 -1.116,1.5 -0.252,0 -0.264,-0.18 -0.264,-0.348 0,-0.3 0.12,-0.612 0.216,-0.9 0.24,-0.636 0.732,-1.98 0.732,-2.676 0,-0.984 -0.66,-1.248 -1.248,-1.248 -0.804,0 -1.224,0.42 -1.596,0.78 l 0.876,-3.504 c 0.012,-0.036 0.036,-0.156 0.036,-0.156 0,-0.108 -0.072,-0.144 -0.168,-0.144 -0.036,0 -0.156,0.012 -0.192,0.024 l -1.188,0.096 c -0.144,0.012 -0.276,0.024 -0.276,0.252 0,0.132 0.12,0.132 0.288,0.132 0.576,0 0.6,0.084 0.6,0.204 0,0.036 -0.036,0.204 -0.036,0.204 l -1.776,7.08 c -0.012,0.024 -0.024,0.156 -0.024,0.156 0,0.132 0.108,0.312 0.336,0.312 0.252,0 0.408,-0.204 0.444,-0.336 l 0.516,-2.076 c 0.06,-0.264 0.132,-0.516 0.192,-0.78 0.108,-0.432 0.12,-0.456 0.336,-0.84 0.24,-0.384 0.756,-1.14 1.596,-1.14 0.528,0 0.552,0.54 0.552,0.792 0,0.744 -0.528,2.172 -0.696,2.652 -0.156,0.408 -0.192,0.516 -0.192,0.768 0,0.528 0.336,0.96 0.912,0.96 1.116,0 1.524,-1.788 1.524,-1.848 z"
           style="font-style:italic;font-variant:normal;font-weight:normal;font-stretch:normal;font-size:12px;font-family:'Latin Modern Roman';-inkscape-font-specification:'Latin Modern Roman,  Italic';stroke-width:0.75"
           id="path990" /><path
           d="m 378.67838,-496.2249 c -0.012,-0.204 -0.156,-0.324 -0.36,-0.324 -0.096,0 -0.36,0.048 -0.444,0.396 -0.636,2.724 -2.388,4.068 -3.732,4.512 l 0.924,-4.776 c 0,0 0,-0.132 -0.156,-0.132 -0.276,0 -1.14,0.096 -1.464,0.12 -0.096,0.012 -0.216,0.024 -0.216,0.24 0.012,0.144 0.12,0.144 0.3,0.144 0.576,0 0.612,0.084 0.612,0.204 0,0.084 -0.108,0.648 -0.18,0.972 l -0.588,2.94 -0.108,0.54 c 0.012,0.132 0.132,0.144 0.204,0.144 h 0.168 c 0.828,-0.144 2.112,-0.612 3.288,-1.764 1.524,-1.476 1.764,-3.108 1.752,-3.216 z"
           style="font-style:italic;font-variant:normal;font-weight:normal;font-stretch:normal;font-family:'Latin Modern Math';-inkscape-font-specification:'Latin Modern Math Italic'"
           id="path992" /><path
           d="m 382.13677,-489.6561 c 0,-0.039 -0.0624,-0.1248 -0.1248,-0.1248 -0.0312,0 -0.039,0.008 -0.1014,0.0858 -0.5772,0.7332 -1.2714,0.7644 -1.404,0.7644 -0.507,0 -0.5928,-0.5538 -0.5928,-0.858 0,-0.2964 0.078,-0.6474 0.1326,-0.858 h 0.3042 c 0.234,0 0.7566,-0.0234 1.131,-0.1716 0.6162,-0.2496 0.6162,-0.7566 0.6162,-0.8112 0,-0.3588 -0.2886,-0.663 -0.7878,-0.663 -0.819,0 -1.9344,0.7878 -1.9344,2.1684 0,0.702 0.3744,1.365 1.1154,1.365 0.9984,0 1.6458,-0.78 1.6458,-0.897 z m -0.3354,-1.989 c 0,0.8268 -1.287,0.8268 -1.5444,0.8268 h -0.1638 c 0.3354,-1.2792 1.1388,-1.3026 1.2168,-1.3026 0.312,0 0.4914,0.2106 0.4914,0.4758 z"
           style="font-style:italic;font-variant:normal;font-weight:normal;font-stretch:normal;font-size:7.8px;font-family:'Latin Modern Roman';-inkscape-font-specification:'Latin Modern Roman,  Italic';baseline-shift:sub;stroke-width:0.75"
           id="path994" /><path
           d="m 388.64196,-489.9603 c 0,-0.078 -0.0624,-0.078 -0.117,-0.078 -0.1014,0 -0.1014,0.0156 -0.1326,0.1326 -0.0624,0.2106 -0.273,0.975 -0.7254,0.975 -0.1638,0 -0.1716,-0.117 -0.1716,-0.2262 0,-0.195 0.078,-0.3978 0.1404,-0.585 0.156,-0.4134 0.4758,-1.287 0.4758,-1.7394 0,-0.6552 -0.4524,-0.8112 -0.819,-0.8112 -0.546,0 -0.936,0.3432 -1.17,0.6864 -0.0624,-0.5382 -0.468,-0.6864 -0.819,-0.6864 -0.468,0 -0.8502,0.2574 -1.1154,0.6162 -0.0546,-0.3822 -0.3198,-0.6162 -0.6552,-0.6162 -0.2808,0 -0.4368,0.1794 -0.5616,0.4134 -0.1482,0.312 -0.2496,0.7878 -0.2496,0.7878 0,0.078 0.078,0.078 0.117,0.078 0.1014,0 0.1092,-0.008 0.1482,-0.1794 0.1404,-0.546 0.2886,-0.9282 0.5304,-0.9282 0.2028,0 0.2028,0.2262 0.2028,0.312 0,0.1248 -0.0234,0.273 -0.0546,0.3978 l -0.585,2.34 c -0.0156,0.0468 -0.0234,0.0858 -0.0234,0.1092 0,0.0858 0.0624,0.2028 0.2184,0.2028 0.0936,0 0.2262,-0.0546 0.2808,-0.2028 l 0.312,-1.248 c 0.039,-0.1716 0.0858,-0.3354 0.1248,-0.507 0.1014,-0.3822 0.1014,-0.3978 0.195,-0.5616 0.2262,-0.39 0.5616,-0.8424 1.0998,-0.8424 0.3588,0 0.3588,0.3978 0.3588,0.5148 0,0.2106 -0.0546,0.4368 -0.0702,0.507 l -0.507,2.028 c -0.0156,0.0468 -0.0234,0.0858 -0.0234,0.1092 0,0.0858 0.0624,0.2028 0.2184,0.2028 0.0936,0 0.2262,-0.0546 0.2808,-0.2028 l 0.312,-1.248 c 0.039,-0.1716 0.0858,-0.3354 0.1248,-0.507 0.1014,-0.3822 0.1014,-0.3978 0.195,-0.5616 0.2262,-0.39 0.5616,-0.8424 1.0998,-0.8424 0.3588,0 0.3588,0.3978 0.3588,0.5148 0,0.4836 -0.3432,1.4118 -0.4524,1.7238 -0.1014,0.2652 -0.1248,0.3354 -0.1248,0.4992 0,0.3432 0.2184,0.624 0.5928,0.624 0.7254,0 0.9906,-1.1622 0.9906,-1.2012 z"
           style="font-style:italic;font-variant:normal;font-weight:normal;font-stretch:normal;font-size:7.8px;font-family:'Latin Modern Roman';-inkscape-font-specification:'Latin Modern Roman,  Italic';baseline-shift:sub;stroke-width:0.75"
           id="path996" /></g><g
         aria-label="hνex"
         transform="scale(1,-1)"
         id="text1796-3-9-9-2-2"
         style="font-style:normal;font-weight:normal;font-size:12px;line-height:1.25;font-family:sans-serif;letter-spacing:0px;word-spacing:0px;fill:#000000;fill-opacity:1;stroke:none;stroke-width:0.75"><path
           d="m 265.14733,-497.4609 c 0,-0.12 -0.096,-0.12 -0.18,-0.12 -0.156,0 -0.156,0.024 -0.204,0.204 -0.096,0.324 -0.42,1.5 -1.116,1.5 -0.252,0 -0.264,-0.18 -0.264,-0.348 0,-0.3 0.12,-0.612 0.216,-0.9 0.24,-0.636 0.732,-1.98 0.732,-2.676 0,-0.984 -0.66,-1.248 -1.248,-1.248 -0.804,0 -1.224,0.42 -1.596,0.78 l 0.876,-3.504 c 0.012,-0.036 0.036,-0.156 0.036,-0.156 0,-0.108 -0.072,-0.144 -0.168,-0.144 -0.036,0 -0.156,0.012 -0.192,0.024 l -1.188,0.096 c -0.144,0.012 -0.276,0.024 -0.276,0.252 0,0.132 0.12,0.132 0.288,0.132 0.576,0 0.6,0.084 0.6,0.204 0,0.036 -0.036,0.204 -0.036,0.204 l -1.776,7.08 c -0.012,0.024 -0.024,0.156 -0.024,0.156 0,0.132 0.108,0.312 0.336,0.312 0.252,0 0.408,-0.204 0.444,-0.336 l 0.516,-2.076 c 0.06,-0.264 0.132,-0.516 0.192,-0.78 0.108,-0.432 0.12,-0.456 0.336,-0.84 0.24,-0.384 0.756,-1.14 1.596,-1.14 0.528,0 0.552,0.54 0.552,0.792 0,0.744 -0.528,2.172 -0.696,2.652 -0.156,0.408 -0.192,0.516 -0.192,0.768 0,0.528 0.336,0.96 0.912,0.96 1.116,0 1.524,-1.788 1.524,-1.848 z"
           style="font-style:italic;font-variant:normal;font-weight:normal;font-stretch:normal;font-size:12px;font-family:'Latin Modern Roman';-inkscape-font-specification:'Latin Modern Roman,  Italic';stroke-width:0.75"
           id="path975" /><path
           d="m 271.07532,-500.7249 c -0.012,-0.204 -0.156,-0.324 -0.36,-0.324 -0.096,0 -0.36,0.048 -0.444,0.396 -0.636,2.724 -2.388,4.068 -3.732,4.512 l 0.924,-4.776 c 0,0 0,-0.132 -0.156,-0.132 -0.276,0 -1.14,0.096 -1.464,0.12 -0.096,0.012 -0.216,0.024 -0.216,0.24 0.012,0.144 0.12,0.144 0.3,0.144 0.576,0 0.612,0.084 0.612,0.204 0,0.084 -0.108,0.648 -0.18,0.972 l -0.588,2.94 -0.108,0.54 c 0.012,0.132 0.132,0.144 0.204,0.144 h 0.168 c 0.828,-0.144 2.112,-0.612 3.288,-1.764 1.524,-1.476 1.764,-3.108 1.752,-3.216 z"
           style="font-style:italic;font-variant:normal;font-weight:normal;font-stretch:normal;font-family:'Latin Modern Math';-inkscape-font-specification:'Latin Modern Math Italic';stroke-width:0.75"
           id="path977" /><path
           d="m 274.53371,-494.1561 c 0,-0.039 -0.0624,-0.1248 -0.1248,-0.1248 -0.0312,0 -0.039,0.008 -0.1014,0.0858 -0.5772,0.7332 -1.2714,0.7644 -1.404,0.7644 -0.507,0 -0.5928,-0.5538 -0.5928,-0.858 0,-0.2964 0.078,-0.6474 0.1326,-0.858 h 0.3042 c 0.234,0 0.7566,-0.0234 1.131,-0.1716 0.6162,-0.2496 0.6162,-0.7566 0.6162,-0.8112 0,-0.3588 -0.2886,-0.663 -0.7878,-0.663 -0.819,0 -1.9344,0.7878 -1.9344,2.1684 0,0.702 0.3744,1.365 1.1154,1.365 0.9984,0 1.6458,-0.78 1.6458,-0.897 z m -0.3354,-1.989 c 0,0.8268 -1.287,0.8268 -1.5444,0.8268 h -0.1638 c 0.3354,-1.2792 1.1388,-1.3026 1.2168,-1.3026 0.312,0 0.4914,0.2106 0.4914,0.4758 z"
           style="font-style:italic;font-variant:normal;font-weight:normal;font-stretch:normal;font-size:7.8px;font-family:'Latin Modern Roman';-inkscape-font-specification:'Latin Modern Roman,  Italic';baseline-shift:sub;stroke-width:0.75"
           id="path979" /><path
           d="m 278.2777,-494.4603 c 0,-0.078 -0.0624,-0.078 -0.117,-0.078 -0.0936,0 -0.1014,0.008 -0.1404,0.1326 -0.2106,0.6708 -0.6006,0.975 -0.9282,0.975 -0.156,0 -0.3666,-0.0936 -0.3666,-0.4992 0,-0.1872 0.0858,-0.5226 0.1482,-0.7878 l 0.2652,-1.0686 c 0.1092,-0.4056 0.3198,-0.8346 0.6864,-0.8346 0.0234,0 0.2184,0 0.3432,0.1092 -0.312,0.078 -0.312,0.3744 -0.312,0.3744 0,0.1014 0.0702,0.2496 0.273,0.2496 0.1404,0 0.3822,-0.1092 0.3822,-0.4134 0,-0.3978 -0.4524,-0.4914 -0.6786,-0.4914 -0.429,0 -0.6864,0.3822 -0.7644,0.5304 -0.1716,-0.468 -0.5538,-0.5304 -0.7488,-0.5304 -0.78,0 -1.2012,1.0218 -1.2012,1.2012 0,0.078 0.078,0.078 0.117,0.078 0.1014,0 0.1014,-0.008 0.1404,-0.1326 0.2106,-0.6708 0.6162,-0.975 0.9282,-0.975 0.2262,0 0.3744,0.1794 0.3744,0.4914 0,0.1872 -0.0936,0.5694 -0.1638,0.858 l -0.1794,0.7098 c -0.1248,0.507 -0.2886,1.131 -0.7566,1.131 -0.0234,0 -0.2106,0 -0.3432,-0.1092 0.234,-0.0624 0.3042,-0.2574 0.3042,-0.3744 0,-0.2028 -0.1638,-0.2496 -0.2652,-0.2496 -0.195,0 -0.39,0.1638 -0.39,0.4212 0,0.3042 0.3276,0.4836 0.6864,0.4836 0.3744,0 0.6318,-0.2964 0.7644,-0.5304 0.156,0.4446 0.5382,0.5304 0.741,0.5304 0.8034,0 1.2012,-1.0452 1.2012,-1.2012 z"
           style="font-style:italic;font-variant:normal;font-weight:normal;font-stretch:normal;font-size:7.8px;font-family:'Latin Modern Roman';-inkscape-font-specification:'Latin Modern Roman,  Italic';baseline-shift:sub;stroke-width:0.75"
           id="path981" /></g><g
         aria-label="3"
         transform="scale(1,-1)"
         id="text1796-3-9-7-1"
         style="font-style:normal;font-weight:normal;font-size:12px;line-height:1.25;font-family:sans-serif;letter-spacing:0px;word-spacing:0px;fill:#000000;fill-opacity:1;stroke:none;stroke-width:0.75"><path
           d="m 357.91601,-492.39001 c 0,-1.092 -0.84,-1.836 -1.656,-2.088 0.912,-0.492 1.332,-1.308 1.332,-2.064 0,-1.032 -0.996,-1.824 -2.184,-1.824 -0.924,0 -1.8,0.48 -2.304,1.32 l 0.432,0.648 c 0.348,-0.84 1.128,-1.272 1.86,-1.272 0.624,0 1.212,0.36 1.212,1.128 0,0.732 -0.492,1.44 -1.224,1.608 -0.072,0.012 -0.096,0.012 -0.948,0.084 v 0.732 h 0.852 c 1.296,0 1.56,1.116 1.56,1.716 0,0.936 -0.552,1.704 -1.476,1.704 -0.828,0 -1.776,-0.42 -2.304,-1.236 l -0.132,0.72 c 0.876,1.128 1.98,1.248 2.46,1.248 1.464,0 2.52,-1.164 2.52,-2.424 z"
           style="font-style:normal;font-variant:normal;font-weight:normal;font-stretch:normal;font-size:12px;font-family:'Latin Modern Sans';-inkscape-font-specification:'Latin Modern Sans';stroke-width:0.75"
           id="path987" /></g></g></g></svg>
