<?xml version="1.0" encoding="UTF-8" standalone="no"?>
<svg
   xmlns:dc="http://purl.org/dc/elements/1.1/"
   xmlns:cc="http://creativecommons.org/ns#"
   xmlns:rdf="http://www.w3.org/1999/02/22-rdf-syntax-ns#"
   xmlns:svg="http://www.w3.org/2000/svg"
   xmlns="http://www.w3.org/2000/svg"
   xmlns:sodipodi="http://sodipodi.sourceforge.net/DTD/sodipodi-0.dtd"
   xmlns:inkscape="http://www.inkscape.org/namespaces/inkscape"
   version="1.1"
   id="svg2"
   xml:space="preserve"
   width="300.95581"
   height="306.07184"
   viewBox="0 0 300.95581 306.07184"
   sodipodi:docname="Biochips_functionalization_cea2_step5.svg"
   inkscape:version="1.0 (4035a4fb49, 2020-05-01)"><metadata
     id="metadata8"><rdf:RDF><cc:Work
         rdf:about=""><dc:format>image/svg+xml</dc:format><dc:type
           rdf:resource="http://purl.org/dc/dcmitype/StillImage" /><dc:title></dc:title></cc:Work></rdf:RDF></metadata><defs
     id="defs6"><clipPath
       clipPathUnits="userSpaceOnUse"
       id="clipPath22"><path
         d="M 951.417,834.339 H 4861.42 V 7244.34 H 951.417 Z"
         id="path20" /></clipPath><clipPath
       clipPathUnits="userSpaceOnUse"
       id="clipPath54"><path
         d="M 951.417,834.339 H 4861.42 V 7244.34 H 951.417 Z M 4719.62,1345.34 h -45 v -82.8 l 22.8,67.2 22.2,-67.2 z"
         clip-rule="evenodd"
         id="path52" /></clipPath><clipPath
       clipPathUnits="userSpaceOnUse"
       id="clipPath64"><path
         d="M 951.417,834.339 H 4861.42 V 7244.34 H 951.417 Z"
         id="path62" /></clipPath><clipPath
       clipPathUnits="userSpaceOnUse"
       id="clipPath286"><path
         d="M 951.417,834.339 H 4861.42 V 7244.34 H 951.417 Z M 2424.62,5755.34 h -45 v -84 l 22.8,67.8 22.2,-67.8 z"
         clip-rule="evenodd"
         id="path284" /></clipPath><clipPath
       clipPathUnits="userSpaceOnUse"
       id="clipPath296"><path
         d="M 951.417,834.339 H 4861.42 V 7244.34 H 951.417 Z"
         id="path294" /></clipPath><clipPath
       clipPathUnits="userSpaceOnUse"
       id="clipPath308"><path
         d="M 951.417,834.339 H 4861.42 V 7244.34 H 951.417 Z M 2424.62,3055.34 h -45 v -84 l 22.8,67.8 22.2,-67.8 z"
         clip-rule="evenodd"
         id="path306" /></clipPath><clipPath
       clipPathUnits="userSpaceOnUse"
       id="clipPath318"><path
         d="M 951.417,834.339 H 4861.42 V 7244.34 H 951.417 Z"
         id="path316" /></clipPath><clipPath
       clipPathUnits="userSpaceOnUse"
       id="clipPath370"><path
         d="M 951.417,834.339 H 4861.42 V 7244.34 H 951.417 Z M 4719.62,5755.34 h -45 v -84 l 22.8,67.8 22.2,-67.8 z"
         clip-rule="evenodd"
         id="path368" /></clipPath><clipPath
       clipPathUnits="userSpaceOnUse"
       id="clipPath380"><path
         d="M 951.417,834.339 H 4861.42 V 7244.34 H 951.417 Z"
         id="path378" /></clipPath><clipPath
       clipPathUnits="userSpaceOnUse"
       id="clipPath392"><path
         d="M 951.417,834.339 H 4861.42 V 7244.34 H 951.417 Z M 4719.62,3460.34 h -45 v -84 l 22.8,67.8 22.2,-67.8 z"
         clip-rule="evenodd"
         id="path390" /></clipPath><clipPath
       clipPathUnits="userSpaceOnUse"
       id="clipPath402"><path
         d="M 951.417,834.339 H 4861.42 V 7244.34 H 951.417 Z"
         id="path400" /></clipPath></defs><sodipodi:namedview
     fit-margin-bottom="5"
     fit-margin-right="5"
     fit-margin-left="5"
     fit-margin-top="5"
     inkscape:document-rotation="0"
     pagecolor="#ffffff"
     bordercolor="#666666"
     borderopacity="1"
     objecttolerance="10"
     gridtolerance="10"
     guidetolerance="10"
     inkscape:pageopacity="0"
     inkscape:pageshadow="2"
     inkscape:window-width="1920"
     inkscape:window-height="1015"
     id="namedview4"
     showgrid="false"
     inkscape:zoom="0.9983453"
     inkscape:cx="-155.78365"
     inkscape:cy="15.32281"
     inkscape:window-x="0"
     inkscape:window-y="0"
     inkscape:window-maximized="1"
     inkscape:current-layer="g10" /><g
     id="g10"
     inkscape:groupmode="layer"
     inkscape:label="rapport"
     transform="matrix(0,1.3333333,1.3333333,0,-668.52282,-374.64641)"><g
       id="g5969"><path
         d="m 460.742,588.134 h 4.5 v 135 h -4.5 z"
         style="fill:#87cfff;fill-opacity:1;fill-rule:evenodd;stroke:none;stroke-width:0.1"
         id="path324" /><path
         d="m 460.742,588.134 h 4.5 v 135 h -4.5 z"
         style="fill:none;stroke:#87cfff;stroke-width:0.45;stroke-linecap:butt;stroke-linejoin:miter;stroke-miterlimit:10;stroke-dasharray:none;stroke-opacity:1"
         id="path326" /><path
         d="m 465.242,588.134 h 13.5 v 135 h -13.5 z"
         style="fill:#00008f;fill-opacity:1;fill-rule:evenodd;stroke:none;stroke-width:0.1"
         id="path328" /><path
         d="m 465.242,588.134 h 13.5 v 135 h -13.5 z"
         style="fill:none;stroke:#000000;stroke-width:0.45;stroke-linecap:butt;stroke-linejoin:miter;stroke-miterlimit:10;stroke-dasharray:none;stroke-opacity:1"
         id="path330" /><path
         d="m 469.742,507.134 v 67.5"
         style="fill:none;stroke:#000000;stroke-width:0.45;stroke-linecap:butt;stroke-linejoin:miter;stroke-miterlimit:10;stroke-dasharray:none;stroke-opacity:1"
         id="path372" /><path
         d="m 471.962,567.134 -2.22,6.78 -2.28,-6.78 2.28,1.38 2.22,-1.38"
         style="fill:#000000;fill-opacity:1;fill-rule:evenodd;stroke:none;stroke-width:0.1"
         id="path382" /><path
         d="m 471.962,567.134 -2.22,6.78 -2.28,-6.78 2.28,1.38 z"
         style="fill:none;stroke:#000000;stroke-width:0.45;stroke-linecap:butt;stroke-linejoin:miter;stroke-miterlimit:10;stroke-dasharray:none;stroke-opacity:1"
         id="path384" /><g
         aria-label="Immobilization
of probes"
         transform="matrix(0,1,1,0,0,0)"
         id="text2317-2-0"
         style="font-style:normal;font-weight:normal;font-size:12px;line-height:1.25;font-family:sans-serif;letter-spacing:0px;word-spacing:0px;fill:#000000;fill-opacity:1;stroke:none;stroke-width:0.75"><path
           d="m 506.21013,489.32294 v -8.328 h -1.068 v 8.328 z"
           style="font-style:normal;font-variant:normal;font-weight:normal;font-stretch:normal;font-size:12px;font-family:'Latin Modern Sans';-inkscape-font-specification:'Latin Modern Sans';text-align:center;text-anchor:middle;stroke-width:0.75"
           id="path5414" /><path
           d="m 515.90613,489.32294 v -3.576 c 0,-0.804 -0.192,-1.884 -1.644,-1.884 -0.72,0 -1.344,0.336 -1.788,0.984 -0.312,-0.912 -1.152,-0.984 -1.536,-0.984 -0.864,0 -1.428,0.492 -1.752,0.924 v -0.864 h -0.864 v 5.4 h 0.936 v -2.94 c 0,-0.816 0.324,-1.788 1.212,-1.788 1.116,0 1.176,0.78 1.176,1.236 v 3.492 h 0.936 v -2.94 c 0,-0.816 0.324,-1.788 1.212,-1.788 1.116,0 1.176,0.78 1.176,1.236 v 3.492 z"
           style="font-style:normal;font-variant:normal;font-weight:normal;font-stretch:normal;font-size:12px;font-family:'Latin Modern Sans';-inkscape-font-specification:'Latin Modern Sans';text-align:center;text-anchor:middle;stroke-width:0.75"
           id="path5416" /><path
           d="m 525.43411,489.32294 v -3.576 c 0,-0.804 -0.192,-1.884 -1.644,-1.884 -0.72,0 -1.344,0.336 -1.788,0.984 -0.312,-0.912 -1.152,-0.984 -1.536,-0.984 -0.864,0 -1.428,0.492 -1.752,0.924 v -0.864 h -0.864 v 5.4 h 0.936 v -2.94 c 0,-0.816 0.324,-1.788 1.212,-1.788 1.116,0 1.176,0.78 1.176,1.236 v 3.492 h 0.936 v -2.94 c 0,-0.816 0.324,-1.788 1.212,-1.788 1.116,0 1.176,0.78 1.176,1.236 v 3.492 z"
           style="font-style:normal;font-variant:normal;font-weight:normal;font-stretch:normal;font-size:12px;font-family:'Latin Modern Sans';-inkscape-font-specification:'Latin Modern Sans';text-align:center;text-anchor:middle;stroke-width:0.75"
           id="path5418" /><path
           d="m 532.0341,486.68294 c 0,-1.608 -1.2,-2.892 -2.628,-2.892 -1.476,0 -2.64,1.32 -2.64,2.892 0,1.584 1.224,2.772 2.628,2.772 1.44,0 2.64,-1.212 2.64,-2.772 z m -0.936,-0.12 c 0,1.416 -0.816,2.124 -1.704,2.124 -0.828,0 -1.692,-0.672 -1.692,-2.124 0,-1.452 0.912,-2.04 1.692,-2.04 0.84,0 1.704,0.624 1.704,2.04 z"
           style="font-style:normal;font-variant:normal;font-weight:normal;font-stretch:normal;font-size:12px;font-family:'Latin Modern Sans';-inkscape-font-specification:'Latin Modern Sans';text-align:center;text-anchor:middle;stroke-width:0.75"
           id="path5420" /><path
           d="m 538.16607,486.64694 c 0,-1.488 -0.816,-2.784 -1.944,-2.784 -0.468,0 -1.212,0.12 -1.932,0.708 v -3.576 h -0.9 v 8.328 h 0.936 v -0.552 c 0.288,0.264 0.804,0.684 1.608,0.684 1.2,0 2.232,-1.2 2.232,-2.808 z m -0.936,0 c 0,1.56 -1.008,2.076 -1.74,2.076 -0.468,0 -0.864,-0.216 -1.164,-0.768 v -2.652 c 0.192,-0.288 0.624,-0.708 1.284,-0.708 0.708,0 1.62,0.516 1.62,2.052 z"
           style="font-style:normal;font-variant:normal;font-weight:normal;font-stretch:normal;font-size:12px;font-family:'Latin Modern Sans';-inkscape-font-specification:'Latin Modern Sans';text-align:center;text-anchor:middle;stroke-width:0.75"
           id="path5422" /><path
           d="m 540.48205,489.32294 v -5.328 h -0.9 v 5.328 z m 0.096,-6.792 v -1.068 h -1.068 v 1.068 z"
           style="font-style:normal;font-variant:normal;font-weight:normal;font-stretch:normal;font-size:12px;font-family:'Latin Modern Sans';-inkscape-font-specification:'Latin Modern Sans';text-align:center;text-anchor:middle;stroke-width:0.75"
           id="path5424" /><path
           d="m 543.35003,489.32294 v -8.328 h -0.9 v 8.328 z"
           style="font-style:normal;font-variant:normal;font-weight:normal;font-stretch:normal;font-size:12px;font-family:'Latin Modern Sans';-inkscape-font-specification:'Latin Modern Sans';text-align:center;text-anchor:middle;stroke-width:0.75"
           id="path5426" /><path
           d="m 546.21802,489.32294 v -5.328 h -0.9 v 5.328 z m 0.096,-6.792 v -1.068 h -1.068 v 1.068 z"
           style="font-style:normal;font-variant:normal;font-weight:normal;font-stretch:normal;font-size:12px;font-family:'Latin Modern Sans';-inkscape-font-specification:'Latin Modern Sans';text-align:center;text-anchor:middle;stroke-width:0.75"
           id="path5428" /><path
           d="m 552.038,489.32294 v -0.744 h -1.764 c -0.144,0 -0.288,0.012 -0.432,0.012 h -1.02 l 3.192,-4.128 v -0.468 h -4.296 v 0.708 h 1.668 c 0.144,0 0.288,-0.012 0.432,-0.012 h 0.936 l -3.204,4.14 v 0.492 z"
           style="font-style:normal;font-variant:normal;font-weight:normal;font-stretch:normal;font-size:12px;font-family:'Latin Modern Sans';-inkscape-font-specification:'Latin Modern Sans';text-align:center;text-anchor:middle;stroke-width:0.75"
           id="path5430" /><path
           d="m 557.34199,489.32294 v -3.468 c 0,-1.224 -0.876,-2.064 -1.98,-2.064 -0.78,0 -1.32,0.192 -1.884,0.516 l 0.072,0.792 c 0.624,-0.444 1.224,-0.6 1.812,-0.6 0.564,0 1.044,0.48 1.044,1.368 v 0.516 c -1.8,0.024 -3.324,0.528 -3.324,1.584 0,0.516 0.324,1.488 1.368,1.488 0.168,0 1.296,-0.024 1.992,-0.564 v 0.432 z m -0.936,-1.584 c 0,0.228 0,0.528 -0.408,0.756 -0.348,0.216 -0.804,0.228 -0.936,0.228 -0.576,0 -1.116,-0.276 -1.116,-0.78 0,-0.84 1.944,-0.924 2.46,-0.948 z"
           style="font-style:normal;font-variant:normal;font-weight:normal;font-stretch:normal;font-size:12px;font-family:'Latin Modern Sans';-inkscape-font-specification:'Latin Modern Sans';text-align:center;text-anchor:middle;stroke-width:0.75"
           id="path5432" /><path
           d="m 562.18998,488.99894 -0.192,-0.708 c -0.312,0.252 -0.696,0.396 -1.08,0.396 -0.444,0 -0.612,-0.36 -0.612,-0.996 v -3 h 1.692 v -0.696 h -1.692 v -1.524 h -0.828 v 1.524 h -1.044 v 0.696 h 1.008 v 3.204 c 0,0.72 0.168,1.56 0.996,1.56 0.84,0 1.452,-0.3 1.752,-0.456 z"
           style="font-style:normal;font-variant:normal;font-weight:normal;font-stretch:normal;font-size:12px;font-family:'Latin Modern Sans';-inkscape-font-specification:'Latin Modern Sans';text-align:center;text-anchor:middle;stroke-width:0.75"
           id="path5434" /><path
           d="m 564.40996,489.32294 v -5.328 h -0.9 v 5.328 z m 0.096,-6.792 v -1.068 h -1.068 v 1.068 z"
           style="font-style:normal;font-variant:normal;font-weight:normal;font-stretch:normal;font-size:12px;font-family:'Latin Modern Sans';-inkscape-font-specification:'Latin Modern Sans';text-align:center;text-anchor:middle;stroke-width:0.75"
           id="path5436" /><path
           d="m 571.03394,486.68294 c 0,-1.608 -1.2,-2.892 -2.628,-2.892 -1.476,0 -2.64,1.32 -2.64,2.892 0,1.584 1.224,2.772 2.628,2.772 1.44,0 2.64,-1.212 2.64,-2.772 z m -0.936,-0.12 c 0,1.416 -0.816,2.124 -1.704,2.124 -0.828,0 -1.692,-0.672 -1.692,-2.124 0,-1.452 0.912,-2.04 1.692,-2.04 0.84,0 1.704,0.624 1.704,2.04 z"
           style="font-style:normal;font-variant:normal;font-weight:normal;font-stretch:normal;font-size:12px;font-family:'Latin Modern Sans';-inkscape-font-specification:'Latin Modern Sans';text-align:center;text-anchor:middle;stroke-width:0.75"
           id="path5438" /><path
           d="m 576.62591,489.32294 v -3.576 c 0,-0.792 -0.18,-1.884 -1.644,-1.884 -1.08,0 -1.668,0.816 -1.74,0.912 v -0.852 h -0.864 v 5.4 h 0.936 v -2.94 c 0,-0.792 0.3,-1.788 1.212,-1.788 1.152,0 1.164,0.852 1.164,1.236 v 3.492 z"
           style="font-style:normal;font-variant:normal;font-weight:normal;font-stretch:normal;font-size:12px;font-family:'Latin Modern Sans';-inkscape-font-specification:'Latin Modern Sans';text-align:center;text-anchor:middle;stroke-width:0.75"
           id="path5440" /><path
           d="m 523.3881,501.82069 c 0,-1.608 -1.2,-2.892 -2.628,-2.892 -1.476,0 -2.64,1.32 -2.64,2.892 0,1.584 1.224,2.772 2.628,2.772 1.44,0 2.64,-1.212 2.64,-2.772 z m -0.936,-0.12 c 0,1.416 -0.816,2.124 -1.704,2.124 -0.828,0 -1.692,-0.672 -1.692,-2.124 0,-1.452 0.912,-2.04 1.692,-2.04 0.84,0 1.704,0.624 1.704,2.04 z"
           style="font-style:normal;font-variant:normal;font-weight:normal;font-stretch:normal;font-size:12px;font-family:'Latin Modern Sans';-inkscape-font-specification:'Latin Modern Sans';text-align:center;text-anchor:middle;stroke-width:0.75"
           id="path5442" /><path
           d="m 527.92407,496.93669 v -0.804 c -0.144,-0.036 -0.516,-0.132 -0.96,-0.132 -1.128,0 -1.992,0.852 -1.992,2.052 v 1.08 h -0.888 v 0.696 h 0.888 v 4.632 h 0.9 v -4.632 h 1.32 v -0.696 h -1.356 v -1.428 c 0,-0.888 0.804,-0.972 1.116,-0.972 0.24,0 0.564,0.024 0.972,0.204 z"
           style="font-style:normal;font-variant:normal;font-weight:normal;font-stretch:normal;font-size:12px;font-family:'Latin Modern Sans';-inkscape-font-specification:'Latin Modern Sans';text-align:center;text-anchor:middle;stroke-width:0.75"
           id="path5444" /><path
           d="m 537.18805,501.78469 c 0,-1.44 -0.756,-2.784 -1.908,-2.784 -0.72,0 -1.416,0.252 -1.968,0.72 v -0.588 h -0.9 v 7.656 h 0.936 v -2.88 c 0.372,0.348 0.9,0.684 1.62,0.684 1.164,0 2.22,-1.176 2.22,-2.808 z m -0.936,0 c 0,1.236 -0.852,2.076 -1.752,2.076 -0.468,0 -0.792,-0.24 -1.032,-0.564 -0.12,-0.18 -0.12,-0.204 -0.12,-0.42 v -2.412 c 0.288,-0.42 0.756,-0.696 1.272,-0.696 0.912,0 1.632,0.912 1.632,2.016 z"
           style="font-style:normal;font-variant:normal;font-weight:normal;font-stretch:normal;font-size:12px;font-family:'Latin Modern Sans';-inkscape-font-specification:'Latin Modern Sans';text-align:center;text-anchor:middle;stroke-width:0.75"
           id="path5446" /><path
           d="m 541.22001,499.80469 v -0.804 c -1.068,0.012 -1.728,0.6 -2.1,1.152 v -1.092 h -0.84 v 5.4 h 0.9 v -2.568 c 0,-1.2 0.864,-2.064 2.04,-2.088 z"
           style="font-style:normal;font-variant:normal;font-weight:normal;font-stretch:normal;font-size:12px;font-family:'Latin Modern Sans';-inkscape-font-specification:'Latin Modern Sans';text-align:center;text-anchor:middle;stroke-width:0.75"
           id="path5448" /><path
           d="m 547.028,501.82069 c 0,-1.608 -1.2,-2.892 -2.628,-2.892 -1.476,0 -2.64,1.32 -2.64,2.892 0,1.584 1.224,2.772 2.628,2.772 1.44,0 2.64,-1.212 2.64,-2.772 z m -0.936,-0.12 c 0,1.416 -0.816,2.124 -1.704,2.124 -0.828,0 -1.692,-0.672 -1.692,-2.124 0,-1.452 0.912,-2.04 1.692,-2.04 0.84,0 1.704,0.624 1.704,2.04 z"
           style="font-style:normal;font-variant:normal;font-weight:normal;font-stretch:normal;font-size:12px;font-family:'Latin Modern Sans';-inkscape-font-specification:'Latin Modern Sans';text-align:center;text-anchor:middle;stroke-width:0.75"
           id="path5450" /><path
           d="m 553.15997,501.78469 c 0,-1.488 -0.816,-2.784 -1.944,-2.784 -0.468,0 -1.212,0.12 -1.932,0.708 v -3.576 h -0.9 v 8.328 h 0.936 v -0.552 c 0.288,0.264 0.804,0.684 1.608,0.684 1.2,0 2.232,-1.2 2.232,-2.808 z m -0.936,0 c 0,1.56 -1.008,2.076 -1.74,2.076 -0.468,0 -0.864,-0.216 -1.164,-0.768 v -2.652 c 0.192,-0.288 0.624,-0.708 1.284,-0.708 0.708,0 1.62,0.516 1.62,2.052 z"
           style="font-style:normal;font-variant:normal;font-weight:normal;font-stretch:normal;font-size:12px;font-family:'Latin Modern Sans';-inkscape-font-specification:'Latin Modern Sans';text-align:center;text-anchor:middle;stroke-width:0.75"
           id="path5452" /><path
           d="m 558.90795,501.83269 c 0,-0.408 -0.012,-1.308 -0.48,-2.028 -0.492,-0.744 -1.224,-0.876 -1.656,-0.876 -1.332,0 -2.412,1.272 -2.412,2.82 0,1.584 1.152,2.844 2.592,2.844 0.756,0 1.44,-0.288 1.908,-0.624 l -0.072,-0.78 c -0.756,0.624 -1.548,0.672 -1.824,0.672 -0.96,0 -1.728,-0.852 -1.764,-2.028 z m -0.684,-0.66 h -2.964 c 0.192,-0.912 0.828,-1.512 1.512,-1.512 0.624,0 1.296,0.408 1.452,1.512 z"
           style="font-style:normal;font-variant:normal;font-weight:normal;font-stretch:normal;font-size:12px;font-family:'Latin Modern Sans';-inkscape-font-specification:'Latin Modern Sans';text-align:center;text-anchor:middle;stroke-width:0.75"
           id="path5454" /><path
           d="m 563.58793,502.92469 c 0,-0.66 -0.444,-1.068 -0.468,-1.104 -0.468,-0.42 -0.792,-0.492 -1.392,-0.6 -0.66,-0.132 -1.212,-0.252 -1.212,-0.84 0,-0.744 0.864,-0.744 1.02,-0.744 0.384,0 1.02,0.048 1.704,0.456 l 0.144,-0.78 c -0.624,-0.288 -1.116,-0.384 -1.728,-0.384 -0.3,0 -1.992,0 -1.992,1.572 0,0.588 0.348,0.972 0.648,1.2 0.372,0.264 0.636,0.312 1.296,0.444 0.432,0.084 1.128,0.228 1.128,0.864 0,0.828 -0.948,0.828 -1.128,0.828 -0.972,0 -1.644,-0.444 -1.86,-0.588 l -0.144,0.816 c 0.384,0.192 1.044,0.528 2.016,0.528 0.216,0 0.876,0 1.392,-0.384 0.372,-0.288 0.576,-0.768 0.576,-1.284 z"
           style="font-style:normal;font-variant:normal;font-weight:normal;font-stretch:normal;font-size:12px;font-family:'Latin Modern Sans';-inkscape-font-specification:'Latin Modern Sans';text-align:center;text-anchor:middle;stroke-width:0.75"
           id="path5456" /></g><g
         aria-label="O"
         transform="matrix(0,1,1,0,0,0)"
         id="text2317-2-0-3-2-10-2-43-59-4-7-0"
         style="font-style:normal;font-weight:normal;font-size:12px;line-height:1.25;font-family:sans-serif;letter-spacing:0px;word-spacing:0px;fill:#000000;fill-opacity:1;stroke:none;stroke-width:0.75"><path
           d="m 721.81646,423.58678 c 0,-2.52 -1.74,-4.452 -3.732,-4.452 -2.04,0 -3.744,1.956 -3.744,4.452 0,2.544 1.776,4.404 3.732,4.404 2.004,0 3.744,-1.884 3.744,-4.404 z m -1.068,-0.18 c 0,2.34 -1.296,3.804 -2.664,3.804 -1.416,0 -2.676,-1.5 -2.676,-3.804 0,-2.196 1.32,-3.504 2.664,-3.504 1.392,0 2.676,1.356 2.676,3.504 z"
           style="font-style:normal;font-variant:normal;font-weight:normal;font-stretch:normal;font-size:12px;font-family:'Latin Modern Sans';-inkscape-font-specification:'Latin Modern Sans';stroke-width:0.75"
           id="path5501" /></g><path
         d="m 299.94068,678.95671 -3.21402,8.75416 6.25529,-5.24544 -1.81234,6.86512 4.96913,-3.38882 -0.71569,4.99938 3.81472,-1.50687 0.61202,3.06878 2.76168,-0.15191"
         style="fill:none;stroke:#000000;stroke-width:0.45;stroke-linecap:butt;stroke-linejoin:miter;stroke-miterlimit:10;stroke-dasharray:none;stroke-opacity:1"
         id="path28" /><g
         aria-label="oligo"
         transform="matrix(0,1,1,0,0,0)"
         id="text2317-2-0-3"
         style="font-style:normal;font-weight:normal;font-size:12px;line-height:1.25;font-family:sans-serif;letter-spacing:0px;word-spacing:0px;fill:#000000;fill-opacity:1;stroke:none;stroke-width:0.75"><path
           d="m 663.95588,294.02943 c 0,-1.608 -1.2,-2.892 -2.628,-2.892 -1.476,0 -2.64,1.32 -2.64,2.892 0,1.584 1.224,2.772 2.628,2.772 1.44,0 2.64,-1.212 2.64,-2.772 z m -0.936,-0.12 c 0,1.416 -0.816,2.124 -1.704,2.124 -0.828,0 -1.692,-0.672 -1.692,-2.124 0,-1.452 0.912,-2.04 1.692,-2.04 0.84,0 1.704,0.624 1.704,2.04 z"
           style="font-style:normal;font-variant:normal;font-weight:normal;font-stretch:normal;font-size:12px;font-family:'Latin Modern Sans';-inkscape-font-specification:'Latin Modern Sans';stroke-width:0.75"
           id="path5487" /><path
           d="m 666.19986,296.66943 v -8.328 h -0.9 v 8.328 z"
           style="font-style:normal;font-variant:normal;font-weight:normal;font-stretch:normal;font-size:12px;font-family:'Latin Modern Sans';-inkscape-font-specification:'Latin Modern Sans';stroke-width:0.75"
           id="path5489" /><path
           d="m 669.06784,296.66943 v -5.328 h -0.9 v 5.328 z m 0.096,-6.792 v -1.068 h -1.068 v 1.068 z"
           style="font-style:normal;font-variant:normal;font-weight:normal;font-stretch:normal;font-size:12px;font-family:'Latin Modern Sans';-inkscape-font-specification:'Latin Modern Sans';stroke-width:0.75"
           id="path5491" /><path
           d="m 675.88382,291.96543 -0.132,-0.756 c -0.84,0 -1.536,0.228 -1.896,0.384 -0.252,-0.204 -0.66,-0.384 -1.14,-0.384 -1.032,0 -1.908,0.864 -1.908,1.956 0,0.444 0.156,0.876 0.396,1.188 -0.348,0.492 -0.348,0.96 -0.348,1.02 0,0.312 0.108,0.66 0.312,0.912 -0.624,0.372 -0.768,0.924 -0.768,1.236 0,0.9 1.188,1.62 2.652,1.62 1.476,0 2.664,-0.708 2.664,-1.632 0,-1.668 -2.004,-1.668 -2.472,-1.668 h -1.056 c -0.156,0 -0.696,0 -0.696,-0.636 0,-0.132 0.048,-0.324 0.132,-0.432 0.252,0.18 0.648,0.348 1.092,0.348 1.08,0 1.92,-0.888 1.92,-1.956 0,-0.576 -0.264,-1.02 -0.396,-1.2 l 0.048,0.012 c 0.264,0 0.6,-0.048 0.888,-0.048 0.216,0 0.708,0.036 0.708,0.036 z m -2.088,1.2 c 0,0.936 -0.564,1.272 -1.08,1.272 -0.444,0 -1.068,-0.276 -1.068,-1.272 0,-0.996 0.624,-1.272 1.068,-1.272 0.516,0 1.08,0.336 1.08,1.272 z m 1.08,4.368 c 0,0.528 -0.828,0.924 -1.812,0.924 -0.972,0 -1.824,-0.372 -1.824,-0.936 0,-0.036 0,-0.816 0.936,-0.816 h 1.08 c 0.264,0 1.62,0 1.62,0.828 z"
           style="font-style:normal;font-variant:normal;font-weight:normal;font-stretch:normal;font-size:12px;font-family:'Latin Modern Sans';-inkscape-font-specification:'Latin Modern Sans';stroke-width:0.75"
           id="path5493" /><path
           d="m 681.6918,294.02943 c 0,-1.608 -1.2,-2.892 -2.628,-2.892 -1.476,0 -2.64,1.32 -2.64,2.892 0,1.584 1.224,2.772 2.628,2.772 1.44,0 2.64,-1.212 2.64,-2.772 z m -0.936,-0.12 c 0,1.416 -0.816,2.124 -1.704,2.124 -0.828,0 -1.692,-0.672 -1.692,-2.124 0,-1.452 0.912,-2.04 1.692,-2.04 0.84,0 1.704,0.624 1.704,2.04 z"
           style="font-style:normal;font-variant:normal;font-weight:normal;font-stretch:normal;font-size:12px;font-family:'Latin Modern Sans';-inkscape-font-specification:'Latin Modern Sans';stroke-width:0.75"
           id="path5495" /></g><path
         id="path126-9"
         style="fill:none;stroke:#000000;stroke-width:0.45;stroke-linecap:butt;stroke-linejoin:miter;stroke-miterlimit:10;stroke-dasharray:none;stroke-opacity:1"
         d="m 341.12184,696.97882 h -15" /><path
         id="path130-0"
         style="fill:none;stroke:#000000;stroke-width:0.45;stroke-linecap:butt;stroke-linejoin:miter;stroke-miterlimit:10;stroke-dasharray:none;stroke-opacity:1"
         d="m 416.12184,696.97882 h -15 l -15,-14.94 -15,14.94 -15,-14.94 -15,14.94" /><g
         aria-label="N"
         transform="matrix(0,1,1,0,0,0)"
         id="text2317-2-0-3-2-10-8"
         style="font-style:normal;font-weight:normal;font-size:12px;line-height:1.25;font-family:sans-serif;letter-spacing:0px;word-spacing:0px;fill:#000000;fill-opacity:1;stroke:none;stroke-width:0.75"><path
           d="m 700.4971,322.22705 v -8.328 h -0.936 v 7.476 h -0.012 l -0.804,-1.644 -2.94,-5.832 h -1.488 v 8.328 h 0.936 v -7.476 h 0.012 l 0.804,1.644 2.94,5.832 z"
           style="font-style:normal;font-variant:normal;font-weight:normal;font-stretch:normal;font-size:12px;font-family:'Latin Modern Sans';-inkscape-font-specification:'Latin Modern Sans';stroke-width:0.75"
           id="path5498" /></g><g
         aria-label="O"
         transform="matrix(0,1,1,0,0,0)"
         id="text2317-2-0-3-2-10-2-43-5-3-5-3"
         style="font-style:normal;font-weight:normal;font-size:12px;line-height:1.25;font-family:sans-serif;letter-spacing:0px;word-spacing:0px;fill:#000000;fill-opacity:1;stroke:none;stroke-width:0.75"><path
           d="m 679.50634,423.58678 c 0,-2.52 -1.74,-4.452 -3.732,-4.452 -2.04,0 -3.744,1.956 -3.744,4.452 0,2.544 1.776,4.404 3.732,4.404 2.004,0 3.744,-1.884 3.744,-4.404 z m -1.068,-0.18 c 0,2.34 -1.296,3.804 -2.664,3.804 -1.416,0 -2.676,-1.5 -2.676,-3.804 0,-2.196 1.32,-3.504 2.664,-3.504 1.392,0 2.676,1.356 2.676,3.504 z"
           style="font-style:normal;font-variant:normal;font-weight:normal;font-stretch:normal;font-size:12px;font-family:'Latin Modern Sans';-inkscape-font-specification:'Latin Modern Sans';stroke-width:0.75"
           id="path5504" /></g><path
         d="m 423.56278,704.09563 v 7.62"
         style="fill:none;stroke:#000000;stroke-width:0.45;stroke-linecap:butt;stroke-linejoin:miter;stroke-miterlimit:10;stroke-dasharray:none;stroke-opacity:1"
         id="path224-7-8-0-1" /><path
         d="m 423.56278,682.67563 v 7.68"
         style="fill:none;stroke:#000000;stroke-width:0.45;stroke-linecap:butt;stroke-linejoin:miter;stroke-miterlimit:10;stroke-dasharray:none;stroke-opacity:1"
         id="path226-2-4-5-0" /><path
         d="m 438.44278,696.81624 h -7.62"
         style="fill:none;stroke:#000000;stroke-width:0.45;stroke-linecap:butt;stroke-linejoin:miter;stroke-miterlimit:10;stroke-dasharray:none;stroke-opacity:1"
         id="path230-1-1-9-3" /><path
         d="m 459.62278,696.81624 h -7.74"
         style="fill:none;stroke:#000000;stroke-width:0.45;stroke-linecap:butt;stroke-linejoin:miter;stroke-miterlimit:10;stroke-dasharray:none;stroke-opacity:1"
         id="path232-0-0-4-4" /><g
         aria-label="O"
         transform="matrix(0,1,1,0,0,0)"
         id="text2317-2-0-3-2-10-2-4-6-3-6-0"
         style="font-style:normal;font-weight:normal;font-size:12px;line-height:1.25;font-family:sans-serif;letter-spacing:0px;word-spacing:0px;fill:#000000;fill-opacity:1;stroke:none;stroke-width:0.75"><path
           d="m 700.55425,444.95598 c 0,-2.52 -1.74,-4.452 -3.732,-4.452 -2.04,0 -3.744,1.956 -3.744,4.452 0,2.544 1.776,4.404 3.732,4.404 2.004,0 3.744,-1.884 3.744,-4.404 z m -1.068,-0.18 c 0,2.34 -1.296,3.804 -2.664,3.804 -1.416,0 -2.676,-1.5 -2.676,-3.804 0,-2.196 1.32,-3.504 2.664,-3.504 1.392,0 2.676,1.356 2.676,3.504 z"
           style="font-style:normal;font-variant:normal;font-weight:normal;font-stretch:normal;font-size:12px;font-family:'Latin Modern Sans';-inkscape-font-specification:'Latin Modern Sans';stroke-width:0.75"
           id="path5507" /></g><g
         aria-label="Si"
         transform="matrix(0,1,1,0,0,0)"
         id="text2317-2-0-3-2-10-2-78-9-4-2-9"
         style="font-style:normal;font-weight:normal;font-size:12px;line-height:1.25;font-family:sans-serif;letter-spacing:0px;word-spacing:0px;fill:#000000;fill-opacity:1;stroke:none;stroke-width:0.75"><path
           d="m 698.22024,425.45878 c 0,-0.78 -0.372,-1.356 -0.636,-1.644 -0.564,-0.6 -0.96,-0.708 -2.064,-0.984 -0.696,-0.168 -0.888,-0.216 -1.248,-0.528 -0.084,-0.072 -0.42,-0.42 -0.42,-0.948 0,-0.708 0.648,-1.428 1.752,-1.428 1.008,0 1.584,0.396 2.028,0.768 l 0.18,-0.96 c -0.66,-0.396 -1.32,-0.6 -2.196,-0.6 -1.668,0 -2.712,1.176 -2.712,2.364 0,0.516 0.168,1.02 0.648,1.524 0.504,0.54 1.032,0.684 1.74,0.852 1.02,0.252 1.14,0.288 1.476,0.588 0.24,0.204 0.504,0.6 0.504,1.116 0,0.792 -0.66,1.584 -1.752,1.584 -0.492,0 -1.572,-0.12 -2.58,-0.972 l -0.18,0.972 c 1.056,0.66 2.016,0.828 2.772,0.828 1.584,0 2.688,-1.212 2.688,-2.532 z"
           style="font-style:normal;font-variant:normal;font-weight:normal;font-stretch:normal;font-size:12px;font-family:'Latin Modern Sans';-inkscape-font-specification:'Latin Modern Sans';stroke-width:0.75"
           id="path5510" /><path
           d="m 700.77624,427.72678 v -5.328 h -0.9 v 5.328 z m 0.096,-6.792 v -1.068 h -1.068 v 1.068 z"
           style="font-style:normal;font-variant:normal;font-weight:normal;font-stretch:normal;font-size:12px;font-family:'Latin Modern Sans';-inkscape-font-specification:'Latin Modern Sans';stroke-width:0.75"
           id="path5512" /></g><path
         d="m 863.24741,376.94945 -3.71922,-0.0402 -2.14163,3.04099 -1.11103,-3.54962 -3.55396,-1.09709 3.03256,-2.15355 -0.0548,-3.71903 2.98526,2.21865 3.52006,-1.20139 -1.18757,3.52475 z"
         sodipodi:type="star"
         style="fill:#ff4400;fill-opacity:1;stroke:none;stroke-width:0.5;stroke-miterlimit:10;stroke-opacity:1"
         id="path3579"
         sodipodi:sides="5"
         sodipodi:cx="858.25189"
         sodipodi:cy="374.41644"
         sodipodi:r1="5.6010079"
         sodipodi:r2="2.800504"
         sodipodi:arg1="0.46927603"
         sodipodi:arg2="1.0975946"
         inkscape:flatsided="false"
         inkscape:rounded="0"
         inkscape:randomized="0"
         transform="matrix(0,0.75000002,0.75000002,0,7.6616268,9.4690128)"
         inkscape:transform-center-x="0.26740033"
         inkscape:transform-center-y="0.27411343" /><path
         id="path28-4"
         style="fill:none;stroke:#000000;stroke-width:0.45;stroke-linecap:butt;stroke-linejoin:miter;stroke-miterlimit:10;stroke-dasharray:none;stroke-opacity:1"
         d="m 299.94068,636.27776 -3.21402,8.75416 6.25529,-5.24544 -1.81234,6.86512 4.96913,-3.38882 -0.71569,4.99938 3.81472,-1.50687 0.61202,3.06878 2.76168,-0.15191" /><g
         aria-label="oligo"
         transform="matrix(0,1,1,0,0,0)"
         id="text2317-2-0-3-9"
         style="font-style:normal;font-weight:normal;font-size:12px;line-height:1.25;font-family:sans-serif;letter-spacing:0px;word-spacing:0px;fill:#000000;fill-opacity:1;stroke:none;stroke-width:0.75"><path
           d="m 621.27693,294.02943 c 0,-1.608 -1.2,-2.892 -2.628,-2.892 -1.476,0 -2.64,1.32 -2.64,2.892 0,1.584 1.224,2.772 2.628,2.772 1.44,0 2.64,-1.212 2.64,-2.772 z m -0.936,-0.12 c 0,1.416 -0.816,2.124 -1.704,2.124 -0.828,0 -1.692,-0.672 -1.692,-2.124 0,-1.452 0.912,-2.04 1.692,-2.04 0.84,0 1.704,0.624 1.704,2.04 z"
           style="font-style:normal;font-variant:normal;font-weight:normal;font-stretch:normal;font-size:12px;font-family:'Latin Modern Sans';-inkscape-font-specification:'Latin Modern Sans';stroke-width:0.75"
           id="path5470" /><path
           d="m 623.5209,296.66943 v -8.328 h -0.9 v 8.328 z"
           style="font-style:normal;font-variant:normal;font-weight:normal;font-stretch:normal;font-size:12px;font-family:'Latin Modern Sans';-inkscape-font-specification:'Latin Modern Sans';stroke-width:0.75"
           id="path5472" /><path
           d="m 626.38888,296.66943 v -5.328 h -0.9 v 5.328 z m 0.096,-6.792 v -1.068 h -1.068 v 1.068 z"
           style="font-style:normal;font-variant:normal;font-weight:normal;font-stretch:normal;font-size:12px;font-family:'Latin Modern Sans';-inkscape-font-specification:'Latin Modern Sans';stroke-width:0.75"
           id="path5474" /><path
           d="m 633.20486,291.96543 -0.132,-0.756 c -0.84,0 -1.536,0.228 -1.896,0.384 -0.252,-0.204 -0.66,-0.384 -1.14,-0.384 -1.032,0 -1.908,0.864 -1.908,1.956 0,0.444 0.156,0.876 0.396,1.188 -0.348,0.492 -0.348,0.96 -0.348,1.02 0,0.312 0.108,0.66 0.312,0.912 -0.624,0.372 -0.768,0.924 -0.768,1.236 0,0.9 1.188,1.62 2.652,1.62 1.476,0 2.664,-0.708 2.664,-1.632 0,-1.668 -2.004,-1.668 -2.472,-1.668 h -1.056 c -0.156,0 -0.696,0 -0.696,-0.636 0,-0.132 0.048,-0.324 0.132,-0.432 0.252,0.18 0.648,0.348 1.092,0.348 1.08,0 1.92,-0.888 1.92,-1.956 0,-0.576 -0.264,-1.02 -0.396,-1.2 l 0.048,0.012 c 0.264,0 0.6,-0.048 0.888,-0.048 0.216,0 0.708,0.036 0.708,0.036 z m -2.088,1.2 c 0,0.936 -0.564,1.272 -1.08,1.272 -0.444,0 -1.068,-0.276 -1.068,-1.272 0,-0.996 0.624,-1.272 1.068,-1.272 0.516,0 1.08,0.336 1.08,1.272 z m 1.08,4.368 c 0,0.528 -0.828,0.924 -1.812,0.924 -0.972,0 -1.824,-0.372 -1.824,-0.936 0,-0.036 0,-0.816 0.936,-0.816 h 1.08 c 0.264,0 1.62,0 1.62,0.828 z"
           style="font-style:normal;font-variant:normal;font-weight:normal;font-stretch:normal;font-size:12px;font-family:'Latin Modern Sans';-inkscape-font-specification:'Latin Modern Sans';stroke-width:0.75"
           id="path5476" /><path
           d="m 639.01284,294.02943 c 0,-1.608 -1.2,-2.892 -2.628,-2.892 -1.476,0 -2.64,1.32 -2.64,2.892 0,1.584 1.224,2.772 2.628,2.772 1.44,0 2.64,-1.212 2.64,-2.772 z m -0.936,-0.12 c 0,1.416 -0.816,2.124 -1.704,2.124 -0.828,0 -1.692,-0.672 -1.692,-2.124 0,-1.452 0.912,-2.04 1.692,-2.04 0.84,0 1.704,0.624 1.704,2.04 z"
           style="font-style:normal;font-variant:normal;font-weight:normal;font-stretch:normal;font-size:12px;font-family:'Latin Modern Sans';-inkscape-font-specification:'Latin Modern Sans';stroke-width:0.75"
           id="path5478" /></g><path
         d="m 341.12184,654.29987 h -15"
         style="fill:none;stroke:#000000;stroke-width:0.45;stroke-linecap:butt;stroke-linejoin:miter;stroke-miterlimit:10;stroke-dasharray:none;stroke-opacity:1"
         id="path126-9-0" /><path
         d="m 416.12184,654.29987 h -15 l -15,-14.94 -15,14.94 -15,-14.94 -15,14.94"
         style="fill:none;stroke:#000000;stroke-width:0.45;stroke-linecap:butt;stroke-linejoin:miter;stroke-miterlimit:10;stroke-dasharray:none;stroke-opacity:1"
         id="path130-0-7" /><g
         aria-label="N"
         transform="matrix(0,1,1,0,0,0)"
         id="text2317-2-0-3-2-10-8-5"
         style="font-style:normal;font-weight:normal;font-size:12px;line-height:1.25;font-family:sans-serif;letter-spacing:0px;word-spacing:0px;fill:#000000;fill-opacity:1;stroke:none;stroke-width:0.75"><path
           d="m 657.81815,322.22705 v -8.328 h -0.936 v 7.476 h -0.012 l -0.804,-1.644 -2.94,-5.832 h -1.488 v 8.328 h 0.936 v -7.476 h 0.012 l 0.804,1.644 2.94,5.832 z"
           style="font-style:normal;font-variant:normal;font-weight:normal;font-stretch:normal;font-size:12px;font-family:'Latin Modern Sans';-inkscape-font-specification:'Latin Modern Sans';stroke-width:0.75"
           id="path5484" /></g><g
         aria-label="O"
         transform="matrix(0,1,1,0,0,0)"
         id="text2317-2-0-3-2-10-2-43-5-3-5-3-7"
         style="font-style:normal;font-weight:normal;font-size:12px;line-height:1.25;font-family:sans-serif;letter-spacing:0px;word-spacing:0px;fill:#000000;fill-opacity:1;stroke:none;stroke-width:0.75"><path
           d="m 636.82738,423.58678 c 0,-2.52 -1.74,-4.452 -3.732,-4.452 -2.04,0 -3.744,1.956 -3.744,4.452 0,2.544 1.776,4.404 3.732,4.404 2.004,0 3.744,-1.884 3.744,-4.404 z m -1.068,-0.18 c 0,2.34 -1.296,3.804 -2.664,3.804 -1.416,0 -2.676,-1.5 -2.676,-3.804 0,-2.196 1.32,-3.504 2.664,-3.504 1.392,0 2.676,1.356 2.676,3.504 z"
           style="font-style:normal;font-variant:normal;font-weight:normal;font-stretch:normal;font-size:12px;font-family:'Latin Modern Sans';-inkscape-font-specification:'Latin Modern Sans';stroke-width:0.75"
           id="path5515" /></g><path
         id="path224-7-8-0-1-4"
         style="fill:none;stroke:#000000;stroke-width:0.45;stroke-linecap:butt;stroke-linejoin:miter;stroke-miterlimit:10;stroke-dasharray:none;stroke-opacity:1"
         d="m 423.56278,661.41668 v 7.62" /><path
         id="path226-2-4-5-0-8"
         style="fill:none;stroke:#000000;stroke-width:0.45;stroke-linecap:butt;stroke-linejoin:miter;stroke-miterlimit:10;stroke-dasharray:none;stroke-opacity:1"
         d="m 423.56278,639.99668 v 7.68" /><path
         id="path230-1-1-9-3-0"
         style="fill:none;stroke:#000000;stroke-width:0.45;stroke-linecap:butt;stroke-linejoin:miter;stroke-miterlimit:10;stroke-dasharray:none;stroke-opacity:1"
         d="m 438.44278,654.13729 h -7.62" /><path
         id="path232-0-0-4-4-4"
         style="fill:none;stroke:#000000;stroke-width:0.45;stroke-linecap:butt;stroke-linejoin:miter;stroke-miterlimit:10;stroke-dasharray:none;stroke-opacity:1"
         d="m 459.62278,654.13729 h -7.74" /><g
         aria-label="O"
         transform="matrix(0,1,1,0,0,0)"
         id="text2317-2-0-3-2-10-2-4-6-3-6-0-2"
         style="font-style:normal;font-weight:normal;font-size:12px;line-height:1.25;font-family:sans-serif;letter-spacing:0px;word-spacing:0px;fill:#000000;fill-opacity:1;stroke:none;stroke-width:0.75"><path
           d="m 657.87529,444.95598 c 0,-2.52 -1.74,-4.452 -3.732,-4.452 -2.04,0 -3.744,1.956 -3.744,4.452 0,2.544 1.776,4.404 3.732,4.404 2.004,0 3.744,-1.884 3.744,-4.404 z m -1.068,-0.18 c 0,2.34 -1.296,3.804 -2.664,3.804 -1.416,0 -2.676,-1.5 -2.676,-3.804 0,-2.196 1.32,-3.504 2.664,-3.504 1.392,0 2.676,1.356 2.676,3.504 z"
           style="font-style:normal;font-variant:normal;font-weight:normal;font-stretch:normal;font-size:12px;font-family:'Latin Modern Sans';-inkscape-font-specification:'Latin Modern Sans';stroke-width:0.75"
           id="path5518" /></g><g
         aria-label="Si"
         transform="matrix(0,1,1,0,0,0)"
         id="text2317-2-0-3-2-10-2-78-9-4-2-9-6"
         style="font-style:normal;font-weight:normal;font-size:12px;line-height:1.25;font-family:sans-serif;letter-spacing:0px;word-spacing:0px;fill:#000000;fill-opacity:1;stroke:none;stroke-width:0.75"><path
           d="m 655.54128,425.45878 c 0,-0.78 -0.372,-1.356 -0.636,-1.644 -0.564,-0.6 -0.96,-0.708 -2.064,-0.984 -0.696,-0.168 -0.888,-0.216 -1.248,-0.528 -0.084,-0.072 -0.42,-0.42 -0.42,-0.948 0,-0.708 0.648,-1.428 1.752,-1.428 1.008,0 1.584,0.396 2.028,0.768 l 0.18,-0.96 c -0.66,-0.396 -1.32,-0.6 -2.196,-0.6 -1.668,0 -2.712,1.176 -2.712,2.364 0,0.516 0.168,1.02 0.648,1.524 0.504,0.54 1.032,0.684 1.74,0.852 1.02,0.252 1.14,0.288 1.476,0.588 0.24,0.204 0.504,0.6 0.504,1.116 0,0.792 -0.66,1.584 -1.752,1.584 -0.492,0 -1.572,-0.12 -2.58,-0.972 l -0.18,0.972 c 1.056,0.66 2.016,0.828 2.772,0.828 1.584,0 2.688,-1.212 2.688,-2.532 z"
           style="font-style:normal;font-variant:normal;font-weight:normal;font-stretch:normal;font-size:12px;font-family:'Latin Modern Sans';-inkscape-font-specification:'Latin Modern Sans';stroke-width:0.75"
           id="path5521" /><path
           d="m 658.09728,427.72678 v -5.328 h -0.9 v 5.328 z m 0.096,-6.792 v -1.068 h -1.068 v 1.068 z"
           style="font-style:normal;font-variant:normal;font-weight:normal;font-stretch:normal;font-size:12px;font-family:'Latin Modern Sans';-inkscape-font-specification:'Latin Modern Sans';stroke-width:0.75"
           id="path5523" /></g><path
         d="m 863.24741,376.94945 -3.71922,-0.0402 -2.14163,3.04099 -1.11103,-3.54962 -3.55396,-1.09709 3.03256,-2.15355 -0.0548,-3.71903 2.98526,2.21865 3.52006,-1.20139 -1.18757,3.52475 z"
         inkscape:transform-center-y="0.27411343"
         inkscape:transform-center-x="0.26740033"
         transform="matrix(0,0.75000002,0.75000002,0,7.6616268,-33.209943)"
         inkscape:randomized="0"
         inkscape:rounded="0"
         inkscape:flatsided="false"
         sodipodi:arg2="1.0975946"
         sodipodi:arg1="0.46927603"
         sodipodi:r2="2.800504"
         sodipodi:r1="5.6010079"
         sodipodi:cy="374.41644"
         sodipodi:cx="858.25189"
         sodipodi:sides="5"
         id="path3579-0"
         style="fill:#ff4400;fill-opacity:1;stroke:none;stroke-width:0.5;stroke-miterlimit:10;stroke-opacity:1"
         sodipodi:type="star" /><path
         id="path28-2"
         style="fill:none;stroke:#000000;stroke-width:0.45;stroke-linecap:butt;stroke-linejoin:miter;stroke-miterlimit:10;stroke-dasharray:none;stroke-opacity:1"
         d="m 299.94068,593.5988 -3.21402,8.75416 6.25529,-5.24544 -1.81234,6.86512 4.96913,-3.38882 -0.71569,4.99938 3.81472,-1.50687 0.61202,3.06878 2.76168,-0.15191" /><g
         aria-label="oligo"
         transform="matrix(0,1,1,0,0,0)"
         id="text2317-2-0-3-22"
         style="font-style:normal;font-weight:normal;font-size:12px;line-height:1.25;font-family:sans-serif;letter-spacing:0px;word-spacing:0px;fill:#000000;fill-opacity:1;stroke:none;stroke-width:0.75"><path
           d="m 578.59797,294.02943 c 0,-1.608 -1.2,-2.892 -2.628,-2.892 -1.476,0 -2.64,1.32 -2.64,2.892 0,1.584 1.224,2.772 2.628,2.772 1.44,0 2.64,-1.212 2.64,-2.772 z m -0.936,-0.12 c 0,1.416 -0.816,2.124 -1.704,2.124 -0.828,0 -1.692,-0.672 -1.692,-2.124 0,-1.452 0.912,-2.04 1.692,-2.04 0.84,0 1.704,0.624 1.704,2.04 z"
           style="font-style:normal;font-variant:normal;font-weight:normal;font-stretch:normal;font-size:12px;font-family:'Latin Modern Sans';-inkscape-font-specification:'Latin Modern Sans';stroke-width:0.75"
           id="path5459" /><path
           d="m 580.84195,296.66943 v -8.328 h -0.9 v 8.328 z"
           style="font-style:normal;font-variant:normal;font-weight:normal;font-stretch:normal;font-size:12px;font-family:'Latin Modern Sans';-inkscape-font-specification:'Latin Modern Sans';stroke-width:0.75"
           id="path5461" /><path
           d="m 583.70993,296.66943 v -5.328 h -0.9 v 5.328 z m 0.096,-6.792 v -1.068 h -1.068 v 1.068 z"
           style="font-style:normal;font-variant:normal;font-weight:normal;font-stretch:normal;font-size:12px;font-family:'Latin Modern Sans';-inkscape-font-specification:'Latin Modern Sans';stroke-width:0.75"
           id="path5463" /><path
           d="m 590.52591,291.96543 -0.132,-0.756 c -0.84,0 -1.536,0.228 -1.896,0.384 -0.252,-0.204 -0.66,-0.384 -1.14,-0.384 -1.032,0 -1.908,0.864 -1.908,1.956 0,0.444 0.156,0.876 0.396,1.188 -0.348,0.492 -0.348,0.96 -0.348,1.02 0,0.312 0.108,0.66 0.312,0.912 -0.624,0.372 -0.768,0.924 -0.768,1.236 0,0.9 1.188,1.62 2.652,1.62 1.476,0 2.664,-0.708 2.664,-1.632 0,-1.668 -2.004,-1.668 -2.472,-1.668 h -1.056 c -0.156,0 -0.696,0 -0.696,-0.636 0,-0.132 0.048,-0.324 0.132,-0.432 0.252,0.18 0.648,0.348 1.092,0.348 1.08,0 1.92,-0.888 1.92,-1.956 0,-0.576 -0.264,-1.02 -0.396,-1.2 l 0.048,0.012 c 0.264,0 0.6,-0.048 0.888,-0.048 0.216,0 0.708,0.036 0.708,0.036 z m -2.088,1.2 c 0,0.936 -0.564,1.272 -1.08,1.272 -0.444,0 -1.068,-0.276 -1.068,-1.272 0,-0.996 0.624,-1.272 1.068,-1.272 0.516,0 1.08,0.336 1.08,1.272 z m 1.08,4.368 c 0,0.528 -0.828,0.924 -1.812,0.924 -0.972,0 -1.824,-0.372 -1.824,-0.936 0,-0.036 0,-0.816 0.936,-0.816 h 1.08 c 0.264,0 1.62,0 1.62,0.828 z"
           style="font-style:normal;font-variant:normal;font-weight:normal;font-stretch:normal;font-size:12px;font-family:'Latin Modern Sans';-inkscape-font-specification:'Latin Modern Sans';stroke-width:0.75"
           id="path5465" /><path
           d="m 596.33389,294.02943 c 0,-1.608 -1.2,-2.892 -2.628,-2.892 -1.476,0 -2.64,1.32 -2.64,2.892 0,1.584 1.224,2.772 2.628,2.772 1.44,0 2.64,-1.212 2.64,-2.772 z m -0.936,-0.12 c 0,1.416 -0.816,2.124 -1.704,2.124 -0.828,0 -1.692,-0.672 -1.692,-2.124 0,-1.452 0.912,-2.04 1.692,-2.04 0.84,0 1.704,0.624 1.704,2.04 z"
           style="font-style:normal;font-variant:normal;font-weight:normal;font-stretch:normal;font-size:12px;font-family:'Latin Modern Sans';-inkscape-font-specification:'Latin Modern Sans';stroke-width:0.75"
           id="path5467" /></g><path
         d="m 341.12184,611.62091 h -15"
         style="fill:none;stroke:#000000;stroke-width:0.45;stroke-linecap:butt;stroke-linejoin:miter;stroke-miterlimit:10;stroke-dasharray:none;stroke-opacity:1"
         id="path126-9-5" /><path
         d="m 416.12184,611.62091 h -15 l -15,-14.94 -15,14.94 -15,-14.94 -15,14.94"
         style="fill:none;stroke:#000000;stroke-width:0.45;stroke-linecap:butt;stroke-linejoin:miter;stroke-miterlimit:10;stroke-dasharray:none;stroke-opacity:1"
         id="path130-0-2" /><g
         aria-label="N"
         transform="matrix(0,1,1,0,0,0)"
         id="text2317-2-0-3-2-10-8-9"
         style="font-style:normal;font-weight:normal;font-size:12px;line-height:1.25;font-family:sans-serif;letter-spacing:0px;word-spacing:0px;fill:#000000;fill-opacity:1;stroke:none;stroke-width:0.75"><path
           d="m 615.13919,322.22705 v -8.328 h -0.936 v 7.476 h -0.012 l -0.804,-1.644 -2.94,-5.832 h -1.488 v 8.328 h 0.936 v -7.476 h 0.012 l 0.804,1.644 2.94,5.832 z"
           style="font-style:normal;font-variant:normal;font-weight:normal;font-stretch:normal;font-size:12px;font-family:'Latin Modern Sans';-inkscape-font-specification:'Latin Modern Sans';stroke-width:0.75"
           id="path5481" /></g><g
         aria-label="O"
         transform="matrix(0,1,1,0,0,0)"
         id="text2317-2-0-3-2-10-2-43-5-3-5-3-2"
         style="font-style:normal;font-weight:normal;font-size:12px;line-height:1.25;font-family:sans-serif;letter-spacing:0px;word-spacing:0px;fill:#000000;fill-opacity:1;stroke:none;stroke-width:0.75"><path
           d="m 594.14843,423.58678 c 0,-2.52 -1.74,-4.452 -3.732,-4.452 -2.04,0 -3.744,1.956 -3.744,4.452 0,2.544 1.776,4.404 3.732,4.404 2.004,0 3.744,-1.884 3.744,-4.404 z m -1.068,-0.18 c 0,2.34 -1.296,3.804 -2.664,3.804 -1.416,0 -2.676,-1.5 -2.676,-3.804 0,-2.196 1.32,-3.504 2.664,-3.504 1.392,0 2.676,1.356 2.676,3.504 z"
           style="font-style:normal;font-variant:normal;font-weight:normal;font-stretch:normal;font-size:12px;font-family:'Latin Modern Sans';-inkscape-font-specification:'Latin Modern Sans';stroke-width:0.75"
           id="path5526" /></g><path
         id="path224-7-8-0-1-3"
         style="fill:none;stroke:#000000;stroke-width:0.45;stroke-linecap:butt;stroke-linejoin:miter;stroke-miterlimit:10;stroke-dasharray:none;stroke-opacity:1"
         d="m 423.56278,618.73772 v 7.62" /><path
         id="path226-2-4-5-0-80"
         style="fill:none;stroke:#000000;stroke-width:0.45;stroke-linecap:butt;stroke-linejoin:miter;stroke-miterlimit:10;stroke-dasharray:none;stroke-opacity:1"
         d="m 423.56278,597.31772 v 7.68" /><path
         id="path230-1-1-9-3-4"
         style="fill:none;stroke:#000000;stroke-width:0.45;stroke-linecap:butt;stroke-linejoin:miter;stroke-miterlimit:10;stroke-dasharray:none;stroke-opacity:1"
         d="m 438.44278,611.45833 h -7.62" /><path
         id="path232-0-0-4-4-0"
         style="fill:none;stroke:#000000;stroke-width:0.45;stroke-linecap:butt;stroke-linejoin:miter;stroke-miterlimit:10;stroke-dasharray:none;stroke-opacity:1"
         d="m 459.62278,611.45833 h -7.74" /><g
         aria-label="O"
         transform="matrix(0,1,1,0,0,0)"
         id="text2317-2-0-3-2-10-2-4-6-3-6-0-9"
         style="font-style:normal;font-weight:normal;font-size:12px;line-height:1.25;font-family:sans-serif;letter-spacing:0px;word-spacing:0px;fill:#000000;fill-opacity:1;stroke:none;stroke-width:0.75"><path
           d="m 615.19634,444.95598 c 0,-2.52 -1.74,-4.452 -3.732,-4.452 -2.04,0 -3.744,1.956 -3.744,4.452 0,2.544 1.776,4.404 3.732,4.404 2.004,0 3.744,-1.884 3.744,-4.404 z m -1.068,-0.18 c 0,2.34 -1.296,3.804 -2.664,3.804 -1.416,0 -2.676,-1.5 -2.676,-3.804 0,-2.196 1.32,-3.504 2.664,-3.504 1.392,0 2.676,1.356 2.676,3.504 z"
           style="font-style:normal;font-variant:normal;font-weight:normal;font-stretch:normal;font-size:12px;font-family:'Latin Modern Sans';-inkscape-font-specification:'Latin Modern Sans';stroke-width:0.75"
           id="path5529" /></g><g
         aria-label="Si"
         transform="matrix(0,1,1,0,0,0)"
         id="text2317-2-0-3-2-10-2-78-9-4-2-9-9"
         style="font-style:normal;font-weight:normal;font-size:12px;line-height:1.25;font-family:sans-serif;letter-spacing:0px;word-spacing:0px;fill:#000000;fill-opacity:1;stroke:none;stroke-width:0.75"><path
           d="m 612.86233,425.45878 c 0,-0.78 -0.372,-1.356 -0.636,-1.644 -0.564,-0.6 -0.96,-0.708 -2.064,-0.984 -0.696,-0.168 -0.888,-0.216 -1.248,-0.528 -0.084,-0.072 -0.42,-0.42 -0.42,-0.948 0,-0.708 0.648,-1.428 1.752,-1.428 1.008,0 1.584,0.396 2.028,0.768 l 0.18,-0.96 c -0.66,-0.396 -1.32,-0.6 -2.196,-0.6 -1.668,0 -2.712,1.176 -2.712,2.364 0,0.516 0.168,1.02 0.648,1.524 0.504,0.54 1.032,0.684 1.74,0.852 1.02,0.252 1.14,0.288 1.476,0.588 0.24,0.204 0.504,0.6 0.504,1.116 0,0.792 -0.66,1.584 -1.752,1.584 -0.492,0 -1.572,-0.12 -2.58,-0.972 l -0.18,0.972 c 1.056,0.66 2.016,0.828 2.772,0.828 1.584,0 2.688,-1.212 2.688,-2.532 z"
           style="font-style:normal;font-variant:normal;font-weight:normal;font-stretch:normal;font-size:12px;font-family:'Latin Modern Sans';-inkscape-font-specification:'Latin Modern Sans';stroke-width:0.75"
           id="path5532" /><path
           d="m 615.41833,427.72678 v -5.328 h -0.9 v 5.328 z m 0.096,-6.792 v -1.068 h -1.068 v 1.068 z"
           style="font-style:normal;font-variant:normal;font-weight:normal;font-stretch:normal;font-size:12px;font-family:'Latin Modern Sans';-inkscape-font-specification:'Latin Modern Sans';stroke-width:0.75"
           id="path5534" /></g><path
         d="m 863.24741,376.94945 -3.71922,-0.0402 -2.14163,3.04099 -1.11103,-3.54962 -3.55396,-1.09709 3.03256,-2.15355 -0.0548,-3.71903 2.98526,2.21865 3.52006,-1.20139 -1.18757,3.52475 z"
         inkscape:transform-center-y="0.27411343"
         inkscape:transform-center-x="0.26740033"
         transform="matrix(0,0.75000002,0.75000002,0,7.6616268,-75.888899)"
         inkscape:randomized="0"
         inkscape:rounded="0"
         inkscape:flatsided="false"
         sodipodi:arg2="1.0975946"
         sodipodi:arg1="0.46927603"
         sodipodi:r2="2.800504"
         sodipodi:r1="5.6010079"
         sodipodi:cy="374.41644"
         sodipodi:cx="858.25189"
         sodipodi:sides="5"
         id="path3579-2"
         style="fill:#ff4400;fill-opacity:1;stroke:none;stroke-width:0.5;stroke-miterlimit:10;stroke-opacity:1"
         sodipodi:type="star" /></g></g></svg>
