<?xml version="1.0" encoding="UTF-8" standalone="no"?>
<svg
   xmlns:dc="http://purl.org/dc/elements/1.1/"
   xmlns:cc="http://creativecommons.org/ns#"
   xmlns:rdf="http://www.w3.org/1999/02/22-rdf-syntax-ns#"
   xmlns:svg="http://www.w3.org/2000/svg"
   xmlns="http://www.w3.org/2000/svg"
   xmlns:sodipodi="http://sodipodi.sourceforge.net/DTD/sodipodi-0.dtd"
   xmlns:inkscape="http://www.inkscape.org/namespaces/inkscape"
   version="1.1"
   id="svg2"
   xml:space="preserve"
   width="261.96365"
   height="175.29831"
   viewBox="0 0 261.96365 175.29831"
   sodipodi:docname="Biochips_Stokes.svg"
   inkscape:version="1.0 (4035a4fb49, 2020-05-01)"><metadata
     id="metadata8"><rdf:RDF><cc:Work
         rdf:about=""><dc:format>image/svg+xml</dc:format><dc:type
           rdf:resource="http://purl.org/dc/dcmitype/StillImage" /><dc:title></dc:title></cc:Work></rdf:RDF></metadata><defs
     id="defs6"><clipPath
       clipPathUnits="userSpaceOnUse"
       id="clipPath22"><path
         d="m 1989.92,7407.6 v -1080 h 2070 v 1080 z m 1260,-212.2 v 45 h -84 l 67.8,-22.8 -67.8,-22.2 z"
         clip-rule="evenodd"
         id="path20" /></clipPath><clipPath
       clipPathUnits="userSpaceOnUse"
       id="clipPath32"><path
         d="m 1989.92,7407.6 v -1080 h 2070 v 1080 z"
         id="path30" /></clipPath><clipPath
       clipPathUnits="userSpaceOnUse"
       id="clipPath44"><path
         d="m 1989.92,7407.6 v -1080 h 2070 v 1080 z m 283.2,-1 h -44.4 v -83.4 l 22.2,67.2 22.2,-67.2 z"
         clip-rule="evenodd"
         id="path42" /></clipPath><clipPath
       clipPathUnits="userSpaceOnUse"
       id="clipPath54"><path
         d="m 1989.92,7407.6 v -1080 h 2070 v 1080 z"
         id="path52" /></clipPath><clipPath
       clipPathUnits="userSpaceOnUse"
       id="clipPath66"><path
         d="m 1989.92,7407.6 v -1080 h 2070 v 1080 z m 2070,-932.2 v 45 h -84 l 67.8,-22.8 -67.8,-22.2 z"
         clip-rule="evenodd"
         id="path64" /></clipPath><clipPath
       clipPathUnits="userSpaceOnUse"
       id="clipPath76"><path
         d="m 1989.92,7407.6 v -1080 h 2070 v 1080 z"
         id="path74" /></clipPath></defs><sodipodi:namedview
     inkscape:document-rotation="0"
     pagecolor="#ffffff"
     bordercolor="#666666"
     borderopacity="1"
     objecttolerance="10"
     gridtolerance="10"
     guidetolerance="10"
     inkscape:pageopacity="0"
     inkscape:pageshadow="2"
     inkscape:window-width="1920"
     inkscape:window-height="1015"
     id="namedview4"
     showgrid="false"
     inkscape:zoom="2.3579016"
     inkscape:cx="122.66715"
     inkscape:cy="77.092026"
     inkscape:window-x="0"
     inkscape:window-y="0"
     inkscape:window-maximized="1"
     inkscape:current-layer="g10"
     fit-margin-top="5"
     fit-margin-left="5"
     fit-margin-right="5"
     fit-margin-bottom="5" /><g
     id="g10"
     inkscape:groupmode="layer"
     inkscape:label="rapport"
     transform="matrix(1.3333333,0,0,-1.3333333,-284.90874,1017.3564)"><g
       id="g970"><path
         d="m 316.592,719.54 6.78,2.22 -6.78,2.28 1.38,-2.28 -1.38,-2.22"
         style="fill:#0000d1;fill-opacity:1;fill-rule:evenodd;stroke:#0000d1;stroke-width:0.1;stroke-opacity:1"
         id="path34" /><path
         d="m 316.592,719.54 6.78,2.22 -6.78,2.28 1.38,-2.28 z"
         style="fill:#0000d1;fill-opacity:1;stroke:#0000d1;stroke-width:0.45;stroke-linecap:butt;stroke-linejoin:miter;stroke-miterlimit:10;stroke-dasharray:none;stroke-opacity:1"
         id="path36" /><path
         d="m 297.092,721.76 h 27"
         style="fill:none;stroke:#0000d1;stroke-width:0.45;stroke-linecap:butt;stroke-linejoin:miter;stroke-miterlimit:10;stroke-dasharray:none;stroke-opacity:1"
         id="path24" /><path
         d="m 225.092,649.76 v 90"
         style="fill:none;stroke:#000000;stroke-width:0.45;stroke-linecap:butt;stroke-linejoin:miter;stroke-miterlimit:10;stroke-dasharray:none;stroke-opacity:1"
         id="path46" /><path
         d="m 227.312,732.32 -2.22,6.72 -2.22,-6.72 2.22,1.32 2.22,-1.32"
         style="fill:#000000;fill-opacity:1;fill-rule:evenodd;stroke:none;stroke-width:0.1"
         id="path56" /><path
         d="m 227.312,732.32 -2.22,6.72 -2.22,-6.72 2.22,1.32 z"
         style="fill:none;stroke:#000000;stroke-width:0.45;stroke-linecap:butt;stroke-linejoin:miter;stroke-miterlimit:10;stroke-dasharray:none;stroke-opacity:1"
         id="path58" /><path
         d="m 225.092,649.76 h 180"
         style="fill:none;stroke:#000000;stroke-width:0.45;stroke-linecap:butt;stroke-linejoin:miter;stroke-miterlimit:10;stroke-dasharray:none;stroke-opacity:1"
         id="path68" /><path
         d="m 397.592,647.54 6.78,2.22 -6.78,2.28 1.38,-2.28 -1.38,-2.22"
         style="fill:#000000;fill-opacity:1;fill-rule:evenodd;stroke:none;stroke-width:0.1"
         id="path78" /><path
         d="m 397.592,647.54 6.78,2.22 -6.78,2.28 1.38,-2.28 z"
         style="fill:#000000;fill-opacity:1;stroke:#000000;stroke-width:0.45;stroke-linecap:butt;stroke-linejoin:miter;stroke-miterlimit:10;stroke-dasharray:none;stroke-opacity:1"
         id="path80" /><path
         d="m 234.092,649.76 0.12,0.06 0.18,0.06 0.42,0.24 0.54,0.3 0.72,0.48 0.84,0.6 0.9,0.72 0.96,0.9 0.96,1.02 0.96,1.2 0.96,1.32 0.9,1.5 0.96,1.68 0.96,1.92 0.96,2.22 1.08,2.46 1.08,2.82 0.66,1.74 0.66,1.8 0.72,1.92 0.78,2.04 0.72,2.1 0.84,2.22 0.84,2.28 0.84,2.34 0.96,2.4 0.9,2.46 0.96,2.52 1.02,2.52 1.02,2.52 1.02,2.52 1.08,2.46 1.08,2.46 1.14,2.4 1.08,2.28 1.14,2.22 1.14,2.1 1.08,1.98 1.14,1.86 1.08,1.68 1.14,1.56 1.08,1.44 1.08,1.2 1.08,1.02 1.08,0.9 1.02,0.66 1.08,0.48 1.02,0.3 1.02,0.12 1.02,-0.12 1.02,-0.3 1.08,-0.48 1.02,-0.66 1.08,-0.9 1.08,-1.02 1.08,-1.2 1.08,-1.44 1.14,-1.56 1.08,-1.68 1.14,-1.86 1.08,-1.98 1.14,-2.1 1.14,-2.22 1.08,-2.28 1.14,-2.4 1.08,-2.46 1.08,-2.46 1.02,-2.52 1.02,-2.52 1.02,-2.52 0.96,-2.52 0.9,-2.46 0.96,-2.4 0.84,-2.34 0.84,-2.28 0.84,-2.22 0.72,-2.1 0.78,-2.04 0.72,-1.92 0.66,-1.8 0.66,-1.74 1.08,-2.82 1.08,-2.46 0.96,-2.22 0.96,-1.92 0.96,-1.68 0.9,-1.5 0.96,-1.32 0.96,-1.2 0.96,-1.02 0.96,-0.9 0.9,-0.72 0.84,-0.6 0.72,-0.48 0.54,-0.3 0.42,-0.24 0.18,-0.06 0.12,-0.06"
         style="fill:none;fill-opacity:1;stroke:#00b000;stroke-width:0.9;stroke-linecap:butt;stroke-linejoin:bevel;stroke-miterlimit:10;stroke-dasharray:none;stroke-opacity:1"
         id="path82" /><path
         d="m 297.092,649.76 0.12,0.06 0.18,0.06 0.42,0.24 0.54,0.3 0.72,0.48 0.84,0.6 0.9,0.72 0.96,0.9 0.96,1.02 0.96,1.2 0.96,1.32 0.9,1.5 0.96,1.68 0.96,1.92 0.96,2.22 1.08,2.46 1.08,2.82 0.66,1.74 0.66,1.8 0.72,1.92 0.78,2.04 0.72,2.1 0.84,2.22 0.84,2.28 0.84,2.34 0.96,2.4 0.9,2.46 0.96,2.52 1.02,2.52 1.02,2.52 1.02,2.52 1.08,2.46 1.08,2.46 1.14,2.4 1.08,2.28 1.14,2.22 1.14,2.1 1.08,1.98 1.14,1.86 1.08,1.68 1.14,1.56 1.08,1.44 1.08,1.2 1.08,1.02 1.08,0.9 1.02,0.66 1.08,0.48 1.02,0.3 1.02,0.12 1.02,-0.12 1.02,-0.3 1.08,-0.48 1.02,-0.66 1.08,-0.9 1.08,-1.02 1.08,-1.2 1.08,-1.44 1.14,-1.56 1.08,-1.68 1.14,-1.86 1.08,-1.98 1.14,-2.1 1.14,-2.22 1.08,-2.28 1.14,-2.4 1.08,-2.46 1.08,-2.46 1.02,-2.52 1.02,-2.52 1.02,-2.52 0.96,-2.52 0.9,-2.46 0.96,-2.4 0.84,-2.34 0.84,-2.28 0.84,-2.22 0.72,-2.1 0.78,-2.04 0.72,-1.92 0.66,-1.8 0.66,-1.74 1.08,-2.82 1.08,-2.46 0.96,-2.22 0.96,-1.92 0.96,-1.68 0.9,-1.5 0.96,-1.32 0.96,-1.2 0.96,-1.02 0.96,-0.9 0.9,-0.72 0.84,-0.6 0.72,-0.48 0.54,-0.3 0.42,-0.24 0.18,-0.06 0.12,-0.06"
         style="fill:none;fill-opacity:1;stroke:#ff0000;stroke-width:0.9;stroke-linecap:butt;stroke-linejoin:bevel;stroke-miterlimit:10;stroke-dasharray:none;stroke-opacity:1"
         id="path84" /><g
         style="font-style:normal;font-weight:normal;font-size:14px;line-height:1.25;font-family:sans-serif;letter-spacing:0px;word-spacing:0px;fill:#000000;fill-opacity:1;stroke:none;stroke-width:0.75"
         id="text1326"
         transform="matrix(0.73759928,0,0,-0.73759928,99.054199,172.23348)"
         aria-label="wavelength λ"><path
           id="path943"
           style="font-style:normal;font-variant:normal;font-weight:normal;font-stretch:normal;font-size:14px;font-family:'Latin Modern Sans';-inkscape-font-specification:'Latin Modern Sans';stroke-width:0.75"
           d="m 349.31077,-636.89355 h -1.022 l -0.896,2.968 c -0.154,0.504 -0.574,1.89 -0.644,2.492 h -0.014 c -0.056,-0.434 -0.406,-1.68 -0.644,-2.478 l -0.91,-2.982 h -0.98 l -0.798,2.632 c -0.154,0.49 -0.63,2.1 -0.686,2.814 h -0.014 c -0.07,-0.672 -0.532,-2.254 -0.756,-3.024 l -0.728,-2.422 h -1.064 l 1.918,6.216 h 1.106 l 0.868,-2.884 c 0.196,-0.644 0.588,-2.03 0.63,-2.548 h 0.014 c 0.028,0.392 0.266,1.358 0.448,1.96 l 1.022,3.472 h 1.232 z" /><path
           id="path945"
           style="font-style:normal;font-variant:normal;font-weight:normal;font-stretch:normal;font-size:14px;font-family:'Latin Modern Sans';-inkscape-font-specification:'Latin Modern Sans';stroke-width:0.75"
           d="m 354.85473,-630.67755 v -4.046 c 0,-1.428 -1.022,-2.408 -2.31,-2.408 -0.91,0 -1.54,0.224 -2.198,0.602 l 0.084,0.924 c 0.728,-0.518 1.428,-0.7 2.114,-0.7 0.658,0 1.218,0.56 1.218,1.596 v 0.602 c -2.1,0.028 -3.878,0.616 -3.878,1.848 0,0.602 0.378,1.736 1.596,1.736 0.196,0 1.512,-0.028 2.324,-0.658 v 0.504 z m -1.092,-1.848 c 0,0.266 0,0.616 -0.476,0.882 -0.406,0.252 -0.938,0.266 -1.092,0.266 -0.672,0 -1.302,-0.322 -1.302,-0.91 0,-0.98 2.268,-1.078 2.87,-1.106 z" /><path
           id="path947"
           style="font-style:normal;font-variant:normal;font-weight:normal;font-stretch:normal;font-size:14px;font-family:'Latin Modern Sans';-inkscape-font-specification:'Latin Modern Sans';stroke-width:0.75"
           d="m 362.10671,-636.89355 h -1.05 l -1.106,2.912 c -0.294,0.77 -0.728,1.904 -0.84,2.562 h -0.014 c -0.084,-0.504 -0.448,-1.47 -0.588,-1.848 l -1.358,-3.626 h -1.092 l 2.408,6.216 h 1.232 z" /><path
           id="path949"
           style="font-style:normal;font-variant:normal;font-weight:normal;font-stretch:normal;font-size:14px;font-family:'Latin Modern Sans';-inkscape-font-specification:'Latin Modern Sans';stroke-width:0.75"
           d="m 368.11269,-633.74355 c 0,-0.476 -0.014,-1.526 -0.56,-2.366 -0.574,-0.868 -1.428,-1.022 -1.932,-1.022 -1.554,0 -2.814,1.484 -2.814,3.29 0,1.848 1.344,3.318 3.024,3.318 0.882,0 1.68,-0.336 2.226,-0.728 l -0.084,-0.91 c -0.882,0.728 -1.806,0.784 -2.128,0.784 -1.12,0 -2.016,-0.994 -2.058,-2.366 z m -0.798,-0.77 h -3.458 c 0.224,-1.064 0.966,-1.764 1.764,-1.764 0.728,0 1.512,0.476 1.694,1.764 z" /><path
           id="path951"
           style="font-style:normal;font-variant:normal;font-weight:normal;font-stretch:normal;font-size:14px;font-family:'Latin Modern Sans';-inkscape-font-specification:'Latin Modern Sans';stroke-width:0.75"
           d="m 370.71667,-630.67755 v -9.716 h -1.05 v 9.716 z" /><path
           id="path953"
           style="font-style:normal;font-variant:normal;font-weight:normal;font-stretch:normal;font-size:14px;font-family:'Latin Modern Sans';-inkscape-font-specification:'Latin Modern Sans';stroke-width:0.75"
           d="m 377.67465,-633.74355 c 0,-0.476 -0.014,-1.526 -0.56,-2.366 -0.574,-0.868 -1.428,-1.022 -1.932,-1.022 -1.554,0 -2.814,1.484 -2.814,3.29 0,1.848 1.344,3.318 3.024,3.318 0.882,0 1.68,-0.336 2.226,-0.728 l -0.084,-0.91 c -0.882,0.728 -1.806,0.784 -2.128,0.784 -1.12,0 -2.016,-0.994 -2.058,-2.366 z m -0.798,-0.77 h -3.458 c 0.224,-1.064 0.966,-1.764 1.764,-1.764 0.728,0 1.512,0.476 1.694,1.764 z" /><path
           id="path955"
           style="font-style:normal;font-variant:normal;font-weight:normal;font-stretch:normal;font-size:14px;font-family:'Latin Modern Sans';-inkscape-font-specification:'Latin Modern Sans';stroke-width:0.75"
           d="m 384.18462,-630.67755 v -4.172 c 0,-0.924 -0.21,-2.198 -1.918,-2.198 -1.26,0 -1.946,0.952 -2.03,1.064 v -0.994 h -1.008 v 6.3 h 1.092 v -3.43 c 0,-0.924 0.35,-2.086 1.414,-2.086 1.344,0 1.358,0.994 1.358,1.442 v 4.074 z" /><path
           id="path957"
           style="font-style:normal;font-variant:normal;font-weight:normal;font-stretch:normal;font-size:14px;font-family:'Latin Modern Sans';-inkscape-font-specification:'Latin Modern Sans';stroke-width:0.75"
           d="m 392.1226,-636.16555 -0.154,-0.882 c -0.98,0 -1.792,0.266 -2.212,0.448 -0.294,-0.238 -0.77,-0.448 -1.33,-0.448 -1.204,0 -2.226,1.008 -2.226,2.282 0,0.518 0.182,1.022 0.462,1.386 -0.406,0.574 -0.406,1.12 -0.406,1.19 0,0.364 0.126,0.77 0.364,1.064 -0.728,0.434 -0.896,1.078 -0.896,1.442 0,1.05 1.386,1.89 3.094,1.89 1.722,0 3.108,-0.826 3.108,-1.904 0,-1.946 -2.338,-1.946 -2.884,-1.946 h -1.232 c -0.182,0 -0.812,0 -0.812,-0.742 0,-0.154 0.056,-0.378 0.154,-0.504 0.294,0.21 0.756,0.406 1.274,0.406 1.26,0 2.24,-1.036 2.24,-2.282 0,-0.672 -0.308,-1.19 -0.462,-1.4 l 0.056,0.014 c 0.308,0 0.7,-0.056 1.036,-0.056 0.252,0 0.826,0.042 0.826,0.042 z m -2.436,1.4 c 0,1.092 -0.658,1.484 -1.26,1.484 -0.518,0 -1.246,-0.322 -1.246,-1.484 0,-1.162 0.728,-1.484 1.246,-1.484 0.602,0 1.26,0.392 1.26,1.484 z m 1.26,5.096 c 0,0.616 -0.966,1.078 -2.114,1.078 -1.134,0 -2.128,-0.434 -2.128,-1.092 0,-0.042 0,-0.952 1.092,-0.952 h 1.26 c 0.308,0 1.89,0 1.89,0.966 z" /><path
           id="path959"
           style="font-style:normal;font-variant:normal;font-weight:normal;font-stretch:normal;font-size:14px;font-family:'Latin Modern Sans';-inkscape-font-specification:'Latin Modern Sans';stroke-width:0.75"
           d="m 396.98057,-631.05555 -0.224,-0.826 c -0.364,0.294 -0.812,0.462 -1.26,0.462 -0.518,0 -0.714,-0.42 -0.714,-1.162 v -3.5 h 1.974 v -0.812 h -1.974 v -1.778 h -0.966 v 1.778 h -1.218 v 0.812 h 1.176 v 3.738 c 0,0.84 0.196,1.82 1.162,1.82 0.98,0 1.694,-0.35 2.044,-0.532 z" /><path
           id="path961"
           style="font-style:normal;font-variant:normal;font-weight:normal;font-stretch:normal;font-size:14px;font-family:'Latin Modern Sans';-inkscape-font-specification:'Latin Modern Sans';stroke-width:0.75"
           d="m 403.47655,-630.67755 v -4.172 c 0,-0.924 -0.21,-2.198 -1.918,-2.198 -0.868,0 -1.54,0.434 -1.988,1.008 v -4.354 h -1.05 v 9.716 h 1.092 v -3.43 c 0,-0.924 0.35,-2.086 1.414,-2.086 1.344,0 1.358,0.994 1.358,1.442 v 4.074 z" /><path
           id="path963"
           style="font-style:normal;font-variant:normal;font-weight:normal;font-stretch:normal;font-family:'Latin Modern Roman';-inkscape-font-specification:'Latin Modern Roman, '"
           d="m 416.68982,-630.64337 q -0.0752,0.0273 -0.22559,0.0547 -0.15039,0.0273 -0.30078,0.0273 -0.6289,0 -0.99121,-0.24609 -0.3623,-0.25293 -0.69726,-1.14161 l -1.57227,-4.06738 -1.95508,5.33887 h -1.40137 l 2.69336,-7.04102 -0.66308,-1.60644 q -0.27344,-0.69043 -0.82715,-0.69043 -0.15723,0 -0.32129,0.0137 l -0.007,-0.9707 q 0.27344,-0.082 0.65625,-0.082 0.76563,0 1.14161,0.32128 0.37597,0.32129 0.57421,0.86817 l 2.91895,7.58789 q 0.24609,0.6084 0.68359,0.6084 0.18457,0 0.25293,-0.0137 z" /></g><g
         style="font-style:normal;font-weight:normal;font-size:14px;line-height:0.85;font-family:sans-serif;text-align:center;letter-spacing:0px;word-spacing:0px;text-anchor:middle;fill:#000000;fill-opacity:1;stroke:none;stroke-width:0.75"
         id="text1326-3"
         transform="matrix(0.73759928,0,0,-0.73759928,57.054199,190.23348)"
         aria-label="ﬂuorescence intensity"><path
           id="path864"
           style="font-style:normal;font-variant:normal;font-weight:normal;font-stretch:normal;font-size:14px;font-family:'Latin Modern Sans';-inkscape-font-specification:'Latin Modern Sans';text-align:start;text-anchor:start;stroke-width:0.75"
           d="m 221.16956,-767.00141 v -0.812 h -1.694 v -1.694 c 0,-0.896 0.504,-1.106 0.854,-1.106 0.28,0 0.588,0.084 0.84,0.238 v -0.938 c -0.084,-0.028 -0.434,-0.154 -0.84,-0.154 -1.036,0 -1.862,0.98 -1.862,2.38 v 1.274 h -1.036 v 0.812 h 1.036 v 5.404 h 1.05 v -5.404 z m 2.226,5.404 v -9.716 h -1.05 v 9.716 z" /><path
           id="path866"
           style="font-style:normal;font-variant:normal;font-weight:normal;font-stretch:normal;font-size:14px;font-family:'Latin Modern Sans';-inkscape-font-specification:'Latin Modern Sans';text-align:start;text-anchor:start;stroke-width:0.75"
           d="m 230.64755,-761.59741 v -6.216 h -1.092 v 4.06 c 0,1.05 -0.784,1.54 -1.68,1.54 -0.994,0 -1.092,-0.364 -1.092,-0.966 v -4.634 h -1.092 v 4.69 c 0,1.008 0.322,1.68 1.484,1.68 0.742,0 1.736,-0.224 2.422,-0.826 v 0.672 z" /><path
           id="path868"
           style="font-style:normal;font-variant:normal;font-weight:normal;font-stretch:normal;font-size:14px;font-family:'Latin Modern Sans';-inkscape-font-specification:'Latin Modern Sans';text-align:start;text-anchor:start;stroke-width:0.75"
           d="m 238.36152,-764.67741 c 0,-1.876 -1.4,-3.374 -3.066,-3.374 -1.722,0 -3.08,1.54 -3.08,3.374 0,1.848 1.428,3.234 3.066,3.234 1.68,0 3.08,-1.414 3.08,-3.234 z m -1.092,-0.14 c 0,1.652 -0.952,2.478 -1.988,2.478 -0.966,0 -1.974,-0.784 -1.974,-2.478 0,-1.694 1.064,-2.38 1.974,-2.38 0.98,0 1.988,0.728 1.988,2.38 z" /><path
           id="path870"
           style="font-style:normal;font-variant:normal;font-weight:normal;font-stretch:normal;font-size:14px;font-family:'Latin Modern Sans';-inkscape-font-specification:'Latin Modern Sans';text-align:start;text-anchor:start;stroke-width:0.75"
           d="m 242.98147,-767.02941 v -0.938 c -1.246,0.014 -2.016,0.7 -2.45,1.344 v -1.274 h -0.98 v 6.3 h 1.05 v -2.996 c 0,-1.4 1.008,-2.408 2.38,-2.436 z" /><path
           id="path872"
           style="font-style:normal;font-variant:normal;font-weight:normal;font-stretch:normal;font-size:14px;font-family:'Latin Modern Sans';-inkscape-font-specification:'Latin Modern Sans';text-align:start;text-anchor:start;stroke-width:0.75"
           d="m 248.98746,-764.66341 c 0,-0.476 -0.014,-1.526 -0.56,-2.366 -0.574,-0.868 -1.428,-1.022 -1.932,-1.022 -1.554,0 -2.814,1.484 -2.814,3.29 0,1.848 1.344,3.318 3.024,3.318 0.882,0 1.68,-0.336 2.226,-0.728 l -0.084,-0.91 c -0.882,0.728 -1.806,0.784 -2.128,0.784 -1.12,0 -2.016,-0.994 -2.058,-2.366 z m -0.798,-0.77 h -3.458 c 0.224,-1.064 0.966,-1.764 1.764,-1.764 0.728,0 1.512,0.476 1.694,1.764 z" /><path
           id="path874"
           style="font-style:normal;font-variant:normal;font-weight:normal;font-stretch:normal;font-size:14px;font-family:'Latin Modern Sans';-inkscape-font-specification:'Latin Modern Sans';text-align:start;text-anchor:start;stroke-width:0.75"
           d="m 254.44744,-763.38941 c 0,-0.77 -0.518,-1.246 -0.546,-1.288 -0.546,-0.49 -0.924,-0.574 -1.624,-0.7 -0.77,-0.154 -1.414,-0.294 -1.414,-0.98 0,-0.868 1.008,-0.868 1.19,-0.868 0.448,0 1.19,0.056 1.988,0.532 l 0.168,-0.91 c -0.728,-0.336 -1.302,-0.448 -2.016,-0.448 -0.35,0 -2.324,0 -2.324,1.834 0,0.686 0.406,1.134 0.756,1.4 0.434,0.308 0.742,0.364 1.512,0.518 0.504,0.098 1.316,0.266 1.316,1.008 0,0.966 -1.106,0.966 -1.316,0.966 -1.134,0 -1.918,-0.518 -2.17,-0.686 l -0.168,0.952 c 0.448,0.224 1.218,0.616 2.352,0.616 0.252,0 1.022,0 1.624,-0.448 0.434,-0.336 0.672,-0.896 0.672,-1.498 z" /><path
           id="path876"
           style="font-style:normal;font-variant:normal;font-weight:normal;font-stretch:normal;font-size:14px;font-family:'Latin Modern Sans';-inkscape-font-specification:'Latin Modern Sans';text-align:start;text-anchor:start;stroke-width:0.75"
           d="m 260.57943,-762.15741 -0.084,-0.938 c -0.714,0.56 -1.47,0.756 -2.184,0.756 -1.162,0 -1.946,-1.008 -1.946,-2.38 0,-1.092 0.518,-2.436 2.002,-2.436 0.728,0 1.204,0.112 1.974,0.616 l 0.168,-0.91 c -0.826,-0.476 -1.302,-0.602 -2.156,-0.602 -1.946,0 -3.08,1.694 -3.08,3.346 0,1.736 1.274,3.262 3.024,3.262 0.756,0 1.526,-0.196 2.282,-0.714 z" /><path
           id="path878"
           style="font-style:normal;font-variant:normal;font-weight:normal;font-stretch:normal;font-size:14px;font-family:'Latin Modern Sans';-inkscape-font-specification:'Latin Modern Sans';text-align:start;text-anchor:start;stroke-width:0.75"
           d="m 266.7814,-764.66341 c 0,-0.476 -0.014,-1.526 -0.56,-2.366 -0.574,-0.868 -1.428,-1.022 -1.932,-1.022 -1.554,0 -2.814,1.484 -2.814,3.29 0,1.848 1.344,3.318 3.024,3.318 0.882,0 1.68,-0.336 2.226,-0.728 l -0.084,-0.91 c -0.882,0.728 -1.806,0.784 -2.128,0.784 -1.12,0 -2.016,-0.994 -2.058,-2.366 z m -0.798,-0.77 h -3.458 c 0.224,-1.064 0.966,-1.764 1.764,-1.764 0.728,0 1.512,0.476 1.694,1.764 z" /><path
           id="path880"
           style="font-style:normal;font-variant:normal;font-weight:normal;font-stretch:normal;font-size:14px;font-family:'Latin Modern Sans';-inkscape-font-specification:'Latin Modern Sans';text-align:start;text-anchor:start;stroke-width:0.75"
           d="m 273.29138,-761.59741 v -4.172 c 0,-0.924 -0.21,-2.198 -1.918,-2.198 -1.26,0 -1.946,0.952 -2.03,1.064 v -0.994 h -1.008 v 6.3 h 1.092 v -3.43 c 0,-0.924 0.35,-2.086 1.414,-2.086 1.344,0 1.358,0.994 1.358,1.442 v 4.074 z" /><path
           id="path882"
           style="font-style:normal;font-variant:normal;font-weight:normal;font-stretch:normal;font-size:14px;font-family:'Latin Modern Sans';-inkscape-font-specification:'Latin Modern Sans';text-align:start;text-anchor:start;stroke-width:0.75"
           d="m 280.24936,-762.15741 -0.084,-0.938 c -0.714,0.56 -1.47,0.756 -2.184,0.756 -1.162,0 -1.946,-1.008 -1.946,-2.38 0,-1.092 0.518,-2.436 2.002,-2.436 0.728,0 1.204,0.112 1.974,0.616 l 0.168,-0.91 c -0.826,-0.476 -1.302,-0.602 -2.156,-0.602 -1.946,0 -3.08,1.694 -3.08,3.346 0,1.736 1.274,3.262 3.024,3.262 0.756,0 1.526,-0.196 2.282,-0.714 z" /><path
           id="path884"
           style="font-style:normal;font-variant:normal;font-weight:normal;font-stretch:normal;font-size:14px;font-family:'Latin Modern Sans';-inkscape-font-specification:'Latin Modern Sans';text-align:start;text-anchor:start;stroke-width:0.75"
           d="m 286.45133,-764.66341 c 0,-0.476 -0.014,-1.526 -0.56,-2.366 -0.574,-0.868 -1.428,-1.022 -1.932,-1.022 -1.554,0 -2.814,1.484 -2.814,3.29 0,1.848 1.344,3.318 3.024,3.318 0.882,0 1.68,-0.336 2.226,-0.728 l -0.084,-0.91 c -0.882,0.728 -1.806,0.784 -2.128,0.784 -1.12,0 -2.016,-0.994 -2.058,-2.366 z m -0.798,-0.77 h -3.458 c 0.224,-1.064 0.966,-1.764 1.764,-1.764 0.728,0 1.512,0.476 1.694,1.764 z" /><path
           id="path886"
           style="font-style:normal;font-variant:normal;font-weight:normal;font-stretch:normal;font-size:14px;font-family:'Latin Modern Sans';-inkscape-font-specification:'Latin Modern Sans';text-align:start;text-anchor:start;stroke-width:0.75"
           d="m 219.23756,-749.5367 v -6.216 h -1.05 v 6.216 z m 0.112,-7.924 v -1.246 h -1.246 v 1.246 z" /><path
           id="path888"
           style="font-style:normal;font-variant:normal;font-weight:normal;font-stretch:normal;font-size:14px;font-family:'Latin Modern Sans';-inkscape-font-specification:'Latin Modern Sans';text-align:start;text-anchor:start;stroke-width:0.75"
           d="m 226.48954,-749.5367 v -4.172 c 0,-0.924 -0.21,-2.198 -1.918,-2.198 -1.26,0 -1.946,0.952 -2.03,1.064 v -0.994 h -1.008 v 6.3 h 1.092 v -3.43 c 0,-0.924 0.35,-2.086 1.414,-2.086 1.344,0 1.358,0.994 1.358,1.442 v 4.074 z" /><path
           id="path890"
           style="font-style:normal;font-variant:normal;font-weight:normal;font-stretch:normal;font-size:14px;font-family:'Latin Modern Sans';-inkscape-font-specification:'Latin Modern Sans';text-align:start;text-anchor:start;stroke-width:0.75"
           d="m 232.28551,-749.9147 -0.224,-0.826 c -0.364,0.294 -0.812,0.462 -1.26,0.462 -0.518,0 -0.714,-0.42 -0.714,-1.162 v -3.5 h 1.974 v -0.812 h -1.974 v -1.778 h -0.966 v 1.778 h -1.218 v 0.812 h 1.176 v 3.738 c 0,0.84 0.196,1.82 1.162,1.82 0.98,0 1.694,-0.35 2.044,-0.532 z" /><path
           id="path892"
           style="font-style:normal;font-variant:normal;font-weight:normal;font-stretch:normal;font-size:14px;font-family:'Latin Modern Sans';-inkscape-font-specification:'Latin Modern Sans';text-align:start;text-anchor:start;stroke-width:0.75"
           d="m 238.48749,-752.6027 c 0,-0.476 -0.014,-1.526 -0.56,-2.366 -0.574,-0.868 -1.428,-1.022 -1.932,-1.022 -1.554,0 -2.814,1.484 -2.814,3.29 0,1.848 1.344,3.318 3.024,3.318 0.882,0 1.68,-0.336 2.226,-0.728 l -0.084,-0.91 c -0.882,0.728 -1.806,0.784 -2.128,0.784 -1.12,0 -2.016,-0.994 -2.058,-2.366 z m -0.798,-0.77 h -3.458 c 0.224,-1.064 0.966,-1.764 1.764,-1.764 0.728,0 1.512,0.476 1.694,1.764 z" /><path
           id="path894"
           style="font-style:normal;font-variant:normal;font-weight:normal;font-stretch:normal;font-size:14px;font-family:'Latin Modern Sans';-inkscape-font-specification:'Latin Modern Sans';text-align:start;text-anchor:start;stroke-width:0.75"
           d="m 244.99746,-749.5367 v -4.172 c 0,-0.924 -0.21,-2.198 -1.918,-2.198 -1.26,0 -1.946,0.952 -2.03,1.064 v -0.994 h -1.008 v 6.3 h 1.092 v -3.43 c 0,-0.924 0.35,-2.086 1.414,-2.086 1.344,0 1.358,0.994 1.358,1.442 v 4.074 z" /><path
           id="path896"
           style="font-style:normal;font-variant:normal;font-weight:normal;font-stretch:normal;font-size:14px;font-family:'Latin Modern Sans';-inkscape-font-specification:'Latin Modern Sans';text-align:start;text-anchor:start;stroke-width:0.75"
           d="m 251.18544,-751.3287 c 0,-0.77 -0.518,-1.246 -0.546,-1.288 -0.546,-0.49 -0.924,-0.574 -1.624,-0.7 -0.77,-0.154 -1.414,-0.294 -1.414,-0.98 0,-0.868 1.008,-0.868 1.19,-0.868 0.448,0 1.19,0.056 1.988,0.532 l 0.168,-0.91 c -0.728,-0.336 -1.302,-0.448 -2.016,-0.448 -0.35,0 -2.324,0 -2.324,1.834 0,0.686 0.406,1.134 0.756,1.4 0.434,0.308 0.742,0.364 1.512,0.518 0.504,0.098 1.316,0.266 1.316,1.008 0,0.966 -1.106,0.966 -1.316,0.966 -1.134,0 -1.918,-0.518 -2.17,-0.686 l -0.168,0.952 c 0.448,0.224 1.218,0.616 2.352,0.616 0.252,0 1.022,0 1.624,-0.448 0.434,-0.336 0.672,-0.896 0.672,-1.498 z" /><path
           id="path898"
           style="font-style:normal;font-variant:normal;font-weight:normal;font-stretch:normal;font-size:14px;font-family:'Latin Modern Sans';-inkscape-font-specification:'Latin Modern Sans';text-align:start;text-anchor:start;stroke-width:0.75"
           d="m 253.69143,-749.5367 v -6.216 h -1.05 v 6.216 z m 0.112,-7.924 v -1.246 h -1.246 v 1.246 z" /><path
           id="path900"
           style="font-style:normal;font-variant:normal;font-weight:normal;font-stretch:normal;font-size:14px;font-family:'Latin Modern Sans';-inkscape-font-specification:'Latin Modern Sans';text-align:start;text-anchor:start;stroke-width:0.75"
           d="m 259.50141,-749.9147 -0.224,-0.826 c -0.364,0.294 -0.812,0.462 -1.26,0.462 -0.518,0 -0.714,-0.42 -0.714,-1.162 v -3.5 h 1.974 v -0.812 h -1.974 v -1.778 h -0.966 v 1.778 h -1.218 v 0.812 h 1.176 v 3.738 c 0,0.84 0.196,1.82 1.162,1.82 0.98,0 1.694,-0.35 2.044,-0.532 z" /><path
           id="path902"
           style="font-style:normal;font-variant:normal;font-weight:normal;font-stretch:normal;font-size:14px;font-family:'Latin Modern Sans';-inkscape-font-specification:'Latin Modern Sans';text-align:start;text-anchor:start;stroke-width:0.75"
           d="m 265.75936,-755.7527 h -1.05 c -1.82,4.452 -1.848,5.096 -1.862,5.418 h -0.014 c -0.084,-0.938 -1.204,-3.542 -1.26,-3.668 l -0.756,-1.75 h -1.106 l 2.716,6.216 -0.504,1.26 c -0.364,0.812 -0.602,0.812 -0.798,0.812 -0.224,0 -0.672,-0.056 -1.092,-0.224 l 0.084,0.91 c 0.308,0.07 0.7,0.112 1.008,0.112 0.49,0 1.008,-0.168 1.582,-1.596 z" /></g><g
         style="font-style:normal;font-weight:normal;font-size:14px;line-height:1.25;font-family:sans-serif;letter-spacing:0px;word-spacing:0px;fill:#00b000;fill-opacity:1;stroke:none;stroke-width:0.75;stroke-opacity:1"
         id="text1326-3-7"
         transform="matrix(0.73759928,0,0,-0.73759928,75.490517,191.87721)"
         aria-label="excitation"><path
           id="path905"
           style="font-style:normal;font-variant:normal;font-weight:normal;font-stretch:normal;font-size:14px;font-family:'Latin Modern Sans';-inkscape-font-specification:'Latin Modern Sans';fill:#00b000;fill-opacity:1;stroke:none;stroke-width:0.75;stroke-opacity:1"
           d="m 258.33511,-735.65413 c 0,-0.476 -0.014,-1.526 -0.56,-2.366 -0.574,-0.868 -1.428,-1.022 -1.932,-1.022 -1.554,0 -2.814,1.484 -2.814,3.29 0,1.848 1.344,3.318 3.024,3.318 0.882,0 1.68,-0.336 2.226,-0.728 l -0.084,-0.91 c -0.882,0.728 -1.806,0.784 -2.128,0.784 -1.12,0 -2.016,-0.994 -2.058,-2.366 z m -0.798,-0.77 h -3.458 c 0.224,-1.064 0.966,-1.764 1.764,-1.764 0.728,0 1.512,0.476 1.694,1.764 z" /><path
           id="path907"
           style="font-style:normal;font-variant:normal;font-weight:normal;font-stretch:normal;font-size:14px;font-family:'Latin Modern Sans';-inkscape-font-specification:'Latin Modern Sans';fill:#00b000;fill-opacity:1;stroke:none;stroke-width:0.75;stroke-opacity:1"
           d="m 265.19508,-732.58813 -2.8,-3.206 2.562,-3.01 h -1.148 l -1.876,2.31 -1.932,-2.31 h -1.162 l 2.632,3.01 -2.716,3.206 h 1.148 l 2.03,-2.632 2.1,2.632 z" /><path
           id="path909"
           style="font-style:normal;font-variant:normal;font-weight:normal;font-stretch:normal;font-size:14px;font-family:'Latin Modern Sans';-inkscape-font-specification:'Latin Modern Sans';fill:#00b000;fill-opacity:1;stroke:none;stroke-width:0.75;stroke-opacity:1"
           d="m 271.01906,-733.14813 -0.084,-0.938 c -0.714,0.56 -1.47,0.756 -2.184,0.756 -1.162,0 -1.946,-1.008 -1.946,-2.38 0,-1.092 0.518,-2.436 2.002,-2.436 0.728,0 1.204,0.112 1.974,0.616 l 0.168,-0.91 c -0.826,-0.476 -1.302,-0.602 -2.156,-0.602 -1.946,0 -3.08,1.694 -3.08,3.346 0,1.736 1.274,3.262 3.024,3.262 0.756,0 1.526,-0.196 2.282,-0.714 z" /><path
           id="path911"
           style="font-style:normal;font-variant:normal;font-weight:normal;font-stretch:normal;font-size:14px;font-family:'Latin Modern Sans';-inkscape-font-specification:'Latin Modern Sans';fill:#00b000;fill-opacity:1;stroke:none;stroke-width:0.75;stroke-opacity:1"
           d="m 273.60904,-732.58813 v -6.216 h -1.05 v 6.216 z m 0.112,-7.924 v -1.246 h -1.246 v 1.246 z" /><path
           id="path913"
           style="font-style:normal;font-variant:normal;font-weight:normal;font-stretch:normal;font-size:14px;font-family:'Latin Modern Sans';-inkscape-font-specification:'Latin Modern Sans';fill:#00b000;fill-opacity:1;stroke:none;stroke-width:0.75;stroke-opacity:1"
           d="m 279.41902,-732.96613 -0.224,-0.826 c -0.364,0.294 -0.812,0.462 -1.26,0.462 -0.518,0 -0.714,-0.42 -0.714,-1.162 v -3.5 h 1.974 v -0.812 h -1.974 v -1.778 h -0.966 v 1.778 h -1.218 v 0.812 h 1.176 v 3.738 c 0,0.84 0.196,1.82 1.162,1.82 0.98,0 1.694,-0.35 2.044,-0.532 z" /><path
           id="path915"
           style="font-style:normal;font-variant:normal;font-weight:normal;font-stretch:normal;font-size:14px;font-family:'Latin Modern Sans';-inkscape-font-specification:'Latin Modern Sans';fill:#00b000;fill-opacity:1;stroke:none;stroke-width:0.75;stroke-opacity:1"
           d="m 285.55099,-732.58813 v -4.046 c 0,-1.428 -1.022,-2.408 -2.31,-2.408 -0.91,0 -1.54,0.224 -2.198,0.602 l 0.084,0.924 c 0.728,-0.518 1.428,-0.7 2.114,-0.7 0.658,0 1.218,0.56 1.218,1.596 v 0.602 c -2.1,0.028 -3.878,0.616 -3.878,1.848 0,0.602 0.378,1.736 1.596,1.736 0.196,0 1.512,-0.028 2.324,-0.658 v 0.504 z m -1.092,-1.848 c 0,0.266 0,0.616 -0.476,0.882 -0.406,0.252 -0.938,0.266 -1.092,0.266 -0.672,0 -1.302,-0.322 -1.302,-0.91 0,-0.98 2.268,-1.078 2.87,-1.106 z" /><path
           id="path917"
           style="font-style:normal;font-variant:normal;font-weight:normal;font-stretch:normal;font-size:14px;font-family:'Latin Modern Sans';-inkscape-font-specification:'Latin Modern Sans';fill:#00b000;fill-opacity:1;stroke:none;stroke-width:0.75;stroke-opacity:1"
           d="m 291.20698,-732.96613 -0.224,-0.826 c -0.364,0.294 -0.812,0.462 -1.26,0.462 -0.518,0 -0.714,-0.42 -0.714,-1.162 v -3.5 h 1.974 v -0.812 h -1.974 v -1.778 h -0.966 v 1.778 h -1.218 v 0.812 h 1.176 v 3.738 c 0,0.84 0.196,1.82 1.162,1.82 0.98,0 1.694,-0.35 2.044,-0.532 z" /><path
           id="path919"
           style="font-style:normal;font-variant:normal;font-weight:normal;font-stretch:normal;font-size:14px;font-family:'Latin Modern Sans';-inkscape-font-specification:'Latin Modern Sans';fill:#00b000;fill-opacity:1;stroke:none;stroke-width:0.75;stroke-opacity:1"
           d="m 293.79695,-732.58813 v -6.216 h -1.05 v 6.216 z m 0.112,-7.924 v -1.246 h -1.246 v 1.246 z" /><path
           id="path921"
           style="font-style:normal;font-variant:normal;font-weight:normal;font-stretch:normal;font-size:14px;font-family:'Latin Modern Sans';-inkscape-font-specification:'Latin Modern Sans';fill:#00b000;fill-opacity:1;stroke:none;stroke-width:0.75;stroke-opacity:1"
           d="m 301.52493,-735.66813 c 0,-1.876 -1.4,-3.374 -3.066,-3.374 -1.722,0 -3.08,1.54 -3.08,3.374 0,1.848 1.428,3.234 3.066,3.234 1.68,0 3.08,-1.414 3.08,-3.234 z m -1.092,-0.14 c 0,1.652 -0.952,2.478 -1.988,2.478 -0.966,0 -1.974,-0.784 -1.974,-2.478 0,-1.694 1.064,-2.38 1.974,-2.38 0.98,0 1.988,0.728 1.988,2.38 z" /><path
           id="path923"
           style="font-style:normal;font-variant:normal;font-weight:normal;font-stretch:normal;font-size:14px;font-family:'Latin Modern Sans';-inkscape-font-specification:'Latin Modern Sans';fill:#00b000;fill-opacity:1;stroke:none;stroke-width:0.75;stroke-opacity:1"
           d="m 308.0489,-732.58813 v -4.172 c 0,-0.924 -0.21,-2.198 -1.918,-2.198 -1.26,0 -1.946,0.952 -2.03,1.064 v -0.994 h -1.008 v 6.3 h 1.092 v -3.43 c 0,-0.924 0.35,-2.086 1.414,-2.086 1.344,0 1.358,0.994 1.358,1.442 v 4.074 z" /></g><g
         style="font-style:normal;font-weight:normal;font-size:14px;line-height:1.25;font-family:sans-serif;letter-spacing:0px;word-spacing:0px;fill:#ff0000;fill-opacity:1;stroke:none;stroke-width:0.75"
         id="text1326-3-7-3"
         transform="matrix(0.73759928,0,0,-0.73759928,85.990517,191.87721)"
         aria-label="emission"><path
           id="path926"
           style="font-style:normal;font-variant:normal;font-weight:normal;font-stretch:normal;font-size:14px;font-family:'Latin Modern Sans';-inkscape-font-specification:'Latin Modern Sans';fill:#ff0000;fill-opacity:1;stroke-width:0.75"
           d="m 333.72636,-735.65413 c 0,-0.476 -0.014,-1.526 -0.56,-2.366 -0.574,-0.868 -1.428,-1.022 -1.932,-1.022 -1.554,0 -2.814,1.484 -2.814,3.29 0,1.848 1.344,3.318 3.024,3.318 0.882,0 1.68,-0.336 2.226,-0.728 l -0.084,-0.91 c -0.882,0.728 -1.806,0.784 -2.128,0.784 -1.12,0 -2.016,-0.994 -2.058,-2.366 z m -0.798,-0.77 h -3.458 c 0.224,-1.064 0.966,-1.764 1.764,-1.764 0.728,0 1.512,0.476 1.694,1.764 z" /><path
           id="path928"
           style="font-style:normal;font-variant:normal;font-weight:normal;font-stretch:normal;font-size:14px;font-family:'Latin Modern Sans';-inkscape-font-specification:'Latin Modern Sans';fill:#ff0000;fill-opacity:1;stroke-width:0.75"
           d="m 344.12834,-732.58813 v -4.172 c 0,-0.938 -0.224,-2.198 -1.918,-2.198 -0.84,0 -1.568,0.392 -2.086,1.148 -0.364,-1.064 -1.344,-1.148 -1.792,-1.148 -1.008,0 -1.666,0.574 -2.044,1.078 v -1.008 h -1.008 v 6.3 h 1.092 v -3.43 c 0,-0.952 0.378,-2.086 1.414,-2.086 1.302,0 1.372,0.91 1.372,1.442 v 4.074 h 1.092 v -3.43 c 0,-0.952 0.378,-2.086 1.414,-2.086 1.302,0 1.372,0.91 1.372,1.442 v 4.074 z" /><path
           id="path930"
           style="font-style:normal;font-variant:normal;font-weight:normal;font-stretch:normal;font-size:14px;font-family:'Latin Modern Sans';-inkscape-font-specification:'Latin Modern Sans';fill:#ff0000;fill-opacity:1;stroke-width:0.75"
           d="m 347.44632,-732.58813 v -6.216 h -1.05 v 6.216 z m 0.112,-7.924 v -1.246 h -1.246 v 1.246 z" /><path
           id="path932"
           style="font-style:normal;font-variant:normal;font-weight:normal;font-stretch:normal;font-size:14px;font-family:'Latin Modern Sans';-inkscape-font-specification:'Latin Modern Sans';fill:#ff0000;fill-opacity:1;stroke-width:0.75"
           d="m 353.6483,-734.38013 c 0,-0.77 -0.518,-1.246 -0.546,-1.288 -0.546,-0.49 -0.924,-0.574 -1.624,-0.7 -0.77,-0.154 -1.414,-0.294 -1.414,-0.98 0,-0.868 1.008,-0.868 1.19,-0.868 0.448,0 1.19,0.056 1.988,0.532 l 0.168,-0.91 c -0.728,-0.336 -1.302,-0.448 -2.016,-0.448 -0.35,0 -2.324,0 -2.324,1.834 0,0.686 0.406,1.134 0.756,1.4 0.434,0.308 0.742,0.364 1.512,0.518 0.504,0.098 1.316,0.266 1.316,1.008 0,0.966 -1.106,0.966 -1.316,0.966 -1.134,0 -1.918,-0.518 -2.17,-0.686 l -0.168,0.952 c 0.448,0.224 1.218,0.616 2.352,0.616 0.252,0 1.022,0 1.624,-0.448 0.434,-0.336 0.672,-0.896 0.672,-1.498 z" /><path
           id="path934"
           style="font-style:normal;font-variant:normal;font-weight:normal;font-stretch:normal;font-size:14px;font-family:'Latin Modern Sans';-inkscape-font-specification:'Latin Modern Sans';fill:#ff0000;fill-opacity:1;stroke-width:0.75"
           d="m 359.01029,-734.38013 c 0,-0.77 -0.518,-1.246 -0.546,-1.288 -0.546,-0.49 -0.924,-0.574 -1.624,-0.7 -0.77,-0.154 -1.414,-0.294 -1.414,-0.98 0,-0.868 1.008,-0.868 1.19,-0.868 0.448,0 1.19,0.056 1.988,0.532 l 0.168,-0.91 c -0.728,-0.336 -1.302,-0.448 -2.016,-0.448 -0.35,0 -2.324,0 -2.324,1.834 0,0.686 0.406,1.134 0.756,1.4 0.434,0.308 0.742,0.364 1.512,0.518 0.504,0.098 1.316,0.266 1.316,1.008 0,0.966 -1.106,0.966 -1.316,0.966 -1.134,0 -1.918,-0.518 -2.17,-0.686 l -0.168,0.952 c 0.448,0.224 1.218,0.616 2.352,0.616 0.252,0 1.022,0 1.624,-0.448 0.434,-0.336 0.672,-0.896 0.672,-1.498 z" /><path
           id="path936"
           style="font-style:normal;font-variant:normal;font-weight:normal;font-stretch:normal;font-size:14px;font-family:'Latin Modern Sans';-inkscape-font-specification:'Latin Modern Sans';fill:#ff0000;fill-opacity:1;stroke-width:0.75"
           d="m 361.51628,-732.58813 v -6.216 h -1.05 v 6.216 z m 0.112,-7.924 v -1.246 h -1.246 v 1.246 z" /><path
           id="path938"
           style="font-style:normal;font-variant:normal;font-weight:normal;font-stretch:normal;font-size:14px;font-family:'Latin Modern Sans';-inkscape-font-specification:'Latin Modern Sans';fill:#ff0000;fill-opacity:1;stroke-width:0.75"
           d="m 369.24426,-735.66813 c 0,-1.876 -1.4,-3.374 -3.066,-3.374 -1.722,0 -3.08,1.54 -3.08,3.374 0,1.848 1.428,3.234 3.066,3.234 1.68,0 3.08,-1.414 3.08,-3.234 z m -1.092,-0.14 c 0,1.652 -0.952,2.478 -1.988,2.478 -0.966,0 -1.974,-0.784 -1.974,-2.478 0,-1.694 1.064,-2.38 1.974,-2.38 0.98,0 1.988,0.728 1.988,2.38 z" /><path
           id="path940"
           style="font-style:normal;font-variant:normal;font-weight:normal;font-stretch:normal;font-size:14px;font-family:'Latin Modern Sans';-inkscape-font-specification:'Latin Modern Sans';fill:#ff0000;fill-opacity:1;stroke-width:0.75"
           d="m 375.76823,-732.58813 v -4.172 c 0,-0.924 -0.21,-2.198 -1.918,-2.198 -1.26,0 -1.946,0.952 -2.03,1.064 v -0.994 h -1.008 v 6.3 h 1.092 v -3.43 c 0,-0.924 0.35,-2.086 1.414,-2.086 1.344,0 1.358,0.994 1.358,1.442 v 4.074 z" /></g></g></g></svg>
