<?xml version="1.0" encoding="UTF-8"?>
<!-- Generator: Adobe Illustrator 13.0.2, SVG Export Plug-In . SVG Version: 6.00 Build 14948)  -->
<!DOCTYPE svg PUBLIC "-//W3C//DTD SVG 1.1//EN" "http://www.w3.org/Graphics/SVG/1.1/DTD/svg11.dtd">
<svg version="1.1" id="Divided" xmlns="http://www.w3.org/2000/svg" xmlns:xlink="http://www.w3.org/1999/xlink" x="0px" y="0px" width="641px" height="481px" viewBox="0 0 641 481" enable-background="new 0 0 641 481" xml:space="preserve">
<path fill-rule="evenodd" clip-rule="evenodd" fill="#FFFFFF" stroke="#000000" stroke-linecap="round" d="M528.307,300.697  c-1.718-4.759,6.39-7.139,2.414-11.417c-4.079-1.692-8.56-2.58-12.981-2.35c-2.876,0.149-7.797,0.606-9.081,3.603  c-1.401,3.267,4.292,6.112,3.043,10.168c-11.085,4.399-22.21,1.302-33.394-0.947c0.499,3.394,0.782,6.771-0.292,10.779  c-1.465,5.464-1.702,12.501,6.181,12.365c6.468-0.111,16.413-7.236,16.118,5.043c-0.083,3.458-1.065,8.631-5.2,9.197  c-3.092,0.424-5.67-1.703-8.419-2.691c-8.396-3.017-9.864,9.867-9.186,15.395c0.381,3.107,0.839,5.818,1.158,8.416  c12.702,0.263,25.203,1.435,28.271,2.014c2.279,0.43,5.011-0.103,4.993,2.783c-0.013,2.09-1.403,3.715-2.533,5.342  c-2.746,3.954,0.993,5.758,4.663,6.6c3.997,0.918,8.261,0.816,12.175-0.437c5.544-1.774,6.715-3.384,3.17-7.703  c-6.563-7.997,15.639-7.954,19.88-8.28c4.192-0.323,8.402-0.497,12.612-0.504c0.653-5.266,2.028-10.483,1.335-15.91  c-0.66-5.164-2.437-8.707-8.024-7.953c-2.146,2.218-5.215,3.515-8.199,2.2c-3.094-1.364-4.981-4.766-5.24-8.038  c-0.374-4.745,2.103-5.042,4.528-8.07c3.721-1.232,8.236,2.175,12.177,2.374c3.755,0.19,4.674-4.162,4.956-7.482  c0.428-5.032-1.193-9.924-2.913-14.757C549.737,302.63,539.016,305.072,528.307,300.697z"/>
<path fill-rule="evenodd" clip-rule="evenodd" fill="#FFFFFF" stroke="#000000" stroke-linecap="round" d="M397.774,348.665  c-1.271-6.684,1.635-17.661,10.328-13.654c3.011,1.389,7.22,3.94,9.751,0.48c1.971-2.694,2.994-6.245,2.37-9.563  c-2.097-11.132-11.589-1.77-18.015-3.137c-8.654-6.366-3.32-12.82-2.469-21.653c0.015-0.151,0.021-0.303,0.032-0.454  c-1.492,0.312-2.98,0.62-4.466,0.906c-8.971,1.729-18.325,2.651-27-0.893c-1.64-4.542,4.498-5.915,3.465-10.469  c-3.063-2.516-7.895-3.19-11.794-3.317c-3.315-0.108-9.788,0.05-11.319,3.622c-1.401,3.267,4.292,6.112,3.043,10.168  c-8.066,3.172-16.707,2.395-25.024,0.788c-2.157-0.417-4.321-0.886-6.492-1.343c1.254,3.432,2.513,6.86,3.06,10.484  c0.463,3.063,0.285,6.2-0.902,9.088c-1.838,4.467-6.59,3.289-10.564,1.576c-8.337-3.594-12.954,5.961-7.936,12.543  c5.634,7.389,13.71-4.179,17.444,2.381c3.924,6.896,1.33,14.471,0.356,21.854c5.174-0.015,10.348,0.225,15.492,0.768  c4.904,0.518,9.781,1.311,14.582,2.442c1.082,4.185-5.673,8.437-2.487,11.439c5.52,5.202,16.937,3.131,22.54-0.946  c0.825-3.559-3.469-4.459-3.739-7.811c-0.336-4.155,8.625-4.615,11.527-5.202c4.208-0.852,8.578-1.411,12.862-0.817  c3.039,0.422,5.062,1.51,7.37,1.979C399.835,356.113,398.479,352.366,397.774,348.665z"/>
<path fill-rule="evenodd" clip-rule="evenodd" fill="#FFFFFF" stroke="#000000" stroke-linecap="round" d="M237.061,344.206  c0.992-7.499,5.2-12.052,12.375-8.521c7.892,3.882,12.845-3.377,10.448-11.1c-2.965-9.553-12.344,0.038-18.568-2.402  c-8.447-3.313-1.75-12.052-1.524-18.386c0.041-1.135-0.027-2.256-0.152-3.369c-1.606-0.962-3.353-1.669-5.174-2.102  c-8.391-1.992-17.13,0.943-25.234,2.917c-3.544,4.32,2.445,5.489,2.648,9.223c0.179,3.301-7.153,4.661-9.665,4.966  c-4.039,0.491-8.229-0.08-11.976-1.671c-3.106-4.248-0.617-4.563,1.446-9.073c1.899-5.455-8.431-5.106-12.072-5.563  c-4.994-0.625-10.022-0.952-15.053-1.032c-0.479-0.008-0.958-0.002-1.437-0.006c-0.134,3.542-0.241,7.067,0.014,10.505  c0.274,3.702,0.731,7.845-0.704,11.382c-1.799,4.433-5.919,2.908-9.574,1.564c-4.774-1.755-9.611-1.809-10.672,4.124  c-0.614,3.428,0.208,7.161,2.527,9.813c5.915,6.764,14.305-8.653,18.454,4.492c2.407,7.628-1.191,15.159-3.644,22.627  c1.975,0.023,3.949,0.032,5.924,0.01c5.271-0.061,10.541-0.292,15.793-0.733c4.185-0.352,12.632,0.889,9.892-5.276  c-1.345-3.026-4.676-5.34-0.803-7.741c3.985-2.471,9.612-2.291,14.094-1.449c3.81,0.715,9.448,1.602,6.611,6.551  c-2.485,4.334-5.232,6.405,1.421,8.115c8.934,2.297,18.14,0.507,26.979-1.312c0.303-0.063,0.607-0.125,0.911-0.188  C238.377,355.136,236.339,349.658,237.061,344.206z"/>
<path fill-rule="evenodd" clip-rule="evenodd" fill="#FFFFFF" stroke="#000000" stroke-linecap="round" d="M529.816,175.71  c3.816-4.505,1.658-6.54-3.222-7.818c-3.338-0.875-22.609-1.963-17.326,5.633c1.341,1.927,3.212,4.641,2.433,7.177  c-2.605,0.368-5.22,0.677-7.839,0.933c-5.243,0.512-10.507,0.808-15.774,0.927c-2.334,0.052-4.668,0.064-7.002,0.051  c1.65,4.57,3.044,9.302,2.146,14.086c-2.421,12.895-11.944-0.373-18.293,4.743c-6.299,5.075-1.918,18.932,7.288,14.387  c8.445-4.169,12.168,2.495,11.745,10.679c-0.119,2.319-2.089,7.936-3.795,14.08c4.489-0.931,8.979-1.846,13.556-2.22  c4.026-0.33,8.11-0.199,12.048,0.766c6.367,1.56,7.432,3.773,3.618,9.264c-5.516,7.942,12.894,7.425,16.838,6.163  c3.265-1.045,7.782-2.894,4.324-6.438c-4.145-4.248-2.28-6.912,2.827-8.579c9.052-2.956,18.049-1.248,27.067,0.649  c0.592-1.704,1.193-3.394,1.711-5.072c2.221-7.193,2.757-14.564-2.156-20.814c-6.348-1.738-12.093,7.084-16.954-1.674  c-1.781-3.208-1.77-7.244,0.242-10.348c5.064-2.43,5.224-1.661,10.638-0.257c12.178,3.157,9.629-7.784,7.876-15.609  c-0.283-1.264-0.405-2.527-0.435-3.789c-7.495-0.036-14.989-0.392-22.462-0.971C534.293,181.299,524.279,182.246,529.816,175.71z"/>
<path fill-rule="evenodd" clip-rule="evenodd" fill="#FFFFFF" stroke="#000000" stroke-linecap="round" d="M187.767,119.692  c5.503,1.763,4.592,4.442,1.631,8.704c-2.746,3.954,0.994,5.758,4.664,6.6c3.997,0.917,8.261,0.816,12.175-0.437  c5.543-1.774,6.714-3.383,3.169-7.703c-6.474-7.888,12.222-9.047,16.466-8.865c4.949,0.213,9.79,1.172,14.624,2.188  c1.366-3.934,2.799-7.848,3.309-12.001c0.412-3.358,0.097-6.769-1.255-9.894c-2.299-5.314-5.768-4.705-10.323-2.456  c-8.704,4.297-12.287-6.876-8.928-13.509c2.624-0.757,2.072-2.5,5.205-2.049c2.268,0.327,4.34,1.349,6.508,2.018  c5.194,1.604,7.268-0.521,8.22-5.59c1.067-5.686-0.947-11.136-2.974-16.546c-6.858-1.423-13.738-2.71-20.644-1.929  c-3.057,0.346-11.941,1.323-11.584,5.742c0.271,3.352,4.565,4.251,3.74,7.811c-5.604,4.077-17.02,6.148-22.54,0.946  c-3.187-3.003,3.568-7.254,2.487-11.439c-4.79-1.141-9.659-1.938-14.553-2.458c-4.552-0.483-9.128-0.72-13.707-0.761  c-0.046,4.972-0.199,9.954-0.084,14.771c0.081,3.407-0.162,7.263-2.689,9.844c-3.912,1.514-8.399-1.865-12.179-2.41  c-9.024-1.301-8.475,16.797-0.033,16.715c3.841-0.038,6.542-3.924,10.61-2.878c3.213,0.826,4.475,6.284,4.798,9.102  c0.379,3.309-2.038,10.222-4.053,17.355C169.167,118.606,178.478,116.717,187.767,119.692z"/>
<path fill-rule="evenodd" clip-rule="evenodd" fill="#FFFFFF" stroke="#000000" stroke-linecap="round" d="M170.749,242.501  c5.262-0.18,10.519-0.544,15.75-1.135c2.538-0.287,6.135,0.716,5.179-3.061c-0.461-2.43-2.174-4.301-3.45-6.326  c1.147-7.646,15.625-5.09,20.471-3.458c5.103,1.719,3.041,6.026-0.476,8.702c-1.069,5.462,6.4,5.552,10.501,5.839  c7.13,0.5,14.313-1.063,21.48-2.554c2.572-7.337,5.646-14.684,2.351-22.241c-4.625-10.606-13.551,4.46-18.87-4.191  c-1.84-2.993-2.164-6.81-1.065-10.124c1.957-5.908,8.214-2.955,12.392-1.665c11.443,3.533,8.518-10.534,5.299-21.709  c-0.292,0.06-0.583,0.12-0.874,0.18c-8.84,1.819-18.046,3.609-26.979,1.312c-6.653-1.71-3.906-3.781-1.421-8.115  c2.837-4.949-2.801-5.836-6.61-6.551c-4.483-0.841-10.108-1.021-14.095,1.45c-3.874,2.4-0.542,4.715,0.803,7.74  c2.741,6.166-5.707,4.926-9.892,5.278c-5.253,0.441-10.522,0.673-15.793,0.733c-1.991,0.023-3.981,0.013-5.971-0.011  c0.12,2.268-0.042,4.575-0.748,6.985c-1.773,6.055-2.509,15.29,7.278,13.09c3.599-0.809,6.911-3.363,10.769-2.446  c2.992,2.295,3.907,5.839,3.39,9.45c-0.528,3.69-1.999,7.981-6.549,7.481c-3.016-0.331-5.388-2.555-8.343-3.101  c-6.812-1.258-8.768,10.085-8.228,14.877c0.241,2.135,2.196,7.687,3.839,13.693C164.173,242.646,167.462,242.613,170.749,242.501z"/>
<path fill-rule="evenodd" clip-rule="evenodd" fill="#FFFFFF" stroke="#000000" stroke-linecap="round" d="M368.224,177.224  c1.752-1.333,2.927-3.196,3.75-5.207c-0.237-4.121-6.436-4.571-9.76-4.943c-3.891-0.436-8.493-0.319-11.883,1.781  c-3.873,2.401-0.542,4.714,0.803,7.74c2.673,6.015-5.578,6.074-9.845,6.276c-4.191,0.198-8.381-0.298-12.502-1.024  c-2.77-0.488-5.532-1.088-8.298-1.67c-2.008,5.902-4.148,12.437-1.8,18.563c3.963,10.34,13.925-3.163,19.35,2.757  c3.718,4.058,3.012,16.592-4.379,15.675c-3.008-0.374-5.374-2.595-8.342-3.101c-4.531-0.773-7.296,4.569-7.848,8.379  c-0.909,6.263,1.406,11.78,1.7,17.735c0.348,0.188,0.696,0.375,1.034,0.588c4.967-1.053,9.907-2.32,14.973-2.807  c4.262-0.41,8.684-0.261,12.72,1.304c5.374,2.083,4.395,4.962,1.503,9.127c-5.904,8.502,14.812,7.161,18.769,5.437  c9.639-4.202-7.098-10.287,5.235-14.284c8.87-2.875,18.154-1.207,27.039,0.656c0.003,0,0.005,0.001,0.008,0.001  c0.594-1.709,1.197-3.404,1.717-5.088c2.221-7.193,2.757-14.564-2.156-20.814c-6.347-1.738-12.093,7.084-16.954-1.674  c-1.781-3.208-1.77-7.244,0.242-10.348c5.064-2.43,5.224-1.661,10.638-0.257c12.178,3.157,9.629-7.784,7.876-15.609  c-0.284-1.268-0.405-2.533-0.435-3.798c-9.265-0.043-18.525-0.583-27.752-1.412C370.047,180.885,367.352,181.667,368.224,177.224z"/>
<path fill-rule="evenodd" clip-rule="evenodd" fill="#FFFFFF" stroke="#000000" stroke-linecap="round" d="M320.238,81.762  c4.501,0.775,6.348,0.649,10.983-0.972c8.676-3.035,10.932,7.113,7.542,13.272c-4.68,8.502-12.021-4.046-17.502,1.2  c-7.48,7.159-4.078,16.374-0.925,25.313c0.388-0.08,0.775-0.16,1.162-0.239c7.95-1.625,16.27-3.17,24.308-1.2  c4.523,1.109,7.979,2.523,4.818,7.456c-3.049,4.758-2.558,7.029,3.437,8.404c3.553,0.815,22.968-0.243,16.499-6.875  c-8.597-8.813,9.716-10.354,15.332-10.106c4.835,0.213,9.569,1.141,14.294,2.133c-3.108-8.805-6.286-17.841,1.075-24.886  c5.481-5.246,12.822,7.303,17.502-1.2c3.39-6.159,1.134-16.307-7.542-13.272c-4.636,1.622-6.482,1.747-10.983,0.972  c-1.786-2.744-2.641-5.917-2.582-9.182c0.076-4.266,1.391-8.339,2.787-12.375c-7.532-1.583-15.213-3.063-22.874-1.696  c-2.801,0.5-9.86,1.476-9.539,5.456c0.271,3.352,4.564,4.252,3.739,7.811c-5.071,3.69-19.622,7.088-23.478-0.162  c-1.344-2.527,4.383-6.625,3.425-10.331c-3.728-1.825-7.797-2.795-11.933-3.023c-6.493-0.359-12.946,0.867-19.377,2.176  c-1.364,3.973-2.634,7.985-2.717,12.18C317.625,75.866,318.46,79.028,320.238,81.762z"/>
<path fill-rule="evenodd" clip-rule="evenodd" fill="#FFFFFF" stroke="#000000" stroke-linecap="round" d="M528.307,60.697  c-1.641-4.541,4.498-5.915,3.465-10.468c-3.063-2.516-7.894-3.191-11.794-3.318c-3.315-0.108-9.788,0.05-11.319,3.623  c-1.4,3.266,4.29,6.112,3.043,10.168c-9.366,1.321-18.826,1.883-28.282,1.915c0.558,8.616,0.826,20.241-4.376,20.336  c-4.735,0.086-10.044-4.783-14.104-1.512c-2.88,2.32-3.534,5.638-2.583,9.444c1.146,4.594,3.737,6.536,8.436,5.906  c2.104-2.008,7.417-4.288,9.91-1.807c5.979,8.543,2.353,16.96-0.543,25.532c8.512-1.784,17.011-3.463,25.602-1.375  c4.533,1.102,8.041,2.493,4.865,7.45c-2.291,3.575-3.617,6.22,1.487,7.868c3.684,1.189,25.296,0.681,18.448-6.338  c-7.998-8.198,7.521-10.115,13.207-10.126c5.544-0.011,10.966,1.035,16.375,2.167c-3.105-8.805-6.266-17.833,1.119-24.9  c5.481-5.246,12.822,7.303,17.502-1.2c3.39-6.159,1.134-16.307-7.542-13.272c-4.636,1.622-6.482,1.747-10.983,0.972  c-1.777-2.733-2.613-5.896-2.549-9.146c0.083-4.143,1.322-8.107,2.667-12.032c-1.677,0.351-3.349,0.702-5.019,1.025  C546.345,63.35,537.006,64.226,528.307,60.697z"/>
<path fill-rule="evenodd" clip-rule="evenodd" fill="#FFFFFF" stroke="#000000" stroke-linecap="round" d="M82.224,454.225  c6.976-2.18,15.032,9.067,17.707-3.248c3.594-16.543-10.366-6.472-17.619-8.292c-5.489-4.107-5.253-10.77-3.48-17.152  c0.684-2.461,1.591-4.942,2.457-7.448c-3.156,0.018-6.311,0.118-9.458,0.314c-5.915,0.369-11.811,1.04-17.661,1.983  c-3.871,0.623-8.594,1.808-4.764,6.475c2.809,3.421,3.57,4.88-1.239,6.977c-3.78,1.647-8.033,2.107-12.102,1.533  c-3.875-0.546-9.962-2.226-6.667-6.97c2.825-4.066,3.92-7.03-1.372-9.127c-6.267-2.481-18.61,0.042-27.526,1.936V480.5h77.798  C76.005,472.623,79.564,457.267,82.224,454.225z"/>
<path fill-rule="evenodd" clip-rule="evenodd" fill="#FFFFFF" stroke="#000000" stroke-linecap="round" d="M565.317,454.07  c3.963,0.677,7.195,4.366,11.458,2.705c2.692-2.793,4.174-6.992,3.448-10.848c-2.556-13.57-16.357,3.156-20.851-5.661  c-3.236-6.35-1.161-13.28,1.025-19.716c-0.321,0.066-0.642,0.133-0.961,0.198c-8.838,1.824-18.028,3.604-26.962,1.32  c-6.668-1.705-3.93-3.768-1.439-8.113c2.837-4.949-2.8-5.836-6.61-6.551c-4.481-0.842-10.109-1.022-14.095,1.449  c-3.873,2.402-0.542,4.714,0.803,7.741c2.739,6.165-5.706,4.925-9.892,5.276c-5.253,0.441-10.523,0.673-15.794,0.733  c-1.91,0.021-3.819,0.014-5.729-0.008c0.06,1.058,0.043,2.121-0.118,3.197c-0.528,3.528-2.218,6.787-2.665,10.317  c-1.256,9.908,11.682,5.161,16.1,4.154c8.261-1.883,9.117,11.247,4.702,15.472c-5.577,5.335-11.826-5.773-17.445,0.555  c-1.157,3.39-4.158,16.534-2.717,24.207H558.5C556.507,470.654,558.185,452.854,565.317,454.07z"/>
<path fill-rule="evenodd" clip-rule="evenodd" fill="#FFFFFF" stroke="#000000" stroke-linecap="round" d="M31.702,360.701  c1.247-4.057-4.444-6.901-3.044-10.168c1.531-3.572,8.005-3.731,11.32-3.623c3.897,0.128,8.733,0.802,11.793,3.318  c1.037,4.554-5.104,5.927-3.465,10.469c11.463,1.175,22.98,1.949,34.508,1.94c0.319,0,0.638-0.007,0.957-0.009  c-0.01-15.366-1.973-36.341-12.98-25.838c-11.066,1.485-9.693-11.471-4.569-16.568c7.434-0.849,15.213,7.936,17.065-3.972  c0.862-5.539-0.66-10.665-2.377-15.629c-0.229,0.05-0.458,0.102-0.688,0.15c-3.562-2.334-7.817-3.135-12.02-3.063  c-4.367,0.074-25.063,1.513-18.797,9.147c2.809,3.421,3.57,4.88-1.239,6.977c-3.78,1.647-8.033,2.107-12.102,1.533  c-3.875-0.546-9.962-2.226-6.667-6.97c2.825-4.066,3.92-7.03-1.372-9.127c-6.267-2.481-18.61-0.369-27.526,1.349v60.001  C9.822,362.588,23.948,363.788,31.702,360.701z"/>
<path fill-rule="evenodd" clip-rule="evenodd" fill="#FFFFFF" stroke="#000000" stroke-linecap="round" d="M28.026,119.27  c5.292,2.096,4.197,5.06,1.372,9.126c-3.294,4.745,2.792,6.423,6.667,6.97c4.069,0.574,8.322,0.114,12.102-1.534  c4.809-2.097,4.047-3.555,1.239-6.976c-6.885-8.389,14.325-9.068,18.566-8.707c4.268,0.363,8.457,1.208,12.641,2.088  c-2.986-8.845-6.209-17.057,1.612-26.014c6.976-2.179,15.032,9.068,17.707-3.248c2.712-12.488-6.171-10.048-13.923-8.306  c-8.155,1.833-9.753-5.454-7.84-11.368c1.562-4.83,1.274-8.947,0.623-13.19c-2.322,0.049-4.643,0.142-6.959,0.286  c-5.915,0.369-11.811,1.04-17.661,1.983c-3.871,0.624-8.594,1.809-4.764,6.475c2.809,3.421,3.57,4.879-1.239,6.976  c-3.78,1.648-8.033,2.108-12.102,1.534c-3.875-0.546-9.961-2.225-6.667-6.97c2.825-4.067,3.92-7.031-1.372-9.126  C22.247,56.981,7.941,59.53,0.5,61.107v59.383C9.219,118.831,21.544,116.703,28.026,119.27z"/>
<path fill-rule="evenodd" clip-rule="evenodd" fill="#FFFFFF" stroke="#000000" stroke-linecap="round" d="M28.026,239.27  c5.292,2.096,4.197,5.06,1.372,9.126c-3.295,4.744,2.792,6.424,6.667,6.97c4.069,0.574,8.322,0.114,12.102-1.533  c4.809-2.097,4.047-3.556,1.239-6.977c-6.881-8.384,14.337-9.108,18.587-8.752c3.72,0.312,7.379,0.996,11.027,1.749  c-0.438-3.546-1.267-7.101-1.633-11.159c-0.599-6.637,1.965-17.726,10.688-13.67c7.436,3.458,12.655,1.306,12.231-7.94  c-0.624-13.6-13.435-1.38-20.027-5.364c-3.954-5.942-2.61-12.789-0.55-19.121c-10.497-0.116-20.981-0.845-31.423-1.902  c-1.641-4.542,4.501-5.915,3.465-10.468c-3.061-2.517-7.895-3.191-11.793-3.318c-3.316-0.108-9.789,0.05-11.32,3.623  c-1.399,3.266,4.289,6.112,3.044,10.168c-7.416,2.953-21.613,1.024-31.202-1.08v60.426C9.028,238.519,21.305,236.608,28.026,239.27z  "/>
<path fill-rule="evenodd" clip-rule="evenodd" fill="#FFFFFF" stroke="#000000" stroke-linecap="round" d="M240.293,456.293  c5.621-6.325,11.869,4.78,17.445-0.555c4.415-4.225,3.56-17.354-4.703-15.472c-3.567,0.813-6.9,3.377-10.724,2.418  c-3.036-2.271-4.378-4.607-4.633-8.706c-0.243-3.893,0.739-7.672,1.976-11.381c-8.69-0.098-17.375-0.614-26.03-1.392  c-3.58-0.321-6.271,0.462-5.401-3.982c1.752-1.333,2.927-3.195,3.75-5.207c-0.231-4.121-6.439-4.572-9.76-4.943  c-3.889-0.436-8.494-0.319-11.882,1.781c-3.873,2.401-0.542,4.715,0.803,7.741c2.675,6.019-5.613,6.084-9.882,6.291  c-4.189,0.203-8.376-0.288-12.496-1.013c-2.879-0.507-5.749-1.136-8.625-1.741c0.158,0.434,0.316,0.866,0.471,1.295  c2.299,6.354,4.514,13.401,1.003,19.768c-3.827,6.94-17.185-8.025-19.419,4.468c-0.718,4.013,0.555,8.43,3.798,11.032  c4.776,1.288,6.84-2.422,11.162-2.736c6.436-0.468,6.596,17.689,5.092,26.541h77.559  C237.301,473.266,239.091,459.814,240.293,456.293z"/>
<path fill-rule="evenodd" clip-rule="evenodd" fill="#FFFFFF" stroke="#000000" stroke-linecap="round" d="M393.8,455.449  c-6.765,4.974-13.383-3.525-11.794-10.161c1.209-5.049,5.678-5.758,9.772-3.993c2.8,1.207,5.927,1.451,8.938,1.422  c0.938-1.378,1.681-2.888,2.147-4.489c1.778-6.094-0.56-12.272-2.701-18.09c-5.4-1.136-10.813-2.184-16.35-2.167  c-5.691,0.017-21.257,1.946-13.253,10.15c6.848,7.02-14.765,7.527-18.448,6.339c-5.104-1.648-3.778-4.293-1.487-7.868  c3.169-4.945-0.316-6.351-4.844-7.46c-8.151-1.997-16.225-0.593-24.305,1.08c-0.147,2.708,0.069,5.328,0.807,8.11  c1.096,4.133,2.723,8.964-0.092,12.807c-4.772,6.517-19.39-8.278-20.426,5.705c-0.47,6.344,5.894,13.131,12.034,8.615  c8.393-6.171,9.787,14.652,8.448,25.051h81.168C404.608,470.485,402.365,449.152,393.8,455.449z"/>
<path fill-rule="evenodd" clip-rule="evenodd" fill="#FFFFFF" stroke="#000000" stroke-linecap="round" d="M157.147,453.959  c-4.322,0.314-6.386,4.024-11.162,2.736c-3.243-2.603-4.517-7.02-3.798-11.032c2.235-12.493,15.592,2.473,19.419-4.468  c3.511-6.366,1.296-13.414-1.003-19.768c-0.155-0.429-0.313-0.861-0.471-1.295c-5.389-1.133-10.797-2.179-16.319-2.162  c-5.048,0.015-10.039,1.036-14.582,3.273c-2.645,3.225,0.212,5.599,2.463,8.049c1.854,7.453-15.595,6.453-19.581,5.167  c-6.56-2.118-2.29-5.704-0.428-9.771c1.795-5.158-6.157-4.727-9.611-5.229c-6.878-1.001-13.833-1.413-20.785-1.375  c-0.865,2.506-1.773,4.987-2.457,7.448c-1.773,6.383-2.009,13.045,3.48,17.152c7.253,1.82,21.212-8.251,17.619,8.292  c-2.675,12.315-10.731,1.068-17.707,3.248c-2.66,3.042-6.219,18.398-3.926,26.275h83.941  C163.743,471.648,163.583,453.491,157.147,453.959z"/>
<path fill-rule="evenodd" clip-rule="evenodd" fill="#FFFFFF" stroke="#000000" stroke-linecap="round" d="M105.427,122.44  c2.145-0.363,4.25-0.942,6.274-1.738c0.779-2.537-1.092-5.249-2.433-7.177c-5.284-7.596,13.988-6.507,17.326-5.633  c4.88,1.278,7.038,3.313,3.221,7.818c-4.656,5.496,2.036,6.542,6.827,7.149c7.751,0.982,15.478-0.68,23.183-2.295  c2.016-7.133,4.433-14.046,4.053-17.355c-0.323-2.818-1.584-8.276-4.798-9.102c-4.067-1.046-6.769,2.84-10.61,2.878  c-8.442,0.083-8.991-18.016,0.033-16.715c3.78,0.545,8.268,3.924,12.179,2.41c2.528-2.582,2.771-6.438,2.689-9.844  c-0.115-4.817,0.039-9.799,0.084-14.771c-5.585-0.051-11.175,0.195-16.732,0.707c-5.867,0.54-11.707,1.37-17.494,2.473  c-2.645,3.224,0.212,5.598,2.463,8.049c1.853,7.453-15.596,6.453-19.581,5.167c-6.56-2.117-2.29-5.704-0.428-9.771  c1.796-5.158-6.158-4.727-9.611-5.229c-7.702-1.122-15.501-1.512-23.284-1.347c0.652,4.243,0.939,8.36-0.623,13.19  c-1.913,5.914-0.315,13.201,7.84,11.368c7.752-1.742,16.635-4.182,13.923,8.306c-2.675,12.316-10.731,1.069-17.707,3.248  c-7.821,8.958-4.598,17.169-1.612,26.014c4.084,0.859,8.164,1.754,12.306,2.269C97.068,123.023,101.291,123.141,105.427,122.44z"/>
<path fill-rule="evenodd" clip-rule="evenodd" fill="#FFFFFF" stroke="#000000" stroke-linecap="round" d="M111.678,358.306  c-0.721-3.802-4.387-5.114-2.427-8.987c4.569-1.126,7.894-2.813,12.962-2.245c3.32,0.371,9.529,0.822,9.76,4.943  c-1.315,3.216-7.619,8.31-1.008,8.942c9.493,0.908,19.022,1.524,28.56,1.637c2.453-7.468,6.051-14.999,3.644-22.627  c-4.149-13.146-12.54,2.271-18.454-4.492c-2.319-2.652-3.141-6.386-2.527-9.813c1.061-5.933,5.897-5.879,10.672-4.124  c3.655,1.344,7.775,2.868,9.574-1.564c1.435-3.537,0.978-7.68,0.704-11.382c-0.255-3.438-0.148-6.963-0.014-10.505  c-9.692-0.066-19.388,0.752-28.953,2.294c-5.428,0.874-8.261,2.973-3.609,7.739c3.459,3.545-1.061,5.394-4.324,6.438  c-3.944,1.262-22.354,1.778-16.839-6.163c3.676-5.291,2.865-8.055-3.512-9.785c-4.195-1.139-8.631-0.977-12.899-0.39  c-4.071,0.561-8.065,1.531-12.077,2.4c1.718,4.964,3.239,10.09,2.377,15.629c-1.852,11.907-9.631,3.123-17.065,3.972  c-5.124,5.098-6.498,18.054,4.569,16.568c11.007-10.503,12.97,10.472,12.98,25.838c4.963-0.023,9.926-0.188,14.876-0.542  C101.79,361.862,112.749,362.529,111.678,358.306z"/>
<path fill-rule="evenodd" clip-rule="evenodd" fill="#FFFFFF" stroke="#000000" stroke-linecap="round" d="M105.426,242.421  c2.144-0.356,4.25-0.93,6.275-1.719c0.779-2.537-1.092-5.249-2.433-7.176c-5.284-7.596,13.988-6.508,17.326-5.633  c4.88,1.278,7.038,3.313,3.221,7.818c-5.537,6.536,4.477,5.589,9.099,5.947c7.309,0.567,14.639,0.919,21.97,0.968  c-1.643-6.006-3.598-11.559-3.839-13.693c-0.54-4.792,1.416-16.135,8.228-14.877c2.956,0.546,5.327,2.77,8.343,3.101  c4.55,0.5,6.021-3.791,6.549-7.481c0.517-3.611-0.398-7.155-3.39-9.45c-3.857-0.917-7.169,1.637-10.769,2.446  c-9.787,2.199-9.051-7.035-7.278-13.09c0.706-2.411,0.868-4.717,0.748-6.985c-9.521-0.113-19.035-0.729-28.512-1.636  c-6.611-0.633-0.308-5.727,1.008-8.942c-0.231-4.122-6.439-4.572-9.76-4.943c-5.068-0.567-8.394,1.116-12.962,2.245  c-1.958,3.874,1.706,5.184,2.427,8.987c1.069,4.225-9.913,3.547-13.061,3.771c-5.261,0.373-10.537,0.542-15.811,0.546  c-1.026,0.001-2.052-0.012-3.077-0.023c-2.06,6.332-3.403,13.179,0.55,19.121c6.592,3.983,19.403-8.236,20.027,5.364  c0.424,9.247-4.796,11.398-12.231,7.94c-8.723-4.056-11.287,7.033-10.688,13.67c0.366,4.059,1.195,7.613,1.633,11.159  c4.62,0.954,9.222,2.021,13.903,2.609C97.07,242.984,101.29,243.11,105.426,242.421z"/>
<path fill-rule="evenodd" clip-rule="evenodd" fill="#FFFFFF" stroke="#000000" stroke-linecap="round" d="M321.287,336.219  c-3.733-6.56-11.81,5.008-17.444-2.381c-5.018-6.582-0.401-16.137,7.936-12.543c3.974,1.713,8.726,2.891,10.564-1.576  c1.188-2.888,1.365-6.025,0.902-9.088c-0.547-3.624-1.806-7.053-3.06-10.484c-6.772-1.426-13.615-2.73-20.533-1.94  c-3.813,0.436-8.596,1.318-11.346,4.093c-1.586,3.845,3.401,5.028,3.573,8.168c0.392,7.192-19.277,5.434-22.649,2.256  c-3.136-2.955,2.682-6.254,2.702-9.668c0.023-3.908-7.174-4.903-10.229-5.172c-5.118-0.449-10.262,0.461-15.25,1.522  c-2.08,0.442-4.151,0.924-6.231,1.367c-0.189-0.124-0.389-0.229-0.583-0.344c0.125,1.113,0.192,2.234,0.152,3.369  c-0.226,6.334-6.923,15.073,1.524,18.386c6.224,2.44,15.604-7.15,18.568,2.402c2.397,7.723-2.556,14.981-10.448,11.1  c-7.176-3.531-11.384,1.021-12.375,8.521c-0.721,5.452,1.317,10.93,3.288,16.366c7.687-1.588,15.631-3.229,23.47-1.854  c3.374,0.593,9.497,1.284,7.866,5.97c-1.861,4.067-6.132,7.653,0.428,9.771c3.989,1.287,21.43,2.287,19.581-5.167  c-2.252-2.452-5.105-4.822-2.463-8.049c5.795-1.091,11.642-1.916,17.515-2.454c4.949-0.453,9.923-0.702,14.897-0.717  C322.616,350.689,325.211,343.115,321.287,336.219z"/>
<path fill-rule="evenodd" clip-rule="evenodd" fill="#FFFFFF" stroke="#000000" stroke-linecap="round" d="M243.232,76.698  c-0.952,5.068-3.026,7.193-8.22,5.59c-2.168-0.669-4.241-1.691-6.508-2.018c-3.133-0.452-2.582,1.292-5.205,2.049  c-3.359,6.633,0.224,17.806,8.928,13.509c4.555-2.249,8.023-2.858,10.323,2.456c1.352,3.125,1.667,6.536,1.255,9.894  c-0.51,4.153-1.942,8.067-3.309,12.001c4.138,0.869,8.27,1.78,12.459,2.304c4.146,0.518,8.366,0.643,12.5-0.053  c5.024-0.846,8.141-2.135,4.829-7.397c-2.24-3.56-2.346-4.355,0.925-6.808c4.908-1.8,10.382-1.644,15.385-0.333  c4.879,1.278,7.038,3.313,3.221,7.818c-3.972,4.689,0.055,5.94,4.72,6.825c8.626,1.635,17.336-0.217,25.801-1.96  c-3.153-8.939-6.556-18.154,0.925-25.313c5.481-5.246,12.822,7.303,17.502-1.2c3.39-6.159,1.134-16.307-7.542-13.272  c-4.636,1.622-6.482,1.748-10.983,0.972c-1.778-2.733-2.613-5.896-2.549-9.146c0.083-4.195,1.353-8.207,2.717-12.18  c-10.735,2.185-21.408,4.602-32.101,0.261c-1.719-4.759,6.392-7.138,2.414-11.417c-4.079-1.692-8.56-2.579-12.98-2.349  c-2.876,0.149-7.797,0.606-9.082,3.602c-1.399,3.266,4.289,6.112,3.044,10.168c-10.441,4.144-20.917,1.635-31.444-0.549  C242.285,65.562,244.299,71.012,243.232,76.698z"/>
<path fill-rule="evenodd" clip-rule="evenodd" fill="#FFFFFF" stroke="#000000" stroke-linecap="round" d="M269.745,240.406  c4.995,2.006,0.206,6.894-1.55,9.817c-1.28,3.551,5.917,4.868,7.87,5.144c4.069,0.574,8.322,0.114,12.102-1.533  c6.389-2.785,2.397-4.235,0.313-8.355c-3.226-6.374,15.784-7.692,19.605-7.753c3.841-0.062,7.697,0.63,11.084,2.46  c-0.294-5.955-2.608-11.472-1.7-17.735c0.552-3.81,3.317-9.152,7.848-8.379c2.968,0.506,5.334,2.728,8.342,3.101  c7.391,0.917,8.097-11.617,4.379-15.675c-5.425-5.92-15.387,7.583-19.35-2.757c-2.348-6.126-0.208-12.66,1.8-18.563  c-5.515-1.161-11.048-2.249-16.699-2.227c-5.042,0.02-10.028,1.044-14.559,3.294c-2.642,3.226,0.21,5.596,2.463,8.049  c1.849,7.454-15.593,6.454-19.581,5.167c-6.56-2.117-2.29-5.704-0.428-9.771c1.632-4.686-4.493-5.377-7.866-5.969  c-7.851-1.379-15.809,0.271-23.507,1.86c3.219,11.175,6.144,25.242-5.299,21.709c-4.178-1.29-10.435-4.244-12.392,1.665  c-1.098,3.314-0.775,7.131,1.065,10.124c5.318,8.651,14.245-6.415,18.87,4.191c3.295,7.557,0.221,14.903-2.351,22.241  C250.141,238.44,260.048,236.51,269.745,240.406z"/>
<path fill-rule="evenodd" clip-rule="evenodd" fill="#FFFFFF" stroke="#000000" stroke-linecap="round" d="M313.799,455.449  c-6.141,4.516-12.504-2.271-12.034-8.615c1.037-13.983,15.654,0.812,20.426-5.705c2.814-3.843,1.188-8.674,0.092-12.807  c-0.737-2.782-0.954-5.402-0.807-8.11c-8.926,1.85-17.86,4.027-26.917,2.319c-2.286-0.432-6.475-0.633-6.508-3.483  c-0.029-2.523,1.81-3.042,2.985-5.092c2.837-4.949-2.801-5.836-6.611-6.551c-4.371-0.82-9.008-0.724-13.216,0.819  c-3.273,2.451-3.164,3.25-0.925,6.809c1.798,2.857,2.846,5.507-1.191,6.017c-2.611,0.329-5.229,0.602-7.851,0.822  c-5.253,0.441-10.522,0.673-15.793,0.733c-1.932,0.022-3.863,0.014-5.794-0.008c-1.237,3.709-2.218,7.488-1.976,11.381  c0.255,4.099,1.598,6.435,4.633,8.706c3.823,0.959,7.157-1.605,10.724-2.418c8.262-1.883,9.117,11.247,4.703,15.472  c-5.577,5.335-11.824-5.771-17.445,0.555c-1.202,3.521-2.992,16.973-0.494,24.207h82.448  C323.586,470.102,322.192,449.278,313.799,455.449z"/>
<path fill-rule="evenodd" clip-rule="evenodd" fill="#FFFFFF" stroke="#000000" stroke-linecap="round" d="M448.051,179.048  c-0.029-2.524,1.811-3.042,2.986-5.092c2.837-4.949-2.802-5.836-6.611-6.551c-4.372-0.821-9.009-0.723-13.217,0.82  c-3.271,2.454-3.165,3.248-0.925,6.808c1.798,2.857,2.846,5.508-1.191,6.018c-2.611,0.329-5.229,0.602-7.851,0.822  c-5.253,0.441-10.523,0.673-15.794,0.733c-1.357,0.016-2.714,0.019-4.071,0.013c0.029,1.265,0.15,2.531,0.435,3.798  c1.753,7.826,4.302,18.767-7.876,15.609c-5.414-1.403-5.573-2.172-10.638,0.257c-2.012,3.104-2.023,7.14-0.242,10.348  c4.861,8.758,10.607-0.064,16.954,1.674c4.913,6.25,4.377,13.621,2.156,20.814c-0.52,1.684-1.123,3.379-1.717,5.088  c8.177,1.715,16.599,3.652,24.978,2.233c5.028-0.852,8.178-2.131,4.857-7.408c-2.551-4.054-1.863-6.237,3.051-7.458  c5.266-1.308,24.245-1.029,16.481,8.136c-7.281,8.595,14.557,7.544,19.295,6.909c3.718-0.498,7.391-1.271,11.065-2.032  c1.706-6.144,3.676-11.761,3.795-14.08c0.423-8.184-3.3-14.848-11.745-10.679c-9.206,4.545-13.587-9.313-7.288-14.387  c6.349-5.115,15.872,8.152,18.293-4.743c0.898-4.784-0.495-9.516-2.146-14.086c-8.278-0.048-16.554-0.486-24.803-1.175  C453.895,181.237,448.087,182.071,448.051,179.048z"/>
<path fill-rule="evenodd" clip-rule="evenodd" fill="#FFFFFF" stroke="#000000" stroke-linecap="round" d="M480.293,456.293  c5.619-6.328,11.868,4.78,17.445-0.555c4.415-4.225,3.559-17.354-4.702-15.472c-4.418,1.007-17.355,5.754-16.1-4.154  c0.447-3.53,2.137-6.789,2.665-10.317c0.161-1.076,0.178-2.14,0.118-3.197c-9.603-0.105-19.196-0.724-28.754-1.639  c-7.097-0.679,0.06-4.645,0.248-7.741c3.233-3.865-4.962-5.481-7.43-5.929c-4.263-0.772-9.69-0.768-13.453,1.565  c-3.873,2.402-0.542,4.714,0.803,7.741c2.438,5.487-3.686,5.694-7.795,6.131c-4.167,0.441-8.372,0.123-12.502-0.51  c-3.573-0.547-7.121-1.332-10.674-2.079c2.142,5.817,4.479,11.996,2.701,18.09c-0.467,1.602-1.209,3.111-2.147,4.489  c-3.012,0.029-6.139-0.215-8.938-1.422c-4.095-1.765-8.563-1.056-9.772,3.993c-1.589,6.636,5.029,15.135,11.794,10.161  c8.565-6.297,10.809,15.036,9.615,25.051h74.161C476.135,472.827,479.136,459.683,480.293,456.293z"/>
<path fill-rule="evenodd" clip-rule="evenodd" fill="#FFFFFF" stroke="#000000" stroke-linecap="round" d="M400.238,81.762  c4.501,0.775,6.348,0.649,10.983-0.972c8.676-3.035,10.932,7.113,7.542,13.272c-4.68,8.502-12.021-4.046-17.502,1.2  c-7.361,7.045-4.184,16.082-1.075,24.886c3.543,0.744,7.08,1.523,10.65,2.069c4.13,0.632,8.335,0.952,12.502,0.509  c5.321-0.564,10.856-1.477,6.945-7.694c-2.24-3.561-2.346-4.354,0.925-6.808c4.208-1.543,8.845-1.641,13.217-0.82  c3.81,0.715,9.448,1.603,6.611,6.551c-1.176,2.05-3.016,2.568-2.986,5.092c0.034,2.854,4.247,3.06,6.535,3.494  c8.605,1.631,17.095-0.249,25.572-2.026c2.896-8.572,6.521-16.988,0.543-25.532c-2.493-2.481-7.806-0.202-9.91,1.807  c-4.698,0.629-7.289-1.313-8.436-5.906c-0.951-3.807-0.297-7.124,2.583-9.444c4.061-3.271,9.369,1.598,14.104,1.512  c5.202-0.095,4.934-11.72,4.376-20.336c-1.086,0.003-2.171,0.004-3.257-0.006c-4.416-0.042-32.065,0.31-32.111-3.562  c-0.044-3.824,6.333-5.826,2.669-9.769c-4.079-1.692-8.56-2.579-12.98-2.349c-3.571,0.186-8.874,0.793-9.511,5.047  c1.722,2.733,6.286,7.926,1.38,9.461c-8.197,2.565-16.778,1.318-25.011-0.365c-1.379-0.282-2.765-0.577-4.154-0.869  c-1.396,4.035-2.711,8.109-2.787,12.375C397.598,75.845,398.452,79.018,400.238,81.762z"/>
<path fill-rule="evenodd" clip-rule="evenodd" fill="#FFFFFF" stroke="#000000" stroke-linecap="round" d="M486.695,334.447  c2.749,0.988,5.327,3.115,8.419,2.691c4.135-0.566,5.117-5.739,5.2-9.197c0.295-12.279-9.65-5.154-16.118-5.043  c-7.883,0.136-7.646-6.901-6.181-12.365c1.074-4.009,0.791-7.386,0.292-10.779c-6.212-1.249-12.442-2.237-18.694-1.53  c-3.058,0.346-11.939,1.322-11.583,5.742c0.271,3.352,4.564,4.252,3.739,7.811c-5.604,4.077-17.021,6.148-22.54,0.946  c-3.186-3.003,3.569-7.255,2.487-11.439c-3.715-1.826-7.773-2.79-11.897-3.017c-6.767-0.371-13.437,1.041-20.047,2.417  c-0.011,0.151-0.018,0.303-0.032,0.454c-0.852,8.833-6.186,15.287,2.469,21.653c6.426,1.367,15.918-7.995,18.015,3.137  c0.624,3.318-0.399,6.869-2.37,9.563c-2.531,3.46-6.74,0.908-9.751-0.48c-8.693-4.007-11.6,6.971-10.328,13.654  c0.704,3.701,2.061,7.448,2.016,11.26c1.334,0.271,2.763,0.336,4.54-0.058c8.859-1.962,19.323-4.124,27.387,1.416  c0.958,3.706-4.769,7.803-3.425,10.331c1.73,3.254,6.546,3.772,9.813,3.952c4.112,0.225,8.318-0.613,11.913-2.66  c5.028-2.862-1.699-5.37-1.987-8.94c-0.405-5.012,15.264-6.026,30.638-5.708c-0.319-2.598-0.777-5.309-1.158-8.416  C476.831,344.314,478.3,331.431,486.695,334.447z"/>
<path fill-rule="evenodd" clip-rule="evenodd" fill="#FFFFFF" stroke="#000000" stroke-linecap="round" d="M613.21,300.214  c-12.198,3.133,4.646,9.396-5.043,13.619c-2.671,1.164-22.563,3.572-19.972-3.61c1.75-2.914,6.543-7.808,1.561-9.815  c-3.165-1.275-6.535-1.954-9.937-2.141c-6.461-0.354-12.892,0.863-19.302,2.169c1.72,4.833,3.341,9.725,2.913,14.757  c-0.282,3.32-1.201,7.673-4.956,7.482c-3.94-0.199-8.456-3.606-12.177-2.374c-2.426,3.028-4.902,3.325-4.528,8.07  c0.259,3.272,2.146,6.674,5.24,8.038c2.984,1.314,6.054,0.018,8.199-2.2c5.588-0.754,7.364,2.789,8.024,7.953  c0.693,5.427-0.682,10.645-1.335,15.91c6.749-0.011,13.498,0.415,20.175,1.387c3.452,0.503,11.409,0.072,9.611,5.229  c-2.063,4.508-4.554,4.826-1.446,9.073c4.023,1.708,23.486,3.7,21.455-4.469c-1.709-1.861-4.591-4.079-3.387-6.994  c2.102-2.126,6.156-2.443,9.076-3.103c4.722-1.065,15.171-1,23.117,0.329v-59.239C631.661,298.433,619.267,298.657,613.21,300.214z"/>
<path fill-rule="evenodd" clip-rule="evenodd" fill="#FFFFFF" stroke="#000000" stroke-linecap="round" d="M608.479,65.478  c1.199,2.371,3.989,3.284,3.29,6.298c-2.236,1.627-4.825,2.731-7.523,3.315c-4.583,0.992-11.437,1.006-15.017-2.369  c-3.186-3.002,3.568-7.255,2.487-11.439c-3.74-1.815-7.816-2.782-11.96-3.006c-6.549-0.355-13.002,0.968-19.4,2.307  c-1.345,3.925-2.584,7.89-2.667,12.032c-0.064,3.25,0.771,6.413,2.549,9.146c4.501,0.775,6.348,0.649,10.983-0.972  c8.676-3.035,10.932,7.113,7.542,13.272c-4.68,8.502-12.021-4.046-17.502,1.2c-7.385,7.066-4.225,16.095-1.119,24.9  c3.57,0.748,7.134,1.532,10.724,2.078c3.634,0.552,22.396,2.311,20.812-3.934c-0.721-3.803-4.385-5.114-2.427-8.987  c3.741-0.925,6.551-2.544,10.727-2.408c3.9,0.127,8.73,0.803,11.794,3.318c1.033,4.554-5.105,5.927-3.465,10.468  c5.827,3.416,20.491,6.252,32.193,4.969V60.483C627.343,59.171,605.414,59.418,608.479,65.478z"/>
<path fill-rule="evenodd" clip-rule="evenodd" fill="#FFFFFF" stroke="#000000" stroke-linecap="round" d="M620.666,182.34  c-3.3-0.453-6.584-1.021-9.894-1.401c-7.94-0.106,2.06-7.773-2.072-12.417c-4.849-1.633-19.32-4.188-20.472,3.457  c1.275,2.025,2.989,3.896,3.449,6.327c0.959,3.777-2.644,2.775-5.179,3.061c-5.232,0.59-10.488,0.955-15.75,1.135  c-3.123,0.107-6.248,0.142-9.372,0.127c0.029,1.262,0.151,2.524,0.435,3.789c1.753,7.826,4.302,18.767-7.876,15.609  c-5.414-1.403-5.573-2.172-10.638,0.257c-2.012,3.104-2.023,7.14-0.242,10.348c4.861,8.758,10.606-0.064,16.954,1.674  c4.913,6.25,4.377,13.621,2.156,20.814c-0.518,1.679-1.119,3.369-1.711,5.072c8.295,1.745,16.608,3.651,25,2.238  c3.876-0.652,7.828-0.999,5.68-5.835c-1.364-3.07-3.592-3.898-1.884-7.276c7-1.729,12.056-3.287,19.449-0.797  c4.169,1.405,3.77,4.056,1.116,7.188c-3.685,4.349-1.05,4.926,3.426,5.543c6.425,0.885,18.438,0.873,27.258-0.253v-58.45  C633.453,183.01,624.585,182.878,620.666,182.34z"/>
<path fill-rule="evenodd" clip-rule="evenodd" fill="#FFFFFF" stroke="#000000" stroke-linecap="round" d="M640.5,419.099  c-6.285-1.196-14.869-1.39-18.842-0.743c-3.103,0.505-13.98,1.241-13.629,5.609c0.401,4.976,7.945,6.464,0.138,9.868  c-5.019,2.188-10.87,2.3-16.055,0.627c-6.56-2.118-2.289-5.704-0.428-9.771c1.636-4.692-4.521-5.381-7.896-5.975  c-7.813-1.373-15.728,0.251-23.39,1.837c-2.187,6.436-4.262,13.366-1.025,19.716c4.493,8.817,18.295-7.909,20.851,5.661  c0.726,3.855-0.756,8.055-3.448,10.848c-4.263,1.661-7.495-2.028-11.458-2.705c-7.133-1.217-8.811,16.584-6.817,26.43h82V419.099z"/>
<path fill-rule="evenodd" clip-rule="evenodd" fill="#FFFFFF" stroke="#000000" stroke-linecap="round" d="M316.191,22.465  c-4.606-0.634-6.963-3.621-11.253-1.027c-3.369,2.037-3.899,6.218-2.503,9.86c0.981,2.561,3.062,4.923,5.834,5.521  c3.879,0.835,5.716-2.769,9.264-2.804c8.089-0.079,6.507,14.566,5.141,19.486c-0.644,2.317-1.471,4.619-2.266,6.935  c6.431-1.309,12.884-2.535,19.377-2.176c4.136,0.229,8.205,1.199,11.933,3.023c0.958,3.706-4.769,7.804-3.425,10.331  c3.855,7.25,18.406,3.852,23.478,0.162c0.825-3.558-3.469-4.459-3.739-7.811c-0.321-3.979,6.738-4.956,9.539-5.456  c7.661-1.367,15.342,0.113,22.874,1.696c0.773-2.235,1.57-4.458,2.197-6.694c1.376-4.912,2.975-19.575-5.108-19.496  c-3.548,0.035-5.385,3.639-9.264,2.804c-2.772-0.597-4.853-2.96-5.834-5.521c-1.396-3.642-0.866-7.824,2.503-9.86  c4.29-2.593,6.647,0.394,11.253,1.027c8.443,1.162,7.256-12.389,5.886-21.965h-80.351C323.191,10.432,324.245,23.573,316.191,22.465  z"/>
<path fill-rule="evenodd" clip-rule="evenodd" fill="#FFFFFF" stroke="#000000" stroke-linecap="round" d="M160.683,22.68  c-5.488,2.124-15.226-7.29-18.063,1.273c-2.091,6.311,0.807,13.825,8.171,12.839c1.886-1.8,5.71-3.348,8.29-2.685  c3.018,0.776,3.426,6.103,3.741,8.651c0.614,4.96,0.683,10.128,0.635,15.306c4.579,0.041,9.154,0.277,13.707,0.761  c4.895,0.52,9.764,1.317,14.553,2.458c1.082,4.185-5.673,8.436-2.487,11.439c5.52,5.202,16.936,3.131,22.54-0.946  c0.825-3.559-3.469-4.458-3.74-7.811c-0.357-4.419,8.527-5.396,11.584-5.742c6.906-0.781,13.786,0.506,20.644,1.929  c-1.205-3.217-2.415-6.42-2.983-9.65c-0.89-5.052-0.015-10.008,3.019-14.209c3.935-4.431,7.314-0.845,11.893,0.558  c9.685,2.968,12.829-21.604-2.671-15.379c-10.631,4.271-11.19-10.058-9.051-20.973h-77.869  C163.613,8.082,164.737,18.415,160.683,22.68z"/>
<path fill-rule="evenodd" clip-rule="evenodd" fill="#FFFFFF" stroke="#000000" stroke-linecap="round" d="M28.026,59.27  c5.292,2.096,4.197,5.06,1.372,9.126c-3.294,4.745,2.792,6.423,6.667,6.97c4.069,0.574,8.322,0.114,12.102-1.534  c4.809-2.097,4.047-3.555,1.239-6.976c-3.83-4.667,0.894-5.851,4.764-6.475c5.851-0.943,11.746-1.614,17.661-1.983  c2.316-0.145,4.637-0.237,6.959-0.286c-0.458-2.976-1.093-6.013-1.402-9.404c-0.968-10.62,3.574-16.685,13.411-12.38  c8.269,3.618,11.251-6.865,8.484-13.03c-3.604-8.027-12.932,2.091-19.003-1.577c-4.142-3.287-3.781-13.516-2.307-21.22H0.5v60.607  C7.941,59.53,22.247,56.981,28.026,59.27z"/>
<path fill-rule="evenodd" clip-rule="evenodd" fill="#FFFFFF" stroke="#000000" stroke-linecap="round" d="M482.965,19.086  c-2.325,6.225-7.517,3.175-12.263,1.702c-11.456-3.557-11.735,17.587,0.089,16.004c4.172-3.98,9.7-3.889,11.261,1.93  c1.35,5.034,1.206,10.367,0.905,15.522c-0.081,1.395,0.218,4.596,0.462,8.373c9.456-0.031,18.916-0.593,28.282-1.915  c1.247-4.056-4.443-6.903-3.043-10.168c1.531-3.572,8.004-3.731,11.319-3.623c3.9,0.127,8.73,0.803,11.794,3.318  c1.033,4.554-5.105,5.927-3.465,10.468c8.699,3.529,18.038,2.652,27.031,0.912c1.67-0.323,3.342-0.675,5.019-1.025  c0.811-2.365,1.659-4.716,2.316-7.083c1.367-4.92,2.948-19.564-5.141-19.486c-3.548,0.035-5.385,3.639-9.264,2.804  c-2.772-0.597-4.853-2.96-5.834-5.521c-1.396-3.642-0.866-7.824,2.503-9.86c4.29-2.593,6.647,0.394,11.253,1.027  c8.987,1.236,7.199-13.483,5.36-21.965h-79.708C482.87,6.596,484.461,15.08,482.965,19.086z"/>
<path fill-rule="evenodd" clip-rule="evenodd" fill="#FFFFFF" stroke="#000000" stroke-linecap="round" d="M102.074,59.459  c3.453,0.502,11.407,0.071,9.611,5.229c-1.861,4.067-6.132,7.654,0.428,9.771c3.985,1.287,21.434,2.286,19.581-5.167  c-2.251-2.451-5.107-4.825-2.463-8.049c5.787-1.104,11.627-1.933,17.494-2.473c5.558-0.511,11.147-0.757,16.732-0.707  c0.048-5.178-0.021-10.346-0.635-15.306c-0.315-2.549-0.723-7.875-3.741-8.651c-2.579-0.664-6.404,0.885-8.29,2.685  c-7.364,0.986-10.262-6.528-8.171-12.839c2.837-8.563,12.575,0.851,18.063-1.273c4.054-4.265,2.93-14.598,1.911-22.18H77.973  c-1.475,7.705-1.835,17.933,2.307,21.22c6.071,3.668,15.399-6.45,19.003,1.577c2.768,6.165-0.215,16.648-8.484,13.03  c-9.837-4.305-14.378,1.76-13.411,12.38c0.309,3.391,0.944,6.428,1.402,9.404C86.572,57.948,94.372,58.338,102.074,59.459z"/>
<path fill-rule="evenodd" clip-rule="evenodd" fill="#FFFFFF" stroke="#000000" stroke-linecap="round" d="M249.514,21.473  c15.5-6.225,12.356,18.347,2.671,15.379c-4.579-1.403-7.958-4.989-11.893-0.558c-3.034,4.201-3.908,9.157-3.019,14.209  c0.569,3.23,1.778,6.433,2.983,9.65c10.527,2.185,21.003,4.693,31.444,0.549c1.245-4.056-4.443-6.903-3.044-10.168  c1.285-2.996,6.206-3.453,9.082-3.602c4.421-0.23,8.901,0.657,12.98,2.349c3.978,4.28-4.133,6.658-2.414,11.417  c10.692,4.34,21.365,1.924,32.101-0.261c0.795-2.315,1.623-4.618,2.266-6.935c1.366-4.92,2.948-19.565-5.141-19.486  c-3.548,0.035-5.385,3.639-9.264,2.804c-2.773-0.597-4.853-2.96-5.834-5.521c-1.396-3.643-0.866-7.824,2.503-9.86  c4.291-2.593,6.647,0.394,11.253,1.027c8.054,1.108,7-12.034,5.535-21.965h-81.263C238.324,11.415,238.883,25.743,249.514,21.473z"/>
<path fill-rule="evenodd" clip-rule="evenodd" fill="#FFFFFF" stroke="#000000" stroke-linecap="round" d="M396.19,22.465  c-4.605-0.634-6.963-3.621-11.253-1.027c-3.369,2.037-3.899,6.218-2.503,9.86c0.981,2.561,3.062,4.923,5.834,5.521  c3.879,0.835,5.716-2.769,9.264-2.804c8.083-0.079,6.484,14.584,5.108,19.496c-0.627,2.237-1.424,4.459-2.197,6.694  c1.39,0.292,2.775,0.587,4.154,0.869c8.232,1.684,16.813,2.93,25.011,0.365c4.906-1.536,0.342-6.729-1.38-9.461  c0.637-4.254,5.939-4.861,9.511-5.047c4.421-0.23,8.901,0.657,12.98,2.349c3.664,3.943-2.713,5.945-2.669,9.769  c0.046,3.872,27.695,3.521,32.111,3.562c1.086,0.01,2.171,0.009,3.257,0.006c-0.244-3.776-0.543-6.978-0.462-8.373  c0.301-5.156,0.444-10.489-0.905-15.522c-1.561-5.819-7.089-5.91-11.261-1.93c-11.824,1.583-11.545-19.561-0.089-16.004  c4.746,1.474,9.938,4.523,12.263-1.702c1.496-4.006-0.095-12.49-1.122-18.586h-79.767C403.446,10.077,404.634,23.627,396.19,22.465z  "/>
<path fill-rule="evenodd" clip-rule="evenodd" fill="#FFFFFF" stroke="#000000" stroke-linecap="round" d="M561.551,0.5  c1.839,8.482,3.627,23.202-5.36,21.965c-4.605-0.634-6.963-3.621-11.253-1.027c-3.369,2.037-3.899,6.218-2.503,9.86  c0.981,2.561,3.062,4.923,5.834,5.521c3.879,0.835,5.716-2.769,9.264-2.804c8.089-0.079,6.508,14.566,5.141,19.486  c-0.657,2.367-1.506,4.717-2.316,7.083c6.398-1.339,12.852-2.662,19.4-2.307c4.144,0.224,8.22,1.191,11.96,3.006  c1.081,4.184-5.673,8.437-2.487,11.439c3.58,3.375,10.434,3.361,15.017,2.369c2.698-0.584,5.287-1.688,7.523-3.315  c0.699-3.015-2.091-3.927-3.29-6.298c-3.065-6.06,18.863-6.306,32.021-4.995V0.5H561.551z"/>
<path fill-rule="evenodd" clip-rule="evenodd" fill="#FFFFFF" stroke="#000000" stroke-linecap="round" d="M165.449,182.605  c5.271-0.06,10.541-0.292,15.793-0.733c4.186-0.352,12.633,0.888,9.892-5.278c-1.345-3.025-4.677-5.34-0.803-7.74  c3.986-2.47,9.612-2.291,14.095-1.45c3.809,0.715,9.448,1.603,6.61,6.551c-2.485,4.334-5.232,6.405,1.421,8.115  c8.934,2.297,18.14,0.507,26.979-1.312c0.291-0.06,0.583-0.12,0.874-0.18c-1.495-5.189-3.052-9.757-3.265-11.647  c-0.54-4.792,1.416-16.136,8.228-14.878c2.956,0.546,5.327,2.77,8.343,3.101c4.55,0.5,6.021-3.791,6.549-7.481  c0.517-3.611-0.398-7.155-3.39-9.45c-3.857-0.917-7.169,1.637-10.769,2.446c-8.599,1.933-9.019-9.26-7.76-14.996  c0.56-2.549,1.391-5.026,2.248-7.495c-4.834-1.016-9.675-1.974-14.624-2.188c-4.245-0.183-22.94,0.977-16.466,8.865  c3.545,4.319,2.375,5.928-3.169,7.703c-3.915,1.253-8.178,1.354-12.175,0.437c-3.67-0.842-7.409-2.646-4.664-6.6  c2.96-4.262,3.872-6.941-1.631-8.704c-9.289-2.975-18.6-1.086-27.941,0.872c-2.662,9.419-4.622,19.223,1.49,21.62  c6.412,2.515,17.454-7.77,18.92,4.053c0.936,7.547-3.416,13.081-10.799,9.449c-3.641-1.791-6.259-2.639-9.143,0.608  c-2.537,3.312-3.227,7.464-2.972,11.538c0.323,5.177,1.898,9.881,2.157,14.763C161.468,182.619,163.458,182.628,165.449,182.605z"/>
<path fill-rule="evenodd" clip-rule="evenodd" fill="#FFFFFF" stroke="#000000" stroke-linecap="round" d="M530.561,128.121  c6.848,7.02-14.765,7.527-18.448,6.338c-5.104-1.647-3.778-4.292-1.487-7.868c3.176-4.957-0.332-6.349-4.865-7.45  c-8.591-2.088-17.09-0.409-25.602,1.375c-1.675,4.955-3.105,9.961-2.296,15.075c1.854,11.7,9.602,4.616,17.004,4.435  c8.127-0.198,5.661,13.342,1.834,16.674c-6.842,2.854-12.28-7.633-17.443,1.179c-3.507,5.985-2.41,12.632-0.299,18.879  c0.647,1.915,1.411,3.869,2.128,5.854c2.334,0.014,4.668,0.001,7.002-0.051c5.268-0.119,10.531-0.415,15.774-0.927  c2.619-0.255,5.233-0.565,7.839-0.933c0.779-2.536-1.092-5.25-2.433-7.177c-5.283-7.596,13.988-6.507,17.326-5.633  c4.88,1.278,7.038,3.313,3.222,7.818c-5.537,6.536,4.477,5.589,9.099,5.947c7.473,0.579,14.967,0.935,22.462,0.971  c-0.173-7.499,3.358-14.959,1.482-22.475c-1.229-4.924-4.342-8.172-9.06-4.704c-2.406,1.77-5.454,2.018-7.96,0.306  c-5.229-3.571-6.119-15.56,2.119-15.703c4.141-0.072,8.204,2.707,12.758,2.664c1.814-2.681,2.761-5.791,2.74-9.027  c-0.026-4.227-1.663-8.846-3.314-13.528c-5.409-1.132-10.831-2.178-16.375-2.167C538.081,118.006,522.563,119.923,530.561,128.121z"/>
<path fill-rule="evenodd" clip-rule="evenodd" fill="#FFFFFF" stroke="#000000" stroke-linecap="round" d="M31.702,180.702  c1.245-4.056-4.443-6.903-3.044-10.168c1.531-3.572,8.004-3.731,11.32-3.623c3.898,0.127,8.732,0.801,11.793,3.318  c1.037,4.553-5.105,5.926-3.465,10.468c10.442,1.057,20.926,1.786,31.423,1.902c0.044-0.136,0.087-0.274,0.132-0.41  c2.152-6.499,5.181-13.391,3.798-20.394c-1.391-7.04-7.041-10.566-12.868-5.004c-11.666,1.562-11.596-19.087-0.815-16.214  c8.154,2.173,13.927,3.521,13.512-7.55c-0.168-4.489-1.497-8.706-2.876-12.789c-4.184-0.881-8.373-1.725-12.641-2.088  c-4.241-0.361-25.451,0.317-18.566,8.707c2.809,3.421,3.57,4.879-1.239,6.976c-3.78,1.648-8.033,2.108-12.102,1.534  c-3.875-0.546-9.961-2.225-6.667-6.97c2.825-4.067,3.92-7.031-1.372-9.126c-6.482-2.567-18.807-0.439-27.526,1.22v59.131  C10.088,181.726,24.286,183.655,31.702,180.702z"/>
<path fill-rule="evenodd" clip-rule="evenodd" fill="#FFFFFF" stroke="#000000" stroke-linecap="round" d="M320.717,142.717  c-4.554,0.043-8.617-2.736-12.757-2.664c-8.239,0.143-7.348,12.131-2.12,15.703c2.505,1.712,5.553,1.463,7.959-0.306  c4.298-3.16,7.253-0.795,8.969,3.618c2.695,6.927,0.063,14.225-2.196,20.864c-0.028,0.082-0.056,0.165-0.083,0.246  c2.766,0.582,5.529,1.183,8.298,1.67c4.121,0.726,8.311,1.222,12.502,1.024c4.267-0.202,12.518-0.262,9.845-6.276  c-1.345-3.026-4.676-5.339-0.803-7.74c3.39-2.1,7.992-2.217,11.883-1.781c3.324,0.372,9.522,0.822,9.76,4.943  c-0.823,2.011-1.998,3.874-3.75,5.207c-0.872,4.444,1.823,3.661,5.401,3.982c9.227,0.829,18.487,1.369,27.752,1.412  c-0.17-7.495,3.358-14.952,1.482-22.465c-1.229-4.923-4.342-8.172-9.06-4.704c-2.406,1.77-5.454,2.018-7.96,0.306  c-5.229-3.571-6.119-15.56,2.119-15.703c4.141-0.072,8.204,2.707,12.758,2.664c1.825-2.683,2.786-5.797,2.774-9.042  c-0.016-4.22-1.65-8.841-3.305-13.527c-4.725-0.992-9.459-1.92-14.294-2.133c-5.616-0.247-23.929,1.293-15.332,10.106  c6.469,6.632-12.946,7.69-16.499,6.875c-5.994-1.375-6.485-3.646-3.437-8.404c3.16-4.932-0.295-6.347-4.818-7.456  c-8.038-1.97-16.358-0.425-24.308,1.2c-0.386,0.079-0.774,0.159-1.162,0.239c1.602,4.54,3.14,9.009,3.154,13.101  C323.503,136.919,322.542,140.034,320.717,142.717z"/>
<path fill-rule="evenodd" clip-rule="evenodd" fill="#FFFFFF" stroke="#000000" stroke-linecap="round" d="M98.618,182.076  c3.148-0.223,14.13,0.455,13.061-3.771c-0.721-3.803-4.386-5.113-2.427-8.987c4.569-1.129,7.895-2.813,12.962-2.245  c3.32,0.372,9.529,0.822,9.76,4.943c-1.315,3.216-7.619,8.31-1.008,8.942c9.478,0.907,18.991,1.522,28.512,1.636  c-0.259-4.882-1.833-9.586-2.157-14.763c-0.254-4.074,0.436-8.226,2.972-11.538c2.884-3.248,5.502-2.399,9.143-0.608  c7.383,3.632,11.735-1.902,10.799-9.449c-1.466-11.823-12.508-1.538-18.92-4.053c-6.112-2.397-4.151-12.2-1.49-21.62  c-7.706,1.615-15.432,3.277-23.183,2.295c-4.791-0.607-11.482-1.653-6.827-7.149c3.817-4.505,1.659-6.54-3.221-7.818  c-3.337-0.875-22.609-1.963-17.326,5.633c1.341,1.928,3.211,4.64,2.433,7.177c-2.024,0.796-4.13,1.375-6.274,1.738  c-4.137,0.701-8.359,0.583-12.509,0.067c-4.142-0.515-8.221-1.41-12.306-2.269c1.379,4.083,2.708,8.3,2.876,12.789  c0.416,11.071-5.357,9.724-13.512,7.55c-10.781-2.874-10.851,17.775,0.815,16.214c5.827-5.562,11.477-2.036,12.868,5.004  c1.383,7.002-1.646,13.895-3.798,20.394c-0.045,0.136-0.087,0.273-0.132,0.41c1.025,0.011,2.051,0.024,3.077,0.023  C88.081,182.618,93.356,182.448,98.618,182.076z"/>
<path fill-rule="evenodd" clip-rule="evenodd" fill="#FFFFFF" stroke="#000000" stroke-linecap="round" d="M263.818,178.719  c3.374,0.592,9.498,1.283,7.866,5.969c-1.861,4.067-6.132,7.654,0.428,9.771c3.988,1.288,21.43,2.287,19.581-5.167  c-2.252-2.453-5.105-4.823-2.463-8.049c4.531-2.25,9.517-3.274,14.559-3.294c5.651-0.022,11.184,1.066,16.699,2.227  c0.028-0.082,0.056-0.165,0.083-0.246c2.26-6.639,4.892-13.937,2.196-20.864c-1.716-4.413-4.671-6.778-8.969-3.618  c-2.406,1.77-5.454,2.018-7.959,0.306c-5.229-3.572-6.12-15.56,2.12-15.703c4.141-0.072,8.203,2.707,12.757,2.664  c1.825-2.683,2.786-5.797,2.774-9.042c-0.015-4.092-1.553-8.561-3.154-13.101c-8.465,1.743-17.174,3.595-25.801,1.96  c-4.665-0.884-8.692-2.136-4.72-6.825c3.817-4.505,1.658-6.54-3.221-7.818c-5.003-1.311-10.478-1.467-15.385,0.333  c-3.271,2.453-3.165,3.249-0.925,6.808c3.312,5.262,0.195,6.551-4.829,7.397c-4.134,0.696-8.354,0.571-12.5,0.053  c-4.189-0.523-8.321-1.435-12.459-2.304c-0.857,2.469-1.688,4.946-2.248,7.495c-1.259,5.736-0.839,16.929,7.76,14.996  c3.599-0.809,6.911-3.363,10.769-2.446c2.992,2.295,3.907,5.839,3.39,9.45c-0.528,3.69-1.999,7.981-6.549,7.481  c-3.016-0.331-5.388-2.555-8.343-3.101c-6.812-1.258-8.768,10.085-8.228,14.878c0.213,1.89,1.771,6.458,3.265,11.647  C248.01,178.99,255.967,177.34,263.818,178.719z"/>
<path fill-rule="evenodd" clip-rule="evenodd" fill="#FFFFFF" stroke="#000000" stroke-linecap="round" d="M454.586,122.542  c-2.288-0.434-6.501-0.641-6.535-3.494c-0.029-2.524,1.811-3.042,2.986-5.092c2.837-4.949-2.802-5.836-6.611-6.551  c-4.372-0.821-9.009-0.723-13.217,0.82c-3.271,2.454-3.165,3.248-0.925,6.808c3.911,6.217-1.624,7.129-6.945,7.694  c-4.167,0.442-8.372,0.123-12.502-0.509c-3.57-0.546-7.107-1.325-10.65-2.069c1.654,4.687,3.289,9.308,3.305,13.527  c0.012,3.244-0.949,6.359-2.774,9.042c-4.554,0.043-8.617-2.736-12.758-2.664c-8.238,0.143-7.348,12.131-2.119,15.703  c2.506,1.712,5.554,1.463,7.96-0.306c4.718-3.468,7.83-0.219,9.06,4.704c1.876,7.513-1.652,14.97-1.482,22.465  c1.357,0.006,2.714,0.003,4.071-0.013c5.271-0.06,10.541-0.292,15.794-0.733c2.622-0.221,5.239-0.493,7.851-0.822  c4.037-0.509,2.989-3.16,1.191-6.018c-2.24-3.561-2.346-4.354,0.925-6.808c4.208-1.543,8.845-1.641,13.217-0.82  c3.81,0.715,9.448,1.603,6.611,6.551c-1.176,2.05-3.016,2.568-2.986,5.092c0.036,3.022,5.844,2.188,8.232,2.388  c8.249,0.689,16.524,1.127,24.803,1.175c-0.717-1.985-1.48-3.939-2.128-5.854c-2.111-6.247-3.208-12.894,0.299-18.879  c5.163-8.812,10.602,1.676,17.443-1.179c3.827-3.332,6.293-16.872-1.834-16.674c-7.402,0.181-15.15,7.265-17.004-4.435  c-0.81-5.113,0.621-10.12,2.296-15.075C471.681,122.293,463.191,124.174,454.586,122.542z"/>
<path fill-rule="evenodd" clip-rule="evenodd" fill="#FFFFFF" stroke="#000000" stroke-linecap="round" d="M608.307,120.697  c-1.641-4.541,4.498-5.915,3.465-10.468c-3.063-2.516-7.894-3.191-11.794-3.318c-4.176-0.137-6.985,1.483-10.727,2.408  c-1.958,3.873,1.706,5.184,2.427,8.987c1.585,6.245-17.178,4.486-20.812,3.934c-3.59-0.545-7.153-1.33-10.724-2.078  c1.651,4.683,3.288,9.302,3.314,13.528c0.021,3.236-0.926,6.346-2.74,9.027c-4.554,0.043-8.617-2.736-12.758-2.664  c-8.238,0.143-7.348,12.131-2.119,15.703c2.506,1.712,5.554,1.463,7.96-0.306c4.718-3.468,7.83-0.22,9.06,4.704  c1.876,7.516-1.655,14.976-1.482,22.475c3.124,0.015,6.249-0.02,9.372-0.127c5.262-0.18,10.518-0.544,15.75-1.135  c2.535-0.286,6.138,0.716,5.179-3.061c-0.46-2.431-2.174-4.302-3.449-6.327c1.151-7.645,15.623-5.09,20.472-3.457  c4.132,4.644-5.868,12.311,2.072,12.417c3.31,0.379,6.594,0.948,9.894,1.401c3.919,0.538,12.787,0.67,19.834,0.21v-56.884  C628.798,126.949,614.134,124.113,608.307,120.697z"/>
<path fill-rule="evenodd" clip-rule="evenodd" fill="#FFFFFF" stroke="#000000" stroke-linecap="round" d="M400.225,276.225  c3.236-2.823,5.433-2.429,9.236-0.557c2.717,1.336,6.251,2.751,8.393-0.177c3.444-4.708,3.917-17.105-4.861-15.214  c-3.76,0.811-7.912,4.119-11.664,1.895c-2.58-1.527-3.438-5.052-3.636-8.039c-0.317-4.777,1.185-9.4,2.757-13.926  c-0.003,0-0.005-0.001-0.008-0.001c-8.885-1.863-18.169-3.531-27.039-0.656c-12.333,3.997,4.403,10.082-5.235,14.284  c-3.957,1.725-24.673,3.065-18.769-5.437c2.892-4.165,3.871-7.044-1.503-9.127c-4.036-1.565-8.458-1.714-12.72-1.304  c-5.066,0.487-10.006,1.754-14.973,2.807c-0.337-0.213-0.686-0.4-1.034-0.588c0.108,2.181-0.047,4.42-0.742,6.778  c-2.133,7.237-1.339,19.018,9.298,15.174c3.16-1.142,7.515-3.693,10.313-0.64c2.325,2.538,2.805,6.159,1.977,9.406  c-2.884,11.311-9.286,2.639-16.167,3.086c-6.589,0.429-7.388,11.819-6.56,16.504c0.587,3.323,1.74,6.49,2.897,9.654  c2.17,0.457,4.334,0.926,6.492,1.343c8.317,1.606,16.958,2.384,25.024-0.788c1.249-4.056-4.444-6.901-3.043-10.168  c1.531-3.572,8.004-3.73,11.319-3.622c3.899,0.127,8.731,0.802,11.794,3.317c1.033,4.554-5.104,5.927-3.465,10.469  c8.675,3.544,18.029,2.621,27,0.893c1.485-0.286,2.974-0.595,4.466-0.906C400.343,292.189,394.046,284.055,400.225,276.225z"/>
<path fill-rule="evenodd" clip-rule="evenodd" fill="#FFFFFF" stroke="#000000" stroke-linecap="round" d="M28.026,299.27  c5.292,2.097,4.197,5.061,1.372,9.127c-3.295,4.744,2.792,6.424,6.667,6.97c4.069,0.574,8.322,0.114,12.102-1.533  c4.809-2.097,4.047-3.556,1.239-6.977c-6.267-7.635,14.43-9.073,18.797-9.147c4.202-0.071,8.458,0.729,12.02,3.063  c0.229-0.049,0.458-0.101,0.688-0.15c-3.062-8.848-6.748-17.177,1.314-26.397c6.643-2.075,10.179,6.104,16.552,0.551  c3.075-8.123,0.985-17.417-9.262-13.303c-8.843,3.552-14.084-1.411-11.33-10.118c1.325-4.188,1.288-7.841,0.835-11.501  c-3.648-0.753-7.308-1.438-11.027-1.749c-4.25-0.356-25.468,0.368-18.587,8.752c2.809,3.421,3.57,4.88-1.239,6.977  c-3.78,1.647-8.033,2.107-12.102,1.533c-3.875-0.546-9.962-2.226-6.667-6.97c2.825-4.066,3.92-7.031-1.372-9.126  c-6.721-2.662-18.998-0.751-27.526,0.778v60.57C9.416,298.9,21.759,296.788,28.026,299.27z"/>
<path fill-rule="evenodd" clip-rule="evenodd" fill="#FFFFFF" stroke="#000000" stroke-linecap="round" d="M533.388,239.542  c-5.107,1.667-6.972,4.331-2.827,8.579c3.458,3.545-1.06,5.394-4.324,6.438c-3.944,1.262-22.354,1.779-16.838-6.163  c3.813-5.491,2.749-7.705-3.618-9.264c-3.938-0.965-8.021-1.095-12.048-0.766c-4.576,0.375-9.066,1.289-13.556,2.22  c-2.908,10.468-5.052,22.467,4.02,22.312c4.384-0.075,8.066-3.747,12.58-2.674c2.992,2.295,3.906,5.839,3.39,9.449  c-1.354,9.46-6.78,7.178-13.471,4.773c-8.365-3.006-9.472,10.667-9.433,16.074c0.024,3.367,0.615,6.306,1.045,9.232  c11.184,2.249,22.309,5.347,33.394,0.947c1.249-4.056-4.444-6.901-3.043-10.168c1.284-2.996,6.205-3.453,9.081-3.603  c4.422-0.23,8.902,0.657,12.981,2.35c3.976,4.278-4.132,6.658-2.414,11.417c10.709,4.375,21.431,1.933,32.211-0.262  c-2.883-8.104-6.044-16.045-0.293-24.211c3.236-2.823,5.432-2.429,9.236-0.557c2.717,1.336,6.251,2.751,8.393-0.177  c3.444-4.708,3.917-17.105-4.861-15.214c-3.76,0.811-7.912,4.119-11.664,1.895c-2.58-1.527-3.438-5.052-3.636-8.039  c-0.318-4.782,1.188-9.411,2.763-13.941C551.437,238.294,542.439,236.586,533.388,239.542z"/>
<path fill-rule="evenodd" clip-rule="evenodd" fill="#FFFFFF" stroke="#000000" stroke-linecap="round" d="M179.613,299.126  c3.641,0.456,13.971,0.107,12.072,5.563c-2.063,4.51-4.552,4.825-1.446,9.073c3.747,1.591,7.938,2.162,11.976,1.671  c2.511-0.305,9.844-1.665,9.665-4.966c-0.203-3.733-6.192-4.902-2.648-9.223c8.104-1.974,16.844-4.909,25.234-2.917  c1.821,0.433,3.568,1.14,5.174,2.102c-0.694-6.2-3.385-12.142-1.921-18.579c0.638-2.804,2.698-7.752,6.073-7.903  c3.61-0.162,6.336,2.826,9.826,3.209c7.455,0.818,8.202-11.425,4.58-15.602c-5.288-6.099-15.475,7.523-19.505-2.876  c-2.374-6.124-0.6-12.144,1.512-18.169c-7.167,1.491-14.35,3.054-21.48,2.554c-4.101-0.287-11.57-0.377-10.501-5.839  c3.517-2.676,5.579-6.983,0.476-8.702c-4.846-1.632-19.324-4.188-20.471,3.458c1.276,2.025,2.989,3.896,3.45,6.326  c0.956,3.777-2.641,2.774-5.179,3.061c-5.232,0.591-10.488,0.955-15.75,1.135c-3.287,0.112-6.575,0.146-9.863,0.124  c2.943,10.76,4.88,22.983-5.873,19.663c-4.178-1.29-10.435-4.243-12.392,1.664c-1.098,3.314-0.775,7.132,1.065,10.125  c5.307,8.634,15.259-6.947,18.366,4.644c1.664,6.209,1.32,12.815,1.071,19.367c0.479,0.004,0.958-0.002,1.437,0.006  C169.59,298.174,174.619,298.501,179.613,299.126z"/>
<path fill-rule="evenodd" clip-rule="evenodd" fill="#FFFFFF" stroke="#000000" stroke-linecap="round" d="M105.886,298.611  c6.377,1.73,7.188,4.494,3.512,9.785c-5.516,7.941,12.895,7.425,16.839,6.163c3.263-1.045,7.783-2.894,4.324-6.438  c-4.651-4.767-1.819-6.865,3.609-7.739c9.565-1.542,19.261-2.36,28.953-2.294c0.249-6.552,0.593-13.158-1.071-19.367  c-3.107-11.591-13.059,3.99-18.366-4.644c-1.84-2.993-2.164-6.811-1.065-10.125c1.957-5.907,8.214-2.954,12.392-1.664  c10.753,3.32,8.816-8.903,5.873-19.663c-7.332-0.049-14.662-0.4-21.97-0.968c-4.623-0.358-14.636,0.589-9.099-5.947  c3.817-4.505,1.659-6.54-3.221-7.818c-3.337-0.875-22.61-1.963-17.326,5.633c1.341,1.927,3.211,4.64,2.433,7.176  c-2.025,0.79-4.131,1.363-6.275,1.719c-4.136,0.689-8.356,0.563-12.503,0.042c-4.681-0.589-9.284-1.656-13.903-2.609  c0.453,3.66,0.49,7.313-0.835,11.501c-2.755,8.707,2.487,13.67,11.33,10.118c10.247-4.114,12.337,5.18,9.262,13.303  c-6.373,5.553-9.909-2.626-16.552-0.551c-8.062,9.221-4.375,17.55-1.314,26.397c4.012-0.869,8.006-1.84,12.077-2.4  C97.254,297.635,101.69,297.473,105.886,298.611z"/>
<path fill-rule="evenodd" clip-rule="evenodd" fill="#FFFFFF" stroke="#000000" stroke-linecap="round" d="M323.848,273.988  c6.881-0.447,13.283,8.225,16.167-3.086c0.828-3.247,0.349-6.868-1.977-9.406c-2.799-3.054-7.153-0.502-10.313,0.64  c-10.637,3.844-11.431-7.937-9.298-15.174c0.695-2.357,0.85-4.597,0.742-6.778c-3.387-1.83-7.243-2.521-11.084-2.46  c-3.821,0.061-22.831,1.379-19.605,7.753c2.084,4.12,6.077,5.57-0.313,8.355c-3.78,1.647-8.033,2.107-12.102,1.533  c-1.954-0.275-9.15-1.593-7.87-5.144c1.756-2.923,6.545-7.811,1.55-9.817c-9.697-3.896-19.604-1.965-29.541,0.103  c-2.112,6.025-3.886,12.045-1.512,18.169c4.03,10.399,14.217-3.223,19.505,2.876c3.622,4.177,2.875,16.42-4.58,15.602  c-3.49-0.383-6.216-3.371-9.826-3.209c-3.375,0.151-5.435,5.1-6.073,7.903c-1.464,6.438,1.227,12.379,1.921,18.579  c0.193,0.115,0.394,0.22,0.583,0.344c2.08-0.443,4.151-0.925,6.231-1.367c4.988-1.062,10.132-1.972,15.25-1.522  c3.054,0.269,10.251,1.264,10.229,5.172c-0.02,3.414-5.838,6.713-2.702,9.668c3.372,3.178,23.041,4.937,22.649-2.256  c-0.171-3.14-5.159-4.323-3.573-8.168c2.75-2.774,7.532-3.657,11.346-4.093c6.918-0.79,13.761,0.515,20.533,1.94  c-1.157-3.164-2.31-6.331-2.897-9.654C316.46,285.808,317.259,274.417,323.848,273.988z"/>
<path fill-rule="evenodd" clip-rule="evenodd" fill="#FFFFFF" stroke="#000000" stroke-linecap="round" d="M449.816,235.71  c7.764-9.165-11.216-9.444-16.481-8.136c-4.914,1.221-5.602,3.404-3.051,7.458c3.32,5.277,0.171,6.556-4.857,7.408  c-8.379,1.419-16.801-0.519-24.978-2.233c-1.572,4.525-3.074,9.148-2.757,13.926c0.198,2.987,1.056,6.512,3.636,8.039  c3.752,2.225,7.904-1.084,11.664-1.895c8.778-1.892,8.306,10.506,4.861,15.214c-2.142,2.928-5.676,1.513-8.393,0.177  c-3.804-1.872-6-2.267-9.236,0.557c-6.179,7.83,0.118,15.965-0.452,24.459c6.61-1.376,13.28-2.788,20.047-2.417  c4.124,0.227,8.183,1.19,11.897,3.017c1.082,4.185-5.673,8.437-2.487,11.439c5.52,5.202,16.937,3.131,22.54-0.946  c0.825-3.559-3.469-4.459-3.739-7.811c-0.356-4.42,8.525-5.396,11.583-5.742c6.252-0.707,12.482,0.281,18.694,1.53  c-0.43-2.927-1.021-5.865-1.045-9.232c-0.039-5.407,1.067-19.08,9.433-16.074c6.69,2.404,12.117,4.687,13.471-4.773  c0.517-3.61-0.397-7.154-3.39-9.449c-4.514-1.073-8.196,2.599-12.58,2.674c-9.071,0.155-6.928-11.844-4.02-22.312  c-3.675,0.762-7.348,1.534-11.065,2.032C464.373,243.254,442.535,244.305,449.816,235.71z"/>
<path fill-rule="evenodd" clip-rule="evenodd" fill="#FFFFFF" stroke="#000000" stroke-linecap="round" d="M613.242,241.253  c-4.476-0.617-7.11-1.194-3.426-5.543c2.653-3.133,3.053-5.784-1.116-7.188c-7.394-2.49-12.449-0.933-19.449,0.797  c-1.708,3.378,0.52,4.206,1.884,7.276c2.148,4.836-1.804,5.183-5.68,5.835c-8.392,1.413-16.705-0.493-25-2.238  c-1.574,4.53-3.081,9.159-2.763,13.941c0.198,2.987,1.056,6.512,3.636,8.039c3.752,2.225,7.904-1.084,11.664-1.895  c8.778-1.892,8.306,10.506,4.861,15.214c-2.142,2.928-5.676,1.513-8.393,0.177c-3.805-1.872-6-2.267-9.236,0.557  c-5.751,8.166-2.59,16.106,0.293,24.211c6.41-1.306,12.841-2.523,19.302-2.169c3.401,0.187,6.771,0.865,9.937,2.141  c4.982,2.008,0.189,6.901-1.561,9.815c-2.591,7.183,17.301,4.774,19.972,3.61c9.688-4.224-7.155-10.486,5.043-13.619  c6.057-1.557,18.451-1.781,27.29,0.072V241C631.68,242.126,619.667,242.139,613.242,241.253z"/>
<path fill-rule="evenodd" clip-rule="evenodd" fill="#FFFFFF" stroke="#000000" stroke-linecap="round" d="M400.225,396.225  c6.104-5.324,10.1,3.064,16.551,0.551c4.271-4.43,5.839-18.571-3.783-16.498c-6.479,1.396-15.994,5.661-16.096-5.674  c-0.041-4.647,2.402-8.884,2.844-13.466c0.039-0.405,0.045-0.81,0.05-1.213c-2.309-0.469-4.331-1.557-7.37-1.979  c-4.284-0.594-8.654-0.034-12.862,0.817c-2.902,0.587-11.863,1.047-11.527,5.202c0.271,3.352,4.564,4.252,3.739,7.811  c-5.604,4.077-17.021,6.148-22.54,0.946c-3.186-3.003,3.569-7.255,2.487-11.439c-4.801-1.132-9.678-1.925-14.582-2.442  c-5.145-0.543-10.318-0.782-15.492-0.768c-0.204,1.55-0.342,3.091-0.328,4.615c0.044,4.713,6.856,20.478-2.84,19.986  c-3.941-0.199-8.457-3.606-12.177-2.374c-1.319,1.646-2.905,1.389-3.788,3.461c-0.819,1.921-0.975,4.076-0.511,6.106  c1.471,6.441,8.324,9.389,13.209,4.341c11.514-1.554,7.72,15.639,6.656,22.377c-0.196,1.241-0.323,2.441-0.388,3.626  c8.08-1.673,16.153-3.077,24.305-1.08c4.527,1.109,8.013,2.515,4.844,7.46c-2.291,3.575-3.617,6.22,1.487,7.868  c3.684,1.188,25.296,0.681,18.448-6.339c-8.004-8.204,7.562-10.134,13.253-10.15c5.536-0.017,10.949,1.031,16.35,2.167  c-0.421-1.144-0.835-2.273-1.208-3.385C396.618,409.787,395.742,402.565,400.225,396.225z"/>
<path fill-rule="evenodd" clip-rule="evenodd" fill="#FFFFFF" stroke="#000000" stroke-linecap="round" d="M561.142,395.878  c-3.913-6.038-11.685,5.324-17.299-2.04c-5.018-6.581-0.401-16.137,7.936-12.543c4.004,1.726,9.383,2.917,11.363-1.853  c1.484-3.574,0.072-7.55-0.859-11.063c-0.929-3.502-0.805-6.914-0.384-10.307c-4.21,0.007-8.42,0.181-12.612,0.504  c-4.241,0.326-26.443,0.283-19.88,8.28c3.545,4.319,2.374,5.929-3.17,7.703c-3.914,1.253-8.178,1.354-12.175,0.437  c-3.67-0.842-7.409-2.646-4.663-6.6c1.13-1.627,2.521-3.252,2.533-5.342c0.018-2.886-2.714-2.354-4.993-2.783  c-3.067-0.579-15.568-1.751-28.271-2.014c0.585,4.752,0.699,9.116-1.01,14.781c-2.079,6.891,3.201,11.569,10.113,9.107  c4.123-1.47,8.71-4.107,11.447,0.87c1.712,3.113,1.16,6.868,0.135,10.101c-2.702,8.521-10.378,0.597-15.563,0.829  c-8.703,0.391-6.305,16.728-5.239,21.74c0.489,2.3,1.035,4.589,1.168,6.911c1.909,0.021,3.818,0.029,5.729,0.008  c5.271-0.061,10.541-0.292,15.794-0.733c4.186-0.352,12.631,0.889,9.892-5.276c-1.345-3.027-4.676-5.339-0.803-7.741  c3.985-2.472,9.613-2.291,14.095-1.449c3.811,0.715,9.447,1.602,6.61,6.551c-2.49,4.346-5.229,6.408,1.439,8.113  c8.934,2.284,18.124,0.504,26.962-1.32c0.319-0.065,0.64-0.132,0.961-0.198c0.44-1.298,0.885-2.577,1.292-3.825  C563.946,409.805,565.357,402.383,561.142,395.878z"/>
<path fill-rule="evenodd" clip-rule="evenodd" fill="#FFFFFF" stroke="#000000" stroke-linecap="round" d="M28.026,419.27  c5.292,2.097,4.197,5.061,1.372,9.127c-3.295,4.744,2.792,6.424,6.667,6.97c4.069,0.574,8.322,0.114,12.102-1.533  c4.809-2.097,4.047-3.556,1.239-6.977c-3.83-4.667,0.894-5.852,4.764-6.475c5.851-0.943,11.746-1.614,17.661-1.983  c3.146-0.196,6.302-0.297,9.458-0.314c1.832-5.304,3.471-10.719,2.371-16.288c-1.391-7.041-7.04-10.565-12.868-5.005  c-11.066,1.485-9.693-11.471-4.569-16.568c7.105-0.811,16.023,8.037,17.073-4.166c0.167-1.937,0.48-7.226,0.476-13.428  c-0.319,0.002-0.638,0.009-0.957,0.009c-11.528,0.009-23.045-0.766-34.508-1.94c-1.64-4.542,4.501-5.915,3.465-10.469  c-3.06-2.517-7.896-3.19-11.793-3.318c-3.315-0.108-9.789,0.051-11.32,3.623c-1.4,3.267,4.291,6.111,3.044,10.168  c-7.753,3.087-21.88,1.887-31.202-0.082v60.586C9.416,419.312,21.759,416.788,28.026,419.27z"/>
<path fill-rule="evenodd" clip-rule="evenodd" fill="#FFFFFF" stroke="#000000" stroke-linecap="round" d="M239.081,394.106  c-4.067-1.045-6.769,2.84-10.61,2.878c-4.098,0.041-6.044-4.184-6.417-7.818c-0.478-4.668,1.25-6.04,4.168-8.943  c4.809-0.549,9.754,4.276,14.46,2.457c4.98-7.174,2.387-14.602-0.335-22.107c-0.304,0.063-0.608,0.125-0.911,0.188  c-8.84,1.818-18.046,3.608-26.979,1.312c-6.653-1.71-3.906-3.781-1.421-8.115c2.837-4.949-2.801-5.836-6.611-6.551  c-4.482-0.842-10.109-1.021-14.094,1.449c-3.873,2.401-0.542,4.715,0.803,7.741c2.74,6.165-5.707,4.925-9.892,5.276  c-5.253,0.441-10.522,0.673-15.793,0.733c-1.975,0.022-3.949,0.014-5.924-0.01c-1.937,5.897-3.161,11.755-0.145,17.59  c4.329,8.376,15.197-5.609,19.839,2.831c2.789,5.07,0.548,16.158-7.033,13.835c-3.303-1.013-6.287-3.775-9.961-2.627  c-2.25,2.572-4.089,4.977-4.888,8.4c-1.393,5.969,0.757,11.924,2.796,17.508c2.875,0.605,5.746,1.234,8.625,1.741  c4.119,0.725,8.307,1.216,12.496,1.013c4.269-0.207,12.557-0.272,9.882-6.291c-1.345-3.026-4.676-5.34-0.803-7.741  c3.388-2.101,7.993-2.217,11.882-1.781c3.32,0.371,9.529,0.822,9.76,4.943c-0.823,2.012-1.998,3.874-3.75,5.207  c-0.87,4.444,1.821,3.661,5.401,3.982c8.655,0.777,17.339,1.294,26.03,1.392c0.878-2.637,1.885-5.238,2.676-7.819  C243.781,410.047,246.315,395.966,239.081,394.106z"/>
<path fill-rule="evenodd" clip-rule="evenodd" fill="#FFFFFF" stroke="#000000" stroke-linecap="round" d="M157.336,402.625  c0.799-3.424,2.638-5.828,4.888-8.4c3.674-1.148,6.658,1.614,9.961,2.627c7.581,2.323,9.822-8.765,7.033-13.835  c-4.642-8.44-15.51,5.545-19.839-2.831c-3.016-5.835-1.792-11.692,0.145-17.59c-9.538-0.112-19.066-0.729-28.56-1.637  c-6.611-0.633-0.308-5.727,1.008-8.942c-0.231-4.121-6.439-4.572-9.76-4.943c-5.068-0.567-8.393,1.119-12.962,2.245  c-1.959,3.873,1.707,5.186,2.427,8.987c1.071,4.224-9.888,3.557-13.031,3.781c-4.95,0.354-9.913,0.519-14.876,0.542  c0.004,6.202-0.31,11.491-0.476,13.428c-1.05,12.203-9.968,3.355-17.073,4.166c-5.124,5.098-6.498,18.054,4.569,16.568  c5.828-5.561,11.477-2.036,12.868,5.005c1.1,5.569-0.539,10.984-2.371,16.288c6.952-0.038,13.907,0.374,20.785,1.375  c3.454,0.503,11.406,0.071,9.611,5.229c-1.861,4.067-6.132,7.653,0.428,9.771c3.986,1.286,21.435,2.286,19.581-5.167  c-2.251-2.45-5.108-4.824-2.463-8.049c4.543-2.237,9.534-3.259,14.582-3.273c5.522-0.017,10.93,1.029,16.319,2.162  C158.093,414.549,155.943,408.594,157.336,402.625z"/>
<path fill-rule="evenodd" clip-rule="evenodd" fill="#FFFFFF" stroke="#000000" stroke-linecap="round" d="M315.208,394.209  c-4.885,5.048-11.738,2.101-13.209-4.341c-0.464-2.03-0.309-4.186,0.511-6.106c0.883-2.072,2.469-1.814,3.788-3.461  c3.721-1.232,8.236,2.175,12.177,2.374c9.696,0.491,2.884-15.273,2.84-19.986c-0.014-1.524,0.124-3.065,0.328-4.615  c-4.974,0.015-9.948,0.264-14.897,0.717c-5.873,0.538-11.719,1.363-17.515,2.454c-2.642,3.227,0.21,5.597,2.463,8.049  c1.849,7.454-15.592,6.454-19.581,5.167c-6.56-2.118-2.29-5.704-0.428-9.771c1.631-4.686-4.492-5.377-7.866-5.97  c-7.839-1.376-15.783,0.266-23.47,1.854c2.722,7.506,5.315,14.934,0.335,22.107c-4.706,1.819-9.651-3.006-14.46-2.457  c-2.918,2.903-4.646,4.275-4.168,8.943c0.373,3.635,2.318,7.859,6.417,7.818c3.841-0.038,6.543-3.923,10.61-2.878  c7.234,1.859,4.7,15.94,3.25,20.672c-0.791,2.581-1.798,5.183-2.676,7.819c1.931,0.021,3.863,0.03,5.794,0.008  c5.271-0.061,10.541-0.292,15.793-0.733c2.622-0.221,5.24-0.493,7.851-0.822c4.038-0.51,2.99-3.159,1.191-6.017  c-2.239-3.559-2.348-4.357,0.925-6.809c4.208-1.543,8.845-1.64,13.216-0.819c3.81,0.715,9.448,1.602,6.611,6.551  c-1.175,2.05-3.014,2.568-2.985,5.092c0.033,2.851,4.222,3.052,6.508,3.483c9.057,1.708,17.991-0.47,26.917-2.319  c0.064-1.185,0.191-2.385,0.388-3.626C322.929,409.848,326.723,392.655,315.208,394.209z"/>
<path fill-rule="evenodd" clip-rule="evenodd" fill="#FFFFFF" stroke="#000000" stroke-linecap="round" d="M483.791,393.946  c5.185-0.232,12.86,7.692,15.563-0.829c1.025-3.232,1.577-6.987-0.135-10.101c-2.737-4.978-7.324-2.34-11.447-0.87  c-6.912,2.462-12.192-2.217-10.113-9.107c1.709-5.665,1.595-10.029,1.01-14.781c-15.374-0.318-31.043,0.696-30.638,5.708  c0.288,3.57,7.016,6.078,1.987,8.94c-3.595,2.047-7.801,2.885-11.913,2.66c-3.267-0.18-8.082-0.698-9.813-3.952  c-1.344-2.528,4.383-6.625,3.425-10.331c-8.063-5.54-18.527-3.378-27.387-1.416c-1.777,0.394-3.206,0.328-4.54,0.058  c-0.005,0.403-0.011,0.808-0.05,1.213c-0.441,4.582-2.885,8.818-2.844,13.466c0.102,11.335,9.617,7.07,16.096,5.674  c9.622-2.073,8.054,12.068,3.783,16.498c-6.451,2.514-10.447-5.875-16.551-0.551c-4.482,6.341-3.606,13.563-1.27,20.528  c0.373,1.111,0.787,2.241,1.208,3.385c3.553,0.747,7.101,1.532,10.674,2.079c4.13,0.633,8.335,0.951,12.502,0.51  c4.109-0.437,10.233-0.644,7.795-6.131c-1.345-3.027-4.676-5.339-0.803-7.741c3.763-2.333,9.19-2.338,13.453-1.565  c2.468,0.447,10.663,2.063,7.43,5.929c-0.188,3.097-7.345,7.063-0.248,7.741c9.558,0.915,19.151,1.533,28.754,1.639  c-0.133-2.322-0.679-4.611-1.168-6.911C477.486,410.674,475.088,394.337,483.791,393.946z"/>
<path fill-rule="evenodd" clip-rule="evenodd" fill="#FFFFFF" stroke="#000000" stroke-linecap="round" d="M617.383,359.196  c-2.92,0.659-6.975,0.977-9.076,3.103c-1.204,2.915,1.678,5.133,3.387,6.994c2.031,8.169-17.432,6.177-21.455,4.469  c-3.107-4.247-0.616-4.565,1.446-9.073c1.798-5.157-6.159-4.727-9.611-5.229c-6.677-0.972-13.426-1.397-20.175-1.387  c-0.421,3.393-0.545,6.805,0.384,10.307c0.932,3.514,2.344,7.489,0.859,11.063c-1.98,4.77-7.359,3.578-11.363,1.853  c-8.337-3.594-12.953,5.962-7.936,12.543c5.614,7.364,13.386-3.998,17.299,2.04c4.216,6.505,2.805,13.927,0.549,20.848  c-0.407,1.248-0.852,2.527-1.292,3.825c7.662-1.586,15.576-3.21,23.39-1.837c3.375,0.594,9.532,1.282,7.896,5.975  c-1.861,4.067-6.132,7.653,0.428,9.771c5.185,1.673,11.036,1.561,16.055-0.627c7.808-3.404,0.264-4.893-0.138-9.868  c-0.352-4.368,10.526-5.104,13.629-5.609c3.973-0.646,12.557-0.453,18.842,0.743v-59.573  C632.554,358.196,622.104,358.131,617.383,359.196z"/>
</svg>