<svg xmlns="http://www.w3.org/2000/svg" width="604" height="916" stroke-width=".1">
<path d="M0 0H604V916H0" fill="#f76b16"/>
<g fill="#fff" stroke="#fff">
	<path d="M294.56 50.62c4.6-.35 9.1-.3 13.6 .05-1.76 3.72-3.92 7.24-5.68 10.96 2.69-1.13 5.17-2.36 7.76-3.69 .14 3.8 .08 7.7-.17 11.5-2.41-1.07-4.63-2.45-6.94-3.73 .02 1.8 .04 3.6 .06 5.5 3.42 1.76 6.95 4.43 7.1 8.62 .57 6.89-7.97 11.99-13.81 8.65-4.92-1.95-6.79-8.43-3.94-12.76 1.47-2.62 4.46-3.55 6.95-4.98-.02-1.9-.04-3.9-.16-5.8-2.28 1.43-4.67 2.85-7.15 4.18-.25-4.2-.29-8.3 .06-12.4 2.62 1.67 5.14 3.34 7.85 4.71-1.64-3.68-3.68-7.26-5.52-10.84"/>
	<path d="M281.31 83.36c2.18-1.82 6.3-.17 6.23 2.73 .33 2.7-2.75 4.63-5.16 3.76-3.2-.36-3.96-5.06-1.07-6.49"/>
	<path d="M313.31 82.91c2.77-2.33 7.52 1.32 5.65 4.54-1.07 2.81-5.87 3.06-6.9 .08-1.22-1.59-.14-3.6 1.25-4.62"/>
	<path d="M270.34 85.48c2.48-1.73 6.51 .63 5.94 3.64-.47 2.4-3.65 4.44-5.77 2.86-2.81-1.07-2.76-5.27-.17-6.5"/>
	<path d="M325.34 85.88c3.38-1.34 7.24 3.52 3.87 5.96-1.58 2.02-4.79 1.55-6.01-.53-1.62-1.88-.05-4.8 2.14-5.42"/>
	<path d="M258.41 92.61c.36-3.7 7.15-4.28 7.3-.18 .53 2.49-2.06 3.52-3.65 4.74-1.51-1.28-4.03-2.26-3.65-4.56"/>
	<path d="M335.49 90.07c1.99-1.02 5.3 .14 5.23 2.54 .74 3.29-3.74 5.54-6.06 3.27-2.32-1.27-1.36-4.99 .83-5.81"/>
	<path d="M249.76 96.61c-.02-2 2.68-2.23 4.07-3.14 1.01 1.09 1.92 2.18 2.94 3.27-1.09 1.21-1.66 3.62-3.66 3.44-1.9 .12-4.02-1.55-3.34-3.56"/>
	<path d="M344.75 95.57c1.79-.32 4.19-.75 5.11 1.24 1.32 1.49-.05 4.3-1.95 4.42-1.99 .62-3.22-1.26-4.53-2.25 .39-.8 .97-2.51 1.36-3.41"/>
	<path d="M240.12 102.61c1.37-2.52 3.86-3.24 6.57-2.67 .12 1.7 .04 3.5-.04 5.2-2.69 .63-5.1-.04-6.53-2.53"/>
	<path d="M354.41 100.66c4.28-2.05 6.36 5.23 1.76 5.58-3.59 1.04-5.05-4.64-1.76-5.58"/>
	<path d="M233.95 105.78c1.9-.02 3.81 .66 5.42 1.74-.79 1.11-1.48 2.32-2.36 3.33-1.4-.08-2.71-.57-4.01-.86 .28-1.4 .57-2.81 .95-4.21"/>
	<path d="M362.68 106.67c1.49-.32 2.9 .47 4.31 .85-.39 1.4-.87 2.91-1.35 4.32-1-.09-2.9-.17-3.81-.26-.12-1.7-.84-3.79 .85-4.91"/>
	<path d="M226.05 114.87c1.17-2.31 3.16-3.54 5.77-2.86 .02 1.5-.07 2.9-.15 4.4-2 .22-4-.36-5.62-1.54"/>
	<path d="M368.34 112.81c1.7-.22 3.3-.24 5-.15 .01 .9 .03 2.9 .04 3.9-1.5 .22-2.99 .33-4.49 .45-.22-1.4-.43-2.79-.55-4.19"/>
	<path d="M298.6 91.58c4.38-2.15 7.56 5.12 2.87 6.67-4.28 1.85-7.15-4.82-2.87-6.67"/>
	<path d="M296.13 103c1.37-2.72 3.86-3.34 6.67-2.67 .02 1.7 .04 3.4-.04 5.2-2.69 .63-5.2 .06-6.63-2.53"/>
	<path d="M298.49 108.48c1.1-.21 2.2-.32 3.2-.34 .12 1.4 .23 2.8 .25 4.2-1.4 .11-2.7 .33-4.09 .55-.02-1.5-1.24-3.69 .65-4.41"/>
	<path d="M241.6 110c14.09-9.76 30.53-16.14 47.4-18.82 2.57 6.57 5.04 13.25 6.22 20.23-1.3 .21-2.6 .33-3.79 .54-1.16-5.69-2.83-11.37-5.08-16.65-19.16 3.91-37.67 12.21-52.23 25.47-1.01-.59-2.02-1.28-3.02-1.87 3.06-3.53 6.73-6.27 10.5-8.91"/>
	<path d="M311.41 91.84c20.84 3.37 40.45 12.96 56.3 26.79-.8 .91-1.58 1.82-2.47 2.83-14.64-12.84-32.54-21.65-51.58-25.54-2.14 5.42-3.98 10.94-5.22 16.56-1.2-.19-2.5-.37-3.71-.56 1.43-6.92 3.85-13.64 6.68-20.07"/>
	<path d="M256.66 106.03c6.16 5.23 9.64 13.2 9.03 21.3 1.89-1.42 3.77-3.04 6.16-3.57 5.79-1.26 11.85 4.47 11.21 10.28 .35 4.4-2.71 7.93-5.68 10.76-1.13-2.89-.88-7.09-4.19-8.56-3.62-1.66-7.98 1.59-8.24 5.39-.75 4.81 2.5 9.67 6.92 11.43 6.63 3.13 15.12 1.73 20.16-3.62 2.96-3.13 4.32-7.25 4.97-11.45-3.49 1.24-6.47 3.27-9.65 5.01-.37-6.7-.04-13.5 .58-20.21 2.83 2.37 5.45 4.94 8.38 7.21-1.45-4.98-3.61-9.76-5.06-14.75 5.6-.16 11.2-.12 16.7 .22-1.45 4.72-3.4 9.34-4.95 14.06 3.18-1.94 6.15-4.37 9.53-6 .27 6.7 .15 13.5-.48 20.21-2.72-1.87-5.34-3.84-8.16-5.31 .03 2.9 .06 6 1.59 8.58 2.76 5.47 9.19 8.4 15.19 8.14 6.7-.07 12.53-6.84 11.25-13.52-.53-3.1-3.87-6.16-7.25-4.92-3.09 1.03-3.55 4.84-4.92 7.45-3.64-3.66-4.7-9.25-3.25-14.06 1.55-4.52 6.92-6.77 11.34-5.82 2.61 .77 4.33 3.05 6.05 5.03-1.4-8.59 2.71-17.43 9.35-22.9 3.89 7.76 3.69 17.06-.13 24.8 3.58-2.14 7.75-4.58 12.07-2.83 6.33 2.03 7.52 10.22 5.08 15.65-1.76 4.12-5.83 6.26-9.61 8.21 .46-3.31 2.42-7.03 .29-10.1-1.43-2.69-5.53-2.84-7.51-.82-3.37 3.04-4.11 8.45-1.77 12.22 3.47 6.06 11.39 8.57 17.77 6.41 7.68-2.19 12.5-9.44 14.62-16.76-3.69 1.34-7.27 2.98-11.06 3.92 1.44-6.02 3.77-11.84 6.01-17.57 2.33 2.58 4.56 5.15 6.98 7.52-.45-4.59-1.89-8.98-3.34-13.26 4.11 .95 8.22 2.11 12.24 3.37-1.17 3.01-2.64 5.93-3.6 9.04-.18 2.2 .65 4.49 .28 6.7-.86 3.21-4.15 4.95-5.11 8.06-1.46 4.02-3.01 8.13-4.17 12.24 .35 4.4 1.99 8.58 2.84 12.87-3.55 4.34-7.3 8.48-10.96 12.82-24.5-9.23-51.15-13.24-77.22-10.66-14.99 1.06-29.97 2.73-44.43 6.89-2.69 .73-5.28 2.16-8.17 2.39-3.93-2.96-7.37-6.52-10.81-9.98-.16-5.2 2.89-10.23 1.23-15.52-.94-3.69-1.88-7.48-2.92-11.27-.64-3.69-5.16-5.04-5.4-8.84 .07-2.9 1.24-5.81 .5-8.71-.63-2.69-1.66-5.38-2.29-8.07 4.69-1.25 9.47-2.7 14.36-3.46-2.25 4.52-5.21 8.76-7.15 13.38 3.68-1.54 6.55-4.37 9.32-7.1 1.97 6.88 4.05 13.86 5.13 20.95-3.73-2.46-7.36-5.22-11.77-6.57 1.79 8.48 8.18 16.71 17.19 17.51 7.61 .72 17.35-4.59 16.46-13.28 .14-5.1-5.6-9.14-10.17-6.59-4.58 2.05-3.81 7.84-3.77 11.94-8.04-3.91-10.29-16.59-2.74-22.17 3.86-3.54 9.47-3.1 13.99-1.15-3.48-7.16-2.87-15.77 1.16-22.51"/>
	<path d="M249.03 185.72c13.47-3.15 27.26-4 40.95-4.95 19.39-.71 39.1-.13 57.95 4.77 5.02 1.34 10.43 2.99 14.08 6.95-3.56 4.24-9.25 4.9-14.24 5.96-10.09 1.61-20.38 2.22-30.57 2.63-20.5 .42-41.2 .25-61.53-2.93-6.41-1.13-13.32-2.15-18.57-6.4 2.65-4.03 7.64-4.99 11.93-6.03"/>
</g>
<g fill="#f76b16" stroke="#d00">
	<path d="M294.45 77.02c1.59-1.22 3.17-2.33 4.86-3.45 .02 1.8 .04 3.6-.04 5.3-1.61-.58-3.21-1.17-4.82-1.85"/>
	<path d="M303.21 74.12c1.31 1.19 2.63 2.47 3.84 3.76-1.3 .41-2.59 .83-3.88 1.34-.02-1.7-.04-3.4 .04-5.1"/>
	<path d="M294.32 83.82c3.89-.64 8.49-1.29 11.52 1.97-3.98 1.54-8.58 1.49-11.52-1.97"/>
	<path d="M298.65 132.28c1.28-1.51 3.51 .86 2.12 2.18-1.39 1.42-3.61-.86-2.12-2.18"/>
	<path d="M221.29 145.22c-2.42-1.97-2.96-4.97-1.99-7.88 1.83 2.28 2.36 5.08 1.99 7.88"/>
	<path d="M377.92 138.11c.92 1.59 1.24 3.39 1.46 5.18-1.09 .71-2.29 1.43-3.38 2.14 .17-2.6 .84-5.01 1.92-7.32"/>
	<path d="M295 164.22c1.27-2.42 2.54-4.73 3.82-7.14 1.32 2.29 2.65 4.57 3.98 6.86-1.27 2.51-2.65 4.93-4.02 7.44-1.33-2.39-2.55-4.77-3.78-7.16"/>
	<path d="M280.54 159.28c1.5 .38 3.01 .87 4.42 1.45-.69 1.11-1.38 2.21-2.06 3.32-1-.39-1.91-.78-2.91-1.17 .19-1.2 .37-2.4 .56-3.61"/>
	<path d="M312.54 159.33c1.2-.01 2.4 .07 3.7 .06 .02 1.3 .13 2.6 .14 3.9-1.3 .01-2.6 .13-3.9 .24-.02-1.4-.03-2.8 .05-4.2"/>
	<path d="M281.34 168.77c1-.11 2.1-.12 3.2-.24 .41 .9 .82 1.69 1.23 2.59-.59 .61-1.28 1.21-1.88 1.82-.91-.29-1.91-.68-2.81-.97 .09-1.1 .18-2.1 .26-3.2"/>
	<path d="M310.49 172.35c.69-1.01 1.38-2.11 2.07-3.12 .8 .39 2.41 1.27 3.22 1.67-.79 1.31-1.57 2.52-2.36 3.73-.81-.59-2.22-1.68-2.92-2.27"/>
	<path d="M260.16 160.8c5.17-2.66 14.9-.06 13.38 7.15-2.42 7.03-14.11 8.26-17.98 1.8-1.74-3.78 1.22-7.51 4.6-8.95"/>
	<path d="M328.16 160.95c5.48-1.96 14.12 1.55 13.29 8.26-2.52 7.53-15.13 6.77-18.2 .1-1.44-3.78 1.12-7.51 4.91-8.36"/>
	<path d="M242.61 165.59c2 .38 3.12 1.66 3.74 3.56-1.09 .41-2.19 .93-3.28 1.44-.41-.5-1.42-1.39-1.92-1.88 .39-.81 1.07-2.31 1.47-3.12"/>
	<path d="M351.52 165.7c1.4 .08 2.8 .07 4.1 .15 .12 2-.66 3.71-2.55 4.53-.51-.59-1.52-1.68-1.93-2.18 .09-.6 .28-1.8 .38-2.5"/>
	<path d="M242.72 175.39c1-.31 1.99-.72 2.99-1.03 .51 .59 1.62 1.88 2.13 2.58-1.29 1.01-2.68 1.83-4.28 2.35-.21-1-.63-2.9-.84-3.89"/>
	<path d="M349.91 174.32c.9 .39 1.81 .88 2.71 1.27 .01 .7 .02 2 .03 2.6-.8 .41-1.59 .72-2.49 1.13-.51-.49-1.52-1.38-2.12-1.88 .59-1.11 1.18-2.11 1.87-3.12"/>
	<path d="M227.42 175.86c.28-2 .76-4.01 1.24-5.92 1.32 1.49 2.93 2.97 3.95 4.76 .02 1.9-.36 3.81-.54 5.71-1.71-1.38-3.53-2.76-4.65-4.55"/>
	<path d="M364.52 175.26c1.48-1.92 2.96-3.73 4.54-5.55 .82 2.09 1.55 4.28 2.37 6.38-1.48 1.81-3.06 3.63-4.64 5.45-.72-2.09-1.45-4.18-2.27-6.28"/>
</g>
<g fill="#fff" stroke="#fff">
	<path d="M144.87 236.06c5.4-.06 10.9-.12 16.4-.18-.06 12.9-.12 25.8 .02 38.8 10.57-11.72 21.15-23.43 31.62-35.25 1.58-1.32 2.66-3.73 4.96-3.75 5.9-.27 11.9-.13 17.9-.2-12.75 14.34-25.49 28.68-38.44 42.92 13.56 14.55 27.32 29 40.58 43.76-7.1 .08-14.2 .35-21.3 .13-3.12-1.47-4.95-4.65-7.28-7.02-9.51-10-18.73-20.4-28.43-30.09-.16 12.4-.13 24.7-.19 37.1-5.5 .06-11 .12-16.6 .18 .48-28.81 .27-57.61 .75-86.42"/>
	<path d="M232.37 235.51c19.4-.41 38.91 .07 58.4-.24 .04 4.2-.21 8.3-.27 12.4-14 .25-28 .1-41.9 .26-.12 7.4 .06 14.8 .04 22.2 14-.05 27.9-.2 41.9-.26 .05 4.3-.01 8.6 .04 12.8-14 .05-28 .2-42 .26 .2 8.6 .09 17.2 .08 25.8 14-.05 28-.2 42.1-.26-.05 4.4-0 8.9-.05 13.3-19.4 .31-38.9 .23-58.4 .44 .38-28.91 .07-57.8 .05-86.71"/>
	<path d="M315.37 235.3c19.3 .09 38.6-.42 58.01 .17-.06 4-.01 8.1 .03 12.2-14 .15-28 .01-41.9 .16 .08 7.4 .06 14.8 .14 22.2 14-.15 27.9-.1 41.9-.16-.05 4.2-.01 8.4 .04 12.6-13.9 .05-27.9 .41-41.8 .06 .09 8.6 .09 17.2 .18 25.8 13.99-.35 27.9 .1 41.9 .04 .05 4.5 .1 8.9 .05 13.4-19.4 .01-38.7 .02-58.1 .14-.22-28.9-.43-57.8-.45-86.6"/>
	<path d="M397.48 235.4c10.4-.11 20.7-.03 31.1 .06 7.9-.09 15.73 3.03 21.5 8.46 11.01 10.48 11.53 30.18 .55 40.9-3.56 3.44-7.94 5.89-12.62 7.54-7.17 2.58-14.98 1.46-22.48 1.75 .3 9.3 .3 18.5 .3 27.8-5.8 .16-11.6-.17-17.5-.21-.41-28.7-.43-57.5-.84-86.3"/>
	<path d="M137.42 378.05c11.69-10.33 28.45-14.31 43.49-10.68 10.22 2.19 19.39 7.79 26.27 15.51-3.96 3.74-8.02 7.39-11.98 11.33-6.67-6.53-15.43-11.73-25.03-11.43-13.3-.35-26.51 8.59-30.06 21.63-2.89 10.03 .64 21.5 8.51 28.31 9.9 9.09 25.72 10.62 37.24 3.69 3.98-2.25 7.24-5.48 10.2-8.91 3.84 3.96 7.29 8.22 11.03 12.28-9.5 9.2-21.62 16.64-35.11 17.18-15.09 .96-30.56-5.47-40.09-17.26-6.59-8.03-10.2-18.39-9.92-28.79-.04-12.6 5.83-24.86 15.44-32.87"/>
	<path d="M251.12 368.11c4.4-.15 8.8-.1 13.2-.14 14.21 28.75 28.43 57.59 42.44 86.54-5.89 .26-11.8 .13-17.7 .19-3.26-5.67-6.33-11.43-9.29-17.3-14 .15-27.9-.3-41.9-.04-2.74 5.93-5.67 11.86-8.71 17.7-6.3-.03-12.6 .04-19 .01 13.48-29.14 27.47-57.9 40.95-86.95"/>
	<path d="M319.72 367.56c6-.17 12.01 .27 18.01 .3 .06 23.5 .41 47 .36 70.4 13.7-.25 27.31 .2 41 .05-.04 5.4 .02 10.7 .08 16.1-19.69 .42-39.3 .03-59 .14-.21-29-.23-58-.45-87"/>
	<path d="M396.72 367.62c6.3 .03 12.6-.24 18.9 .19 7.86 13.91 15.8 27.83 23.66 41.75 7.75-13.99 15.9-27.88 23.85-41.76 6.1-.07 12.2-.03 18.4-.1 .31 28.7 .43 57.4 .64 86.1-5.3 .16-10.7 .02-16 .18-.1-18.4-0-36.8-.4-55.1-9.04 14.3-17.38 28.99-26.23 43.39-9.05-14-17.11-28.62-25.77-42.92 .1 18.3 .3 36.6 .4 54.8-5.6 .16-11.29 .22-16.9 .18-.11-28.9-.43-57.8-.55-86.7"/>
	<path d="M255.78 492.76c2.1-.32 4.1-.24 6.2-.17 6.45 13.43 13.19 26.86 19.64 40.38-2.8 .03-5.6 .06-8.5 .09-1.43-2.68-2.96-5.37-4.39-8.05-6.4 .07-12.7 .14-19.1 .11-1.37 2.72-2.74 5.43-4.11 8.04-3 .14-6.1 .07-9.1 .1 4.98-10.65 9.97-21.21 14.95-31.87 1.47-2.92 2.53-6.03 4.41-8.65"/>
	<path d="M286.98 492.43c2.9-.03 5.8-.07 8.8 0 5.19 8.34 10.88 16.38 16.37 24.72 .01-8.1-.28-16.2-.06-24.2 2.38-1.23 5.39-.46 7.99-.78 .04 13.6 .09 27.2 .15 40.9-2.4 .03-4.9 .05-7.4 .08-5.8-8.84-11.8-17.67-17.59-26.61-.1 8.9-.01 17.8-.01 26.7-2.7 .03-5.4 .06-8.1 .09-.15-13.6-.2-27.3-.14-40.9"/>
	<path d="M331.58 492.14c6 .03 11.9-.13 17.9-.1 10-.01 19.6 8.89 19.01 19.2 .81 10.39-7.79 19.68-17.77 21.29-6.29 .87-12.8 .24-19.19 .51-.25-13.6 .3-27.21 .05-40.91"/>
	<path d="M119.64 587.02c11.06-12.82 29.19-19.32 45.93-15.8 12.62 1.86 23.11 9.85 31.41 19.06-3.96 3.74-8.12 7.19-12.28 10.84-6.89-7.92-16.36-14.22-27.05-14.41-14.71-.94-29.09 10.62-31.03 25.24-1.19 9.91 3.02 20.27 10.69 26.68 10.3 8.59 26.1 9.42 37.43 2.39 3.08-1.83 5.55-4.46 8.12-6.99 3.05 4.77 6.5 9.33 9.65 13.99-7.52 7.08-16.97 12.19-27.15 13.8-14.98 2.16-30.93-2.56-42.14-12.84-16.77-15.62-18.39-44.5-3.58-61.97"/>
	<path d="M212.11 572.8c6-.17 12.01 .27 18.01 .3 .06 23.5 .41 47 .36 70.4 13.7-.25 27.31 .2 41 .05-.04 5.4 .02 10.7 .08 16.1-19.69 .42-39.3 .03-59 .14-.21-29-.23-58-.45-87"/>
	<path d="M286.68 572.83c6-.17 18.01 .3 18.01 .3l.37 86.55c0 0 1.78 .03-17.92 .14-.21-29-.23-58-.45-87"/>
	<path d="M330.36 587.02c11.06-12.82 29.19-19.32 45.93-15.8 12.62 1.86 23.11 9.85 31.41 19.06-3.96 3.74-8.12 7.19-12.28 10.84-6.89-7.92-16.36-14.22-27.05-14.41-14.71-.94-29.09 10.62-31.03 25.24-1.19 9.91 3.02 20.27 10.69 26.68 10.3 8.59 26.1 9.42 37.43 2.39 3.08-1.83 5.55-4.46 8.12-6.99 3.05 4.77 6.5 9.33 9.65 13.99-7.52 7.08-16.97 12.19-27.15 13.8-14.98 2.16-30.93-2.56-42.14-12.84-16.77-15.62-18.39-44.5-3.58-61.97"/>
	<path d="M423.58 573.39c5.4-.06 10.9-.12 16.4-.18-.06 12.9-.12 25.8 .02 38.8 10.57-11.72 21.15-23.43 31.62-35.25 1.58-1.32 2.66-3.73 4.96-3.75 5.9-.27 11.9-.13 17.9-.2-12.75 14.34-25.49 28.68-38.44 42.92 13.56 14.55 27.32 29 40.58 43.76-7.1 .08-14.2 .35-21.3 .13-3.12-1.47-4.95-4.65-7.28-7.02-9.51-10-18.73-20.4-28.43-30.09-.16 12.4-.13 24.7-.19 37.1-5.5 .06-11 .12-16.6 .18 .48-28.81 .27-57.61 .75-86.42"/>
</g>
<g fill="#f76b16" stroke="#d00">
	<path d="M414.91 247.51c7.1-.08 15-.66 20.85 3.97 9.28 6.9 7.05 23.63-3.8 27.84-5.28 1.76-11.1 .62-16.59 .98-.12-10.9-.14-21.8-.46-32.8"/>
	<path d="M244.52 422.88c4.49-9.95 9.19-19.7 13.78-29.65 4.91 9.75 9.42 19.7 14.22 29.45-9.3 .2-18.7 .1-28 .2"/>
	<path d="M258.82 504.93c2.35 4.28 4.4 8.75 6.75 13.13-4.3 .05-8.6-.01-12.9 .04 2.15-4.32 4.2-8.74 6.15-13.17"/>
	<path d="M341.06 499.74c4.71 .25 10.59-1.11 14.13 2.95 5.86 5.04 4.67 15.35-1.79 19.32-3.57 2.64-8.18 2.19-12.28 2.23 .01-8.2-.08-16.3-.07-24.5"/>
</g>
<path d="M169.44 713.26h20.7v6.98h-11.72v75.2h11.72v6.98h-20.7"/>
<path d="M436.68 713.26v89.16h-20.7v-6.98h11.67v-75.2h-11.67v-6.98"/>
<g fill="#0645ad">
	<path d="M261.73 759.53v4.39h-41.31c.39 6.18 2.25 10.9 5.57 14.16 3.35 3.22 8.01 4.83 13.96 4.83 3.45 0 6.79-.42 10.01-1.27 3.26-.85 6.48-2.12 9.67-3.81v8.5c-3.22 1.37-6.53 2.41-9.91 3.13-3.39 .72-6.82 1.07-10.3 1.07-8.72 0-15.64-2.54-20.75-7.62-5.08-5.08-7.62-11.95-7.62-20.61-0-8.95 2.41-16.05 7.23-21.29 4.85-5.27 11.38-7.91 19.58-7.91 7.36 0 13.17 2.38 17.43 7.13 4.3 4.72 6.45 11.15 6.45 19.29m-8.98-2.64c-.07-4.92-1.45-8.84-4.15-11.77-2.67-2.93-6.22-4.39-10.64-4.39-5.01 0-9.03 1.42-12.06 4.25-2.99 2.83-4.72 6.82-5.18 11.96l32.03-.05"/>
	<path d="M312.46 742.73v-29.59h8.98v75.98h-8.98v-8.2c-1.89 3.26-4.28 5.68-7.18 7.28-2.86 1.56-6.32 2.34-10.35 2.34-6.61 0-12-2.64-16.16-7.91-4.13-5.27-6.2-12.21-6.2-20.8-0-8.59 2.07-15.53 6.2-20.8 4.17-5.27 9.55-7.91 16.16-7.91 4.04 0 7.49 .8 10.35 2.39 2.9 1.56 5.29 3.97 7.18 7.23m-30.62 19.09c-0 6.61 1.35 11.8 4.05 15.58 2.73 3.74 6.48 5.62 11.23 5.62 4.75 0 8.5-1.87 11.23-5.62 2.73-3.78 4.1-8.97 4.1-15.58-0-6.61-1.37-11.78-4.1-15.53-2.73-3.78-6.48-5.66-11.23-5.66-4.75 0-8.5 1.89-11.23 5.66-2.7 3.74-4.05 8.92-4.05 15.53"/>
	<path d="M339.95 734.43h8.98v54.69h-8.98zm0-21.29h8.98v11.38h-8.98"/>
	<path d="M376.57 718.91v15.53h18.51v6.98h-18.51v29.69c-0 4.46 .6 7.32 1.81 8.59 1.24 1.27 3.73 1.9 7.47 1.9h9.23v7.52h-9.23c-6.93 0-11.72-1.29-14.36-3.86-2.64-2.6-3.96-7.32-3.96-14.16v-29.69h-6.59v-6.98h6.59v-15.53h9.03"/>
</g>
<g transform="matrix(.24778 0 0 .24778 303.99176 763.16752)">
	<path d="M0 180h60v20h20V20h20V0h40v20h20v80h40v20h60v20h40v20h20v20h20v140h-20v60h-20v60H100v-60H80v-40H60v-40H40v-40H20v-20H0V60"/>
	<path fill="#fff" d="M20 200h40v20h20c0 0 0 60 0 60h20V20h40v180h20v-80h40v80h20v-60h40v80h20v-60h20v20h20v140h-20v60h-20v40h-160v-40h-20v-40h-20v-40H60v-40H40v-20H20v-40"/>
</g>
</svg>