<?xml version="1.0" encoding="UTF-8" standalone="no"?>
<!-- Created with Inkscape (http://www.inkscape.org/) -->
<svg
   xmlns:dc="http://purl.org/dc/elements/1.1/"
   xmlns:cc="http://web.resource.org/cc/"
   xmlns:rdf="http://www.w3.org/1999/02/22-rdf-syntax-ns#"
   xmlns:svg="http://www.w3.org/2000/svg"
   xmlns="http://www.w3.org/2000/svg"
   xmlns:xlink="http://www.w3.org/1999/xlink"
   xmlns:sodipodi="http://sodipodi.sourceforge.net/DTD/sodipodi-0.dtd"
   xmlns:inkscape="http://www.inkscape.org/namespaces/inkscape"
   width="120"
   height="65"
   id="svg2"
   sodipodi:version="0.32"
   inkscape:version="0.44.1"
   version="1.0"
   sodipodi:docbase="G:\My Pictures"
   sodipodi:docname="OTRS_Wikimedia.svg">
  <defs
     id="defs4">
    <linearGradient
       inkscape:collect="always"
       id="linearGradient8462">
      <stop
         style="stop-color:#2d2f2f;stop-opacity:1;"
         offset="0"
         id="stop8464" />
      <stop
         style="stop-color:#2d2f2f;stop-opacity:0;"
         offset="1"
         id="stop8466" />
    </linearGradient>
    <clipPath
       id="mask">
      <path
         id="path3560"
         d="M 47.5,-87.5 L 47.5,337.5 L -47.5,337.5 L -47.5,-87.5 L -599.5,-639.5 L -599.5,610.5 L 599.5,610.5 L 599.5,-639.5 L 47.5,-87.5 z " />
    </clipPath>
    <linearGradient
       inkscape:collect="always"
       xlink:href="#linearGradient8462"
       id="linearGradient8468"
       x1="-37.947132"
       y1="70.032122"
       x2="-5"
       y2="70.032122"
       gradientUnits="userSpaceOnUse"
       gradientTransform="matrix(0.1286698,0,0,4.3225806,394.51123,-549.7428)" />
  </defs>
  <sodipodi:namedview
     id="base"
     pagecolor="#ffffff"
     bordercolor="#666666"
     borderopacity="1.0"
     inkscape:pageopacity="0.0"
     inkscape:pageshadow="2"
     inkscape:zoom="6.0610641"
     inkscape:cx="57.532463"
     inkscape:cy="30.601393"
     inkscape:document-units="px"
     inkscape:current-layer="layer1"
     showgrid="true"
     inkscape:window-width="1028"
     inkscape:window-height="696"
     inkscape:window-x="0"
     inkscape:window-y="23"
     width="120px"
     height="65px" />
  <metadata
     id="metadata7">
    <rdf:RDF>
      <cc:Work
         rdf:about="">
        <dc:format>image/svg+xml</dc:format>
        <dc:type
           rdf:resource="http://purl.org/dc/dcmitype/StillImage" />
      </cc:Work>
    </rdf:RDF>
  </metadata>
  <g
     inkscape:label="Calque 1"
     inkscape:groupmode="layer"
     id="layer1"
     transform="translate(-260,-307.36218)">
    <path
       transform="matrix(1.0216101,0,0,1.0216101,-22.857478,-7.7306146)"
       style="fill:#2d2f2f;fill-opacity:1;stroke:none;stroke-width:3;stroke-miterlimit:4;stroke-dashoffset:0;stroke-opacity:1;filter:url(#filter7484)"
       d="M 278.97872,311.92352 L 393.4188,311.92352 L 393.48066,336.53949 C 393.48066,336.53949 389.27443,336.3328 389.27443,341.67449 C 389.27443,347.01654 393.5,346.8095 393.5,346.8095 L 393.4188,371.42547 L 278.97872,371.42547 L 278.97872,346.78283 C 278.97872,346.78283 283.06616,346.90841 283.06616,341.66666 C 283.06616,336.42456 278.97872,336.6043 278.97872,336.6043 L 278.97872,323.89402 L 278.97872,311.92352 z "
       id="path6513" />
    <path
       style="fill:#ffb14e;fill-opacity:1;stroke:#bc5904;stroke-width:3;stroke-miterlimit:4;stroke-dasharray:none;stroke-dashoffset:0;stroke-opacity:1"
       d="M 262.0639,309.42607 L 376.50398,309.42607 L 376.56584,334.04204 C 376.56584,334.04204 372.35961,333.83535 372.35961,339.17704 C 372.35961,344.51909 376.58518,344.31205 376.58518,344.31205 L 376.50398,368.92802 L 262.0639,368.92802 L 262.0639,344.28538 C 262.0639,344.28538 266.15134,344.41096 266.15134,339.16921 C 266.15134,333.92711 262.0639,334.10685 262.0639,334.10685 L 262.0639,321.39657 L 262.0639,309.42607 z "
       id="rect2168"
       sodipodi:nodetypes="ccczcccczccc" />
    <path
       style="font-size:32px;font-style:normal;font-variant:normal;font-weight:bold;font-stretch:normal;text-align:start;line-height:125%;writing-mode:lr-tb;text-anchor:start;font-family:Courier"
       d="M 276.46826,339.15835 C 276.46826,345.51621 280.46999,350.6399 286.49125,350.6399 C 292.54991,350.6399 296.51424,345.47881 296.51424,339.12095 C 296.51424,332.80049 292.58731,327.60199 286.49125,327.60199 C 280.39519,327.60199 276.46826,332.83789 276.46826,339.15835 M 279.90899,339.12095 C 279.90899,334.78265 282.33994,330.81832 286.49125,330.81832 C 290.75476,330.81832 293.07351,334.93225 293.07351,339.12095 C 293.07351,343.53405 290.64256,347.42357 286.49125,347.42357 C 282.37734,347.42357 279.90899,343.49665 279.90899,339.12095 M 299.56637,328.23778 L 298.85578,338.11117 L 302.07211,338.55996 L 302.5583,331.30451 L 307.308,331.30451 L 307.308,346.97478 L 302.9697,346.97478 L 302.9697,350.04152 L 314.97484,350.04152 L 314.97484,346.97478 L 310.56174,346.97478 L 310.56174,331.30451 L 315.31144,331.30451 L 315.79762,338.55996 L 319.01396,338.11117 L 318.30337,328.23778 L 299.56637,328.23778 M 321.4303,328.23778 L 321.4303,331.30451 L 324.34744,331.30451 L 324.34744,346.97478 L 321.4303,346.97478 L 321.4303,350.04152 L 330.8549,350.04152 L 330.8549,346.97478 L 327.60117,346.97478 L 327.60117,340.72911 L 329.50853,340.72911 C 330.7053,340.72911 331.15409,341.17792 332.72486,343.53405 C 332.79966,343.64625 334.89401,346.8626 336.35258,350.04152 L 342.11206,350.04152 L 342.11206,346.97478 L 338.59653,346.97478 C 336.05339,342.67388 335.3054,341.5893 334.40782,340.35512 C 339.19492,338.93395 339.23232,335.11923 339.23232,334.37125 C 339.23232,332.3891 338.22254,330.36953 336.76397,329.35975 C 335.26801,328.31258 333.73464,328.23778 331.41589,328.23778 L 321.4303,328.23778 M 331.41589,331.30451 C 334.10863,331.30451 335.79159,331.79071 335.79159,334.25905 C 335.79159,337.88677 331.64028,337.66238 330.36871,337.66238 L 327.60117,337.66238 L 327.60117,331.30451 L 331.41589,331.30451 M 358.8149,327.86378 L 358.51571,329.95814 C 357.95472,329.35975 356.42135,327.60199 353.42941,327.60199 C 349.72689,327.60199 345.72518,330.51914 345.72518,334.52084 C 345.72518,340.05593 351.78385,340.65431 354.40179,340.91611 C 356.68314,341.1405 358.8149,341.58931 358.8149,343.90805 C 358.8149,346.48859 356.04736,347.42357 353.8408,347.42357 C 350.21308,347.42357 349.01631,345.06742 348.75451,342.26248 L 345.76257,342.26248 C 345.87477,343.45926 346.06177,345.96501 346.06177,348.24635 C 346.06177,349.48053 346.02437,350.00412 345.94957,350.7521 L 348.97891,350.7521 L 349.2781,348.50815 C 350.17568,349.48053 351.29766,350.6399 354.32699,350.6399 C 358.7027,350.6399 362.18083,347.68537 362.18083,343.83325 C 362.18083,341.40231 360.87186,339.83153 359.52548,338.97135 C 358.02952,337.99897 356.53355,337.88677 354.0278,337.58758 C 352.41963,337.40058 349.0911,337.06399 349.0911,334.44605 C 349.0911,332.87528 350.47488,330.81832 353.9156,330.81832 C 358.29131,330.81832 358.7401,334.55826 359.0019,336.5778 L 361.95643,336.16641 C 361.95643,336.05421 361.91903,335.38103 361.88163,335.26883 C 361.80684,334.37125 361.65724,332.65088 361.65724,331.08012 C 361.65724,329.77114 361.73204,328.68657 361.80684,327.86378 L 358.8149,327.86378"
       id="flowRoot2160" />
  </g>
</svg>
