<?xml version="1.0" encoding="UTF-8" standalone="no"?>
<svg
   xmlns:dc="http://purl.org/dc/elements/1.1/"
   xmlns:cc="http://creativecommons.org/ns#"
   xmlns:rdf="http://www.w3.org/1999/02/22-rdf-syntax-ns#"
   xmlns:svg="http://www.w3.org/2000/svg"
   xmlns="http://www.w3.org/2000/svg"
   xmlns:sodipodi="http://sodipodi.sourceforge.net/DTD/sodipodi-0.dtd"
   xmlns:inkscape="http://www.inkscape.org/namespaces/inkscape"
   width="431.47443"
   height="283.90451"
   viewBox="1778 -150 5532.6802 3136.8259"
   id="svg2"
   sodipodi:version="0.32"
   inkscape:version="1.0 (4035a4fb49, 2020-05-01)"
   sodipodi:docname="PhD_doublelayer3.svg"
   inkscape:output_extension="org.inkscape.output.svg.inkscape"
   version="1.0">
  <metadata
     id="metadata341">
    <rdf:RDF>
      <cc:Work
         rdf:about="">
        <dc:format>image/svg+xml</dc:format>
        <dc:type
           rdf:resource="http://purl.org/dc/dcmitype/StillImage" />
        <dc:title></dc:title>
      </cc:Work>
    </rdf:RDF>
  </metadata>
  <defs
     id="defs339">
    <marker
       inkscape:stockid="Arrow2Send"
       orient="auto"
       refY="0"
       refX="0"
       id="Arrow2Send"
       style="overflow:visible">
      <path
         id="path3281"
         style="font-size:12px;fill-rule:evenodd;stroke-width:0.625;stroke-linejoin:round"
         d="M 8.7185878,4.0337352 -2.2072895,0.01601326 8.7185884,-4.0017078 c -1.7454984,2.3720609 -1.7354408,5.6174519 -6e-7,8.035443 z"
         transform="matrix(-0.3,0,0,-0.3,0.69,0)" />
    </marker>
    <marker
       inkscape:stockid="Arrow2Sstart"
       orient="auto"
       refY="0"
       refX="0"
       id="Arrow2Sstart"
       style="overflow:visible">
      <path
         id="path3278"
         style="font-size:12px;fill-rule:evenodd;stroke-width:0.625;stroke-linejoin:round"
         d="M 8.7185878,4.0337352 -2.2072895,0.01601326 8.7185884,-4.0017078 c -1.7454984,2.3720609 -1.7354408,5.6174519 -6e-7,8.035443 z"
         transform="matrix(0.3,0,0,0.3,-0.69,0)" />
    </marker>
    <marker
       inkscape:stockid="DotM"
       orient="auto"
       refY="0"
       refX="0"
       id="DotM"
       style="overflow:visible">
      <path
         id="path3592"
         d="m -2.5,-1 c 0,2.76 -2.24,5 -5,5 -2.76,0 -5,-2.24 -5,-5 0,-2.76 2.24,-5 5,-5 2.76,0 5,2.24 5,5 z"
         style="fill-rule:evenodd;stroke:#000000;stroke-width:1pt;marker-start:none;marker-end:none"
         transform="matrix(0.4,0,0,0.4,2.96,0.4)" />
    </marker>
    <marker
       inkscape:stockid="Arrow2Mend"
       orient="auto"
       refY="0"
       refX="0"
       id="Arrow2Mend"
       style="overflow:visible">
      <path
         id="path3629"
         style="font-size:12px;fill-rule:evenodd;stroke-width:0.625;stroke-linejoin:round"
         d="M 8.7185878,4.0337352 -2.2072895,0.01601326 8.7185884,-4.0017078 c -1.7454984,2.3720609 -1.7354408,5.6174519 -6e-7,8.035443 z"
         transform="scale(-0.6)" />
    </marker>
    <inkscape:perspective
       sodipodi:type="inkscape:persp3d"
       inkscape:vp_x="0 : 178.82589 : 1"
       inkscape:vp_y="0 : 1000 : 0"
       inkscape:vp_z="432.00003 : 178.82589 : 1"
       inkscape:persp3d-origin="216.00002 : 139.82589 : 1"
       id="perspective343" />
    <marker
       style="overflow:visible"
       id="Arrow2Mend-3"
       refX="0"
       refY="0"
       orient="auto"
       inkscape:stockid="Arrow2Mend">
      <path
         transform="scale(-0.6)"
         d="M 8.7185878,4.0337352 -2.2072895,0.01601326 8.7185884,-4.0017078 c -1.7454984,2.3720609 -1.7354408,5.6174519 -6e-7,8.035443 z"
         style="font-size:12px;fill-rule:evenodd;stroke-width:0.625;stroke-linejoin:round"
         id="path3629-6" />
    </marker>
  </defs>
  <sodipodi:namedview
     fit-margin-bottom="5"
     fit-margin-right="5"
     fit-margin-left="5"
     fit-margin-top="5"
     inkscape:window-height="1015"
     inkscape:window-width="960"
     inkscape:pageshadow="2"
     inkscape:pageopacity="0.0"
     guidetolerance="10.0"
     gridtolerance="10.0"
     objecttolerance="10.0"
     borderopacity="1.0"
     bordercolor="#666666"
     pagecolor="#ffffff"
     id="base"
     showgrid="false"
     inkscape:zoom="1.1540069"
     inkscape:cx="182.47929"
     inkscape:cy="12.671476"
     inkscape:window-x="960"
     inkscape:window-y="0"
     inkscape:current-layer="svg2"
     inkscape:document-rotation="0"
     inkscape:window-maximized="0" />
  <rect
     style="fill:#ffe75f;fill-opacity:0.188235;stroke:#ff8f00;stroke-width:0.0991701;stroke-miterlimit:4;stroke-dasharray:none;stroke-dashoffset:0;stroke-opacity:1"
     id="rect3810"
     width="3904.801"
     height="564.84998"
     x="2633.1616"
     y="-332.67636" />
  <rect
     style="fill:#97e4ff;fill-opacity:0.260062;stroke:#ff8f00;stroke-width:0.0911315;stroke-miterlimit:4;stroke-dasharray:none;stroke-dashoffset:0;stroke-opacity:1"
     id="rect3804"
     width="3904.2739"
     height="2367.5034"
     x="2633.4253"
     y="229.5668" />
  <rect
     style="fill:#ffe75f;fill-opacity:0.188235;stroke:#ff8f00;stroke-width:0.0991701;stroke-miterlimit:4;stroke-dasharray:none;stroke-dashoffset:0;stroke-opacity:1"
     id="rect3820"
     width="3904.801"
     height="564.84998"
     x="2633.1616"
     y="-3179.4282"
     transform="scale(1,-1)" />
  <g
     style="font-style:normal;font-weight:normal;line-height:0%;font-family:'Bitstream Vera Sans';fill:#000000;fill-opacity:1;stroke:none;stroke-width:1px;stroke-linecap:butt;stroke-linejoin:miter;stroke-opacity:1"
     id="text6104"
     aria-label="+">
    <path
       id="path1409"
       style="font-size:815.961px;line-height:1.25"
       d="m 2239.7352,1460.2176 h -161.7578 v 183.6709 h -73.7075 v -183.6709 h -162.1563 v -69.3248 h 162.1563 V 1221.565 h 73.7075 v 169.3278 h 161.7578 z" />
  </g>
  <g
     style="font-style:normal;font-weight:normal;line-height:0%;font-family:'Bitstream Vera Sans';fill:#000000;fill-opacity:1;stroke:none;stroke-width:1px;stroke-linecap:butt;stroke-linejoin:miter;stroke-opacity:1"
     id="text6108"
     aria-label="–">
    <path
       id="path1412"
       style="font-size:843.125px;line-height:1.25"
       d="m 7246.5666,1346.6461 v 62.5756 h -412.5055 v -62.5756 z" />
  </g>
  <g
     style="font-style:normal;font-weight:normal;line-height:0%;font-family:'Bitstream Vera Sans';fill:#000000;fill-opacity:1;stroke:none;stroke-width:1px;stroke-linecap:butt;stroke-linejoin:miter;stroke-opacity:1"
     id="text6120"
     aria-label="v">
    <path
       id="path1401"
       style="font-size:354.654px;line-height:1.25"
       d="m 4132.5713,1065.404 -67.3635,187.3709 h -24.4171 l -67.8829,-187.3709 h 32.9024 l 47.622,143.5587 46.4098,-143.5587 z" />
  </g>
  <g
     style="font-style:normal;font-weight:normal;line-height:0%;font-family:'Bitstream Vera Sans';fill:#000000;fill-opacity:1;stroke:none;stroke-width:1px;stroke-linecap:butt;stroke-linejoin:miter;stroke-opacity:1"
     id="text6124"
     aria-label="EO">
    <path
       id="path1404"
       style="font-size:153.165px;line-height:1.25"
       d="m 4159.6664,1318.1036 v -108.8907 h 68.4307 v 11.8164 h -53.9966 v 35.0006 h 47.1161 v 11.7417 h -47.1161 v 38.5904 h 54.7445 v 11.7416 z" />
    <path
       id="path1406"
       style="font-size:153.165px;line-height:1.25"
       d="m 4330.5561,1260.218 v 6.8805 q 0,24.5303 -11.8912,38.5156 -11.8913,13.9853 -31.7848,13.9853 -19.3699,0 -31.6351,-13.9853 -12.2652,-13.9853 -12.2652,-38.5156 v -6.8805 q 0,-24.4555 12.1904,-38.4408 12.1904,-14.0601 31.5604,-14.0601 19.8935,0 31.8595,14.0601 11.966,13.9853 11.966,38.4408 z m -14.2844,6.8805 v -7.03 q 0,-19.4448 -7.7779,-29.7655 -7.778,-10.3207 -21.7632,-10.3207 -13.387,0 -21.4641,10.3207 -8.0022,10.3207 -8.0022,29.7655 v 7.03 q 0,19.5943 8.077,29.9898 8.1519,10.3207 21.5388,10.3207 14.0601,0 21.6884,-10.3207 7.7032,-10.3955 7.7032,-29.9898 z" />
  </g>
  <path
     style="fill:none;fill-opacity:0.75;fill-rule:evenodd;stroke:#000000;stroke-width:62.5493;stroke-linecap:butt;stroke-linejoin:miter;stroke-miterlimit:4;stroke-dasharray:none;stroke-opacity:1;marker-end:url(#Arrow2Mend)"
     d="m 4233.0308,1486.0409 735.9256,-17.5767"
     id="path5889" />
  <rect
     style="fill:#97deff;fill-opacity:0.681115;stroke:#ff8f00;stroke-width:0.0623495;stroke-miterlimit:4;stroke-dasharray:none;stroke-dashoffset:0;stroke-opacity:1"
     id="rect3150"
     width="3904.0552"
     height="223.31673"
     x="2635.2339"
     y="358.07031" />
  <rect
     style="fill:#97dede;fill-opacity:0.681115;stroke:#ff8f00;stroke-width:0.060096;stroke-miterlimit:4;stroke-dasharray:none;stroke-dashoffset:0;stroke-opacity:1"
     id="rect3152"
     width="3904.3591"
     height="128.52606"
     x="2635.2344"
     y="229.495" />
  <polyline
     id="polyline3154"
     style="stroke:#008f8f;stroke-width:7;stroke-linecap:butt;stroke-linejoin:miter;stroke-dasharray:60, 60"
     points="1800,1875 6098,1875 "
     transform="matrix(0.9042668,0,0,-0.4246622,1007.4763,1377.8556)" />
  <polyline
     id="polyline3156"
     style="stroke:#000000;stroke-width:15;stroke-linecap:butt;stroke-linejoin:miter"
     points="1800,75 6098,75 "
     transform="matrix(0.9106775,0,0,-1.1337802,989.29651,318.14648)" />
  <polyline
     id="polyline3158"
     style="stroke:#0000b0;stroke-width:7;stroke-linecap:butt;stroke-linejoin:miter;stroke-dasharray:60, 60"
     points="1820,2400 7500,2400 "
     transform="matrix(0.6813301,0,0,-0.4246622,1412.4922,1377.8556)" />
  <path
     d="m 5164.7986,932.59074 c 2.4924,-7.88619 3.248,-15.6535 0.76,-21.6408 -0.6605,-1.58974 -0.8153,-0.468 -1.52,-1.60297 1.7049,-2.33712 4.1343,-5.16208 10.6393,-12.0227 18.016,-19.00145 29.6426,-39.50022 44.0771,-53.70134 7.5043,-7.38302 16.2279,-12.65691 26.5985,-16.8319 5.1602,15.12929 18.6873,24.68292 33.4379,29.65594 15.8864,5.35594 34.3832,7.51693 53.9565,8.01528 39.1463,0.99656 81.9912,-4.00757 101.8332,-4.00757 0.3491,0 1.5092,10e-4 1.5201,0 0.011,-0.001 2.2721,-0.79923 2.2796,-0.80148 0.01,-0.003 3.7955,-1.59951 3.7999,-1.60312 0,-0.004 3.7986,-7.20869 3.7997,-7.21365 0,-0.005 0,-7.20749 0,-7.2135 0,-0.006 -1.5146,-4.00065 -1.5199,-4.00772 -0.01,-0.007 -1.162,-1.24242 -1.5198,-1.60296 -0.3579,-0.36069 -0.5139,-0.59649 -0.76,-0.80149 -1.9692,-1.64129 -2.4695,-1.30915 -3.0396,-1.60326 -1.1404,-0.58763 -2.3727,-0.99491 -3.7999,-1.60267 -2.8547,-1.21567 -6.2648,-2.87395 -11.3994,-4.8092 -10.2687,-3.8705 -24.7315,-9.30069 -41.0372,-14.42745 -32.6115,-10.25322 -72.3567,-20.03754 -101.8333,-20.03754 -6.6162,0 -10.8639,2.39408 -16.7189,3.20594 -2.7536,-14.65379 -6.3178,-31.02115 -6.0798,-38.47271 0.3573,-11.17748 1.7806,-13.16804 6.0798,-16.03011 4.2989,-2.86223 14.5873,-4.91786 28.878,-7.2138 14.2906,-2.2958 32.5672,-5.3809 54.7165,-11.22107 0.8986,-0.23701 14.3236,-1.92924 30.3979,-4.00742 16.0745,-2.07832 36.463,-4.58482 56.2363,-7.2138 19.7738,-2.62898 39.1093,-5.35685 53.9567,-8.01498 7.4236,-1.32915 13.2825,-2.6389 18.2389,-4.00787 2.478,-0.68441 4.6031,-1.37724 6.8394,-2.40445 1.1183,-0.51353 2.2899,-1.2277 3.7997,-2.4043 1.5098,-1.1769 4.1535,-3.09592 5.3196,-8.01528 8.0913,-34.13511 13.8893,-61.30754 3.7999,-85.76188 -10.0894,-24.45448 -34.4722,-40.34859 -75.995,-51.29674 -4.8872,-1.28856 -16.6851,-7.67879 -27.3582,-18.43471 -10.6733,-10.75638 -21.3697,-25.65769 -28.8782,-40.07597 -7.5085,-14.41829 -11.4306,-28.29404 -10.6395,-39.27374 0.7913,-10.98016 5.0405,-19.49004 18.2389,-26.4503 41.053,-21.64892 57.1154,-56.63721 53.1965,-90.57093 -3.9187,-33.93357 -25.1919,-65.44315 -50.9166,-91.37241 l -16.7191,18.43472 c 23.0259,23.20905 40.4725,51.50925 43.3174,76.14378 2.8447,24.63452 -5.525,46.59604 -40.2775,64.92255 -19.392,10.22662 -29.8208,27.93079 -31.1577,46.48784 -1.3375,18.55705 4.7436,37.34464 13.679,54.50282 8.9352,17.15818 20.9851,33.13659 33.4379,45.68635 12.4527,12.54976 24.9658,21.41072 37.9973,24.84689 38.6466,10.18964 53.477,22.01201 59.2763,36.06795 5.3346,12.93044 1.9007,35.12896 -4.5597,64.12122 -3.6544,0.94682 -8.024,2.05729 -14.4392,3.20609 -14.1282,2.52934 -33.5615,5.40449 -53.1964,8.01483 -19.635,2.61065 -40.0615,5.1224 -56.2365,7.21365 -16.1749,2.09155 -26.8378,3.06902 -33.4376,4.80905 -20.6764,5.45198 -37.7405,8.05887 -52.4367,10.41974 -14.6962,2.36101 -27.2945,4.09503 -37.9977,11.22121 -10.7033,7.12619 -16.9643,20.76117 -17.4788,36.86974 -0.3433,10.74932 3.8341,27.60346 6.8397,43.28145 -15.2918,5.53449 -28.007,13.41497 -37.9978,23.24407 -17.6773,17.39143 -29.3623,37.38012 -44.8371,53.70134 -8.2855,8.73862 -13.5222,13.98891 -16.7187,19.2362 -1.5983,2.62372 -2.5988,5.57552 -3.04,9.61825 -0.441,4.04274 0.68,8.81662 2.28,11.22137 3.1998,4.80905 2.8585,3.79656 2.2799,2.4043 -0.5788,-1.39256 0.6809,-1.35289 -0.7601,3.20593 z m 168.7093,-93.77701 c -18.3854,-0.46814 -35.9375,-2.38687 -47.8769,-6.41217 -8.3464,-2.81383 -10.1961,-6.78533 -12.9193,-10.41958 3.1739,-0.23475 4.82,-1.60312 8.3596,-1.60312 21.1317,0 54.8415,8.06443 84.3545,16.8319 -11.7899,0.51384 -20.302,1.89874 -31.9179,1.60297 z"
     id="path2735"
     style="fill:#a000a0;fill-opacity:1;fill-rule:evenodd;stroke:none;stroke-width:1.7;stroke-linecap:butt;stroke-linejoin:miter;stroke-miterlimit:4;stroke-dasharray:none;stroke-opacity:1" />
  <path
     d="m 4312.5702,860.89893 c 9.885,-20.85074 14.5516,-36.29533 20.5189,-49.69392 0.9469,-2.12627 3.5368,-4.34451 4.5596,-6.41217 6.4256,5.67531 14.8522,14.86284 18.9988,19.23636 17.5366,18.49558 37.3688,26.54919 56.2365,25.64837 18.8674,-0.90068 36.4229,-10.04327 50.9165,-21.64081 14.4939,-11.59738 26.4649,-26.20774 35.7178,-40.07567 9.2527,-13.86793 15.6416,-26.71345 18.2386,-37.67122 2.3159,-9.76944 1.3281,-20.01048 -4.5594,-27.25133 -5.8874,-7.2407 -14.6229,-9.93311 -22.7987,-11.22107 -16.3515,-2.57623 -35.2571,0.67509 -55.4765,5.61053 -20.2191,4.9356 -40.7838,11.33619 -56.9964,17.63339 -8.1059,3.14867 -15.1012,6.26594 -20.5186,8.81632 -2.7086,1.27564 -5.6204,2.89348 -7.5994,4.00786 -1.9789,1.11439 -3.2874,1.06239 -6.0796,4.00742 -5.0914,5.36992 -6.0474,9.44798 -9.8795,14.4273 -4.6471,-4.59594 -9.5621,-7.79722 -13.679,-12.82433 -16.4569,-20.09555 -26.6359,-41.51934 -19.7587,-70.53324 6.8334,-28.82891 14.0831,-43.4609 16.7189,-46.48769 0.422,0.18921 1.2612,0.43944 3.7997,2.40475 12.5729,9.73277 37.5086,42.55166 79.795,53.70134 18.3827,4.84692 60.1712,15.36509 100.3135,17.63323 20.071,1.13377 40.1682,0.43734 56.9965,-4.80905 16.8278,-5.24638 32.0398,-17.34693 36.4773,-36.0681 5.5067,-23.23099 15.8481,-64.26309 14.4394,-101.79214 -0.7046,-18.7643 -4.1629,-36.64401 -14.4394,-51.29674 -10.2762,-14.65288 -27.9695,-24.0454 -50.1568,-24.0454 -28.1584,0 -68.1424,2.97284 -91.9538,-4.00757 -11.9057,-3.49028 -17.9104,-8.06022 -20.5188,-15.22893 -2.6085,-7.16872 -2.3149,-20.76478 8.3594,-43.28161 14.0593,-29.65623 6.4229,-63.01585 2.2801,-92.17389 -2.0718,-14.57909 -3.221,-28.06544 -2.2801,-39.27418 0.9411,-11.2089 3.8979,-19.33975 10.6395,-26.45001 l -17.479,-18.43471 c -11.389,12.01157 -16.2081,27.34481 -17.4789,42.48027 -1.2707,15.1353 0.9062,30.66917 3.0398,45.6862 4.2674,30.03361 8.1141,58.22695 -0.76,76.94526 -12.2442,25.82811 -15.3249,46.26481 -9.1193,63.31943 6.2056,17.05448 21.4265,26.62404 37.2374,31.25906 31.6226,9.27048 72.1276,4.80905 98.0337,4.80905 16.4648,0 24.5161,5.23872 30.3982,13.62567 5.882,8.38709 9.2848,21.83452 9.8795,37.67106 1.1891,31.6734 -8.1455,71.23298 -13.6793,94.57865 -1.9529,8.23906 -7.4955,13.00858 -19.7585,16.83175 -12.2635,3.82301 -30.1053,5.05447 -48.6369,4.00756 -37.0635,-2.09425 -78.0211,-12.15615 -95.7538,-16.83175 -33.5126,-8.83645 -52.4436,-34.99189 -71.4357,-49.69392 -4.7476,-3.67543 -9.6839,-7.32336 -16.7189,-8.01483 -7.0346,-0.69177 -14.9108,3.24997 -19.7586,8.81647 -9.6958,11.13284 -14.9195,28.47693 -22.0384,58.51053 -9.0634,38.23495 5.8779,69.52992 25.0783,92.97538 6.2127,7.58651 10.8492,11.26149 17.4787,17.63323 -2.0975,3.8917 -6.6478,8.1794 -8.3593,12.0227 -6.793,15.25253 -11.3715,30.39851 -20.5187,49.69378 z m 99.5538,-36.86973 c -12.164,0.58071 -24.2829,-3.97015 -37.9978,-18.43472 -6.1119,-6.44628 -14.3134,-14.76996 -22.0383,-21.6408 3.473,-4.57656 4.0979,-8.32954 9.1193,-13.62582 1.1957,-0.67314 3.7217,-2.09606 6.0796,-3.20609 4.7155,-2.22034 11.3052,-5.02666 18.9989,-8.01513 15.3867,-5.97663 35.1115,-12.23145 53.9563,-16.83175 18.8452,-4.6003 37.2087,-7.17157 47.117,-5.61053 4.9542,0.78029 6.5987,2.90971 6.8396,3.20593 0.241,0.29622 1.0911,0.20619 0,4.8092 -1.173,4.94852 -6.4012,16.80755 -14.4391,28.85445 -8.0379,12.04675 -19.2739,24.15451 -31.1579,33.66366 -11.8841,9.50884 -24.3139,16.25089 -36.4776,16.8316 z"
     id="path2737"
     style="fill:#a000a0;fill-opacity:1;fill-rule:evenodd;stroke:none;stroke-width:1.7;stroke-linecap:butt;stroke-linejoin:miter;stroke-miterlimit:4;stroke-dasharray:none;stroke-opacity:1" />
  <path
     d="m 6052.262,860.10406 c 9.8851,-20.85059 14.5515,-36.29519 20.5188,-49.69377 0.947,-2.12642 3.537,-4.34466 4.5599,-6.41217 6.4252,5.67531 14.852,14.86269 18.9986,19.23636 17.5366,18.49558 37.3688,26.54919 56.2365,25.64836 18.8674,-0.90067 36.4229,-10.04341 50.9165,-21.6408 14.4939,-11.59738 26.4649,-26.20789 35.7178,-40.07582 9.2529,-13.86763 15.6416,-26.7133 18.2387,-37.67107 2.3158,-9.76944 1.3278,-20.01063 -4.5597,-27.25118 -5.8872,-7.24101 -14.6226,-9.93326 -22.7983,-11.22137 -16.3516,-2.57608 -35.2573,0.67509 -55.4767,5.61068 -20.2191,4.9356 -40.7838,11.33604 -56.9962,17.63324 -8.1061,3.14882 -15.1012,6.26594 -20.5188,8.81662 -2.7086,1.27564 -5.6203,2.89333 -7.5994,4.00771 -1.9788,1.11439 -3.2874,1.06239 -6.0794,4.00742 -5.0915,5.36992 -6.0476,9.44798 -9.8795,14.42745 -4.6473,-4.59609 -9.5622,-7.79737 -13.6792,-12.82448 -16.4569,-20.09555 -26.6359,-41.51934 -19.7587,-70.53309 6.8334,-28.82906 14.0831,-43.46105 16.7189,-46.48784 0.422,0.18921 1.2612,0.43959 3.7998,2.40475 12.5726,9.73277 37.5087,42.55166 79.7949,53.70134 18.3827,4.84692 60.1712,15.36524 100.3135,17.63323 20.0712,1.13392 40.1682,0.43734 56.9964,-4.80905 16.8279,-5.24638 32.0401,-17.34693 36.4774,-36.0681 5.5067,-23.23099 15.848,-64.26309 14.4394,-101.79229 -0.7046,-18.76415 -4.1628,-36.64386 -14.4394,-51.29659 -10.2763,-14.65288 -27.9695,-24.04555 -50.1568,-24.04555 -28.1584,0 -68.1424,2.97299 -91.9538,-4.00742 -11.9057,-3.49028 -17.9104,-8.06022 -20.5188,-15.22878 -2.6084,-7.16887 -2.3152,-20.76493 8.3593,-43.28176 14.0596,-29.65623 6.4231,-63.01601 2.2802,-92.17389 -2.0717,-14.57924 -3.2208,-28.06529 -2.2802,-39.27403 0.9411,-11.2092 3.898,-19.3399 10.6396,-26.45016 l -17.4789,-18.43472 c -11.3889,12.01158 -16.2082,27.34467 -17.4789,42.48012 -1.2707,15.13531 0.9061,30.66933 3.0397,45.68621 4.2675,30.03391 8.1141,58.22694 -0.76,76.94541 -12.2442,25.82811 -15.3248,46.26481 -9.1193,63.31943 6.2056,17.05463 21.4265,26.62389 37.2375,31.25906 31.6225,9.27033 72.1277,4.80905 98.0336,4.80905 16.4648,0 24.5163,5.23872 30.3981,13.62551 5.8821,8.38725 9.2849,21.83468 9.8794,37.67137 1.1891,31.67325 -8.1452,71.23283 -13.679,94.57835 -1.953,8.23921 -7.4956,13.00873 -19.7586,16.8319 -12.2634,3.82301 -30.1053,5.05447 -48.6371,4.00771 -37.0633,-2.0944 -78.0208,-12.1563 -95.7537,-16.83205 -33.5125,-8.8363 -52.4434,-34.99159 -71.4354,-49.69377 -4.7478,-3.67528 -9.684,-7.32336 -16.7191,-8.01498 -7.0346,-0.69178 -14.9107,3.25012 -19.7584,8.81662 -9.6958,11.13284 -14.9197,28.47678 -22.0386,58.51038 -9.0634,38.2351 5.8777,69.53022 25.0781,92.97553 6.2128,7.58651 10.8493,11.26149 17.4789,17.63308 -2.0975,3.8917 -6.6478,8.17955 -8.3594,12.02285 -6.7929,15.25268 -11.3714,30.39851 -20.5186,49.69377 z m 99.5537,-36.86958 c -12.1639,0.58056 -24.2829,-3.97015 -37.9975,-18.43472 -6.1122,-6.44628 -14.3137,-14.76996 -22.0385,-21.64095 3.473,-4.57641 4.0979,-8.32954 9.1193,-13.62567 1.1955,-0.67329 3.7219,-2.09606 6.0797,-3.20609 4.7155,-2.22049 11.3051,-5.02666 18.9986,-8.01513 15.3869,-5.97648 35.1115,-12.23145 53.9564,-16.83175 18.8452,-4.6003 37.2086,-7.17157 47.1171,-5.61068 4.9542,0.78044 6.5987,2.90986 6.8394,3.20623 0.2412,0.29622 1.0913,0.20604 0,4.80905 -1.1727,4.94852 -6.401,16.80755 -14.4387,28.85445 -8.038,12.04675 -19.2742,24.15436 -31.1581,33.6635 -11.8839,9.50915 -24.3138,16.25105 -36.4777,16.83176 z"
     id="path2739"
     style="fill:#a000a0;fill-opacity:1;fill-rule:evenodd;stroke:none;stroke-width:1.7;stroke-linecap:butt;stroke-linejoin:miter;stroke-miterlimit:4;stroke-dasharray:none;stroke-opacity:1" />
  <path
     d="m 3610.3252,853.02943 c 9.885,-20.85089 14.5515,-36.29519 20.5188,-49.69392 0.9468,-2.12642 3.5369,-4.34451 4.5597,-6.41217 6.4254,5.67531 14.8522,14.86283 18.9986,19.23635 17.5368,18.49559 37.369,26.54919 56.2365,25.64837 18.8674,-0.90067 36.4231,-10.04326 50.9167,-21.6408 14.4939,-11.59754 26.4649,-26.20774 35.7178,-40.07567 9.2529,-13.86778 15.6415,-26.71346 18.2386,-37.67122 2.3158,-9.76944 1.3279,-20.01048 -4.5596,-27.25119 -5.8874,-7.24085 -14.6227,-9.93325 -22.7983,-11.22137 -16.3516,-2.57607 -35.2573,0.67525 -55.4768,5.61069 -20.219,4.93559 -40.7837,11.33604 -56.9963,17.63338 -8.106,3.14853 -15.1012,6.26594 -20.5186,8.81647 -2.7086,1.27564 -5.6203,2.89334 -7.5996,4.00772 -1.9788,1.11453 -3.2874,1.06253 -6.0794,4.00741 -5.0915,5.36993 -6.0476,9.44798 -9.8793,14.42731 -4.6474,-4.5958 -9.5624,-7.79722 -13.6792,-12.82434 -16.4569,-20.09539 -26.636,-41.51933 -19.7587,-70.53309 6.8334,-28.82905 14.0831,-43.46089 16.7189,-46.48768 0.4218,0.18906 1.261,0.43944 3.7997,2.4046 12.5727,9.73277 37.5086,42.55165 79.795,53.70148 18.3827,4.84678 60.171,15.3651 100.3134,17.63309 20.0711,1.13392 40.1683,0.43733 56.9964,-4.80905 16.828,-5.24654 32.04,-17.34694 36.4775,-36.06811 5.5067,-23.23084 15.848,-64.26309 14.4392,-101.79229 -0.7044,-18.76415 -4.1627,-36.64385 -14.4392,-51.29658 -10.2764,-14.65289 -27.9696,-24.04541 -50.1568,-24.04541 -28.1585,0 -68.1423,2.97299 -91.954,-4.00771 -11.9055,-3.49013 -17.9102,-8.06007 -20.5186,-15.22864 -2.6086,-7.16871 -2.315,-20.76492 8.3593,-43.28175 14.0595,-29.65624 6.4231,-63.01586 2.28,-92.17389 -2.0717,-14.57909 -3.2208,-28.06545 -2.28,-39.27404 0.9412,-11.20904 3.898,-19.33975 10.6394,-26.45015 l -17.4787,-18.43472 c -11.3891,12.01158 -16.2084,27.34481 -17.4789,42.48027 -1.2708,15.13531 0.9061,30.66917 3.0396,45.68605 4.2675,30.03391 8.1141,58.2271 -0.7599,76.94526 -12.2444,25.82811 -15.3249,46.26511 -9.1193,63.31959 6.2054,17.05463 21.4265,26.62403 37.2374,31.25905 31.6226,9.27034 72.1276,4.8092 98.0337,4.8092 16.4647,0 24.5162,5.23857 30.398,13.62552 5.882,8.38695 9.285,21.83452 9.8795,37.67122 1.1891,31.6734 -8.1454,71.23268 -13.6792,94.57849 -1.9528,8.23906 -7.4954,13.00859 -19.7585,16.83175 -12.2634,3.82302 -30.1053,5.05447 -48.6368,4.00757 -37.0635,-2.09426 -78.0211,-12.15616 -95.7539,-16.8319 -33.5125,-8.83631 -52.4435,-34.99175 -71.4356,-49.69377 -4.7477,-3.67528 -9.6839,-7.32336 -16.7187,-8.01499 -7.0348,-0.69177 -14.911,3.25012 -19.7588,8.81662 -9.6956,11.13285 -14.9196,28.47693 -22.0385,58.51039 -9.0633,38.23525 5.8778,69.53007 25.0784,92.97552 6.2127,7.58652 10.8491,11.2615 17.4787,17.63324 -2.0975,3.89169 -6.648,8.17955 -8.3594,12.0227 -6.7929,15.25268 -11.3714,30.39851 -20.5186,49.69377 z m 99.5536,-36.86974 c -12.1638,0.58071 -24.2828,-3.97014 -37.9975,-18.43472 -6.112,-6.44628 -14.3135,-14.76995 -22.0384,-21.64095 3.4728,-4.57625 4.0979,-8.32953 9.1193,-13.62567 1.1957,-0.67313 3.7217,-2.09591 6.0796,-3.20608 4.7154,-2.2205 11.3052,-5.02652 18.9989,-8.01513 15.3868,-5.97649 35.1115,-12.23145 53.9562,-16.83176 18.8451,-4.60015 37.2086,-7.17157 47.1171,-5.61053 4.9541,0.78044 6.5985,2.90987 6.8394,3.20593 0.2411,0.29622 1.0912,0.2062 0,4.8092 -1.1728,4.94867 -6.401,16.80756 -14.4389,28.85446 -8.0379,12.04674 -19.274,24.15436 -31.158,33.6635 -11.884,9.50914 -24.3138,16.25104 -36.4777,16.83175 z"
     id="path2741"
     style="fill:#a000a0;fill-opacity:1;fill-rule:evenodd;stroke:none;stroke-width:1.7;stroke-linecap:butt;stroke-linejoin:miter;stroke-miterlimit:4;stroke-dasharray:none;stroke-opacity:1" />
  <path
     d="m 2849.0452,910.5395 c 2.4925,-7.88619 3.2481,-15.65365 0.76,-21.64095 -0.6606,-1.58974 -0.8154,-0.46784 -1.5201,-1.60282 1.7051,-2.33727 4.1343,-5.16192 10.6395,-12.0227 18.0159,-19.00145 29.6426,-39.50022 44.0769,-53.70134 7.5043,-7.38317 16.2281,-12.65691 26.5985,-16.83205 5.1604,15.12945 18.6875,24.68307 33.4381,29.65624 15.8863,5.3558 34.3831,7.51678 53.9564,8.01498 39.1463,0.99656 81.9913,-4.00741 101.8333,-4.00741 0.3491,0 1.509,10e-4 1.52,0 0.011,-10e-4 2.2722,-0.79908 2.2795,-0.80164 0.01,-0.003 3.7957,-1.59936 3.7999,-1.60296 0,-0.004 3.7988,-7.2087 3.7999,-7.2138 0,-0.005 0,-7.20734 0,-7.21336 0,-0.006 -1.5148,-4.00065 -1.52,-4.00771 -0.01,-0.007 -1.162,-1.24243 -1.5199,-1.60297 -0.3578,-0.36069 -0.5137,-0.59634 -0.76,-0.80148 -1.9692,-1.64129 -2.4695,-1.30916 -3.0395,-1.60327 -1.1404,-0.58777 -2.3726,-0.9949 -3.7999,-1.60282 -2.8547,-1.21552 -6.2648,-2.87379 -11.3995,-4.8092 -10.2687,-3.8705 -24.7313,-9.30039 -41.037,-14.4273 -32.6117,-10.25321 -72.3569,-20.03753 -101.8335,-20.03753 -6.6161,0 -10.8638,2.39393 -16.7187,3.20593 -2.7538,-14.65363 -6.3178,-31.021 -6.0799,-38.4727 0.3572,-11.17764 1.7806,-13.16804 6.0799,-16.03012 4.2988,-2.86223 14.5872,-4.91786 28.8779,-7.2138 14.2905,-2.29579 32.5671,-5.3809 54.7165,-11.22107 0.8986,-0.237 14.3237,-1.92939 30.3979,-4.00742 16.0746,-2.07832 36.4629,-4.58482 56.2364,-7.2138 19.7736,-2.62883 39.1092,-5.35699 53.9565,-8.01513 7.4238,-1.32914 13.2827,-2.63875 18.2389,-4.00757 2.4781,-0.68456 4.6032,-1.37738 6.8394,-2.40445 1.1185,-0.51353 2.29,-1.228 3.7999,-2.40445 1.5096,-1.17675 4.1533,-3.09592 5.3196,-8.01528 8.0913,-34.13511 13.8891,-61.30739 3.7999,-85.76188 -10.0895,-24.45448 -34.4724,-40.34859 -75.9952,-51.29673 -4.8872,-1.28872 -16.6849,-7.67894 -27.3582,-18.43487 -10.6732,-10.75623 -21.3697,-25.65754 -28.8782,-40.07567 -7.5083,-14.41829 -11.4304,-28.29433 -10.6394,-39.27404 0.7912,-10.98 5.0405,-19.48988 18.239,-26.45 41.0529,-21.64907 57.1153,-56.63736 53.1965,-90.57092 -3.9189,-33.93372 -25.1919,-65.44331 -50.9168,-91.37256 l -16.7189,18.43472 c 23.0257,23.2089 40.4723,51.50924 43.3173,76.14392 2.8448,24.63423 -5.5249,46.59589 -40.2774,64.9224 -19.3922,10.22647 -29.8208,27.93079 -31.1579,46.48784 -1.3373,18.55705 4.7437,37.34465 13.679,54.50282 8.9352,17.15818 20.9851,33.1366 33.4379,45.68636 12.4529,12.54976 24.9658,21.41071 37.9974,24.84673 38.6467,10.1898 53.4771,22.01231 59.2764,36.06811 5.3346,12.93043 1.9005,35.1291 -4.5599,64.12122 -3.6542,0.94681 -8.024,2.05728 -14.439,3.20593 -14.1284,2.52949 -33.5616,5.40464 -53.1965,8.01498 -19.6351,2.61065 -40.0614,5.1224 -56.2366,7.21366 -16.1747,2.09155 -26.8376,3.06902 -33.4376,4.80905 -20.6763,5.45198 -37.7403,8.05901 -52.4367,10.41973 -14.6961,2.36102 -27.2944,4.09503 -37.9976,11.22122 -10.7032,7.12603 -16.9642,20.76117 -17.4789,36.86973 -0.3433,10.74947 3.8341,27.60346 6.8396,43.28161 -15.2916,5.53419 -28.0068,13.41481 -37.9975,23.24392 -17.6774,17.39127 -29.3624,37.38011 -44.8372,53.70133 -8.2855,8.73862 -13.5223,13.98892 -16.7188,19.23621 -1.5984,2.62372 -2.5987,5.57551 -3.0398,9.61825 -0.4411,4.04273 0.6799,8.81661 2.2798,11.22136 3.1998,4.80906 2.8586,3.79672 2.2797,2.4043 -0.5784,-1.39256 0.6811,-1.35288 -0.7598,3.20594 z m 168.7093,-93.77701 c -18.3853,-0.46814 -35.9374,-2.38686 -47.877,-6.41216 -8.3463,-2.81384 -10.1959,-6.78548 -12.9193,-10.41959 3.1741,-0.2346 4.8202,-1.60296 8.3596,-1.60296 21.1319,0 54.8417,8.06427 84.3546,16.83175 -11.7898,0.51383 -20.3021,1.89873 -31.9179,1.60296 z"
     id="path2743"
     style="fill:#a000a0;fill-opacity:1;fill-rule:evenodd;stroke:none;stroke-width:1.7;stroke-linecap:butt;stroke-linejoin:miter;stroke-miterlimit:4;stroke-dasharray:none;stroke-opacity:1" />
  <rect
     style="fill:#97deff;fill-opacity:0.681115;stroke:#ff8f00;stroke-width:0.0623495;stroke-miterlimit:4;stroke-dasharray:none;stroke-dashoffset:0;stroke-opacity:1"
     id="rect3186"
     width="3904.0552"
     height="223.31673"
     x="2635.2339"
     y="-2469.636"
     transform="scale(1,-1)" />
  <rect
     style="fill:#97dede;fill-opacity:0.681115;stroke:#ff8f00;stroke-width:0.060096;stroke-miterlimit:4;stroke-dasharray:none;stroke-dashoffset:0;stroke-opacity:1"
     id="rect3188"
     width="3904.3591"
     height="128.52606"
     x="2635.2344"
     y="-2598.2114"
     transform="scale(1,-1)" />
  <polyline
     id="polyline3190"
     style="stroke:#008f8f;stroke-width:7;stroke-linecap:butt;stroke-linejoin:miter;stroke-dasharray:60, 60"
     points="1800,1875 6098,1875 "
     transform="matrix(0.9042668,0,0,0.4246622,1007.4763,1449.8507)" />
  <polyline
     id="polyline3192"
     style="stroke:#000000;stroke-width:15;stroke-linecap:butt;stroke-linejoin:miter"
     points="1800,75 6098,75 "
     transform="matrix(0.9106775,0,0,1.1337802,989.29651,2509.5598)" />
  <polyline
     id="polyline3194"
     style="stroke:#0000b0;stroke-width:7;stroke-linecap:butt;stroke-linejoin:miter;stroke-dasharray:60, 60"
     points="1820,2400 7500,2400 "
     transform="matrix(0.6813301,0,0,0.4246622,1412.4922,1449.8507)" />
  <path
     d="m 4006.3251,1871.7587 c -2.4923,7.8861 -3.248,15.6535 -0.76,21.6408 0.6605,1.5897 0.8153,0.468 1.52,1.6029 -1.7048,2.3372 -4.1342,5.1621 -10.6393,12.0227 -18.016,19.0015 -29.6425,39.5003 -44.077,53.7014 -7.5044,7.383 -16.2279,12.6569 -26.5985,16.8319 -5.1603,-15.1293 -18.6874,-24.6829 -33.438,-29.6559 -15.8864,-5.356 -34.3832,-7.517 -53.9565,-8.0153 -39.1463,-0.9966 -81.9912,4.0075 -101.8332,4.0075 -0.3491,0 -1.5092,0 -1.5202,0 -0.011,0 -2.272,0.7993 -2.2795,0.8015 -0.01,0 -3.7955,1.5995 -3.7999,1.6031 0,0 -3.7987,7.2087 -3.7997,7.2137 0,0 0,7.2075 0,7.2135 0,0.01 1.5146,4.0006 1.5198,4.0077 0.01,0.01 1.1621,1.2424 1.5199,1.603 0.3578,0.3607 0.5138,0.5965 0.76,0.8015 1.9692,1.6413 2.4695,1.3091 3.0396,1.6032 1.1404,0.5877 2.3727,0.9949 3.7998,1.6027 2.8548,1.2157 6.2649,2.8739 11.3995,4.8092 10.2687,3.8705 24.7315,9.3007 41.0372,14.4275 32.6115,10.2532 72.3567,20.0375 101.8334,20.0375 6.6161,0 10.8638,-2.3941 16.7189,-3.2059 2.7535,14.6537 6.3177,31.0211 6.0797,38.4727 -0.3572,11.1775 -1.7806,13.168 -6.0797,16.0301 -4.299,2.8622 -14.5874,4.9179 -28.8781,7.2138 -14.2905,2.2958 -32.5672,5.3809 -54.7165,11.2211 -0.8986,0.237 -14.3236,1.9292 -30.398,4.0074 -16.0744,2.0783 -36.4629,4.5848 -56.2362,7.2138 -19.7738,2.629 -39.1093,5.3568 -53.9567,8.015 -7.4236,1.3291 -13.2826,2.6389 -18.2389,4.0078 -2.4781,0.6845 -4.6032,1.3773 -6.8394,2.4045 -1.1183,0.5135 -2.29,1.2277 -3.7998,2.4043 -1.5097,1.1769 -4.1535,3.0959 -5.3195,8.0153 -8.0914,34.1351 -13.8893,61.3075 -3.7999,85.7619 10.0894,24.4545 34.4722,40.3486 75.995,51.2967 4.8872,1.2886 16.6851,7.6788 27.3582,18.4347 10.6733,10.7564 21.3697,25.6577 28.8782,40.076 7.5085,14.4183 11.4306,28.2941 10.6395,39.2738 -0.7913,10.9801 -5.0405,19.49 -18.2389,26.4503 -41.053,21.6489 -57.1155,56.6372 -53.1966,90.5709 3.9188,33.9336 25.192,65.4432 50.9167,91.3725 l 16.719,-18.4348 c -23.0258,-23.209 -40.4724,-51.5092 -43.3173,-76.1437 -2.8447,-24.6346 5.525,-46.5961 40.2775,-64.9226 19.392,-10.2266 29.8208,-27.9308 31.1577,-46.4879 1.3375,-18.557 -4.7436,-37.3446 -13.679,-54.5028 -8.9352,-17.1582 -20.9851,-33.1366 -33.4379,-45.6864 -12.4527,-12.5497 -24.9658,-21.4107 -37.9974,-24.8469 -38.6466,-10.1896 -53.4769,-22.012 -59.2762,-36.0679 -5.3346,-12.9305 -1.9007,-35.129 4.5597,-64.1213 3.6544,-0.9468 8.024,-2.0573 14.4392,-3.2061 14.1282,-2.5293 33.5614,-5.4044 53.1964,-8.0148 19.635,-2.6106 40.0615,-5.1224 56.2365,-7.2136 16.1749,-2.0916 26.8378,-3.0691 33.4376,-4.8091 20.6765,-5.452 37.7406,-8.0589 52.4367,-10.4197 14.6962,-2.361 27.2945,-4.0951 37.9977,-11.2212 10.7033,-7.1262 16.9643,-20.7612 17.4789,-36.8698 0.3432,-10.7493 -3.8342,-27.6035 -6.8398,-43.2815 15.2918,-5.5345 28.007,-13.4149 37.9978,-23.244 17.6773,-17.3915 29.3623,-37.3802 44.8371,-53.7014 8.2855,-8.7386 13.5223,-13.9889 16.7188,-19.2362 1.5983,-2.6237 2.5987,-5.5755 3.04,-9.6182 0.4409,-4.0428 -0.6801,-8.8167 -2.28,-11.2214 -3.1998,-4.8091 -2.8585,-3.7966 -2.2799,-2.4043 0.5788,1.3925 -0.6809,1.3529 0.76,-3.206 z m -168.7093,93.777 c 18.3854,0.4681 35.9375,2.3869 47.8769,6.4122 8.3464,2.8138 10.1962,6.7853 12.9194,10.4195 -3.174,0.2348 -4.8201,1.6032 -8.3596,1.6032 -21.1318,0 -54.8416,-8.0645 -84.3546,-16.8319 11.7899,-0.5139 20.302,-1.8988 31.9179,-1.603 z"
     id="path3198"
     style="fill:#a000a0;fill-opacity:1;fill-rule:evenodd;stroke:none;stroke-width:1.7;stroke-linecap:butt;stroke-linejoin:miter;stroke-miterlimit:4;stroke-dasharray:none;stroke-opacity:1" />
  <path
     d="m 4858.5537,1943.4505 c -9.885,20.8507 -14.5516,36.2953 -20.5189,49.6939 -0.9468,2.1263 -3.5367,4.3445 -4.5595,6.4122 -6.4256,-5.6753 -14.8522,-14.8629 -18.9988,-19.2364 -17.5366,-18.4956 -37.3688,-26.5492 -56.2365,-25.6483 -18.8675,0.9006 -36.423,10.0432 -50.9166,21.6408 -14.4939,11.5974 -26.4649,26.2077 -35.7178,40.0756 -9.2527,13.868 -15.6416,26.7135 -18.2386,37.6713 -2.3159,9.7694 -1.3281,20.0105 4.5595,27.2513 5.8873,7.2407 14.6228,9.9331 22.7986,11.2211 16.3516,2.5762 35.2571,-0.6751 55.4765,-5.6105 20.2191,-4.9356 40.7839,-11.3362 56.9964,-17.6334 8.1059,-3.1487 15.1012,-6.266 20.5186,-8.8164 2.7087,-1.2756 5.6205,-2.8934 7.5995,-4.0078 1.9788,-1.1144 3.2874,-1.0624 6.0796,-4.0074 5.0914,-5.37 6.0474,-9.448 9.8794,-14.4273 4.6472,4.5959 9.5622,7.7972 13.679,12.8243 16.457,20.0955 26.636,41.5193 19.7588,70.5332 -6.8334,28.829 -14.0831,43.461 -16.7189,46.4877 -0.422,-0.1892 -1.2612,-0.4394 -3.7997,-2.4047 -12.5729,-9.7328 -37.5086,-42.5517 -79.795,-53.7014 -18.3828,-4.8469 -60.1713,-15.3651 -100.3135,-17.6332 -20.0711,-1.1338 -40.1683,-0.4373 -56.9966,4.8091 -16.8278,5.2463 -32.0398,17.3469 -36.4773,36.0681 -5.5067,23.231 -15.8481,64.2631 -14.4394,101.7921 0.7046,18.7643 4.1629,36.6441 14.4394,51.2968 10.2762,14.6529 27.9695,24.0454 50.1568,24.0454 28.1585,0 68.1425,-2.9728 91.9539,4.0076 11.9056,3.4902 17.9104,8.0602 20.5187,15.2289 2.6086,7.1687 2.3149,20.7648 -8.3594,43.2816 -14.0592,29.6563 -6.4228,63.0159 -2.28,92.1739 2.0717,14.5791 3.221,28.0655 2.28,39.2742 -0.9411,11.2089 -3.8979,19.3398 -10.6395,26.45 l 17.4791,18.4348 c 11.3889,-12.0116 16.2081,-27.3449 17.4789,-42.4803 1.2707,-15.1353 -0.9062,-30.6692 -3.0399,-45.6862 -4.2674,-30.0336 -8.114,-58.227 0.76,-76.9453 12.2443,-25.8281 15.325,-46.2648 9.1193,-63.3195 -6.2055,-17.0544 -21.4265,-26.624 -37.2373,-31.259 -31.6226,-9.2705 -72.1277,-4.8091 -98.0338,-4.8091 -16.4648,0 -24.5161,-5.2387 -30.3982,-13.6256 -5.882,-8.3871 -9.2848,-21.8346 -9.8795,-37.6711 -1.189,-31.6734 8.1455,-71.233 13.6794,-94.5787 1.9528,-8.2391 7.4954,-13.0086 19.7584,-16.8318 12.2635,-3.823 30.1053,-5.0544 48.637,-4.0075 37.0634,2.0942 78.021,12.1561 95.7537,16.8317 33.5127,8.8365 52.4436,34.9919 71.4358,49.694 4.7476,3.6754 9.6839,7.3233 16.7189,8.0148 7.0346,0.6918 14.9107,-3.25 19.7586,-8.8165 9.6958,-11.1328 14.9195,-28.4769 22.0384,-58.5105 9.0634,-38.235 -5.8779,-69.53 -25.0783,-92.9754 -6.2127,-7.5865 -10.8493,-11.2615 -17.4787,-17.6333 2.0975,-3.8917 6.6478,-8.1794 8.3592,-12.0227 6.793,-15.2525 11.3716,-30.3985 20.5188,-49.6937 z M 4759,1980.3202 c 12.1639,-0.5807 24.2828,3.9702 37.9978,18.4348 6.1119,6.4462 14.3133,14.7699 22.0383,21.6408 -3.473,4.5765 -4.0979,8.3295 -9.1193,13.6258 -1.1957,0.6731 -3.7217,2.096 -6.0796,3.2061 -4.7156,2.2203 -11.3052,5.0266 -18.9989,8.0151 -15.3867,5.9766 -35.1115,12.2315 -53.9564,16.8318 -18.8452,4.6003 -37.2086,7.1715 -47.1169,5.6105 -4.9543,-0.7803 -6.5987,-2.9097 -6.8396,-3.2059 -0.2411,-0.2963 -1.0911,-0.2062 0,-4.8092 1.173,-4.9486 6.4012,-16.8076 14.439,-28.8545 8.038,-12.0468 19.2739,-24.1545 31.1579,-33.6637 11.8841,-9.5088 24.314,-16.2509 36.4777,-16.8316 z"
     id="path3200"
     style="fill:#a000a0;fill-opacity:1;fill-rule:evenodd;stroke:none;stroke-width:1.7;stroke-linecap:butt;stroke-linejoin:miter;stroke-miterlimit:4;stroke-dasharray:none;stroke-opacity:1" />
  <path
     d="m 3118.8615,1944.2454 c -9.885,20.8506 -14.5515,36.2952 -20.5188,49.6937 -0.947,2.1265 -3.537,4.3447 -4.5599,6.4122 -6.4252,-5.6753 -14.852,-14.8627 -18.9986,-19.2363 -17.5366,-18.4956 -37.3688,-26.5492 -56.2365,-25.6484 -18.8674,0.9007 -36.423,10.0434 -50.9165,21.6408 -14.4939,11.5974 -26.4649,26.2079 -35.7178,40.0758 -9.2529,13.8676 -15.6417,26.7133 -18.2388,37.6711 -2.3158,9.7694 -1.3278,20.0106 4.5597,27.2512 5.8873,7.241 14.6227,9.9332 22.7984,11.2214 16.3515,2.576 35.2573,-0.6751 55.4767,-5.6107 20.219,-4.9356 40.7838,-11.3361 56.9962,-17.6333 8.1061,-3.1488 15.1012,-6.2659 20.5188,-8.8166 2.7086,-1.2756 5.6203,-2.8933 7.5994,-4.0077 1.9789,-1.1144 3.2874,-1.0624 6.0794,-4.0074 5.0915,-5.3699 6.0476,-9.448 9.8795,-14.4275 4.6473,4.5961 9.5622,7.7974 13.6792,12.8245 16.4569,20.0956 26.6359,41.5194 19.7587,70.5331 -6.8334,28.8291 -14.0831,43.4611 -16.7189,46.4879 -0.422,-0.1892 -1.2612,-0.4396 -3.7998,-2.4048 -12.5726,-9.7328 -37.5086,-42.5517 -79.7949,-53.7013 -18.3827,-4.847 -60.1712,-15.3653 -100.3135,-17.6333 -20.0712,-1.1339 -40.1683,-0.4373 -56.9964,4.8091 -16.828,5.2464 -32.0401,17.3469 -36.4775,36.0681 -5.5067,23.231 -15.848,64.2631 -14.4393,101.7923 0.7045,18.7642 4.1628,36.6439 14.4393,51.2966 10.2764,14.6529 27.9696,24.0456 50.1568,24.0456 28.1585,0 68.1425,-2.973 91.9539,4.0074 11.9056,3.4903 17.9104,8.0602 20.5188,15.2288 2.6084,7.1688 2.3152,20.7649 -8.3593,43.2817 -14.0596,29.6563 -6.4232,63.0161 -2.2802,92.174 2.0717,14.5792 3.2208,28.0653 2.2802,39.274 -0.9411,11.2092 -3.898,19.3399 -10.6396,26.4502 l 17.4789,18.4347 c 11.3889,-12.0116 16.2082,-27.3447 17.4789,-42.4801 1.2706,-15.1354 -0.9061,-30.6694 -3.0398,-45.6863 -4.2674,-30.0339 -8.114,-58.2269 0.76,-76.9454 12.2443,-25.8281 15.3249,-46.2648 9.1193,-63.3194 -6.2055,-17.0547 -21.4265,-26.6239 -37.2375,-31.2591 -31.6224,-9.2703 -72.1276,-4.8091 -98.0336,-4.8091 -16.4647,0 -24.5162,-5.2387 -30.398,-13.6255 -5.8821,-8.3872 -9.285,-21.8347 -9.8795,-37.6714 -1.1891,-31.6732 8.1453,-71.2328 13.679,-94.5783 1.953,-8.2392 7.4956,-13.0088 19.7586,-16.8319 12.2635,-3.823 30.1053,-5.0545 48.6371,-4.0077 37.0634,2.0944 78.0209,12.1563 95.7538,16.832 33.5125,8.8363 52.4435,34.9916 71.4354,49.6938 4.7478,3.6753 9.684,7.3234 16.7191,8.015 7.0346,0.6918 14.9108,-3.2501 19.7584,-8.8166 9.6958,-11.1329 14.9197,-28.4768 22.0387,-58.5104 9.0633,-38.2352 -5.8778,-69.5303 -25.0782,-92.9756 -6.2128,-7.5865 -10.8493,-11.2615 -17.4789,-17.6331 2.0975,-3.8917 6.6478,-8.1795 8.3594,-12.0228 6.7929,-15.2527 11.3714,-30.3986 20.5186,-49.6938 z m -99.5537,36.8696 c 12.1639,-0.5806 24.2829,3.9701 37.9975,18.4347 6.1122,6.4463 14.3137,14.7699 22.0385,21.6409 -3.473,4.5764 -4.0979,8.3296 -9.1193,13.6257 -1.1955,0.6733 -3.7219,2.0961 -6.0797,3.2061 -4.7155,2.2205 -11.3051,5.0267 -18.9986,8.0151 -15.3869,5.9765 -35.1116,12.2315 -53.9564,16.8318 -18.8452,4.6003 -37.2087,7.1716 -47.1171,5.6107 -4.9543,-0.7805 -6.5987,-2.9099 -6.8395,-3.2063 -0.2412,-0.2962 -1.0912,-0.206 0,-4.809 1.1727,-4.9485 6.4011,-16.8076 14.4388,-28.8545 8.0379,-12.0467 19.2742,-24.1543 31.158,-33.6635 11.884,-9.5091 24.3139,-16.251 36.4778,-16.8317 z"
     id="path3202"
     style="fill:#a000a0;fill-opacity:1;fill-rule:evenodd;stroke:none;stroke-width:1.7;stroke-linecap:butt;stroke-linejoin:miter;stroke-miterlimit:4;stroke-dasharray:none;stroke-opacity:1" />
  <path
     d="m 5560.7989,1951.32 c -9.885,20.8509 -14.5514,36.2952 -20.5187,49.6939 -0.9468,2.1264 -3.5369,4.3445 -4.5597,6.4122 -6.4254,-5.6753 -14.8522,-14.8628 -18.9987,-19.2364 -17.5367,-18.4956 -37.369,-26.5492 -56.2365,-25.6483 -18.8674,0.9006 -36.4231,10.0432 -50.9167,21.6408 -14.4939,11.5975 -26.4649,26.2077 -35.7178,40.0757 -9.2529,13.8677 -15.6414,26.7134 -18.2386,37.6712 -2.3157,9.7694 -1.3279,20.0105 4.5596,27.2512 5.8874,7.2408 14.6227,9.9332 22.7983,11.2213 16.3516,2.5761 35.2573,-0.6752 55.4769,-5.6106 20.2189,-4.9356 40.7837,-11.3361 56.9962,-17.6334 8.1061,-3.1486 15.1012,-6.266 20.5186,-8.8165 2.7087,-1.2756 5.6203,-2.8933 7.5996,-4.0077 1.9789,-1.1146 3.2874,-1.0626 6.0795,-4.0074 5.0914,-5.37 6.0475,-9.448 9.8793,-14.4273 4.6473,4.5958 9.5623,7.7972 13.6791,12.8243 16.457,20.0954 26.6361,41.5193 19.7588,70.5331 -6.8334,28.8291 -14.0831,43.4609 -16.7189,46.4877 -0.4218,-0.1891 -1.2611,-0.4394 -3.7997,-2.4046 -12.5728,-9.7328 -37.5086,-42.5517 -79.795,-53.7015 -18.3828,-4.8468 -60.1711,-15.3651 -100.3135,-17.6331 -20.0711,-1.1339 -40.1683,-0.4373 -56.9964,4.8091 -16.828,5.2465 -32.04,17.3469 -36.4775,36.0681 -5.5067,23.2308 -15.848,64.2631 -14.4392,101.7923 0.7044,18.7641 4.1627,36.6439 14.4392,51.2966 10.2764,14.6529 27.9696,24.0454 50.1568,24.0454 28.1585,0 68.1423,-2.973 91.954,4.0077 11.9055,3.4902 17.9103,8.0601 20.5186,15.2287 2.6086,7.1687 2.3151,20.7649 -8.3593,43.2817 -14.0595,29.6563 -6.4231,63.0159 -2.28,92.1739 2.0718,14.5791 3.2208,28.0655 2.28,39.2741 -0.9412,11.209 -3.898,19.3397 -10.6394,26.4501 l 17.4787,18.4348 c 11.3891,-12.0116 16.2084,-27.3448 17.4789,-42.4803 1.2709,-15.1353 -0.9061,-30.6692 -3.0395,-45.6861 -4.2676,-30.0339 -8.1142,-58.2271 0.7598,-76.9453 12.2444,-25.8281 15.325,-46.2651 9.1193,-63.3196 -6.2054,-17.0546 -21.4265,-26.624 -37.2373,-31.259 -31.6226,-9.2704 -72.1277,-4.8092 -98.0338,-4.8092 -16.4647,0 -24.5162,-5.2386 -30.398,-13.6255 -5.882,-8.387 -9.285,-21.8346 -9.8795,-37.6713 -1.1891,-31.6734 8.1454,-71.2327 13.6792,-94.5785 1.9528,-8.2391 7.4954,-13.0086 19.7586,-16.8317 12.2633,-3.8231 30.1053,-5.0545 48.6368,-4.0076 37.0634,2.0942 78.021,12.1561 95.7539,16.8319 33.5125,8.8363 52.4434,34.9917 71.4356,49.6938 4.7477,3.6753 9.6839,7.3233 16.7187,8.015 7.0348,0.6917 14.9109,-3.2502 19.7588,-8.8167 9.6956,-11.1328 14.9196,-28.4769 22.0384,-58.5104 9.0634,-38.2352 -5.8777,-69.53 -25.0783,-92.9755 -6.2127,-7.5865 -10.8491,-11.2615 -17.4788,-17.6332 2.0976,-3.8917 6.648,-8.1796 8.3595,-12.0228 6.7928,-15.2526 11.3714,-30.3985 20.5186,-49.6937 z m -99.5536,36.8697 c 12.1638,-0.5807 24.2829,3.9702 37.9975,18.4348 6.112,6.4462 14.3135,14.7699 22.0385,21.6409 -3.4729,4.5763 -4.0979,8.3296 -9.1193,13.6257 -1.1957,0.6731 -3.7217,2.0959 -6.0796,3.2061 -4.7154,2.2205 -11.3052,5.0265 -18.9989,8.0151 -15.3869,5.9765 -35.1115,12.2315 -53.9563,16.8318 -18.8451,4.6001 -37.2086,7.1715 -47.1171,5.6105 -4.954,-0.7804 -6.5985,-2.9099 -6.8394,-3.2059 -0.2411,-0.2962 -1.0912,-0.2062 0,-4.8092 1.1729,-4.9487 6.4011,-16.8076 14.4389,-28.8545 8.038,-12.0467 19.2741,-24.1544 31.1581,-33.6635 11.8839,-9.5091 24.3138,-16.251 36.4776,-16.8318 z"
     id="path3204"
     style="fill:#a000a0;fill-opacity:1;fill-rule:evenodd;stroke:none;stroke-width:1.7;stroke-linecap:butt;stroke-linejoin:miter;stroke-miterlimit:4;stroke-dasharray:none;stroke-opacity:1" />
  <path
     d="m 6322.0792,1893.8099 c -2.4925,7.8862 -3.2481,15.6537 -0.76,21.641 0.6605,1.5897 0.8153,0.4678 1.52,1.6028 -1.705,2.3372 -4.1342,5.1619 -10.6394,12.0227 -18.0159,19.0014 -29.6426,39.5002 -44.077,53.7013 -7.5043,7.3832 -16.228,12.657 -26.5985,16.8321 -5.1604,-15.1295 -18.6875,-24.6831 -33.438,-29.6563 -15.8863,-5.3558 -34.3831,-7.5167 -53.9564,-8.0149 -39.1463,-0.9966 -81.9914,4.0074 -101.8334,4.0074 -0.3491,0 -1.509,0 -1.52,0 -0.011,0 -2.2722,0.7991 -2.2796,0.8016 -0.01,0 -3.7956,1.5994 -3.7998,1.603 0,0 -3.7988,7.2087 -3.7999,7.2138 0,0 0,7.2073 0,7.2133 0,0.01 1.5148,4.0007 1.52,4.0078 0.01,0.01 1.162,1.2424 1.5199,1.6029 0.3578,0.3607 0.5137,0.5964 0.76,0.8015 1.9692,1.6413 2.4695,1.3092 3.0395,1.6033 1.1404,0.5877 2.3726,0.9949 3.7999,1.6028 2.8547,1.2155 6.2647,2.8738 11.3995,4.8092 10.2687,3.8705 24.7313,9.3004 41.037,14.4273 32.6117,10.2532 72.3569,20.0375 101.8335,20.0375 6.6162,0 10.8639,-2.3939 16.7188,-3.2059 2.7537,14.6536 6.3178,31.021 6.0799,38.4727 -0.3573,11.1777 -1.7806,13.1681 -6.0799,16.0301 -4.2988,2.8623 -14.5872,4.9179 -28.8779,7.2138 -14.2906,2.2958 -32.5672,5.3809 -54.7166,11.2211 -0.8985,0.237 -14.3237,1.9294 -30.3979,4.0074 -16.0746,2.0784 -36.4629,4.5848 -56.2364,7.2138 -19.7736,2.6289 -39.1092,5.357 -53.9565,8.0152 -7.4238,1.3291 -13.2827,2.6387 -18.2389,4.0075 -2.4781,0.6846 -4.6032,1.3774 -6.8395,2.4045 -1.1184,0.5135 -2.2899,1.228 -3.7998,2.4044 -1.5097,1.1768 -4.1534,3.096 -5.3196,8.0153 -8.0913,34.1351 -13.8891,61.3074 -3.7999,85.7619 10.0894,24.4545 34.4724,40.3486 75.9952,51.2968 4.8872,1.2887 16.6849,7.6789 27.3582,18.4348 10.6733,10.7563 21.3697,25.6576 28.8782,40.0757 7.5083,14.4183 11.4304,28.2944 10.6394,39.2741 -0.7912,10.98 -5.0405,19.4899 -18.239,26.45 -41.0529,21.6491 -57.1153,56.6373 -53.1965,90.5709 3.9189,33.9338 25.1919,65.4433 50.9168,91.3726 l 16.7189,-18.4347 c -23.0257,-23.2089 -40.4723,-51.5093 -43.3173,-76.144 -2.8448,-24.6342 5.5249,-46.5959 40.2774,-64.9224 19.3922,-10.2264 29.8208,-27.9308 31.1579,-46.4878 1.3373,-18.5571 -4.7437,-37.3447 -13.679,-54.5029 -8.9352,-17.1581 -20.9851,-33.1366 -33.4379,-45.6863 -12.4529,-12.5498 -24.9658,-21.4107 -37.9974,-24.8468 -38.6467,-10.1898 -53.4771,-22.0123 -59.2764,-36.0681 -5.3346,-12.9304 -1.9005,-35.1291 4.5599,-64.1212 3.6542,-0.9468 8.024,-2.0573 14.439,-3.206 14.1284,-2.5294 33.5616,-5.4046 53.1965,-8.0149 19.6351,-2.6107 40.0614,-5.1224 56.2366,-7.2137 16.1747,-2.0915 26.8376,-3.069 33.4376,-4.809 20.6763,-5.452 37.7404,-8.0591 52.4367,-10.4198 14.6962,-2.361 27.2945,-4.095 37.9977,-11.2212 10.7031,-7.126 16.9641,-20.7612 17.4788,-36.8698 0.3433,-10.7494 -3.8341,-27.6034 -6.8395,-43.2816 15.2916,-5.5342 28.0068,-13.4148 37.9975,-23.2439 17.6774,-17.3913 29.3624,-37.3801 44.8372,-53.7013 8.2855,-8.7387 13.5223,-13.989 16.7187,-19.2363 1.5985,-2.6237 2.5988,-5.5755 3.0399,-9.6182 0.4411,-4.0427 -0.6799,-8.8166 -2.2799,-11.2214 -3.1997,-4.809 -2.8586,-3.7967 -2.2797,-2.4043 0.5785,1.3926 -0.6811,1.3529 0.7599,-3.2059 z m -168.7093,93.777 c 18.3852,0.4682 35.9373,2.3869 47.8769,6.4122 8.3464,2.8138 10.196,6.7855 12.9193,10.4196 -3.174,0.2346 -4.8201,1.603 -8.3596,1.603 -21.1319,0 -54.8417,-8.0643 -84.3546,-16.8318 11.7898,-0.5138 20.3021,-1.8987 31.918,-1.603 z"
     id="path3206"
     style="fill:#a000a0;fill-opacity:1;fill-rule:evenodd;stroke:none;stroke-width:1.7;stroke-linecap:butt;stroke-linejoin:miter;stroke-miterlimit:4;stroke-dasharray:none;stroke-opacity:1" />
  <text
     xml:space="preserve"
     style="font-style:normal;font-weight:normal;line-height:0%;font-family:'Bitstream Vera Sans';fill:#ff0000;fill-opacity:1;stroke:none;stroke-width:1px;stroke-linecap:butt;stroke-linejoin:miter;stroke-opacity:1"
     x="4452.7505"
     y="1736.8259"
     id="text5103"><tspan
       style="font-size:946.635px;line-height:1.25"
       sodipodi:role="line"
       id="tspan5105"
       x="4452.7505"
       y="1736.8259">x</tspan></text>
</svg>
