<?xml version="1.0" encoding="UTF-8" standalone="no"?>
<!-- Created with Inkscape (http://www.inkscape.org/) -->
<svg
   xmlns:dc="http://purl.org/dc/elements/1.1/"
   xmlns:cc="http://web.resource.org/cc/"
   xmlns:rdf="http://www.w3.org/1999/02/22-rdf-syntax-ns#"
   xmlns:svg="http://www.w3.org/2000/svg"
   xmlns="http://www.w3.org/2000/svg"
   xmlns:sodipodi="http://sodipodi.sourceforge.net/DTD/sodipodi-0.dtd"
   xmlns:inkscape="http://www.inkscape.org/namespaces/inkscape"
   width="542.11908"
   height="189.52934"
   id="svg30831"
   sodipodi:version="0.32"
   inkscape:version="0.45.1"
   sodipodi:docbase="/home/guillom/laas/microtas07/poster"
   sodipodi:docname="principle1.svg"
   inkscape:output_extension="org.inkscape.output.svg.inkscape"
   version="1.0">
  <defs
     id="defs30833">
    <marker
       inkscape:stockid="Arrow1Mstart"
       orient="auto"
       refY="0"
       refX="0"
       id="Arrow1Mstart"
       style="overflow:visible">
      <path
         id="path34951"
         d="M 0,0 L 5,-5 L -12.5,0 L 5,5 L 0,0 z "
         style="fill-rule:evenodd;stroke:#000000;stroke-width:1pt;marker-start:none"
         transform="matrix(0.4,0,0,0.4,4,0)" />
    </marker>
    <marker
       inkscape:stockid="TriangleOutL"
       orient="auto"
       refY="0"
       refX="0"
       id="TriangleOutL"
       style="overflow:visible">
      <path
         id="path35043"
         d="M 5.77,0 L -2.88,5 L -2.88,-5 L 5.77,0 z "
         style="fill-rule:evenodd;stroke:#000000;stroke-width:1pt;marker-start:none"
         transform="scale(0.8,0.8)" />
    </marker>
    <marker
       inkscape:stockid="Arrow1Send"
       orient="auto"
       refY="0"
       refX="0"
       id="Arrow1Send"
       style="overflow:visible">
      <path
         id="path34960"
         d="M 0,0 L 5,-5 L -12.5,0 L 5,5 L 0,0 z "
         style="fill-rule:evenodd;stroke:#000000;stroke-width:1pt;marker-start:none"
         transform="matrix(-0.2,0,0,-0.2,-1.2,0)" />
    </marker>
    <marker
       inkscape:stockid="Arrow1Lstart"
       orient="auto"
       refY="0"
       refX="0"
       id="Arrow1Lstart"
       style="overflow:visible">
      <path
         id="path34945"
         d="M 0,0 L 5,-5 L -12.5,0 L 5,5 L 0,0 z "
         style="fill-rule:evenodd;stroke:#000000;stroke-width:1pt;marker-start:none"
         transform="matrix(0.8,0,0,0.8,10,0)" />
    </marker>
    <marker
       inkscape:stockid="Arrow1Lend"
       orient="auto"
       refY="0"
       refX="0"
       id="Arrow1Lend"
       style="overflow:visible">
      <path
         id="path34948"
         d="M 0,0 L 5,-5 L -12.5,0 L 5,5 L 0,0 z "
         style="fill-rule:evenodd;stroke:#000000;stroke-width:1pt;marker-start:none"
         transform="matrix(-0.8,0,0,-0.8,-10,0)" />
    </marker>
    <marker
       inkscape:stockid="Arrow1Mend"
       orient="auto"
       refY="0"
       refX="0"
       id="Arrow1Mend"
       style="overflow:visible">
      <path
         id="path34954"
         d="M 0,0 L 5,-5 L -12.5,0 L 5,5 L 0,0 z "
         style="fill-rule:evenodd;stroke:#000000;stroke-width:1pt;marker-start:none"
         transform="matrix(-0.4,0,0,-0.4,-4,0)" />
    </marker>
    <filter
       inkscape:collect="always"
       id="filter34903">
      <feGaussianBlur
         inkscape:collect="always"
         stdDeviation="0.5640873"
         id="feGaussianBlur34905" />
    </filter>
    <pattern
       patternUnits="userSpaceOnUse"
       width="137.86288"
       height="104.29675"
       patternTransform="translate(191.33523,608.78101)"
       id="pattern34913">
      <rect
         y="0.27250001"
         x="0.27250001"
         height="103.75175"
         width="137.31787"
         id="rect34907"
         style="opacity:1;fill:#000000;fill-opacity:1;stroke:#000000;stroke-width:0.54500002;stroke-miterlimit:4;stroke-dasharray:none;stroke-dashoffset:0;stroke-opacity:1" />
    </pattern>
    <desc
       id="desc70712">Drawing</desc>
    <desc
       id="desc9664">Drawing</desc>
  </defs>
  <sodipodi:namedview
     id="base"
     pagecolor="#ffffff"
     bordercolor="#666666"
     borderopacity="1.0"
     inkscape:pageopacity="0.0"
     inkscape:pageshadow="2"
     inkscape:zoom="1.9034935"
     inkscape:cx="324.61382"
     inkscape:cy="148.33594"
     inkscape:document-units="px"
     inkscape:current-layer="layer1"
     inkscape:window-width="1280"
     inkscape:window-height="696"
     inkscape:window-x="0"
     inkscape:window-y="23" />
  <metadata
     id="metadata30836">
    <rdf:RDF>
      <cc:Work
         rdf:about="">
        <dc:format>image/svg+xml</dc:format>
        <dc:type
           rdf:resource="http://purl.org/dc/dcmitype/StillImage" />
      </cc:Work>
    </rdf:RDF>
  </metadata>
  <g
     inkscape:label="Calque 1"
     inkscape:groupmode="layer"
     id="layer1"
     transform="translate(-57.06837,-409.61384)">
    <g
       id="g70716"
       style="fill:#000080;stroke:none;visibility:visible"
       transform="matrix(4.7230712e-2,0,0,4.7230712e-2,-424.87134,-279.60408)">
      <path
         id="path70718"
         d="M 15525,16599 L 15691,16354 L 15691,16476 L 16194,16476 L 16194,16354 L 16361,16599 L 16194,16844 L 16194,16721 L 15691,16721 L 15691,16844 L 15525,16599 z " />
    </g>
    <g
       id="g70720"
       style="fill:none;stroke:#000000;visibility:visible"
       transform="matrix(4.7230712e-2,0,0,4.7230712e-2,-424.87134,-279.60408)">
      <path
         id="path70722"
         d="M 15525,16599 L 15691,16354 L 15691,16476 L 16194,16476 L 16194,16354 L 16361,16599 L 16194,16844 L 16194,16721 L 15691,16721 L 15691,16844 L 15525,16599"
         style="fill:none" />
    </g>
    <g
       style="visibility:visible"
       id="g70724"
       transform="matrix(4.7230712e-2,0,0,4.7230712e-2,-424.87134,-279.60408)" />
    <rect
       style="opacity:0.5;fill:#ffffff;fill-opacity:1;stroke:#000000;stroke-width:0.5;stroke-miterlimit:4;stroke-dasharray:none;stroke-dashoffset:0;stroke-opacity:1;filter:url(#filter34903)"
       id="rect33928"
       width="137.36296"
       height="87.271957"
       x="63.001057"
       y="491.03308"
       transform="matrix(1.7555336,0,0,2.1605516,-53.045216,-650.80158)" />
    <g
       style="visibility:visible"
       id="g10670"
       transform="matrix(4.7230712e-2,0,0,4.7230712e-2,48.287526,-276.229)">
      <desc
         id="desc10672">Drawing</desc>
      <g
         id="g10674">
        <g
           style="fill:#000000;stroke:none"
           id="g10676">
          <path
             d="M 555,16430 L 4917,16430 L 4917,16493 L 555,16493 L 555,16430 z "
             id="path10678" />
        </g>
        <g
           id="g10680" />
      </g>
    </g>
    <rect
       style="fill:#f0f0f0;fill-opacity:1;stroke:none;stroke-width:0.5;stroke-miterlimit:4;stroke-dasharray:none;stroke-dashoffset:0;stroke-opacity:1"
       id="rect34926"
       width="203.57356"
       height="33.730312"
       x="75.577667"
       y="503.19394" />
    <rect
       style="fill:#0024d5;fill-opacity:1;stroke:none;stroke-width:0.54500002;stroke-miterlimit:4;stroke-dasharray:none;stroke-dashoffset:0;stroke-opacity:1"
       id="rect34936"
       width="52.680653"
       height="8.3983631"
       x="149.19574"
       y="501.37537" />
    <rect
       style="fill:#f32416;fill-opacity:1;stroke:none;stroke-width:0.54500002;stroke-miterlimit:4;stroke-dasharray:none;stroke-dashoffset:0;stroke-opacity:1"
       id="rect34938"
       width="52.680653"
       height="8.3983631"
       x="212.19923"
       y="501.90073" />
    <g
       id="g59840"
       transform="matrix(1.6122416,0,0,1.6122416,-34.414284,-373.56824)">
      <path
         style="fill:#000000;fill-opacity:1;fill-rule:evenodd;stroke:none;stroke-width:1px;stroke-linecap:butt;stroke-linejoin:miter;stroke-opacity:1"
         d="M 73.40625,501.8125 L 73.40625,502.8125 C 89.033617,502.8125 96.843158,502.8125 100.75,502.8125 C 102.70342,502.8125 103.66789,502.8125 104.15625,502.8125 C 104.40043,502.8125 104.53271,502.8125 104.59375,502.8125 C 104.62427,502.8125 104.64862,502.8125 104.65625,502.8125 L 104.65625,502.3125 L 104.65625,501.8125 C 104.65625,501.8125 104.66098,501.81251 73.40625,501.8125 z "
         id="path34940" />
      <path
         style="fill-rule:evenodd;stroke:#000000;stroke-width:0.8pt;marker-start:none"
         d="M 94.65601,502.32615 L 90.65601,506.32615 L 104.65601,502.32615 L 90.65601,498.32615 L 94.65601,502.32615 z "
         id="path59846" />
    </g>
    <g
       id="g59832"
       transform="matrix(1.6122416,0,0,1.6122416,-34.414284,-373.56824)">
      <path
         style="fill:#000000;fill-opacity:1;fill-rule:evenodd;stroke:none;stroke-width:1px;stroke-linecap:butt;stroke-linejoin:miter;stroke-opacity:1"
         d="M 154.375,501.8125 L 154.375,502.8125 C 170.00236,502.8125 177.81191,502.8125 181.71875,502.8125 C 183.67217,502.8125 184.66789,502.8125 185.15625,502.8125 C 185.40043,502.8125 185.50146,502.8125 185.5625,502.8125 C 185.59302,502.8125 185.61737,502.8125 185.625,502.8125 L 185.625,502.3125 L 185.625,501.8125 C 185.625,501.8125 185.62973,501.81251 154.375,501.8125 z "
         id="path35142" />
      <path
         style="fill-rule:evenodd;stroke:#000000;stroke-width:0.8pt;marker-start:none"
         d="M 175.6342,502.32615 L 171.6342,506.32615 L 185.6342,502.32615 L 171.6342,498.32615 L 175.6342,502.32615 z "
         id="path59838" />
    </g>
    <path
       style="font-size:19.34689903px;font-style:normal;font-weight:normal;line-height:125%;fill:#000000;fill-opacity:1;stroke:none;stroke-width:1px;stroke-linecap:butt;stroke-linejoin:miter;stroke-opacity:1;font-family:Bitstream Vera Sans"
       d="M 173.76598,449.89672 C 171.20906,449.89672 169.14968,448.65605 167.58782,446.17471 C 166.02596,443.68078 165.24503,440.39332 165.24504,436.31233 C 165.24503,432.23136 166.02596,428.9439 167.58782,426.44994 C 169.14968,423.95603 171.20906,422.70906 173.76598,422.70904 C 176.32289,422.70906 178.38227,423.95603 179.94414,426.44994 C 181.50599,428.9439 182.28691,432.23136 182.28693,436.31233 C 182.28691,440.39332 181.50599,443.68078 179.94414,446.17471 C 178.38227,448.65605 176.32289,449.89672 173.76598,449.89672 L 173.76598,449.89672 M 173.76598,446.28807 C 175.18928,446.28807 176.34178,445.3623 177.22349,443.51073 C 178.10517,441.65918 178.54601,439.25972 178.54603,436.31233 C 178.54601,433.35237 178.10517,430.9466 177.22349,429.09503 C 176.34178,427.24349 175.18928,426.31771 173.76598,426.31769 C 172.35526,426.31771 171.20276,427.24349 170.30848,429.09503 C 169.42678,430.9466 168.98593,433.35237 168.98594,436.31233 C 168.98593,439.25972 169.42678,441.65918 170.30848,443.51073 C 171.20276,445.3623 172.35526,446.28807 173.76598,446.28807 L 173.76598,446.28807"
       id="text35144" />
    <path
       style="font-size:29.0203495px;font-style:normal;font-variant:normal;font-weight:normal;font-stretch:normal;text-align:start;line-height:125%;writing-mode:lr-tb;text-anchor:start;fill:#000000;fill-opacity:1;stroke:none;stroke-width:1px;stroke-linecap:butt;stroke-linejoin:miter;stroke-opacity:1;font-family:Gill Sans"
       d="M 88.450604,568.13391 L 88.450604,550.8464 L 88.450604,550.8464 L 81.60645,550.8464 L 81.60645,550.8464 L 81.60645,549.59943 L 81.60645,548.33829 L 81.60645,548.33829 L 98.142948,548.33829 L 98.142948,548.33829 L 98.142948,549.58526 L 98.142948,550.8464 L 98.142948,550.8464 L 91.284623,550.8464 L 91.284623,550.8464 L 91.284623,568.13391 L 91.284623,568.13391 L 89.867614,568.13391 L 88.450604,568.13391 L 88.450604,568.13391 M 108.52963,561.44563 C 108.52962,558.93281 109.00668,556.49555 109.96081,554.13386 C 110.92437,551.76275 112.25163,549.7317 113.9426,548.04072 L 115.69969,548.04072 C 114.37714,549.36328 113.34273,551.21011 112.59644,553.58123 C 111.85959,555.94292 111.49117,558.56438 111.49118,561.44563 C 111.49117,564.33633 111.86432,566.96724 112.61061,569.33837 C 113.3569,571.70949 114.38659,573.5516 115.69969,574.86471 L 113.9426,574.86471 C 112.24218,573.16429 110.91492,571.12852 109.96081,568.7574 C 109.00668,566.38627 108.52962,563.94901 108.52963,561.44563 M 125.70378,567.63796 C 124.98582,568.16697 123.99863,568.43148 122.74223,568.43148 C 121.34411,568.43148 120.25301,568.04889 119.46894,567.28371 C 118.68485,566.51852 118.29282,565.45104 118.29282,564.08126 L 118.29282,557.478 L 118.29282,557.478 L 116.08228,557.478 L 116.08228,557.12375 L 120.8576,552.49013 L 120.87177,552.49013 L 120.87177,555.09743 L 120.87177,555.09743 L 124.8394,555.09743 L 124.8394,557.478 L 120.87177,557.478 L 120.87177,557.478 L 120.87177,563.72701 C 120.87177,564.47331 121.05126,565.03539 121.41024,565.41325 C 121.76921,565.79112 122.30767,565.98006 123.02563,565.98006 C 124.18757,565.97061 125.08028,565.7061 125.70378,565.18653 L 125.70378,567.63796 M 133.28478,561.4598 C 133.28477,563.97263 132.80771,566.40988 131.8536,568.77157 C 130.89947,571.14269 129.57693,573.17374 127.88597,574.86471 L 126.12888,574.86471 C 127.45142,573.54216 128.48111,571.69532 129.21796,569.3242 C 129.9548,566.96252 130.32322,564.34105 130.32323,561.4598 C 130.32322,558.56911 129.95008,555.9382 129.20379,553.56706 C 128.46694,551.19594 127.44197,549.35383 126.12888,548.04072 L 127.88597,548.04072 C 129.58638,549.74115 130.91364,551.77692 131.86777,554.14803 C 132.81243,556.50972 133.28477,558.94698 133.28478,561.4598"
       id="text35148" />
    <path
       style="font-size:19.34689903px;font-style:normal;font-variant:normal;font-weight:normal;font-stretch:normal;text-align:start;line-height:125%;writing-mode:lr-tb;text-anchor:start;fill:#000000;fill-opacity:1;stroke:none;stroke-width:1px;stroke-linecap:butt;stroke-linejoin:miter;stroke-opacity:1;font-family:Gill Sans"
       d="M 100.29119,578.5567 L 100.29119,565.16124 L 100.29119,565.16124 L 101.23587,565.16124 L 102.18054,565.16124 L 102.18054,565.16124 L 102.18054,578.5567 L 102.18054,578.5567 L 101.23587,578.5567 L 100.29119,578.5567 L 100.29119,578.5567"
       id="text35156" />
    <path
       style="font-size:29.0203495px;font-style:normal;font-variant:normal;font-weight:normal;font-stretch:normal;text-align:start;line-height:125%;writing-mode:lr-tb;text-anchor:start;fill:#000000;fill-opacity:1;stroke:none;stroke-width:1px;stroke-linecap:butt;stroke-linejoin:miter;stroke-opacity:1;font-family:Gill Sans"
       d="M 155.06752,568.13391 L 155.06752,550.8464 L 155.06752,550.8464 L 148.22337,550.8464 L 148.22337,550.8464 L 148.22337,549.59943 L 148.22337,548.33829 L 148.22337,548.33829 L 164.75987,548.33829 L 164.75987,548.33829 L 164.75987,549.58526 L 164.75987,550.8464 L 164.75987,550.8464 L 157.90154,550.8464 L 157.90154,550.8464 L 157.90154,568.13391 L 157.90154,568.13391 L 156.48453,568.13391 L 155.06752,568.13391 L 155.06752,568.13391 M 175.14655,561.44563 C 175.14654,558.93281 175.6236,556.49555 176.57773,554.13386 C 177.54129,551.76275 178.86855,549.7317 180.55952,548.04072 L 182.31661,548.04072 C 180.99406,549.36328 179.95965,551.21011 179.21336,553.58123 C 178.47651,555.94292 178.10809,558.56438 178.1081,561.44563 C 178.10809,564.33633 178.48124,566.96724 179.22753,569.33837 C 179.97382,571.70949 181.00351,573.5516 182.31661,574.86471 L 180.55952,574.86471 C 178.8591,573.16429 177.53184,571.12852 176.57773,568.7574 C 175.6236,566.38627 175.14654,563.94901 175.14655,561.44563 M 192.3207,567.63796 C 191.60274,568.16697 190.61555,568.43148 189.35915,568.43148 C 187.96103,568.43148 186.86993,568.04889 186.08586,567.28371 C 185.30177,566.51852 184.90974,565.45104 184.90974,564.08126 L 184.90974,557.478 L 184.90974,557.478 L 182.6992,557.478 L 182.6992,557.12375 L 187.47452,552.49013 L 187.48869,552.49013 L 187.48869,555.09743 L 187.48869,555.09743 L 191.45632,555.09743 L 191.45632,557.478 L 187.48869,557.478 L 187.48869,557.478 L 187.48869,563.72701 C 187.48869,564.47331 187.66818,565.03539 188.02716,565.41325 C 188.38613,565.79112 188.92459,565.98006 189.64255,565.98006 C 190.80449,565.97061 191.6972,565.7061 192.3207,565.18653 L 192.3207,567.63796 M 199.9017,561.4598 C 199.90169,563.97263 199.42463,566.40988 198.47052,568.77157 C 197.51639,571.14269 196.19385,573.17374 194.50289,574.86471 L 192.7458,574.86471 C 194.06834,573.54216 195.09803,571.69532 195.83488,569.3242 C 196.57172,566.96252 196.94014,564.34105 196.94015,561.4598 C 196.94014,558.56911 196.567,555.9382 195.82071,553.56706 C 195.08386,551.19594 194.05889,549.35383 192.7458,548.04072 L 194.50289,548.04072 C 196.2033,549.74115 197.53056,551.77692 198.48469,554.14803 C 199.42935,556.50972 199.90169,558.94698 199.9017,561.4598"
       id="text35160" />
    <path
       style="font-size:29.0203495px;font-style:normal;font-variant:normal;font-weight:normal;font-stretch:normal;text-align:start;line-height:125%;writing-mode:lr-tb;text-anchor:start;fill:#000000;fill-opacity:1;stroke:none;stroke-width:1px;stroke-linecap:butt;stroke-linejoin:miter;stroke-opacity:1;font-family:Gill Sans"
       d="M 221.68444,568.13391 L 221.68444,550.8464 L 221.68444,550.8464 L 214.84028,550.8464 L 214.84028,550.8464 L 214.84028,549.59943 L 214.84028,548.33829 L 214.84028,548.33829 L 231.37678,548.33829 L 231.37678,548.33829 L 231.37678,549.58526 L 231.37678,550.8464 L 231.37678,550.8464 L 224.51846,550.8464 L 224.51846,550.8464 L 224.51846,568.13391 L 224.51846,568.13391 L 223.10145,568.13391 L 221.68444,568.13391 L 221.68444,568.13391 M 241.76346,561.44563 C 241.76346,558.93281 242.24052,556.49555 243.19464,554.13386 C 244.1582,551.76275 245.48546,549.7317 247.17643,548.04072 L 248.93353,548.04072 C 247.61098,549.36328 246.57656,551.21011 245.83028,553.58123 C 245.09343,555.94292 244.725,558.56438 244.72501,561.44563 C 244.725,564.33633 245.09815,566.96724 245.84445,569.33837 C 246.59073,571.70949 247.62042,573.5516 248.93353,574.86471 L 247.17643,574.86471 C 245.47602,573.16429 244.14875,571.12852 243.19464,568.7574 C 242.24052,566.38627 241.76346,563.94901 241.76346,561.44563 M 258.93761,567.63796 C 258.21965,568.16697 257.23247,568.43148 255.97606,568.43148 C 254.57794,568.43148 253.48684,568.04889 252.70277,567.28371 C 251.91869,566.51852 251.52665,565.45104 251.52665,564.08126 L 251.52665,557.478 L 251.52665,557.478 L 249.31612,557.478 L 249.31612,557.12375 L 254.09144,552.49013 L 254.10561,552.49013 L 254.10561,555.09743 L 254.10561,555.09743 L 258.07323,555.09743 L 258.07323,557.478 L 254.10561,557.478 L 254.10561,557.478 L 254.10561,563.72701 C 254.1056,564.47331 254.28509,565.03539 254.64407,565.41325 C 255.00304,565.79112 255.5415,565.98006 256.25946,565.98006 C 257.4214,565.97061 258.31412,565.7061 258.93761,565.18653 L 258.93761,567.63796 M 266.51861,561.4598 C 266.5186,563.97263 266.04154,566.40988 265.08743,568.77157 C 264.13331,571.14269 262.81077,573.17374 261.1198,574.86471 L 259.36271,574.86471 C 260.68525,573.54216 261.71495,571.69532 262.45179,569.3242 C 263.18863,566.96252 263.55706,564.34105 263.55706,561.4598 C 263.55706,558.56911 263.18391,555.9382 262.43762,553.56706 C 261.70078,551.19594 260.67581,549.35383 259.36271,548.04072 L 261.1198,548.04072 C 262.82021,549.74115 264.14748,551.77692 265.1016,554.14803 C 266.04627,556.50972 266.5186,558.94698 266.51861,561.4598"
       id="text35164" />
    <path
       style="font-size:19.34689903px;font-style:normal;font-variant:normal;font-weight:normal;font-stretch:normal;text-align:start;line-height:125%;writing-mode:lr-tb;text-anchor:start;fill:#000000;fill-opacity:1;stroke:none;stroke-width:1px;stroke-linecap:butt;stroke-linejoin:miter;stroke-opacity:1;font-family:Gill Sans"
       d="M 169.8261,569.3178 C 169.82609,570.43882 169.34746,571.75192 168.3902,573.25709 C 167.7919,574.20806 166.91021,575.37631 165.74511,576.76182 L 165.74511,576.76182 L 170.74243,576.76182 L 170.74243,578.5567 L 162.39153,578.5567 L 162.39153,578.47168 L 162.39153,578.37721 C 164.1927,576.3997 165.56247,574.67095 166.50085,573.19096 C 167.43922,571.71098 167.90841,570.53644 167.90842,569.66733 C 167.90841,568.80454 167.70058,568.14012 167.28493,567.67407 C 166.87557,567.20175 166.28987,566.96558 165.52784,566.96557 C 165.03661,566.96558 164.55168,567.11043 164.07304,567.40012 C 163.59441,567.68353 163.11577,568.11493 162.63714,568.69432 L 162.63714,566.41766 C 163.19135,565.97682 163.72036,565.65878 164.22419,565.46354 C 164.73431,565.26202 165.28222,565.16125 165.86792,565.16124 C 167.0582,565.16125 168.01547,565.54227 168.73973,566.3043 C 169.46397,567.06634 169.82609,568.07084 169.8261,569.3178"
       id="text35168" />
    <path
       style="font-size:19.34689903px;font-style:normal;font-variant:normal;font-weight:normal;font-stretch:normal;text-align:start;line-height:125%;writing-mode:lr-tb;text-anchor:start;fill:#000000;fill-opacity:1;stroke:none;stroke-width:1px;stroke-linecap:butt;stroke-linejoin:miter;stroke-opacity:1;font-family:Gill Sans"
       d="M 235.83741,568.82186 C 235.8374,568.24247 235.62642,567.77328 235.20448,567.41429 C 234.78252,567.04903 234.23461,566.8664 233.56075,566.86638 C 233.14509,566.8664 232.76722,566.91678 232.42714,567.01753 C 232.08705,567.11201 231.71233,567.27575 231.30298,567.50876 L 231.30298,565.60997 C 231.78161,565.40215 232.20671,565.26045 232.57829,565.18487 C 232.94985,565.10301 233.37496,565.06207 233.85359,565.06206 C 235.01239,565.06207 235.94446,565.37381 236.64983,565.99729 C 237.35517,566.61448 237.70785,567.4332 237.70786,568.45343 C 237.70785,569.46739 237.41185,570.28611 236.81987,570.90958 C 236.63093,571.11112 236.41365,571.28116 236.16804,571.41971 L 236.16804,571.41971 C 236.46403,571.57716 236.72854,571.76924 236.96157,571.99596 C 237.59764,572.62575 237.91568,573.45391 237.91569,574.48045 C 237.91568,575.73372 237.53151,576.74451 236.76319,577.51285 C 235.99485,578.27488 234.98405,578.6559 233.73079,578.6559 C 233.22696,578.6559 232.76722,578.59922 232.35156,578.48586 C 231.93591,578.3788 231.46987,578.18671 230.95345,577.90961 L 230.95345,575.85967 C 231.45727,576.18716 231.92961,576.42333 232.37046,576.56817 C 232.8176,576.70673 233.31198,576.776 233.85359,576.776 C 234.50226,576.776 235.02813,576.58077 235.4312,576.1903 C 235.84055,575.79984 236.04523,575.29287 236.04523,574.66938 C 236.04523,574.0459 235.80906,573.53893 235.33673,573.14846 C 234.86439,572.7517 234.25035,572.55332 233.49462,572.55331 L 233.249,572.55331 L 233.249,570.75844 L 233.56075,570.75844 C 234.23461,570.75844 234.78252,570.57896 235.20448,570.21997 C 235.62642,569.86101 235.8374,569.39497 235.83741,568.82186"
       id="text35172" />
    <g
       id="g59864"
       transform="matrix(1.6122416,0,0,1.6122416,-34.939634,-369.43128)">
      <path
         style="fill:#000000;fill-opacity:1;fill-rule:evenodd;stroke:none;stroke-width:0.77889967px;stroke-linecap:butt;stroke-linejoin:miter;stroke-opacity:1"
         d="M 88.1875,549.78125 C 88.1875,549.78125 88.17633,549.79854 88.15625,568.28125 L 88.9375,568.28125 C 88.94754,559.0399 88.93499,554.40409 88.9375,552.09375 C 88.938755,550.93858 88.968436,550.38254 88.96875,550.09375 C 88.968907,549.94935 88.968711,549.87985 88.96875,549.84375 C 88.96877,549.8257 88.968745,549.81701 88.96875,549.8125 C 88.96875,549.8125 88.5625,549.78125 88.5625,549.78125 L 88.1875,549.78125 z "
         id="path35180" />
      <path
         style="fill-rule:evenodd;stroke:#000000;stroke-width:0.62311974pt;marker-start:none"
         d="M 88.569031,546.20131 L 91.678771,551.59468 L 85.447577,551.58791 L 88.569031,546.20131 z "
         id="path59870" />
    </g>
    <g
       id="g59856"
       transform="matrix(1.6122416,0,0,1.6122416,-34.939634,-369.43128)">
      <path
         style="fill:#000000;fill-opacity:1;fill-rule:evenodd;stroke:none;stroke-width:0.77889967px;stroke-linecap:butt;stroke-linejoin:miter;stroke-opacity:1"
         d="M 129.375,549.78125 C 129.375,549.78125 129.36383,549.79854 129.34375,568.28125 L 130.125,568.28125 C 130.13504,559.0399 130.15374,554.40409 130.15625,552.09375 C 130.1575,550.93858 130.15594,550.38254 130.15625,550.09375 C 130.15641,549.94935 130.15621,549.87985 130.15625,549.84375 C 130.15627,549.8257 130.15625,549.81701 130.15625,549.8125 C 130.15625,549.8125 129.75,549.78125 129.75,549.78125 L 129.375,549.78125 z "
         id="path36580" />
      <path
         style="fill-rule:evenodd;stroke:#000000;stroke-width:0.62311974pt;marker-start:none"
         d="M 129.76442,546.20131 L 132.87416,551.59468 L 126.64296,551.58791 L 129.76442,546.20131 z "
         id="path59862" />
    </g>
    <g
       id="g59848"
       transform="matrix(1.6122416,0,0,1.6122416,-34.939634,-369.43128)">
      <path
         style="fill:#000000;fill-opacity:1;fill-rule:evenodd;stroke:none;stroke-width:0.77889967px;stroke-linecap:butt;stroke-linejoin:miter;stroke-opacity:1"
         d="M 170.5625,549.78125 C 170.5625,549.78125 170.55132,549.79854 170.53125,568.28125 L 171.3125,568.28125 C 171.32254,559.0399 171.34124,554.40409 171.34375,552.09375 C 171.345,550.93858 171.34344,550.38254 171.34375,550.09375 C 171.34391,549.94935 171.34371,549.87985 171.34375,549.84375 C 171.34377,549.8257 171.34375,549.81701 171.34375,549.8125 C 171.34375,549.8125 170.96875,549.78125 170.96875,549.78125 L 170.5625,549.78125 z "
         id="path36582" />
      <path
         style="fill-rule:evenodd;stroke:#000000;stroke-width:0.62311974pt;marker-start:none"
         d="M 170.95979,546.20131 L 174.06953,551.59468 L 167.83833,551.58791 L 170.95979,546.20131 z "
         id="path59854" />
    </g>
    <path
       style="fill:none;fill-rule:evenodd;stroke:#00a000;stroke-width:1.61224163px;stroke-linecap:butt;stroke-linejoin:miter;stroke-opacity:1"
       d="M 223.64694,494.96332 C 226.33071,491.14616 231.88152,491.57535 238.04579,491.57535 C 242.11375,491.57535 239.12227,485.64641 234.65783,485.64641 C 227.57146,485.64641 226.08243,488.87462 223.64694,494.96332 C 220.64806,502.46051 213.48305,493.33423 213.48305,489.88137 C 213.48305,485.33711 220.76924,487.17203 222.79995,488.18739 C 228.01897,490.7969 222.50201,495.10642 230.42287,494.11633 C 235.68512,493.45853 235.28428,497.09836 238.04579,491.57535 C 240.7224,486.22211 232.31722,485.64641 229.57588,485.64641 C 223.66394,485.64641 223.52224,486.37736 220.25898,490.72836 C 219.13051,492.23297 208.9546,494.11633 216.87101,494.11633 C 224.2115,494.11633 226.41247,490.61608 232.96385,487.3404"
       id="path79229" />
    <path
       style="fill:#a000a0;fill-opacity:1;fill-rule:evenodd;stroke:none;stroke-width:1px;stroke-linecap:butt;stroke-linejoin:miter;stroke-opacity:1"
       d="M 181.09994,455.90921 C 180.9347,456.40493 180.88462,456.89318 181.04956,457.26954 C 181.09336,457.36947 181.10361,457.29896 181.15032,457.37031 C 181.0373,457.51721 180.87624,457.69479 180.44497,458.12604 C 179.25055,459.32046 178.47976,460.60899 177.52278,461.50168 C 177.02527,461.96576 176.44693,462.29727 175.75939,462.55971 C 175.41729,461.6087 174.52048,461.00815 173.54256,460.69555 C 172.48933,460.35889 171.26306,460.22306 169.96539,460.19173 C 167.37011,460.12908 164.52961,460.44364 163.21413,460.44364 C 163.191,460.44364 163.11409,460.44356 163.11337,460.44364 C 163.11266,460.44372 162.96274,460.49386 162.96222,460.49402 C 162.96172,460.49419 162.71061,460.59456 162.71031,460.59479 C 162.71002,460.59502 162.45848,461.04793 162.45839,461.04823 C 162.45833,461.04854 162.45827,461.50129 162.45839,461.50168 C 162.45854,461.50206 162.55882,461.75314 162.55916,461.75359 C 162.55951,461.75404 162.63621,461.83169 162.65993,461.85435 C 162.68366,461.87702 162.69399,461.89184 162.71031,461.90474 C 162.84088,462.0079 162.87405,461.98702 162.91184,462.0055 C 162.98744,462.04245 163.06913,462.06806 163.16375,462.10627 C 163.35303,462.18267 163.5791,462.2869 163.91949,462.40856 C 164.60029,462.65187 165.55914,462.99319 166.64015,463.31545 C 168.80219,463.95996 171.43719,464.57501 173.39141,464.57501 C 173.83003,464.57501 174.11164,464.42451 174.49982,464.37348 C 174.68238,465.2946 174.91867,466.32344 174.90288,466.79184 C 174.87922,467.49446 174.78484,467.61958 174.49982,467.79949 C 174.21483,467.9794 173.53272,468.10863 172.58529,468.25294 C 171.63787,468.39725 170.42619,468.59119 168.95774,468.95829 C 168.89817,468.97319 168.00813,469.07957 166.94244,469.21021 C 165.87677,469.34085 164.52506,469.49839 163.21413,469.66365 C 161.90322,469.8289 160.62133,470.00038 159.63697,470.16747 C 159.1448,470.25102 158.75638,470.33334 158.42779,470.41939 C 158.2635,470.46242 158.12263,470.50598 157.97435,470.57053 C 157.90022,470.60281 157.82254,470.64771 157.72244,470.72168 C 157.62235,470.79565 157.44708,470.91628 157.36976,471.22551 C 156.83335,473.37121 156.44896,475.07925 157.11784,476.61644 C 157.78675,478.15363 159.40326,479.15272 162.1561,479.84092 C 162.4801,479.92192 163.26227,480.3236 163.96987,480.99972 C 164.67748,481.67585 165.38663,482.61253 165.88441,483.51885 C 166.3822,484.42517 166.64223,485.29741 166.58976,485.9876 C 166.53732,486.67778 166.25561,487.21271 165.38058,487.65022 C 162.65889,489.01106 161.59401,491.2104 161.8538,493.34345 C 162.11362,495.47649 163.52397,497.45716 165.22944,499.08706 L 166.33785,497.92826 C 164.81132,496.46936 163.65466,494.69043 163.46605,493.14192 C 163.27745,491.59341 163.83235,490.21293 166.13632,489.06093 C 167.42197,488.4181 168.11335,487.30523 168.20201,486.13874 C 168.29068,484.97225 167.88751,483.79129 167.29512,482.71273 C 166.70275,481.63417 165.90388,480.62979 165.07829,479.84092 C 164.25271,479.05205 163.42313,478.49506 162.55916,478.27907 C 159.99702,477.63854 159.01379,476.89539 158.62932,476.01185 C 158.27564,475.19905 158.50332,473.80368 158.93162,471.98125 C 159.17389,471.92172 159.46361,471.85191 159.88888,471.77972 C 160.82556,471.62072 162.11392,471.43998 163.41566,471.27589 C 164.71742,471.1118 166.07162,470.95391 167.14397,470.82245 C 168.21634,470.69099 168.92326,470.62954 169.3608,470.52015 C 170.7316,470.17745 171.86289,470.01359 172.8372,469.86518 C 173.81153,469.71677 174.64675,469.60777 175.35633,469.15982 C 176.06592,468.71188 176.48101,467.85479 176.51513,466.84223 C 176.53791,466.16652 176.26094,465.10708 176.06168,464.12157 C 177.07548,463.77369 177.91847,463.27832 178.58081,462.66047 C 179.75277,461.56726 180.52746,460.31078 181.55338,459.28484 C 182.10269,458.73554 182.44988,458.40551 182.6618,458.07566 C 182.76775,457.91075 182.83408,457.72519 182.86333,457.47107 C 182.89259,457.21695 182.81825,456.91686 182.71218,456.76572 C 182.50006,456.4634 182.52268,456.52704 182.56103,456.61457 C 182.5994,456.7021 182.51591,456.69961 182.61141,456.41304 L 181.09994,455.90921 z M 169.91501,461.80397 C 171.1339,461.83339 172.29755,461.95401 173.08911,462.20703 C 173.64245,462.38391 173.76508,462.63357 173.94562,462.862 C 173.7352,462.87676 173.62607,462.96277 173.39141,462.96277 C 171.99042,462.96277 169.75556,462.45585 167.79895,461.90474 C 168.58058,461.87243 169.14491,461.78538 169.91501,461.80397 z "
       id="path88623" />
    <path
       style="fill:#a000a0;fill-opacity:1;fill-rule:evenodd;stroke:none;stroke-width:1px;stroke-linecap:butt;stroke-linejoin:miter;stroke-opacity:1"
       d="M 192.13372,460.89709 C 191.47839,462.20774 191.169,463.17857 190.77339,464.0208 C 190.71062,464.15446 190.5389,464.2939 190.47109,464.42386 C 190.04511,464.06712 189.48645,463.4896 189.21153,463.21468 C 188.04891,462.05206 186.73409,461.54582 185.48322,461.60244 C 184.23236,461.65906 183.06849,462.23376 182.10759,462.96277 C 181.14671,463.69178 180.35305,464.61017 179.73961,465.4819 C 179.12617,466.35362 178.70263,467.1611 178.53043,467.84988 C 178.37691,468.464 178.44242,469.10773 178.83272,469.56288 C 179.22305,470.01804 179.80218,470.18727 180.3442,470.26824 C 181.42826,470.43017 182.68166,470.22581 184.02213,469.91556 C 185.36261,469.60532 186.726,469.20298 187.80082,468.80715 C 188.33824,468.60923 188.802,468.41327 189.16115,468.25294 C 189.34073,468.17276 189.53378,468.07108 189.66497,468.00102 C 189.79618,467.93097 189.88293,467.93423 190.06803,467.74911 C 190.40559,467.41156 190.46896,467.15523 190.72301,466.84223 C 191.03112,467.13112 191.35696,467.33235 191.62989,467.64835 C 192.72094,468.91154 193.39578,470.25823 192.93984,472.08201 C 192.4868,473.89419 192.00617,474.81394 191.83142,475.0042 C 191.80345,474.99232 191.74783,474.97658 191.57951,474.85305 C 190.74598,474.24125 189.0928,472.17828 186.28934,471.47742 C 185.07062,471.17274 182.30017,470.51158 179.63884,470.369 C 178.3082,470.29773 176.97581,470.34152 175.86015,470.6713 C 174.7445,471.00108 173.73599,471.76172 173.44179,472.93851 C 173.07673,474.3988 172.39113,476.97805 172.48452,479.3371 C 172.53123,480.51661 172.76049,481.64051 173.44179,482.56158 C 174.12309,483.48266 175.29611,484.07306 176.76704,484.07306 C 178.63387,484.07306 181.2847,483.88618 182.86333,484.32497 C 183.65265,484.54436 184.05073,484.83162 184.22366,485.28224 C 184.3966,485.73286 184.37716,486.58751 183.66945,488.0029 C 182.73736,489.86707 183.24364,491.96403 183.5183,493.79689 C 183.65565,494.71332 183.73184,495.56105 183.66945,496.26564 C 183.60707,496.97022 183.41104,497.48131 182.96409,497.92826 L 184.12289,499.08706 C 184.87794,498.33201 185.19747,497.36818 185.28169,496.41678 C 185.36593,495.46538 185.22163,494.48893 185.08016,493.54498 C 184.79724,491.65708 184.54224,489.88487 185.13054,488.70825 C 185.94232,487.08471 186.14654,485.80008 185.73513,484.72803 C 185.32372,483.65599 184.31464,483.05448 183.26639,482.76311 C 181.16993,482.18038 178.48456,482.46082 176.76704,482.46082 C 175.6755,482.46082 175.14171,482.13152 174.75174,481.60431 C 174.36178,481.07711 174.13618,480.23181 174.09676,479.23633 C 174.01794,477.24538 174.63678,474.75869 175.00365,473.29119 C 175.13313,472.77329 175.50059,472.47348 176.3136,472.23316 C 177.12662,471.99284 178.30949,471.91543 179.53808,471.98125 C 181.99528,472.11289 184.71065,472.74537 185.88628,473.03928 C 188.10806,473.59473 189.36314,475.23884 190.62224,476.163 C 190.93703,476.39403 191.26427,476.62334 191.73066,476.66682 C 192.19705,476.71031 192.7192,476.46252 193.0406,476.11262 C 193.68339,475.41281 194.02973,474.32258 194.5017,472.43469 C 195.10256,470.03126 194.112,468.06408 192.83907,466.59031 C 192.42718,466.11343 192.1198,465.88243 191.68027,465.4819 C 191.81935,465.23727 192.12101,464.96774 192.23448,464.72616 C 192.68483,463.76739 192.98837,462.81533 193.59481,461.60244 L 192.13372,460.89709 z M 185.5336,463.21468 C 186.34003,463.17818 187.14351,463.46424 188.05273,464.37348 C 188.45795,464.77869 189.00168,465.30191 189.51382,465.73381 C 189.28358,466.02148 189.24215,466.2574 188.90923,466.59031 C 188.82996,466.63263 188.6625,466.72207 188.50617,466.79184 C 188.19356,466.93142 187.75667,467.10783 187.24661,467.29567 C 186.22651,467.67135 184.91882,468.06453 183.66945,468.3537 C 182.42009,468.64287 181.20264,468.8045 180.54573,468.70638 C 180.21728,468.65732 180.10826,468.52347 180.09229,468.50485 C 180.07633,468.48623 180.01996,468.49189 180.09229,468.20255 C 180.17006,467.89149 180.51668,467.14604 181.04956,466.38878 C 181.58245,465.63153 182.32737,464.87045 183.11524,464.27272 C 183.90313,463.67498 184.72719,463.25118 185.5336,463.21468 z "
       id="path88625" />
    <path
       style="fill:none;fill-rule:evenodd;stroke:#00a000;stroke-width:1.61224163px;stroke-linecap:butt;stroke-linejoin:miter;stroke-opacity:1"
       d="M 248.51929,494.79501 C 251.20307,490.97785 256.75386,491.40705 262.91813,491.40705 C 266.98609,491.40705 263.99461,485.47811 259.53017,485.47811 C 252.4438,485.47811 250.95477,488.70632 248.51929,494.79501 C 245.5204,502.29221 238.35539,493.16592 238.35539,489.71307 C 238.35539,485.16882 245.64158,487.00373 247.67229,488.01909 C 252.89131,490.6286 247.37435,494.93813 255.29521,493.94802 C 260.55746,493.29024 260.15662,496.93006 262.91813,491.40705 C 265.59475,486.05381 257.18957,485.47811 254.44822,485.47811 C 248.53628,485.47811 248.39458,486.20905 245.13132,490.56006 C 244.00286,492.06468 233.82694,493.94802 241.74336,493.94802 C 249.08386,493.94802 251.28481,490.44778 257.83619,487.17209"
       id="path88635" />
    <rect
       style="opacity:0.5;fill:#ffffff;fill-opacity:1;stroke:#000000;stroke-width:0.5;stroke-miterlimit:4;stroke-dasharray:none;stroke-dashoffset:0;stroke-opacity:1;filter:url(#filter34903)"
       id="rect36588"
       width="137.36296"
       height="87.271957"
       x="63.001057"
       y="491.03308"
       transform="matrix(1.7555336,0,0,2.1605516,246.95478,-650.80158)" />
    <g
       style="visibility:visible"
       id="g36590"
       transform="matrix(4.7230712e-2,0,0,4.7230712e-2,350.73021,-270.73292)">
      <desc
         id="desc36592">Drawing</desc>
      <g
         id="g36594">
        <g
           style="fill:#000000;stroke:none"
           id="g36596">
          <path
             d="M 555,16430 L 4917,16430 L 4917,16493 L 555,16493 L 555,16430 z "
             id="path36598" />
        </g>
        <g
           id="g36600" />
      </g>
    </g>
    <rect
       style="fill:#f0f0f0;fill-opacity:1;stroke:none;stroke-width:0.5;stroke-miterlimit:4;stroke-dasharray:none;stroke-dashoffset:0;stroke-opacity:1"
       id="rect36602"
       width="203.57356"
       height="33.730312"
       x="378.02039"
       y="508.68997" />
    <rect
       style="fill:#0024d5;fill-opacity:1;stroke:none;stroke-width:0.54500002;stroke-miterlimit:4;stroke-dasharray:none;stroke-dashoffset:0;stroke-opacity:1"
       id="rect41216"
       width="52.680653"
       height="8.3983631"
       x="450.63782"
       y="507.41437" />
    <rect
       style="fill:#f32416;fill-opacity:1;stroke:none;stroke-width:0.54500002;stroke-miterlimit:4;stroke-dasharray:none;stroke-dashoffset:0;stroke-opacity:1"
       id="rect41218"
       width="52.680653"
       height="8.3983631"
       x="516.50201"
       y="507.41437" />
    <g
       id="g57161"
       transform="matrix(1.6122416,0,0,1.6122416,-7.2980416,-365.27474)">
      <path
         style="fill:#000000;fill-opacity:1;fill-rule:evenodd;stroke:none;stroke-width:1px;stroke-linecap:butt;stroke-linejoin:miter;stroke-opacity:1"
         d="M 285.8125,491.5625 L 285.8125,492.5625 C 301.43988,492.5625 309.24941,492.5625 313.15625,492.5625 C 315.10967,492.5625 316.07414,492.5625 316.5625,492.5625 C 316.80668,492.5625 316.93896,492.5625 317,492.5625 C 317.03052,492.5625 317.05487,492.5625 317.0625,492.5625 L 317.0625,492.0625 L 317.0625,491.5625 C 317.0625,491.5625 317.06725,491.5625 285.8125,491.5625 z "
         id="path41220" />
      <path
         style="fill-rule:evenodd;stroke:#000000;stroke-width:0.8pt;marker-start:none"
         d="M 307.05599,492.06195 L 303.05599,496.06195 L 317.05599,492.06195 L 303.05599,488.06195 L 307.05599,492.06195 z "
         id="path57167" />
    </g>
    <g
       id="g57153"
       transform="matrix(1.6122416,0,0,1.6122416,-7.2980416,-365.27474)">
      <path
         style="fill:#000000;fill-opacity:1;fill-rule:evenodd;stroke:none;stroke-width:0.81807864px;stroke-linecap:butt;stroke-linejoin:miter;stroke-opacity:1"
         d="M 285.71875,502.3125 L 285.71875,503.125 C 295.94486,503.125 301.03722,503.125 303.59375,503.125 C 304.87201,503.125 305.52418,503.125 305.84375,503.125 C 306.00353,503.125 306.08505,503.125 306.125,503.125 C 306.14497,503.125 306.15126,503.125 306.15625,503.125 L 306.15625,502.71875 L 306.15625,502.3125 C 306.15625,502.3125 306.17096,502.31251 285.71875,502.3125 z "
         id="path41222" />
      <path
         style="fill-rule:evenodd;stroke:#000000;stroke-width:0.65446291pt;marker-start:none"
         d="M 297.98172,502.72611 L 294.70941,505.99842 L 306.16251,502.72611 L 294.70941,499.4538 L 297.98172,502.72611 z "
         id="path57159" />
    </g>
    <path
       style="font-size:29.0203495px;font-style:normal;font-variant:normal;font-weight:normal;font-stretch:normal;text-align:start;line-height:125%;writing-mode:lr-tb;text-anchor:start;fill:#000000;fill-opacity:1;stroke:none;stroke-width:1px;stroke-linecap:butt;stroke-linejoin:miter;stroke-opacity:1;font-family:Gill Sans"
       d="M 390.89333,573.62994 L 390.89333,556.34243 L 390.89333,556.34243 L 384.04918,556.34243 L 384.04918,556.34243 L 384.04918,555.09546 L 384.04918,553.83432 L 384.04918,553.83432 L 400.58567,553.83432 L 400.58567,553.83432 L 400.58567,555.08129 L 400.58567,556.34243 L 400.58567,556.34243 L 393.72735,556.34243 L 393.72735,556.34243 L 393.72735,573.62994 L 393.72735,573.62994 L 392.31034,573.62994 L 390.89333,573.62994 L 390.89333,573.62994 M 410.97235,566.94166 C 410.97235,564.42884 411.44941,561.99159 412.40353,559.62989 C 413.36709,557.25878 414.69436,555.22774 416.38533,553.53675 L 418.14242,553.53675 C 416.81987,554.85931 415.78545,556.70615 415.03917,559.07726 C 414.30232,561.43895 413.9339,564.06042 413.9339,566.94166 C 413.9339,569.83236 414.30704,572.46327 415.05334,574.8344 C 415.79962,577.20553 416.82932,579.04764 418.14242,580.36074 L 416.38533,580.36074 C 414.68491,578.66032 413.35765,576.62455 412.40353,574.25343 C 411.44941,571.8823 410.97235,569.44505 410.97235,566.94166 M 428.1465,573.13399 C 427.42854,573.66301 426.44136,573.92752 425.18495,573.92752 C 423.78683,573.92752 422.69574,573.54492 421.91166,572.77974 C 421.12758,572.01455 420.73554,570.94708 420.73554,569.5773 L 420.73554,562.97403 L 420.73554,562.97403 L 418.52501,562.97403 L 418.52501,562.61978 L 423.30033,557.98616 L 423.3145,557.98616 L 423.3145,560.59346 L 423.3145,560.59346 L 427.28213,560.59346 L 427.28213,562.97403 L 423.3145,562.97403 L 423.3145,562.97403 L 423.3145,569.22305 C 423.3145,569.96934 423.49398,570.53142 423.85296,570.90929 C 424.21193,571.28716 424.7504,571.47609 425.46835,571.47609 C 426.63029,571.46665 427.52301,571.20214 428.1465,570.68256 L 428.1465,573.13399 M 435.7275,566.95583 C 435.7275,569.46866 435.25044,571.90592 434.29632,574.2676 C 433.3422,576.63872 432.01966,578.66977 430.3287,580.36074 L 428.57161,580.36074 C 429.89415,579.03819 430.92384,577.19136 431.66069,574.82023 C 432.39753,572.45855 432.76595,569.83709 432.76595,566.95583 C 432.76595,564.06514 432.3928,561.43423 431.64652,559.06309 C 430.90967,556.69198 429.8847,554.84987 428.57161,553.53675 L 430.3287,553.53675 C 432.0291,555.23718 433.35637,557.27295 434.31049,559.64406 C 435.25516,562.00576 435.7275,564.44301 435.7275,566.95583"
       id="text41228" />
    <path
       style="font-size:19.34689903px;font-style:normal;font-variant:normal;font-weight:normal;font-stretch:normal;text-align:start;line-height:125%;writing-mode:lr-tb;text-anchor:start;fill:#000000;fill-opacity:1;stroke:none;stroke-width:1px;stroke-linecap:butt;stroke-linejoin:miter;stroke-opacity:1;font-family:Gill Sans"
       d="M 402.73391,584.05273 L 402.73391,570.65727 L 402.73391,570.65727 L 403.67859,570.65727 L 404.62326,570.65727 L 404.62326,570.65727 L 404.62326,584.05273 L 404.62326,584.05273 L 403.67859,584.05273 L 402.73391,584.05273 L 402.73391,584.05273"
       id="text41232" />
    <path
       style="font-size:29.0203495px;font-style:normal;font-variant:normal;font-weight:normal;font-stretch:normal;text-align:start;line-height:125%;writing-mode:lr-tb;text-anchor:start;fill:#000000;fill-opacity:1;stroke:none;stroke-width:1px;stroke-linecap:butt;stroke-linejoin:miter;stroke-opacity:1;font-family:Gill Sans"
       d="M 457.51021,573.62994 L 457.51021,556.34243 L 457.51021,556.34243 L 450.66606,556.34243 L 450.66606,556.34243 L 450.66606,555.09546 L 450.66606,553.83432 L 450.66606,553.83432 L 467.20256,553.83432 L 467.20256,553.83432 L 467.20256,555.08129 L 467.20256,556.34243 L 467.20256,556.34243 L 460.34423,556.34243 L 460.34423,556.34243 L 460.34423,573.62994 L 460.34423,573.62994 L 458.92722,573.62994 L 457.51021,573.62994 L 457.51021,573.62994 M 477.58923,566.94166 C 477.58923,564.42884 478.06629,561.99159 479.02041,559.62989 C 479.98398,557.25878 481.31124,555.22774 483.00221,553.53675 L 484.7593,553.53675 C 483.43675,554.85931 482.40234,556.70615 481.65605,559.07726 C 480.9192,561.43895 480.55078,564.06042 480.55078,566.94166 C 480.55078,569.83236 480.92392,572.46327 481.67022,574.8344 C 482.41651,577.20553 483.4462,579.04764 484.7593,580.36074 L 483.00221,580.36074 C 481.30179,578.66032 479.97453,576.62455 479.02041,574.25343 C 478.06629,571.8823 477.58923,569.44505 477.58923,566.94166 M 494.76338,573.13399 C 494.04542,573.66301 493.05824,573.92752 491.80183,573.92752 C 490.40371,573.92752 489.31262,573.54492 488.52854,572.77974 C 487.74446,572.01455 487.35242,570.94708 487.35243,569.5773 L 487.35243,562.97403 L 487.35243,562.97403 L 485.14189,562.97403 L 485.14189,562.61978 L 489.91721,557.98616 L 489.93138,557.98616 L 489.93138,560.59346 L 489.93138,560.59346 L 493.89901,560.59346 L 493.89901,562.97403 L 489.93138,562.97403 L 489.93138,562.97403 L 489.93138,569.22305 C 489.93138,569.96934 490.11087,570.53142 490.46985,570.90929 C 490.82882,571.28716 491.36728,571.47609 492.08524,571.47609 C 493.24718,571.46665 494.13989,571.20214 494.76338,570.68256 L 494.76338,573.13399 M 502.34439,566.95583 C 502.34438,569.46866 501.86732,571.90592 500.91321,574.2676 C 499.95908,576.63872 498.63654,578.66977 496.94558,580.36074 L 495.18849,580.36074 C 496.51103,579.03819 497.54072,577.19136 498.27757,574.82023 C 499.01441,572.45855 499.38283,569.83709 499.38284,566.95583 C 499.38283,564.06514 499.00969,561.43423 498.2634,559.06309 C 497.52655,556.69198 496.50158,554.84987 495.18849,553.53675 L 496.94558,553.53675 C 498.64599,555.23718 499.97325,557.27295 500.92738,559.64406 C 501.87204,562.00576 502.34438,564.44301 502.34439,566.95583"
       id="text41236" />
    <path
       style="font-size:29.0203495px;font-style:normal;font-variant:normal;font-weight:normal;font-stretch:normal;text-align:start;line-height:125%;writing-mode:lr-tb;text-anchor:start;fill:#000000;fill-opacity:1;stroke:none;stroke-width:1px;stroke-linecap:butt;stroke-linejoin:miter;stroke-opacity:1;font-family:Gill Sans"
       d="M 524.1271,573.62994 L 524.1271,556.34243 L 524.1271,556.34243 L 517.28294,556.34243 L 517.28294,556.34243 L 517.28294,555.09546 L 517.28294,553.83432 L 517.28294,553.83432 L 533.81944,553.83432 L 533.81944,553.83432 L 533.81944,555.08129 L 533.81944,556.34243 L 533.81944,556.34243 L 526.96111,556.34243 L 526.96111,556.34243 L 526.96111,573.62994 L 526.96111,573.62994 L 525.5441,573.62994 L 524.1271,573.62994 L 524.1271,573.62994 M 544.20612,566.94166 C 544.20611,564.42884 544.68317,561.99159 545.6373,559.62989 C 546.60086,557.25878 547.92812,555.22774 549.61909,553.53675 L 551.37618,553.53675 C 550.05363,554.85931 549.01922,556.70615 548.27293,559.07726 C 547.53608,561.43895 547.16766,564.06042 547.16767,566.94166 C 547.16766,569.83236 547.54081,572.46327 548.2871,574.8344 C 549.03339,577.20553 550.06308,579.04764 551.37618,580.36074 L 549.61909,580.36074 C 547.91868,578.66032 546.59141,576.62455 545.6373,574.25343 C 544.68317,571.8823 544.20611,569.44505 544.20612,566.94166 M 561.38027,573.13399 C 560.66231,573.66301 559.67512,573.92752 558.41872,573.92752 C 557.0206,573.92752 555.9295,573.54492 555.14543,572.77974 C 554.36134,572.01455 553.96931,570.94708 553.96931,569.5773 L 553.96931,562.97403 L 553.96931,562.97403 L 551.75877,562.97403 L 551.75877,562.61978 L 556.53409,557.98616 L 556.54827,557.98616 L 556.54827,560.59346 L 556.54827,560.59346 L 560.51589,560.59346 L 560.51589,562.97403 L 556.54827,562.97403 L 556.54827,562.97403 L 556.54827,569.22305 C 556.54826,569.96934 556.72775,570.53142 557.08673,570.90929 C 557.4457,571.28716 557.98416,571.47609 558.70212,571.47609 C 559.86406,571.46665 560.75677,571.20214 561.38027,570.68256 L 561.38027,573.13399 M 568.96127,566.95583 C 568.96126,569.46866 568.4842,571.90592 567.53009,574.2676 C 566.57596,576.63872 565.25342,578.66977 563.56246,580.36074 L 561.80537,580.36074 C 563.12791,579.03819 564.1576,577.19136 564.89445,574.82023 C 565.63129,572.45855 565.99971,569.83709 565.99972,566.95583 C 565.99971,564.06514 565.62657,561.43423 564.88028,559.06309 C 564.14343,556.69198 563.11846,554.84987 561.80537,553.53675 L 563.56246,553.53675 C 565.26287,555.23718 566.59013,557.27295 567.54426,559.64406 C 568.48892,562.00576 568.96126,564.44301 568.96127,566.95583"
       id="text41240" />
    <path
       style="font-size:19.34689903px;font-style:normal;font-variant:normal;font-weight:normal;font-stretch:normal;text-align:start;line-height:125%;writing-mode:lr-tb;text-anchor:start;fill:#000000;fill-opacity:1;stroke:none;stroke-width:1px;stroke-linecap:butt;stroke-linejoin:miter;stroke-opacity:1;font-family:Gill Sans"
       d="M 472.26882,574.81383 C 472.26881,575.93485 471.79018,577.24795 470.83292,578.75312 C 470.23462,579.70409 469.35292,580.87234 468.18783,582.25786 L 468.18783,582.25786 L 473.18515,582.25786 L 473.18515,584.05273 L 464.83424,584.05273 L 464.83424,583.96771 L 464.83424,583.87325 C 466.63542,581.89573 468.00519,580.16698 468.94357,578.68699 C 469.88194,577.20701 470.35113,576.03247 470.35113,575.16336 C 470.35113,574.30057 470.1433,573.63615 469.72765,573.1701 C 469.31829,572.69778 468.73259,572.46161 467.97056,572.4616 C 467.47933,572.46161 466.99439,572.60646 466.51576,572.89615 C 466.03713,573.17956 465.55849,573.61096 465.07986,574.19035 L 465.07986,571.91369 C 465.63407,571.47285 466.16308,571.15481 466.66691,570.95957 C 467.17703,570.75805 467.72494,570.65729 468.31064,570.65727 C 469.50092,570.65729 470.45819,571.03831 471.18245,571.80033 C 471.90669,572.56238 472.26881,573.56688 472.26882,574.81383"
       id="text41244" />
    <path
       style="font-size:19.34689903px;font-style:normal;font-variant:normal;font-weight:normal;font-stretch:normal;text-align:start;line-height:125%;writing-mode:lr-tb;text-anchor:start;fill:#000000;fill-opacity:1;stroke:none;stroke-width:1px;stroke-linecap:butt;stroke-linejoin:miter;stroke-opacity:1;font-family:Gill Sans"
       d="M 538.28005,574.31789 C 538.28004,573.7385 538.06907,573.26931 537.64712,572.91033 C 537.22516,572.54507 536.67725,572.36243 536.00339,572.36242 C 535.58773,572.36243 535.20986,572.41281 534.86978,572.51356 C 534.5297,572.60804 534.15498,572.77179 533.74562,573.00479 L 533.74562,571.106 C 534.22425,570.89819 534.64935,570.75649 535.02093,570.6809 C 535.3925,570.59904 535.8176,570.55811 536.29624,570.55809 C 537.45503,570.55811 538.38711,570.86985 539.09247,571.49332 C 539.79782,572.11052 540.15049,572.92923 540.1505,573.94947 C 540.15049,574.96343 539.8545,575.78214 539.26251,576.40562 C 539.07357,576.60715 538.85629,576.7772 538.61068,576.91574 L 538.61068,576.91574 C 538.90668,577.07319 539.17118,577.26528 539.40421,577.49199 C 540.04028,578.12178 540.35832,578.94994 540.35833,579.97648 C 540.35832,581.22975 539.97415,582.24055 539.20583,583.00888 C 538.43749,583.77092 537.42669,584.15193 536.17343,584.15193 C 535.6696,584.15193 535.20986,584.09525 534.79421,583.98189 C 534.37855,583.87483 533.91251,583.68275 533.39609,583.40564 L 533.39609,581.3557 C 533.89991,581.68319 534.37225,581.91936 534.8131,582.06421 C 535.26024,582.20276 535.75462,582.27204 536.29624,582.27203 C 536.94491,582.27204 537.47077,582.0768 537.87384,581.68634 C 538.28319,581.29588 538.48787,580.7889 538.48788,580.16541 C 538.48787,579.54193 538.2517,579.03496 537.77937,578.64449 C 537.30703,578.24773 536.69299,578.04935 535.93726,578.04935 L 535.69165,578.04935 L 535.69165,576.25447 L 536.00339,576.25447 C 536.67725,576.25448 537.22516,576.07499 537.64712,575.71601 C 538.06907,575.35704 538.28004,574.891 538.28005,574.31789"
       id="text41248" />
    <g
       id="g57185"
       transform="matrix(1.6122416,0,0,1.6122416,-7.2980416,-365.27474)">
      <path
         style="fill:#000000;fill-opacity:1;fill-rule:evenodd;stroke:none;stroke-width:0.77889967px;stroke-linecap:butt;stroke-linejoin:miter;stroke-opacity:1"
         d="M 258.625,550.625 C 258.625,550.625 258.61384,550.64227 258.59375,569.125 L 259.375,569.125 C 259.38505,559.88363 259.40374,555.24784 259.40625,552.9375 C 259.40751,551.78233 259.40594,551.19504 259.40625,550.90625 C 259.40641,550.76185 259.40621,550.69235 259.40625,550.65625 C 259.40627,550.6382 259.40625,550.62951 259.40625,550.625 L 259,550.625 L 258.625,550.625 z "
         id="path41252" />
      <path
         style="fill-rule:evenodd;stroke:#000000;stroke-width:0.62311974pt;marker-start:none"
         d="M 259.01564,547.03216 L 262.12538,552.42553 L 255.89418,552.41876 L 259.01564,547.03216 z "
         id="path57191" />
    </g>
    <g
       id="g57177"
       transform="matrix(1.6122416,0,0,1.6122416,-7.2980416,-365.27474)">
      <path
         style="fill:#000000;fill-opacity:1;fill-rule:evenodd;stroke:none;stroke-width:0.77889967px;stroke-linecap:butt;stroke-linejoin:miter;stroke-opacity:1"
         d="M 299.8125,550.625 C 299.8125,550.625 299.83257,550.64227 299.8125,569.125 L 300.5625,569.125 C 300.57253,559.88363 300.59124,555.24784 300.59375,552.9375 C 300.595,551.78233 300.59344,551.19504 300.59375,550.90625 C 300.59391,550.76185 300.59371,550.69235 300.59375,550.65625 C 300.59377,550.6382 300.59375,550.62951 300.59375,550.625 L 300.21875,550.625 L 299.8125,550.625 z "
         id="path41254" />
      <path
         style="fill-rule:evenodd;stroke:#000000;stroke-width:0.62311974pt;marker-start:none"
         d="M 300.21102,547.03216 L 303.32076,552.42553 L 297.08956,552.41876 L 300.21102,547.03216 z "
         id="path57183" />
    </g>
    <g
       id="g57169"
       transform="matrix(1.6122416,0,0,1.6122416,-7.2980416,-365.27474)">
      <path
         style="fill:#000000;fill-opacity:1;fill-rule:evenodd;stroke:none;stroke-width:0.77889967px;stroke-linecap:butt;stroke-linejoin:miter;stroke-opacity:1"
         d="M 341,550.625 C 341,550.625 341.02009,550.64227 341,569.125 L 341.78125,569.125 C 341.7913,559.88363 341.77874,555.24784 341.78125,552.9375 C 341.78251,551.78233 341.78094,551.19504 341.78125,550.90625 C 341.78141,550.76185 341.78121,550.69235 341.78125,550.65625 C 341.78127,550.6382 341.78125,550.62951 341.78125,550.625 L 341.40625,550.625 L 341,550.625 z "
         id="path41256" />
      <path
         style="fill-rule:evenodd;stroke:#000000;stroke-width:0.62311974pt;marker-start:none"
         d="M 341.40639,547.03216 L 344.51613,552.42553 L 338.28493,552.41876 L 341.40639,547.03216 z "
         id="path57175" />
    </g>
    <rect
       style="fill:#f32416;fill-opacity:1;stroke:none;stroke-width:0.54500002;stroke-miterlimit:4;stroke-dasharray:none;stroke-dashoffset:0;stroke-opacity:1"
       id="rect45446"
       width="52.680653"
       height="8.3983631"
       x="384.77365"
       y="507.41437" />
    <g
       id="g57145"
       transform="matrix(1.6122416,0,0,1.6122416,-7.2980416,-365.27474)">
      <path
         style="fill:#000000;fill-opacity:1;fill-rule:evenodd;stroke:none;stroke-width:0.5741424px;stroke-linecap:butt;stroke-linejoin:miter;stroke-opacity:1"
         d="M 285.59375,511.1875 L 285.59375,511.75 C 290.44962,511.75 292.87978,511.75 294.09375,511.75 C 294.70073,511.75 295.0045,511.75 295.15625,511.75 C 295.23212,511.75 295.26228,511.75 295.28125,511.75 C 295.29073,511.75 295.31013,511.75 295.3125,511.75 L 295.3125,511.46875 L 295.3125,511.1875 C 295.3125,511.1875 295.30548,511.1875 285.59375,511.1875 z "
         id="path45448" />
      <path
         style="fill-rule:evenodd;stroke:#000000;stroke-width:0.45931392pt;marker-start:none"
         d="M 289.55863,511.47391 L 287.26206,513.77048 L 295.30005,511.47391 L 287.26206,509.17734 L 289.55863,511.47391 z "
         id="path57151" />
    </g>
    <g
       id="g45690"
       transform="matrix(1.6122416,0,0,1.6122416,-7.2980416,-365.27474)">
      <g
         id="g45682">
        <path
           id="path45450"
           d="M 338.53125,520.96875 L 338.53125,521.6875 C 342.44737,521.6875 344.39597,521.6875 345.375,521.6875 C 345.86451,521.6875 346.09637,521.6875 346.21875,521.6875 C 346.27994,521.6875 346.32845,521.6875 346.34375,521.6875 L 346.34375,521.3125 L 346.34375,520.96875 C 346.34375,520.96875 346.36348,520.96876 338.53125,520.96875 z "
           style="fill:#000000;fill-opacity:1;fill-rule:evenodd;stroke:none;stroke-width:0.71408433px;stroke-linecap:butt;stroke-linejoin:miter;stroke-opacity:1" />
        <path
           id="path45688"
           d="M 339.21541,521.32197 L 336.35907,524.17831 L 346.35625,521.32197 L 336.35907,518.46563 L 339.21541,521.32197 z "
           style="fill-rule:evenodd;stroke:#000000;stroke-width:0.57126746pt;marker-start:none" />
      </g>
      <g
         id="g45674">
        <path
           id="path45452"
           d="M 354.8125,513.75 C 354.8125,513.75 354.81757,513.77257 349.25,519.28125 L 349.75,519.78125 C 352.53379,517.02691 353.92905,515.65734 354.625,514.96875 C 354.97297,514.62446 355.13176,514.42982 355.21875,514.34375 C 355.26225,514.30071 355.27038,514.29201 355.28125,514.28125 C 355.28669,514.27587 355.31114,514.28259 355.3125,514.28125 L 355.0625,514.03125 L 354.8125,513.75 z "
           style="fill:#000000;fill-opacity:1;fill-rule:evenodd;stroke:none;stroke-width:0.71408433px;stroke-linecap:butt;stroke-linejoin:miter;stroke-opacity:1" />
        <path
           id="path45680"
           d="M 349.97881,519.04097 L 349.95734,523.08038 L 355.05491,514.01854 L 345.93939,519.0195 L 349.97881,519.04097 z "
           style="fill-rule:evenodd;stroke:#000000;stroke-width:0.57126746pt;marker-start:none" />
      </g>
      <g
         id="g45666">
        <path
           id="path45468"
           d="M 355.25,502.875 C 355.25,502.875 355.25001,502.85527 355.25,510.6875 L 355.96875,510.6875 C 355.96876,506.77139 355.96875,504.82278 355.96875,503.84375 C 355.96875,503.35424 355.96875,503.12238 355.96875,503 C 355.96875,502.93881 355.96875,502.8903 355.96875,502.875 L 355.625,502.875 L 355.25,502.875 z "
           style="fill:#000000;fill-opacity:1;fill-rule:evenodd;stroke:none;stroke-width:0.71408433px;stroke-linecap:butt;stroke-linejoin:miter;stroke-opacity:1" />
        <path
           id="path45672"
           d="M 355.61906,510.01122 L 358.4754,512.86756 L 355.61906,502.87038 L 352.76272,512.86756 L 355.61906,510.01122 z "
           style="fill-rule:evenodd;stroke:#000000;stroke-width:0.57126746pt;marker-start:none" />
      </g>
      <g
         id="g45658">
        <path
           id="path45470"
           d="M 348.5625,493.9375 C 348.53462,493.96509 348.3125,494.15625 348.3125,494.15625 L 348.0625,494.4375 C 348.0625,494.4375 348.05379,494.43243 353.5625,500 L 354.09375,499.5 C 351.33939,496.71622 349.93859,495.32095 349.25,494.625 C 348.90571,494.27703 348.74232,494.08699 348.65625,494 C 348.61321,493.9565 348.60451,493.94837 348.59375,493.9375 C 348.58837,493.93206 348.56384,493.93886 348.5625,493.9375 z "
           style="fill:#000000;fill-opacity:1;fill-rule:evenodd;stroke:none;stroke-width:0.71408433px;stroke-linecap:butt;stroke-linejoin:miter;stroke-opacity:1" />
        <path
           id="path45664"
           d="M 353.33806,499.24782 L 357.37747,499.26929 L 348.31563,494.17172 L 353.31659,503.28724 L 353.33806,499.24782 z "
           style="fill-rule:evenodd;stroke:#000000;stroke-width:0.57126746pt;marker-start:none" />
      </g>
      <g
         id="g45650">
        <path
           id="path45474"
           d="M 337.21875,493 C 337.21875,493 337.21875,493.34375 337.21875,493.34375 L 337.21875,493.6875 C 337.21875,493.6875 337.23027,493.6875 345.0625,493.6875 L 345.0625,493 C 341.14639,493 339.16653,493 338.1875,493 C 337.69799,493 337.46613,493 337.34375,493 C 337.28256,493 337.23405,493 337.21875,493 z "
           style="fill:#000000;fill-opacity:1;fill-rule:evenodd;stroke:none;stroke-width:0.71408433px;stroke-linecap:butt;stroke-linejoin:miter;stroke-opacity:1" />
        <path
           id="path45656"
           d="M 344.35738,493.34183 L 347.21372,490.48549 L 337.21654,493.34183 L 347.21372,496.19817 L 344.35738,493.34183 z "
           style="fill-rule:evenodd;stroke:#000000;stroke-width:0.57126746pt;marker-start:none" />
      </g>
      <g
         id="g45642">
        <path
           id="path45476"
           d="M 333.84375,494.875 C 331.05997,497.62935 329.6647,498.99891 328.96875,499.6875 C 328.62078,500.03179 328.43074,500.22643 328.34375,500.3125 C 328.30025,500.35554 328.29212,500.36424 328.28125,500.375 C 328.28057,500.37567 328.28142,500.40608 328.28125,500.40625 C 328.28125,500.40625 328.53125,500.65625 328.53125,500.65625 L 328.78125,500.90625 C 328.78125,500.90625 328.77618,500.88369 334.34375,495.375 L 333.84375,494.875 z "
           style="fill:#000000;fill-opacity:1;fill-rule:evenodd;stroke:none;stroke-width:0.71408433px;stroke-linecap:butt;stroke-linejoin:miter;stroke-opacity:1" />
        <path
           id="path45648"
           d="M 333.59398,495.62283 L 333.61545,491.58342 L 328.51788,500.64526 L 337.6334,495.6443 L 333.59398,495.62283 z "
           style="fill-rule:evenodd;stroke:#000000;stroke-width:0.57126746pt;marker-start:none" />
      </g>
      <g
         id="g45634">
        <path
           id="path45480"
           d="M 328.09375,503.15625 C 328.09375,507.07236 328.09375,509.02097 328.09375,510 C 328.09375,510.48951 328.09375,510.75262 328.09375,510.875 C 328.09375,510.93619 328.09375,510.95345 328.09375,510.96875 C 328.09375,510.9764 328.09375,510.99809 328.09375,511 L 328.4375,511 L 328.8125,511 C 328.8125,511 328.8125,510.98848 328.8125,503.15625 L 328.09375,503.15625 z "
           style="fill:#000000;fill-opacity:1;fill-rule:evenodd;stroke:none;stroke-width:0.71408433px;stroke-linecap:butt;stroke-linejoin:miter;stroke-opacity:1" />
        <path
           id="path45640"
           d="M 328.44556,503.84599 L 325.58922,500.98965 L 328.44556,510.98683 L 331.3019,500.98965 L 328.44556,503.84599 z "
           style="fill-rule:evenodd;stroke:#000000;stroke-width:0.57126746pt;marker-start:none" />
      </g>
      <g
         id="g45626">
        <path
           id="path45482"
           d="M 330.5,513.875 L 330,514.375 C 332.75435,517.15879 334.12391,518.55405 334.8125,519.25 C 335.15679,519.59797 335.32018,519.75676 335.40625,519.84375 C 335.44929,519.88725 335.48924,519.92663 335.5,519.9375 L 335.75,519.6875 L 336,519.4375 C 336,519.4375 336.00869,519.44257 330.5,513.875 z "
           style="fill:#000000;fill-opacity:1;fill-rule:evenodd;stroke:none;stroke-width:0.71408433px;stroke-linecap:butt;stroke-linejoin:miter;stroke-opacity:1" />
        <path
           id="path45632"
           d="M 330.72656,514.60939 L 326.68715,514.58792 L 335.74899,519.68549 L 330.74803,510.56997 L 330.72656,514.60939 z "
           style="fill-rule:evenodd;stroke:#000000;stroke-width:0.57126746pt;marker-start:none" />
      </g>
    </g>
    <g
       id="g45592"
       transform="matrix(1.6122416,0,0,1.6122416,-7.2980416,-365.27474)">
      <g
         id="g45584">
        <path
           id="path45504"
           d="M 254.0625,521.6875 L 254.0625,522.40625 C 257.97861,522.40625 259.92722,522.40625 260.90625,522.40625 C 261.39576,522.40625 261.65887,522.40625 261.78125,522.40625 C 261.84244,522.40625 261.8597,522.40625 261.875,522.40625 L 261.875,522.0625 L 261.875,521.6875 C 261.875,521.6875 261.89471,521.6875 254.0625,521.6875 z "
           style="fill:#000000;fill-opacity:1;fill-rule:evenodd;stroke:none;stroke-width:0.71408433px;stroke-linecap:butt;stroke-linejoin:miter;stroke-opacity:1" />
        <path
           id="path45590"
           d="M 254.74896,522.05499 L 251.89262,524.91133 L 261.8898,522.05499 L 251.89262,519.19865 L 254.74896,522.05499 z "
           style="fill-rule:evenodd;stroke:#000000;stroke-width:0.57126746pt;marker-start:none" />
      </g>
      <g
         id="g45576">
        <path
           id="path45506"
           d="M 270.34375,514.5 C 270.34375,514.5 270.34881,514.49131 264.78125,520 L 265.28125,520.5 C 268.06503,517.74565 269.46031,516.37609 270.15625,515.6875 C 270.50422,515.34321 270.66301,515.17982 270.75,515.09375 C 270.7935,515.05071 270.83288,515.04201 270.84375,515.03125 C 270.84919,515.02587 270.84239,515.00134 270.84375,515 C 270.84375,515 270.59375,514.75 270.59375,514.75 L 270.34375,514.5 z "
           style="fill:#000000;fill-opacity:1;fill-rule:evenodd;stroke:none;stroke-width:0.71408433px;stroke-linecap:butt;stroke-linejoin:miter;stroke-opacity:1" />
        <path
           id="path45582"
           d="M 265.51236,519.77399 L 265.49089,523.8134 L 270.58846,514.75156 L 261.47294,519.75252 L 265.51236,519.77399 z "
           style="fill-rule:evenodd;stroke:#000000;stroke-width:0.57126746pt;marker-start:none" />
      </g>
      <g
         id="g45568">
        <path
           id="path45508"
           d="M 270.78125,503.59375 C 270.78125,503.59375 270.78124,503.60529 270.78125,511.4375 L 271.5,511.4375 C 271.5,507.5214 271.5,505.57278 271.5,504.59375 C 271.5,504.10424 271.5,503.84113 271.5,503.71875 C 271.5,503.65756 271.5,503.6403 271.5,503.625 C 271.5,503.61735 271.5,503.59566 271.5,503.59375 L 271.15625,503.59375 L 270.78125,503.59375 z "
           style="fill:#000000;fill-opacity:1;fill-rule:evenodd;stroke:none;stroke-width:0.71408433px;stroke-linecap:butt;stroke-linejoin:miter;stroke-opacity:1" />
        <path
           id="path45574"
           d="M 271.15261,510.74424 L 274.00895,513.60058 L 271.15261,503.6034 L 268.29627,513.60058 L 271.15261,510.74424 z "
           style="fill-rule:evenodd;stroke:#000000;stroke-width:0.57126746pt;marker-start:none" />
      </g>
      <g
         id="g45560">
        <path
           id="path45510"
           d="M 264.09375,494.65625 C 264.09375,494.65625 263.84375,494.90625 263.84375,494.90625 L 263.59375,495.15625 C 263.59375,495.15625 263.58505,495.15117 269.09375,500.71875 L 269.625,500.21875 C 266.87065,497.43496 265.46984,496.0397 264.78125,495.34375 C 264.43696,494.99578 264.27357,494.83699 264.1875,494.75 C 264.14446,494.7065 264.13576,494.66712 264.125,494.65625 C 264.11962,494.65081 264.09509,494.65761 264.09375,494.65625 z "
           style="fill:#000000;fill-opacity:1;fill-rule:evenodd;stroke:none;stroke-width:0.71408433px;stroke-linecap:butt;stroke-linejoin:miter;stroke-opacity:1" />
        <path
           id="path45566"
           d="M 268.87161,499.98084 L 272.91102,500.00231 L 263.84918,494.90474 L 268.85014,504.02026 L 268.87161,499.98084 z "
           style="fill-rule:evenodd;stroke:#000000;stroke-width:0.57126746pt;marker-start:none" />
      </g>
      <g
         id="g45552">
        <path
           id="path45512"
           d="M 252.75,493.71875 C 252.75,493.71875 252.75,494.0625 252.75,494.0625 L 252.75,494.4375 C 252.75,494.4375 252.76153,494.43749 260.59375,494.4375 L 260.59375,493.71875 C 256.67764,493.71875 254.69778,493.71875 253.71875,493.71875 C 253.22924,493.71875 252.99738,493.71875 252.875,493.71875 C 252.81381,493.71875 252.7653,493.71875 252.75,493.71875 z "
           style="fill:#000000;fill-opacity:1;fill-rule:evenodd;stroke:none;stroke-width:0.71408433px;stroke-linecap:butt;stroke-linejoin:miter;stroke-opacity:1" />
        <path
           id="path45558"
           d="M 259.89093,494.07485 L 262.74727,491.21851 L 252.75009,494.07485 L 262.74727,496.93119 L 259.89093,494.07485 z "
           style="fill-rule:evenodd;stroke:#000000;stroke-width:0.57126746pt;marker-start:none" />
      </g>
      <g
         id="g45544">
        <path
           id="path45514"
           d="M 249.375,495.625 C 246.59121,498.37936 245.19595,499.74891 244.5,500.4375 C 244.15203,500.78179 243.96199,500.94518 243.875,501.03125 C 243.8315,501.07429 243.82337,501.11424 243.8125,501.125 C 243.8125,501.125 244.0625,501.375 244.0625,501.375 L 244.3125,501.625 C 244.3125,501.625 244.30743,501.63371 249.875,496.125 L 249.375,495.625 z "
           style="fill:#000000;fill-opacity:1;fill-rule:evenodd;stroke:none;stroke-width:0.71408433px;stroke-linecap:butt;stroke-linejoin:miter;stroke-opacity:1" />
        <path
           id="path45550"
           d="M 249.12753,496.35585 L 249.149,492.31644 L 244.05143,501.37828 L 253.16695,496.37732 L 249.12753,496.35585 z "
           style="fill-rule:evenodd;stroke:#000000;stroke-width:0.57126746pt;marker-start:none" />
      </g>
      <g
         id="g45536">
        <path
           id="path45516"
           d="M 243.625,503.875 C 243.625,507.79111 243.625,509.77097 243.625,510.75 C 243.625,511.23951 243.625,511.47137 243.625,511.59375 C 243.625,511.65494 243.625,511.70345 243.625,511.71875 L 243.96875,511.71875 L 244.34375,511.71875 C 244.34375,511.71875 244.34375,511.70722 244.34375,503.875 L 243.625,503.875 z "
           style="fill:#000000;fill-opacity:1;fill-rule:evenodd;stroke:none;stroke-width:0.71408433px;stroke-linecap:butt;stroke-linejoin:miter;stroke-opacity:1" />
        <path
           id="path45542"
           d="M 243.97911,504.57901 L 241.12277,501.72267 L 243.97911,511.71985 L 246.83545,501.72267 L 243.97911,504.57901 z "
           style="fill-rule:evenodd;stroke:#000000;stroke-width:0.57126746pt;marker-start:none" />
      </g>
      <g
         id="g45528">
        <path
           id="path45518"
           d="M 246.03125,514.59375 L 245.53125,515.09375 C 248.2856,517.87753 249.65516,519.27281 250.34375,519.96875 C 250.68804,520.31672 250.85143,520.50676 250.9375,520.59375 C 250.98054,520.63725 251.02049,520.64538 251.03125,520.65625 L 251.28125,520.40625 L 251.53125,520.15625 C 251.53125,520.15625 251.53996,520.16131 246.03125,514.59375 z "
           style="fill:#000000;fill-opacity:1;fill-rule:evenodd;stroke:none;stroke-width:0.71408433px;stroke-linecap:butt;stroke-linejoin:miter;stroke-opacity:1" />
        <path
           id="path45534"
           d="M 246.26011,515.34241 L 242.2207,515.32094 L 251.28254,520.41851 L 246.28158,511.30299 L 246.26011,515.34241 z "
           style="fill-rule:evenodd;stroke:#000000;stroke-width:0.57126746pt;marker-start:none" />
      </g>
    </g>
    <path
       style="fill:#a000a0;fill-opacity:1;fill-rule:evenodd;stroke:none;stroke-width:1px;stroke-linecap:butt;stroke-linejoin:miter;stroke-opacity:1"
       d="M 483.94995,462.3635 C 483.78471,462.85922 483.73463,463.34747 483.89956,463.72383 C 483.94335,463.82376 483.95361,463.75325 484.00033,463.82459 C 483.88731,463.9715 483.72623,464.14907 483.29497,464.58033 C 482.10056,465.77475 481.32976,467.06328 480.37278,467.95596 C 479.87528,468.42005 479.29694,468.75156 478.6094,469.014 C 478.26728,468.06298 477.37048,467.46244 476.39256,467.14984 C 475.33933,466.81317 474.11305,466.67734 472.8154,466.64602 C 470.22011,466.58337 467.37962,466.89793 466.06414,466.89793 C 466.041,466.89793 465.9641,466.89785 465.96338,466.89793 C 465.96265,466.89801 465.81273,466.94815 465.81223,466.94831 C 465.81173,466.94847 465.5606,467.04885 465.56031,467.04908 C 465.56002,467.0493 465.30848,467.50221 465.3084,467.50252 C 465.30832,467.50283 465.30827,467.95558 465.3084,467.95596 C 465.30853,467.95635 465.40883,468.20742 465.40917,468.20788 C 465.40951,468.20833 465.48622,468.28597 465.50993,468.30864 C 465.53365,468.33131 465.544,468.34613 465.56031,468.35902 C 465.69087,468.46219 465.72405,468.44131 465.76184,468.45979 C 465.83744,468.49674 465.91912,468.52234 466.01376,468.56055 C 466.20302,468.63696 466.4291,468.74119 466.7695,468.86285 C 467.4503,469.10615 468.40913,469.44748 469.49015,469.76974 C 471.6522,470.41425 474.2872,471.0293 476.24142,471.0293 C 476.68004,471.0293 476.96165,470.8788 477.34983,470.82777 C 477.53239,471.74889 477.76868,472.77773 477.75289,473.24613 C 477.72922,473.94875 477.63484,474.07387 477.34983,474.25378 C 477.06482,474.43369 476.38273,474.56291 475.43529,474.70723 C 474.48788,474.85154 473.27618,475.04547 471.80775,475.41258 C 471.74816,475.42748 470.85814,475.53385 469.79245,475.66449 C 468.72676,475.79513 467.37507,475.95268 466.06414,476.11794 C 464.75323,476.28319 463.47132,476.45467 462.48698,476.62176 C 461.99481,476.70531 461.60637,476.78763 461.2778,476.87368 C 461.11351,476.91671 460.97262,476.96027 460.82435,477.02482 C 460.75022,477.0571 460.67253,477.102 460.57244,477.17597 C 460.47235,477.24994 460.29707,477.37057 460.21976,477.6798 C 459.68334,479.8255 459.29895,481.53354 459.96785,483.07073 C 460.63675,484.60792 462.25327,485.60701 465.00611,486.29521 C 465.3301,486.37621 466.11228,486.77788 466.81988,487.45401 C 467.52748,488.13014 468.23664,489.06682 468.73442,489.97314 C 469.23219,490.87946 469.49223,491.7517 469.43977,492.44188 C 469.38731,493.13207 469.1056,493.66699 468.23059,494.10451 C 465.5089,495.46535 464.444,497.66469 464.70381,499.79774 C 464.96362,501.93078 466.37396,503.91145 468.07944,505.54135 L 469.18786,504.38255 C 467.66132,502.92365 466.50467,501.14472 466.31605,499.59621 C 466.12744,498.0477 466.68234,496.66721 468.98633,495.51522 C 470.27198,494.87239 470.96336,493.75952 471.05201,492.59303 C 471.14067,491.42654 470.73751,490.24557 470.14513,489.16702 C 469.55274,488.08846 468.75389,487.08408 467.92829,486.29521 C 467.1027,485.50634 466.27312,484.94934 465.40917,484.73335 C 462.84701,484.09283 461.8638,483.34968 461.47933,482.46614 C 461.12565,481.65334 461.35332,480.25796 461.78162,478.43553 C 462.02389,478.37601 462.3136,478.3062 462.73889,478.234 C 463.67556,478.075 464.96393,477.89427 466.26567,477.73018 C 467.56741,477.56608 468.92163,477.4082 469.99398,477.27674 C 471.06633,477.14527 471.77325,477.08383 472.21081,476.97444 C 473.5816,476.63174 474.7129,476.46787 475.68721,476.31947 C 476.66152,476.17106 477.49674,476.06206 478.20633,475.61411 C 478.91593,475.16617 479.33102,474.30908 479.36513,473.29651 C 479.3879,472.62081 479.11095,471.56137 478.91169,470.57586 C 479.92547,470.22798 480.76848,469.73261 481.43082,469.11476 C 482.60277,468.02155 483.37745,466.76507 484.40339,465.73913 C 484.9527,465.18982 485.29989,464.8598 485.5118,464.52995 C 485.61776,464.36503 485.68409,464.17948 485.71333,463.92536 C 485.74258,463.67124 485.66826,463.37115 485.56219,463.22 C 485.35005,462.91769 485.37268,462.98133 485.41104,463.06886 C 485.44939,463.15638 485.3659,463.1539 485.46142,462.86733 L 483.94995,462.3635 z M 472.76502,468.25826 C 473.98389,468.28768 475.14756,468.40829 475.93912,468.66132 C 476.49246,468.8382 476.61508,469.08785 476.79562,469.31629 C 476.58519,469.33104 476.47608,469.41706 476.24142,469.41706 C 474.84043,469.41706 472.60557,468.91014 470.64895,468.35902 C 471.43058,468.32671 471.99492,468.23967 472.76502,468.25826 z "
       id="path88627" />
    <path
       style="fill:#a000a0;fill-opacity:1;fill-rule:evenodd;stroke:none;stroke-width:1px;stroke-linecap:butt;stroke-linejoin:miter;stroke-opacity:1"
       d="M 494.98372,467.35137 C 494.3284,468.66203 494.01901,469.63286 493.6234,470.47509 C 493.56061,470.60875 493.38889,470.74819 493.3211,470.87815 C 492.89511,470.52141 492.33646,469.94389 492.06154,469.66897 C 490.8989,468.50635 489.58409,468.00011 488.33323,468.05673 C 487.08237,468.11335 485.91849,468.68805 484.9576,469.41706 C 483.9967,470.14606 483.20306,471.06446 482.58962,471.93619 C 481.97617,472.80791 481.55264,473.61538 481.38044,474.30417 C 481.2269,474.91828 481.29241,475.56202 481.68273,476.01717 C 482.07305,476.47232 482.65219,476.64156 483.19421,476.72253 C 484.27826,476.88446 485.53165,476.68009 486.87213,476.36985 C 488.21262,476.05961 489.57599,475.65727 490.65082,475.26143 C 491.18823,475.06351 491.65199,474.86756 492.01115,474.70723 C 492.19073,474.62705 492.38377,474.52536 492.51498,474.45531 C 492.64618,474.38526 492.73292,474.38852 492.91804,474.2034 C 493.25559,473.86584 493.31897,473.60951 493.57301,473.29651 C 493.88111,473.58541 494.20696,473.78664 494.4799,474.10263 C 495.57095,475.36583 496.24579,476.71252 495.78984,478.5363 C 495.33681,480.34847 494.85618,481.26823 494.68143,481.45849 C 494.65346,481.4466 494.59783,481.43087 494.42952,481.30734 C 493.59597,480.69554 491.94281,478.63257 489.13935,477.93171 C 487.92062,477.62703 485.15016,476.96586 482.48885,476.82329 C 481.15819,476.75202 479.82582,476.7958 478.71016,477.12559 C 477.59451,477.45537 476.586,478.21601 476.2918,479.3928 C 475.92672,480.85309 475.24113,483.43234 475.33453,485.79139 C 475.38124,486.9709 475.6105,488.0948 476.2918,489.01587 C 476.9731,489.93694 478.1461,490.52735 479.61705,490.52735 C 481.48388,490.52735 484.13469,490.34047 485.71333,490.77926 C 486.50266,490.99865 486.90073,491.28591 487.07366,491.73653 C 487.24659,492.18715 487.22715,493.0418 486.51946,494.45719 C 485.58737,496.32136 486.09363,498.41832 486.36831,500.25118 C 486.50564,501.16761 486.58183,502.01534 486.51946,502.71992 C 486.45708,503.42451 486.26103,503.9356 485.8141,504.38255 L 486.9729,505.54135 C 487.72794,504.7863 488.04746,503.82247 488.1317,502.87107 C 488.21594,501.91967 488.07163,500.94322 487.93017,499.99927 C 487.64725,498.11136 487.39224,496.33915 487.98055,495.16254 C 488.79231,493.539 488.99655,492.25436 488.58514,491.18232 C 488.17373,490.11028 487.16463,489.50876 486.1164,489.2174 C 484.01993,488.63467 481.33455,488.9151 479.61705,488.9151 C 478.52551,488.9151 477.99171,488.5858 477.60174,488.0586 C 477.21178,487.5314 476.98619,486.6861 476.94677,485.69062 C 476.86795,483.69966 477.48679,481.21298 477.85366,479.74548 C 477.98314,479.22758 478.35058,478.92777 479.1636,478.68745 C 479.97662,478.44713 481.15949,478.36972 482.38809,478.43553 C 484.84527,478.56717 487.56066,479.19966 488.73629,479.49357 C 490.95807,480.04902 492.21315,481.69313 493.47225,482.61729 C 493.78702,482.84832 494.11427,483.07763 494.58066,483.12111 C 495.04705,483.16459 495.56921,482.91681 495.89061,482.5669 C 496.53339,481.86709 496.87974,480.77686 497.3517,478.88898 C 497.95257,476.48554 496.96201,474.51837 495.68908,473.0446 C 495.27718,472.56772 494.96981,472.33671 494.53028,471.93619 C 494.66935,471.69156 494.97102,471.42203 495.08449,471.18045 C 495.53484,470.22168 495.83837,469.26962 496.44482,468.05673 L 494.98372,467.35137 z M 488.38361,469.66897 C 489.19002,469.63247 489.9935,469.91853 490.90274,470.82777 C 491.30794,471.23297 491.85169,471.75619 492.36383,472.1881 C 492.13359,472.47577 492.09215,472.71169 491.75924,473.0446 C 491.67997,473.08692 491.51249,473.17635 491.35618,473.24613 C 491.04355,473.3857 490.60668,473.56211 490.09662,473.74996 C 489.0765,474.12564 487.76883,474.51882 486.51946,474.80799 C 485.2701,475.09716 484.05265,475.25879 483.39574,475.16067 C 483.06729,475.11161 482.95827,474.97776 482.94229,474.95914 C 482.92632,474.94052 482.86995,474.94618 482.94229,474.65684 C 483.02007,474.34578 483.36667,473.60032 483.89956,472.84307 C 484.43246,472.08582 485.17738,471.32474 485.96525,470.727 C 486.75312,470.12927 487.5772,469.70547 488.38361,469.66897 z "
       id="path88629" />
    <path
       style="fill:none;fill-rule:evenodd;stroke:#00a000;stroke-width:1.61224163px;stroke-linecap:butt;stroke-linejoin:miter;stroke-opacity:1"
       d="M 395.29821,499.96112 C 397.98198,496.14396 403.53278,496.57316 409.69706,496.57316 C 413.76502,496.57316 410.77354,490.64422 406.3091,490.64422 C 399.22273,490.64422 397.7337,493.87243 395.29821,499.96112 C 392.29933,507.45832 385.13432,498.33203 385.13432,494.87917 C 385.13432,490.33491 392.42051,492.16983 394.45122,493.18519 C 399.67024,495.7947 394.15328,500.10422 402.07414,499.11413 C 407.33639,498.45633 406.93555,502.09616 409.69706,496.57316 C 412.37367,491.21992 403.96849,490.64422 401.22715,490.64422 C 395.31521,490.64422 395.17351,491.37516 391.91025,495.72616 C 390.78178,497.23077 380.60587,499.11413 388.52228,499.11413 C 395.86277,499.11413 398.06374,495.61389 404.61512,492.3382"
       id="path88637" />
    <path
       style="fill:none;fill-rule:evenodd;stroke:#00a000;stroke-width:1.61224163px;stroke-linecap:butt;stroke-linejoin:miter;stroke-opacity:1"
       d="M 420.17055,499.79282 C 422.85434,495.97566 428.40513,496.40485 434.5694,496.40485 C 438.63736,496.40485 435.64588,490.47592 431.18144,490.47592 C 424.09507,490.47592 422.60604,493.70412 420.17055,499.79282 C 417.17167,507.29002 410.00666,498.16373 410.00666,494.71087 C 410.00666,490.16662 417.29285,492.00153 419.32356,493.01689 C 424.54258,495.6264 419.02562,499.93594 426.94648,498.94583 C 432.20873,498.28805 431.80789,501.92786 434.5694,496.40485 C 437.24601,491.05161 428.84083,490.47592 426.09949,490.47592 C 420.18755,490.47592 420.04585,491.20686 416.78259,495.55786 C 415.65413,497.06249 405.47821,498.94583 413.39463,498.94583 C 420.73513,498.94583 422.93608,495.44559 429.48746,492.1699"
       id="path88639" />
    <path
       style="fill:none;fill-rule:evenodd;stroke:#00a000;stroke-width:1.61224163px;stroke-linecap:butt;stroke-linejoin:miter;stroke-opacity:1"
       d="M 526.58179,500.80811 C 529.26556,496.99095 534.81636,497.42015 540.98064,497.42015 C 545.0486,497.42015 542.05712,491.49121 537.59267,491.49121 C 530.50631,491.49121 529.01727,494.71942 526.58179,500.80811 C 523.58291,508.30531 516.4179,499.17902 516.4179,495.72616 C 516.4179,491.1819 523.70408,493.01682 525.7348,494.03218 C 530.95382,496.64169 525.43686,500.95121 533.35772,499.96112 C 538.61996,499.30333 538.21913,502.94315 540.98064,497.42015 C 543.65725,492.06691 535.25207,491.49121 532.51073,491.49121 C 526.59878,491.49121 526.45708,492.22215 523.19383,496.57316 C 522.06535,498.07776 511.88945,499.96112 519.80586,499.96112 C 527.14635,499.96112 529.34732,496.46088 535.89869,493.18519"
       id="path88641" />
    <path
       style="fill:none;fill-rule:evenodd;stroke:#00a000;stroke-width:1.61224163px;stroke-linecap:butt;stroke-linejoin:miter;stroke-opacity:1"
       d="M 551.45413,500.63981 C 554.13792,496.82265 559.6887,497.25184 565.85298,497.25184 C 569.92094,497.25184 566.92946,491.32291 562.46502,491.32291 C 555.37865,491.32291 553.88962,494.55111 551.45413,500.63981 C 548.45525,508.13701 541.29024,499.01072 541.29024,495.55786 C 541.29024,491.01361 548.57642,492.84852 550.60714,493.86388 C 555.82616,496.47339 550.3092,500.78293 558.23006,499.79282 C 563.4923,499.13504 563.09147,502.77485 565.85298,497.25184 C 568.52959,491.89861 560.12441,491.32291 557.38307,491.32291 C 551.47112,491.32291 551.32942,492.05385 548.06617,496.40485 C 546.93771,497.90948 536.76179,499.79282 544.6782,499.79282 C 552.01871,499.79282 554.21966,496.29258 560.77103,493.01689"
       id="path88643" />
    <rect
       style="fill:#f32416;fill-opacity:1;stroke:none;stroke-width:0.54500002;stroke-miterlimit:4;stroke-dasharray:none;stroke-dashoffset:0;stroke-opacity:1"
       id="rect2315"
       width="52.680653"
       height="8.3983631"
       x="83.405312"
       y="501.64053" />
    <path
       style="fill:none;fill-rule:evenodd;stroke:#00a000;stroke-width:1.61224163px;stroke-linecap:butt;stroke-linejoin:miter;stroke-opacity:1"
       d="M 94.853021,494.70309 C 97.536791,490.88593 103.0876,491.31512 109.25187,491.31512 C 113.31983,491.31512 110.32835,485.38618 105.86391,485.38618 C 98.777541,485.38618 97.288511,488.61439 94.853021,494.70309 C 91.854141,502.20028 84.689131,493.074 84.689131,489.62114 C 84.689131,485.07688 91.975321,486.9118 94.006031,487.92716 C 99.225051,490.53667 93.708091,494.84619 101.62895,493.8561 C 106.8912,493.1983 106.49036,496.83813 109.25187,491.31512 C 111.92848,485.96188 103.5233,485.38618 100.78196,485.38618 C 94.870021,485.38618 94.728321,486.11713 91.465061,490.46813 C 90.336591,491.97274 80.160681,493.8561 88.077091,493.8561 C 95.417581,493.8561 97.618551,490.35585 104.16993,487.08017"
       id="path2317" />
    <path
       style="fill:none;fill-rule:evenodd;stroke:#00a000;stroke-width:1.61224163px;stroke-linecap:butt;stroke-linejoin:miter;stroke-opacity:1"
       d="M 119.72537,494.53478 C 122.40915,490.71762 127.95994,491.14682 134.12421,491.14682 C 138.19217,491.14682 135.20069,485.21788 130.73625,485.21788 C 123.64988,485.21788 122.16085,488.44609 119.72537,494.53478 C 116.72648,502.03198 109.56147,492.90569 109.56147,489.45284 C 109.56147,484.90859 116.84766,486.7435 118.87837,487.75886 C 124.09739,490.36837 118.58043,494.6779 126.50129,493.68779 C 131.76354,493.03001 131.3627,496.66983 134.12421,491.14682 C 136.80083,485.79358 128.39565,485.21788 125.6543,485.21788 C 119.74236,485.21788 119.60066,485.94882 116.3374,490.29983 C 115.20894,491.80445 105.03302,493.68779 112.94944,493.68779 C 120.28994,493.68779 122.49089,490.18755 129.04227,486.91186"
       id="path2319" />
  </g>
</svg>
