<?xml version="1.0" encoding="UTF-8" standalone="no"?>
<svg
   xmlns:dc="http://purl.org/dc/elements/1.1/"
   xmlns:cc="http://creativecommons.org/ns#"
   xmlns:rdf="http://www.w3.org/1999/02/22-rdf-syntax-ns#"
   xmlns:svg="http://www.w3.org/2000/svg"
   xmlns="http://www.w3.org/2000/svg"
   xmlns:sodipodi="http://sodipodi.sourceforge.net/DTD/sodipodi-0.dtd"
   xmlns:inkscape="http://www.inkscape.org/namespaces/inkscape"
   width="628.13739"
   height="432.31015"
   id="svg2"
   sodipodi:version="0.32"
   inkscape:version="1.0 (4035a4fb49, 2020-05-01)"
   sodipodi:docname="PhD_typique.svg"
   inkscape:output_extension="org.inkscape.output.svg.inkscape"
   version="1.0">
  <defs
     id="defs4">
    <rect
       x="-1262.5229"
       y="2478.9375"
       width="610.53632"
       height="446.36237"
       id="rect159" />
  </defs>
  <sodipodi:namedview
     fit-margin-bottom="5"
     fit-margin-right="5"
     fit-margin-left="5"
     fit-margin-top="5"
     id="base"
     pagecolor="#ffffff"
     bordercolor="#666666"
     borderopacity="1.0"
     inkscape:pageopacity="0.0"
     inkscape:pageshadow="2"
     inkscape:zoom="1.0761588"
     inkscape:cx="116.43253"
     inkscape:cy="215.78862"
     inkscape:document-units="px"
     inkscape:current-layer="g3222"
     inkscape:window-width="1920"
     inkscape:window-height="1015"
     inkscape:window-x="0"
     inkscape:window-y="0"
     showgrid="false"
     inkscape:document-rotation="0"
     inkscape:window-maximized="1" />
  <metadata
     id="metadata7">
    <rdf:RDF>
      <cc:Work
         rdf:about="">
        <dc:format>image/svg+xml</dc:format>
        <dc:type
           rdf:resource="http://purl.org/dc/dcmitype/StillImage" />
        <dc:title></dc:title>
      </cc:Work>
    </rdf:RDF>
  </metadata>
  <g
     inkscape:label="Calque 1"
     inkscape:groupmode="layer"
     id="layer1"
     transform="translate(-41.999208,-29.023699)">
    <g
       id="g3222"
       transform="matrix(0.204029,0,0,0.204029,307.61,81.20335)">
      <g
         transform="translate(-12636.57,-8884.352)"
         id="Standard"
         visibility="visible"
         style="visibility:visible;fill-rule:evenodd">
        <desc
           id="desc1511">Master slide</desc>
        <g
           id="g1513">
          <desc
             id="desc1515">Date/Time</desc>
          <g
             id="g1517">
            <g
               id="g1519">
              <g
                 id="g1521"
                 style="font-weight:400;font-size:493px;font-family:'Nimbus Roman No9 L embedded'">
                <g
                   id="g1523"
                   style="fill:#1a1a1a;stroke:none" />
              </g>
            </g>
          </g>
        </g>
        <g
           id="g1525">
          <desc
             id="desc1527">Footer</desc>
          <g
             id="g1529">
            <g
               id="g1531">
              <g
                 id="g1533"
                 style="font-weight:400;font-size:493px;font-family:'Nimbus Roman No9 L embedded'">
                <g
                   id="g1535"
                   style="fill:#1a1a1a;stroke:none" />
              </g>
            </g>
          </g>
        </g>
      </g>
      <g
         transform="matrix(0.218201,0,0,0.218201,-2548.7142,-1375.6151)"
         style="visibility:visible;fill:none;fill-rule:evenodd;stroke:#808080"
         id="g1554">
        <path
           style="fill:none"
           d="M 13422,13365 H 7325 V 5381 h 12194 v 7984 h -6097"
           id="path1556" />
      </g>
      <path
         id="path1560"
         d="M 1710.5693,1540.6413 H -950.39189"
         style="visibility:visible;fill:none;fill-rule:evenodd;stroke:#1a1a1a;stroke-width:0.218201" />
      <path
         id="path1562"
         d="M 1710.5693,1366.2987 H -950.39189"
         style="visibility:visible;fill:none;fill-rule:evenodd;stroke:#838383;stroke-width:2.45063;stroke-miterlimit:4;stroke-dasharray:none;stroke-opacity:1" />
      <path
         id="path1564"
         d="M 1710.5693,1192.1743 H -950.39189"
         style="visibility:visible;fill:none;fill-rule:evenodd;stroke:#838383;stroke-width:2.45063;stroke-miterlimit:4;stroke-dasharray:none;stroke-opacity:1" />
      <path
         id="path1566"
         d="M 1710.5693,1017.8317 H -950.39189"
         style="visibility:visible;fill:none;fill-rule:evenodd;stroke:#838383;stroke-width:2.45063;stroke-miterlimit:4;stroke-dasharray:none;stroke-opacity:1" />
      <path
         id="path1568"
         d="M 1710.5693,843.70728 H -950.39189"
         style="visibility:visible;fill:none;fill-rule:evenodd;stroke:#838383;stroke-width:2.45063;stroke-miterlimit:4;stroke-dasharray:none;stroke-opacity:1" />
      <path
         id="path1570"
         d="M 1710.5693,669.36468 H -950.39189"
         style="visibility:visible;fill:none;fill-rule:evenodd;stroke:#838383;stroke-width:2.45063;stroke-miterlimit:4;stroke-dasharray:none;stroke-opacity:1" />
      <path
         id="path1572"
         d="M 1710.5693,495.24028 H -950.39189"
         style="visibility:visible;fill:none;fill-rule:evenodd;stroke:#838383;stroke-width:2.45063;stroke-miterlimit:4;stroke-dasharray:none;stroke-opacity:1" />
      <path
         id="path1574"
         d="M 1710.5693,320.89768 H -950.39189"
         style="visibility:visible;fill:none;fill-rule:evenodd;stroke:#838383;stroke-width:2.45063;stroke-miterlimit:4;stroke-dasharray:none;stroke-opacity:1" />
      <path
         id="path1576"
         d="M 1710.5693,146.77329 H -950.39189"
         style="visibility:visible;fill:none;fill-rule:evenodd;stroke:#838383;stroke-width:2.45063;stroke-miterlimit:4;stroke-dasharray:none;stroke-opacity:1" />
      <path
         id="path1578"
         d="M 1710.5693,-27.569313 H -950.39189"
         style="visibility:visible;fill:none;fill-rule:evenodd;stroke:#838383;stroke-width:2.45063;stroke-miterlimit:4;stroke-dasharray:none;stroke-opacity:1" />
      <path
         id="path1580"
         d="M 1710.5693,-201.69371 H -950.39189"
         style="visibility:visible;fill:none;fill-rule:evenodd;stroke:#838383;stroke-width:2.45063;stroke-miterlimit:4;stroke-dasharray:none;stroke-opacity:1" />
      <g
         transform="matrix(0.218201,0,0,0.218201,-2548.7142,-1375.6151)"
         id="g1584"
         style="font-weight:400;font-size:353px;font-family:'Arial embedded';visibility:visible;fill:#000000;fill-opacity:1;fill-rule:evenodd;stroke:none">
        <text
           style="line-height:0%;fill:#000000;fill-opacity:1"
           id="text1586"><tspan
             style="fill:#000000;fill-opacity:1"
             id="tspan1588"
             y="13966"
             x="7230">0</tspan></text>
        <text
           style="line-height:0%;fill:#000000;fill-opacity:1"
           id="text1590"><tspan
             style="fill:#000000;fill-opacity:1"
             id="tspan1592"
             y="13966"
             x="8659 8844">10</tspan></text>
        <text
           style="line-height:0%;fill:#000000;fill-opacity:1"
           id="text1594"><tspan
             style="fill:#000000;fill-opacity:1"
             id="tspan1596"
             y="13966"
             x="10193 10378">20</tspan></text>
        <text
           style="line-height:0%;fill:#000000;fill-opacity:1"
           id="text1598"><tspan
             style="fill:#000000;fill-opacity:1"
             id="tspan1600"
             y="13966"
             x="11701 11886">30</tspan></text>
        <text
           style="line-height:0%;fill:#000000;fill-opacity:1"
           id="text1602"><tspan
             style="fill:#000000;fill-opacity:1"
             id="tspan1604"
             y="13966"
             x="13236 13421">40</tspan></text>
        <text
           style="line-height:0%;fill:#000000;fill-opacity:1"
           id="text1606"><tspan
             style="fill:#000000;fill-opacity:1"
             id="tspan1608"
             y="13966"
             x="14770 14955">50</tspan></text>
        <text
           style="line-height:0%;fill:#000000;fill-opacity:1"
           id="text1610"><tspan
             style="fill:#000000;fill-opacity:1"
             id="tspan1612"
             y="13966"
             x="16279 16464">60</tspan></text>
        <text
           style="line-height:0%;fill:#000000;fill-opacity:1"
           id="text1614"><tspan
             style="fill:#000000;fill-opacity:1"
             id="tspan1616"
             y="13966"
             x="17813 17998">70</tspan></text>
        <text
           style="line-height:0%;fill:#000000;fill-opacity:1"
           id="text1618"><tspan
             style="fill:#000000;fill-opacity:1"
             id="tspan1620"
             y="13966"
             x="19348 19533">80</tspan></text>
      </g>
      <g
         transform="matrix(0.218201,0,0,0.218201,-2548.7142,-1375.6151)"
         id="g1622"
         style="font-weight:400;font-size:353px;font-family:'Arial embedded';visibility:visible;fill:#000000;fill-opacity:1;fill-rule:evenodd;stroke:#1a1a1a;stroke-width:22.4622;stroke-miterlimit:4;stroke-dasharray:none">
        <path
           id="path1624"
           d="m 7325,13515 v -150"
           style="fill:#000000;fill-opacity:1;stroke-width:22.4622;stroke-miterlimit:4;stroke-dasharray:none" />
        <path
           id="path1626"
           d="m 8849,13515 v -150"
           style="fill:#000000;fill-opacity:1;stroke-width:22.4622;stroke-miterlimit:4;stroke-dasharray:none" />
        <path
           id="path1628"
           d="m 10373,13515 v -150"
           style="fill:#000000;fill-opacity:1;stroke-width:22.4622;stroke-miterlimit:4;stroke-dasharray:none" />
        <path
           id="path1630"
           d="m 11898,13515 v -150"
           style="fill:#000000;fill-opacity:1;stroke-width:22.4622;stroke-miterlimit:4;stroke-dasharray:none" />
        <path
           id="path1632"
           d="m 13422,13515 v -150"
           style="fill:#000000;fill-opacity:1;stroke-width:22.4622;stroke-miterlimit:4;stroke-dasharray:none" />
        <path
           id="path1634"
           d="m 14946,13515 v -150"
           style="fill:#000000;fill-opacity:1;stroke-width:22.4622;stroke-miterlimit:4;stroke-dasharray:none" />
        <path
           id="path1636"
           d="m 16471,13515 v -150"
           style="fill:#000000;fill-opacity:1;stroke-width:22.4622;stroke-miterlimit:4;stroke-dasharray:none" />
        <path
           id="path1638"
           d="m 17995,13515 v -150"
           style="fill:#000000;fill-opacity:1;stroke-width:22.4622;stroke-miterlimit:4;stroke-dasharray:none" />
        <path
           id="path1640"
           d="m 19520,13515 v -150"
           style="fill:#000000;fill-opacity:1;stroke-width:22.4622;stroke-miterlimit:4;stroke-dasharray:none" />
        <path
           id="path1642"
           d="M 7325,13365 H 19520"
           style="fill:#000000;fill-opacity:1;stroke-width:22.4622;stroke-miterlimit:4;stroke-dasharray:none" />
      </g>
      <g
         transform="matrix(0.218201,0,0,0.218201,-2548.7142,-1375.6151)"
         id="g1644"
         style="font-weight:400;font-size:353px;font-family:'Arial embedded';visibility:visible;fill:#000000;fill-opacity:1;fill-rule:evenodd;stroke:none">
        <text
           style="line-height:0%;fill:#000000;fill-opacity:1"
           id="text1646"><tspan
             style="fill:#000000;fill-opacity:1"
             id="tspan1648"
             y="13490"
             x="6701 6886">10</tspan></text>
        <text
           style="line-height:0%;fill:#000000;fill-opacity:1"
           id="text1650"><tspan
             style="fill:#000000;fill-opacity:1"
             id="tspan1652"
             y="12696"
             x="6701 6886">11</tspan></text>
        <text
           style="line-height:0%;fill:#000000;fill-opacity:1"
           id="text1654"><tspan
             style="fill:#000000;fill-opacity:1"
             id="tspan1656"
             y="11876"
             x="6701 6886">12</tspan></text>
        <text
           style="line-height:0%;fill:#000000;fill-opacity:1"
           id="text1658"><tspan
             style="fill:#000000;fill-opacity:1"
             id="tspan1660"
             y="11082"
             x="6701 6886">13</tspan></text>
        <text
           style="line-height:0%;fill:#000000;fill-opacity:1"
           id="text1662"><tspan
             style="fill:#000000;fill-opacity:1"
             id="tspan1664"
             y="10288"
             x="6701 6886">14</tspan></text>
        <text
           style="line-height:0%;fill:#000000;fill-opacity:1"
           id="text1666"><tspan
             style="fill:#000000;fill-opacity:1"
             id="tspan1668"
             y="9494"
             x="6701 6886">15</tspan></text>
        <text
           style="line-height:0%;fill:#000000;fill-opacity:1"
           id="text1670"><tspan
             style="fill:#000000;fill-opacity:1"
             id="tspan1672"
             y="8701"
             x="6701 6886">16</tspan></text>
        <text
           style="line-height:0%;fill:#000000;fill-opacity:1"
           id="text1674"><tspan
             style="fill:#000000;fill-opacity:1"
             id="tspan1676"
             y="7907"
             x="6701 6886">17</tspan></text>
        <text
           style="line-height:0%;fill:#000000;fill-opacity:1"
           id="text1678"><tspan
             style="fill:#000000;fill-opacity:1"
             id="tspan1680"
             y="7087"
             x="6701 6886">18</tspan></text>
        <text
           style="line-height:0%;fill:#000000;fill-opacity:1"
           id="text1682"><tspan
             style="fill:#000000;fill-opacity:1"
             id="tspan1684"
             y="6293"
             x="6701 6886">19</tspan></text>
        <text
           style="line-height:0%;fill:#000000;fill-opacity:1"
           id="text1686"><tspan
             style="fill:#000000;fill-opacity:1"
             id="tspan1688"
             y="5499"
             x="6701 6886">20</tspan></text>
      </g>
      <g
         transform="matrix(0.218201,0,0,0.218201,-2548.7142,-1375.6151)"
         id="g1690"
         style="font-weight:400;font-size:353px;font-family:'Arial embedded';visibility:visible;fill:#000000;fill-opacity:1;fill-rule:evenodd;stroke:#1a1a1a;stroke-width:22.4622;stroke-miterlimit:4;stroke-dasharray:none">
        <path
           id="path1692"
           d="m 7175,13365 h 150"
           style="fill:#000000;fill-opacity:1;stroke-width:22.4622;stroke-miterlimit:4;stroke-dasharray:none" />
        <path
           id="path1694"
           d="m 7175,12566 h 150"
           style="fill:#000000;fill-opacity:1;stroke-width:22.4622;stroke-miterlimit:4;stroke-dasharray:none" />
        <path
           id="path1696"
           d="m 7175,11768 h 150"
           style="fill:#000000;fill-opacity:1;stroke-width:22.4622;stroke-miterlimit:4;stroke-dasharray:none" />
        <path
           id="path1698"
           d="m 7175,10969 h 150"
           style="fill:#000000;fill-opacity:1;stroke-width:22.4622;stroke-miterlimit:4;stroke-dasharray:none" />
        <path
           id="path1700"
           d="m 7175,10171 h 150"
           style="fill:#000000;fill-opacity:1;stroke-width:22.4622;stroke-miterlimit:4;stroke-dasharray:none" />
        <path
           id="path1702"
           d="m 7175,9372 h 150"
           style="fill:#000000;fill-opacity:1;stroke-width:22.4622;stroke-miterlimit:4;stroke-dasharray:none" />
        <path
           id="path1704"
           d="m 7175,8573 h 150"
           style="fill:#000000;fill-opacity:1;stroke-width:22.4622;stroke-miterlimit:4;stroke-dasharray:none" />
        <path
           id="path1706"
           d="m 7175,7775 h 150"
           style="fill:#000000;fill-opacity:1;stroke-width:22.4622;stroke-miterlimit:4;stroke-dasharray:none" />
        <path
           id="path1708"
           d="m 7175,6976 h 150"
           style="fill:#000000;fill-opacity:1;stroke-width:22.4622;stroke-miterlimit:4;stroke-dasharray:none" />
        <path
           id="path1710"
           d="m 7175,6178 h 150"
           style="fill:#000000;fill-opacity:1;stroke-width:22.4622;stroke-miterlimit:4;stroke-dasharray:none" />
        <path
           id="path1712"
           d="m 7175,5379 h 150"
           style="fill:#000000;fill-opacity:1;stroke-width:22.4622;stroke-miterlimit:4;stroke-dasharray:none" />
        <path
           id="path1714"
           d="M 7325,13365 V 5380"
           style="fill:#000000;fill-opacity:1;stroke-width:22.4622;stroke-miterlimit:4;stroke-dasharray:none" />
      </g>
      <g
         transform="matrix(0.218201,0,0,0.218201,-2548.7142,-1375.6151)"
         id="g1716"
         style="font-weight:400;font-size:353px;font-family:'Arial embedded';visibility:visible;fill:none;fill-opacity:1;fill-rule:evenodd;stroke:#ff6309;stroke-width:15;stroke-miterlimit:4;stroke-dasharray:none">
        <path
           id="path1718"
           d="m 7325,6765 3,-2 4,-4 2,-1 4,-3 5,-2 3,-1 6,-1 h 8 l 6,3 7,3 3,2 h 3 l 6,1 8,-2 6,-3 3,-1 5,-2 6,-2 8,2 3,2 3,2 3,2 4,4 2,1 4,3 6,1 8,-2 5,-3 1,-1 5,-3 3,-2 4,-2 2,-1 8,1 6,4 1,1 5,5 1,1 3,4 3,3 2,1 6,5 6,3 3,1 3,1 8,1 h 6 l 7,2 2,1 5,1 7,3 6,3 3,2 3,1 8,3 h 2 l 4,2 6,3 2,1 6,3 1,1 6,5 5,4 2,1 4,5 3,3 2,1 4,4 6,5 6,5 h 2 l 6,4 8,4 h 1 l 5,3 4,2 3,2 5,2 2,1 6,4 1,2 6,4 6,4 2,1 4,3 2,1 6,5 6,3 2,1 6,4 h 1 l 6,3 3,2 4,1 6,4 1,1 5,3 1,2 3,3 5,6 3,5 3,5 1,2 4,6 1,2 2,3 3,5 3,5 3,4 3,4 4,4 3,2 6,2 h 2 l 6,2 6,2 2,1 4,5 3,5 3,6 2,3 3,6 1,4 2,3 3,8 2,3 1,4 2,3 1,3 2,3 3,6 3,4 4,4 6,2 8,-1 5,-2 1,-1 6,-2 6,-1 h 2 4 2 l 8,4 1,1 5,4 4,6 3,4 3,5 3,5 3,6 2,3 3,5 3,6 2,3 1,2 2,3 3,5 1,2 2,2 3,4 3,4 1,2 3,3 2,2 3,3 5,4 4,5 2,2 3,3 3,4 1,2 3,4 3,5 3,4 4,4 1,2 2,2 4,6 3,4 3,3 3,2 5,3 1,1 5,3 3,1 5,4 3,2 3,4 1,1 3,5 3,5 3,5 2,3 1,3 2,3 1,3 3,6 2,3 3,6 3,5 3,4 5,5 6,3 h 3 3 l 8,1 6,3 1,2 5,5 1,3 2,3 1,2 3,7 2,3 3,7 1,3 2,4 3,7 2,3 1,3 3,7 2,2 1,3 2,2 3,5 3,3 1,1 5,4 1,1 7,5 6,5 3,4 4,6 3,5 3,5 2,3 3,5 3,6 1,3 4,6 1,3 3,6 3,5 2,3 3,5 3,4 3,4 3,4 1,2 3,4 3,4 2,1 5,5 4,5 3,3 2,1 4,5 5,5 3,3 1,2 4,3 1,2 3,4 3,4 3,4 3,5 2,2 1,2 3,5 2,2 1,3 3,4 3,5 4,4 3,4 1,2 3,3 3,3 3,3 3,3 2,1 6,6 4,4 2,2 2,2 3,4 1,3 2,2 3,6 3,6 1,3 3,6 2,3 3,7 1,3 3,6 2,2 3,5 2,3 1,2 5,4 1,2 6,2 8,2 6,2 2,1 6,5 4,6 2,2 1,3 2,2 3,6 3,5 3,6 1,3 3,5 4,5 3,4 3,4 1,2 3,3 3,3 2,1 6,5 6,5 5,4 1,2 3,4 3,5 2,2 1,3 3,5 2,2 3,5 3,5 1,2 2,2 4,6 5,4 3,2 6,2 h 3 5 l 6,1 6,4 2,1 4,5 2,2 1,2 3,5 2,2 1,2 3,6 2,2 1,3 2,3 3,5 1,3 2,2 2,3 3,5 1,2 2,2 4,6 3,4 5,5 4,5 2,1 4,3 2,1 6,4 h 2 l 6,3 1,1 6,3 3,2 3,2 3,2 5,4 2,2 3,3 1,2 3,4 3,4 2,2 1,3 3,4 2,2 3,5 3,4 3,5 3,4 2,2 1,2 3,5 2,2 1,2 5,6 1,2 2,1 4,5 5,5 3,2 3,3 3,2 3,2 5,3 1,1 5,4 1,2 5,4 5,5 3,4 3,5 3,4 4,6 3,5 3,4 3,4 5,6 3,3 5,4 1,2 5,4 3,2 1,1 5,4 1,1 6,5 7,6 4,4 2,1 3,4 4,5 3,3 3,4 2,2 3,4 3,4 5,7 1,2 2,2 3,4 3,5 3,4 3,4 4,6 3,3 5,5 2,1 4,4 2,2 3,2 4,4 2,2 4,4 5,5 3,3 1,2 4,4 1,2 2,2 4,5 2,2 1,2 5,5 6,5 6,4 1,1 7,2 4,2 3,2 5,2 1,2 5,4 3,3 1,2 4,5 1,2 2,2 3,5 3,5 1,3 3,5 2,3 1,2 3,5 2,3 1,2 3,4 3,5 4,4 3,3 1,2 3,4 3,3 2,2 4,4 5,5 3,3 3,2 3,3 2,2 4,4 2,1 3,3 3,3 1,2 5,5 4,5 3,4 5,6 2,2 1,2 5,5 1,2 2,2 4,5 5,4 3,3 3,2 3,2 3,3 5,3 1,1 5,4 1,1 5,5 1,1 3,4 3,3 5,7 2,2 1,2 3,4 3,5 3,4 3,5 3,4 3,4 2,2 3,4 3,4 3,4 5,6 3,5 3,4 3,4 3,5 1,2 2,2 3,5 1,2 2,3 3,5 1,2 2,2 3,5 3,4 2,1 3,4 1,1 3,3 5,3 4,2 h 2 l 8,2 6,3 6,4 4,6 3,4 3,4 3,5 4,5 3,5 1,2 2,2 4,6 3,3 5,3 3,2 3,1 8,2 4,1 2,1 6,4 4,6 3,4 3,5 3,5 3,5 4,5 1,2 3,5 3,4 2,2 4,4 2,1 6,3 8,2 6,2 1,1 5,3 3,3 3,3 1,2 3,4 3,5 3,4 4,5 1,2 2,3 3,4 1,2 2,2 3,4 3,3 1,2 5,4 1,1 6,4 7,4 1,1 6,5 5,5 1,1 3,3 3,4 2,2 3,3 3,4 2,2 3,3 1,2 3,3 5,5 4,5 2,2 3,3 4,4 5,4 2,2 3,2 4,4 2,2 4,3 2,2 4,4 6,5 2,1 3,3 3,3 2,2 4,4 2,2 3,3 3,4 1,1 3,4 3,3 2,2 5,5 4,5 2,2 3,3 4,4 5,4 1,1 5,4 3,3 1,1 5,4 2,1 4,5 2,1 4,4 2,2 3,3 4,5 3,3 4,3 1,2 5,6 3,4 3,4 1,2 3,4 3,3 5,6 3,3 6,5 8,4 1,1 h 5 l 7,2 6,2 h 2 l 5,4 1,1 5,6 1,2 2,2 3,5 1,2 2,2 3,5 3,5 3,4 3,3 2,2 4,4 h 2 l 6,2 7,1 5,1 h 1 l 8,5 5,5 1,2 2,2 3,5 1,2 2,2 3,5 3,5 3,4 3,4 2,2 4,4 2,1 6,3 7,3 6,1 3,1 5,2 5,3 1,1 5,4 1,2 3,2 5,5 4,4 2,2 3,3 5,3 1,2 5,3 1,1 6,4 6,5 2,1 5,3 1,1 6,5 6,5 5,4 3,3 1,1 5,5 1,1 5,4 2,1 4,4 2,2 3,2 4,4 2,1 4,3 3,1 5,2 6,2 3,1 3,1 8,2 6,2 8,4 1,1 5,4 1,1 5,4 1,1 3,4 3,3 2,1 4,5 3,4 5,5 5,5 1,2 3,3 5,4 6,5 8,3 4,1 h 2 l 7,1 6,1 8,3 6,4 6,5 5,5 3,2 3,3 3,3 1,1 6,4 2,1 5,2 4,2 3,1 6,3 3,1 3,2 6,3 2,1 5,3 1,1 5,4 3,3 1,1 5,5 4,5 3,4 2,2 3,4 2,2 1,1 5,6 1,2 3,3 3,3 2,2 4,3 2,1 6,2 6,1 8,1 6,1 6,4 1,1 3,3 4,3 1,2 5,5 1,2 2,2 4,6 3,4 5,5 4,5 2,1 3,3 3,2 2,2 6,4 h 1 l 5,3 7,2 7,1 7,3 3,1 3,2 3,3 3,3 2,2 3,4 3,5 3,5 3,5 2,3 3,5 3,5 3,5 3,4 4,5 3,2 6,2 8,1 6,1 8,3 6,4 4,5 2,1 3,4 5,5 4,5 2,2 3,2 4,4 6,5 h 2 l 6,4 2,1 4,2 5,3 1,1 5,3 3,2 4,3 2,1 6,4 2,1 6,2 1,1 6,1 h 6 l 8,1 6,3 6,5 3,4 3,4 2,3 1,2 3,6 2,3 1,3 2,3 3,5 2,3 3,6 3,5 3,4 4,5 5,3 1,1 8,2 6,1 h 8 6 l 4,1 h 2 l 8,4 1,1 5,5 3,4 3,5 1,3 2,2 3,7 1,3 3,6 2,3 1,3 2,4 2,3 1,3 3,5 3,5 3,4 5,4 3,2 6,2 8,1 h 1 l 5,1 6,4 1,2 3,3 3,3 2,2 3,4 3,4 5,6 1,2 2,2 4,4 2,1 6,4 6,2 8,1 6,1 7,2 6,3 8,5 5,4 1,2 3,3 3,3 2,2 3,4 3,5 1,2 3,4 2,2 1,2 3,5 3,4 5,5 2,2 3,3 4,3 2,1 4,1 8,3 h 1 l 5,1 6,3 3,1 5,3 1,1 5,4 1,1 6,5 7,5 7,4 6,3 6,2 h 2 l 6,2 5,2 3,2 6,3 6,5 6,4 1,1 7,4 7,4 2,1 4,1 6,3 h 2 l 6,3 3,2 3,2 3,3 5,4 4,4 2,2 3,3 4,5 5,5 2,1 4,4 3,2 3,2 3,2 5,2 3,2 6,3 h 1 l 7,3 3,2 3,2 4,2 2,1 7,4 h 2 l 4,2 8,2 h 6 8 l 6,1 6,3 3,1 5,4 1,1 5,4 1,1 5,4 1,2 5,4 1,1 4,2 4,3 3,2 3,1 8,3 3,1 3,1 6,1 6,2 2,1 6,2 6,2 1,1 6,3 2,1 6,3 3,2 3,1 5,3 3,2 4,3 2,1 7,4 7,3 3,1 3,2 6,2 1,1 6,3 3,1 5,3 5,2 1,1 6,3 2,1 6,5 6,4 5,5 3,3 1,1 5,4 6,6 1,2 3,2 3,3 3,2 5,2 5,2 1,1 8,3 3,1 3,1 6,4 1,1 5,4 2,2 3,3 3,3 4,6 3,4 5,6 1,1 2,2 4,6 2,2 2,2 4,5 3,3 5,5 4,5 2,1 4,4 2,1 4,4 4,2 4,2 2,1 6,4 1,1 6,3 6,5 2,1 6,4 5,4 3,2 3,2 3,3 4,3 2,1 6,3 1,1 7,3 1,1 6,4 2,1 4,3 2,2 4,4 2,2 3,3 3,4 5,5 3,4 4,5 2,2 3,3 4,5 6,4 7,4 1,1 6,4 2,1 4,3 2,1 4,5 2,2 3,3 3,4 5,6 3,3 4,6 2,1 1,2 5,4 1,1 6,4 2,1 5,2 6,2 1,1 6,4 6,5 2,1 3,4 3,3 5,6 3,4 4,5 2,1 4,4 3,2 6,1 7,1 7,-1 3,1 h 3 l 8,5 4,4 2,1 3,4 5,5 4,5 2,2 3,3 3,2 1,1 6,4 3,1 3,1 8,2 6,2 8,4 1,1 5,3 1,2 5,4 2,1 4,4 2,1 3,3 3,2 3,2 4,3 5,2 1,1 8,3 3,1 h 3 l 8,2 6,1 8,1 6,2 7,3 6,3 3,2 3,2 3,3 5,4 6,6 3,3 5,5 4,5 2,2 3,3 5,5 4,4 2,1 6,2 h 7 l 6,-2 8,-2 6,-1 6,1 2,1 6,4 6,5 1,2 4,3 3,3 1,1 6,6 5,3 1,1 6,5 8,4 6,4 h 2 l 6,4 1,1 5,3 3,2 4,3 4,1 3,2 4,3 2,2 4,3 3,2 5,3 1,1 5,3 3,2 5,3 1,1 6,3 2,1 6,4 7,5 7,3 1,1 5,4 1,1 6,4 6,5 6,6 2,1 3,2 3,3 3,2 5,4 1,1 5,4 1,1 6,4 7,4 7,5 6,3 3,2 3,2 5,2 3,2 6,3 8,4 6,4 1,1 6,4 2,1 4,3 2,1 5,4 3,2 4,4 6,4 6,5 2,2 4,3 2,1 5,4 3,2 3,2 3,2 3,3 4,3 2,1 4,4 2,2 5,4 1,2 3,3 3,4 5,5 1,2 2,2 4,5 2,2 3,3 3,2 3,2 5,3 6,1 1,1 6,1 6,1 7,3 6,4 1,2 3,3 3,3 2,2 4,5 2,1 3,3 3,3 1,1 7,5 6,3 4,2 3,1 6,3 h 2 l 5,3 3,2 4,4 2,1 4,5 5,4 3,4 1,2 3,3 2,2 3,4 3,4 2,2 3,3 3,4 4,5 3,3 2,2 4,3 2,1 6,3 6,1 h 6 l 8,1 6,2 3,3 5,5 3,4 3,4 3,5 3,5 1,2 2,3 3,4 1,2 2,2 4,5 2,1 5,3 1,1 6,1 8,1 6,1 1,1 7,4 4,5 2,2 3,4 3,4 1,2 3,4 3,3 5,6 1,1 3,3 5,3 2,1 4,2 5,2 3,2 6,2 1,1 6,4 2,1 5,3 1,1 6,5 6,5 6,4 8,5 6,4 2,1 6,3 1,1 5,3 3,2 4,4 7,6 4,4 3,3 2,1 4,5 2,1 4,4 8,5 6,3 2,1 6,4 1,1 5,3 3,2 4,4 7,5 4,4 3,3 2,2 4,4 2,1 4,4 2,1 6,4 6,3 3,1 5,3 4,2 2,1 6,4 1,1 5,3 2,1 4,4 3,3 3,3 3,2 2,2 6,5 4,3 2,2 5,3 1,1 5,4 3,2 3,2 3,3 3,2 4,4 2,1 4,4 7,6 1,1 3,2 3,3 3,2 3,2 5,3 3,2 4,3 h 2 l 6,4 2,1 6,4 6,5 1,1 3,3 3,3 4,3 4,4 5,4 1,1 5,4 1,1 5,4 3,2 4,2 2,1 6,4 2,1 4,4 2,1 3,3 4,5 5,5 1,2 2,2 5,6 1,1 2,2 4,5 6,4 2,1 6,1 h 6 l 8,-1 h 6 l 7,4 6,5 5,4 3,4 2,1 4,5 5,5 3,4 6,5 6,5 8,3 1,1 5,1 7,1 6,-1 8,1 6,2 2,1 4,4 2,2 3,4 3,5 3,5 1,3 2,3 1,3 3,5 2,3 2,3 1,2 3,5 2,2 1,2 5,4 1,1 6,2 8,1 h 3 l 3,1 6,2 3,2 5,4 1,2 3,3 2,2 3,4 3,4 2,2 3,3 3,3 1,2 6,4 6,3 5,1 3,1 6,2 6,2 8,5 6,4 6,5 1,2 5,3 2,1 4,3 3,2 6,3 8,3 3,2 3,1 6,3 2,1 6,3 1,1 5,3 3,2 4,4 2,1 5,4 6,5 1,1 5,4 1,1 3,3 5,4 1,1 5,4 2,1 6,4 6,4 1,1 5,2 3,2 4,3 3,2 4,2 3,2 4,4 2,1 4,5 5,4 3,3 1,2 5,5 5,4 3,3 1,2 5,4 1,1 5,4 6,5 1,1 7,4 7,4 6,4 2,1 6,3 1,1 5,4 1,1 5,4 2,1 4,5 2,2 3,3 3,4 4,6 3,3 5,5 1,2 4,3 4,4 6,5 8,4 6,4 1,1 5,4 2,1 6,5 4,4 2,2 3,3 4,5 5,4 1,2 4,3 4,5 5,5 1,1 3,3 5,4 4,5 2,1 4,4 2,1 5,3 3,3 3,2 3,2 3,2 4,3 3,2 3,3 2,1 6,5 5,5 1,1 3,3 5,4 1,2 5,3 7,5 7,3 3,1 3,2 7,2 3,1 3,2 7,3 1,1 5,4 1,1 5,4 3,3 1,1 5,4 1,1 6,4 7,3 4,2 h 2 l 7,2 6,1 6,1 2,1 6,1 8,2 4,1 h 2 l 6,2 8,2 1,1 5,1 7,2 5,1 1,1 8,1 h 6 l 8,1 6,1 4,1 2,1 8,4 6,4 h 1 l 6,4 3,1 3,1 h 8 l 6,-2 8,-3 3,-1 3,-2 6,-1 7,-1 7,1 7,1 6,1 h 8 l 6,-1 8,-2 1,-1 5,-1 7,-3 h 5 l 1,-1 7,-1 h 7 6 l 8,1 4,1 h 2 l 8,2 6,1 h 7 6 7 7 6 l 8,1 h 1 l 5,2 8,1 6,1 h 6 l 7,-2 5,-2 h 2 l 7,-3 3,-1 3,-1 h 8 l 6,1 h 1 l 7,2 6,2 h 1 l 5,2 7,1 h 6 l 8,-1 6,-2 8,-2 6,-2 8,-3 6,-1 h 6 l 7,1 6,2 4,1 4,2 6,1 h 8 l 6,-1 8,-1 h 6 7 l 6,2 5,2 1,1 8,3 h 2 l 4,1 h 8 l 3,-1 3,-1 8,-4 6,-2 7,-1 6,1 6,2 2,1 6,2 5,2 1,1 8,1 h 6 l 7,-1 7,-1 h 1 l 5,-1 7,-1 h 6 8 l 6,-1 8,-1 3,-1 h 3 l 7,-2 7,-1 h 6 7 l 6,1 8,1 h 6 8 6 7 7 6 l 7,2 6,1 8,3 h 3 l 3,1 8,1 h 6 l 7,-1 7,-1 h 1 l 6,-1 6,-2 6,-1 3,-1 5,-1 6,-1 8,-2 6,-2 7,-1 h 6 l 8,2 3,1 3,1 6,3 2,1 6,2 6,1 8,-1 4,-3 2,-1 6,-4 1,-1 5,-3 1,-1 7,-3 7,-3 h 6 l 8,1 6,1 5,1 h 3 l 6,1 h 7 l 6,-1 h 7 l 7,-2 6,-2 5,-2 3,-1 6,-2 3,-1 5,-2 6,-2 3,-1 4,-1 6,-1 h 7 7 l 6,1 h 8 l 6,-1 8,-2 1,-1 5,-2 3,-2 4,-2 6,-2 8,-1 5,1 1,1 6,3 2,1 6,3 1,1 5,3 4,2 4,1 h 6 7 l 6,-2 8,-3 3,-1 3,-2 6,-4 8,-4 6,-3 1,-1 7,-3 4,-2 h 2 l 7,-1 h 6 l 5,2 1,1 7,4 1,1 5,4 1,1 5,3 3,2 6,2 7,-3 4,-2 3,-3 1,-2 5,-5 1,-2 3,-3 3,-3 2,-1 4,-3 h 8 l 6,2 5,2 3,2 6,3 7,1 7,-1 1,-1 6,-2 5,-2 1,-1 6,-3 3,-1 5,-2 6,-1 8,-1 h 6 l 3,-1 h 4 7 l 7,-1 h 6 l 8,-1 6,-1 6,-1 h 8 l 6,1 7,3 2,1 5,3 3,2 4,2 5,2 h 1 8 l 3,-1 3,-1 5,-3 1,-1 5,-4 3,-2 4,-3 2,-1 7,-1 6,1 8,2 6,2 h 6 l 8,-2 6,-4 3,-2 5,-2 3,-2 3,-1 7,-2 6,1 8,2 2,1 4,1 6,3 h 2 l 6,2 6,1 8,1 6,-1 7,-2 3,-1 3,-2 8,-3 6,-2 h 6 l 8,1 6,1 1,1 7,1 6,1 7,-2 2,-1 4,-2 5,-3 3,-2 5,-2 1,-1 8,-2 h 6 l 6,2 5,1 3,1 6,2 7,2 h 2 3 1 l 8,-1 6,-1 8,-1 6,-1 h 6 l 3,-1 5,-1 6,-1 7,-3 6,-3 3,-1 5,-3 6,-2 6,-1 8,1 1,1 5,1 6,3 2,1 6,3 1,1 6,3 3,1 3,1 8,2 h 6 l 6,-1 5,-2 3,-2 6,-3 7,-4 7,-3 7,-1 6,1 8,2 6,1 6,1 h 8 l 6,-1 h 1 l 6,-2 7,-1 7,-1 h 6 l 8,-1 h 6 l 8,-1 6,-2 6,-2 7,-3 5,-1 2,-1 7,-3 3,-1 3,-1 8,-2 6,-1 h 2 6 3 3 l 6,1 7,1 h 7 l 7,-1 6,-2 8,-2 6,-2 h 1 5 5 l 3,1 6,1 7,3 6,1 8,1 6,-1 8,-1 h 1 l 5,-2 6,-1 8,-1 6,-1 7,-2 6,-3 7,-5 1,-1 3,-3 3,-3 2,-2 6,-5 6,-4 6,-2 8,3 6,5 4,4 3,3 3,2 3,2 8,2 6,-2 6,-3 2,-1 4,-4 2,-1 4,-3 3,-2 5,-3 2,-1 6,-2 7,-1 6,-1 3,1 5,1 6,1 8,3 6,1 7,-1 4,-1 3,-1 6,-3 1,-1 6,-3 3,-2 3,-1 8,-1 6,1 8,2 6,2 h 6 8 l 6,-2 7,-3 6,-1 3,-1 h 5 6 3 l 5,1 6,1 6,1 h 8 l 6,-1 h 7 6 l 8,1 6,2 8,2 6,2 6,1 h 7 7 3 l 4,-1 h 6 l 3,1 5,1 6,1 6,2 2,1 6,2 7,1 h 6 l 7,-1 7,-2 3,-1 3,-1 8,-2 6,-1 3,-1 h 5 6 l 6,1 h 1 l 6,2 7,2 h 3 l 4,2 6,1 8,1 h 6 l 8,-1 6,-1 6,-1 h 7 7 l 7,1 6,1 8,2 h 1 l 5,1 8,2 h 6 l 6,1 7,-1 6,-2 7,-1 1,-1 6,-2 8,-2 6,-2 8,-2 h 3 l 3,-1 6,-2 7,-1 5,-1 h 1 l 8,-1 h 6 l 3,1 5,1 6,2 4,2 4,1 6,1 h 7 l 6,-2 2,-1 4,-2 5,-2 3,-2 6,-2 3,-1 h 5 l 4,1 h 2 l 8,2 6,1 6,1 h 1 2 l 4,-1 6,-2 8,-2 6,-2 8,-1 h 6 l 7,1 7,-1 6,-2 7,-4 2,-1 4,-3 3,-1 5,-3 5,-2 h 1 l 8,1 6,3 3,2 4,3 4,2 3,1 6,2 h 7 l 6,-3 5,-1 3,-2 6,-1 8,1 4,3 2,1 4,3 3,2 7,3 6,2 7,-2 3,-1 3,-2 5,-3 3,-2 5,-3 h 1 l 8,-3 h 6 l 7,1 7,1 7,2 h 2 l 4,1 6,1 8,-1 6,-1 h 3 l 5,-2 6,-3 h 1 l 6,-3 6,-2 h 8 l 3,1 3,1 6,2 3,2 5,2 4,2 2,1 8,2 6,1 7,-1 6,-1 7,-2 7,-3 3,-2 3,-1 8,-3 1,-1 5,-1 8,-3 h 3 l 3,-1 h 7 l 6,1 h 2 l 5,2 7,3 6,3 5,1 3,1 h 6 l 3,-1 5,-3 1,-1 5,-5 1,-1 5,-5 1,-1 3,-3 3,-2 7,-2 7,3 3,3 3,3 2,1 4,4 2,1 4,4 2,1 h 8 l 4,-2 2,-1 4,-3 3,-2 5,-3 1,-1 6,-2 8,2 3,2 3,2 3,2 5,4 1,1 5,3 6,1 2,1 3,-1 h 3 l 7,-4 2,-1 4,-3 3,-2 5,-3 1,-1 5,-3 2,-1 4,-3 5,-2 3,-1 6,-1 8,1 4,1 2,1 7,3 3,1 3,1 h 6 l 7,-2 h 1 l 6,-3 3,-1 5,-2 6,1 3,1 4,5 2,1 3,4 2,3 1,2 3,4 3,4 5,6 1,2 3,2 5,2 6,-2 2,-1 4,-4 2,-1 3,-4 3,-3 1,-2 5,-5 6,-4 1,-1 7,-1 7,-1 6,1 6,-1 6,-2 h 2 l 6,-3 2,-1 6,-3 4,-2 2,-1 7,-2 h 7 7 l 6,1 h 6 l 8,1 6,-1 h 8 l 6,-1 3,-1 4,-1 7,-2 6,-2 h 1 l 6,-2 h 8 6 l 6,1 8,1 6,2 7,1 6,1 5,1 h 3 6 6 l 8,-2 6,-1 6,-2 2,-1 6,-2 3,-2 4,-2 6,-2 8,-3 h 6 l 8,1 6,2 6,3 3,2 5,3 3,1 3,2 7,1 6,-1 8,-1 2,-1 4,-1 6,-1 8,-1 6,1 8,1 6,1 h 7 6 l 8,-2 6,-1 6,-2 8,-2 6,-2 h 1 l 7,-2 6,-1 h 7 6 l 8,1 6,1 8,1 h 3 l 3,1 h 6 l 8,2 6,1 4,1 h 3 l 6,2 8,1 6,1 h 6 l 8,-1 6,-1 8,-2 1,-1 5,-1 7,-3 h 3 l 3,-1 8,-2 h 6 8 l 6,2 6,1 7,2 h 7 l 7,-1 3,-1 3,-2 8,-3 6,-2 6,-1 8,2 4,2 h 2 l 7,4 h 2 l 5,2 h 7 l 6,-2 8,-4 1,-1 5,-2 5,-2 1,-1 8,-3 6,-1 h 1 l 6,-1 h 7 7 6 l 8,1 h 1 l 5,1 8,1 6,1 6,1 h 7 l 7,-1 7,-4 6,-4 8,-5 6,-3 6,-1 8,3 4,2 2,1 6,4 1,1 6,2 8,-1 6,-3 8,-5 6,-4 8,-2 6,1 3,1 3,2 4,3 3,2 5,3 1,1 7,4 1,1 6,2 3,1 5,1 6,2 6,1 h 3 l 5,1 6,2 7,1 3,1 3,1 8,2 6,2 8,1 6,1 h 6 l 8,-2 3,-1 h 3 l 7,-2 h 6 l 8,1 5,2 1,1 6,3 2,1 6,5 6,4 1,1 7,3 1,1 5,2 4,2 3,1 6,2 8,1 h 2 l 4,1 h 8 l 6,1 h 6 8 l 6,1 7,1 6,2 8,3 3,1 3,2 6,3 h 2 l 6,2 7,2 7,-1 6,-1 7,-2 3,-1 h 3 8 l 1,1 5,1 8,3 h 1 l 5,2 6,2 1,1 6,1 7,1 7,1 6,-1 8,-1 6,-1 2,-1 6,-1 6,-1 h 6 l 7,1 7,1 1,1 6,2 6,1 5,2 h 3 l 6,1 8,2 h 6 l 6,1"
           style="fill:none;fill-opacity:1;stroke-width:15;stroke-miterlimit:4;stroke-dasharray:none" />
      </g>
      <g
         transform="matrix(0.218201,0,0,0.218201,-2548.7142,-1375.6151)"
         id="g1720"
         style="font-weight:400;font-size:353px;font-family:'Arial embedded';visibility:visible;fill:none;fill-opacity:1;fill-rule:evenodd;stroke:#33a3a3;stroke-width:15;stroke-miterlimit:4;stroke-dasharray:none">
        <path
           id="path1722"
           d="m 7325,7014 h 4 l 3,-1 6,-1 8,-2 4,-2 h 2 l 6,-4 2,-1 4,-3 2,-2 6,-4 1,-1 6,-3 6,-1 7,2 1,1 6,3 8,5 6,3 h 8 l 6,-2 4,-2 3,-2 5,-2 1,-1 6,-2 8,-1 6,1 8,3 1,1 5,2 6,2 2,1 6,2 6,2 h 1 l 6,2 8,2 h 1 l 5,2 6,2 5,1 3,1 6,3 3,1 4,2 5,2 2,1 7,4 6,5 6,5 5,4 3,4 2,1 4,5 5,4 3,3 1,1 5,4 3,1 4,2 h 7 l 7,1 h 6 l 6,2 8,5 6,5 5,4 3,3 1,1 5,4 1,1 6,3 3,1 4,1 7,2 6,1 3,1 5,2 4,3 2,1 5,4 1,1 3,3 5,5 4,6 2,2 1,2 3,4 3,5 3,4 4,5 3,4 4,7 3,3 3,4 2,1 4,4 2,1 6,2 5,1 1,1 8,1 6,2 3,2 4,4 5,5 1,2 2,2 3,4 3,5 3,5 3,5 3,5 3,4 3,5 3,4 2,2 3,4 3,4 5,4 3,3 3,3 3,2 3,1 4,2 6,1 7,2 h 1 l 6,3 3,2 3,2 3,3 3,4 2,2 3,4 3,5 3,4 3,5 2,2 1,2 3,4 2,1 3,3 4,3 5,2 h 1 l 8,1 6,1 6,3 6,5 2,1 3,3 3,4 1,2 4,4 3,4 3,5 3,4 3,5 4,6 3,4 3,4 5,6 3,3 5,5 1,2 3,3 3,3 2,1 6,5 6,4 6,6 2,1 3,3 3,3 1,2 3,4 3,4 2,2 3,5 1,2 2,2 3,5 3,5 3,5 3,4 3,4 3,4 2,1 3,3 3,3 3,2 3,2 4,3 4,2 3,2 3,3 3,3 4,5 3,4 3,4 3,4 5,7 3,4 3,4 5,5 1,2 3,2 5,4 1,1 5,3 3,1 5,3 3,2 3,3 1,1 5,6 1,2 2,2 3,4 1,3 2,2 3,5 3,5 3,5 3,5 3,5 3,4 2,2 1,2 3,4 2,2 3,3 3,3 1,1 6,5 7,5 6,4 1,2 5,3 1,1 5,4 3,3 1,1 5,5 5,5 1,1 3,4 3,3 2,2 3,4 3,4 4,5 3,4 5,6 2,2 1,1 5,5 1,2 3,3 3,3 2,1 6,5 6,5 6,4 8,5 6,4 1,1 6,5 7,5 4,4 3,4 2,1 3,4 1,2 3,3 3,4 2,2 3,3 3,4 2,2 4,4 2,1 3,3 3,2 3,2 3,2 4,3 3,2 5,3 2,1 4,4 3,3 2,1 4,5 5,5 3,4 4,5 2,2 3,3 3,3 2,1 6,5 6,4 h 1 l 6,4 6,5 2,1 5,4 1,1 5,5 1,1 2,2 4,5 2,2 3,4 3,4 3,4 5,5 3,4 3,4 1,2 3,3 2,2 3,3 4,4 2,1 4,3 4,1 4,1 h 6 l 8,1 6,3 6,6 3,4 3,5 2,3 3,7 1,3 2,3 1,4 2,3 1,4 3,7 2,3 3,6 1,3 3,5 4,4 1,2 3,3 3,3 3,1 5,2 6,2 6,2 6,3 2,1 4,4 2,1 4,4 3,3 2,2 3,4 1,1 3,5 4,4 1,2 2,2 3,5 1,3 2,2 3,5 3,4 3,5 3,4 3,4 3,3 1,2 7,5 6,4 7,5 6,4 2,1 6,5 5,5 1,2 2,1 4,6 2,2 1,1 5,6 3,4 4,5 5,5 2,2 3,3 3,3 1,2 5,4 1,2 3,3 3,3 2,2 3,3 3,3 2,2 4,5 5,5 3,4 4,4 2,1 4,4 3,2 3,2 4,2 6,3 7,5 6,4 5,5 3,4 1,2 4,4 1,3 2,2 3,5 3,5 3,4 3,5 3,4 3,4 4,5 3,3 2,2 5,4 6,5 1,1 3,3 3,3 3,3 3,4 2,2 1,2 5,6 3,5 3,5 2,2 1,2 3,5 2,2 1,3 3,4 2,2 1,2 3,4 3,3 2,2 5,5 4,4 3,3 2,2 4,4 5,4 3,3 1,2 5,5 5,5 3,4 4,6 2,2 1,2 3,4 2,3 1,2 3,5 3,5 3,5 4,5 3,5 1,3 3,5 3,5 3,4 3,4 5,6 3,4 3,3 2,2 4,4 2,2 3,3 3,4 1,1 3,4 3,4 2,2 3,4 1,2 2,2 3,5 2,2 1,2 3,5 3,4 3,5 3,4 2,2 3,4 3,3 1,2 3,3 2,2 3,3 5,4 6,6 4,5 3,3 5,6 1,1 3,4 3,4 5,5 3,4 5,6 1,2 2,2 4,5 2,2 1,2 5,5 5,5 3,3 1,1 5,5 4,4 2,1 3,3 4,4 2,2 4,4 5,4 3,3 2,2 4,6 3,4 3,4 2,2 1,3 3,4 2,3 1,2 3,5 4,5 3,4 3,4 4,6 2,1 3,3 4,3 2,1 4,3 5,2 3,1 6,3 2,1 6,5 4,4 2,2 3,4 3,4 2,2 1,2 3,4 2,3 1,2 3,5 2,2 1,3 3,5 3,5 3,5 3,4 3,5 4,4 1,2 2,2 4,5 8,4 6,2 7,1 7,1 1,1 6,4 2,1 4,5 3,4 3,4 5,7 3,4 3,4 3,5 3,4 5,5 4,4 2,1 4,4 3,3 2,1 5,3 1,2 6,5 5,5 1,2 3,3 3,3 5,5 3,4 2,1 4,5 5,4 3,2 3,3 3,2 4,2 3,2 5,3 2,1 4,4 2,1 3,3 4,5 5,5 1,1 3,4 3,3 2,2 3,3 3,3 2,2 6,5 6,4 7,5 7,3 3,2 3,1 4,3 3,2 3,3 3,2 3,2 5,4 1,1 5,3 2,2 6,4 6,5 6,5 1,1 5,4 1,2 4,3 3,3 1,2 3,3 3,4 2,2 3,4 1,2 2,2 4,5 2,2 3,3 3,3 2,1 6,4 1,1 5,1 7,3 h 2 l 4,2 5,3 3,3 2,2 4,6 3,4 3,5 3,4 3,5 2,2 1,2 5,5 5,4 3,2 6,1 7,1 h 6 l 8,3 3,2 3,3 3,3 3,3 5,5 3,4 1,2 3,4 2,2 3,3 3,3 2,2 4,4 2,1 4,4 3,2 3,2 3,2 3,2 4,2 4,3 3,2 3,2 3,3 3,2 5,3 1,1 5,4 1,1 7,5 6,5 6,5 1,1 3,3 3,3 3,3 5,4 3,4 3,3 2,2 4,5 5,5 3,4 4,5 2,2 1,1 5,5 2,2 3,3 3,3 1,1 6,5 6,5 6,3 5,1 3,1 6,1 8,2 3,1 3,2 6,4 2,1 3,3 3,3 1,1 5,5 1,2 3,3 3,4 5,5 3,3 1,1 5,5 6,5 6,5 2,1 3,3 3,3 3,3 3,3 1,2 4,3 3,4 1,1 3,4 3,3 2,2 4,4 6,6 8,4 6,3 5,2 3,1 4,3 2,1 4,4 3,3 2,2 5,5 3,4 4,5 5,5 1,1 5,2 1,1 8,-1 6,-3 3,-2 5,-3 4,-1 2,-1 4,1 3,1 5,4 2,1 3,4 4,6 3,4 3,4 3,4 5,5 4,5 2,1 3,3 3,3 3,2 5,2 3,2 3,2 7,3 7,2 7,2 6,3 5,2 1,1 6,4 2,1 5,3 1,1 6,5 2,1 6,3 7,2 h 6 8 l 6,1 3,1 5,3 3,2 3,3 3,3 3,3 5,6 3,3 1,2 3,4 2,1 3,4 4,4 5,4 1,1 5,4 3,2 5,3 h 1 l 6,4 8,5 6,3 2,1 6,3 3,2 3,1 7,4 6,2 7,2 1,1 6,2 5,2 1,1 8,4 6,4 1,1 7,3 1,1 5,3 3,1 4,2 6,2 2,1 6,2 6,2 2,1 6,3 1,1 5,3 3,3 3,3 1,1 5,5 2,1 3,4 3,3 4,6 3,4 3,4 3,4 2,2 3,4 3,4 2,2 3,3 1,1 5,4 h 1 l 8,3 h 6 8 l 3,1 3,2 4,3 3,3 2,2 3,4 1,2 3,5 3,4 2,3 2,2 3,4 1,2 2,2 4,5 2,1 6,3 6,1 8,2 4,2 h 2 l 4,4 3,4 2,2 3,4 1,2 2,3 3,5 3,5 3,4 3,4 3,4 3,3 3,2 5,2 6,1 h 7 l 7,1 7,5 2,1 4,4 5,6 3,3 5,6 1,2 2,2 4,4 6,5 2,1 4,3 2,1 7,3 2,1 5,2 6,3 1,1 6,3 6,5 2,1 4,4 2,1 5,4 3,3 1,1 5,5 4,4 2,2 3,3 4,4 5,5 2,1 4,4 3,3 2,1 4,4 2,1 6,5 6,3 2,1 4,3 5,2 3,1 6,3 1,1 6,3 2,1 5,4 4,6 3,4 2,2 3,4 1,3 2,2 3,4 3,5 3,4 3,4 1,1 5,4 2,1 6,1 h 6 l 7,-1 6,2 4,2 4,4 5,6 1,2 2,3 3,4 3,5 1,3 3,5 2,2 3,4 3,3 6,5 2,1 6,2 7,1 6,2 7,3 1,1 5,4 1,2 3,3 3,4 2,2 3,3 3,4 4,5 2,2 3,3 5,5 4,4 2,1 4,4 3,2 3,2 3,2 5,3 3,1 6,3 8,4 1,1 5,3 3,1 4,4 2,1 5,4 1,1 5,5 4,4 3,4 2,1 4,5 5,5 3,3 2,1 4,5 5,4 3,3 3,2 3,2 3,3 3,2 5,2 3,2 6,3 7,4 6,4 2,1 6,5 5,5 1,1 3,3 5,5 3,4 3,3 1,2 5,4 1,2 5,4 2,1 4,3 2,1 4,3 3,2 6,3 8,3 3,1 3,1 8,4 h 1 l 5,3 3,1 3,3 4,3 4,3 1,1 5,5 6,5 1,2 3,3 3,2 2,2 6,4 1,1 5,3 3,1 5,3 3,2 3,1 4,4 2,1 4,4 3,3 2,1 5,5 4,4 3,3 2,2 4,3 2,1 6,3 5,2 h 1 l 8,1 6,2 3,1 4,3 3,2 3,2 4,3 3,3 1,2 5,4 1,2 3,3 3,3 2,2 4,4 2,1 4,4 2,1 5,3 3,2 4,3 2,1 4,4 2,1 4,3 3,3 3,2 4,2 3,3 4,4 2,1 4,3 8,6 6,4 8,4 6,4 1,1 6,5 6,5 7,4 6,5 1,1 6,4 8,3 3,1 3,1 8,2 4,1 2,1 6,4 6,6 1,2 2,2 4,5 4,4 3,4 1,2 3,4 3,4 5,6 3,3 1,1 5,4 6,4 2,1 6,4 6,3 3,2 4,2 5,2 1,1 8,3 2,1 4,2 5,2 3,2 6,3 8,5 1,1 5,3 1,1 6,5 5,5 1,1 3,4 3,3 5,5 3,4 2,2 3,4 1,1 3,4 3,4 2,2 3,3 3,4 4,5 4,3 1,1 5,4 1,1 5,3 3,1 4,1 6,2 8,1 2,1 4,2 5,2 3,3 3,3 3,3 1,2 5,5 1,2 2,1 5,6 3,3 4,5 2,1 4,4 6,4 2,1 6,3 2,1 4,2 6,3 2,1 6,3 7,5 7,5 4,5 2,2 1,1 5,6 1,2 2,2 4,6 3,4 3,4 2,2 3,3 3,3 2,1 6,4 1,1 5,1 7,2 7,1 6,3 3,2 4,4 2,1 4,5 5,5 3,4 5,5 1,2 3,3 5,5 4,4 2,2 3,2 4,5 7,5 4,5 3,3 5,6 1,2 2,2 4,5 3,4 5,6 3,4 3,3 2,2 4,5 2,1 3,3 3,2 3,2 4,3 3,2 3,1 7,2 7,1 h 6 l 8,1 6,3 2,1 6,5 4,5 2,1 3,4 3,4 1,2 2,2 4,5 5,6 3,3 2,1 4,3 2,1 4,3 3,1 5,2 6,3 8,3 4,2 2,1 7,4 6,3 2,1 5,2 4,3 3,1 5,3 1,1 6,4 2,1 4,4 2,2 3,3 5,5 3,3 3,4 1,2 3,4 3,3 2,2 4,4 7,5 7,2 6,-1 8,-1 h 6 8 l 6,3 3,1 4,3 5,2 1,1 6,4 2,1 6,3 6,3 3,2 5,2 4,3 2,1 6,4 2,1 4,3 2,2 4,3 3,3 2,1 4,3 3,2 5,3 3,2 3,1 6,3 h 2 l 6,3 4,2 2,1 6,3 2,1 4,4 2,1 4,3 3,2 5,3 1,1 6,3 2,1 6,2 h 6 l 8,2 h 3 l 3,1 7,4 7,5 6,5 1,1 5,3 1,2 5,2 1,1 8,3 6,1 8,2 6,2 1,1 6,4 2,2 5,4 4,5 3,4 5,5 1,2 2,2 4,5 5,4 3,3 3,2 3,3 3,2 5,3 1,2 5,3 1,1 6,5 5,4 2,2 3,2 4,4 2,2 4,4 6,5 2,1 4,3 2,2 5,3 1,1 6,4 2,1 4,4 2,1 4,3 3,3 2,1 5,5 1,1 5,4 1,1 3,3 3,3 3,2 5,4 1,1 5,2 3,2 3,2 6,3 2,1 6,3 7,5 6,4 2,1 6,5 6,4 6,5 8,4 6,4 2,1 6,4 1,1 5,4 4,5 3,3 2,2 4,5 4,4 4,6 3,3 3,4 2,1 4,5 8,5 6,2 3,2 5,1 6,3 1,1 6,4 6,5 5,4 3,4 2,1 4,6 3,4 3,4 5,6 3,5 3,4 3,4 3,4 5,6 4,4 2,1 4,3 3,2 h 6 l 8,1 h 6 l 6,1 2,1 6,4 6,6 5,5 3,3 4,6 2,1 3,4 3,3 1,2 3,3 3,3 2,2 4,4 2,2 3,2 3,3 3,2 5,4 1,1 5,3 3,2 3,2 4,3 4,2 3,2 3,3 1,1 5,5 1,2 3,4 3,4 5,5 3,4 5,5 1,2 3,3 3,2 2,1 6,4 6,1 8,2 6,1 6,2 1,1 6,3 2,1 6,4 6,6 5,4 1,1 3,4 5,4 4,5 2,2 3,3 3,4 1,1 4,3 3,3 1,2 6,6 5,3 1,1 5,4 3,2 3,3 3,2 3,2 3,2 3,3 5,3 1,2 5,3 1,1 6,5 7,4 1,1 6,3 3,1 3,2 8,3 6,2 3,2 5,3 3,3 3,2 1,1 5,4 1,2 6,5 7,3 1,1 6,1 h 6 8 6 l 8,3 1,1 5,3 1,1 5,5 4,4 3,3 2,2 5,4 1,1 6,4 h 2 l 4,2 8,2 4,1 h 2 l 6,2 6,3 2,1 6,4 6,4 1,1 5,4 1,1 5,3 3,2 6,3 8,4 h 1 l 5,3 3,2 3,2 5,3 3,2 3,2 3,3 3,2 4,4 2,1 4,3 2,1 6,3 3,2 3,1 8,3 1,1 5,1 6,2 3,1 5,1 6,3 3,1 4,2 6,2 8,4 2,1 4,3 3,1 5,3 4,3 2,1 6,3 1,1 7,4 6,3 1,1 6,4 3,1 3,2 7,3 h 1 l 6,3 3,1 5,2 4,3 h 2 l 7,4 7,4 1,1 5,3 3,2 4,4 2,1 4,4 5,4 3,3 3,3 3,3 2,2 4,4 2,2 3,2 3,2 3,3 3,1 8,3 h 1 l 5,1 h 7 l 6,1 8,1 6,1 3,1 5,1 6,1 h 6 l 8,-2 h 3 l 3,-1 7,-2 h 6 l 8,2 3,1 3,2 5,3 3,2 3,2 3,2 4,3 2,1 7,2 h 7 7 6 8 l 6,1 h 3 l 5,1 6,1 7,2 5,1 h 1 l 7,1 7,2 h 6 l 8,1 h 6 8 6 7 l 6,-1 h 7 l 7,-1 h 6 l 8,-2 h 3 l 3,-1 8,-1 h 6 l 6,1 6,1 1,1 7,2 7,2 6,1 8,-1 4,-1 h 2 l 8,-3 3,-1 3,-2 6,-2 6,-1 h 1 l 6,-1 8,-1 6,-2 2,-1 6,-4 1,-1 5,-4 8,-5 6,-2 h 6 l 4,3 3,3 3,3 3,4 5,5 3,4 5,5 1,1 8,3 6,-2 8,-4 6,-4 7,-4 h 2 l 4,-1 6,-1 8,1 3,1 h 3 l 8,1 h 6 8 l 6,-1 7,-2 6,-2 5,-1 1,-1 8,-1 h 6 l 8,2 1,1 5,2 4,2 3,2 7,2 1,1 h 5 l 7,-1 6,-2 5,-3 3,-1 6,-3 8,-3 6,-1 h 7 l 7,1 6,1 4,2 3,2 6,2 2,1 6,2 6,1 8,-1 6,-2 7,-4 2,-1 5,-2 6,-2 h 7 l 6,1 8,2 h 6 l 8,-2 4,-2 2,-1 6,-3 1,-1 7,-3 3,-1 h 4 5 l 1,1 6,2 3,2 5,2 6,2 2,1 h 6 l 6,-1 7,-2 6,-2 h 5 l 3,-1 6,1 6,1 8,3 3,1 3,1 8,3 6,2 7,1 h 6 l 7,-2 1,-1 6,-4 2,-1 4,-4 2,-1 6,-4 1,-1 5,-1 h 8 l 6,3 7,4 6,3 3,1 4,1 6,-1 h 1 l 6,-3 3,-2 5,-2 3,-2 3,-2 8,-2 h 6 l 7,1 6,1 7,2 h 3 l 4,1 h 6 8 l 6,-1 h 1 l 7,-1 6,-2 7,-1 h 6 l 8,2 5,3 1,1 5,3 1,1 6,4 2,1 6,2 8,-2 3,-2 3,-2 3,-3 4,-4 6,-5 8,-3 6,1 6,3 6,4 2,1 6,4 8,4 h 6 1 2 4 l 6,-2 6,-3 8,-4 h 2 l 4,-3 5,-2 3,-2 6,-2 1,-1 6,-1 h 7 l 7,1 5,1 h 1 l 6,1 8,2 6,1 5,1 h 3 l 6,1 7,1 h 7 l 7,1 h 6 l 6,1 h 8 6 l 8,-1 6,-1 7,-3 7,-2 4,-2 3,-2 6,-1 h 8 l 6,2 1,1 5,3 3,2 5,2 4,3 h 2 l 7,1 7,-1 4,-1 3,-1 6,-2 5,-2 h 3 l 6,-1 h 6 8 l 6,-1 7,-2 6,-3 5,-3 3,-1 6,-2 6,-2 8,2 6,2 8,2 6,2 7,-1 2,-1 4,-2 7,-3 1,-1 6,-3 h 2 l 4,-1 h 8 l 3,1 3,1 8,3 3,1 3,1 7,-1 5,-1 h 1 l 8,-4 6,-4 2,-1 4,-3 2,-2 6,-4 h 1 l 5,-3 5,-2 3,-1 6,-1 h 7 l 6,2 8,4 5,2 h 1 l 8,2 6,1 6,-1 8,-1 6,-3 7,-3 3,-1 3,-1 8,-3 2,-1 4,-1 8,-1 h 6 6 8 6 l 7,-1 5,-1 h 1 l 8,-2 6,-1 h 6 l 8,2 1,1 5,2 6,3 2,1 6,2 6,1 h 1 3 3 l 8,-2 6,-3 6,-2 6,-2 2,-1 6,-1 7,-2 5,-1 h 2 l 7,-1 h 6 8 l 6,-1 6,-1 6,-1 2,-1 6,-2 6,-2 h 1 l 7,-2 7,-2 3,-1 h 3 8 l 6,1 8,1 6,2 4,2 h 2 l 7,3 3,1 4,1 7,1 6,1 8,-1 6,-1 5,-2 3,-1 6,-2 1,-1 5,-2 7,-3 7,-1 7,1 2,1 4,1 6,3 2,1 6,3 3,1 3,1 8,2 6,-1 7,-1 6,-1 2,-1 6,-1 6,-2 5,-1 3,-1 h 6 6 l 6,1 2,1 6,2 7,2 6,1 h 8 l 6,-1 2,-1 6,-1 6,-2 3,-1 3,-1 8,-1 h 6 l 7,1 h 6 8 6 l 8,-1 h 6 l 7,-1 7,-1 3,-1 h 3 l 7,-1 h 6 l 8,1 6,1 8,1 6,1 7,1 7,1 h 3 3 7 6 l 8,-2 6,-1 6,-2 h 2 l 6,-3 4,-2 h 2 l 8,-4 6,-3 4,-2 3,-1 h 6 l 8,1 2,1 4,3 3,1 5,3 3,2 3,2 6,1 h 8 l 6,-2 3,-1 4,-2 6,-3 8,-2 6,-1 8,-1 h 6 6 7 l 5,-1 h 2 l 7,-1 6,-2 3,-1 5,-2 6,-3 h 2 l 6,-3 6,-1 1,-1 h 6 l 3,1 3,1 7,2 3,1 4,3 5,2 1,1 6,4 2,1 6,2 3,2 5,1 h 6 l 7,-1 2,-1 4,-3 3,-2 4,-2 4,-3 3,-1 6,-3 h 2 4 l 2,1 6,3 3,1 5,3 3,3 3,1 4,3 h 2 l 7,1 7,-1 4,-1 3,-1 6,-2 8,-2 h 6 l 8,-1 h 6 6 7 6 8 6 8 6 l 8,1 h 6 l 1,1 h 5 l 7,2 6,2 h 4 l 4,2 6,1 8,1 4,1 h 2 8 6 l 7,-2 6,-2 3,-1 3,-1 8,-4 6,-3 3,-1 5,-2 6,-2 3,-1 5,-1 6,-1 h 7 6 l 6,1 8,1 h 2 4 2 l 6,-1 6,-2 4,-2 3,-1 7,-1 h 6 l 7,2 2,1 4,2 5,2 3,2 6,2 5,1 h 3 1 l 5,-1 7,-2 5,-2 2,-1 6,-1 7,-2 h 6 8 5 1 l 8,-1 6,-2 7,-1 7,-1 6,-1 7,1 h 2 l 4,1 8,2 5,2 h 1 l 8,3 3,2 3,1 7,2 h 7 l 7,-2 3,-2 3,-2 5,-3 1,-1 5,-3 3,-2 6,-3 h 8 1 l 5,2 6,4 1,1 6,3 8,2 6,-1 6,-1 2,-1 6,-2 6,-2 8,-1 6,1 h 1 l 6,1 6,1 h 7 l 7,-2 6,-3 5,-2 3,-1 6,-2 8,1 6,2 7,4 2,1 4,2 7,2 h 7 l 6,-1 8,-2 1,-1 5,-2 8,-2 1,-1 5,-1 7,-2 6,-1 3,-1 h 4 l 7,-2 6,-1 3,-1 5,-1 6,-2 8,-1 1,-1 5,-1 7,-2 6,-1 h 2 l 4,-2 8,-1 6,-2 8,-2 6,-2 h 3 l 5,-2 6,-1 7,-2 h 6 8 1 l 5,1 6,1 8,1 6,1 4,1 h 4 l 6,-1 7,-1 6,-2 3,-2 3,-2 5,-3 3,-2 3,-2 3,-2 3,-2 5,-2 6,-2 7,3 2,1 5,4 1,1 5,4 1,2 5,3 1,1 8,1 4,-2 2,-2 5,-4 1,-1 3,-4 3,-3 2,-2 3,-3 3,-3 3,-2 4,-2 7,-1 7,1 6,2 2,1 4,1 8,1 6,1 8,-2 6,-1 1,-1 6,-2 5,-2 2,-1 7,-3 3,-1 3,-1 h 6 l 6,2 h 2 l 6,3 3,1 5,2 6,2 7,-1 7,-3 7,-4 2,-1 4,-2 8,-1 6,2 5,2 1,1 6,4 2,1 6,3 7,2 h 6 l 8,-1 3,-1 3,-1 6,-3 5,-1 3,-1 6,-2 8,-2 h 1 l 5,-1 h 7 6 8 6 8 6 l 6,-1 h 8 l 6,1 7,1 2,1 4,1 8,3 h 3 l 3,1 h 6 l 8,-1 h 1 l 5,-1 8,-2 6,-1 7,2 5,2 1,1 8,5 6,3 h 2 l 4,2 h 8 l 6,-1 5,-1 3,-1 6,-1 7,-1 6,1 8,1 6,2 8,1 6,1 h 6 l 8,1 h 6 l 7,1 h 3 3 l 8,1 6,1 h 6 l 8,-1 h 6 8 6 l 7,2 6,2 8,3 6,2 8,2 h 6 l 6,1 7,-1 h 7 l 7,-1 6,-1 h 8 l 6,-1 h 3 3 l 8,-1 h 6 7 7 l 4,1 3,1 6,2 8,2 6,1 6,1 h 8 l 6,-1 7,-1 7,-1 4,1 3,1 6,1 6,3 h 2 l 6,2 8,1 6,-1 6,-2 1,-1 6,-3 5,-2 h 2 l 7,-3 2,-1 4,-1 8,-2 h 6 l 6,1 8,1 4,1 2,1 7,2 6,1 5,1 h 3 6 2 l 6,-1 6,-1 8,-1 6,-1 h 6 l 7,-1 h 2 4 8 6 8 6 6 8 l 6,-1 h 7 l 6,-1 8,-1 6,-1 5,-1 h 3 l 6,-1 6,-1 8,-2 h 1 l 5,-1 7,-1 6,1 7,1 1,1 6,2 3,2 5,1 6,2 7,1 7,-2 6,-3 7,-4 6,-4 3,-1 5,-2 6,-2 8,-2 h 6 l 6,1 6,1 h 2 l 6,2 h 7 6 l 8,-3 6,-3 2,-1 6,-4 1,-1 5,-2 7,-1 7,2 4,2 2,1 4,3 3,2 6,3 8,2 6,-1 5,-1 3,-2 6,-2 3,-1 3,-1 7,-2 h 7 7 6 l 8,-1 h 6 8 l 6,1 6,2 3,2 4,2 4,3 3,2 3,2 4,2 6,2 8,-2 4,-3 2,-1 5,-4 3,-3 3,-2 3,-2 3,-2 4,-1 6,1 3,1 4,1 6,3 1,1 6,2 h 8 l 6,-2 5,-2 3,-1 6,-3 h 1 l 5,-1 7,1 2,1 5,2 6,2 1,1 6,2 8,1 6,-1 8,-2 6,-1 7,-1 h 6 l 5,1 1,1 8,2 6,2 8,3 6,2 8,2 6,1 h 6 7 6 l 8,-1 6,-1 h 8 6 8 l 6,-1 4,-1 h 2 l 7,-4 h 2 l 4,-3 7,-3 h 1 l 6,-2 h 8 l 6,1 6,2 2,1 6,2 7,1 6,-1 6,-1 7,-3 h 1 l 6,-3 2,-1"
           style="fill:none;fill-opacity:1;stroke-width:15;stroke-miterlimit:4;stroke-dasharray:none" />
      </g>
      <g
         transform="matrix(0.218201,0,0,0.218201,-2548.7142,-1375.6151)"
         id="g1724"
         style="font-weight:400;font-size:353px;font-family:'Arial embedded';visibility:visible;fill:none;fill-opacity:1;fill-rule:evenodd;stroke:#00ffff;stroke-width:15;stroke-miterlimit:4;stroke-dasharray:none">
        <path
           id="path1726"
           d="m 7325,6885 3,-2 4,-3 3,-2 3,-1 5,-3 3,-2 4,-2 2,-1 8,-4 6,-3 4,-2 3,-1 6,-1 h 6 l 8,1 6,2 8,3 1,1 5,3 4,2 4,2 4,3 2,1 6,4 1,1 6,3 6,3 3,1 5,2 6,2 8,1 6,-1 8,-1 6,-2 4,-1 h 3 l 6,1 8,4 5,5 1,2 3,4 3,4 3,5 3,4 2,2 1,2 5,5 6,4 1,1 h 7 l 6,-1 h 1 l 6,-2 6,-2 8,1 6,1 5,2 3,2 4,3 2,1 6,4 1,2 5,3 2,1 3,3 4,4 2,1 4,3 2,2 4,3 2,1 6,5 6,4 6,5 2,1 4,4 2,2 3,3 4,5 3,4 4,4 1,1 3,4 3,4 2,2 3,3 1,2 3,3 5,3 1,1 5,3 6,2 8,1 h 6 l 7,-1 h 7 l 7,2 6,3 6,5 2,2 1,2 5,6 3,5 3,5 2,2 3,5 3,5 4,5 2,2 3,3 4,2 h 6 8 6 l 5,1 1,1 5,4 3,4 1,2 3,5 2,2 2,3 3,4 3,5 3,5 3,4 3,4 4,4 6,4 h 2 l 6,3 6,2 6,4 2,1 6,5 4,5 2,2 3,3 3,4 2,1 3,3 3,3 3,2 4,3 5,1 1,1 8,3 3,1 3,2 3,3 3,3 2,2 3,4 3,5 3,6 1,3 2,3 1,2 4,6 1,3 2,3 1,3 3,5 2,2 1,2 3,4 3,3 2,1 4,3 5,2 3,1 6,3 6,5 5,5 3,4 3,5 3,4 3,5 3,5 2,3 1,2 3,5 2,2 1,2 5,5 1,2 3,3 3,2 2,1 6,5 2,1 4,4 2,1 4,4 2,2 3,4 3,4 3,4 3,4 3,5 5,6 3,5 3,4 3,4 4,5 5,5 1,1 3,3 5,3 2,2 4,3 2,1 4,4 2,1 4,4 2,1 4,5 2,1 3,3 5,5 3,3 3,4 1,2 3,4 3,4 5,7 1,2 2,2 3,4 3,4 5,6 1,2 2,2 4,4 2,1 4,4 2,1 6,3 7,5 7,5 4,5 3,5 3,4 3,5 3,6 2,2 3,6 3,6 2,2 1,3 2,3 3,5 1,3 2,2 3,5 3,4 3,4 3,4 4,5 3,4 5,5 2,2 3,4 3,4 1,2 2,2 4,6 3,4 3,4 2,2 1,2 3,5 2,2 3,4 3,3 5,6 3,4 4,5 2,2 1,1 5,6 1,2 3,3 4,4 3,4 4,7 3,4 3,5 3,4 3,5 2,2 1,2 3,4 2,2 3,4 3,3 2,1 4,4 2,1 6,4 7,4 7,5 4,5 3,4 5,6 1,3 2,2 1,3 3,6 2,3 1,3 2,3 1,3 2,4 1,3 2,4 2,3 1,4 2,4 1,4 2,3 1,4 2,4 1,4 2,4 1,3 2,4 3,7 1,4 2,3 1,3 2,3 1,3 3,5 5,5 3,3 h 2 l 4,2 8,2 4,1 2,1 6,4 2,1 3,4 3,4 3,5 3,5 3,5 3,5 1,2 2,2 3,4 1,2 4,2 4,2 h 6 l 8,-2 h 6 l 3,1 3,2 3,3 3,4 2,2 1,3 3,6 2,3 3,7 1,3 2,4 1,3 2,4 1,3 2,4 1,3 2,4 1,3 4,6 1,3 3,6 2,3 1,2 2,3 3,4 3,5 4,6 2,2 1,1 5,5 5,4 3,3 3,2 3,3 3,2 4,2 3,2 3,2 5,3 3,1 6,4 6,4 2,1 4,4 2,1 3,3 3,3 1,2 5,5 2,2 1,2 5,7 3,4 3,4 1,2 2,3 3,4 1,2 2,2 4,6 2,1 2,2 4,5 5,5 3,4 1,1 3,4 2,1 3,4 4,5 3,4 4,3 1,2 3,4 2,2 3,4 3,4 1,1 3,4 3,4 5,4 3,3 2,2 4,4 2,1 4,5 2,1 3,3 3,3 1,1 5,5 1,2 3,4 4,4 3,4 3,5 4,6 3,4 3,5 3,3 5,6 3,3 1,2 5,4 5,4 3,2 3,3 3,2 3,3 3,2 1,2 6,5 5,4 2,2 3,3 4,4 2,1 4,4 6,5 2,1 5,3 1,1 5,4 3,2 3,3 3,4 1,2 3,4 2,2 1,3 3,5 2,3 1,3 2,3 2,3 3,6 1,3 3,6 3,6 2,3 3,4 1,2 3,4 5,3 h 1 l 5,1 h 8 l 6,1 6,2 1,1 5,4 1,2 3,4 4,4 3,4 3,5 1,2 3,4 3,4 5,4 3,2 6,2 8,3 6,2 6,5 1,1 3,4 3,4 3,5 4,5 3,5 3,5 1,2 2,3 3,4 1,2 2,2 4,5 2,1 6,3 8,3 6,1 7,4 2,1 4,4 2,1 4,5 5,6 3,4 3,4 3,4 5,7 3,4 3,4 3,5 3,4 3,4 2,2 3,4 3,4 3,4 3,3 1,2 5,4 1,2 5,3 1,2 5,3 3,2 3,3 3,2 3,2 5,3 1,1 5,4 3,2 5,3 1,1 5,2 4,2 2,1 7,2 6,2 8,1 6,2 5,2 3,1 4,3 2,1 4,4 4,2 3,3 3,4 1,2 3,3 2,2 1,2 3,5 3,4 3,5 3,5 5,6 3,5 3,4 3,3 2,2 4,3 2,1 6,3 1,1 6,2 7,2 1,1 6,3 2,2 4,4 5,5 1,2 3,3 3,4 2,2 3,3 3,3 2,2 4,4 2,1 6,4 7,4 h 2 l 5,3 3,2 4,4 2,1 4,5 5,5 1,2 2,1 4,6 2,1 3,4 3,3 2,1 4,4 2,1 6,3 7,4 3,1 4,2 6,3 6,5 1,1 3,3 3,3 2,1 4,5 2,2 3,4 3,4 3,4 5,6 3,5 3,4 3,4 3,4 1,2 3,4 4,4 4,5 2,1 3,3 4,3 3,2 3,1 6,4 2,1 6,3 6,5 2,1 3,3 3,3 1,1 5,5 1,2 3,3 3,3 2,2 5,4 1,1 6,5 6,3 8,4 3,1 3,2 8,2 3,1 3,1 7,3 h 2 l 4,3 5,2 3,3 3,2 3,3 3,3 3,3 2,1 4,5 2,1 3,3 3,3 2,2 4,4 2,1 4,3 2,2 4,3 3,2 5,3 1,1 5,3 3,3 3,2 3,3 3,2 3,3 3,2 5,3 1,1 5,3 5,2 h 3 l 6,1 7,2 5,1 1,1 7,4 6,6 1,1 2,2 4,6 3,4 5,5 4,4 2,2 5,2 3,1 h 6 l 7,-1 h 2 4 2 l 6,3 3,3 3,3 2,2 3,4 1,2 2,2 4,6 2,2 1,2 3,4 2,2 3,4 5,4 6,3 1,1 6,2 6,2 6,2 7,3 1,1 6,4 8,5 6,5 4,3 4,3 3,2 3,2 3,3 4,3 3,2 3,2 3,2 5,2 6,3 6,3 5,1 3,2 6,3 7,5 5,4 2,2 4,4 3,3 2,1 4,5 5,4 1,1 5,4 3,2 3,2 3,2 5,3 3,1 6,4 7,4 7,3 3,2 4,3 3,1 3,2 5,3 1,1 6,3 2,1 6,4 8,6 6,5 4,4 3,3 2,2 5,5 3,3 4,5 6,5 5,4 3,2 6,2 1,1 5,1 8,3 6,4 1,1 5,5 1,1 3,4 4,5 3,4 3,5 1,2 2,3 3,4 1,2 2,2 4,6 5,4 3,2 3,2 3,2 6,3 2,1 6,3 1,1 6,5 5,4 1,2 4,3 3,4 1,1 3,4 3,3 2,2 4,5 2,1 3,3 3,3 1,1 5,4 2,1 6,5 6,4 6,5 1,2 3,2 3,3 2,2 5,4 1,2 3,3 3,4 2,1 4,6 3,4 5,5 3,4 3,4 5,6 3,3 4,6 2,1 3,4 4,4 5,4 1,1 5,4 3,2 5,2 1,1 6,3 2,1 6,2 6,3 8,4 6,5 4,4 3,4 2,2 3,4 1,2 2,2 5,7 1,2 2,2 3,4 1,2 2,2 4,5 2,1 4,4 h 2 l 6,3 1,1 7,3 4,2 2,1 6,4 1,1 3,3 3,3 2,2 4,5 2,2 2,2 4,5 5,5 1,2 3,3 5,3 6,5 8,4 1,1 5,2 7,2 h 2 l 4,1 8,1 6,2 5,1 3,2 4,2 2,1 6,5 4,4 4,3 1,1 5,5 1,1 5,5 1,1 3,3 3,3 2,1 6,6 5,3 1,2 5,3 1,1 6,4 2,1 6,4 7,4 7,5 6,5 1,1 3,3 3,3 2,1 4,5 2,2 3,3 3,2 3,3 3,3 2,1 6,4 1,1 5,2 4,3 3,1 7,2 3,1 4,1 6,2 5,2 3,1 6,2 2,1 6,4 1,1 5,3 1,2 5,3 1,2 5,4 1,2 3,3 4,3 1,1 5,5 1,2 3,3 3,3 2,1 4,5 2,1 3,3 3,3 3,2 3,3 3,2 5,3 3,2 3,2 4,2 3,2 3,2 4,2 4,4 3,3 2,1 4,4 2,2 4,4 2,1 3,3 3,3 3,2 5,3 1,1 5,2 6,3 7,2 6,2 2,1 6,2 5,2 1,1 8,4 6,4 1,1 5,4 6,5 2,1 3,3 3,3 1,2 5,4 1,2 5,4 1,2 4,2 4,4 6,5 8,5 6,3 1,1 5,2 6,3 2,1 6,2 3,2 4,2 3,2 3,3 3,2 5,4 5,5 1,2 3,3 5,5 6,5 7,4 7,1 h 6 7 l 6,3 2,1 5,5 1,2 2,2 3,5 1,3 2,2 3,6 1,2 2,3 1,3 3,5 2,2 1,2 3,4 2,2 5,3 3,1 6,1 7,-1 h 6 l 8,2 2,1 4,3 2,2 6,5 6,5 6,4 1,1 7,2 3,1 3,1 7,2 6,2 8,4 6,5 6,6 2,2 1,1 5,5 4,5 2,2 3,4 3,3 2,2 3,3 3,4 1,1 5,5 1,1 3,4 3,2 2,2 4,4 2,1 5,4 1,1 6,4 2,1 6,3 6,2 6,2 1,1 7,1 7,3 h 2 l 4,2 5,3 3,2 5,3 1,2 3,2 5,5 6,5 4,5 3,2 2,2 4,3 2,2 5,3 1,1 6,4 6,4 2,1 6,4 1,1 5,3 3,2 5,3 3,2 3,2 3,2 3,2 4,3 3,2 3,2 4,2 3,3 4,3 2,1 4,3 3,2 5,3 3,2 3,1 6,4 h 2 l 6,4 7,5 6,4 7,5 6,5 1,1 5,4 1,1 3,3 5,3 1,1 5,4 1,1 7,4 1,1 5,2 3,2 3,2 7,3 6,2 7,3 1,1 6,3 2,1 6,5 4,3 2,2 5,4 3,3 1,1 5,4 1,1 5,3 3,1 4,2 6,2 2,1 6,2 5,3 1,1 5,4 3,3 1,2 3,3 2,2 3,4 3,4 2,2 1,2 5,5 4,4 3,2 6,2 h 6 8 l 6,1 h 2 l 6,5 4,4 2,2 3,4 3,4 2,2 3,4 3,3 4,5 2,2 3,2 4,3 6,2 8,1 6,1 8,3 6,2 3,2 4,3 4,2 3,3 3,2 4,5 5,5 1,1 3,4 3,3 5,5 3,3 2,2 4,5 5,4 3,2 3,2 3,2 4,3 3,1 7,4 6,3 1,1 6,5 2,1 4,3 2,1 6,5 6,5 6,4 2,1 4,3 2,1 4,4 3,2 3,3 4,2 3,3 3,3 1,1 5,5 1,2 2,2 4,5 3,4 5,6 3,4 3,4 2,2 3,3 3,4 4,6 2,2 3,3 3,4 1,1 3,4 4,3 1,1 5,5 1,1 3,3 3,3 3,2 3,3 3,2 5,4 6,5 5,5 3,3 1,1 5,5 4,6 3,3 5,5 1,2 2,2 5,5 3,4 4,5 5,5 1,2 3,3 5,5 4,4 2,2 3,2 5,4 1,1 5,4 1,1 6,5 5,4 1,1 4,3 4,6 3,3 3,4 2,2 3,5 1,2 2,2 3,4 3,4 1,2 3,4 2,2 3,3 5,4 6,4 7,5 h 2 l 4,3 5,2 2,1 6,4 1,1 5,4 1,1 3,3 5,4 1,1 5,4 6,6 2,1 3,3 3,2 1,2 6,5 5,4 1,1 5,4 2,1 4,4 3,2 3,2 3,3 3,2 5,4 1,1 5,4 5,4 3,4 1,1 5,5 4,5 3,4 2,1 4,4 6,4 2,1 6,2 6,1 h 8 l 6,1 h 1 l 7,2 6,2 1,1 6,4 2,1 4,3 3,2 5,3 1,1 5,4 2,1 4,3 2,1 6,5 4,4 2,2 3,3 5,5 4,5 2,1 3,4 4,5 3,3 3,3 3,3 3,2 3,2 5,3 3,1 3,1 8,4 6,2 3,2 4,3 4,2 3,3 3,2 4,4 2,1 4,3 2,1 4,3 5,1 3,1 6,1 8,2 3,1 3,1 6,5 1,1 4,3 3,3 1,2 5,5 1,2 2,1 4,5 6,5 8,3 6,1 h 8 4 2 l 7,2 7,2 1,1 6,4 2,1 4,4 2,1 4,5 2,1 3,4 3,3 5,5 1,2 3,3 5,5 4,4 2,1 7,3 h 2 l 5,1 h 7 6 l 8,3 3,2 3,2 3,3 3,3 2,1 4,5 2,2 1,2 5,5 4,5 3,4 5,4 1,2 5,4 3,3 2,1 4,4 6,5 5,4 3,3 3,2 3,3 3,2 5,3 1,1 5,3 3,2 4,2 6,2 h 2 l 6,3 6,3 6,4 5,5 3,3 1,2 5,5 3,4 3,4 2,2 3,3 3,4 1,1 5,4 1,1 6,3 8,4 3,1 3,2 6,3 6,5 2,1 3,3 3,4 1,1 5,5 2,2 1,2 5,6 4,5 3,3 5,6 1,1 3,3 5,5 5,4 1,1 5,4 3,2 4,2 2,1 6,3 1,1 7,3 3,1 3,2 4,4 3,2 2,2 4,5 5,5 3,3 2,2 3,3 1,2 3,3 5,5 4,4 2,1 4,4 2,1 4,3 4,3 3,2 3,2 3,2 4,4 2,1 4,4 2,1 6,5 6,4 6,4 3,1 5,2 6,2 3,1 5,2 4,2 2,1 4,5 3,3 2,2 3,4 1,2 2,2 3,4 3,5 5,6 1,2 2,2 3,4 1,1 5,4 3,3 3,1 3,2 6,3 1,1 7,3 7,6 5,4 1,2 3,3 5,4 5,5 1,1 5,4 1,1 8,3 6,2 7,2 2,1 5,2 4,3 3,2 3,3 3,3 2,2 4,5 2,1 1,2 5,5 5,4 3,2 4,3 2,1 6,3 h 1 l 6,3 3,2 4,2 4,3 3,3 2,1 4,5 5,5 3,3 1,2 5,4 5,4 3,2 4,3 2,1 6,2 7,2 7,2 6,3 1,1 5,3 1,1 5,3 3,3 3,2 3,3 3,2 3,2 5,3 3,1 6,3 7,4 3,1 3,1 7,4 1,1 6,3 8,5 6,4 6,4 2,1 6,3 3,2 3,2 6,3 1,1 6,3 8,5 6,5 6,4 2,1 6,4 6,3 5,1 3,1 6,1 7,1 6,2 8,4 2,1 4,4 2,1 4,4 2,1 4,4 2,2 3,2 4,3 4,2 3,1 6,3 h 3 l 4,2 6,1 8,1 2,1 4,1 8,2 6,1 1,1 6,1 7,1 6,2 h 1 l 6,2 6,3 8,4 2,1 4,2 3,2 5,3 3,2 3,1 6,3 1,1 7,1 6,1 7,-1 6,-1 3,-1 5,-1 6,-3 3,-1 5,-1 6,-1 h 6 l 8,2 3,1 3,1 7,3 2,1 4,1 8,1 6,-1 8,-2 h 1 5 6 1 l 6,3 5,2 2,1 6,4 1,1 6,3 2,1 6,2 6,1 h 8 6 7 l 6,-1 h 7 7 l 6,1 h 8 6 8 6 7 6 7 l 4,1 3,1 6,1 6,3 h 2 l 6,3 2,1 6,4 3,1 3,1 6,3 3,1 h 4 l 7,1 h 7 6 l 8,1 h 6 l 8,1 6,1 h 6 l 7,-2 6,-1 5,-2 h 3 l 6,-2 8,-1 6,-1 8,1 6,1 6,2 3,1 4,1 6,3 h 2 l 6,2 h 6 l 8,-1 3,-1 3,-2 8,-3 6,-2 h 7 l 6,2 3,1 3,2 5,2 3,2 6,2 h 8 l 6,-2 4,-2 4,-2 6,-3 7,-3 6,-1 6,1 8,1 6,1 8,1 h 6 l 7,-1 7,-2 4,-1 2,-1 7,-4 6,-4 3,-1 5,-3 5,-1 1,-1 8,-1 6,1 4,1 3,1 7,1 6,1 7,1 6,-1 8,-1 6,-2 8,-3 4,-2 2,-1 7,-2 5,-2 h 2 l 6,-1 h 7 l 6,1 3,1 h 5 l 6,1 8,-1 6,-2 7,-3 2,-1 5,-1 7,-1 6,1 6,2 8,3 6,2 8,1 h 6 l 7,-1 6,-1 8,-1 6,-2 6,-1 h 2 l 6,-1 6,-1 8,-1 6,-1 7,-1 h 2 l 4,-1 7,-1 6,-3 h 1 l 6,-3 2,-1 6,-3 6,-2 8,-1 6,1 6,1 h 1 l 6,2 7,1 3,1 4,2 6,1 8,1 h 6 8 l 6,-2 7,-2 6,-3 5,-2 h 2 l 7,-4 h 2 l 4,-2 8,-2 3,-1 3,-1 h 8 l 6,1 h 1 l 6,2 6,2 3,1 5,2 6,2 2,1 4,1 8,1 h 6 l 8,-3 6,-4 1,-1 6,-4 2,-1 4,-2 3,-2 5,-1 h 6 l 6,1 h 3 l 5,1 6,1 8,-1 1,-1 5,-2 6,-3 1,-1 6,-2 h 6 l 8,3 3,1 3,2 5,3 3,2 4,2 2,1 h 7 l 7,-1 7,-3 3,-2 3,-1 6,-2 8,-1 6,1 8,2 h 6 7 l 7,-2 4,-1 3,-2 6,-2 3,-1 3,-1 8,-2 6,-1 2,-1 h 6 6 l 4,1 h 3 l 7,1 7,2 6,1 h 2 l 6,1 6,1 h 6 8 l 6,-1 7,-1 h 2 l 5,-1 7,-2 6,-2 8,-2 4,-2 2,-1 6,-2 5,-2 3,-1 6,-1 h 7 6 l 8,2 h 6 6 l 8,-2 6,-2 2,-1 6,-1 6,-1 7,1 6,2 8,3 3,2 3,1 h 6 l 8,-1 1,-1 5,-2 5,-3 3,-2 4,-3 2,-1 7,-3 6,-1 8,-1 h 6 l 6,-1 8,-1 4,-1 h 2 l 8,-1 h 6 l 7,2 h 2 l 4,1 8,2 6,1 8,-1 6,-2 3,-1 3,-2 6,-3 2,-1 6,-2 h 7 l 6,1 6,2 2,1 6,2 8,1 6,-1 6,-2 3,-2 5,-1 6,-3 7,-2 h 6 l 8,-1 h 6 6 l 8,-1 6,-2 8,-1 6,-1 h 7 l 6,1 8,1 6,1 6,-1 8,-2 3,-1 3,-1 7,-4 7,-2 h 7 l 6,1 8,2 6,1 6,1 8,-1 6,-1 1,-1 6,-1 7,-1 7,1 6,1 2,1 6,2 6,2 h 2 l 6,1 6,-1 h 3 l 3,-1 7,-3 3,-1 4,-1 7,-2 5,-1 1,-1 h 8 6 l 8,1 6,2 6,2 3,1 4,1 7,1 7,-1 6,-2 8,-3 3,-1 3,-1 6,-2 h 8 l 6,1 6,2 1,1 6,2 5,2 3,1 6,2 3,1 5,2 6,1 h 6 8 6 l 7,-1 6,-1 h 8 l 6,1 8,1 6,1 3,1 3,1 8,1 6,1 7,1 h 6 l 8,-2 6,-2 2,-1 6,-2 4,-2 2,-1 7,-1 7,-1 6,1 7,1 6,1 8,2 6,1 8,1 4,1 h 2 l 7,1 7,1 h 6 7 l 6,-1 8,-2 6,-2 5,-2 3,-2 6,-2 6,-1 4,1 h 4 l 6,2 7,2 h 3 l 3,1 h 8 l 5,-1 1,-1 8,-2 4,-2 h 2 l 6,-2 8,-1 h 6 l 7,-1 h 6 3 l 5,-1 6,-2 6,-2 2,-1 6,-2 4,-2 h 2 l 7,-2 7,-1 6,-1 1,-1 6,-1 8,-3 6,-3 6,-2 h 2 l 6,-1 7,1 2,1 4,2 4,2 3,2 4,3 3,2 6,2 8,-1 6,-4 6,-5 2,-1 3,-3 3,-2 4,-3 3,-1 h 6 l 7,2 1,1 6,3 3,1 3,2 6,3 h 2 l 6,3 8,1 h 6 3 l 3,-1 7,-2 5,-2 2,-1 7,-3 5,-1 h 1 8 l 6,1 8,2 6,1 h 6 l 7,-1 6,-2 2,-1 6,-3 3,-2 3,-1 6,-3 h 2 l 6,-2 8,-1 h 6 l 6,2 3,2 4,2 3,2 3,2 5,3 3,2 6,1 8,-1 6,-3 8,-4 6,-3 h 7 l 6,3 6,5 5,4 3,3 3,3 3,2 6,2 h 2 l 3,-1 h 3 l 8,-4 6,-4 1,-1 6,-4 2,-1 4,-2 6,-2 h 3 l 5,-1 h 6 8 l 6,1 7,2 7,2 3,1 3,1 7,3 6,3 5,2 3,2 6,3 8,4 1,1 5,2 4,2 3,1 7,2 6,1 1,1 h 6 l 5,-1 h 1 l 8,-1 6,-1 h 8 6 7 l 7,1 6,1 1,1 6,2 6,1 3,1 5,2 6,1 8,1 h 6 l 7,-1 7,-1 7,-1 3,-1 3,-1 6,-2 8,-2 6,-1 8,-2 6,-1 h 3 l 4,-1 h 6 l 8,1 6,1 6,1 8,2 6,2 8,2 6,1 h 7 l 6,-1 7,-1 6,-3 h 1 l 6,-4 h 2 l 6,-4 3,-1 3,-1 8,-3 4,-1 h 2 l 6,1 h 1 l 6,1 7,3 1,1 6,3 2,1 4,3 3,2 5,3 4,1 2,1 8,-1 h 3 l 3,-2 6,-3 1,-1 6,-3 2,-1 5,-2 7,-2 h 3 3 8 6 l 8,-1 6,-1 7,-2 2,-1 4,-1 6,-1 8,-2 h 3 l 3,-1 8,-1 6,-1 8,-1 4,-1 h 2 l 7,-2 h 6 l 8,-1 h 6 l 6,1 8,1 h 6 l 8,1 h 6 l 7,-1 6,-1 6,-1 8,-2 6,-1 8,-2 h 6 l 7,1 7,1 4,2 3,1 6,1 8,2 h 6 l 6,-1 8,-1 6,-1 h 7 7 l 7,1 6,1 h 6 8 6 l 8,-1 6,-1 7,-1 7,-1 7,-1 6,-1 6,-1"
           style="fill:none;fill-opacity:1;stroke-width:15;stroke-miterlimit:4;stroke-dasharray:none" />
      </g>
      <g
         transform="matrix(0.218201,0,0,0.218201,-2548.7142,-1375.6151)"
         id="g1728"
         style="font-weight:400;font-size:353px;font-family:'Arial embedded';visibility:visible;fill:none;fill-opacity:1;fill-rule:evenodd;stroke:#ffd320;stroke-width:15;stroke-miterlimit:4;stroke-dasharray:none">
        <path
           id="path1730"
           d="m 7325,6870 6,-6 1,-2 3,-3 3,-2 2,-1 6,-5 6,-4 1,-1 7,-2 6,-1 h 7 l 6,2 5,2 1,1 7,4 1,1 5,4 1,1 3,3 5,4 1,1 5,4 6,5 2,1 4,4 h 2 l 7,4 6,1 h 6 l 3,-1 5,-3 5,-3 1,-1 6,-4 h 2 l 6,-3 h 1 7 l 6,2 4,3 3,2 3,3 3,2 3,3 5,3 1,1 5,4 2,1 4,2 3,2 5,2 6,1 h 7 l 7,-1 h 7 l 6,1 5,2 1,1 5,4 3,4 5,6 1,2 2,2 3,4 3,5 3,4 3,4 1,2 3,4 3,2 2,2 5,3 3,1 4,2 6,2 h 6 l 8,1 h 3 3 l 8,1 6,2 4,2 3,2 5,2 2,2 4,3 3,3 3,2 3,3 3,2 5,4 1,1 5,3 1,1 5,4 2,1 6,4 6,6 4,4 3,3 2,2 5,5 3,3 4,5 5,5 1,1 5,3 3,2 6,2 6,1 8,1 6,3 h 1 l 6,6 5,5 1,2 2,2 3,4 3,5 5,6 1,2 2,1 4,5 6,5 2,1 6,2 2,1 6,3 4,2 2,1 4,3 3,3 2,2 4,6 4,4 3,4 1,2 2,2 3,5 1,2 3,4 3,4 3,4 5,5 4,5 2,2 3,3 3,3 2,2 3,3 3,4 1,2 3,3 3,4 2,2 3,5 1,2 2,2 3,4 3,4 2,2 3,3 1,2 3,3 3,2 5,3 3,1 6,3 h 1 l 7,2 6,3 6,6 1,1 2,2 4,6 3,4 4,5 1,2 2,2 3,5 1,2 2,3 3,4 1,2 2,2 4,6 2,2 1,2 5,5 5,5 3,3 1,1 5,5 3,3 4,6 5,5 1,2 3,3 3,4 2,2 3,3 3,4 5,6 3,3 4,6 2,2 1,1 5,6 4,5 4,3 4,5 2,2 3,3 4,4 5,5 1,1 3,3 5,5 5,6 1,1 2,2 3,5 1,2 2,3 3,5 3,5 3,6 1,2 2,3 1,3 3,6 2,3 2,2 1,3 3,5 2,3 3,5 4,6 3,3 3,4 2,1 4,4 2,1 5,4 1,1 5,4 3,2 3,3 3,3 1,1 5,4 1,1 5,5 1,1 4,3 3,4 1,1 5,5 1,2 2,2 4,5 5,5 3,4 5,5 1,1 3,4 3,3 5,5 3,3 1,2 5,5 4,5 3,3 2,2 3,4 2,2 3,4 3,4 1,2 2,2 3,5 1,2 2,2 3,5 3,4 3,5 3,4 3,5 3,3 2,2 3,4 3,3 1,2 5,5 4,4 3,4 2,1 5,5 3,4 4,6 3,4 3,5 3,4 3,4 2,3 1,2 5,6 3,4 3,4 2,1 3,3 3,3 3,3 3,2 1,2 6,5 7,5 4,4 3,3 2,2 3,4 1,2 3,3 3,4 2,3 1,2 5,6 3,4 3,5 3,4 3,5 2,2 1,2 3,5 2,2 1,2 3,5 3,4 5,6 1,3 2,2 3,4 3,4 5,6 1,2 2,2 3,3 3,4 1,2 5,5 5,4 3,3 1,1 5,4 1,1 5,4 1,1 6,4 6,4 2,1 6,4 6,5 2,1 4,4 2,1 4,4 2,2 3,3 3,3 5,6 3,4 4,6 2,2 1,3 3,4 3,4 3,5 3,4 5,6 3,4 5,5 1,2 2,2 4,5 2,2 1,2 5,5 3,4 3,4 1,2 4,4 3,4 4,6 2,2 1,2 3,4 3,4 5,6 1,2 3,3 5,4 5,4 1,1 6,4 2,1 4,4 2,1 4,3 2,2 3,2 5,5 4,5 2,2 3,3 3,4 1,2 3,4 3,3 5,6 3,4 5,5 1,2 3,3 3,4 2,1 3,4 3,3 1,2 5,4 1,2 3,3 4,3 1,2 5,5 3,3 4,6 3,4 3,4 3,5 3,5 2,3 2,3 1,2 3,6 3,5 3,6 2,2 3,5 3,5 4,5 3,3 2,1 5,3 6,1 7,2 6,2 2,1 6,5 5,5 1,2 2,2 4,6 2,2 1,2 3,5 2,2 1,1 5,6 4,4 3,2 5,3 2,1 4,3 3,2 3,3 3,4 2,2 3,4 3,6 1,2 4,7 1,3 3,6 2,3 3,7 1,3 3,5 2,3 1,3 2,2 3,4 1,1 6,4 7,2 7,1 6,2 6,6 2,2 1,2 3,4 2,3 2,2 3,6 1,3 2,3 1,2 3,6 2,3 3,5 3,4 4,6 3,3 7,5 7,5 6,3 2,1 6,4 1,1 5,4 2,1 4,4 2,2 3,3 3,3 1,1 5,5 1,2 3,4 3,3 5,6 2,2 1,2 5,5 1,2 2,2 4,5 3,4 5,5 4,5 2,2 3,3 5,5 4,4 2,2 3,3 4,4 6,5 6,4 7,6 1,1 3,3 3,3 2,2 4,5 2,2 1,2 5,6 3,4 3,4 2,2 3,3 3,4 4,5 2,1 3,3 4,3 3,2 3,2 4,2 4,3 3,3 3,3 2,1 3,4 3,4 1,3 3,4 2,3 3,5 3,5 2,2 1,3 3,4 2,2 1,2 5,5 7,4 6,2 8,1 5,2 1,1 6,5 2,1 1,2 5,6 3,5 3,4 2,3 1,2 3,4 2,2 1,2 5,5 6,4 1,1 6,2 8,2 6,2 6,3 2,1 4,4 2,1 3,3 4,5 5,5 2,2 3,3 3,4 1,1 3,3 3,3 2,2 4,4 2,1 4,4 2,1 5,4 1,1 5,4 3,2 3,3 3,2 3,2 4,4 7,6 4,4 3,4 2,2 3,3 1,2 3,4 3,4 3,4 5,5 3,4 3,4 2,1 4,5 2,1 4,4 2,1 4,3 3,2 7,3 6,2 6,2 h 1 l 6,2 6,3 h 2 l 6,4 2,1 6,4 4,5 2,1 3,3 4,5 5,4 2,2 4,4 2,2 3,2 4,3 2,1 4,3 5,2 3,2 6,3 8,3 3,2 3,1 6,3 1,1 6,4 7,4 1,1 6,5 6,4 5,4 3,3 3,2 3,2 3,3 5,3 1,1 5,4 1,1 6,4 2,1 4,3 2,2 6,4 5,4 1,2 5,4 1,1 3,3 5,4 6,5 6,5 2,1 6,3 7,5 h 2 l 4,3 3,1 5,3 5,3 1,1 5,3 1,1 5,4 3,3 1,1 5,6 3,3 5,7 3,5 3,4 1,3 3,4 3,5 5,6 1,2 2,2 5,4 7,4 6,1 h 8 l 6,1 8,4 6,5 4,4 3,3 2,2 4,5 5,4 3,3 3,2 3,2 5,2 1,1 8,3 1,1 5,1 8,2 4,1 2,1 7,3 2,1 4,4 2,1 4,5 3,4 4,5 1,3 2,2 3,5 1,3 3,5 3,5 2,3 1,2 3,4 2,2 3,4 5,3 1,1 5,1 7,1 6,1 3,1 5,2 3,2 3,3 3,3 3,4 5,5 3,4 1,2 3,3 2,2 3,3 4,4 7,5 7,5 6,4 2,1 4,3 2,1 6,4 6,5 8,5 6,3 4,1 h 3 7 3 4 l 6,1 6,4 5,6 3,4 3,5 3,5 3,5 2,3 3,5 3,5 3,5 3,4 4,4 7,4 7,3 6,2 h 2 l 6,2 6,2 1,1 5,2 5,3 3,2 4,3 2,1 4,3 3,2 3,2 4,2 4,3 3,3 3,2 3,2 3,3 3,2 3,3 5,4 6,5 5,5 3,3 1,1 5,5 4,5 3,3 2,1 4,5 4,4 4,5 5,4 1,2 3,3 5,4 6,6 4,3 2,2 5,3 3,2 4,4 2,1 4,3 3,2 3,2 3,2 4,3 4,3 3,2 3,2 3,3 3,2 2,1 6,5 6,5 6,5 2,1 6,3 7,3 6,2 8,1 6,1 6,3 8,4 6,5 5,5 3,3 1,1 5,5 4,5 3,3 2,2 4,4 5,5 3,3 2,1 4,5 6,5 2,1 4,3 2,1 6,4 8,5 6,5 4,4 3,3 2,1 4,5 5,5 3,4 2,1 4,4 6,5 8,3 h 6 l 8,1 h 1 5 l 7,2 6,3 8,4 6,5 6,6 2,1 3,3 3,4 1,1 3,4 2,1 3,4 5,5 3,4 3,3 1,2 3,4 3,3 2,2 4,5 3,3 5,5 1,1 5,4 6,5 8,3 1,1 5,2 6,3 1,1 7,4 4,4 3,3 2,2 4,6 3,4 3,4 2,2 3,3 3,4 6,5 8,2 h 6 7 l 7,1 3,1 4,4 2,1 4,4 5,6 3,3 1,2 3,4 2,2 3,3 5,5 4,4 2,1 6,3 7,4 3,1 4,1 7,3 2,1 4,2 6,2 2,1 6,2 5,2 h 1 l 8,2 6,2 7,4 3,1 4,3 3,3 4,5 3,3 3,5 3,4 5,6 3,5 3,4 5,5 3,3 6,5 6,3 3,2 4,1 6,2 5,1 3,1 6,3 3,1 5,3 3,2 3,2 3,2 3,3 3,2 5,5 4,5 2,1 3,4 4,4 5,4 1,2 5,3 3,2 5,3 h 1 l 8,3 1,1 5,2 6,3 8,4 1,1 5,3 1,1 6,5 6,5 7,4 1,2 5,3 1,1 5,4 3,2 3,2 3,2 3,2 4,3 4,3 3,2 3,2 3,2 4,3 3,1 5,3 1,1 8,4 6,3 3,2 5,2 3,2 3,2 4,3 2,1 5,4 3,3 1,1 5,5 4,5 3,3 2,2 3,3 1,2 3,3 5,5 5,4 1,2 5,4 3,2 1,1 5,4 3,1 4,3 5,2 h 2 l 6,2 6,3 h 1 l 6,4 6,5 2,2 3,3 3,3 2,2 3,4 3,3 1,2 5,5 4,4 2,1 4,3 4,1 6,2 7,1 2,1 4,1 8,3 1,1 5,3 2,2 6,5 4,4 2,2 3,3 3,3 1,1 5,5 1,1 4,3 3,3 1,2 6,5 5,5 1,1 3,2 5,4 1,1 5,4 2,1 6,4 1,1 5,4 1,1 6,4 6,4 7,5 6,5 1,1 5,4 1,1 5,4 3,3 1,1 5,5 5,4 3,3 3,2 3,3 1,1 5,4 1,1 6,4 2,1 5,3 3,2 4,2 3,2 3,2 5,3 3,2 3,3 3,2 3,2 5,4 6,5 4,4 3,3 3,3 3,2 2,2 5,4 1,1 5,4 1,1 5,4 1,2 5,3 3,3 1,1 5,4 1,1 7,5 6,4 6,4 3,1 4,2 6,2 8,4 3,1 3,2 5,3 3,2 3,3 3,3 1,1 5,4 2,2 4,4 2,2 3,2 3,3 1,1 6,5 2,1 4,3 2,1 6,5 6,5 5,5 3,3 4,6 2,2 1,2 5,6 2,2 1,1 5,5 4,4 3,2 6,2 2,1 4,1 8,1 6,2 2,1 6,5 4,5 2,2 1,2 3,4 4,4 1,2 3,4 2,1 3,4 3,2 3,2 4,2 6,2 h 3 l 5,1 6,1 5,3 3,2 3,3 3,2 1,2 5,5 1,2 4,4 3,3 4,6 3,4 5,4 1,2 3,3 3,3 2,1 6,5 6,4 2,1 6,4 h 1 l 5,3 6,2 1,1 7,3 3,1 3,2 4,2 3,2 5,3 1,1 6,4 2,1 5,3 1,1 5,4 3,2 4,3 2,1 4,4 3,2 3,3 4,2 1,1 5,4 1,2 5,4 1,2 3,3 3,3 2,1 6,6 5,3 1,1 6,4 2,1 6,3 7,4 3,1 4,2 4,3 3,3 3,2 3,3 2,2 4,5 5,5 3,3 6,6 6,4 2,1 6,3 h 1 l 6,2 6,3 7,3 1,1 6,5 5,5 1,1 3,4 5,4 4,5 2,2 3,3 5,4 6,5 6,5 1,1 5,3 1,1 5,4 3,2 3,2 3,3 2,1 4,4 2,2 4,4 2,1 3,3 3,3 3,3 5,4 4,4 2,2 4,4 3,3 2,1 4,5 5,5 2,1 3,4 3,4 1,1 3,4 3,3 5,5 3,4 1,1 5,4 1,1 7,3 4,1 h 2 l 7,2 6,1 5,2 2,1 4,4 3,3 2,1 4,5 5,6 3,3 4,5 2,2 3,3 5,4 6,4 7,5 6,4 2,2 4,3 2,2 3,3 3,3 2,2 4,6 3,3 5,6 3,3 3,3 3,3 5,3 6,4 3,2 4,2 5,2 1,1 6,4 2,1 5,3 1,2 3,3 3,3 2,2 4,5 2,1 3,4 3,3 4,5 4,4 1,1 5,5 4,5 3,3 2,2 4,4 5,5 1,2 3,3 4,3 1,2 3,3 3,3 2,1 4,5 2,1 4,4 2,2 3,2 4,4 4,2 3,2 4,2 3,2 5,3 1,1 6,3 6,5 2,1 5,3 1,1 5,5 3,2 1,2 5,5 4,5 3,4 4,4 3,4 1,2 3,4 3,4 5,5 1,2 3,3 3,2 3,2 5,3 5,2 h 1 l 8,3 3,1 3,2 4,4 3,3 2,2 3,3 2,2 3,4 3,4 1,2 3,4 3,3 6,5 2,1 6,3 h 1 l 5,1 8,2 4,2 2,1 4,5 3,4 3,4 4,6 3,5 1,3 3,6 2,3 3,5 1,3 2,3 3,5 3,4 3,4 3,3 1,2 5,3 8,4 1,1 5,2 7,2 h 2 l 4,2 8,3 h 2 l 4,3 5,2 1,1 5,4 3,2 3,3 3,3 2,2 4,4 2,2 3,3 3,3 1,2 5,4 1,1 3,3 3,3 4,2 4,4 6,5 2,1 4,3 2,1 6,4 1,1 5,2 3,2 5,2 4,3 h 2 l 7,4 h 2 l 4,2 7,3 1,1 6,3 h 2 l 4,3 3,2 5,3 3,2 3,3 3,2 5,4 1,1 5,3 1,1 6,4 6,4 2,1 6,4 2,1 4,3 3,2 5,3 1,1 5,3 3,2 3,3 3,2 5,3 1,2 5,3 1,1 6,4 2,1 4,2 5,2 3,1 6,2 8,1 h 1 5 6 l 8,1 6,2 4,3 3,2 3,2 3,3 2,1 4,5 2,2 3,3 3,3 2,1 4,4 2,1 6,4 h 1 l 5,3 6,2 2,1 6,4 7,5 5,4 1,2 3,3 5,4 6,6 5,4 1,1 6,3 2,1 6,3 3,1 4,1 7,2 6,2 h 1 l 6,3 3,1 5,2 6,3 6,4 2,1 6,4 6,4 1,1 6,4 7,4 1,1 6,3 3,2 3,1 6,3 2,1 6,3 2,1 6,5 4,4 2,2 3,3 3,3 1,2 5,5 1,2 3,3 4,4 4,4 3,3 2,2 4,4 2,1 6,5 6,4 8,5 6,3 3,1 3,1 7,4 7,3 3,1 4,3 5,2 1,1 6,4 2,1 4,3 2,2 5,3 1,1 5,4 3,2 3,2 3,3 3,2 4,4 2,1 4,4 2,1 5,3 1,2 5,3 1,1 6,5 2,1 4,2 2,1 6,3 5,1 3,1 6,2 7,2 6,4 2,1 6,6 3,3 3,4 2,2 3,4 3,5 3,4 3,4 4,6 2,2 2,2 4,4 2,2 4,3 2,1 4,3 3,2 6,3 8,4 2,1 4,2 5,2 3,2 6,3 7,3 4,2 3,1 6,3 1,1 6,2 3,2 3,1 7,4 1,1 5,3 1,1 6,4 2,1 6,4 7,4 7,3 4,2 h 2 l 7,3 3,2 3,1 8,3 6,3 3,2 5,2 4,3 h 2 l 6,2 4,2 h 4 l 6,1 7,2 6,2 8,3 3,2 3,1 5,3 3,3 3,2 3,2 3,2 3,2 4,3 4,1 6,3 h 1 l 6,2 6,1 h 8 l 6,-1 8,-1 3,-1 3,-1 6,-1 h 7 l 7,1 7,1 h 5 1 l 8,1 6,1 h 8 l 6,-1 h 7 l 5,-1 h 1 l 7,-1 7,-1 h 6 l 8,1 3,1 3,1 8,3 3,1 h 3 7 l 5,-1 h 1 l 7,-3 3,-1 4,-2 6,-2 h 8 l 6,2 6,2 2,1 6,2 4,2 2,1 7,1 h 7 l 7,-1 6,-1 8,-4 1,-1 5,-3 3,-2 5,-3 3,-2 3,-2 6,-2 7,-2 6,-1 h 8 6 8 l 6,-1 h 8 l 1,-1 h 5 6 7 l 3,1 h 3 l 8,1 h 6 8 l 6,-1 6,-1 h 2 l 6,-1 7,-2 6,-1 h 2 l 4,-1 8,-1 6,-1 8,-1 6,-1 h 1 7 l 6,-1 h 7 l 6,1 h 5 l 1,1 8,1 6,1 6,2 h 2 l 6,2 7,2 4,1 h 3 l 6,1 7,1 h 6 8 6 l 8,-1 6,-1 h 7 l 7,1 6,3 1,1 6,4 6,5 6,5 2,1 6,3 h 8 1 l 5,-2 4,-3 3,-2 7,-3 6,-2 7,1 6,2 8,4 h 1 l 5,2 8,2 6,-1 7,-2 7,-1 7,-2 h 6 6 l 8,1 6,1 8,2 6,2 4,1 3,1 6,1 8,1 6,1 h 6 l 8,1 6,2 6,2 2,1 6,3 3,1 4,3 5,1 1,1 7,1 7,-1 3,-1 3,-1 8,-4 6,-2 8,-2 h 6 l 7,1 6,1 7,2 4,1 3,1 6,2 8,1 6,1 8,1 h 6 l 7,-1 6,-1 h 2 l 5,-1 7,-1 h 6 8 l 6,1 6,1 2,1 6,2 4,2 3,1 6,2 8,1 6,-1 6,-1 6,-2 2,-1 6,-2 8,-1 h 6 l 7,1 6,1 8,1 5,1 h 1 l 6,1 8,1 h 6 l 8,-1 h 6 l 4,-1 3,-1 6,-1 6,-1 8,-2 6,-1 8,-1 6,-1 h 7 l 7,1 h 7 l 6,1 h 6 8 l 6,-1 8,-1 6,-2 7,-2 7,-2 h 1 l 6,-2 6,-1 6,-1 8,1 6,2 5,1 3,1 6,2 7,1 3,1 h 4 7 5 l 1,-1 8,-1 6,-1 6,-1 3,-1 5,-1 6,-2 7,-2 h 2 l 5,-1 7,-1 6,-1 h 8 l 6,-1 6,1 h 8 6 l 7,-1 h 6 7 1 6 l 6,1 8,2 6,2 8,2 6,1 7,-1 6,-2 4,-1 4,-2 6,-2 2,-1 4,-1 8,-1 h 6 l 8,1 h 6 7 l 6,-1 8,-2 h 2 l 4,-2 6,-2 3,-1 5,-2 6,-3 8,-3 3,-1 3,-2 7,-2 2,-1 4,-1 8,-2 6,-1 h 2 l 6,-1 6,-1 h 6 8 l 6,1 7,1 h 3 3 l 8,1 h 6 8 6 l 6,-1 8,-2 6,-2 1,-1 6,-3 5,-2 1,-1 8,-3 2,-1 4,-1 6,-2 h 8 6 l 8,1 6,1 7,1 5,1 h 1 l 8,1 h 6 6 8 l 6,-1 h 7 l 7,1 7,1 6,2 5,1 h 3 l 6,1 h 6 l 6,-2 2,-1 6,-2 3,-2 4,-1 7,-2 7,1 6,3 h 2 l 6,3 3,2 3,1 h 8 l 3,-1 3,-2 6,-4 6,-4 1,-1 7,-2 h 7 l 6,4 8,5 6,3 2,1 6,1 6,-2 6,-3 1,-1 6,-4 2,-1 5,-2 7,-2 6,1 8,3 1,1 5,2 5,2 1,1 8,3 4,1 h 2 7 l 6,-1 8,-2 5,-2 1,-1 8,-4 h 1 l 5,-2 6,-1 h 8 l 6,1 7,2 h 3 l 3,1 h 8 6 l 3,-1 5,-1 6,-1 6,-1 8,-2 h 6 7 l 6,-1 h 8 l 6,-1 8,-1 h 6 7 7 l 6,1 h 7 l 6,-1 7,-1 1,-1 6,-2 5,-2 3,-1 6,-2 4,-1 3,-1 h 7 6 l 3,1 4,1 h 6 l 8,1 h 6 l 8,-1 4,-1 2,-1 6,-2 4,-2 4,-2 6,-3 7,-3 5,-1 1,-1 h 8 l 5,1 h 1 l 8,3 6,2 6,1 h 8 6 l 7,-2 6,-2 8,-2 h 1 l 5,-2 8,-1 6,-1 6,1 7,1 7,2 7,3 6,1 8,-1 6,-1 8,-3 6,-1 7,-1 h 6 l 7,1 7,1 h 6 l 8,-1 6,-3 8,-5 6,-3 3,-1 4,-2 6,-1 h 7 l 7,2 6,1 8,2 6,1 8,1 h 6 l 6,-1 7,-2 3,-2 4,-1 6,-3 1,-1 6,-3 8,-4 3,-1 3,-1 8,-1 h 6 l 6,2 h 1 l 6,4 2,1 4,3 4,2 4,2 5,2 1,1 h 8 l 3,-1 3,-1 8,-4 6,-4 3,-1 3,-1 7,-1 h 6 l 8,1 h 6 l 8,-1 6,-1 4,-1 4,-1 6,-2 6,-2 h 1 l 6,-2 h 6 l 8,-1 h 6 l 8,1 6,1 8,1 h 1 l 5,1 7,2 6,1 6,1 8,1 6,1 8,2 4,1 h 2 l 7,1 h 7 l 6,-1 h 4 l 3,-1 6,-2 5,-2 3,-1 6,-3 3,-1 5,-2 6,-1 6,-1 h 1 5 2 l 6,2 6,3 1,1 5,3 1,1 6,4 2,1 6,3 8,2 6,-1 3,-1 4,-2 7,-2 1,-1 5,-1 7,-1 h 6 l 8,1 h 6 8 l 6,-1 7,-2 h 3 l 4,-1 7,-2 6,-1 5,-1 h 1 l 8,-1 6,1 6,1 h 2 l 6,1 7,2 6,1 h 4 1 3 l 6,-2 6,-1 6,-2 h 2 6 5 l 3,2 6,3 7,4 2,1 4,2 7,1 7,-3 2,-1 4,-3 2,-1 6,-5 1,-1 5,-2 3,-2 5,-1 6,1 4,1 3,1 6,3 h 2 l 5,2 7,3 6,1 8,1 6,1 h 8 6 l 7,-1 6,-1 7,-1 7,-2 6,-2 5,-1 h 3 6 5 l 3,1 6,3 3,1 4,2 6,2 2,1 h 4 l 8,-1 6,-2 5,-2 3,-2 6,-2 3,-1 5,-1 h 6 l 7,1 h 6 8 l 6,-1 6,-2 5,-2 h 3 l 6,-2 h 8 6 l 7,2 5,1 h 1 l 6,2 8,1 h 6 l 8,1 h 6 7 7 7 6"
           style="fill:none;fill-opacity:1;stroke-width:15;stroke-miterlimit:4;stroke-dasharray:none" />
      </g>
      <g
         transform="matrix(0.218201,0,0,0.218201,-2548.7142,-1375.6151)"
         id="g1732"
         style="font-weight:400;font-size:353px;font-family:'Arial embedded';visibility:visible;fill:none;fill-opacity:1;fill-rule:evenodd;stroke:#0047ff;stroke-width:15;stroke-miterlimit:4;stroke-dasharray:none">
        <path
           id="path1734"
           d="m 7325,6670 4,-6 3,-4 3,-4 3,-4 2,-2 3,-3 3,-4 1,-1 5,-4 1,-1 7,-4 6,-3 7,-1 6,-1 h 6 l 8,1 h 6 l 8,1 6,2 3,1 5,2 6,3 7,4 6,4 3,1 3,1 8,3 5,1 h 1 l 8,1 h 6 8 6 l 7,1 6,2 3,1 5,2 5,2 1,1 6,4 6,5 2,1 6,4 7,3 4,1 h 3 l 7,1 6,-1 6,-1 h 2 l 6,-1 h 6 l 6,1 2,1 6,4 4,5 3,5 4,5 3,5 3,6 1,2 3,6 3,5 3,4 3,4 3,3 3,1 5,1 6,-1 8,-3 6,-1 7,2 3,2 4,3 3,3 3,4 1,2 3,4 3,4 3,4 5,5 3,4 3,3 1,2 5,4 6,5 2,1 6,3 1,1 6,2 7,1 4,1 3,1 6,3 2,1 6,5 4,5 2,2 1,2 4,4 1,2 3,4 3,4 2,2 1,2 5,5 6,5 1,1 6,1 8,1 3,1 3,1 6,3 2,1 6,5 3,4 3,4 2,2 3,4 3,3 1,2 3,4 2,2 3,3 4,4 6,4 2,1 6,3 2,1 4,3 3,3 3,2 2,2 4,6 2,2 1,2 3,4 2,2 2,3 3,4 3,4 4,6 2,2 3,3 4,3 2,1 4,2 7,2 h 1 l 6,3 2,1 4,4 2,2 3,4 3,4 1,3 2,2 3,5 3,5 3,4 2,3 1,2 5,5 4,4 3,1 6,1 h 8 6 l 6,2 2,1 6,5 3,4 3,4 1,2 4,4 3,5 3,5 3,4 3,5 3,4 1,2 3,3 3,4 5,5 3,3 2,1 4,4 2,2 4,4 2,1 3,3 3,2 3,3 3,3 1,1 7,5 4,4 2,2 4,3 3,3 3,2 3,3 2,1 4,5 2,1 3,4 3,3 2,2 3,5 1,2 2,2 3,6 3,5 1,3 3,5 2,3 1,3 2,2 3,5 2,3 1,2 3,5 2,1 3,4 4,3 2,1 4,2 8,2 6,3 3,2 5,5 3,5 3,5 3,5 1,3 2,3 1,3 3,6 2,3 1,3 2,3 2,2 3,5 4,6 3,3 6,4 2,1 6,3 5,2 1,1 6,4 5,4 3,4 1,2 3,4 2,2 1,3 3,4 3,5 4,5 3,6 1,2 3,5 3,5 3,4 3,4 5,7 3,3 4,6 2,1 2,2 4,5 6,5 2,1 4,4 2,1 4,4 3,2 2,1 5,5 4,5 3,3 2,2 3,4 1,2 2,2 4,7 2,2 1,2 3,5 2,2 2,2 3,4 3,5 4,5 2,2 1,2 5,5 3,4 4,5 5,4 2,2 3,3 4,4 2,1 4,5 5,4 3,3 3,2 3,3 1,2 5,5 5,5 3,3 4,6 2,1 1,2 5,6 1,2 2,2 4,6 4,3 4,6 3,3 3,4 2,2 3,4 3,4 1,2 3,4 2,2 1,2 4,4 3,5 3,5 3,5 3,5 3,5 3,5 1,2 3,5 3,5 3,5 4,4 4,6 3,4 3,3 2,2 4,4 2,2 3,2 3,3 1,2 5,4 2,2 4,4 2,2 3,3 3,3 1,1 5,5 1,2 3,3 3,3 2,2 5,4 1,2 3,3 3,3 2,1 4,5 2,2 3,3 3,3 4,5 2,2 3,4 3,4 2,2 1,2 5,6 3,4 3,4 1,2 3,4 3,4 5,5 3,3 5,5 1,2 3,3 5,5 4,5 2,2 1,1 5,7 3,4 3,5 2,2 1,3 3,5 2,3 3,5 3,5 1,3 2,2 3,5 1,2 2,2 3,4 3,4 5,5 1,1 3,3 5,4 1,1 5,4 1,1 5,4 1,1 5,5 2,1 3,3 3,3 1,2 5,4 1,2 3,3 3,3 2,1 6,6 5,4 1,1 3,3 5,5 4,5 2,1 3,4 3,5 1,2 2,2 3,5 2,3 1,2 2,3 3,5 3,5 3,6 1,2 2,3 3,4 1,2 2,2 3,4 3,3 1,2 5,3 2,1 6,4 6,4 1,1 5,4 1,2 5,4 1,2 2,2 5,6 3,4 3,4 1,3 2,2 4,6 3,4 3,4 2,2 1,2 5,6 3,4 5,5 4,5 2,1 3,3 3,3 1,1 6,5 7,4 6,5 1,2 3,2 3,4 2,1 4,6 2,2 1,2 3,4 2,2 3,5 3,4 2,2 1,2 3,4 2,2 3,3 3,3 1,1 6,4 2,1 5,2 4,2 3,2 3,3 3,3 2,2 3,5 3,5 1,3 3,7 2,3 3,7 2,4 1,3 2,4 1,3 2,3 3,6 1,3 3,5 3,4 6,5 7,2 7,2 h 2 l 4,2 5,3 3,3 1,2 5,5 3,5 3,4 2,3 1,2 3,4 2,2 1,2 5,6 1,1 3,3 3,2 5,2 1,1 8,3 6,4 2,2 4,4 2,2 3,4 3,4 3,4 3,5 2,3 1,2 3,5 2,2 1,3 3,4 2,3 1,2 3,4 3,4 5,6 1,2 2,1 5,5 1,2 3,3 3,2 3,3 5,4 6,5 6,4 2,1 6,4 6,4 7,5 6,5 7,4 1,2 5,4 1,1 3,3 5,6 3,4 3,4 4,6 4,4 3,4 3,4 4,6 2,2 1,1 5,5 1,2 3,3 3,3 3,2 5,4 6,4 8,6 6,4 6,5 1,2 4,2 3,3 1,2 5,5 1,2 2,2 4,6 3,4 3,5 3,4 5,5 5,5 1,1 3,3 5,2 6,2 h 3 l 4,1 7,2 3,2 4,4 5,7 1,2 2,2 3,5 1,3 3,6 3,5 2,2 2,3 3,4 1,2 2,2 4,5 2,1 6,3 7,2 7,2 h 1 l 5,3 1,2 5,5 1,2 3,4 3,5 3,4 3,5 2,2 1,2 4,4 1,1 3,4 5,3 1,1 5,1 7,2 7,1 h 3 l 3,1 7,4 6,5 5,5 3,3 1,2 5,5 3,3 5,6 3,3 3,4 1,2 5,5 1,2 2,2 4,5 5,4 2,2 3,2 4,4 2,2 4,3 2,1 4,4 2,1 4,5 2,1 3,3 5,5 4,5 2,2 1,2 3,4 3,5 3,4 3,5 4,5 3,4 1,3 2,3 3,5 1,2 2,3 3,4 1,3 2,2 3,4 3,4 4,5 2,2 3,2 5,2 6,1 7,1 6,1 8,3 2,1 4,5 5,6 1,2 2,2 3,5 3,5 3,5 3,5 3,5 2,2 3,5 3,5 3,5 3,4 3,5 1,2 3,3 3,4 5,5 2,1 3,3 4,3 3,2 3,2 5,3 3,2 3,2 3,2 3,3 5,5 4,5 2,2 1,2 3,5 3,4 3,5 3,4 3,5 3,4 2,3 2,2 4,6 3,4 3,4 5,6 3,3 4,5 2,1 4,4 4,2 3,2 3,2 6,3 1,1 6,3 h 2 l 4,3 5,3 3,2 3,2 3,2 3,3 5,4 1,1 5,4 4,5 4,4 1,1 3,4 2,2 3,3 3,4 1,1 3,4 3,3 2,2 4,5 2,1 3,3 3,3 2,2 4,3 6,5 2,2 4,3 2,2 4,4 3,2 2,2 5,4 1,1 5,3 1,2 6,4 6,3 3,1 5,1 6,1 8,2 1,1 5,3 1,1 5,5 1,2 2,2 3,5 2,3 1,2 3,5 3,5 3,5 3,4 3,4 3,4 2,1 6,3 5,1 h 1 8 l 6,1 7,3 2,1 5,4 1,1 5,5 1,2 3,3 3,4 5,5 3,4 4,6 2,1 1,2 5,5 5,4 3,3 3,2 3,2 4,3 3,1 7,1 7,2 h 2 l 4,2 6,3 5,4 3,4 1,2 5,5 3,4 3,4 2,2 3,4 3,4 4,5 3,3 2,1 4,3 2,1 6,4 3,1 3,2 5,2 3,2 4,3 2,1 6,4 6,5 2,1 4,3 2,2 4,3 3,2 3,2 3,2 5,4 3,2 3,2 3,2 3,3 3,2 3,3 5,4 4,4 2,1 5,4 3,3 1,1 5,4 1,1 6,5 6,4 2,1 6,3 2,1 4,3 3,2 3,3 3,2 5,4 1,1 5,3 1,1 7,4 6,3 7,1 6,-1 8,-2 6,-1 8,2 4,3 2,1 4,5 2,1 1,2 5,6 2,1 1,2 5,6 3,4 4,6 3,3 3,3 2,2 4,4 2,2 5,4 1,1 5,3 1,1 6,3 2,1 6,2 6,2 h 2 l 6,2 7,1 6,2 8,2 5,2 1,1 6,4 2,2 3,2 3,4 1,1 5,5 4,5 4,4 1,1 3,3 2,2 4,4 3,2 5,2 1,1 8,3 3,1 h 3 l 6,2 6,2 2,1 6,3 1,1 6,3 2,1 5,4 3,2 4,4 6,5 5,5 3,3 1,1 5,5 5,5 1,2 3,3 5,4 4,5 2,1 3,3 4,4 2,1 5,3 1,1 6,3 5,2 h 1 l 8,3 4,2 h 2 l 6,4 2,1 4,4 2,1 4,4 2,2 3,3 3,3 1,2 3,3 4,3 3,2 4,4 2,1 4,3 2,1 6,3 3,2 3,2 3,2 3,2 3,3 5,4 1,1 5,5 4,4 3,3 3,2 4,3 3,2 4,2 5,2 1,1 8,2 3,2 3,1 5,3 3,2 3,3 3,4 1,1 3,4 2,2 3,4 3,3 1,2 3,4 3,3 7,6 1,1 3,3 3,2 5,2 3,2 6,4 6,3 2,1 6,5 4,4 2,2 3,3 4,5 5,4 1,2 4,3 4,5 5,5 1,1 3,3 5,5 4,4 2,1 4,4 2,2 3,2 5,4 1,1 5,3 1,1 6,4 2,1 4,3 3,2 5,3 2,1 4,3 3,2 5,3 3,2 3,2 3,2 4,3 4,2 3,2 4,3 2,1 4,3 3,3 3,2 3,2 3,3 5,4 2,1 4,4 5,4 3,3 3,2 3,3 3,2 3,2 6,3 h 2 l 6,2 4,2 3,1 6,2 3,2 5,2 3,2 3,2 3,3 5,4 1,1 5,5 4,5 3,4 5,5 2,2 1,2 3,4 2,2 3,4 3,4 1,2 3,3 3,4 6,5 2,1 5,3 1,1 8,4 6,2 6,2 3,1 5,1 6,3 h 1 l 6,4 2,1 4,4 2,1 4,5 2,2 1,2 5,6 3,4 3,4 2,2 1,2 5,6 4,4 2,1 4,3 3,1 7,1 7,1 6,1 5,1 3,1 6,4 6,5 2,1 3,3 3,3 1,1 5,5 1,2 3,4 3,3 5,5 2,2 3,3 4,5 6,4 8,4 h 4 l 2,1 h 8 6 l 6,2 6,3 1,1 5,3 2,1 4,3 3,3 3,2 3,2 6,3 2,1 6,2 5,1 3,1 6,3 1,1 6,6 5,5 1,2 2,2 3,4 2,2 1,3 3,4 3,4 2,2 3,4 1,2 2,2 6,5 6,3 1,1 7,2 6,1 6,1 1,1 6,1 6,3 h 2 l 6,3 3,2 3,2 3,3 5,3 1,1 5,4 1,2 5,4 2,1 4,4 2,1 4,3 2,1 6,4 h 1 l 6,3 4,1 4,2 6,3 8,5 6,5 4,4 4,2 3,3 3,3 1,1 6,5 6,3 2,1 4,3 5,2 3,2 6,3 8,4 h 1 l 5,3 3,2 5,3 1,2 5,3 1,2 5,4 4,4 3,4 2,1 4,5 5,5 3,3 2,2 4,3 2,1 6,4 h 1 l 5,2 7,2 5,1 2,1 7,4 5,5 1,1 3,4 3,3 5,6 3,4 5,6 1,1 2,2 4,5 2,1 4,4 2,1 6,3 1,1 7,3 1,1 5,2 6,2 1,1 6,2 5,2 3,1 6,3 2,1 6,3 3,2 3,1 4,3 3,1 7,4 6,3 1,1 6,3 3,2 3,2 5,2 3,2 5,4 1,1 3,2 5,5 1,1 5,5 3,4 4,5 3,4 4,3 1,2 3,4 3,4 2,1 4,6 5,4 1,2 2,2 6,5 5,4 1,1 6,4 2,1 6,3 7,4 2,1 4,2 5,3 2,1 4,4 3,2 3,3 3,3 2,1 4,5 2,1 3,3 3,3 3,2 5,4 6,4 1,1 6,5 6,5 5,4 3,3 2,1 4,6 5,5 1,2 2,2 4,5 2,2 1,2 5,5 5,4 3,3 3,2 3,2 4,3 3,1 5,3 1,1 7,3 1,1 6,3 3,2 3,2 3,1 5,4 3,2 3,2 3,3 5,4 6,6 4,4 3,3 5,5 1,2 3,3 4,4 1,2 3,3 3,4 2,1 4,5 5,5 3,3 6,6 5,4 3,2 4,3 2,1 6,4 1,1 6,4 6,4 2,1 5,4 1,1 3,3 3,2 3,3 5,4 6,6 4,3 4,2 4,3 2,1 6,4 h 1 l 6,3 2,1 6,3 3,2 3,2 5,3 1,1 6,4 2,1 4,3 2,1 6,4 2,1 4,3 2,1 4,4 3,2 5,3 1,1 5,3 1,1 5,4 3,2 5,3 1,1 5,4 3,3 1,2 5,5 3,4 3,4 1,2 2,2 3,5 2,3 1,2 3,5 3,4 3,5 3,3 2,2 4,4 8,3 6,1 h 8 1 l 5,2 6,4 1,1 4,3 3,4 4,6 3,4 3,4 3,4 2,2 4,4 8,3 6,1 h 6 2 l 6,1 6,4 1,1 5,4 2,2 3,4 3,3 1,2 3,4 3,3 5,5 3,3 1,1 5,3 3,2 3,2 6,3 2,1 6,3 6,6 1,1 3,4 4,4 4,5 3,4 3,4 3,4 2,2 3,4 3,3 1,2 5,4 6,5 8,4 6,4 h 1 l 6,3 5,2 1,1 8,4 6,4 2,1 4,4 2,1 4,4 2,2 3,3 3,3 2,2 4,5 2,1 3,3 3,2 3,2 4,3 5,2 h 1 l 8,2 6,1 5,1 1,1 8,4 6,4 2,1 4,4 2,1 4,4 2,2 3,2 4,4 2,2 4,4 7,5 1,1 5,3 1,1 6,4 8,5 6,3 1,1 7,3 3,2 3,2 4,3 3,2 3,3 3,2 3,3 5,3 6,5 6,5 2,1 4,3 2,1 6,4 8,4 6,4 1,2 6,5 5,4 1,1 3,3 5,4 2,1 4,4 2,1 6,2 6,1 6,1 h 6 2 l 6,1 6,4 1,1 5,4 1,1 3,4 5,5 3,3 3,3 2,2 4,4 2,1 6,4 6,3 3,2 5,2 4,2 2,1 6,4 1,1 5,4 1,2 3,3 5,5 5,5 1,1 3,3 3,3 2,2 4,4 2,1 3,3 3,2 3,3 4,2 4,2 3,2 7,3 h 2 l 4,1 8,2 6,1 2,1 4,1 8,3 1,1 5,2 3,2 4,3 2,1 5,4 1,2 5,4 1,2 3,3 3,3 2,2 4,5 2,2 3,3 3,2 2,2 6,4 6,2 6,1 3,1 4,2 7,3 1,1 6,5 3,4 3,3 2,2 3,5 3,4 3,4 3,5 5,6 3,4 4,5 2,1 3,3 3,2 3,2 4,4 h 2 l 5,3 4,3 3,1 5,3 h 1 l 8,5 6,3 1,1 5,3 2,1 6,5 6,5 4,4 3,3 3,3 3,3 2,1 5,5 1,1 5,4 1,2 3,2 5,4 6,6 5,4 1,1 5,3 3,3 3,2 3,2 3,2 4,4 3,2 3,1 5,3 3,2 5,3 1,1 6,3 2,1 6,3 1,1 5,2 5,2 3,2 6,3 7,5 6,5 5,5 3,3 2,2 3,3 1,2 3,4 3,3 2,2 3,4 3,3 1,2 5,4 1,2 4,2 3,2 4,3 2,1 7,3 6,3 5,2 3,1 6,3 2,1 6,3 3,1 3,2 7,3 7,3 4,2 h 2 l 7,3 3,2 3,1 6,3 2,1 6,3 h 2 l 6,3 6,2 6,1 h 8 l 6,-1 h 3 l 4,-1 h 6 l 8,1 h 2 l 4,2 8,3 h 1 l 5,2 6,2 h 8 1 5 l 7,-1 6,-1 8,-2 h 6 l 8,-1 6,1 6,1 7,3 2,1 5,2 4,3 3,1 6,2 h 8 l 6,-1 8,-3 3,-1 3,-1 7,-1 6,-1 7,1 h 7 6 l 8,-1 4,-1 h 2 l 8,-2 6,-2 h 1 l 6,-1 6,-1 7,1 7,1 6,1 8,1 h 6 l 8,1 h 6 l 6,1 h 7 l 7,1 7,1 6,2 6,1 h 2 l 6,2 8,1 h 6 l 6,-1 4,-2 3,-2 6,-3 8,-5 6,-2 8,-1 6,2 6,2 2,1 6,3 h 1 l 5,2 7,1 6,1 h 8 6 l 8,1 6,1 8,2 6,2 7,2 6,1 6,1 h 8 l 6,-1 8,-4 6,-3 1,-1 7,-4 3,-1 3,-2 7,-1 6,1 6,2 8,4 3,1 3,1 8,1 h 6 l 7,-2 h 4 l 3,-1 h 6 l 4,1 3,1 6,2 5,2 3,2 6,3 8,3 1,1 5,1 7,2 h 7 l 6,-1 6,-2 1,-1 6,-3 3,-1 5,-3 6,-1 8,-1 3,1 3,1 7,3 7,4 3,1 3,2 4,3 3,1 6,2 3,1 5,1 h 6 l 8,-1 6,-2 6,-3 h 1 l 7,-2 h 7 l 6,2 2,1 4,3 5,2 3,1 6,2 8,-2 4,-2 2,-1 6,-4 1,-1 6,-4 8,-2 6,2 3,1 3,1 6,4 2,1 6,3 2,1 6,1 6,-1 6,-1 1,-1 6,-2 7,-1 7,-2 h 6 l 8,-1 h 6 8 l 6,-1 h 7 6 l 7,1 7,3 6,2 6,2 2,1 h 6 l 8,-1 6,-3 3,-2 4,-3 3,-1 3,-2 7,-1 7,2 2,1 4,2 5,3 3,2 6,2 8,1 4,-1 2,-1 7,-3 2,-1 4,-3 3,-2 5,-3 3,-1 3,-1 6,-2 6,-2 h 2 6 l 8,1 6,1 7,3 2,1 4,1 8,3 6,2 6,1 8,-2 3,-2 3,-3 1,-1 3,-5 4,-5 3,-5 1,-3 2,-3 1,-4 3,-5 2,-3 1,-3 2,-3 3,-4 1,-2 2,-1 4,-3 8,4 3,4 3,4 3,5 3,5 2,3 1,2 3,5 2,2 1,1 6,5 h 2 5 1 l 6,-4 2,-1 4,-4 2,-1 4,-5 5,-5 3,-3 2,-1 4,-4 2,-1 6,-3 3,-1 h 3 l 4,1 3,1 5,4 2,1 3,3 4,4 2,1 4,4 6,4 5,1 h 3 l 2,-1 4,-1 8,-4 6,-3 1,-1 6,-3 3,-2 4,-1 7,-3 h 2 l 4,-1 8,-1 6,-1 h 6 l 8,1 h 6 7 l 7,-1 7,-1 h 6 l 6,-1 h 2 6 1 l 5,1 8,2 6,2 h 1 l 6,3 3,2 3,2 5,3 3,1 6,2 h 6 l 8,-3 1,-1 5,-3 3,-2 5,-3 3,-2 3,-1 h 7 l 6,3 8,4 h 2 l 4,2 6,1 8,-2 1,-1 5,-3 3,-3 5,-3 1,-1 5,-3 3,-1 4,-1 h 6 l 5,1 3,1 6,2 6,1 2,1 6,1 h 6 8 6 l 7,2 6,1 8,2 6,1 h 8 l 6,-1 6,-2 h 1 l 7,-2 h 6 l 7,1 5,1 1,1 8,4 6,3 3,1 5,2 6,1 h 6 l 8,-1 6,-2 h 1 l 6,-3 3,-1 3,-2 6,-3 2,-1 6,-2 6,-2 h 8 l 4,1 h 2 l 8,1 6,1 h 7 l 6,-1 6,-2 h 2 l 6,-1 6,-1 h 8 l 6,1 7,1 2,1 5,1 7,2 3,1 3,1 8,2 6,1 6,-1 8,-1 4,-2 2,-1 7,-3 4,-1 3,-1 7,-2 6,-1 h 8 6 5 l 3,-1 h 6 l 6,-1 7,-1 h 7 l 7,1 6,2 8,2 6,2 h 8 l 6,-1 6,-2 6,-2 h 1 l 7,-1 7,-1 6,1 8,2 6,1 6,1 8,-1 6,-1 h 1 l 6,-2 6,-1 h 8 l 6,1 8,2 6,1 6,1 h 8 l 6,-1 7,-1 h 6 2 6 6 8 l 6,-1 6,-2 6,-3 h 2 l 6,-4 7,-4 h 3 l 3,-1 7,1 1,1 6,3 2,1 6,4 6,4 1,1 6,2 7,1 6,-2 6,-2 h 1 l 6,-3 3,-1 5,-2 6,-1 8,-1 1,-1 h 5 7 7 6 7 6 l 8,-1 6,-1 8,-1 6,-1 h 1 l 5,-1 h 8 6 7 6 8 l 6,-1 8,-2 6,-1 h 1 l 5,-1 h 8 6 l 7,-1 h 6 l 8,-2 h 1 l 5,-2 8,-2 4,-1 h 2 l 6,-1 h 7 l 7,1 7,1 h 6 l 8,-1 h 3 l 3,-1 8,-3 1,-1 5,-2 7,-2 h 6 5 2 l 7,-1 6,-1 8,-2 1,-1 5,-2 6,-3 h 2 l 6,-1 7,2 6,5 3,4 4,3 1,2 5,4 1,2 5,3 1,1 8,-1 1,-1 5,-4 5,-5 3,-4 1,-2 3,-4 2,-2 1,-2 5,-4 7,-6 7,-1 h 7 l 6,1 5,1 3,1 6,2 8,2 h 6 6 l 7,-4 3,-1 3,-2 7,-3 1,-1 6,-1 8,1 4,2 2,1 6,4 2,1 4,3 2,1 6,3 1,1 6,1 h 6 l 8,-2 6,-1 8,-2 6,-1 h 1 l 7,-1 6,-1 7,-1 6,-1 5,-1 h 1 l 8,-2 h 6 l 8,-1 h 6 8 l 6,1 7,-1 6,-1 6,-1 8,-2 6,-2 h 2 l 6,-3 6,-2 h 1 l 6,-2 h 7 l 6,1 3,2 4,2 3,2 3,3 3,2 5,3 3,1 3,1 8,1 6,-2 1,-1 6,-3 2,-1 5,-3 1,-1 5,-3 3,-2 4,-2 6,-3 8,-2 6,-1 h 8 l 6,1 7,1 h 7 l 6,1 7,-1 h 6 l 8,-1 6,-1 h 8 l 6,1 h 7 7 l 7,-1 3,-1 3,-2 6,-3 h 2 l 6,-3 6,-1 h 8 l 6,3 4,1 3,2 6,1 h 8 l 6,-2 3,-2 3,-1 3,-2 5,-3 3,-2 3,-1 8,-2 6,1 6,2 1,1 6,2 7,2 7,1 6,-1 5,-1 h 3 l 6,-3 5,-2 3,-1 4,-3 2,-1 7,-3 6,-2 7,-1 7,2 3,1 3,1 8,4 6,1 h 8 l 6,-2 h 1 l 6,-2 6,-2 h 2 l 5,-1 3,1 4,1 6,3 8,4 4,1 h 2 5 l 3,-1 6,-4 7,-5 6,-4 6,-3 h 8 l 6,2 3,1 5,2 h 6 l 8,-2 1,-1 5,-3 3,-2 4,-3 2,-1 4,-2 h 8 l 6,3 5,4 1,2 5,4 3,3 1,1 5,3 4,1 h 4 l 6,-2 4,-3 3,-2 3,-2 3,-2 6,-3 8,-1 6,1 5,1 h 3 l 6,1 7,-1 5,-1 h 2 l 7,-3 5,-1 1,-1 h 8 l 3,1 3,1 6,4 8,4 6,3 4,2 h 3 7 4 l 3,-1 6,-1 6,-1 h 8 l 6,1 8,1 h 6 7 l 7,-1 7,-2 5,-1 1,-1 6,-2"
           style="fill:none;fill-opacity:1;stroke-width:15;stroke-miterlimit:4;stroke-dasharray:none" />
      </g>
      <g
         transform="matrix(0.218201,0,0,0.218201,-2548.7142,-1375.6151)"
         id="g1736"
         style="font-weight:400;font-size:353px;font-family:'Arial embedded';visibility:visible;fill:none;fill-opacity:1;fill-rule:evenodd;stroke:#33cc66;stroke-width:15;stroke-miterlimit:4;stroke-dasharray:none">
        <path
           id="path1738"
           d="m 7325,6780 7,-4 6,-2 3,-2 5,-2 6,-2 3,-1 5,-1 6,-1 h 7 l 6,1 6,1 2,1 6,3 3,1 3,2 6,4 2,1 4,3 2,1 6,4 2,1 6,3 7,4 6,4 3,1 3,2 8,3 6,3 6,2 h 2 l 6,1 h 8 l 6,-1 6,-1 h 1 6 8 1 l 5,2 6,3 2,1 6,5 4,4 2,1 3,4 4,5 4,4 3,4 4,6 3,4 3,4 3,3 2,2 4,4 2,1 6,3 3,1 3,1 8,1 6,2 h 1 l 6,4 4,2 3,2 3,2 4,3 2,2 4,2 3,2 3,1 8,2 h 6 l 8,1 3,1 3,1 4,4 3,3 2,2 3,4 2,3 1,2 3,5 3,5 3,6 2,2 1,3 2,2 3,5 3,5 3,4 3,4 5,5 1,2 3,2 5,4 3,1 3,2 7,2 h 7 l 3,1 h 4 l 6,1 8,2 1,1 5,3 3,3 3,3 2,1 4,5 2,1 3,3 3,3 1,2 6,5 5,4 1,1 7,4 1,1 5,3 1,1 6,4 6,5 2,1 4,3 2,1 5,4 3,3 1,1 5,5 4,6 3,4 5,6 1,2 2,2 3,4 3,5 3,4 3,4 5,6 1,2 2,2 4,5 2,2 3,3 3,3 2,1 6,5 6,4 6,4 1,1 6,4 8,5 6,4 2,1 4,3 2,1 6,4 1,1 5,4 1,1 5,4 2,1 4,4 2,2 3,2 4,5 5,4 1,2 3,3 5,5 5,5 1,2 2,2 4,6 3,4 3,4 2,2 1,2 5,7 3,4 3,4 2,2 3,3 3,4 4,4 3,3 3,3 3,2 3,2 5,4 2,1 4,4 5,5 3,4 3,5 3,5 3,5 3,5 3,5 3,5 2,2 4,7 2,2 1,2 5,4 1,1 6,3 8,2 h 6 l 6,1 8,2 6,3 3,2 5,3 1,2 5,4 4,5 3,4 2,2 3,4 1,2 2,2 3,4 3,4 1,2 4,4 1,2 2,2 4,5 2,2 3,3 3,3 1,1 5,4 1,1 5,4 1,2 4,3 3,3 1,2 3,4 3,4 2,3 3,4 1,3 3,5 3,5 2,2 1,3 4,5 1,2 2,2 3,4 1,2 3,4 5,4 6,4 6,4 1,1 7,5 6,5 1,1 3,4 3,3 5,5 3,4 4,6 2,2 2,3 3,4 1,2 2,2 4,6 2,2 1,3 3,4 2,1 1,2 5,6 1,1 3,3 4,2 3,2 4,2 6,2 6,1 2,1 6,3 2,1 4,5 2,2 1,2 3,5 2,3 1,3 3,6 2,3 3,6 1,3 2,3 1,3 2,3 3,6 2,3 3,4 4,6 5,4 1,1 5,3 3,2 6,3 6,4 2,1 4,5 2,1 3,4 3,4 3,4 3,4 1,3 3,4 3,5 4,4 3,4 1,2 2,3 3,4 1,2 2,2 4,6 2,2 1,2 3,4 2,2 1,2 5,6 2,3 1,2 3,4 2,2 3,4 3,4 3,3 4,6 5,4 1,2 4,2 4,4 2,1 4,3 3,1 5,4 3,2 3,3 1,1 5,6 3,5 3,5 2,3 3,6 1,3 2,3 1,3 2,3 3,6 1,3 3,6 3,5 3,5 4,4 1,2 2,2 4,4 6,5 2,1 4,4 2,1 3,3 3,4 1,1 4,4 3,5 3,5 3,5 3,5 3,5 1,2 2,3 3,4 1,3 2,2 3,4 3,4 5,5 1,1 3,4 5,4 4,6 2,1 1,2 3,5 2,2 1,2 4,5 3,6 3,6 1,3 2,2 1,3 2,3 3,6 1,3 2,3 1,2 3,6 3,4 3,4 2,2 3,3 3,3 2,2 6,5 6,4 4,4 3,3 2,2 5,5 3,4 3,4 1,2 3,4 3,5 3,4 3,4 2,2 3,4 3,4 5,6 1,2 2,2 3,4 3,4 1,2 3,4 2,2 1,2 3,5 3,5 3,5 2,3 2,3 1,2 3,6 2,2 1,3 2,3 3,5 1,2 2,2 3,5 1,2 3,3 5,4 6,4 8,4 1,1 5,3 3,3 3,3 1,2 3,4 3,4 4,5 3,5 3,6 1,2 3,6 3,5 3,5 3,5 3,4 2,2 1,1 5,6 5,4 3,3 1,2 5,5 4,5 2,2 1,2 3,4 3,5 4,5 3,5 3,5 1,3 3,6 3,5 2,3 1,3 2,2 3,6 3,5 1,2 3,5 2,3 2,2 3,5 3,5 3,5 3,4 3,5 3,5 3,4 3,5 1,2 2,2 3,5 2,2 1,2 5,6 1,1 2,2 4,5 5,4 3,2 4,3 2,1 6,4 2,1 4,3 2,1 4,4 3,4 2,2 3,4 1,2 2,3 3,4 2,3 1,2 3,5 3,4 3,4 3,4 2,1 6,5 6,3 3,1 5,2 6,3 4,5 3,4 3,5 3,6 2,3 3,7 1,3 2,4 3,7 2,3 1,4 3,7 2,3 1,3 2,3 1,3 3,5 2,2 1,2 3,4 2,1 5,5 3,2 3,2 3,1 6,3 7,3 3,2 3,1 7,4 h 1 l 6,5 6,4 2,2 3,3 3,2 1,2 5,4 2,2 4,4 2,1 3,3 3,2 4,3 3,1 6,3 8,5 6,4 5,5 3,4 1,2 3,4 2,2 1,3 3,4 4,5 3,5 3,6 1,2 3,5 2,2 1,3 3,4 3,5 5,5 1,2 3,3 5,4 6,3 5,1 h 3 1 l 5,-1 7,-2 7,-1 7,2 3,2 3,3 3,3 3,3 5,6 3,3 2,2 4,4 6,4 2,1 6,2 7,1 5,1 h 2 l 7,5 5,4 1,2 3,4 3,4 3,4 3,5 2,2 2,2 4,6 3,4 5,5 4,4 2,1 4,4 3,2 3,2 4,2 4,4 2,1 3,2 4,4 2,2 4,4 5,5 3,3 1,1 5,5 5,5 3,3 1,2 5,4 4,4 3,3 2,2 5,4 1,1 5,4 6,5 1,1 5,4 1,2 3,2 5,4 1,2 5,4 5,5 3,3 1,2 3,4 2,1 3,4 3,4 1,1 3,4 3,3 2,2 5,4 6,4 1,1 6,4 8,5 6,4 2,1 6,5 4,4 2,1 3,3 4,5 5,5 1,1 4,3 4,4 2,1 4,3 2,1 4,3 3,2 5,4 1,1 5,3 2,2 4,4 2,1 3,3 3,4 1,2 5,5 1,2 2,2 4,5 3,4 5,5 5,5 1,2 3,3 3,3 6,6 2,2 3,3 3,2 1,2 5,4 2,2 3,3 3,2 3,3 4,4 5,4 1,2 5,3 2,2 4,3 3,2 3,3 3,2 3,3 5,4 6,6 3,3 5,5 3,4 3,4 1,3 3,4 3,4 3,4 3,4 2,2 3,3 3,4 2,1 4,4 6,6 5,3 3,3 3,3 3,4 4,6 4,4 3,5 3,5 3,5 3,5 1,2 3,5 3,5 3,4 3,4 2,1 5,5 1,1 6,4 8,3 1,1 5,2 4,3 4,2 3,3 3,2 3,3 4,4 5,5 1,1 3,3 5,5 5,4 1,1 5,4 1,1 5,4 3,2 3,2 3,2 4,3 3,2 7,3 7,4 6,3 2,1 4,4 2,1 6,6 5,4 1,2 3,3 5,5 4,4 2,1 4,3 3,2 5,3 h 2 l 7,4 h 2 l 4,2 5,3 1,1 6,4 2,1 5,4 1,1 5,4 3,2 1,2 5,3 1,1 6,5 7,3 3,1 4,2 6,3 8,3 3,2 3,1 6,4 8,4 6,4 1,1 6,3 2,1 5,3 3,2 4,3 3,1 3,2 6,2 3,1 5,1 6,1 8,1 4,2 h 2 l 7,4 2,1 4,3 2,2 5,4 1,1 3,3 3,4 2,1 4,6 2,1 1,2 5,6 4,5 2,2 2,2 4,5 2,2 1,1 5,5 6,6 1,1 5,3 1,1 5,3 3,1 6,3 3,1 3,1 8,1 6,1 5,1 3,1 6,3 1,1 6,5 5,5 1,2 3,3 4,4 1,1 3,4 3,3 2,1 4,3 5,1 3,1 h 6 l 8,1 6,2 3,2 4,5 3,3 3,5 2,2 3,4 3,5 3,4 3,5 3,3 5,4 1,1 5,2 6,1 8,1 h 6 l 7,4 3,2 3,2 3,3 5,4 6,5 6,4 8,2 6,2 3,1 5,1 4,3 2,2 3,3 3,4 1,3 2,2 3,5 1,3 2,3 1,3 3,6 2,3 2,2 1,3 3,5 5,5 3,3 1,1 5,1 6,-1 3,-1 5,-2 6,-1 h 7 l 6,3 2,1 6,5 5,4 1,2 3,3 3,3 2,1 4,5 2,2 3,3 3,2 3,3 4,3 2,1 5,3 3,2 4,1 6,2 5,1 3,1 6,4 2,1 4,4 5,6 3,5 3,5 1,2 2,3 1,2 3,5 3,5 4,4 3,4 6,5 1,1 6,1 8,-1 6,-1 8,1 6,2 3,2 3,3 3,2 4,4 5,5 2,1 4,4 3,3 2,1 4,4 2,1 6,4 6,5 6,5 6,5 2,1 3,3 3,2 3,3 4,3 2,2 5,3 1,1 6,4 6,4 2,1 6,4 1,1 5,2 3,2 5,4 1,1 5,4 1,1 5,4 6,6 1,1 3,3 3,3 2,1 5,5 1,1 5,4 1,2 3,2 5,4 1,1 5,3 1,1 5,3 5,2 3,1 6,2 6,1 1,1 6,1 8,3 h 2 l 4,2 5,3 3,1 4,3 2,2 4,3 2,2 3,3 5,5 4,5 2,2 1,2 5,5 1,2 3,3 3,3 7,6 1,1 3,3 3,2 5,3 3,1 6,3 7,2 7,2 h 6 l 1,1 h 6 l 6,1 8,2 5,1 1,1 8,3 1,1 5,3 3,2 3,2 3,3 5,4 4,5 2,1 3,4 4,5 5,5 1,2 2,1 4,5 2,2 3,3 3,3 2,2 4,4 2,2 3,3 3,2 3,3 4,3 2,1 5,3 3,1 3,2 7,3 6,1 8,1 h 6 8 l 6,2 3,1 3,1 4,4 4,2 1,2 5,4 4,5 3,4 2,1 4,5 6,4 2,1 6,3 2,1 6,2 6,2 h 1 l 5,2 7,3 7,4 1,1 6,4 2,1 4,4 2,1 4,4 2,1 5,4 1,1 3,3 5,4 1,1 5,3 3,1 4,2 6,1 7,1 6,1 h 1 l 6,3 2,2 4,4 2,2 3,4 3,5 3,5 3,5 2,2 1,2 3,5 2,2 1,2 3,3 2,2 6,3 h 1 l 7,1 7,-1 3,-1 h 3 8 l 1,1 5,1 8,4 6,4 1,1 6,4 6,5 7,5 6,4 1,1 5,3 1,1 8,4 6,2 8,3 6,2 4,3 2,1 4,3 3,3 3,3 3,3 2,1 5,4 1,2 3,2 3,3 3,2 5,2 6,3 8,2 6,3 6,3 3,2 4,4 6,5 5,5 3,3 2,1 4,4 2,1 6,4 h 1 l 5,2 8,2 1,1 5,1 6,3 1,1 6,4 6,6 5,4 3,2 2,2 4,4 2,1 6,4 1,1 5,2 4,2 4,2 6,3 6,4 1,1 5,3 1,2 5,4 1,2 3,2 5,5 5,4 1,1 5,4 3,2 4,3 2,1 6,3 1,1 7,3 1,2 6,4 5,4 1,2 3,3 3,3 2,2 4,4 2,2 3,3 3,3 2,1 6,5 6,4 1,1 6,3 2,1 5,4 1,1 5,4 1,2 3,3 3,4 2,2 3,4 1,2 2,2 3,5 3,4 2,2 3,4 1,2 2,1 4,5 2,2 4,3 2,1 4,3 3,2 5,3 2,1 6,4 4,4 3,3 3,3 3,3 2,1 4,5 2,2 3,3 3,2 2,2 6,5 6,5 6,4 1,1 5,3 2,1 6,5 1,1 5,3 1,1 5,4 1,1 5,4 3,3 1,1 5,5 5,5 3,3 1,2 3,4 2,1 3,4 3,4 1,2 3,3 3,3 2,2 5,4 4,4 3,2 5,3 1,1 6,3 2,1 6,4 h 2 l 6,5 6,4 6,5 1,1 5,4 1,1 5,3 3,2 6,3 6,3 3,2 5,3 1,1 5,3 2,2 4,4 2,2 3,3 3,4 1,2 3,4 3,5 3,4 3,4 5,6 2,2 1,2 5,5 1,2 2,2 4,4 2,1 4,4 2,1 6,3 h 1 l 7,2 h 6 7 l 6,2 3,2 4,2 3,3 3,4 1,2 2,2 3,5 1,2 2,3 3,4 3,5 3,4 3,4 1,2 5,4 2,1 6,3 h 1 l 6,1 6,2 6,3 2,1 5,3 1,2 3,3 3,3 2,2 3,4 3,4 1,1 3,4 2,1 3,3 5,4 1,1 5,3 3,2 4,3 3,1 3,2 6,4 2,1 5,3 1,1 3,3 3,3 3,3 5,4 4,5 2,1 3,3 5,4 1,1 5,4 6,5 1,2 5,3 1,2 3,2 3,3 2,2 6,5 5,5 1,1 3,3 5,3 1,2 5,2 3,2 4,1 7,2 7,1 6,1 6,2 5,3 3,2 2,2 4,4 2,2 4,4 2,2 1,2 5,5 4,4 3,3 2,2 5,4 1,1 5,4 1,2 5,4 1,1 3,2 3,3 3,3 5,4 6,5 5,4 3,2 3,2 3,3 4,3 3,2 5,2 2,1 7,4 6,3 2,1 6,3 3,2 3,2 3,3 3,2 3,2 5,4 1,2 5,4 4,4 3,3 3,3 4,3 1,1 5,5 1,1 3,3 3,2 3,3 5,3 3,1 3,2 6,3 8,3 1,1 5,3 3,2 4,4 5,5 1,2 4,3 4,5 5,5 1,2 2,2 4,4 6,6 2,1 3,3 3,2 3,2 5,3 3,2 3,2 4,3 3,2 5,3 1,1 5,3 3,2 5,3 1,1 5,4 1,1 3,3 5,4 1,1 5,5 5,4 3,3 1,2 5,5 4,4 3,3 2,2 4,5 5,4 3,2 3,3 3,2 3,2 3,2 5,2 3,2 6,2 3,1 5,2 6,3 6,5 1,2 3,3 3,3 2,2 3,3 3,4 2,1 4,5 6,4 2,1 6,2 h 6 l 8,1 3,1 3,1 6,3 1,2 5,4 1,2 2,2 4,5 2,2 2,2 4,6 3,4 5,5 3,4 3,3 1,1 5,4 1,1 7,5 4,4 2,1 4,4 3,3 3,2 3,3 2,1 6,6 5,4 1,1 5,4 1,1 3,2 5,4 3,2 3,2 3,2 5,4 1,1 5,5 4,4 3,4 2,2 3,4 1,2 3,3 3,4 2,2 3,3 3,3 2,2 4,3 8,4 4,1 h 2 l 7,1 7,1 6,3 1,1 6,3 6,5 2,1 5,4 1,1 5,4 1,1 5,3 3,2 4,2 2,1 7,5 7,4 6,5 1,1 3,3 3,3 3,3 5,4 4,4 2,2 5,3 3,2 4,3 h 2 l 6,3 3,1 4,1 7,4 6,4 1,1 5,5 1,1 3,3 5,5 3,4 3,3 3,3 5,3 6,4 1,1 5,2 4,2 3,1 7,2 4,2 3,1 6,3 2,1 6,2 6,3 6,1 8,2 3,1 3,1 7,2 5,2 1,1 5,3 3,3 3,3 3,3 2,2 3,3 3,3 1,2 5,5 5,5 1,1 5,4 3,1 4,3 h 2 l 7,3 5,1 h 1 l 8,1 6,1 8,2 3,1 3,1 6,2 3,1 5,3 3,2 3,2 4,3 3,2 3,2 3,2 5,3 3,2 6,3 8,3 3,1 3,2 7,3 7,4 h 1 l 5,3 3,2 4,3 3,1 3,2 7,4 1,1 6,3 8,4 1,1 5,2 3,2 4,3 5,2 2,1 6,4 7,3 6,1 8,-1 6,-3 3,-1 5,-3 4,-2 h 2 l 6,-2 h 8 l 6,1 4,2 3,1 6,2 5,1 3,1 6,1 8,1 h 6 l 6,-1 h 8 l 6,-1 h 7 l 6,1 8,2 5,1 h 1 l 8,3 6,2 h 6 7 l 4,-1 h 3 l 7,-2 6,-2 h 3 l 5,-1 6,1 h 3 l 5,1 6,1 7,1 6,2 h 2 l 5,1 7,1 6,1 h 8 6 l 8,1 h 6 1 l 6,2 6,1 5,2 2,1 7,3 2,1 4,2 6,2 2,1 6,2 8,1 h 6 l 6,-2 3,-2 4,-3 3,-3 4,-2 1,-1 6,-4 2,-1 4,-1 8,1 6,4 1,2 5,4 2,1 4,4 2,1 4,4 h 2 l 7,2 h 6 l 8,-2 5,-1 1,-1 h 8 6 l 3,1 5,1 6,1 6,2 4,1 h 3 l 6,1 h 8 6 8 l 6,-1 h 8 l 4,-1 h 2 7 6 6 l 7,1 h 1 l 6,2 5,2 3,2 4,3 2,1 6,4 2,1 6,3 h 1 l 6,1 3,-1 3,-1 6,-4 2,-1 6,-4 6,-3 3,-1 5,-2 h 6 7 l 7,1 6,1 7,-1 h 6 l 8,-1 6,-1 8,1 h 6 l 7,2 h 2 l 5,1 6,1 h 7 6 l 8,-1 5,-1 h 1 l 8,-1 h 6 7 7 l 6,1 h 7 6 l 8,-1 6,-1 8,-2 1,-1 5,-1 7,-3 h 2 l 5,-1 h 7 l 3,1 3,1 6,3 h 2 l 6,3 5,2 1,1 8,2 h 6 l 7,-1 6,-1 5,-1 3,-1 6,-1 6,-1 8,-1 6,-1 8,-1 6,-1 7,-2 h 5 1 l 7,-1 h 7 6 8 6 8 l 6,-1 7,-1 h 6 7 7 l 6,1 8,2 6,1 8,1 h 6 l 7,-1 6,-1 h 3 l 4,-1 7,-2 6,-1 5,-1 h 3 l 6,-1 8,1 h 4 l 2,1 7,1 6,1 8,1 h 6 l 6,-1 8,-2 6,-1 8,-2 6,-1 h 7 l 6,-1 8,1 6,1 6,1 8,1 h 6 l 8,-2 6,-3 7,-3 3,-2 3,-1 6,-2 h 8 l 6,1 8,2 6,1 7,2 7,1 7,1 5,1 h 1 l 6,1 8,1 6,1 8,1 h 6 l 7,-2 7,-2 1,-1 6,-2 6,-2 6,-1 h 8 l 5,1 h 1 l 8,2 h 6 l 7,-3 7,-4 1,-1 6,-4 6,-4 2,-1 6,-2 h 6 l 6,1 6,2 2,1 6,3 3,1 4,3 3,1 4,2 7,2 3,1 h 3 2 l 6,-2 4,-3 2,-1 5,-4 1,-1 5,-4 3,-3 1,-1 5,-3 3,-2 4,-1 h 6 l 8,1 2,1 4,2 6,2 2,1 6,2 6,1 8,1 6,-1 7,-4 6,-4 2,-1 6,-4 6,-4 3,-1 h 3 6 l 2,1 6,3 3,1 5,2 6,2 7,-1 6,-2 2,-1 6,-4 2,-1 4,-2 5,-3 h 1 l 8,-1 6,1 5,1 3,1 6,2 6,2 h 1 l 6,1 8,1 h 6 l 8,-1 6,-2 6,-2 6,-2 2,-1 6,-2 7,-1 h 6 8 l 6,1 8,2 1,1 5,1 6,2 4,2 4,1 6,2 6,1 h 1 l 6,2 8,1 h 6 l 6,1 3,1 h 5 l 6,1 h 8 l 6,-1 3,-1 4,-1 6,-3 8,-4 1,-1 5,-1 6,-2 8,1 6,2 3,1 4,2 7,3 7,2 5,2 h 1 l 8,1 h 6 l 6,-2 8,-3 3,-1 3,-2 7,-3 7,-2 7,-1 6,1 8,1 4,1 2,1 8,1 6,1 h 6 l 7,-1 7,-2 h 1 l 6,-2 6,-2 3,-1 5,-1 6,-2 3,-1 5,-1 6,-2 6,-1 6,-1 h 1 l 7,-1 h 7 6 8 6 6 l 8,1 h 6 4 l 3,1 h 6 l 8,1 6,1 8,1 h 6 6 l 8,-1 h 6 7 6 l 7,2 1,1 6,3 3,1 5,2 6,2 h 6 l 8,-4 1,-1 5,-3 1,-1 6,-5 6,-4 2,-1 6,-2 6,1 8,2 h 1 l 5,2 7,2 h 7 4 2 l 7,1 h 6 l 8,2 6,2 2,1 6,2 6,2 7,1 h 7 6 l 4,-1 3,-1 6,-2 8,-2 h 2 l 4,-1 8,-1 h 6 l 6,1 4,1 4,1 6,2 6,2 h 1 l 6,1 h 8 l 5,-1 1,-1 8,-3 3,-1 3,-1 6,-2 8,-2 h 6 7 l 2,1 h 4 l 8,2 6,1 8,1 6,1 h 6 7 7 7 6 l 8,1 6,2 2,1 6,1 6,1 7,-1 3,-1 3,-2 5,-3 2,-1 6,-4 1,-1 6,-3 8,-2 h 6 l 8,2 6,2 7,2 h 6 l 2,1 h 5 l 6,-1 h 1 6 l 8,-1 6,-1 h 8 6 l 6,1 4,2 3,1 7,3 1,1 6,2 6,1 8,-1 6,-3 h 1 l 7,-4 3,-1 3,-1 6,-2 h 7 l 6,1 8,2 2,1 4,1 8,-1 4,-1 h 2 l 8,-3 6,-2 6,-1 7,1 6,1 8,1 h 6 l 8,-2 6,-3 3,-2 5,-3 1,-1 5,-3 3,-2 4,-2 3,-2 3,-1 6,-2 h 8 6 l 8,1 6,2 1,1 7,1 6,2 7,1 h 2 3 1 l 6,-1 8,-2 6,-1 3,-1 5,-1 6,-2 7,-1 2,-1 h 5 6 l 4,1 h 3 l 6,2 8,1 6,1 8,-1 6,-1 7,-2 2,-1 5,-1 6,-1 7,-1 h 6 8 l 6,-1 h 2 l 6,-2 6,-3 7,-5 7,-3 3,-1 3,-1 7,-1 h 6 l 8,1 5,1 1,1 8,1 6,2 h 7 7 l 7,-1 6,-1 6,-3 8,-3 1,-1 5,-2 6,-3 h 2 l 6,-3 4,-1 3,-1 6,-1 h 8 l 6,1 6,1 8,2 6,1 h 8 6 l 7,-1 6,-1 h 7 l 7,1 6,1 8,1 4,1 h 2 l 8,1 6,1 h 7 l 6,-1 h 7 l 7,-1 6,-1 8,-1 h 6 l 8,1 3,1 3,1 7,1 6,1 h 7 l 7,-2 5,-1 1,-1 8,-3 3,-1 3,-1 8,-2 h 6 l 7,1 6,2 6,3 4,2 4,3 3,2 3,1 8,3 h 6 1 l 7,-4 1,-1 5,-5 4,-5 3,-4 5,-4 1,-2 6,-3 2,-1 6,1 h 2 l 4,3 5,2 3,2 6,2 h 8 l 6,-3 3,-2 4,-2 3,-2 3,-1 6,-2 8,3 h 2 l 4,3 3,2 5,3 3,2 3,1 7,1 7,-2 1,-1 6,-4 2,-1 4,-3 3,-2 5,-2 3,-2 3,-1 6,-2 3,-1 5,-1 6,-2 7,-1 5,-1 h 2 l 7,-1 h 6 6 l 5,1 3,1 6,2 6,2 2,1 6,1 7,-1 7,-1 7,-3 6,-2 h 2 l 4,-1 8,1 h 3 l 3,1 8,2 6,1 h 7 l 7,-1 7,-1 6,-2 h 2 l 6,-1 h 6 l 6,1 h 6 l 2,1 h 6 l 7,1 6,1 h 8 l 6,1 h 6 l 8,1 6,1 h 8 l 6,1 h 7 6 l 8,-1 h 6 l 8,1 h 6 l 6,1 8,1 h 6 7 l 6,-1 h 8 6 l 6,1 3,1 5,2 6,2 8,4 3,1 3,1 7,2 h 6 8 l 6,-1 h 6 8 6 l 8,2 3,1 3,1 7,3 2,1 4,2 3,2 5,2 6,3 8,1 6,-1 1,-1 5,-1 8,-4 6,-2 7,-2 6,-1 8,1 h 2 l 4,1 6,2 5,2 3,2 6,2 1,1 7,2 6,1 7,-1 6,-1 5,-2 3,-1 6,-2 h 8 l 6,1 4,2 2,1 7,4 2,1 5,2 7,2 h 6 8 l 6,1 h 6 l 8,2 4,2 h 2 l 7,4 2,1 5,2 4,2 3,1 6,2 3,2 5,1 6,2 6,1 h 2 l 6,1 h 6 l 7,1 7,2 4,1 3,1 6,3 8,4 3,1 3,2 8,2 h 6 l 6,-1 h 7 7 l 7,2 6,2 6,3 h 2 l 6,2 6,1 8,-2 6,-2 7,-4 3,-1 h 3 8 l 3,1 3,1 8,3 h 1 l 5,1 h 8 l 3,-1 3,-2 4,-3 2,-1 4,-3 3,-3 3,-2 3,-3 4,-1 4,-3 6,-2 h 3 l 5,-1 6,-1 6,-1 8,-2 h 1 l 5,-2 6,-3 h 1 l 6,-3 3,-2"
           style="fill:none;fill-opacity:1;stroke-width:15;stroke-miterlimit:4;stroke-dasharray:none" />
      </g>
      <g
         style="font-style:normal;font-weight:normal;font-size:91.4903px;line-height:1.25;font-family:sans-serif;letter-spacing:0px;word-spacing:0px;fill:#000000;fill-opacity:1;stroke:none;stroke-width:4.90126"
         id="text155"
         transform="rotate(-90)"
         aria-label="Current (A)">
        <path
           id="path984"
           style="font-style:normal;font-variant:normal;font-weight:normal;font-stretch:normal;font-size:91.4903px;font-family:'Latin Modern Sans';-inkscape-font-specification:'Latin Modern Sans';stroke-width:4.90126"
           d="m -890.0718,-1212.8217 -0.54895,-6.3128 c -2.65321,1.8298 -5.30643,3.5681 -8.4171,4.483 -2.92769,1.0064 -6.12985,1.0979 -9.24052,1.0979 -5.94687,0 -11.3448,-3.2021 -15.0959,-7.8681 -4.20856,-5.398 -6.22134,-12.1683 -6.22134,-19.03 0,-6.8618 2.01278,-13.7236 6.22134,-19.1215 3.7511,-4.666 9.14903,-7.8682 15.0959,-7.8682 2.74471,0 5.5809,0.2745 8.23412,1.0979 2.74471,0.8234 5.30644,2.1958 7.68519,3.8426 l 1.28086,-7.5022 c -2.74471,-1.0979 -5.58091,-2.0128 -8.50859,-2.5617 -2.8362,-0.549 -5.76389,-0.7319 -8.69158,-0.7319 -8.05115,0 -15.46186,3.6596 -20.85979,9.6064 -5.6724,6.4044 -8.60009,14.73 -8.60009,23.2386 0,8.5086 2.92769,16.8342 8.60009,23.147 5.39793,5.9469 12.80864,9.6065 20.85979,9.6065 3.20216,0 6.40432,-0.091 9.51499,-1.0064 3.11067,-0.8234 5.94687,-2.4702 8.69158,-4.1171 z" />
        <path
           id="path986"
           style="font-style:normal;font-variant:normal;font-weight:normal;font-stretch:normal;font-size:91.4903px;font-family:'Latin Modern Sans';-inkscape-font-specification:'Latin Modern Sans';stroke-width:4.90126"
           d="m -845.51603,-1208.7046 v -40.6217 h -7.13624 v 26.5322 c 0,6.8618 -5.12346,10.0639 -10.97884,10.0639 -6.49581,0 -7.13624,-2.3787 -7.13624,-6.3128 v -30.2833 h -7.13625 v 30.6493 c 0,6.5873 2.10428,10.9788 9.69797,10.9788 4.84899,0 11.3448,-1.4638 15.82783,-5.3979 v 4.3915 z" />
        <path
           id="path988"
           style="font-style:normal;font-variant:normal;font-weight:normal;font-stretch:normal;font-size:91.4903px;font-family:'Latin Modern Sans';-inkscape-font-specification:'Latin Modern Sans';stroke-width:4.90126"
           d="m -808.09665,-1244.2028 v -6.1299 c -8.14263,0.091 -13.1746,4.5745 -16.0108,8.7831 v -8.3256 h -6.40432 v 41.1706 h 6.86177 v -19.5789 c 0,-9.149 6.5873,-15.7363 15.55335,-15.9193 z" />
        <path
           id="path990"
           style="font-style:normal;font-variant:normal;font-weight:normal;font-stretch:normal;font-size:91.4903px;font-family:'Latin Modern Sans';-inkscape-font-specification:'Latin Modern Sans';stroke-width:4.90126"
           d="m -776.80705,-1244.2028 v -6.1299 c -8.14264,0.091 -13.17461,4.5745 -16.0108,8.7831 v -8.3256 h -6.40433 v 41.1706 h 6.86178 v -19.5789 c 0,-9.149 6.5873,-15.7363 15.55335,-15.9193 z" />
        <path
           id="path992"
           style="font-style:normal;font-variant:normal;font-weight:normal;font-stretch:normal;font-size:91.4903px;font-family:'Latin Modern Sans';-inkscape-font-specification:'Latin Modern Sans';stroke-width:4.90126"
           d="m -737.5578,-1228.741 c 0,-3.1106 -0.0915,-9.9724 -3.65961,-15.4618 -3.7511,-5.6724 -9.33201,-6.6788 -12.62566,-6.6788 -10.15543,0 -18.38955,9.698 -18.38955,21.5002 0,12.0767 8.78307,21.6832 19.7619,21.6832 5.76389,0 10.97884,-2.1958 14.54696,-4.7575 l -0.54894,-5.9469 c -5.76389,4.7575 -11.80225,5.1235 -13.90653,5.1235 -7.31922,0 -13.1746,-6.4958 -13.44907,-15.4619 z m -5.21495,-5.0319 h -22.5981 c 1.46384,-6.9533 6.31283,-11.5278 11.52778,-11.5278 4.75749,0 9.88095,3.1107 11.07032,11.5278 z" />
        <path
           id="path994"
           style="font-style:normal;font-variant:normal;font-weight:normal;font-stretch:normal;font-size:91.4903px;font-family:'Latin Modern Sans';-inkscape-font-specification:'Latin Modern Sans';stroke-width:4.90126"
           d="m -695.01497,-1208.7046 v -27.2641 c 0,-6.0384 -1.37235,-14.364 -12.53417,-14.364 -8.23412,0 -12.71715,6.2214 -13.26609,6.9533 v -6.4958 h -6.5873 v 41.1706 h 7.13624 v -22.4151 c 0,-6.0384 2.28726,-13.6321 9.24052,-13.6321 8.78307,0 8.87456,6.4958 8.87456,9.4235 v 26.6237 z" />
        <path
           id="path996"
           style="font-style:normal;font-variant:normal;font-weight:normal;font-stretch:normal;font-size:91.4903px;font-family:'Latin Modern Sans';-inkscape-font-specification:'Latin Modern Sans';stroke-width:4.90126"
           d="m -657.13813,-1211.1748 -1.46384,-5.398 c -2.37875,1.9213 -5.30644,3.0192 -8.23413,3.0192 -3.38514,0 -4.66601,-2.7447 -4.66601,-7.5937 v -22.8725 h 12.90014 v -5.3065 h -12.90014 v -11.6193 h -6.31283 v 11.6193 h -7.95965 v 5.3065 h 7.68518 v 24.4279 c 0,5.4894 1.28087,11.8937 7.5937,11.8937 6.40432,0 11.07032,-2.2873 13.35758,-3.4766 z" />
        <path
           id="path998"
           style="font-style:normal;font-variant:normal;font-weight:normal;font-stretch:normal;font-size:91.4903px;font-family:'Latin Modern Sans';-inkscape-font-specification:'Latin Modern Sans';stroke-width:4.90126"
           d="m -593.6442,-1185.832 c -4.39154,-4.3915 -16.0108,-16.1938 -16.0108,-45.7452 0,-5.1234 0.27447,-15.8278 4.02557,-26.6236 3.7511,-10.6129 8.96605,-16.1023 11.98523,-19.1215 h -5.58091 c -2.92769,2.7447 -9.05754,8.3256 -13.26609,19.5789 -3.65962,9.7895 -4.30005,19.4874 -4.30005,26.1662 0,29.5514 13.17461,41.7196 17.56614,45.7452 z" />
        <path
           id="path1000"
           style="font-style:normal;font-variant:normal;font-weight:normal;font-stretch:normal;font-size:91.4903px;font-family:'Latin Modern Sans';-inkscape-font-specification:'Latin Modern Sans';stroke-width:4.90126"
           d="m -548.63098,-1208.7046 v -40.6217 h -7.13624 v 26.3492 c 0,7.5937 -5.6724,10.2469 -10.97884,10.2469 -6.67879,0 -7.13624,-2.4702 -7.13624,-6.4958 v -30.1003 h -7.13625 v 58.3708 h 7.13625 v -16.9257 c 0.9149,0.183 2.10427,0.183 2.56173,0.183 4.75749,0 11.34479,-1.3724 15.82782,-5.3979 v 4.3915 z" />
        <path
           id="path1002"
           style="font-style:normal;font-variant:normal;font-weight:normal;font-stretch:normal;font-size:91.4903px;font-family:'Latin Modern Sans';-inkscape-font-specification:'Latin Modern Sans';stroke-width:4.90126"
           d="m -482.75809,-1208.7046 -23.87897,-63.4943 h -8.05115 l -23.87897,63.4943 h 6.77028 l 7.04476,-18.664 h 26.62368 l 6.95326,18.664 z m -17.38316,-23.7875 h -22.6896 c 4.66601,-13.0831 1.28087,-3.4766 5.94687,-16.5597 1.9213,-5.3979 4.7575,-13.1746 5.39793,-16.5598 h 0.0915 c 0.18298,1.2809 0.82341,3.5682 2.92769,9.6065 z" />
        <path
           id="path1004"
           style="font-style:normal;font-variant:normal;font-weight:normal;font-stretch:normal;font-size:91.4903px;font-family:'Latin Modern Sans';-inkscape-font-specification:'Latin Modern Sans';stroke-width:4.90126"
           d="m -451.83439,-1231.5772 c 0,-29.5513 -13.1746,-41.7195 -17.56613,-45.7451 h -5.58091 c 4.39153,4.3915 16.0108,16.1938 16.0108,45.7451 0,5.1235 -0.27447,15.8279 -4.02557,26.6237 -3.7511,10.6129 -8.96605,16.1023 -11.98523,19.1215 h 5.58091 c 2.92769,-2.7447 9.05754,-8.3256 13.26609,-19.5789 3.65961,-9.7895 4.30004,-19.4875 4.30004,-26.1663 z" />
      </g>
      <text
         xml:space="preserve"
         id="text157"
         style="font-style:normal;font-weight:normal;font-size:196.051px;line-height:1.25;font-family:sans-serif;letter-spacing:0px;word-spacing:0px;white-space:pre;shape-inside:url(#rect159);fill:#000000;fill-opacity:1;stroke:none;" />
      <g
         style="font-style:normal;font-weight:normal;font-size:91.4903px;line-height:1.25;font-family:sans-serif;letter-spacing:0px;word-spacing:0px;fill:#000000;fill-opacity:1;stroke:none;stroke-width:4.90126"
         id="text155-4"
         aria-label="Time (s)">
        <path
           id="path969"
           style="font-style:normal;font-variant:normal;font-weight:normal;font-stretch:normal;font-size:91.4903px;font-family:'Latin Modern Sans';-inkscape-font-specification:'Latin Modern Sans';stroke-width:4.90126"
           d="m 205.23522,1758.7426 v -5.9468 h -55.62611 v 5.9468 h 12.2597 c 1.09789,0 2.19577,-0.091 3.29365,-0.091 h 8.23413 v 57.09 h 8.14264 v -57.09 h 8.14263 c 1.09789,0 2.19577,0.091 3.29365,0.091 z" />
        <path
           id="path971"
           style="font-style:normal;font-variant:normal;font-weight:normal;font-stretch:normal;font-size:91.4903px;font-family:'Latin Modern Sans';-inkscape-font-specification:'Latin Modern Sans';stroke-width:4.90126"
           d="m 222.89282,1815.7411 v -40.6217 h -6.86177 v 40.6217 z m 0.73192,-51.7835 v -8.1427 h -8.14263 v 8.1427 z" />
        <path
           id="path973"
           style="font-style:normal;font-variant:normal;font-weight:normal;font-stretch:normal;font-size:91.4903px;font-family:'Latin Modern Sans';-inkscape-font-specification:'Latin Modern Sans';stroke-width:4.90126"
           d="m 295.71896,1815.7411 v -27.2641 c 0,-6.1299 -1.46384,-14.364 -12.53417,-14.364 -5.48942,0 -10.24692,2.5617 -13.63206,7.5022 -2.37874,-6.9533 -8.78307,-7.5022 -11.71076,-7.5022 -6.5873,0 -10.88734,3.7511 -13.35758,7.0448 v -6.5873 h -6.5873 v 41.1706 h 7.13624 v -22.4151 c 0,-6.2214 2.47024,-13.6321 9.24052,-13.6321 8.5086,0 8.96605,5.9469 8.96605,9.4235 v 26.6237 h 7.13625 v -22.4151 c 0,-6.2214 2.47023,-13.6321 9.24052,-13.6321 8.50859,0 8.96605,5.9469 8.96605,9.4235 v 26.6237 z" />
        <path
           id="path975"
           style="font-style:normal;font-variant:normal;font-weight:normal;font-stretch:normal;font-size:91.4903px;font-family:'Latin Modern Sans';-inkscape-font-specification:'Latin Modern Sans';stroke-width:4.90126"
           d="m 341.00653,1795.7047 c 0,-3.1107 -0.0915,-9.9724 -3.65961,-15.4618 -3.7511,-5.6724 -9.33201,-6.6788 -12.62566,-6.6788 -10.15543,0 -18.38955,9.6979 -18.38955,21.5002 0,12.0767 8.78307,21.6832 19.7619,21.6832 5.76389,0 10.97884,-2.1958 14.54696,-4.7575 l -0.54894,-5.9469 c -5.76389,4.7575 -11.80225,5.1235 -13.90653,5.1235 -7.31922,0 -13.1746,-6.4958 -13.44907,-15.4619 z m -5.21494,-5.032 h -22.59811 c 1.46385,-6.9532 6.31283,-11.5277 11.52778,-11.5277 4.75749,0 9.88095,3.1106 11.07033,11.5277 z" />
        <path
           id="path977"
           style="font-style:normal;font-variant:normal;font-weight:normal;font-stretch:normal;font-size:91.4903px;font-family:'Latin Modern Sans';-inkscape-font-specification:'Latin Modern Sans';stroke-width:4.90126"
           d="m 404.59199,1838.6137 c -4.39154,-4.3916 -16.0108,-16.1938 -16.0108,-45.7452 0,-5.1234 0.27447,-15.8278 4.02557,-26.6237 3.7511,-10.6128 8.96605,-16.1023 11.98523,-19.1214 h -5.58091 c -2.92769,2.7447 -9.05754,8.3256 -13.26609,19.5789 -3.65962,9.7894 -4.30005,19.4874 -4.30005,26.1662 0,29.5514 13.17461,41.7196 17.56614,45.7452 z" />
        <path
           id="path979"
           style="font-style:normal;font-variant:normal;font-weight:normal;font-stretch:normal;font-size:91.4903px;font-family:'Latin Modern Sans';-inkscape-font-specification:'Latin Modern Sans';stroke-width:4.90126"
           d="m 442.74345,1804.0303 c 0,-5.0319 -3.38514,-8.1426 -3.56812,-8.4171 -3.56812,-3.2021 -6.03836,-3.7511 -10.61287,-4.5745 -5.03197,-1.0064 -9.24052,-1.9213 -9.24052,-6.4043 0,-5.6724 6.5873,-5.6724 7.77667,-5.6724 2.92769,0 7.77668,0.3659 12.99163,3.4766 l 1.09788,-5.9469 c -4.7575,-2.1957 -8.5086,-2.9276 -13.1746,-2.9276 -2.28726,0 -15.18739,0 -15.18739,11.9852 0,4.483 2.65321,7.4107 4.94047,9.149 2.8362,2.0128 4.84899,2.3788 9.88095,3.3852 3.29366,0.6404 8.60009,1.7383 8.60009,6.5873 0,6.3128 -7.22773,6.3128 -8.60009,6.3128 -7.41071,0 -12.53417,-3.3851 -14.18099,-4.483 l -1.09789,6.2213 c 2.92769,1.4639 7.95966,4.0256 15.37038,4.0256 1.64682,0 6.67879,0 10.61287,-2.9277 2.8362,-2.1958 4.39153,-5.8554 4.39153,-9.7895 z" />
        <path
           id="path981"
           style="font-style:normal;font-variant:normal;font-weight:normal;font-stretch:normal;font-size:91.4903px;font-family:'Latin Modern Sans';-inkscape-font-specification:'Latin Modern Sans';stroke-width:4.90126"
           d="m 473.11816,1792.8685 c 0,-29.5514 -13.1746,-41.7196 -17.56614,-45.7451 h -5.58091 c 4.39154,4.3915 16.01081,16.1937 16.01081,45.7451 0,5.1235 -0.27447,15.8278 -4.02558,26.6237 -3.7511,10.6129 -8.96605,16.1023 -11.98523,19.1215 h 5.58091 c 2.92769,-2.7447 9.05754,-8.3257 13.2661,-19.579 3.65961,-9.7894 4.30004,-19.4874 4.30004,-26.1662 z" />
      </g>
    </g>
  </g>
</svg>
