<?xml version="1.0" standalone="no"?>
<!DOCTYPE svg PUBLIC "-//W3C//DTD SVG 1.1//EN"
"http://www.w3.org/Graphics/SVG/1.1/DTD/svg11.dtd">
<!-- Creator: fig2dev Version 3.2 Patchlevel 5 -->
<!-- CreationDate: Mon Jul 28 22:43:02 2008 -->
<!-- Magnification: 1.000 -->
<svg xmlns="http://www.w3.org/2000/svg" width="4.8in" height="2.5in" viewBox="1038 213 5724 2940">
<g style="stroke-width:.025in; stroke:black; fill:none">
<!-- Line -->
<polyline points="1303,2188
1303,2187
1303,2181
1303,2169
1303,2152
1303,2133
1303,2115
1303,2099
1303,2085
1303,2073
1303,2061
1303,2049
1303,2037
1303,2025
1303,2012
1303,1998
1303,1984
1303,1971
1303,1959
1303,1947
1303,1935
1303,1923
1303,1911
1304,1898
1304,1885
1306,1871
1308,1858
1311,1845
1314,1832
1319,1820
1324,1808
1329,1798
1336,1789
1343,1779
1351,1768
1360,1758
1369,1748
1380,1738
1390,1729
1400,1721
1410,1714
1420,1708
1430,1703
1440,1699
1450,1695
1461,1691
1473,1689
1486,1687
1499,1685
1514,1684
1530,1683
1546,1682
1563,1682
1580,1682
1599,1682
1614,1682
1630,1682
1647,1682
1666,1682
1686,1682
1706,1682
1728,1682
1750,1682
1772,1682
1795,1682
1817,1682
1838,1682
1859,1682
1878,1682
1897,1682
1916,1682
1934,1682
1952,1682
1969,1682
1988,1682
2006,1682
2024,1682
2042,1682
2061,1682
2079,1682
2096,1682
2113,1682
2130,1682
2145,1682
2161,1682
2175,1682
2190,1682
2207,1682
2224,1682
2241,1682
2259,1682
2278,1682
2297,1682
2317,1682
2336,1682
2355,1682
2374,1682
2392,1682
2410,1682
2427,1682
2443,1682
2460,1682
2477,1682
2494,1682
2513,1682
2531,1682
2551,1682
2570,1682
2589,1682
2609,1682
2627,1682
2646,1682
2663,1682
2680,1682
2697,1682
2713,1682
2731,1682
2749,1682
2768,1682
2790,1682
2814,1682
2840,1682
2867,1682
2893,1682
2916,1682
2934,1682
2945,1682
2949,1682
2950,1682
" style="stroke:#000000;stroke-width:7;
stroke-linejoin:bevel; stroke-linecap:butt;
"/>
<!-- Line -->
<polyline points="4597,2188
4597,2187
4597,2181
4597,2169
4597,2152
4597,2133
4597,2115
4597,2099
4597,2085
4597,2073
4597,2061
4597,2049
4597,2037
4597,2025
4597,2012
4597,1998
4597,1984
4597,1971
4597,1959
4597,1947
4597,1935
4597,1923
4597,1911
4596,1898
4596,1885
4594,1871
4592,1858
4589,1845
4586,1832
4581,1820
4576,1808
4571,1798
4564,1789
4557,1779
4549,1768
4540,1758
4531,1748
4520,1738
4510,1729
4500,1721
4490,1714
4480,1708
4470,1703
4460,1699
4450,1695
4439,1691
4427,1689
4414,1687
4401,1685
4386,1684
4370,1683
4354,1682
4337,1682
4320,1682
4301,1682
4286,1682
4270,1682
4253,1682
4234,1682
4214,1682
4194,1682
4172,1682
4150,1682
4128,1682
4105,1682
4083,1682
4062,1682
4041,1682
4022,1682
4003,1682
3984,1682
3966,1682
3948,1682
3931,1682
3912,1682
3894,1682
3876,1682
3858,1682
3839,1682
3821,1682
3804,1682
3787,1682
3770,1682
3755,1682
3739,1682
3725,1682
3710,1682
3693,1682
3676,1682
3659,1682
3641,1682
3622,1682
3603,1682
3583,1682
3564,1682
3545,1682
3526,1682
3508,1682
3490,1682
3473,1682
3457,1682
3440,1682
3423,1682
3406,1682
3387,1682
3369,1682
3349,1682
3330,1682
3311,1682
3291,1682
3273,1682
3254,1682
3237,1682
3220,1682
3203,1682
3187,1682
3169,1682
3151,1682
3132,1682
3110,1682
3086,1682
3060,1682
3033,1682
3007,1682
2984,1682
2966,1682
2955,1682
2951,1682
2950,1682
" style="stroke:#000000;stroke-width:7;
stroke-linejoin:bevel; stroke-linecap:butt;
"/>
<!-- Line -->
<polyline points="1367,2188
1367,2187
1367,2182
1367,2171
1367,2156
1367,2140
1367,2124
1367,2110
1367,2098
1367,2087
1367,2077
1367,2067
1367,2056
1367,2045
1367,2034
1367,2022
1367,2010
1367,1999
1367,1987
1367,1977
1367,1967
1367,1956
1367,1946
1368,1935
1368,1923
1370,1911
1372,1899
1375,1887
1378,1876
1382,1866
1387,1855
1393,1845
1401,1835
1409,1824
1419,1813
1430,1803
1442,1793
1454,1784
1466,1776
1477,1769
1488,1763
1498,1759
1507,1756
1518,1753
1529,1751
1541,1749
1555,1748
1569,1746
1584,1746
1599,1745
1616,1745
1633,1745
1651,1745
1665,1745
1681,1745
1697,1745
1715,1745
1734,1745
1754,1745
1775,1745
1796,1745
1817,1745
1839,1745
1860,1745
1881,1745
1900,1745
1920,1745
1938,1745
1956,1745
1973,1745
1990,1745
2007,1745
2025,1745
2042,1745
2060,1745
2078,1745
2095,1745
2112,1745
2129,1745
2146,1745
2162,1745
2177,1745
2192,1745
2206,1745
2220,1745
2236,1745
2252,1745
2269,1745
2286,1745
2304,1745
2323,1745
2342,1745
2360,1745
2379,1745
2397,1745
2414,1745
2431,1745
2447,1745
2463,1745
2479,1745
2496,1745
2512,1745
2530,1745
2548,1745
2566,1745
2585,1745
2604,1745
2622,1745
2640,1745
2658,1745
2674,1745
2691,1745
2707,1745
2723,1745
2739,1745
2757,1745
2775,1745
2796,1745
2819,1745
2844,1745
2870,1745
2895,1745
2918,1745
2935,1745
2945,1745
2949,1745
2950,1745
" style="stroke:#000000;stroke-width:7;
stroke-linejoin:bevel; stroke-linecap:butt;
"/>
<!-- Line -->
<polyline points="4533,2188
4533,2187
4533,2182
4533,2171
4533,2156
4533,2140
4533,2124
4533,2110
4533,2098
4533,2087
4533,2077
4533,2067
4533,2056
4533,2045
4533,2034
4533,2022
4533,2010
4533,1999
4533,1987
4533,1977
4533,1967
4533,1956
4533,1946
4532,1935
4532,1923
4530,1911
4528,1899
4525,1887
4522,1876
4518,1866
4513,1855
4507,1845
4499,1835
4491,1824
4481,1813
4470,1803
4458,1793
4446,1784
4434,1776
4423,1769
4412,1763
4402,1759
4393,1756
4382,1753
4371,1751
4359,1749
4345,1748
4331,1746
4316,1746
4301,1745
4284,1745
4267,1745
4249,1745
4235,1745
4219,1745
4203,1745
4185,1745
4166,1745
4146,1745
4125,1745
4104,1745
4083,1745
4061,1745
4040,1745
4019,1745
4000,1745
3980,1745
3962,1745
3944,1745
3927,1745
3910,1745
3893,1745
3875,1745
3858,1745
3840,1745
3822,1745
3805,1745
3788,1745
3771,1745
3754,1745
3738,1745
3723,1745
3708,1745
3694,1745
3680,1745
3664,1745
3648,1745
3631,1745
3614,1745
3596,1745
3577,1745
3558,1745
3540,1745
3521,1745
3503,1745
3486,1745
3469,1745
3453,1745
3437,1745
3421,1745
3404,1745
3388,1745
3370,1745
3352,1745
3334,1745
3315,1745
3296,1745
3278,1745
3260,1745
3242,1745
3226,1745
3209,1745
3193,1745
3177,1745
3161,1745
3143,1745
3125,1745
3104,1745
3081,1745
3056,1745
3030,1745
3005,1745
2982,1745
2965,1745
2955,1745
2951,1745
2950,1745
" style="stroke:#000000;stroke-width:7;
stroke-linejoin:bevel; stroke-linecap:butt;
"/>
<!-- Line -->
<polyline points="1050,1935
1050,1938
1050,1945
1050,1958
1050,1975
1050,1997
1050,2023
1050,2050
1050,2077
1050,2103
1050,2128
1050,2150
1050,2172
1050,2191
1050,2209
1050,2227
1050,2244
1050,2260
1050,2277
1050,2294
1050,2311
1050,2329
1051,2348
1051,2367
1052,2386
1053,2407
1054,2427
1056,2448
1058,2469
1060,2490
1063,2511
1066,2532
1069,2552
1073,2573
1077,2593
1082,2614
1087,2635
1092,2656
1099,2678
1106,2701
1113,2724
1122,2747
1130,2769
1140,2791
1149,2812
1159,2832
1170,2850
1180,2866
1190,2880
1201,2891
1211,2901
1221,2907
1230,2911
1240,2912
1250,2911
1259,2907
1269,2901
1279,2891
1290,2880
1300,2866
1310,2850
1321,2832
1331,2812
1340,2791
1350,2769
1358,2747
1367,2724
1374,2701
1381,2678
1388,2656
1393,2635
1398,2614
1403,2593
1407,2573
1411,2552
1414,2532
1417,2511
1420,2490
1422,2469
1424,2448
1426,2427
1427,2407
1428,2386
1429,2367
1429,2348
1430,2329
1430,2311
1430,2294
1430,2277
1430,2260
1430,2244
1430,2227
1430,2209
1430,2191
1430,2172
1430,2150
1430,2128
1430,2103
1430,2077
1430,2050
1430,2023
1430,1997
1430,1975
1430,1958
1430,1945
1430,1938
1430,1935
" style="stroke:#000000;stroke-width:7;
stroke-linejoin:bevel; stroke-linecap:butt;
"/>
<!-- Line -->
<polyline points="4470,1935
4470,1938
4470,1945
4470,1958
4470,1975
4470,1997
4470,2023
4470,2050
4470,2077
4470,2103
4470,2128
4470,2150
4470,2172
4470,2191
4470,2209
4470,2227
4470,2244
4470,2260
4470,2277
4470,2294
4470,2311
4470,2329
4471,2348
4471,2367
4472,2386
4473,2407
4474,2427
4476,2448
4478,2469
4480,2490
4483,2511
4486,2532
4489,2552
4493,2573
4497,2593
4502,2614
4507,2635
4512,2656
4519,2678
4526,2701
4533,2724
4542,2747
4550,2769
4560,2791
4569,2812
4579,2832
4590,2850
4600,2866
4610,2880
4621,2891
4631,2901
4641,2907
4650,2911
4660,2912
4670,2911
4679,2907
4689,2901
4699,2891
4710,2880
4720,2866
4730,2850
4741,2832
4751,2812
4760,2791
4770,2769
4778,2747
4787,2724
4794,2701
4801,2678
4808,2656
4813,2635
4818,2614
4823,2593
4827,2573
4831,2552
4834,2532
4837,2511
4840,2490
4842,2469
4844,2448
4846,2427
4847,2407
4848,2386
4849,2367
4849,2348
4850,2329
4850,2311
4850,2294
4850,2277
4850,2260
4850,2244
4850,2227
4850,2209
4850,2191
4850,2172
4850,2150
4850,2128
4850,2103
4850,2077
4850,2050
4850,2023
4850,1997
4850,1975
4850,1958
4850,1945
4850,1938
4850,1935
" style="stroke:#000000;stroke-width:7;
stroke-linejoin:bevel; stroke-linecap:butt;
"/>
<!-- Line -->
<polyline points="1177,2315
1177,542
2317,542
" style="stroke:#000000;stroke-width:7;
stroke-linejoin:miter; stroke-linecap:butt;
"/>
<!-- Line -->
<polyline points="4977,1428
4977,2315
5103,2315
" style="stroke:#000000;stroke-width:7;
stroke-linejoin:miter; stroke-linecap:butt;
"/>
<!-- Line -->
<polyline points="6370,1428
6370,2315
6243,2315
" style="stroke:#000000;stroke-width:7;
stroke-linejoin:miter; stroke-linecap:butt;
"/>
<!-- Line -->
<polyline points="6623,1428
6623,1682
" style="stroke:#000000;stroke-width:7;
stroke-linejoin:miter; stroke-linecap:butt;
"/>
<!-- Line -->
<polyline points="6497,1682
6750,1682
" style="stroke:#000000;stroke-width:7;
stroke-linejoin:miter; stroke-linecap:butt;
"/>
<!-- Line -->
<polyline points="6560,1745
6687,1745
" style="stroke:#000000;stroke-width:7;
stroke-linejoin:miter; stroke-linecap:butt;
"/>
<!-- Line -->
<polyline points="6623,1808
" style="stroke:#000000;stroke-width:7;
stroke-linejoin:miter; stroke-linecap:butt;
"/>
<!-- Line -->
<polyline points="4723,2315
4723,1428
5230,1428
5293,1302
5420,1555
5547,1302
5673,1555
5800,1302
5927,1555
6053,1302
6180,1555
6243,1428
6623,1428
6623,542
4217,542
" style="stroke:#000000;stroke-width:7;
stroke-linejoin:miter; stroke-linecap:butt;
"/>
<!-- Line: box -->
<rect x="5103" y="2061" width="1140" height="634" rx="0" 
style="stroke:#000000;stroke-width:7;
stroke-linejoin:miter; stroke-linecap:butt;
"/>
<!-- Line: box -->
<rect x="2317" y="225" width="1900" height="633" rx="0" 
style="stroke:#000000;stroke-width:7;
stroke-linejoin:miter; stroke-linecap:butt;
"/>
<!-- Text -->
<text xml:space="preserve" x="1177" y="3138" stroke="#000000" fill="#000000"  font-family="Times" font-style="normal" font-weight="normal" font-size="120" text-anchor="start">1</text>
<!-- Text -->
<text xml:space="preserve" x="5357" y="2505" stroke="#000000" fill="#000000"  font-family="Times" font-style="normal" font-weight="normal" font-size="120" text-anchor="start">recorder</text>
<!-- Text -->
<text xml:space="preserve" x="5610" y="1175" stroke="#000000" fill="#000000"  font-family="Times" font-style="normal" font-weight="normal" font-size="120" text-anchor="start">R</text>
<!-- Text -->
<text xml:space="preserve" x="2700" y="450" stroke="#000000" fill="#000000"  font-family="Times" font-style="normal" font-weight="normal" font-size="120" text-anchor="start">High Voltage</text>
<!-- Text -->
<text xml:space="preserve" x="2700" y="675" stroke="#000000" fill="#000000"  font-family="Times" font-style="normal" font-weight="normal" font-size="120" text-anchor="start">power supply</text>
<!-- Text -->
<text xml:space="preserve" x="2887" y="1555" stroke="#000000" fill="#000000"  font-family="Times" font-style="normal" font-weight="normal" font-size="120" text-anchor="start">C</text>
<!-- Text -->
<text xml:space="preserve" x="5400" y="2325" stroke="#000000" fill="#000000"  font-family="Times" font-style="normal" font-weight="normal" font-size="120" text-anchor="start">Chart</text>
<!-- Text -->
<text xml:space="preserve" x="4660" y="3138" stroke="#000000" fill="#000000"  font-family="Times" font-style="normal" font-weight="normal" font-size="120" text-anchor="start">2</text>
</g>
</svg>
