<?xml version="1.0" encoding="UTF-8" standalone="no"?>
<!-- Created with Inkscape (http://www.inkscape.org/) -->
<svg
   xmlns:dc="http://purl.org/dc/elements/1.1/"
   xmlns:cc="http://creativecommons.org/ns#"
   xmlns:rdf="http://www.w3.org/1999/02/22-rdf-syntax-ns#"
   xmlns:svg="http://www.w3.org/2000/svg"
   xmlns="http://www.w3.org/2000/svg"
   xmlns:sodipodi="http://sodipodi.sourceforge.net/DTD/sodipodi-0.dtd"
   xmlns:inkscape="http://www.inkscape.org/namespaces/inkscape"
   width="460.62991"
   height="177.16534"
   id="svg2"
   sodipodi:version="0.32"
   inkscape:version="0.46"
   sodipodi:docname="geometrie-billes.svg"
   inkscape:output_extension="org.inkscape.output.svg.inkscape"
   version="1.0">
  <defs
     id="defs4">
    <marker
       inkscape:stockid="Arrow2Lstart"
       orient="auto"
       refY="0"
       refX="0"
       id="Arrow2Lstart"
       style="overflow:visible">
      <path
         id="path3296"
         style="font-size:12px;fill-rule:evenodd;stroke-width:0.625;stroke-linejoin:round"
         d="M 8.7185878,4.0337352 L -2.2072895,0.016013256 L 8.7185884,-4.0017078 C 6.97309,-1.6296469 6.9831476,1.6157441 8.7185878,4.0337352 z"
         transform="matrix(1.1,0,0,1.1,1.1,0)" />
    </marker>
    <marker
       inkscape:stockid="Arrow2Lend"
       orient="auto"
       refY="0"
       refX="0"
       id="Arrow2Lend"
       style="overflow:visible">
      <path
         id="path3299"
         style="font-size:12px;fill-rule:evenodd;stroke-width:0.625;stroke-linejoin:round"
         d="M 8.7185878,4.0337352 L -2.2072895,0.016013256 L 8.7185884,-4.0017078 C 6.97309,-1.6296469 6.9831476,1.6157441 8.7185878,4.0337352 z"
         transform="matrix(-1.1,0,0,-1.1,-1.1,0)" />
    </marker>
    <inkscape:perspective
       sodipodi:type="inkscape:persp3d"
       inkscape:vp_x="0 : 526.18109 : 1"
       inkscape:vp_y="0 : 1000 : 0"
       inkscape:vp_z="744.09448 : 526.18109 : 1"
       inkscape:persp3d-origin="372.04724 : 350.78739 : 1"
       id="perspective10" />
  </defs>
  <sodipodi:namedview
     id="base"
     pagecolor="#ffffff"
     bordercolor="#666666"
     borderopacity="1.0"
     inkscape:pageopacity="0.0"
     inkscape:pageshadow="2"
     inkscape:zoom="1"
     inkscape:cx="225.83704"
     inkscape:cy="52.076412"
     inkscape:document-units="px"
     inkscape:current-layer="layer1"
     showgrid="true"
     inkscape:window-width="1440"
     inkscape:window-height="827"
     inkscape:window-x="0"
     inkscape:window-y="24"
     units="cm">
    <inkscape:grid
       type="xygrid"
       id="grid2383"
       visible="true"
       enabled="true" />
  </sodipodi:namedview>
  <metadata
     id="metadata7">
    <rdf:RDF>
      <cc:Work
         rdf:about="">
        <dc:format>image/svg+xml</dc:format>
        <dc:type
           rdf:resource="http://purl.org/dc/dcmitype/StillImage" />
      </cc:Work>
    </rdf:RDF>
  </metadata>
  <g
     inkscape:label="Calque 1"
     inkscape:groupmode="layer"
     id="layer1"
     transform="translate(51.190447,-11.862183)">
    <rect
       style="opacity:1;fill:#f3ffff;fill-opacity:1;stroke:none;stroke-width:1.74235034;stroke-miterlimit:4;stroke-dasharray:none;stroke-dashoffset:0;stroke-opacity:1"
       id="rect3269"
       width="344.62695"
       height="102.33268"
       x="43.428749"
       y="48.662174" />
    <path
       style="fill:#ddffff;fill-opacity:1;fill-rule:evenodd;stroke:#099cf0;stroke-width:0.86533666px;stroke-linecap:butt;stroke-linejoin:miter;stroke-opacity:1"
       d="M 42.674889,47.908318 L 259.00905,47.908318 L 259.00905,143.09535 L 362.84945,143.09535 L 362.84945,47.908318 L 388.80955,47.908318 L 388.80955,13.294851 L 42.674889,13.294851 L 42.674889,47.908318 z"
       id="path2389"
       sodipodi:nodetypes="ccccccccc" />
    <rect
       style="opacity:1;fill:#ddffff;fill-opacity:1;stroke:#098cf0;stroke-width:0.8666296;stroke-miterlimit:4;stroke-dasharray:none;stroke-dashoffset:0;stroke-opacity:1"
       id="rect2395"
       width="345.26804"
       height="33.746834"
       x="43.108204"
       y="152.18204" />
    <path
       sodipodi:type="arc"
       style="opacity:1;fill:#f7f2c3;fill-opacity:1;stroke:#ee632a;stroke-width:1;stroke-miterlimit:4;stroke-dasharray:none;stroke-dashoffset:0;stroke-opacity:1"
       id="path3187"
       sodipodi:cx="91.039391"
       sodipodi:cy="99.087387"
       sodipodi:rx="7.9164691"
       sodipodi:ry="7.9164691"
       d="M 98.95586,99.087387 A 7.9164691,7.9164691 0 1 1 83.122921,99.087387 A 7.9164691,7.9164691 0 1 1 98.95586,99.087387 z"
       transform="matrix(-0.8653367,0,0,0.8653367,327.43685,12.452925)" />
    <path
       sodipodi:type="arc"
       style="opacity:1;fill:#f7f2c3;fill-opacity:1;stroke:#ee632a;stroke-width:1;stroke-miterlimit:4;stroke-dasharray:none;stroke-dashoffset:0;stroke-opacity:1"
       id="path3191"
       sodipodi:cx="91.039391"
       sodipodi:cy="99.087387"
       sodipodi:rx="7.9164691"
       sodipodi:ry="7.9164691"
       d="M 98.95586,99.087387 A 7.9164691,7.9164691 0 1 1 83.122921,99.087387 A 7.9164691,7.9164691 0 1 1 98.95586,99.087387 z"
       transform="matrix(-0.8653367,0,0,0.8653367,283.9176,22.201335)" />
    <path
       sodipodi:type="arc"
       style="opacity:1;fill:#f7f2c3;fill-opacity:1;stroke:#ee632a;stroke-width:1;stroke-miterlimit:4;stroke-dasharray:none;stroke-dashoffset:0;stroke-opacity:1"
       id="path3193"
       sodipodi:cx="91.039391"
       sodipodi:cy="99.087387"
       sodipodi:rx="7.9164691"
       sodipodi:ry="7.9164691"
       d="M 98.95586,99.087387 A 7.9164691,7.9164691 0 1 1 83.122921,99.087387 A 7.9164691,7.9164691 0 1 1 98.95586,99.087387 z"
       transform="matrix(-0.8653367,0,0,0.8653367,279.6766,2.7291679)" />
    <path
       sodipodi:type="arc"
       style="opacity:1;fill:#f7f2c3;fill-opacity:1;stroke:#ee632a;stroke-width:1;stroke-miterlimit:4;stroke-dasharray:none;stroke-dashoffset:0;stroke-opacity:1"
       id="path3195"
       sodipodi:cx="91.039391"
       sodipodi:cy="99.087387"
       sodipodi:rx="7.9164691"
       sodipodi:ry="7.9164691"
       d="M 98.95586,99.087387 A 7.9164691,7.9164691 0 1 1 83.122921,99.087387 A 7.9164691,7.9164691 0 1 1 98.95586,99.087387 z"
       transform="matrix(-0.8653367,0,0,0.8653367,238.41195,-6.1255384)" />
    <path
       sodipodi:type="arc"
       style="opacity:1;fill:#f7f2c3;fill-opacity:1;stroke:#ee632a;stroke-width:1;stroke-miterlimit:4;stroke-dasharray:none;stroke-dashoffset:0;stroke-opacity:1"
       id="path3197"
       sodipodi:cx="91.039391"
       sodipodi:cy="99.087387"
       sodipodi:rx="7.9164691"
       sodipodi:ry="7.9164691"
       d="M 98.95586,99.087387 A 7.9164691,7.9164691 0 1 1 83.122921,99.087387 A 7.9164691,7.9164691 0 1 1 98.95586,99.087387 z"
       transform="matrix(-0.8653367,0,0,0.8653367,263.6985,21.230847)" />
    <path
       sodipodi:type="arc"
       style="opacity:1;fill:#f7f2c3;fill-opacity:1;stroke:#ee632a;stroke-width:1;stroke-miterlimit:4;stroke-dasharray:none;stroke-dashoffset:0;stroke-opacity:1"
       id="path3199"
       sodipodi:cx="91.039391"
       sodipodi:cy="99.087387"
       sodipodi:rx="7.9164691"
       sodipodi:ry="7.9164691"
       d="M 98.95586,99.087387 A 7.9164691,7.9164691 0 1 1 83.122921,99.087387 A 7.9164691,7.9164691 0 1 1 98.95586,99.087387 z"
       transform="matrix(-0.8653367,0,0,0.8653367,308.62343,24.793367)" />
    <path
       sodipodi:type="arc"
       style="opacity:1;fill:#f7f2c3;fill-opacity:1;stroke:#ee632a;stroke-width:1;stroke-miterlimit:4;stroke-dasharray:none;stroke-dashoffset:0;stroke-opacity:1"
       id="path3201"
       sodipodi:cx="91.039391"
       sodipodi:cy="99.087387"
       sodipodi:rx="7.9164691"
       sodipodi:ry="7.9164691"
       d="M 98.95586,99.087387 A 7.9164691,7.9164691 0 1 1 83.122921,99.087387 A 7.9164691,7.9164691 0 1 1 98.95586,99.087387 z"
       transform="matrix(-0.8653367,0,0,0.8653367,320.09076,-8.9739074)" />
    <path
       sodipodi:type="arc"
       style="opacity:1;fill:#f7f2c3;fill-opacity:1;stroke:#ee632a;stroke-width:1;stroke-miterlimit:4;stroke-dasharray:none;stroke-dashoffset:0;stroke-opacity:1"
       id="path3203"
       sodipodi:cx="91.039391"
       sodipodi:cy="99.087387"
       sodipodi:rx="7.9164691"
       sodipodi:ry="7.9164691"
       d="M 98.95586,99.087387 A 7.9164691,7.9164691 0 1 1 83.122921,99.087387 A 7.9164691,7.9164691 0 1 1 98.95586,99.087387 z"
       transform="matrix(-0.8653367,0,0,0.8653367,217.39424,-0.7344757)" />
    <path
       sodipodi:type="arc"
       style="opacity:1;fill:#f7f2c3;fill-opacity:1;stroke:#ee632a;stroke-width:1;stroke-miterlimit:4;stroke-dasharray:none;stroke-dashoffset:0;stroke-opacity:1"
       id="path3205"
       sodipodi:cx="91.039391"
       sodipodi:cy="99.087387"
       sodipodi:rx="7.9164691"
       sodipodi:ry="7.9164691"
       d="M 98.95586,99.087387 A 7.9164691,7.9164691 0 1 1 83.122921,99.087387 A 7.9164691,7.9164691 0 1 1 98.95586,99.087387 z"
       transform="matrix(-0.8653367,0,0,0.8653367,193.99677,37.400683)" />
    <path
       sodipodi:type="arc"
       style="opacity:1;fill:#f7f2c3;fill-opacity:1;stroke:#ee632a;stroke-width:1;stroke-miterlimit:4;stroke-dasharray:none;stroke-dashoffset:0;stroke-opacity:1"
       id="path3209"
       sodipodi:cx="91.039391"
       sodipodi:cy="99.087387"
       sodipodi:rx="7.9164691"
       sodipodi:ry="7.9164691"
       d="M 98.95586,99.087387 A 7.9164691,7.9164691 0 1 1 83.122921,99.087387 A 7.9164691,7.9164691 0 1 1 98.95586,99.087387 z"
       transform="matrix(-0.8653367,0,0,0.8653367,297.30979,-12.271509)" />
    <path
       sodipodi:type="arc"
       style="opacity:1;fill:#f7f2c3;fill-opacity:1;stroke:#ee632a;stroke-width:1;stroke-miterlimit:4;stroke-dasharray:none;stroke-dashoffset:0;stroke-opacity:1"
       id="path3211"
       sodipodi:cx="91.039391"
       sodipodi:cy="99.087387"
       sodipodi:rx="7.9164691"
       sodipodi:ry="7.9164691"
       d="M 98.95586,99.087387 A 7.9164691,7.9164691 0 1 1 83.122921,99.087387 A 7.9164691,7.9164691 0 1 1 98.95586,99.087387 z"
       transform="matrix(-0.8653367,0,0,0.8653367,251.7024,-24.550242)" />
    <path
       sodipodi:type="arc"
       style="opacity:1;fill:#f7f2c3;fill-opacity:1;stroke:#ee632a;stroke-width:1;stroke-miterlimit:4;stroke-dasharray:none;stroke-dashoffset:0;stroke-opacity:1"
       id="path3213"
       sodipodi:cx="91.039391"
       sodipodi:cy="99.087387"
       sodipodi:rx="7.9164691"
       sodipodi:ry="7.9164691"
       d="M 98.95586,99.087387 A 7.9164691,7.9164691 0 1 1 83.122921,99.087387 A 7.9164691,7.9164691 0 1 1 98.95586,99.087387 z"
       transform="matrix(-0.8653367,0,0,0.8653367,225.0462,-23.64836)" />
    <path
       sodipodi:type="arc"
       style="opacity:1;fill:#f7f2c3;fill-opacity:1;stroke:#ee632a;stroke-width:1;stroke-miterlimit:4;stroke-dasharray:none;stroke-dashoffset:0;stroke-opacity:1"
       id="path3215"
       sodipodi:cx="91.039391"
       sodipodi:cy="99.087387"
       sodipodi:rx="7.9164691"
       sodipodi:ry="7.9164691"
       d="M 98.95586,99.087387 A 7.9164691,7.9164691 0 1 1 83.122921,99.087387 A 7.9164691,7.9164691 0 1 1 98.95586,99.087387 z"
       transform="matrix(-0.8653367,0,0,0.8653367,198.06523,10.59493)" />
    <path
       sodipodi:type="arc"
       style="opacity:1;fill:#f7f2c3;fill-opacity:1;stroke:#ee632a;stroke-width:1;stroke-miterlimit:4;stroke-dasharray:none;stroke-dashoffset:0;stroke-opacity:1"
       id="path3217"
       sodipodi:cx="91.039391"
       sodipodi:cy="99.087387"
       sodipodi:rx="7.9164691"
       sodipodi:ry="7.9164691"
       d="M 98.95586,99.087387 A 7.9164691,7.9164691 0 1 1 83.122921,99.087387 A 7.9164691,7.9164691 0 1 1 98.95586,99.087387 z"
       transform="matrix(-0.8653367,0,0,0.8653367,241.02414,37.135999)" />
    <path
       sodipodi:type="arc"
       style="opacity:1;fill:#f7f2c3;fill-opacity:1;stroke:#ee632a;stroke-width:1;stroke-miterlimit:4;stroke-dasharray:none;stroke-dashoffset:0;stroke-opacity:1"
       id="path3219"
       sodipodi:cx="91.039391"
       sodipodi:cy="99.087387"
       sodipodi:rx="7.9164691"
       sodipodi:ry="7.9164691"
       d="M 98.95586,99.087387 A 7.9164691,7.9164691 0 1 1 83.122921,99.087387 A 7.9164691,7.9164691 0 1 1 98.95586,99.087387 z"
       transform="matrix(-0.8653367,0,0,0.8653367,266.42722,39.75464)" />
    <path
       sodipodi:type="arc"
       style="opacity:1;fill:#f7f2c3;fill-opacity:1;stroke:#ee632a;stroke-width:1;stroke-miterlimit:4;stroke-dasharray:none;stroke-dashoffset:0;stroke-opacity:1"
       id="path3221"
       sodipodi:cx="91.039391"
       sodipodi:cy="99.087387"
       sodipodi:rx="7.9164691"
       sodipodi:ry="7.9164691"
       d="M 98.95586,99.087387 A 7.9164691,7.9164691 0 1 1 83.122921,99.087387 A 7.9164691,7.9164691 0 1 1 98.95586,99.087387 z"
       transform="matrix(-0.8653367,0,0,0.8653367,307.28964,44.882062)" />
    <path
       sodipodi:type="arc"
       style="opacity:1;fill:#f7f2c3;fill-opacity:1;stroke:#ee632a;stroke-width:1;stroke-miterlimit:4;stroke-dasharray:none;stroke-dashoffset:0;stroke-opacity:1"
       id="path3223"
       sodipodi:cx="91.039391"
       sodipodi:cy="99.087387"
       sodipodi:rx="7.9164691"
       sodipodi:ry="7.9164691"
       d="M 98.95586,99.087387 A 7.9164691,7.9164691 0 1 1 83.122921,99.087387 A 7.9164691,7.9164691 0 1 1 98.95586,99.087387 z"
       transform="matrix(-0.8653367,0,0,0.8653367,303.44499,6.7185588)" />
    <path
       sodipodi:type="arc"
       style="opacity:1;fill:#f7f2c3;fill-opacity:1;stroke:#ee632a;stroke-width:1;stroke-miterlimit:4;stroke-dasharray:none;stroke-dashoffset:0;stroke-opacity:1"
       id="path3225"
       sodipodi:cx="91.039391"
       sodipodi:cy="99.087387"
       sodipodi:rx="7.9164691"
       sodipodi:ry="7.9164691"
       d="M 98.95586,99.087387 A 7.9164691,7.9164691 0 1 1 83.122921,99.087387 A 7.9164691,7.9164691 0 1 1 98.95586,99.087387 z"
       transform="matrix(-0.8653367,0,0,0.8653367,259.75381,-2.7385443)" />
    <path
       sodipodi:type="arc"
       style="opacity:1;fill:#f7f2c3;fill-opacity:1;stroke:#ee632a;stroke-width:1;stroke-miterlimit:4;stroke-dasharray:none;stroke-dashoffset:0;stroke-opacity:1"
       id="path3227"
       sodipodi:cx="91.039391"
       sodipodi:cy="99.087387"
       sodipodi:rx="7.9164691"
       sodipodi:ry="7.9164691"
       d="M 98.95586,99.087387 A 7.9164691,7.9164691 0 1 1 83.122921,99.087387 A 7.9164691,7.9164691 0 1 1 98.95586,99.087387 z"
       transform="matrix(-0.8653367,0,0,0.8653367,218.63146,29.184398)" />
    <path
       sodipodi:type="arc"
       style="opacity:1;fill:#f7f2c3;fill-opacity:1;stroke:#ee632a;stroke-width:1;stroke-miterlimit:4;stroke-dasharray:none;stroke-dashoffset:0;stroke-opacity:1"
       id="path3229"
       sodipodi:cx="91.039391"
       sodipodi:cy="99.087387"
       sodipodi:rx="7.9164691"
       sodipodi:ry="7.9164691"
       d="M 98.95586,99.087387 A 7.9164691,7.9164691 0 1 1 83.122921,99.087387 A 7.9164691,7.9164691 0 1 1 98.95586,99.087387 z"
       transform="matrix(-0.8653367,0,0,0.8653367,218.25965,54.724581)" />
    <path
       sodipodi:type="arc"
       style="opacity:1;fill:#f7f2c3;fill-opacity:1;stroke:#ee632a;stroke-width:1;stroke-miterlimit:4;stroke-dasharray:none;stroke-dashoffset:0;stroke-opacity:1"
       id="path3231"
       sodipodi:cx="91.039391"
       sodipodi:cy="99.087387"
       sodipodi:rx="7.9164691"
       sodipodi:ry="7.9164691"
       d="M 98.95586,99.087387 A 7.9164691,7.9164691 0 1 1 83.122921,99.087387 A 7.9164691,7.9164691 0 1 1 98.95586,99.087387 z"
       transform="matrix(-0.8653367,0,0,0.8653367,243.76185,14.711279)" />
    <path
       sodipodi:type="arc"
       style="opacity:1;fill:#f7f2c3;fill-opacity:1;stroke:#ee632a;stroke-width:1;stroke-miterlimit:4;stroke-dasharray:none;stroke-dashoffset:0;stroke-opacity:1"
       id="path3233"
       sodipodi:cx="91.039391"
       sodipodi:cy="99.087387"
       sodipodi:rx="7.9164691"
       sodipodi:ry="7.9164691"
       d="M 98.95586,99.087387 A 7.9164691,7.9164691 0 1 1 83.122921,99.087387 A 7.9164691,7.9164691 0 1 1 98.95586,99.087387 z"
       transform="matrix(-0.8653367,0,0,0.8653367,162.38763,-10.130811)" />
    <path
       sodipodi:type="arc"
       style="opacity:1;fill:#f7f2c3;fill-opacity:1;stroke:#ee632a;stroke-width:1;stroke-miterlimit:4;stroke-dasharray:none;stroke-dashoffset:0;stroke-opacity:1"
       id="path3235"
       sodipodi:cx="91.039391"
       sodipodi:cy="99.087387"
       sodipodi:rx="7.9164691"
       sodipodi:ry="7.9164691"
       d="M 98.95586,99.087387 A 7.9164691,7.9164691 0 1 1 83.122921,99.087387 A 7.9164691,7.9164691 0 1 1 98.95586,99.087387 z"
       transform="matrix(-0.8653367,0,0,0.8653367,329.36841,-29.706393)" />
    <path
       sodipodi:type="arc"
       style="opacity:1;fill:#f7f2c3;fill-opacity:1;stroke:#ee632a;stroke-width:1;stroke-miterlimit:4;stroke-dasharray:none;stroke-dashoffset:0;stroke-opacity:1"
       id="path3237"
       sodipodi:cx="91.039391"
       sodipodi:cy="99.087387"
       sodipodi:rx="7.9164691"
       sodipodi:ry="7.9164691"
       d="M 98.95586,99.087387 A 7.9164691,7.9164691 0 1 1 83.122921,99.087387 A 7.9164691,7.9164691 0 1 1 98.95586,99.087387 z"
       transform="matrix(-0.8653367,0,0,0.8653367,276.78898,-20.087611)" />
    <path
       sodipodi:type="arc"
       style="opacity:1;fill:#f7f2c3;fill-opacity:1;stroke:#ee632a;stroke-width:1;stroke-miterlimit:4;stroke-dasharray:none;stroke-dashoffset:0;stroke-opacity:1"
       id="path3239"
       sodipodi:cx="91.039391"
       sodipodi:cy="99.087387"
       sodipodi:rx="7.9164691"
       sodipodi:ry="7.9164691"
       d="M 98.95586,99.087387 A 7.9164691,7.9164691 0 1 1 83.122921,99.087387 A 7.9164691,7.9164691 0 1 1 98.95586,99.087387 z"
       transform="matrix(-0.8653367,0,0,0.8653367,292.61827,57.973956)" />
    <path
       sodipodi:type="arc"
       style="opacity:1;fill:#f7f2c3;fill-opacity:1;stroke:#ee632a;stroke-width:1;stroke-miterlimit:4;stroke-dasharray:none;stroke-dashoffset:0;stroke-opacity:1"
       id="path3241"
       sodipodi:cx="91.039391"
       sodipodi:cy="99.087387"
       sodipodi:rx="7.9164691"
       sodipodi:ry="7.9164691"
       d="M 98.95586,99.087387 A 7.9164691,7.9164691 0 1 1 83.122921,99.087387 A 7.9164691,7.9164691 0 1 1 98.95586,99.087387 z"
       transform="matrix(-0.8653367,0,0,0.8653367,271.47058,57.255654)" />
    <path
       sodipodi:type="arc"
       style="opacity:1;fill:#f7f2c3;fill-opacity:1;stroke:#ee632a;stroke-width:1;stroke-miterlimit:4;stroke-dasharray:none;stroke-dashoffset:0;stroke-opacity:1"
       id="path3243"
       sodipodi:cx="91.039391"
       sodipodi:cy="99.087387"
       sodipodi:rx="7.9164691"
       sodipodi:ry="7.9164691"
       d="M 98.95586,99.087387 A 7.9164691,7.9164691 0 1 1 83.122921,99.087387 A 7.9164691,7.9164691 0 1 1 98.95586,99.087387 z"
       transform="matrix(-0.8653367,0,0,0.8653367,288.60913,40.106741)" />
    <path
       sodipodi:type="arc"
       style="opacity:1;fill:#f7f2c3;fill-opacity:1;stroke:#ee632a;stroke-width:1;stroke-miterlimit:4;stroke-dasharray:none;stroke-dashoffset:0;stroke-opacity:1"
       id="path3245"
       sodipodi:cx="91.039391"
       sodipodi:cy="99.087387"
       sodipodi:rx="7.9164691"
       sodipodi:ry="7.9164691"
       d="M 98.95586,99.087387 A 7.9164691,7.9164691 0 1 1 83.122921,99.087387 A 7.9164691,7.9164691 0 1 1 98.95586,99.087387 z"
       transform="matrix(-0.8653367,0,0,0.8653367,247.44875,57.462278)" />
    <path
       sodipodi:type="arc"
       style="opacity:1;fill:#f7f2c3;fill-opacity:1;stroke:#ee632a;stroke-width:1;stroke-miterlimit:4;stroke-dasharray:none;stroke-dashoffset:0;stroke-opacity:1"
       id="path3247"
       sodipodi:cx="91.039391"
       sodipodi:cy="99.087387"
       sodipodi:rx="7.9164691"
       sodipodi:ry="7.9164691"
       d="M 98.95586,99.087387 A 7.9164691,7.9164691 0 1 1 83.122921,99.087387 A 7.9164691,7.9164691 0 1 1 98.95586,99.087387 z"
       transform="matrix(-0.8653367,0,0,0.8653367,323.08109,57.268958)" />
    <path
       sodipodi:type="arc"
       style="opacity:1;fill:#f7f2c3;fill-opacity:1;stroke:#ee632a;stroke-width:1;stroke-miterlimit:4;stroke-dasharray:none;stroke-dashoffset:0;stroke-opacity:1"
       id="path3249"
       sodipodi:cx="91.039391"
       sodipodi:cy="99.087387"
       sodipodi:rx="7.9164691"
       sodipodi:ry="7.9164691"
       d="M 98.95586,99.087387 A 7.9164691,7.9164691 0 1 1 83.122921,99.087387 A 7.9164691,7.9164691 0 1 1 98.95586,99.087387 z"
       transform="matrix(-0.8653367,0,0,0.8653367,153.67543,29.548781)" />
    <path
       sodipodi:type="arc"
       style="opacity:1;fill:#f7f2c3;fill-opacity:1;stroke:#ee632a;stroke-width:1;stroke-miterlimit:4;stroke-dasharray:none;stroke-dashoffset:0;stroke-opacity:1"
       id="path3251"
       sodipodi:cx="91.039391"
       sodipodi:cy="99.087387"
       sodipodi:rx="7.9164691"
       sodipodi:ry="7.9164691"
       d="M 98.95586,99.087387 A 7.9164691,7.9164691 0 1 1 83.122921,99.087387 A 7.9164691,7.9164691 0 1 1 98.95586,99.087387 z"
       transform="matrix(-0.8653367,0,0,0.8653367,169.6563,51.025423)" />
    <path
       sodipodi:type="arc"
       style="opacity:1;fill:#f7f2c3;fill-opacity:1;stroke:#ee632a;stroke-width:1;stroke-miterlimit:4;stroke-dasharray:none;stroke-dashoffset:0;stroke-opacity:1"
       id="path3253"
       sodipodi:cx="91.039391"
       sodipodi:cy="99.087387"
       sodipodi:rx="7.9164691"
       sodipodi:ry="7.9164691"
       d="M 98.95586,99.087387 A 7.9164691,7.9164691 0 1 1 83.122921,99.087387 A 7.9164691,7.9164691 0 1 1 98.95586,99.087387 z"
       transform="matrix(-0.8653367,0,0,0.8653367,141.19432,5.3496529)" />
    <path
       sodipodi:type="arc"
       style="opacity:1;fill:#f7f2c3;fill-opacity:1;stroke:#ee632a;stroke-width:1;stroke-miterlimit:4;stroke-dasharray:none;stroke-dashoffset:0;stroke-opacity:1"
       id="path3255"
       sodipodi:cx="91.039391"
       sodipodi:cy="99.087387"
       sodipodi:rx="7.9164691"
       sodipodi:ry="7.9164691"
       d="M 98.95586,99.087387 A 7.9164691,7.9164691 0 1 1 83.122921,99.087387 A 7.9164691,7.9164691 0 1 1 98.95586,99.087387 z"
       transform="matrix(-0.8653367,0,0,0.8653367,325.84668,35.47902)" />
    <path
       sodipodi:type="arc"
       style="opacity:1;fill:#f7f2c3;fill-opacity:1;stroke:#ee632a;stroke-width:1;stroke-miterlimit:4;stroke-dasharray:none;stroke-dashoffset:0;stroke-opacity:1"
       id="path3257"
       sodipodi:cx="91.039391"
       sodipodi:cy="99.087387"
       sodipodi:rx="7.9164691"
       sodipodi:ry="7.9164691"
       d="M 98.95586,99.087387 A 7.9164691,7.9164691 0 1 1 83.122921,99.087387 A 7.9164691,7.9164691 0 1 1 98.95586,99.087387 z"
       transform="matrix(-0.8653367,0,0,0.8653367,173.05998,18.132613)" />
    <path
       sodipodi:type="arc"
       style="opacity:1;fill:#f7f2c3;fill-opacity:1;stroke:#ee632a;stroke-width:1;stroke-miterlimit:4;stroke-dasharray:none;stroke-dashoffset:0;stroke-opacity:1"
       id="path3259"
       sodipodi:cx="91.039391"
       sodipodi:cy="99.087387"
       sodipodi:rx="7.9164691"
       sodipodi:ry="7.9164691"
       d="M 98.95586,99.087387 A 7.9164691,7.9164691 0 1 1 83.122921,99.087387 A 7.9164691,7.9164691 0 1 1 98.95586,99.087387 z"
       transform="matrix(-0.8653367,0,0,0.8653367,185.29738,-7.5775526)" />
    <path
       sodipodi:type="arc"
       style="opacity:1;fill:#f7f2c3;fill-opacity:1;stroke:#ee632a;stroke-width:1;stroke-miterlimit:4;stroke-dasharray:none;stroke-dashoffset:0;stroke-opacity:1"
       id="path3263"
       sodipodi:cx="91.039391"
       sodipodi:cy="99.087387"
       sodipodi:rx="7.9164691"
       sodipodi:ry="7.9164691"
       d="M 98.95586,99.087387 A 7.9164691,7.9164691 0 1 1 83.122921,99.087387 A 7.9164691,7.9164691 0 1 1 98.95586,99.087387 z"
       transform="matrix(-0.8653367,0,0,0.8653367,198.41492,-28.370644)" />
    <path
       style="fill:none;fill-rule:evenodd;stroke:#000000;stroke-width:0.86533666px;stroke-linecap:butt;stroke-linejoin:miter;marker-start:url(#Arrow2Lend);marker-end:url(#Arrow2Lstart);stroke-opacity:1"
       d="M 350.20283,143.09535 L 350.20283,151.74871"
       id="path3273"
       sodipodi:nodetypes="cc" />
    <path
       style="fill:none;fill-rule:evenodd;stroke:#000000;stroke-width:0.86533666px;stroke-linecap:butt;stroke-linejoin:miter;marker-start:url(#Arrow2Lend);marker-end:url(#Arrow2Lstart);stroke-opacity:1"
       d="M -21.071866,52.376694 L -35.638078,52.376694"
       id="path4576"
       sodipodi:nodetypes="cc" />
    <path
       sodipodi:type="arc"
       style="opacity:1;fill:#f7f2c3;fill-opacity:1;stroke:#ee632a;stroke-width:1;stroke-miterlimit:4;stroke-dasharray:none;stroke-dashoffset:0;stroke-opacity:1"
       id="path4578"
       sodipodi:cx="91.039391"
       sodipodi:cy="99.087387"
       sodipodi:rx="7.9164691"
       sodipodi:ry="7.9164691"
       d="M 98.95586,99.087387 A 7.9164691,7.9164691 0 1 1 83.122921,99.087387 A 7.9164691,7.9164691 0 1 1 98.95586,99.087387 z"
       transform="matrix(-0.8653367,0,0,0.8653367,50.424723,-11.103422)" />
    <path
       style="fill:none;fill-rule:evenodd;stroke:#000000;stroke-width:1.02672017;stroke-linecap:butt;stroke-linejoin:miter;marker-start:none;marker-end:none;stroke-miterlimit:4;stroke-dasharray:1.02672014, 2.05344031;stroke-dashoffset:0;stroke-opacity:1"
       d="M -35.538257,74.143277 L -35.538257,53.637294"
       id="path4580"
       sodipodi:nodetypes="cc" />
    <path
       style="fill:none;fill-rule:evenodd;stroke:#000000;stroke-width:1.02672017;stroke-linecap:butt;stroke-linejoin:miter;marker-start:none;marker-end:none;stroke-miterlimit:4;stroke-dasharray:1.02672014, 2.05344031;stroke-dashoffset:0;stroke-opacity:1"
       d="M -21.117573,74.180742 L -21.117573,53.674759"
       id="path5624"
       sodipodi:nodetypes="cc" />
    <text
       xml:space="preserve"
       style="font-size:12px;font-style:normal;font-weight:normal;fill:#000000;fill-opacity:1;stroke:none;stroke-width:1px;stroke-linecap:butt;stroke-linejoin:miter;stroke-opacity:1;font-family:Bitstream Vera Sans"
       x="-31.864391"
       y="40.473305"
       id="text5626"><tspan
         sodipodi:role="line"
         id="tspan5628"
         x="-31.864391"
         y="40.473305"
         style="font-style:italic;font-variant:normal;font-weight:normal;font-stretch:normal;font-family:DejaVu Serif;-inkscape-font-specification:DejaVu Serif Italic">d</tspan></text>
    <text
       xml:space="preserve"
       style="font-size:12px;font-style:normal;font-weight:normal;fill:#000000;fill-opacity:1;stroke:none;stroke-width:1px;stroke-linecap:butt;stroke-linejoin:miter;stroke-opacity:1;font-family:Bitstream Vera Sans"
       x="372.13318"
       y="148.00224"
       id="text5630"><tspan
         sodipodi:role="line"
         id="tspan5632"
         x="372.13318"
         y="148.00224"
         style="font-style:italic;font-variant:normal;font-weight:normal;font-stretch:normal;font-family:DejaVu Serif;-inkscape-font-specification:DejaVu Serif Italic">h &lt; d</tspan></text>
  </g>
</svg>
