<?xml version="1.0" encoding="UTF-8" standalone="no"?>
<!-- Created with Inkscape (http://www.inkscape.org/) -->

<svg
   xmlns:dc="http://purl.org/dc/elements/1.1/"
   xmlns:cc="http://creativecommons.org/ns#"
   xmlns:rdf="http://www.w3.org/1999/02/22-rdf-syntax-ns#"
   xmlns:svg="http://www.w3.org/2000/svg"
   xmlns="http://www.w3.org/2000/svg"
   xmlns:sodipodi="http://sodipodi.sourceforge.net/DTD/sodipodi-0.dtd"
   xmlns:inkscape="http://www.inkscape.org/namespaces/inkscape"
   width="234.28098"
   height="340.09979"
   id="svg4983"
   version="1.1"
   inkscape:version="0.48.0 r9654"
   sodipodi:docname="Nouveau document 7">
  <defs
     id="defs4985" />
  <sodipodi:namedview
     id="base"
     pagecolor="#ffffff"
     bordercolor="#666666"
     borderopacity="1.0"
     inkscape:pageopacity="0.0"
     inkscape:pageshadow="2"
     inkscape:zoom="1"
     inkscape:cx="366.09984"
     inkscape:cy="35.842806"
     inkscape:document-units="px"
     inkscape:current-layer="layer1"
     showgrid="false"
     fit-margin-top="5"
     fit-margin-left="5"
     fit-margin-bottom="5"
     fit-margin-right="5"
     inkscape:window-width="1920"
     inkscape:window-height="1118"
     inkscape:window-x="0"
     inkscape:window-y="24"
     inkscape:window-maximized="1" />
  <metadata
     id="metadata4988">
    <rdf:RDF>
      <cc:Work
         rdf:about="">
        <dc:format>image/svg+xml</dc:format>
        <dc:type
           rdf:resource="http://purl.org/dc/dcmitype/StillImage" />
        <dc:title></dc:title>
      </cc:Work>
    </rdf:RDF>
  </metadata>
  <g
     inkscape:label="Calque 1"
     inkscape:groupmode="layer"
     id="layer1"
     transform="translate(-8.9001642,0.46621761)">
    <g
       style="display:inline;font-family:'DejaVu Sans, Helvetica, sans-serif'"
       id="g6587"
       transform="matrix(3.3661394,0,0,3.3661394,-583.86964,-3300.9098)">
      <line
         x1="228.02699"
         y1="997.117"
         x2="219.43401"
         y2="1004.281"
         id="line602"
         style="fill:none;stroke:#000000;stroke-width:2.14969993;stroke-linecap:round" />
      <line
         x1="221.793"
         y1="989.02698"
         x2="215.15601"
         y2="998.039"
         id="line604"
         style="fill:none;stroke:#000000;stroke-width:2.14969993;stroke-linecap:round" />
      <line
         x1="210.285"
         y1="983.07001"
         x2="207.008"
         y2="993.77301"
         id="line606"
         style="fill:none;stroke:#000000;stroke-width:2.14969993;stroke-linecap:round" />
      <path
         d="m 215.35,1037.866 c 0.88,-1.649 -1.946,-8.096 -1.152,-8.743 1.427,-1.176 6.561,-0.421 7.513,-2.878 0.681,-1.759 0.481,-7.015 -2.168,-7.706 -1.794,-0.469 -4.033,3.366 -6.332,2.865 -2.594,-0.572 -2.554,-13.725 -2.554,-13.725 0,0 -11.547,0.663 -11.782,3.751 -0.233,3.096 3.858,4.808 2.518,7.257 -1.079,1.979 -7.022,3.734 -9.412,1.746 -2.384,-1.993 -0.194,-7.984 -0.021,-8.262 0.177,-0.273 -9.687,0.462 -12.73,4.948 -2.51,3.694 0.833,13.011 0.833,13.011 0,0 5.972,-4.808 9.6,-3.297 3.488,1.453 5.213,8.295 3.121,9.857 -2.282,1.717 -8.646,-0.828 -8.646,-0.828 0,0 1.396,9.487 4.273,10.118 2.876,0.631 7.015,-3.821 10.18,-1.94 2.246,1.332 -1.002,5.025 0.696,6.468 1.739,1.48 9.449,-0.431 10.587,-2.557 1.133,-2.131 -4.158,-3.774 -3.309,-5.974 0.47,-1.199 7.315,-1.369 8.785,-4.111 z"
         id="path622"
         inkscape:connector-curvature="0"
         style="fill:#016699;stroke:#000000;stroke-width:1.35969996" />
      <path
         d="m 216.205,1039.229 c 0.881,-1.646 -1.941,-8.094 -1.15,-8.744 1.427,-1.171 6.559,-0.422 7.511,-2.878 0.68,-1.76 0.481,-7.016 -2.166,-7.704 -1.792,-0.466 -4.034,3.364 -6.333,2.864 -2.596,-0.573 -2.555,-13.723 -2.555,-13.723 0,0 -11.547,0.656 -11.779,3.753 -0.239,3.091 3.856,4.803 2.52,7.25 -1.083,1.979 -7.028,3.743 -9.413,1.751 -2.388,-1.995 -0.197,-7.985 -0.021,-8.259 0.173,-0.279 -9.686,0.457 -12.733,4.943 -2.51,3.693 0.833,13.008 0.833,13.008 0,0 5.971,-4.806 9.601,-3.296 3.485,1.455 5.212,8.297 3.119,9.864 -2.284,1.711 -8.646,-0.834 -8.646,-0.834 0,0 1.398,9.484 4.271,10.114 2.876,0.636 7.018,-3.816 10.187,-1.934 2.245,1.332 -1.008,5.021 0.692,6.469 1.743,1.478 9.447,-0.435 10.586,-2.565 1.134,-2.124 -4.156,-3.767 -3.306,-5.965 0.469,-1.198 7.311,-1.371 8.782,-4.114 z"
         id="path624"
         inkscape:connector-curvature="0"
         style="fill:#fff7c0;stroke:#000000;stroke-width:1.35969996" />
      <line
         x1="211.677"
         y1="1008.735"
         x2="210.739"
         y2="1007.309"
         id="line626"
         style="fill:#ffffff;stroke:#000000;stroke-width:1.26849997" />
      <line
         x1="192.834"
         y1="1013.432"
         x2="191.895"
         y2="1012"
         id="line628"
         style="fill:#ffffff;stroke:#000000;stroke-width:1.26849997" />
      <line
         x1="243.539"
         y1="1079.418"
         x2="185.495"
         y2="1079.418"
         id="line630"
         style="fill:none;stroke:#000000;stroke-width:1.25440001;stroke-linecap:round" />
      <path
         d="m 227.876,1045.148 c 0,0 -5.743,8.5 -17.18,9.248 -1.394,0.093 -2.724,0.025 -3.984,-0.161"
         id="path632"
         inkscape:connector-curvature="0"
         style="fill:none;stroke:#016699;stroke-width:1.72850001" />
      <polygon
         points="201.29,1052.919 207.347,1051.692 207.347,1079.418 201.29,1079.418 "
         id="polygon634"
         style="fill:#016699" />
      <path
         d="m 207.347,1079.418 h 7.161 c 0,0 3.435,-2.864 0.954,-3.629 -2.484,-0.763 -8.976,1.338 -8.976,1.338 l 0.861,2.291 z"
         id="path636"
         inkscape:connector-curvature="0"
         style="fill:#016699" />
      <path
         d="m 201.63,1079.418 h -7.16 c 0,0 -3.436,-2.864 -0.955,-3.629 2.484,-0.763 8.976,1.338 8.976,1.338 l -0.861,2.291 z"
         id="path638"
         inkscape:connector-curvature="0"
         style="fill:#016699" />
      <path
         d="m 227.108,1045.418 c 0,0 0.517,-8.859 1.753,-8.817 2.722,0.092 1.602,5.617 1.602,5.617 0,0 9.783,-4.646 12.036,-2.224 1.658,1.786 -1.181,8.704 -3.803,8.932 -4.706,0.409 -11.588,-3.508 -11.588,-3.508 z"
         id="path640"
         inkscape:connector-curvature="0"
         style="fill:#fff7c0;stroke:#000000;stroke-width:0.92540002" />
      <line
         x1="242.948"
         y1="1042.1479"
         x2="236.73"
         y2="1042.099"
         id="line642"
         style="fill:#ffffff;stroke:#000000;stroke-width:0.92540002" />
      <line
         x1="242.286"
         y1="1044.332"
         x2="236.06799"
         y2="1044.281"
         id="line644"
         style="fill:#ffffff;stroke:#000000;stroke-width:0.92540002" />
      <line
         x1="241.627"
         y1="1046.5129"
         x2="235.407"
         y2="1046.463"
         id="line646"
         style="fill:#ffffff;stroke:#000000;stroke-width:0.92540002" />
      <line
         x1="204.274"
         y1="1079.776"
         x2="204.274"
         y2="1068.038"
         id="line648"
         style="fill:none;stroke:#ffffff;stroke-width:0.48010001" />
      <path
         d="m 202.142,1053.314 c 0,0 -2.776,-0.64 -7.47,2.774 -4.695,3.413 -6.402,7.468 -6.402,7.468"
         id="path650"
         inkscape:connector-curvature="0"
         style="fill:none;stroke:#016699;stroke-width:1.72850001" />
      <path
         d="m 189.214,1062.075 c 0,0 3.28,4.897 2.61,5.371 -1.479,1.044 -3.103,-2.331 -3.103,-2.331 0,0 -3.315,6.385 -5.48,6.007 -1.595,-0.281 -2.867,-5.083 -1.569,-6.256 2.327,-2.104 7.542,-2.791 7.542,-2.791 z"
         id="path652"
         inkscape:connector-curvature="0"
         style="fill:#fff7c0;stroke:#000000;stroke-width:0.61470002" />
      <line
         x1="182.14101"
         y1="1070.161"
         x2="185.451"
         y2="1067.691"
         id="line654"
         style="fill:#ffffff;stroke:#000000;stroke-width:0.61470002" />
      <line
         x1="181.614"
         y1="1068.74"
         x2="184.927"
         y2="1066.271"
         id="line656"
         style="fill:#ffffff;stroke:#000000;stroke-width:0.61470002" />
      <line
         x1="181.088"
         y1="1067.3199"
         x2="184.40199"
         y2="1064.8521"
         id="line658"
         style="fill:#ffffff;stroke:#000000;stroke-width:0.61470002" />
      <line
         x1="208.8"
         y1="1022.183"
         x2="209.58099"
         y2="1025.787"
         id="line660"
         style="fill:none;stroke:#000000;stroke-width:1.5;stroke-linecap:round" />
      <line
         x1="200.265"
         y1="1025.171"
         x2="201.04601"
         y2="1028.7729"
         id="line662"
         style="fill:none;stroke:#000000;stroke-width:1.5;stroke-linecap:round" />
      <path
         d="m 212.147,1031.761 c 0,0 -0.006,5.761 -3.42,6.615 -3.414,0.853 -6.83,-4.695 -6.83,-4.695 l 10.25,-1.92 z"
         id="path664"
         inkscape:connector-curvature="0" />
    </g>
  </g>
</svg>
