<?xml version="1.0" encoding="UTF-8" standalone="no"?>
<!-- Created with Inkscape (http://www.inkscape.org/) -->

<svg
   xmlns:dc="http://purl.org/dc/elements/1.1/"
   xmlns:cc="http://creativecommons.org/ns#"
   xmlns:rdf="http://www.w3.org/1999/02/22-rdf-syntax-ns#"
   xmlns:svg="http://www.w3.org/2000/svg"
   xmlns="http://www.w3.org/2000/svg"
   xmlns:sodipodi="http://sodipodi.sourceforge.net/DTD/sodipodi-0.dtd"
   xmlns:inkscape="http://www.inkscape.org/namespaces/inkscape"
   width="447.14734"
   height="318.60223"
   id="svg4894"
   version="1.1"
   inkscape:version="0.48.0 r9654"
   sodipodi:docname="Nouveau document 5">
  <defs
     id="defs4896" />
  <sodipodi:namedview
     id="base"
     pagecolor="#ffffff"
     bordercolor="#666666"
     borderopacity="1.0"
     inkscape:pageopacity="0.0"
     inkscape:pageshadow="2"
     inkscape:zoom="1"
     inkscape:cx="389.14822"
     inkscape:cy="0.3579121"
     inkscape:document-units="px"
     inkscape:current-layer="layer1"
     showgrid="false"
     fit-margin-top="5"
     fit-margin-left="5"
     fit-margin-bottom="5"
     fit-margin-right="5"
     inkscape:window-width="1920"
     inkscape:window-height="1118"
     inkscape:window-x="0"
     inkscape:window-y="24"
     inkscape:window-maximized="1" />
  <metadata
     id="metadata4899">
    <rdf:RDF>
      <cc:Work
         rdf:about="">
        <dc:format>image/svg+xml</dc:format>
        <dc:type
           rdf:resource="http://purl.org/dc/dcmitype/StillImage" />
        <dc:title></dc:title>
      </cc:Work>
    </rdf:RDF>
  </metadata>
  <g
     inkscape:label="Calque 1"
     inkscape:groupmode="layer"
     id="layer1"
     transform="translate(14.148222,14.453574)">
    <g
       style="display:inline;font-family:'DejaVu Sans, Helvetica, sans-serif'"
       id="g6644"
       transform="matrix(4.9053607,0,0,4.9053607,-2285.012,-5443.1892)">
      <path
         d="m 525.488,1152.711 c 0,0 0.679,3.817 5.336,5.273 4.393,1.373 8.038,-2.475 8.038,-2.475 l 6.404,3.93 -4.221,3.056"
         id="path754"
         inkscape:connector-curvature="0"
         style="fill:none;stroke:#016699;stroke-width:0.83950001" />
      <rect
         x="536.76898"
         y="1153.431"
         width="2.73"
         height="16.943001"
         id="rect756"
         style="fill:#016699" />
      <path
         d="m 536.769,1170.375 h -4.104 c 0,0 -1.967,-1.639 -0.545,-2.078 1.422,-0.436 5.137,0.765 5.137,0.765 l -0.488,1.313 z"
         id="path758"
         inkscape:connector-curvature="0"
         style="fill:#016699" />
      <line
         x1="527.979"
         y1="1170.375"
         x2="547.25098"
         y2="1170.375"
         id="line760"
         style="fill:none;stroke:#329966;stroke-width:0.4858;stroke-linecap:round" />
      <circle
         cx="540.45398"
         cy="1161.766"
         r="1.806"
         id="circle762"
         sodipodi:cx="540.45398"
         sodipodi:cy="1161.766"
         sodipodi:rx="1.806"
         sodipodi:ry="1.806"
         style="fill:#fff7c0;stroke:#000000;stroke-width:0.6451"
         d="m 542.25998,1161.766 c 0,0.9974 -0.80857,1.806 -1.806,1.806 -0.99743,0 -1.806,-0.8086 -1.806,-1.806 0,-0.9974 0.80857,-1.806 1.806,-1.806 0.99743,0 1.806,0.8086 1.806,1.806 z" />
      <path
         d="m 527.478,1145.758 c -3.11,1.584 -6.075,1.493 -5.894,4.258 0.131,1.998 1.772,2.983 3.056,2.766 1.205,-0.205 2.022,-0.745 1.929,-2.037 -0.073,-1.019 -1.346,-1.929 -2.001,-2.074 -10e-4,-10e-4 4.475,-1.093 2.91,-2.913 z"
         id="path764"
         inkscape:connector-curvature="0"
         style="fill:#fff7c0;stroke:#000000;stroke-width:0.65490001" />
      <line
         x1="523.33197"
         y1="1148.9919"
         x2="524.56702"
         y2="1148.67"
         id="line766"
         style="fill:#ffffff;stroke:#000000;stroke-width:0.65490001;stroke-linecap:round" />
      <line
         x1="523.92999"
         y1="1150.2159"
         x2="525.57599"
         y2="1149.735"
         id="line768"
         style="fill:#ffffff;stroke:#000000;stroke-width:0.65490001;stroke-linecap:round" />
      <line
         x1="524.64001"
         y1="1151.434"
         x2="526.28601"
         y2="1150.954"
         id="line770"
         style="fill:#ffffff;stroke:#000000;stroke-width:0.65490001;stroke-linecap:round" />
      <circle
         cx="509.535"
         cy="1136.47"
         r="2.392"
         id="circle772"
         sodipodi:cx="509.535"
         sodipodi:cy="1136.47"
         sodipodi:rx="2.392"
         sodipodi:ry="2.392"
         style="fill:#ffffff;stroke:#000000;stroke-width:1.00320005"
         d="m 511.927,1136.47 c 0,1.321 -1.07093,2.392 -2.392,2.392 -1.32106,0 -2.392,-1.071 -2.392,-2.392 0,-1.3211 1.07094,-2.392 2.392,-2.392 1.32107,0 2.392,1.0709 2.392,2.392 z" />
      <path
         d="m 517.554,1139.246 c 0,0.938 -0.759,1.697 -1.694,1.697 -0.937,0 -1.694,-0.76 -1.694,-1.697 0,-0.935 0.758,-1.696 1.694,-1.696 0.935,-10e-4 1.694,0.761 1.694,1.696 z"
         id="path774"
         inkscape:connector-curvature="0"
         style="fill:#ffffff;stroke:#000000;stroke-width:0.71139997" />
      <circle
         cx="521.26001"
         cy="1140.943"
         r="1.225"
         id="circle776"
         sodipodi:cx="521.26001"
         sodipodi:cy="1140.943"
         sodipodi:rx="1.225"
         sodipodi:ry="1.225"
         style="fill:#ffffff;stroke:#000000;stroke-width:0.51410002"
         d="m 522.48501,1140.943 c 0,0.6765 -0.54845,1.225 -1.225,1.225 -0.67655,0 -1.225,-0.5485 -1.225,-1.225 0,-0.6766 0.54845,-1.225 1.225,-1.225 0.67655,0 1.225,0.5484 1.225,1.225 z" />
      <path
         d="m 468.917,1125.039 c 0,0 -5.739,-3.652 -2.608,-7.825 3.026,-4.035 7.651,-1.914 7.651,-1.914 0,0 -0.522,-4.868 4.521,-6.086 4.865,-1.174 7.305,2.435 7.305,2.435 0,0 3.649,-4.694 9.389,-3.131 5.361,1.464 4.523,8.174 4.523,8.174 0,0 7.998,-0.214 7.998,5.914 0,3.824 -4.521,6.085 -4.521,6.085 0,0 3.478,3.479 1.392,7.651 -2.087,4.173 -8.346,3.305 -8.346,3.305 0,0 0,5.216 -5.392,6.26 -4.378,0.847 -7.825,-3.304 -7.825,-3.304 0,0 -5.566,2.957 -9.739,0.349 -3.733,-2.334 -2.261,-7.825 -2.261,-7.825 0,0 -5.044,1.911 -6.435,-3.652 -1.003,-4.013 4.348,-6.436 4.348,-6.436 z"
         id="path778"
         inkscape:connector-curvature="0"
         style="fill:#ffffff;stroke:#000000;stroke-width:1.00320005" />
      <rect
         style="fill:none"
         id="rect782"
         height="27.454"
         width="18.778"
         y="1115.472"
         x="477.56799" />
      <text
         y="1138.9604"
         x="477.56839"
         style="font-size:32.26279831px"
         id="text784"
         font-size="32.2628">?</text>
      <path
         d="m 531.225,1146.769 c -0.56,-0.934 0.946,-4.737 0.462,-5.094 -0.869,-0.642 -3.877,-0.077 -4.497,-1.479 -0.447,-0.998 -0.458,-4.049 1.084,-4.515 1.048,-0.315 2.464,1.847 3.806,1.499 1.516,-0.396 1.166,-8.013 1.166,-8.013 0,0 6.822,0.095 7.038,1.879 0.216,1.785 -2.154,2.88 -1.306,4.265 0.686,1.117 4.234,1.987 5.594,0.774 1.355,-1.211 -0.082,-4.629 -0.194,-4.783 -0.108,-0.156 5.724,0.021 7.631,2.546 1.57,2.075 -0.169,7.554 -0.169,7.554 0,0 -3.642,-2.635 -5.74,-1.668 -2.022,0.93 -2.866,4.934 -1.596,5.788 1.388,0.935 5.075,-0.697 5.075,-0.697 0,0 -0.587,5.528 -2.268,5.968 -1.679,0.437 -4.231,-2.038 -6.053,-0.867 -1.29,0.828 0.717,2.883 -0.249,3.763 -0.989,0.9 -5.579,-0.013 -6.302,-1.215 -0.724,-1.206 2.354,-2.292 1.799,-3.54 -0.306,-0.684 -4.348,-0.613 -5.281,-2.165 z"
         id="path786"
         inkscape:connector-curvature="0"
         style="fill:#016699;stroke:#000000;stroke-width:0.79519999" />
      <path
         d="m 530.754,1147.579 c -0.561,-0.93 0.945,-4.735 0.463,-5.092 -0.872,-0.643 -3.877,-0.079 -4.5,-1.479 -0.445,-1 -0.458,-4.05 1.087,-4.517 1.044,-0.315 2.462,1.847 3.803,1.5 1.517,-0.396 1.166,-8.01 1.166,-8.01 0,0 6.824,0.091 7.039,1.878 0.218,1.785 -2.154,2.88 -1.305,4.264 0.687,1.118 4.234,1.989 5.59,0.774 1.358,-1.214 -0.079,-4.63 -0.189,-4.782 -0.11,-0.159 5.72,0.021 7.628,2.545 1.572,2.074 -0.17,7.552 -0.17,7.552 0,0 -3.638,-2.631 -5.738,-1.667 -2.021,0.928 -2.869,4.936 -1.597,5.789 1.391,0.937 5.076,-0.697 5.076,-0.697 0,0 -0.588,5.527 -2.267,5.966 -1.68,0.438 -4.232,-2.035 -6.054,-0.865 -1.29,0.827 0.718,2.884 -0.25,3.765 -0.989,0.898 -5.579,-0.014 -6.304,-1.219 -0.72,-1.203 2.357,-2.287 1.802,-3.539 -0.305,-0.685 -4.346,-0.614 -5.28,-2.166 z"
         id="path788"
         inkscape:connector-curvature="0"
         style="fill:#fff7c0;stroke:#000000;stroke-width:0.79519999" />
      <line
         x1="532.66901"
         y1="1129.804"
         x2="533.185"
         y2="1128.955"
         id="line790"
         style="fill:#ffffff;stroke:#000000;stroke-width:0.74190003" />
      <line
         x1="543.896"
         y1="1132.052"
         x2="544.41199"
         y2="1131.201"
         id="line792"
         style="fill:#ffffff;stroke:#000000;stroke-width:0.74190003" />
      <line
         x1="535.73199"
         y1="1137.125"
         x2="535.38397"
         y2="1139.239"
         id="line794"
         style="fill:none;stroke:#000000;stroke-width:1.04449999;stroke-linecap:round" />
      <line
         x1="531.24799"
         y1="1144.839"
         x2="533.79901"
         y2="1145.26"
         id="line796"
         style="fill:#ffffff;stroke:#000000;stroke-width:0.71619999;stroke-linecap:round" />
    </g>
  </g>
</svg>
