<?xml version="1.0" encoding="utf-8" standalone="no"?>
<!DOCTYPE svg PUBLIC "-//W3C//DTD SVG 1.1//EN"
  "http://www.w3.org/Graphics/SVG/1.1/DTD/svg11.dtd">
<svg xmlns:xlink="http://www.w3.org/1999/xlink" width="720pt" height="432pt" viewBox="0 0 720 432" xmlns="http://www.w3.org/2000/svg" version="1.1">
 <metadata>
  <rdf:RDF xmlns:dc="http://purl.org/dc/elements/1.1/" xmlns:cc="http://creativecommons.org/ns#" xmlns:rdf="http://www.w3.org/1999/02/22-rdf-syntax-ns#">
   <cc:Work>
    <dc:type rdf:resource="http://purl.org/dc/dcmitype/StillImage"/>
    <dc:date>2025-04-22T08:50:10.684112</dc:date>
    <dc:format>image/svg+xml</dc:format>
    <dc:creator>
     <cc:Agent>
      <dc:title>Matplotlib v3.10.1, https://matplotlib.org/</dc:title>
     </cc:Agent>
    </dc:creator>
   </cc:Work>
  </rdf:RDF>
 </metadata>
 <defs>
  <style type="text/css">*{stroke-linejoin: round; stroke-linecap: butt}</style>
 </defs>
 <g id="figure_1">
  <g id="patch_1">
   <path d="M 0 432 
L 720 432 
L 720 0 
L 0 0 
z
" style="fill: #ffffff"/>
  </g>
  <g id="axes_1">
   <g id="patch_2">
    <path d="M 88.9 395.6225 
L 702.72 395.6225 
L 702.72 36.24 
L 88.9 36.24 
z
" style="fill: #ffffff"/>
   </g>
   <g id="patch_3">
    <path d="M 88.9 379.286932 
L 640.818897 379.286932 
L 640.818897 324.835038 
L 88.9 324.835038 
z
" clip-path="url(#pa13965d17b)" style="fill: #9e0000"/>
   </g>
   <g id="patch_4">
    <path d="M 88.9 311.222064 
L 545.066558 311.222064 
L 545.066558 256.77017 
L 88.9 256.77017 
z
" clip-path="url(#pa13965d17b)" style="fill: #9e0000"/>
   </g>
   <g id="patch_5">
    <path d="M 88.9 243.157197 
L 191.653354 243.157197 
L 191.653354 188.705303 
L 88.9 188.705303 
z
" clip-path="url(#pa13965d17b)" style="fill: #9e0000"/>
   </g>
   <g id="patch_6">
    <path d="M 88.9 175.09233 
L 102.560335 175.09233 
L 102.560335 120.640436 
L 88.9 120.640436 
z
" clip-path="url(#pa13965d17b)" style="fill: #9e0000"/>
   </g>
   <g id="patch_7">
    <path d="M 88.9 107.027462 
L 91.562985 107.027462 
L 91.562985 52.575568 
L 88.9 52.575568 
z
" clip-path="url(#pa13965d17b)" style="fill: #9e0000"/>
   </g>
   <g id="matplotlib.axis_1">
    <g id="xtick_1"/>
    <g id="xtick_2"/>
    <g id="xtick_3"/>
    <g id="xtick_4"/>
    <g id="xtick_5"/>
    <g id="text_1">
     <!-- Number of contributors -->
     <g transform="translate(317.86375 410.79) scale(0.16 -0.16)">
      <defs>
       <path id="LinBiolinumO-4e" d="M 691 4128 
C 749 2912 730 1018 627 0 
L 640 -19 
C 717 -6 787 0 864 0 
C 941 0 1011 -6 1088 -19 
L 1101 0 
C 1050 365 1037 800 1037 1280 
L 1037 2810 
C 1037 3200 1043 3219 1286 2912 
L 3520 90 
C 3590 -6 3693 -64 3795 -64 
C 3885 -64 3910 13 3917 134 
C 3949 1594 3942 2707 4045 4128 
L 4032 4147 
C 3955 4134 3885 4128 3808 4128 
C 3731 4128 3661 4134 3584 4147 
L 3571 4128 
C 3622 3763 3635 3328 3635 2848 
L 3635 1139 
C 3622 787 3533 934 3258 1299 
L 1062 4141 
C 1062 4141 998 4128 973 4128 
C 755 4128 704 4147 704 4147 
L 691 4128 
z
" transform="scale(0.015625)"/>
       <path id="LinBiolinumO-75" d="M 2336 589 
L 2362 570 
L 2394 0 
C 2394 -13 2400 -19 2419 -19 
C 2502 -13 2579 0 2669 0 
C 2752 0 2874 -6 2957 -19 
L 2970 0 
C 2918 275 2861 749 2861 1229 
L 2861 1594 
C 2861 2074 2867 2406 2918 2746 
L 2906 2765 
C 2829 2752 2682 2746 2605 2746 
C 2528 2746 2381 2752 2304 2765 
L 2291 2746 
C 2336 2374 2349 2080 2349 1594 
L 2349 966 
C 2150 634 1786 294 1472 294 
C 1248 294 1043 365 1043 960 
L 1043 1594 
C 1043 2074 1050 2406 1101 2746 
L 1088 2765 
C 1011 2752 864 2746 787 2746 
C 710 2746 563 2752 486 2765 
L 474 2746 
C 525 2381 531 2080 531 1594 
L 531 826 
C 531 384 736 -64 1370 -64 
C 1766 -64 2125 262 2336 589 
z
" transform="scale(0.015625)"/>
       <path id="LinBiolinumO-6d" d="M 1037 2253 
L 1037 2720 
C 1037 2765 1024 2784 998 2784 
C 851 2752 621 2746 480 2765 
L 467 2746 
C 512 2464 525 1984 525 1504 
L 525 1152 
C 525 672 518 346 467 0 
L 480 -19 
C 557 -6 704 0 781 0 
C 858 0 1005 -6 1082 -19 
L 1094 0 
C 1043 365 1037 666 1037 1152 
L 1037 1926 
C 1338 2234 1696 2426 1920 2426 
C 2163 2426 2342 2285 2342 1856 
L 2342 1152 
C 2342 672 2336 346 2285 0 
L 2298 -19 
C 2374 -6 2522 0 2598 0 
C 2675 0 2822 -6 2899 -19 
L 2912 0 
C 2861 365 2854 666 2854 1152 
L 2854 1798 
C 2854 1888 2854 1965 2848 2042 
C 3155 2381 3411 2426 3661 2426 
C 4006 2426 4173 2285 4173 1856 
L 4173 1152 
C 4173 672 4166 346 4115 0 
L 4128 -19 
C 4205 -6 4352 0 4429 0 
C 4506 0 4653 -6 4730 -19 
L 4742 0 
C 4691 365 4685 666 4685 1152 
L 4685 1792 
C 4685 2362 4582 2810 3891 2810 
C 3546 2810 3174 2688 2810 2304 
C 2752 2611 2490 2810 2131 2810 
C 1734 2810 1357 2554 1056 2234 
L 1037 2253 
z
" transform="scale(0.015625)"/>
       <path id="LinBiolinumO-62" d="M 1037 518 
L 1037 2176 
C 1286 2432 1446 2554 1709 2554 
C 2099 2554 2445 2227 2445 1434 
C 2445 640 2208 192 1600 192 
C 1402 192 1165 358 1037 518 
z
M 1037 3200 
C 1037 3674 1043 4006 1075 4403 
C 1075 4448 1056 4467 1018 4467 
C 851 4403 717 4358 461 4339 
L 448 4320 
C 493 4045 525 3571 525 3085 
L 525 467 
C 525 218 518 122 493 -13 
C 531 -51 602 -64 672 -64 
C 742 13 813 122 883 250 
C 1069 90 1363 -64 1638 -64 
C 2291 -64 3014 397 3014 1485 
C 3014 2266 2458 2810 1837 2810 
C 1530 2810 1254 2726 1037 2490 
L 1037 3200 
z
" transform="scale(0.015625)"/>
       <path id="LinBiolinumO-65" d="M 800 1747 
C 909 2413 1325 2554 1530 2554 
C 1779 2554 2067 2317 2067 1837 
C 2067 1779 2042 1747 1978 1747 
L 800 1747 
z
M 2509 666 
C 2285 422 1984 314 1632 314 
C 1408 314 1107 397 934 678 
C 819 858 781 1114 781 1491 
L 2522 1491 
C 2592 1491 2637 1530 2637 1600 
C 2637 2138 2374 2810 1530 2810 
C 870 2810 218 2278 218 1338 
C 218 973 288 614 506 358 
C 723 90 1088 -64 1523 -64 
C 1984 -64 2394 173 2637 506 
L 2509 666 
z
" transform="scale(0.015625)"/>
       <path id="LinBiolinumO-72" d="M 1069 2138 
L 1069 2720 
C 1069 2765 1056 2784 1030 2784 
C 883 2752 653 2746 512 2765 
L 499 2746 
C 544 2464 557 1984 557 1504 
L 557 1152 
C 557 672 544 339 499 0 
L 512 -19 
C 589 -6 736 0 813 0 
C 890 0 1037 -6 1114 -19 
L 1126 0 
C 1075 365 1069 666 1069 1152 
L 1069 1485 
C 1069 1754 1146 1907 1286 2118 
C 1376 2259 1523 2342 1645 2342 
C 1773 2342 1894 2330 1978 2253 
L 2029 2266 
L 2157 2739 
L 2131 2765 
C 2022 2797 2016 2810 1901 2810 
C 1555 2810 1370 2611 1088 2125 
L 1069 2138 
z
" transform="scale(0.015625)"/>
       <path id="LinBiolinumO-20" transform="scale(0.015625)"/>
       <path id="LinBiolinumO-6f" d="M 243 1312 
C 243 544 749 -64 1600 -64 
C 2445 -64 2957 531 2957 1370 
C 2957 2240 2490 2810 1626 2810 
C 787 2810 243 2221 243 1312 
z
M 1581 2554 
C 2259 2554 2394 2029 2394 1254 
C 2394 640 2086 192 1658 192 
C 979 192 806 928 806 1421 
C 806 1978 979 2554 1581 2554 
z
" transform="scale(0.015625)"/>
       <path id="LinBiolinumO-66" d="M 634 2746 
C 493 2746 346 2746 262 2758 
C 218 2650 179 2592 122 2496 
L 154 2451 
C 269 2458 480 2464 627 2464 
L 634 2464 
L 634 1274 
C 634 794 621 339 570 0 
L 582 -19 
C 659 -6 813 0 890 0 
C 966 0 1120 -6 1197 -19 
L 1210 0 
C 1152 365 1146 794 1146 1274 
L 1146 2464 
L 1363 2464 
C 1517 2464 1734 2458 1824 2451 
C 1843 2554 1862 2618 1901 2714 
L 1869 2758 
C 1760 2752 1568 2746 1421 2746 
L 1146 2746 
L 1146 2803 
C 1146 3034 1114 3366 1114 3482 
C 1114 3834 1338 4077 1709 4077 
C 1869 4077 2010 3981 2080 3853 
L 2150 3859 
C 2195 4032 2259 4243 2330 4384 
L 2323 4403 
C 2272 4435 2157 4467 2035 4467 
C 1632 4467 1222 4275 986 3974 
C 742 3667 634 3366 634 2995 
L 634 2746 
z
" transform="scale(0.015625)"/>
       <path id="LinBiolinumO-63" d="M 1600 2554 
C 1843 2554 2067 2368 2240 2080 
L 2323 2086 
L 2470 2611 
L 2458 2630 
C 2259 2733 1926 2810 1606 2810 
C 941 2810 243 2266 243 1395 
C 243 499 749 -64 1530 -64 
C 1914 -64 2214 64 2470 390 
L 2349 525 
L 2323 525 
C 2080 307 1875 256 1638 256 
C 1171 256 806 678 806 1427 
C 806 2131 1178 2554 1600 2554 
z
" transform="scale(0.015625)"/>
       <path id="LinBiolinumO-6e" d="M 2944 1152 
C 2944 1357 2957 1594 2957 1798 
C 2957 2464 2739 2810 2163 2810 
C 1920 2810 1466 2714 1056 2234 
L 1043 2253 
L 1043 2720 
C 1037 2765 1030 2784 1005 2784 
C 858 2752 627 2746 486 2765 
L 474 2746 
C 518 2464 531 1984 531 1504 
L 531 1152 
C 531 672 525 346 474 0 
L 486 -19 
C 563 -6 710 0 787 0 
C 864 0 1011 -6 1088 -19 
L 1101 0 
C 1050 365 1043 666 1043 1152 
L 1043 1901 
C 1370 2285 1741 2426 1971 2426 
C 2298 2426 2432 2298 2432 1779 
L 2432 1152 
C 2432 672 2419 339 2374 0 
L 2387 -19 
C 2464 -6 2611 0 2688 0 
C 2765 0 2912 -6 2989 -19 
L 3002 0 
C 2950 365 2944 666 2944 1152 
z
" transform="scale(0.015625)"/>
       <path id="LinBiolinumO-74" d="M 608 2746 
C 474 2746 339 2746 262 2758 
C 218 2650 179 2592 122 2496 
L 154 2451 
C 262 2458 461 2458 608 2464 
L 608 1587 
C 608 1203 589 742 589 550 
C 589 134 858 -64 1152 -64 
C 1421 -64 1626 0 1894 173 
L 1811 326 
C 1619 262 1472 256 1312 282 
C 1158 301 1101 454 1101 806 
C 1101 998 1120 1274 1120 1658 
L 1120 2464 
L 1363 2464 
C 1517 2464 1734 2458 1824 2451 
C 1843 2554 1862 2618 1901 2714 
L 1869 2758 
C 1754 2752 1568 2746 1421 2746 
L 1120 2746 
C 1120 3219 1120 3309 1152 3680 
C 1152 3725 1133 3744 1094 3744 
C 928 3680 851 3610 646 3584 
L 634 3565 
C 621 3341 608 3117 608 2746 
z
" transform="scale(0.015625)"/>
       <path id="LinBiolinumO-69" d="M 512 3821 
C 512 3648 666 3494 838 3494 
C 1011 3494 1165 3648 1165 3821 
C 1165 3994 1011 4147 838 4147 
C 666 4147 512 3994 512 3821 
z
M 576 1504 
L 576 1152 
C 576 672 563 346 518 0 
L 531 -19 
C 608 -6 755 0 832 0 
C 909 0 1056 -6 1133 -19 
L 1146 0 
C 1094 358 1088 666 1088 1152 
L 1088 1606 
C 1088 2086 1101 2317 1146 2707 
C 1146 2765 1133 2771 1088 2771 
C 941 2752 666 2752 531 2765 
L 518 2746 
C 557 2470 576 1984 576 1504 
z
" transform="scale(0.015625)"/>
       <path id="LinBiolinumO-73" d="M 320 646 
L 211 109 
C 576 -19 934 -64 1178 -64 
C 2061 -64 2266 461 2266 813 
C 2266 1338 1850 1542 1395 1651 
C 1152 1709 800 1830 800 2150 
C 800 2413 1011 2554 1286 2554 
C 1619 2554 1824 2291 1971 2118 
L 2061 2125 
L 2189 2598 
L 2176 2618 
C 1990 2714 1638 2810 1312 2810 
C 838 2810 346 2560 346 2029 
C 346 1517 723 1344 1114 1242 
C 1485 1139 1760 1037 1760 723 
C 1760 384 1510 192 1171 192 
C 864 192 595 403 416 653 
L 320 646 
z
" transform="scale(0.015625)"/>
      </defs>
      <use xlink:href="#LinBiolinumO-4e"/>
      <use xlink:href="#LinBiolinumO-75" transform="translate(71.799988 0)"/>
      <use xlink:href="#LinBiolinumO-6d" transform="translate(125.499985 0)"/>
      <use xlink:href="#LinBiolinumO-62" transform="translate(206.199966 0)"/>
      <use xlink:href="#LinBiolinumO-65" transform="translate(256.59996 0)"/>
      <use xlink:href="#LinBiolinumO-72" transform="translate(301.899948 0)"/>
      <use xlink:href="#LinBiolinumO-20" transform="translate(337.399933 0)"/>
      <use xlink:href="#LinBiolinumO-6f" transform="translate(362.399918 0)"/>
      <use xlink:href="#LinBiolinumO-66" transform="translate(412.399902 0)"/>
      <use xlink:href="#LinBiolinumO-20" transform="translate(443.799896 0)"/>
      <use xlink:href="#LinBiolinumO-63" transform="translate(468.799881 0)"/>
      <use xlink:href="#LinBiolinumO-6f" transform="translate(511.699875 0)"/>
      <use xlink:href="#LinBiolinumO-6e" transform="translate(561.69986 0)"/>
      <use xlink:href="#LinBiolinumO-74" transform="translate(615.599854 0)"/>
      <use xlink:href="#LinBiolinumO-72" transform="translate(649.599838 0)"/>
      <use xlink:href="#LinBiolinumO-69" transform="translate(685.099823 0)"/>
      <use xlink:href="#LinBiolinumO-62" transform="translate(711.099808 0)"/>
      <use xlink:href="#LinBiolinumO-75" transform="translate(761.499802 0)"/>
      <use xlink:href="#LinBiolinumO-74" transform="translate(815.199799 0)"/>
      <use xlink:href="#LinBiolinumO-6f" transform="translate(849.199783 0)"/>
      <use xlink:href="#LinBiolinumO-72" transform="translate(899.199768 0)"/>
      <use xlink:href="#LinBiolinumO-73" transform="translate(934.699753 0)"/>
     </g>
    </g>
   </g>
   <g id="matplotlib.axis_2">
    <g id="ytick_1">
     <g id="text_2">
      <!-- 1 -->
      <g transform="translate(74.46 357.644735) scale(0.16 -0.16)">
       <defs>
        <path id="LinBiolinumO-31" d="M 2086 1210 
L 2086 2835 
C 2086 3526 2125 3782 2138 3872 
C 2138 3904 2118 3904 2093 3904 
C 1677 3770 1190 3520 691 3366 
L 730 3181 
C 1018 3213 1331 3283 1459 3283 
C 1574 3283 1574 3027 1574 2797 
L 1574 1210 
C 1574 710 1568 365 1523 0 
L 1530 -19 
C 1530 -19 1709 0 1824 0 
C 1952 0 2131 -19 2131 -19 
L 2144 0 
C 2099 384 2086 704 2086 1210 
z
" transform="scale(0.015625)"/>
       </defs>
       <use xlink:href="#LinBiolinumO-31"/>
      </g>
     </g>
    </g>
    <g id="ytick_2">
     <g id="text_3">
      <!-- 2–10 -->
      <g transform="translate(51.035 289.579867) scale(0.16 -0.16)">
       <defs>
        <path id="LinBiolinumO-32" d="M 1421 3539 
C 1754 3539 2093 3232 2093 2778 
C 2093 2515 2016 2176 1850 1926 
C 1395 1242 659 595 346 301 
C 339 275 333 250 333 218 
C 333 122 365 19 397 -32 
C 870 -19 1146 0 1613 0 
C 2074 0 2266 -13 2720 -32 
C 2714 32 2701 109 2701 179 
C 2701 282 2707 378 2733 480 
C 2374 448 2176 429 1562 429 
C 1338 429 1216 429 1037 416 
C 1037 422 1030 435 1030 448 
C 1030 506 1101 570 1146 621 
C 1459 922 1760 1210 2182 1779 
C 2419 2093 2643 2502 2643 2867 
C 2643 3475 2234 3904 1523 3904 
C 941 3904 563 3578 422 3386 
L 557 2944 
L 640 2938 
C 730 3130 762 3258 928 3392 
C 1056 3494 1242 3539 1421 3539 
z
" transform="scale(0.015625)"/>
        <path id="LinBiolinumO-2013" d="M 378 1523 
L 2963 1523 
C 3046 1523 3130 1651 3130 1728 
C 3130 1786 3110 1837 3040 1837 
L 454 1837 
C 378 1837 288 1709 288 1632 
C 288 1581 307 1523 378 1523 
z
" transform="scale(0.015625)"/>
        <path id="LinBiolinumO-30" d="M 1491 3654 
C 1600 3654 1702 3616 1773 3552 
C 1971 3386 2144 2886 2144 2029 
C 2144 1440 2125 1107 2035 781 
C 1894 250 1581 186 1466 186 
C 870 186 800 1280 800 1837 
C 800 3418 1197 3654 1491 3654 
z
M 1459 -64 
C 1952 -64 2694 480 2694 1978 
C 2694 2976 2330 3469 2099 3680 
C 1926 3840 1722 3904 1491 3904 
C 851 3904 250 3110 250 1850 
C 250 813 666 -64 1459 -64 
z
" transform="scale(0.015625)"/>
       </defs>
       <use xlink:href="#LinBiolinumO-32"/>
       <use xlink:href="#LinBiolinumO-2013" transform="translate(46.499985 0)"/>
       <use xlink:href="#LinBiolinumO-31" transform="translate(99.899979 0)"/>
       <use xlink:href="#LinBiolinumO-30" transform="translate(146.399963 0)"/>
      </g>
     </g>
    </g>
    <g id="ytick_3">
     <g id="text_4">
      <!-- 11–100 -->
      <g transform="translate(36.155 221.515) scale(0.16 -0.16)">
       <use xlink:href="#LinBiolinumO-31"/>
       <use xlink:href="#LinBiolinumO-31" transform="translate(46.499985 0)"/>
       <use xlink:href="#LinBiolinumO-2013" transform="translate(92.999969 0)"/>
       <use xlink:href="#LinBiolinumO-31" transform="translate(146.399963 0)"/>
       <use xlink:href="#LinBiolinumO-30" transform="translate(192.899948 0)"/>
       <use xlink:href="#LinBiolinumO-30" transform="translate(239.399933 0)"/>
      </g>
     </g>
    </g>
    <g id="ytick_4">
     <g id="text_5">
      <!-- 101–1,000 -->
      <g transform="translate(17.755 153.450133) scale(0.16 -0.16)">
       <defs>
        <path id="LinBiolinumO-2c" d="M 307 282 
C 358 64 448 26 653 -19 
C 730 -19 838 -32 838 -186 
C 838 -397 653 -576 339 -787 
C 339 -851 378 -890 422 -922 
C 768 -723 1088 -544 1088 -19 
C 1088 390 909 563 678 653 
L 653 653 
C 454 570 365 474 307 307 
L 307 282 
z
" transform="scale(0.015625)"/>
       </defs>
       <use xlink:href="#LinBiolinumO-31"/>
       <use xlink:href="#LinBiolinumO-30" transform="translate(46.499985 0)"/>
       <use xlink:href="#LinBiolinumO-31" transform="translate(92.999969 0)"/>
       <use xlink:href="#LinBiolinumO-2013" transform="translate(139.499954 0)"/>
       <use xlink:href="#LinBiolinumO-31" transform="translate(192.899948 0)"/>
       <use xlink:href="#LinBiolinumO-2c" transform="translate(239.399933 0)"/>
       <use xlink:href="#LinBiolinumO-30" transform="translate(261.399918 0)"/>
       <use xlink:href="#LinBiolinumO-30" transform="translate(307.899902 0)"/>
       <use xlink:href="#LinBiolinumO-30" transform="translate(354.399887 0)"/>
      </g>
     </g>
    </g>
    <g id="ytick_5">
     <g id="text_6">
      <!-- 1,001+ -->
      <g transform="translate(40.1875 85.385265) scale(0.16 -0.16)">
       <defs>
        <path id="LinBiolinumO-2b" d="M 1850 1645 
L 1850 2758 
L 1523 2758 
L 1523 1645 
L 422 1645 
L 422 1331 
L 1523 1331 
L 1523 218 
L 1850 218 
L 1850 1331 
L 2950 1331 
L 2950 1645 
L 1850 1645 
z
" transform="scale(0.015625)"/>
       </defs>
       <use xlink:href="#LinBiolinumO-31"/>
       <use xlink:href="#LinBiolinumO-2c" transform="translate(46.499985 0)"/>
       <use xlink:href="#LinBiolinumO-30" transform="translate(68.499969 0)"/>
       <use xlink:href="#LinBiolinumO-30" transform="translate(114.999954 0)"/>
       <use xlink:href="#LinBiolinumO-31" transform="translate(161.499939 0)"/>
       <use xlink:href="#LinBiolinumO-2b" transform="translate(207.999924 0)"/>
      </g>
     </g>
    </g>
   </g>
   <g id="text_7">
    <!-- 891,614 -->
    <g transform="translate(647.009008 355.764735) scale(0.16 -0.16)">
     <defs>
      <path id="LinBiolinumO-38" d="M 1504 3693 
C 1920 3693 2074 3411 2074 3110 
C 2074 2765 1734 2458 1555 2330 
L 1357 2445 
C 954 2707 909 2944 909 3142 
C 909 3443 1120 3693 1504 3693 
z
M 2547 3104 
C 2547 3565 2176 3904 1542 3904 
C 890 3904 429 3520 429 3027 
C 429 2669 627 2349 992 2138 
L 1120 2067 
C 960 1946 832 1843 672 1702 
C 410 1472 250 1184 250 934 
C 250 282 768 -58 1446 -58 
C 2285 -58 2739 550 2739 1037 
C 2739 1408 2534 1690 2182 1920 
L 1792 2176 
C 2080 2368 2547 2694 2547 3104 
z
M 1459 154 
C 1165 154 749 358 749 934 
C 749 1126 800 1555 1350 1920 
L 1645 1734 
C 2042 1485 2208 1203 2208 902 
C 2208 282 1754 154 1459 154 
z
" transform="scale(0.015625)"/>
      <path id="LinBiolinumO-39" d="M 2131 2067 
C 1882 1811 1626 1805 1485 1805 
C 838 1805 742 2419 742 2733 
C 742 3437 1005 3667 1312 3667 
C 1651 3667 2138 3443 2138 2304 
C 2138 2240 2138 2131 2131 2067 
z
M 384 109 
L 403 -70 
C 1062 -32 1530 147 1965 589 
C 2432 1056 2650 1664 2650 2285 
C 2650 3629 1875 3898 1382 3898 
C 448 3898 179 3149 179 2688 
C 179 2381 352 1549 1350 1549 
C 1606 1549 1965 1690 2118 1882 
C 2048 1338 1818 883 1510 582 
C 1184 269 826 154 384 109 
z
" transform="scale(0.015625)"/>
      <path id="LinBiolinumO-36" d="M 813 1773 
C 1062 2029 1318 2035 1459 2035 
C 2106 2035 2202 1421 2202 1107 
C 2202 403 1939 173 1632 173 
C 1293 173 806 397 806 1536 
C 806 1600 806 1709 813 1773 
z
M 2560 3731 
L 2541 3910 
C 1882 3872 1414 3693 979 3251 
C 512 2784 294 2176 294 1555 
C 294 211 1069 -58 1562 -58 
C 2496 -58 2765 691 2765 1152 
C 2765 1459 2592 2291 1594 2291 
C 1338 2291 979 2150 826 1958 
C 896 2502 1126 2957 1434 3258 
C 1760 3571 2118 3686 2560 3731 
z
" transform="scale(0.015625)"/>
      <path id="LinBiolinumO-34" d="M 1830 947 
C 1830 454 1818 326 1779 0 
L 1786 -19 
C 1786 -19 1984 0 2086 0 
C 2189 0 2298 -19 2355 -19 
C 2362 -19 2368 -6 2368 0 
C 2342 371 2330 576 2330 947 
L 2650 947 
C 2739 947 2835 1094 2835 1165 
C 2835 1222 2803 1267 2739 1267 
L 2330 1267 
L 2330 2893 
C 2330 3104 2336 3546 2368 3840 
C 2368 3853 2362 3866 2355 3866 
C 2298 3866 2202 3840 2106 3840 
C 2003 3840 1888 3866 1888 3866 
C 1888 3866 1862 3846 1862 3840 
C 1472 3302 550 1894 218 1325 
C 154 1210 134 1139 134 1075 
C 134 979 282 947 512 947 
L 1830 947 
z
M 1830 3277 
L 1830 1267 
L 531 1267 
L 1830 3277 
z
" transform="scale(0.015625)"/>
     </defs>
     <use xlink:href="#LinBiolinumO-38"/>
     <use xlink:href="#LinBiolinumO-39" transform="translate(46.499985 0)"/>
     <use xlink:href="#LinBiolinumO-31" transform="translate(92.999969 0)"/>
     <use xlink:href="#LinBiolinumO-2c" transform="translate(139.499954 0)"/>
     <use xlink:href="#LinBiolinumO-36" transform="translate(161.499939 0)"/>
     <use xlink:href="#LinBiolinumO-31" transform="translate(207.999924 0)"/>
     <use xlink:href="#LinBiolinumO-34" transform="translate(254.499908 0)"/>
    </g>
   </g>
   <g id="text_8">
    <!-- 736,928 -->
    <g transform="translate(551.256668 287.699867) scale(0.16 -0.16)">
     <defs>
      <path id="LinBiolinumO-37" d="M 2208 3360 
C 1709 2125 1222 915 794 -45 
L 813 -83 
L 1280 -58 
C 1645 1030 1997 2093 2714 3840 
L 2605 3904 
C 2509 3872 2394 3840 2195 3840 
C 1242 3840 678 3846 403 3885 
C 416 3789 435 3712 435 3616 
C 435 3520 416 3398 403 3302 
C 870 3366 1786 3373 2208 3360 
z
" transform="scale(0.015625)"/>
      <path id="LinBiolinumO-33" d="M 1338 186 
C 832 186 762 378 589 749 
L 493 742 
L 352 262 
L 371 243 
C 538 102 813 -64 1325 -64 
C 1869 -64 2726 307 2726 1152 
C 2726 1658 2336 2016 1843 2061 
L 1843 2093 
C 2176 2170 2598 2541 2598 3072 
C 2598 3533 2202 3904 1568 3904 
C 1075 3904 717 3686 557 3546 
L 538 3526 
L 672 3117 
L 768 3110 
C 922 3469 1126 3654 1510 3654 
C 1760 3654 2042 3392 2042 2976 
C 2042 2694 1946 2490 1798 2349 
C 1670 2227 1485 2170 1267 2170 
C 1190 2170 1120 2176 1030 2189 
L 1030 1907 
C 1107 1920 1242 1920 1299 1920 
C 1504 1920 1747 1862 1926 1715 
C 2093 1574 2176 1350 2176 1101 
C 2176 326 1568 186 1338 186 
z
" transform="scale(0.015625)"/>
     </defs>
     <use xlink:href="#LinBiolinumO-37"/>
     <use xlink:href="#LinBiolinumO-33" transform="translate(46.499985 0)"/>
     <use xlink:href="#LinBiolinumO-36" transform="translate(92.999969 0)"/>
     <use xlink:href="#LinBiolinumO-2c" transform="translate(139.499954 0)"/>
     <use xlink:href="#LinBiolinumO-39" transform="translate(161.499939 0)"/>
     <use xlink:href="#LinBiolinumO-32" transform="translate(207.999924 0)"/>
     <use xlink:href="#LinBiolinumO-38" transform="translate(254.499908 0)"/>
    </g>
   </g>
   <g id="text_9">
    <!-- 165,996 -->
    <g transform="translate(197.843465 219.635) scale(0.16 -0.16)">
     <defs>
      <path id="LinBiolinumO-35" d="M 1293 -64 
C 2054 -64 2598 499 2598 1254 
C 2598 1875 2182 2432 1466 2432 
C 1203 2432 909 2387 768 2336 
L 902 3469 
C 1139 3437 1414 3411 1715 3411 
C 1907 3411 2125 3418 2387 3450 
L 2490 3885 
L 2445 3904 
C 2080 3859 1734 3840 1395 3840 
C 1158 3840 883 3859 666 3878 
L 461 1990 
L 506 1978 
C 755 2080 998 2176 1299 2176 
C 1715 2176 2035 1843 2035 1146 
C 2035 557 1741 192 1306 192 
C 826 192 742 448 531 832 
L 442 826 
L 301 314 
L 326 294 
C 486 154 806 -64 1293 -64 
z
" transform="scale(0.015625)"/>
     </defs>
     <use xlink:href="#LinBiolinumO-31"/>
     <use xlink:href="#LinBiolinumO-36" transform="translate(46.499985 0)"/>
     <use xlink:href="#LinBiolinumO-35" transform="translate(92.999969 0)"/>
     <use xlink:href="#LinBiolinumO-2c" transform="translate(139.499954 0)"/>
     <use xlink:href="#LinBiolinumO-39" transform="translate(161.499939 0)"/>
     <use xlink:href="#LinBiolinumO-39" transform="translate(207.999924 0)"/>
     <use xlink:href="#LinBiolinumO-36" transform="translate(254.499908 0)"/>
    </g>
   </g>
   <g id="text_10">
    <!-- 22,068 -->
    <g transform="translate(108.750446 151.570133) scale(0.16 -0.16)">
     <use xlink:href="#LinBiolinumO-32"/>
     <use xlink:href="#LinBiolinumO-32" transform="translate(46.499985 0)"/>
     <use xlink:href="#LinBiolinumO-2c" transform="translate(92.999969 0)"/>
     <use xlink:href="#LinBiolinumO-30" transform="translate(114.999954 0)"/>
     <use xlink:href="#LinBiolinumO-36" transform="translate(161.499939 0)"/>
     <use xlink:href="#LinBiolinumO-38" transform="translate(207.999924 0)"/>
    </g>
   </g>
   <g id="text_11">
    <!-- 4,302 -->
    <g transform="translate(97.753096 83.505265) scale(0.16 -0.16)">
     <use xlink:href="#LinBiolinumO-34"/>
     <use xlink:href="#LinBiolinumO-2c" transform="translate(46.499985 0)"/>
     <use xlink:href="#LinBiolinumO-33" transform="translate(68.499969 0)"/>
     <use xlink:href="#LinBiolinumO-30" transform="translate(114.999954 0)"/>
     <use xlink:href="#LinBiolinumO-32" transform="translate(161.499939 0)"/>
    </g>
   </g>
   <g id="text_12">
    <!-- UploadWizard contributors by number of uploads -->
    <g transform="translate(190.73375 30.24) scale(0.18 -0.18)">
     <defs>
      <path id="LinBiolinumOB-55" d="M 3501 2848 
L 3501 1773 
C 3501 1056 3354 352 2426 352 
C 1574 352 1472 1242 1472 1722 
L 1472 2848 
C 1472 3328 1485 3789 1536 4128 
L 1530 4147 
C 1530 4147 1222 4128 998 4128 
C 781 4128 499 4147 499 4147 
L 486 4128 
C 538 3763 550 3328 550 2848 
L 550 1510 
C 550 205 1619 -64 2291 -64 
C 3558 -64 4045 691 4045 1888 
L 4045 2848 
C 4045 3328 4058 3789 4109 4128 
L 4102 4147 
C 4102 4147 3917 4128 3776 4128 
C 3616 4128 3450 4147 3450 4147 
L 3437 4128 
C 3488 3763 3501 3328 3501 2848 
z
" transform="scale(0.015625)"/>
      <path id="LinBiolinumOB-70" d="M 1357 1805 
C 1498 2144 1856 2362 2074 2362 
C 2464 2362 2566 1946 2566 1331 
C 2566 646 2285 256 1926 256 
C 1766 256 1594 288 1357 486 
L 1357 1805 
z
M 1382 2291 
L 1350 2310 
C 1350 2451 1344 2662 1338 2720 
C 1325 2758 1318 2784 1280 2784 
C 1094 2752 678 2752 454 2765 
L 442 2746 
C 486 2470 512 1978 512 1504 
L 512 -205 
C 512 -685 499 -1146 448 -1485 
L 454 -1504 
C 454 -1504 704 -1485 928 -1485 
C 1146 -1485 1408 -1504 1408 -1504 
L 1421 -1485 
C 1363 -1120 1357 -685 1357 -205 
L 1357 115 
C 1568 -19 1805 -64 2042 -64 
C 2848 -64 3475 602 3475 1504 
C 3475 1978 3328 2336 3021 2598 
C 2874 2726 2650 2810 2374 2810 
C 2099 2810 1696 2720 1382 2291 
z
" transform="scale(0.015625)"/>
      <path id="LinBiolinumOB-6c" d="M 550 1280 
C 550 800 525 339 474 0 
L 480 -19 
C 480 -19 749 0 973 0 
C 1190 0 1459 -19 1459 -19 
L 1472 0 
C 1414 365 1395 794 1395 1280 
L 1395 3200 
C 1395 3680 1421 4006 1472 4403 
C 1472 4448 1440 4467 1402 4467 
C 1235 4403 742 4275 486 4256 
L 474 4237 
C 518 3962 550 3520 550 3034 
L 550 1280 
z
" transform="scale(0.015625)"/>
      <path id="LinBiolinumOB-6f" d="M 262 1312 
C 262 461 858 -64 1811 -64 
C 2790 -64 3360 480 3360 1370 
C 3360 2176 2906 2810 1824 2810 
C 909 2810 262 2304 262 1312 
z
M 1779 2490 
C 2323 2490 2451 2086 2451 1197 
C 2451 461 2189 256 1901 256 
C 1235 256 1171 966 1171 1459 
C 1171 2016 1229 2490 1779 2490 
z
" transform="scale(0.015625)"/>
      <path id="LinBiolinumOB-61" d="M 1990 1421 
L 1978 826 
C 1978 742 1926 582 1882 538 
C 1734 390 1587 320 1408 320 
C 1216 320 1075 512 1075 685 
C 1075 915 1152 1197 1478 1286 
L 1990 1421 
z
M 2797 512 
C 2797 698 2822 1702 2822 1773 
C 2822 2157 2739 2394 2566 2554 
C 2362 2733 1978 2810 1670 2810 
C 1210 2810 595 2605 442 2470 
L 422 2445 
L 550 1965 
L 762 1958 
C 979 2278 1261 2464 1549 2464 
C 1830 2464 1990 2304 1990 1811 
C 1990 1766 1971 1741 1952 1734 
L 1203 1536 
C 589 1389 218 1062 218 627 
C 218 186 646 -64 1094 -64 
C 1344 -64 1683 19 1971 307 
L 1984 307 
C 2074 45 2214 -64 2490 -64 
C 2739 -64 3059 0 3251 147 
C 3238 198 3226 250 3187 282 
C 2931 282 2797 301 2797 512 
z
" transform="scale(0.015625)"/>
      <path id="LinBiolinumOB-64" d="M 2387 851 
C 2227 442 2022 307 1766 307 
C 1421 307 1190 614 1190 1414 
C 1190 2278 1466 2490 1779 2490 
C 2080 2490 2317 2266 2387 1939 
L 2387 851 
z
M 2387 346 
L 2400 346 
L 2432 0 
C 2432 -13 2451 -19 2490 -19 
C 2573 -13 2803 0 2893 0 
C 2976 0 3258 -6 3341 -19 
L 3354 0 
C 3302 275 3232 749 3232 1229 
L 3232 3200 
C 3232 3674 3258 4006 3309 4403 
C 3309 4448 3277 4467 3238 4467 
C 3072 4403 2579 4275 2323 4256 
L 2310 4237 
C 2355 3962 2387 3520 2387 3034 
L 2387 2522 
C 2266 2694 1965 2810 1786 2810 
C 1357 2810 1120 2720 832 2509 
C 435 2221 282 1754 282 1299 
C 282 512 762 -64 1472 -64 
C 1875 -64 2214 45 2387 346 
z
" transform="scale(0.015625)"/>
      <path id="LinBiolinumOB-57" d="M 4704 1139 
C 3962 2906 3731 3930 3674 4147 
C 3565 4128 3168 4128 3059 4128 
C 2950 4128 2650 4128 2541 4147 
C 2682 3859 2912 3277 3174 2598 
C 2944 2035 2688 1440 2464 928 
C 1645 2829 1261 3923 1197 4147 
C 1088 4128 851 4128 742 4128 
C 634 4128 205 4128 96 4147 
C 416 3501 1325 1357 1914 -45 
L 2490 -45 
L 3411 1990 
C 3686 1293 3974 557 4224 -45 
L 4666 -45 
C 5280 1376 5907 2733 6554 4147 
C 6477 4128 6272 4128 6202 4128 
C 6131 4128 5952 4128 5875 4147 
C 5683 3392 5146 2157 4704 1139 
z
" transform="scale(0.015625)"/>
      <path id="LinBiolinumOB-69" d="M 544 3885 
C 544 3642 742 3443 998 3443 
C 1254 3443 1453 3642 1453 3885 
C 1453 4128 1254 4326 998 4326 
C 742 4326 544 4128 544 3885 
z
M 576 1504 
L 576 1152 
C 576 672 563 346 512 0 
L 525 -19 
C 653 -6 774 0 998 0 
C 1216 0 1350 -6 1472 -19 
L 1485 0 
C 1434 365 1421 666 1421 1152 
L 1421 1574 
C 1421 2054 1440 2330 1485 2714 
C 1485 2758 1466 2778 1427 2778 
C 1338 2765 1165 2746 986 2746 
C 819 2746 640 2752 531 2765 
L 512 2739 
C 563 2464 576 1984 576 1504 
z
" transform="scale(0.015625)"/>
      <path id="LinBiolinumOB-7a" d="M 1734 2368 
L 269 205 
C 218 128 192 102 134 45 
L 147 -19 
C 147 -19 858 0 1037 0 
L 2483 0 
C 2611 0 2746 -6 2842 -19 
L 2854 0 
C 2848 83 2842 147 2842 205 
C 2842 262 2848 378 2854 429 
L 2842 448 
C 2842 448 2048 384 1280 378 
L 2707 2477 
C 2816 2637 2861 2701 2899 2746 
C 2899 2771 2893 2784 2867 2784 
C 2835 2784 2534 2746 2349 2746 
L 736 2746 
C 608 2746 474 2752 378 2765 
L 365 2746 
C 371 2662 378 2598 378 2541 
C 378 2483 371 2368 365 2317 
L 378 2298 
C 378 2298 1018 2355 1734 2368 
z
" transform="scale(0.015625)"/>
      <path id="LinBiolinumOB-72" d="M 1440 2234 
L 1408 2253 
C 1408 2394 1402 2662 1395 2720 
C 1382 2758 1376 2784 1338 2784 
C 1152 2752 736 2752 512 2765 
L 499 2746 
C 544 2470 570 1978 570 1504 
L 570 1152 
C 570 672 557 346 506 0 
L 512 -19 
C 512 -19 717 0 941 0 
C 1158 0 1466 -19 1466 -19 
L 1478 0 
C 1427 365 1414 666 1414 1152 
L 1414 1619 
C 1414 2112 1850 2189 1952 2189 
C 2074 2189 2208 2157 2323 2067 
L 2438 2080 
L 2566 2739 
L 2541 2765 
C 2432 2797 2330 2810 2214 2810 
C 1914 2810 1606 2483 1440 2234 
z
" transform="scale(0.015625)"/>
      <path id="LinBiolinumOB-20" transform="scale(0.015625)"/>
      <path id="LinBiolinumOB-63" d="M 1901 2490 
C 2144 2490 2336 2304 2477 1952 
L 2656 1958 
L 2810 2579 
L 2797 2598 
C 2598 2701 2163 2810 1843 2810 
C 986 2810 269 2298 269 1293 
C 269 890 397 576 614 346 
C 838 96 1267 -64 1754 -64 
C 2240 -64 2522 38 2810 282 
C 2790 339 2778 429 2778 531 
L 2675 563 
C 2496 346 2182 256 1926 256 
C 1741 256 1485 416 1370 602 
C 1254 787 1178 1088 1178 1459 
C 1178 1760 1222 2003 1331 2182 
C 1453 2381 1670 2490 1901 2490 
z
" transform="scale(0.015625)"/>
      <path id="LinBiolinumOB-6e" d="M 3277 1152 
L 3277 1862 
C 3277 2534 2963 2810 2387 2810 
C 2061 2810 1677 2611 1382 2234 
L 1350 2253 
C 1350 2394 1344 2662 1338 2720 
C 1325 2758 1318 2784 1280 2784 
C 1094 2752 678 2752 454 2765 
L 442 2746 
C 486 2470 512 1978 512 1504 
L 512 1152 
C 512 672 493 339 442 0 
L 454 -19 
C 454 -19 755 0 979 0 
C 1197 0 1376 -19 1376 -19 
L 1395 0 
C 1363 365 1357 666 1357 1152 
L 1357 1805 
C 1600 2125 1869 2317 2099 2317 
C 2272 2317 2432 2189 2432 1722 
L 2432 1152 
C 2432 672 2432 339 2394 0 
L 2406 -19 
C 2406 -19 2611 0 2835 0 
C 3053 0 3334 -19 3334 -19 
L 3347 0 
C 3290 365 3277 666 3277 1152 
z
" transform="scale(0.015625)"/>
      <path id="LinBiolinumOB-74" d="M 576 2746 
C 442 2746 307 2752 230 2758 
C 192 2650 147 2547 90 2451 
L 122 2406 
C 230 2419 429 2419 576 2419 
L 557 1670 
C 544 1286 538 755 538 563 
C 538 262 749 -64 1158 -64 
C 1491 -64 1824 -6 2099 160 
C 2099 262 2061 358 1990 403 
C 1850 333 1786 326 1619 326 
C 1446 326 1382 576 1382 838 
C 1382 1030 1376 1357 1389 1741 
L 1402 2419 
L 1645 2419 
C 1798 2419 2016 2419 2106 2406 
C 2112 2502 2144 2618 2182 2707 
L 2150 2758 
C 2029 2752 1850 2739 1702 2739 
L 1402 2739 
C 1402 3098 1402 3290 1434 3629 
C 1434 3674 1414 3693 1376 3693 
C 1216 3629 870 3462 614 3405 
L 602 3386 
C 576 3219 576 2995 576 2746 
z
" transform="scale(0.015625)"/>
      <path id="LinBiolinumOB-62" d="M 1504 339 
C 1408 403 1389 512 1389 691 
L 1389 2099 
C 1702 2323 1837 2374 1990 2374 
C 2381 2374 2592 2042 2592 1421 
C 2592 1056 2554 762 2451 557 
C 2342 326 2150 256 1965 256 
C 1747 256 1600 282 1504 339 
z
M 1389 3200 
C 1389 3674 1421 4006 1466 4403 
C 1466 4448 1453 4467 1408 4467 
C 1248 4403 742 4275 480 4256 
L 467 4237 
C 518 3962 544 3520 544 3034 
L 544 858 
C 544 608 525 96 493 -38 
C 512 -51 525 -64 563 -70 
C 646 -58 934 70 1024 70 
C 1094 70 1286 26 1389 -13 
C 1491 -58 1779 -64 2003 -64 
C 2342 -64 2688 32 2963 275 
C 3277 538 3501 973 3501 1549 
C 3501 1926 3386 2272 3149 2490 
C 2899 2720 2618 2810 2272 2810 
C 1997 2810 1773 2746 1389 2458 
L 1389 3200 
z
" transform="scale(0.015625)"/>
      <path id="LinBiolinumOB-75" d="M 2381 410 
L 2394 410 
L 2426 0 
C 2426 -13 2445 -19 2483 -19 
C 2566 -13 2758 0 2848 0 
C 2931 0 3238 -6 3322 -19 
L 3334 0 
C 3283 275 3226 749 3226 1229 
L 3226 1594 
C 3226 2074 3226 2406 3283 2746 
L 3277 2765 
C 3277 2765 3008 2746 2784 2746 
C 2566 2746 2349 2765 2349 2765 
L 2336 2746 
C 2381 2387 2381 2080 2381 1594 
L 2381 1082 
C 2381 710 1946 429 1664 429 
C 1472 429 1286 493 1299 1018 
L 1312 1594 
C 1318 2074 1331 2413 1363 2746 
L 1357 2765 
C 1357 2765 1101 2746 877 2746 
C 659 2746 429 2765 429 2765 
L 416 2746 
C 454 2381 474 2054 467 1594 
L 454 806 
C 448 365 672 -64 1306 -64 
C 1568 -64 2022 26 2381 410 
z
" transform="scale(0.015625)"/>
      <path id="LinBiolinumOB-73" d="M 346 723 
L 243 109 
C 589 -19 1011 -64 1242 -64 
C 2074 -64 2426 339 2426 781 
C 2426 1357 1971 1536 1517 1779 
C 1306 1888 1133 2003 1133 2208 
C 1133 2387 1197 2522 1446 2522 
C 1760 2522 1946 2221 2029 2042 
L 2202 2048 
L 2323 2624 
L 2310 2643 
C 2138 2739 1766 2810 1459 2810 
C 883 2810 378 2528 378 2035 
C 378 1587 691 1357 1056 1158 
C 1523 902 1664 787 1664 531 
C 1664 230 1466 218 1222 218 
C 992 218 730 358 538 730 
L 346 723 
z
" transform="scale(0.015625)"/>
      <path id="LinBiolinumOB-79" d="M 128 2765 
C 410 2182 1133 698 1376 51 
L 1446 -70 
C 1242 -544 966 -1037 672 -1523 
C 736 -1504 1018 -1491 1082 -1491 
C 1146 -1491 1331 -1504 1395 -1523 
C 1638 -723 3104 2330 3315 2758 
C 3251 2739 3066 2739 3002 2739 
C 2938 2739 2701 2739 2637 2758 
C 2438 2118 2176 1402 1901 787 
L 1843 794 
C 1549 1453 1306 2106 1088 2758 
C 1005 2739 774 2739 685 2739 
C 602 2739 218 2746 128 2765 
z
" transform="scale(0.015625)"/>
      <path id="LinBiolinumOB-6d" d="M 1382 2234 
L 1350 2253 
C 1350 2394 1344 2662 1338 2720 
C 1325 2758 1318 2784 1280 2784 
C 1094 2752 678 2752 454 2765 
L 442 2746 
C 486 2470 512 1978 512 1504 
L 512 1152 
C 512 672 486 346 435 0 
L 442 -19 
C 442 -19 710 0 934 0 
C 1152 0 1408 -19 1408 -19 
L 1421 0 
C 1370 365 1357 666 1357 1152 
L 1357 1798 
C 1626 2125 1856 2317 2035 2317 
C 2278 2317 2413 2227 2413 1798 
L 2413 1152 
C 2413 672 2387 346 2336 0 
L 2342 -19 
C 2342 -19 2630 0 2854 0 
C 3072 0 3322 -19 3322 -19 
L 3334 0 
C 3283 365 3258 666 3258 1152 
L 3258 1715 
C 3258 1805 3258 1830 3251 1907 
C 3558 2246 3699 2317 3949 2317 
C 4154 2317 4301 2176 4301 1747 
L 4301 1152 
C 4301 672 4275 346 4224 0 
L 4230 -19 
C 4230 -19 4518 0 4742 0 
C 4960 0 5210 -19 5210 -19 
L 5222 0 
C 5171 365 5146 666 5146 1152 
L 5146 1792 
C 5146 2432 4922 2810 4230 2810 
C 3910 2810 3578 2682 3213 2298 
C 3085 2618 2906 2810 2336 2810 
C 2022 2810 1626 2547 1382 2234 
z
" transform="scale(0.015625)"/>
      <path id="LinBiolinumOB-65" d="M 1107 1632 
C 1126 1946 1203 2163 1299 2298 
C 1382 2406 1504 2490 1690 2490 
C 1946 2490 2106 2189 2106 1632 
L 1107 1632 
z
M 2867 685 
C 2566 442 2259 422 1990 422 
C 1677 422 1446 506 1293 672 
C 1152 826 1082 1050 1082 1344 
L 1715 1344 
C 2355 1344 2906 1331 2906 1331 
L 2944 1370 
C 2944 2170 2720 2810 1734 2810 
C 1382 2810 998 2694 742 2490 
C 435 2234 224 1843 224 1318 
C 224 941 358 538 627 269 
C 845 38 1222 -64 1702 -64 
C 2163 -64 2618 83 2970 486 
C 2970 570 2931 685 2867 685 
z
" transform="scale(0.015625)"/>
      <path id="LinBiolinumOB-66" d="M 1421 2426 
L 1664 2426 
C 1818 2426 2035 2419 2125 2413 
C 2131 2509 2163 2618 2202 2714 
L 2170 2765 
C 2048 2752 1869 2746 1722 2746 
L 1421 2746 
L 1421 2810 
C 1421 2970 1376 3283 1376 3424 
C 1376 3776 1568 4026 1914 4026 
C 2099 4026 2272 3885 2323 3706 
L 2515 3712 
C 2534 3891 2605 4224 2662 4358 
L 2656 4378 
C 2605 4410 2374 4467 2176 4467 
C 1690 4467 1306 4301 1037 4026 
C 755 3731 595 3328 595 2938 
L 595 2746 
C 461 2746 326 2752 250 2758 
C 211 2650 166 2547 109 2451 
L 141 2406 
C 250 2419 448 2419 595 2419 
L 595 1274 
C 595 794 595 320 550 -6 
L 557 -26 
C 557 -26 813 -6 1037 -6 
C 1254 -6 1478 -26 1478 -26 
L 1491 -6 
C 1446 365 1446 794 1440 1274 
L 1421 2426 
z
" transform="scale(0.015625)"/>
     </defs>
     <use xlink:href="#LinBiolinumOB-55"/>
     <use xlink:href="#LinBiolinumOB-70" transform="translate(71.899994 0)"/>
     <use xlink:href="#LinBiolinumOB-6c" transform="translate(130.399979 0)"/>
     <use xlink:href="#LinBiolinumOB-6f" transform="translate(160.799973 0)"/>
     <use xlink:href="#LinBiolinumOB-61" transform="translate(217.399963 0)"/>
     <use xlink:href="#LinBiolinumOB-64" transform="translate(268.999954 0)"/>
     <use xlink:href="#LinBiolinumOB-57" transform="translate(328.099945 0)"/>
     <use xlink:href="#LinBiolinumOB-69" transform="translate(432.399933 0)"/>
     <use xlink:href="#LinBiolinumOB-7a" transform="translate(463.59993 0)"/>
     <use xlink:href="#LinBiolinumOB-61" transform="translate(511.999924 0)"/>
     <use xlink:href="#LinBiolinumOB-72" transform="translate(563.599915 0)"/>
     <use xlink:href="#LinBiolinumOB-64" transform="translate(605.699905 0)"/>
     <use xlink:href="#LinBiolinumOB-20" transform="translate(664.799896 0)"/>
     <use xlink:href="#LinBiolinumOB-63" transform="translate(689.799881 0)"/>
     <use xlink:href="#LinBiolinumOB-6f" transform="translate(736.999878 0)"/>
     <use xlink:href="#LinBiolinumOB-6e" transform="translate(793.599869 0)"/>
     <use xlink:href="#LinBiolinumOB-74" transform="translate(853.599854 0)"/>
     <use xlink:href="#LinBiolinumOB-72" transform="translate(888.999847 0)"/>
     <use xlink:href="#LinBiolinumOB-69" transform="translate(931.099838 0)"/>
     <use xlink:href="#LinBiolinumOB-62" transform="translate(962.299835 0)"/>
     <use xlink:href="#LinBiolinumOB-75" transform="translate(1020.899826 0)"/>
     <use xlink:href="#LinBiolinumOB-74" transform="translate(1079.999817 0)"/>
     <use xlink:href="#LinBiolinumOB-6f" transform="translate(1115.399811 0)"/>
     <use xlink:href="#LinBiolinumOB-72" transform="translate(1171.999802 0)"/>
     <use xlink:href="#LinBiolinumOB-73" transform="translate(1214.099792 0)"/>
     <use xlink:href="#LinBiolinumOB-20" transform="translate(1255.999786 0)"/>
     <use xlink:href="#LinBiolinumOB-62" transform="translate(1280.999771 0)"/>
     <use xlink:href="#LinBiolinumOB-79" transform="translate(1339.599762 0)"/>
     <use xlink:href="#LinBiolinumOB-20" transform="translate(1393.499756 0)"/>
     <use xlink:href="#LinBiolinumOB-6e" transform="translate(1418.499741 0)"/>
     <use xlink:href="#LinBiolinumOB-75" transform="translate(1478.499725 0)"/>
     <use xlink:href="#LinBiolinumOB-6d" transform="translate(1537.599716 0)"/>
     <use xlink:href="#LinBiolinumOB-62" transform="translate(1626.799698 0)"/>
     <use xlink:href="#LinBiolinumOB-65" transform="translate(1685.399689 0)"/>
     <use xlink:href="#LinBiolinumOB-72" transform="translate(1736.199677 0)"/>
     <use xlink:href="#LinBiolinumOB-20" transform="translate(1778.299667 0)"/>
     <use xlink:href="#LinBiolinumOB-6f" transform="translate(1803.299652 0)"/>
     <use xlink:href="#LinBiolinumOB-66" transform="translate(1859.899643 0)"/>
     <use xlink:href="#LinBiolinumOB-20" transform="translate(1896.499634 0)"/>
     <use xlink:href="#LinBiolinumOB-75" transform="translate(1921.499619 0)"/>
     <use xlink:href="#LinBiolinumOB-70" transform="translate(1980.599609 0)"/>
     <use xlink:href="#LinBiolinumOB-6c" transform="translate(2039.099594 0)"/>
     <use xlink:href="#LinBiolinumOB-6f" transform="translate(2069.499588 0)"/>
     <use xlink:href="#LinBiolinumOB-61" transform="translate(2126.099579 0)"/>
     <use xlink:href="#LinBiolinumOB-64" transform="translate(2177.69957 0)"/>
     <use xlink:href="#LinBiolinumOB-73" transform="translate(2236.799561 0)"/>
    </g>
   </g>
  </g>
 </g>
 <defs>
  <clipPath id="pa13965d17b">
   <rect x="88.9" y="36.24" width="613.82" height="359.3825"/>
  </clipPath>
 </defs>
</svg>
