<?xml version="1.0" encoding="UTF-8" standalone="no"?>
<svg
   width="720pt"
   height="432pt"
   viewBox="0 0 720 432"
   version="1.1"
   id="svg170"
   sodipodi:docname="uploadwizard_frequency_labeled_darkred.svg"
   inkscape:version="1.4.1 (unknown)"
   xmlns:inkscape="http://www.inkscape.org/namespaces/inkscape"
   xmlns:sodipodi="http://sodipodi.sourceforge.net/DTD/sodipodi-0.dtd"
   xmlns:xlink="http://www.w3.org/1999/xlink"
   xmlns="http://www.w3.org/2000/svg"
   xmlns:svg="http://www.w3.org/2000/svg"
   xmlns:rdf="http://www.w3.org/1999/02/22-rdf-syntax-ns#"
   xmlns:cc="http://creativecommons.org/ns#"
   xmlns:dc="http://purl.org/dc/elements/1.1/">
  <sodipodi:namedview
     id="namedview170"
     pagecolor="#ffffff"
     bordercolor="#666666"
     borderopacity="1.0"
     inkscape:showpageshadow="2"
     inkscape:pageopacity="0.0"
     inkscape:pagecheckerboard="0"
     inkscape:deskcolor="#d1d1d1"
     inkscape:document-units="pt"
     inkscape:zoom="3.2291667"
     inkscape:cx="480"
     inkscape:cy="288"
     inkscape:window-width="3840"
     inkscape:window-height="2088"
     inkscape:window-x="0"
     inkscape:window-y="0"
     inkscape:window-maximized="1"
     inkscape:current-layer="text_17" />
  <metadata
     id="metadata1">
    <rdf:RDF>
      <cc:Work>
        <dc:type
           rdf:resource="http://purl.org/dc/dcmitype/StillImage" />
        <dc:date>2025-04-21T00:43:35.647875</dc:date>
        <dc:format>image/svg+xml</dc:format>
        <dc:creator>
          <cc:Agent>
            <dc:title>Matplotlib v3.6.3, https://matplotlib.org/</dc:title>
          </cc:Agent>
        </dc:creator>
      </cc:Work>
    </rdf:RDF>
  </metadata>
  <defs
     id="defs1">
    <style
       type="text/css"
       id="style1">*{stroke-linejoin: round; stroke-linecap: butt}</style>
  </defs>
  <g
     id="patch_2">
    <path
       d="M 73.835,389.94 H 709.2 V 27.6 H 73.835 Z"
       style="fill:#ffffff"
       id="path2" />
  </g>
  <g
     id="patch_3"
     style="fill:#9e0000;fill-opacity:1">
    <path
       d="m 73.835,373.47 h 571.39298 v -54.9 H 73.835 Z"
       clip-path="url(#p57413fd4f0)"
       style="fill:#9e0000;fill-opacity:1"
       id="path3" />
  </g>
  <g
     id="patch_4"
     style="fill:#9e0000;fill-opacity:1">
    <path
       d="m 73.835,304.845 h 470.56796 v -54.9 H 73.835 Z"
       clip-path="url(#p57413fd4f0)"
       style="fill:#9e0000;fill-opacity:1"
       id="path4" />
  </g>
  <g
     id="patch_5"
     style="fill:#9e0000;fill-opacity:1">
    <path
       d="m 73.835,236.22 h 105.96326 v -54.9 H 73.835 Z"
       clip-path="url(#p57413fd4f0)"
       style="fill:#9e0000;fill-opacity:1"
       id="path5" />
  </g>
  <g
     id="patch_6"
     style="fill:#9e0000;fill-opacity:1">
    <path
       d="m 73.835,167.595 h 14.032263 v -54.9 H 73.835 Z"
       clip-path="url(#p57413fd4f0)"
       style="fill:#9e0000;fill-opacity:1"
       id="path6" />
  </g>
  <g
     id="patch_7"
     style="fill:#9e0000;fill-opacity:1">
    <path
       d="m 73.835,98.97 h 2.700899 V 44.07 H 73.835 Z"
       clip-path="url(#p57413fd4f0)"
       style="fill:#9e0000;fill-opacity:1"
       id="path7" />
  </g>
  <g
     style="fill:#1a1a1a"
     transform="matrix(0.12,0,0,-0.12,320.44094,407.67187)"
     id="g63">
    <defs
       id="defs41">
      <path
         id="DejaVuSans-4e"
         d="m 628,4666 h 850 L 3547,763 v 3903 h 612 V 0 H 3309 L 1241,3903 V 0 H 628 Z"
         transform="scale(0.015625)" />
      <path
         id="DejaVuSans-75"
         d="m 544,1381 v 2119 h 575 V 1403 q 0,-497 193,-746 194,-248 582,-248 465,0 735,297 271,297 271,810 v 1984 h 575 V 0 H 2900 V 538 Q 2691,219 2414,64 2138,-91 1772,-91 1169,-91 856,284 544,659 544,1381 Z m 1447,2203 z"
         transform="scale(0.015625)" />
      <path
         id="DejaVuSans-6d"
         d="m 3328,2828 q 216,388 516,572 300,184 706,184 547,0 844,-383 297,-382 297,-1088 V 0 h -578 v 2094 q 0,503 -179,746 -178,244 -543,244 -447,0 -707,-297 -259,-296 -259,-809 V 0 h -578 v 2094 q 0,506 -178,748 -178,242 -550,242 -441,0 -701,-298 -259,-298 -259,-808 V 0 H 581 v 3500 h 578 v -544 q 197,322 472,475 275,153 653,153 382,0 649,-194 267,-193 395,-562 z"
         transform="scale(0.015625)" />
      <path
         id="DejaVuSans-62"
         d="m 3116,1747 q 0,634 -261,995 -261,361 -717,361 -457,0 -718,-361 -261,-361 -261,-995 0,-634 261,-995 261,-361 718,-361 456,0 717,361 261,361 261,995 z M 1159,2969 q 182,312 458,463 277,152 661,152 638,0 1036,-506 399,-506 399,-1331 Q 3713,922 3314,415 2916,-91 2278,-91 1894,-91 1617,61 1341,213 1159,525 V 0 H 581 v 4863 h 578 z"
         transform="scale(0.015625)" />
      <path
         id="DejaVuSans-65"
         d="M 3597,1894 V 1613 H 953 q 38,-594 358,-905 320,-311 892,-311 331,0 642,81 311,81 618,244 V 178 Q 3153,47 2828,-22 2503,-91 2169,-91 1331,-91 842,396 353,884 353,1716 q 0,859 464,1363 464,505 1252,505 706,0 1117,-455 411,-454 411,-1235 z m -575,169 q -6,471 -264,752 -258,282 -683,282 -481,0 -770,-272 -289,-272 -333,-766 z"
         transform="scale(0.015625)" />
      <path
         id="DejaVuSans-72"
         d="m 2631,2963 q -97,56 -211,82 -114,27 -251,27 -488,0 -749,-317 -261,-317 -261,-911 V 0 H 581 v 3500 h 578 v -544 q 182,319 472,473 291,155 707,155 59,0 131,-8 72,-7 159,-23 z"
         transform="scale(0.015625)" />
      <path
         id="DejaVuSans-20"
         transform="scale(0.015625)"
         d="" />
      <path
         id="DejaVuSans-6f"
         d="m 1959,3097 q -462,0 -731,-361 -269,-361 -269,-989 0,-628 267,-989 268,-361 733,-361 460,0 728,362 269,363 269,988 0,622 -269,986 -268,364 -728,364 z m 0,487 q 750,0 1178,-488 429,-487 429,-1349 Q 3566,888 3137,398 2709,-91 1959,-91 1206,-91 779,398 353,888 353,1747 q 0,862 426,1349 427,488 1180,488 z"
         transform="scale(0.015625)" />
      <path
         id="DejaVuSans-66"
         d="m 2375,4863 v -479 h -550 q -309,0 -430,-125 -120,-125 -120,-450 v -309 h 947 V 3053 H 1275 V 0 H 697 V 3053 H 147 v 447 h 550 v 244 q 0,584 272,851 272,268 862,268 z"
         transform="scale(0.015625)" />
      <path
         id="DejaVuSans-43"
         d="m 4122,4306 v -665 q -319,297 -680,443 -361,147 -767,147 -800,0 -1225,-489 -425,-489 -425,-1414 0,-922 425,-1411 425,-489 1225,-489 406,0 767,147 361,147 680,444 V 359 Q 3791,134 3420,21 3050,-91 2638,-91 1578,-91 968,557 359,1206 359,2328 q 0,1125 609,1773 610,649 1670,649 418,0 788,-111 371,-111 696,-333 z"
         transform="scale(0.015625)" />
      <path
         id="DejaVuSans-6e"
         d="M 3513,2113 V 0 h -575 v 2094 q 0,497 -194,743 -194,247 -581,247 -466,0 -735,-297 -269,-296 -269,-809 V 0 H 581 v 3500 h 578 v -544 q 207,316 486,472 280,156 646,156 603,0 912,-373 310,-373 310,-1098 z"
         transform="scale(0.015625)" />
      <path
         id="DejaVuSans-74"
         d="M 1172,4494 V 3500 H 2356 V 3053 H 1172 V 1153 q 0,-428 117,-550 117,-122 477,-122 h 590 V 0 H 1766 Q 1100,0 847,248 594,497 594,1153 V 3053 H 172 v 447 h 422 v 994 z"
         transform="scale(0.015625)" />
      <path
         id="DejaVuSans-69"
         d="m 603,3500 h 575 V 0 H 603 Z m 0,1363 h 575 V 4134 H 603 Z"
         transform="scale(0.015625)" />
      <path
         id="DejaVuSans-73"
         d="m 2834,3397 v -544 q -243,125 -506,187 -262,63 -544,63 -428,0 -642,-131 -214,-131 -214,-394 0,-200 153,-314 153,-114 616,-217 l 197,-44 q 612,-131 870,-370 258,-239 258,-667 0,-488 -386,-773 Q 2250,-91 1575,-91 1294,-91 989,-36 684,19 347,128 v 594 q 319,-166 628,-249 309,-82 613,-82 406,0 624,139 219,139 219,392 0,234 -158,359 -157,125 -692,241 l -200,47 q -534,112 -772,345 -237,233 -237,639 0,494 350,762 350,269 994,269 318,0 599,-47 282,-46 519,-140 z"
         transform="scale(0.015625)" />
    </defs>
    <use
       xlink:href="#DejaVuSans-4e"
       id="use42" />
    <use
       xlink:href="#DejaVuSans-75"
       x="74.804688"
       id="use43" />
    <use
       xlink:href="#DejaVuSans-6d"
       x="138.18359"
       id="use44" />
    <use
       xlink:href="#DejaVuSans-62"
       x="235.5957"
       id="use45" />
    <use
       xlink:href="#DejaVuSans-65"
       x="299.07227"
       id="use46" />
    <use
       xlink:href="#DejaVuSans-72"
       x="360.5957"
       id="use47" />
    <use
       xlink:href="#DejaVuSans-20"
       x="401.70898"
       id="use48" />
    <use
       xlink:href="#DejaVuSans-6f"
       x="433.49609"
       id="use49" />
    <use
       xlink:href="#DejaVuSans-66"
       x="494.67773"
       id="use50" />
    <use
       xlink:href="#DejaVuSans-20"
       x="529.88281"
       id="use51" />
    <use
       xlink:href="#DejaVuSans-43"
       x="561.66992"
       id="use52" />
    <use
       xlink:href="#DejaVuSans-6f"
       x="631.49414"
       id="use53" />
    <use
       xlink:href="#DejaVuSans-6e"
       x="692.67578"
       id="use54" />
    <use
       xlink:href="#DejaVuSans-74"
       x="756.05469"
       id="use55" />
    <use
       xlink:href="#DejaVuSans-72"
       x="795.26367"
       id="use56" />
    <use
       xlink:href="#DejaVuSans-69"
       x="836.37695"
       id="use57" />
    <use
       xlink:href="#DejaVuSans-62"
       x="864.16016"
       id="use58" />
    <use
       xlink:href="#DejaVuSans-75"
       x="927.63672"
       id="use59" />
    <use
       xlink:href="#DejaVuSans-74"
       x="991.01562"
       id="use60" />
    <use
       xlink:href="#DejaVuSans-6f"
       x="1030.2246"
       id="use61" />
    <use
       xlink:href="#DejaVuSans-72"
       x="1091.4062"
       id="use62" />
    <use
       xlink:href="#DejaVuSans-73"
       x="1132.5195"
       id="use63" />
  </g>
  <g
     id="text_7">
    <!-- 1 -->
    <g
       style="fill:#1a1a1a"
       transform="matrix(0.12,0,0,-0.12,62.7,350.57906)"
       id="g65">
      <defs
         id="defs64">
        <path
           id="DejaVuSans-31"
           d="M 794,531 H 1825 V 4091 L 703,3866 v 575 l 1116,225 h 631 V 531 H 3481 V 0 H 794 Z"
           transform="scale(0.015625)" />
      </defs>
      <use
         xlink:href="#DejaVuSans-31"
         id="use65" />
    </g>
  </g>
  <g
     id="text_8">
    <!-- 2–10 -->
    <g
       style="fill:#1a1a1a"
       transform="matrix(0.12,0,0,-0.12,41.43,281.95406)"
       id="g70">
      <defs
         id="defs66">
        <path
           id="DejaVuSans-2013"
           d="M 313,1978 H 2888 V 1528 H 313 Z"
           transform="scale(0.015625)" />
      </defs>
      <path
         id="use67"
         d="M 19.1875,8.296875 H 53.609375 V 0 H 7.328125 v 8.296875 q 5.609375,5.8125 15.296875,15.59375 9.703125,9.796875 12.1875,12.640625 4.734375,5.3125 6.609375,9 1.890625,3.6875 1.890625,7.25 0,5.8125 -4.078125,9.46875 -4.078125,3.671875 -10.625,3.671875 -4.640625,0 -9.796875,-1.609375 -5.140625,-1.609375 -11,-4.890625 v 9.96875 Q 13.765625,71.78125 18.9375,73 q 5.1875,1.21875 9.484375,1.21875 11.328125,0 18.0625,-5.671875 6.734375,-5.65625 6.734375,-15.125 0,-4.5 -1.6875,-8.53125 Q 49.859375,40.875 45.40625,35.40625 44.1875,33.984375 37.640625,27.21875 31.109375,20.453125 19.1875,8.296875 Z"
         style="stroke-width:0.015625" />
      <use
         xlink:href="#DejaVuSans-2013"
         x="63.623047"
         id="use68" />
      <use
         xlink:href="#DejaVuSans-31"
         x="113.62305"
         id="use69" />
      <path
         id="use70"
         d="m 209.02734,66.40625 q -7.60937,0 -11.45312,-7.5 -3.82813,-7.484375 -3.82813,-22.53125 0,-14.984375 3.82813,-22.484375 3.84375,-7.5 11.45312,-7.5 7.67188,0 11.5,7.5 3.84375,7.5 3.84375,22.484375 0,15.046875 -3.84375,22.53125 -3.82812,7.5 -11.5,7.5 z m 0,7.8125 q 12.26563,0 18.73438,-9.703125 6.46875,-9.6875 6.46875,-28.140625 0,-18.40625 -6.46875,-28.109375 -6.46875,-9.6875 -18.73438,-9.6875 -12.25,0 -18.71875,9.6875 -6.46875,9.703125 -6.46875,28.109375 0,18.453125 6.46875,28.140625 6.46875,9.703125 18.71875,9.703125 z"
         style="stroke-width:0.015625" />
    </g>
  </g>
  <g
     id="text_9">
    <!-- 11–100 -->
    <g
       style="fill:#1a1a1a"
       transform="matrix(0.12,0,0,-0.12,26.16,213.32906)"
       id="g77">
      <use
         xlink:href="#DejaVuSans-31"
         id="use72" />
      <use
         xlink:href="#DejaVuSans-31"
         x="63.623047"
         id="use73" />
      <use
         xlink:href="#DejaVuSans-2013"
         x="127.24609"
         id="use74" />
      <use
         xlink:href="#DejaVuSans-31"
         x="177.24609"
         id="use75" />
      <path
         id="use76"
         d="m 272.65039,66.40625 q -7.60937,0 -11.45312,-7.5 -3.82813,-7.484375 -3.82813,-22.53125 0,-14.984375 3.82813,-22.484375 3.84375,-7.5 11.45312,-7.5 7.67188,0 11.5,7.5 3.84375,7.5 3.84375,22.484375 0,15.046875 -3.84375,22.53125 -3.82812,7.5 -11.5,7.5 z m 0,7.8125 q 12.26563,0 18.73438,-9.703125 6.46875,-9.6875 6.46875,-28.140625 0,-18.40625 -6.46875,-28.109375 -6.46875,-9.6875 -18.73438,-9.6875 -12.25,0 -18.71875,9.6875 -6.46875,9.703125 -6.46875,28.109375 0,18.453125 6.46875,28.140625 6.46875,9.703125 18.71875,9.703125 z"
         style="stroke-width:0.015625" />
      <path
         id="use77"
         d="m 336.27344,66.40625 q -7.60938,0 -11.45313,-7.5 -3.82812,-7.484375 -3.82812,-22.53125 0,-14.984375 3.82812,-22.484375 3.84375,-7.5 11.45313,-7.5 7.67187,0 11.5,7.5 3.84375,7.5 3.84375,22.484375 0,15.046875 -3.84375,22.53125 -3.82813,7.5 -11.5,7.5 z m 0,7.8125 q 12.26562,0 18.73437,-9.703125 6.46875,-9.6875 6.46875,-28.140625 0,-18.40625 -6.46875,-28.109375 -6.46875,-9.6875 -18.73437,-9.6875 -12.25,0 -18.71875,9.6875 -6.46875,9.703125 -6.46875,28.109375 0,18.453125 6.46875,28.140625 6.46875,9.703125 18.71875,9.703125 z"
         style="stroke-width:0.015625" />
    </g>
  </g>
  <g
     id="text_10">
    <!-- 101–1000 -->
    <g
       style="fill:#1a1a1a"
       transform="matrix(0.12,0,0,-0.12,10.89,144.70406)"
       id="g86">
      <use
         xlink:href="#DejaVuSans-31"
         id="use79" />
      <path
         id="use80"
         d="m 95.404297,66.40625 q -7.609375,0 -11.453125,-7.5 -3.828125,-7.484375 -3.828125,-22.53125 0,-14.984375 3.828125,-22.484375 3.84375,-7.5 11.453125,-7.5 7.671873,0 11.500003,7.5 3.84375,7.5 3.84375,22.484375 0,15.046875 -3.84375,22.53125 -3.82813,7.5 -11.500003,7.5 z m 0,7.8125 q 12.265623,0 18.734373,-9.703125 6.46875,-9.6875 6.46875,-28.140625 0,-18.40625 -6.46875,-28.109375 -6.46875,-9.6875 -18.734373,-9.6875 -12.25,0 -18.71875,9.6875 -6.46875,9.703125 -6.46875,28.109375 0,18.453125 6.46875,28.140625 6.46875,9.703125 18.71875,9.703125 z"
         style="stroke-width:0.015625" />
      <use
         xlink:href="#DejaVuSans-31"
         x="127.24609"
         id="use81" />
      <use
         xlink:href="#DejaVuSans-2013"
         x="190.86914"
         id="use82" />
      <use
         xlink:href="#DejaVuSans-31"
         x="240.86914"
         id="use83" />
      <path
         id="use84"
         d="m 336.27344,66.40625 q -7.60938,0 -11.45313,-7.5 -3.82812,-7.484375 -3.82812,-22.53125 0,-14.984375 3.82812,-22.484375 3.84375,-7.5 11.45313,-7.5 7.67187,0 11.5,7.5 3.84375,7.5 3.84375,22.484375 0,15.046875 -3.84375,22.53125 -3.82813,7.5 -11.5,7.5 z m 0,7.8125 q 12.26562,0 18.73437,-9.703125 6.46875,-9.6875 6.46875,-28.140625 0,-18.40625 -6.46875,-28.109375 -6.46875,-9.6875 -18.73437,-9.6875 -12.25,0 -18.71875,9.6875 -6.46875,9.703125 -6.46875,28.109375 0,18.453125 6.46875,28.140625 6.46875,9.703125 18.71875,9.703125 z"
         style="stroke-width:0.015625" />
      <path
         id="use85"
         d="m 399.89648,66.40625 q -7.60937,0 -11.45312,-7.5 -3.82813,-7.484375 -3.82813,-22.53125 0,-14.984375 3.82813,-22.484375 3.84375,-7.5 11.45312,-7.5 7.67188,0 11.5,7.5 3.84375,7.5 3.84375,22.484375 0,15.046875 -3.84375,22.53125 -3.82812,7.5 -11.5,7.5 z m 0,7.8125 q 12.26563,0 18.73438,-9.703125 6.46875,-9.6875 6.46875,-28.140625 0,-18.40625 -6.46875,-28.109375 -6.46875,-9.6875 -18.73438,-9.6875 -12.25,0 -18.71875,9.6875 -6.46875,9.703125 -6.46875,28.109375 0,18.453125 6.46875,28.140625 6.46875,9.703125 18.71875,9.703125 z"
         style="stroke-width:0.015625" />
      <path
         id="use86"
         d="m 463.51953,66.40625 q -7.60937,0 -11.45312,-7.5 -3.82813,-7.484375 -3.82813,-22.53125 0,-14.984375 3.82813,-22.484375 3.84375,-7.5 11.45312,-7.5 7.67188,0 11.5,7.5 3.84375,7.5 3.84375,22.484375 0,15.046875 -3.84375,22.53125 -3.82812,7.5 -11.5,7.5 z m 0,7.8125 q 12.26563,0 18.73438,-9.703125 6.46875,-9.6875 6.46875,-28.140625 0,-18.40625 -6.46875,-28.109375 -6.46875,-9.6875 -18.73438,-9.6875 -12.25,0 -18.71875,9.6875 -6.46875,9.703125 -6.46875,28.109375 0,18.453125 6.46875,28.140625 6.46875,9.703125 18.71875,9.703125 z"
         style="stroke-width:0.015625" />
    </g>
  </g>
  <g
     id="text_11">
    <!-- 1001+ -->
    <g
       style="fill:#1a1a1a"
       transform="matrix(0.12,0,0,-0.12,29.739375,76.079063)"
       id="g92">
      <defs
         id="defs87">
        <path
           id="DejaVuSans-2b"
           d="M 2944,4013 V 2272 H 4684 V 1741 H 2944 V 0 H 2419 V 1741 H 678 v 531 h 1741 v 1741 z"
           transform="scale(0.015625)" />
      </defs>
      <use
         xlink:href="#DejaVuSans-31"
         id="use88" />
      <path
         id="use89"
         d="m 95.404297,66.40625 q -7.609375,0 -11.453125,-7.5 -3.828125,-7.484375 -3.828125,-22.53125 0,-14.984375 3.828125,-22.484375 3.84375,-7.5 11.453125,-7.5 7.671873,0 11.500003,7.5 3.84375,7.5 3.84375,22.484375 0,15.046875 -3.84375,22.53125 -3.82813,7.5 -11.500003,7.5 z m 0,7.8125 q 12.265623,0 18.734373,-9.703125 6.46875,-9.6875 6.46875,-28.140625 0,-18.40625 -6.46875,-28.109375 -6.46875,-9.6875 -18.734373,-9.6875 -12.25,0 -18.71875,9.6875 -6.46875,9.703125 -6.46875,28.109375 0,18.453125 6.46875,28.140625 6.46875,9.703125 18.71875,9.703125 z"
         style="stroke-width:0.015625" />
      <path
         id="use90"
         d="m 159.02734,66.40625 q -7.60937,0 -11.45312,-7.5 -3.82813,-7.484375 -3.82813,-22.53125 0,-14.984375 3.82813,-22.484375 3.84375,-7.5 11.45312,-7.5 7.67188,0 11.5,7.5 3.84375,7.5 3.84375,22.484375 0,15.046875 -3.84375,22.53125 -3.82812,7.5 -11.5,7.5 z m 0,7.8125 q 12.26563,0 18.73438,-9.703125 6.46875,-9.6875 6.46875,-28.140625 0,-18.40625 -6.46875,-28.109375 -6.46875,-9.6875 -18.73438,-9.6875 -12.25,0 -18.71875,9.6875 -6.46875,9.703125 -6.46875,28.109375 0,18.453125 6.46875,28.140625 6.46875,9.703125 18.71875,9.703125 z"
         style="stroke-width:0.015625" />
      <use
         xlink:href="#DejaVuSans-31"
         x="190.86914"
         id="use91" />
      <use
         xlink:href="#DejaVuSans-2b"
         x="254.49219"
         id="use92" />
    </g>
  </g>
  <g
     id="text_12">
    <!-- 893,192 -->
    <g
       style="fill:#333333"
       transform="matrix(0.1,0,0,-0.1,651.62518,348.77938)"
       id="g99">
      <defs
         id="defs93">
        <path
           id="DejaVuSans-39"
           d="m 703,97 v 575 q 238,-113 481,-172 244,-59 479,-59 625,0 954,420 330,420 377,1277 -181,-269 -460,-413 -278,-144 -615,-144 -700,0 -1108,423 -408,424 -408,1159 0,718 425,1152 425,435 1131,435 810,0 1236,-621 427,-620 427,-1801 Q 3622,1225 3098,567 2575,-91 1691,-91 1453,-91 1209,-44 966,3 703,97 Z m 1256,1978 q 425,0 673,290 249,291 249,798 0,503 -249,795 -248,292 -673,292 -425,0 -673,-292 -248,-292 -248,-795 0,-507 248,-798 248,-290 673,-290 z"
           transform="scale(0.015625)" />
        <path
           id="DejaVuSans-33"
           d="m 2597,2516 q 453,-97 707,-404 255,-306 255,-756 0,-690 -475,-1069 -475,-378 -1350,-378 -293,0 -604,58 -311,58 -642,174 v 609 q 262,-153 574,-231 313,-78 654,-78 593,0 904,234 311,234 311,681 0,413 -289,645 -289,233 -804,233 h -544 v 519 h 569 q 465,0 712,186 247,186 247,536 0,359 -255,551 -254,193 -729,193 -260,0 -557,-57 -297,-56 -653,-174 v 562 q 360,100 674,150 314,50 592,50 719,0 1137,-327 419,-326 419,-882 0,-388 -222,-655 -222,-267 -631,-370 z"
           transform="scale(0.015625)" />
      </defs>
      <path
         id="use93"
         d="m 31.78125,34.625 q -7.03125,0 -11.0625,-3.765625 -4.015625,-3.765625 -4.015625,-10.34375 0,-6.59375 4.015625,-10.359375 4.03125,-3.765625 11.0625,-3.765625 7.03125,0 11.078125,3.78125 4.0625,3.796875 4.0625,10.34375 0,6.578125 -4.03125,10.34375 Q 38.875,34.625 31.78125,34.625 Z m -9.859375,4.1875 Q 15.578125,40.375 12.03125,44.71875 8.5,49.078125 8.5,55.328125 q 0,8.734375 6.21875,13.8125 6.234375,5.078125 17.0625,5.078125 10.890625,0 17.09375,-5.078125 6.203125,-5.078125 6.203125,-13.8125 0,-6.25 -3.546875,-10.609375 Q 48,40.375 41.703125,38.8125 q 7.125,-1.65625 11.09375,-6.5 3.984375,-4.828125 3.984375,-11.796875 0,-10.609375 -6.46875,-16.28125 -6.46875,-5.65625 -18.53125,-5.65625 -12.046875,0 -18.53125,5.65625 -6.46875,5.671875 -6.46875,16.28125 0,6.96875 4,11.796875 4.015625,4.84375 11.140625,6.5 z M 18.3125,54.390625 q 0,-5.65625 3.53125,-8.828125 3.546875,-3.171875 9.9375,-3.171875 6.359375,0 9.9375,3.171875 3.59375,3.171875 3.59375,8.828125 0,5.671875 -3.59375,8.84375 -3.578125,3.171875 -9.9375,3.171875 -6.390625,0 -9.9375,-3.171875 Q 18.3125,60.0625 18.3125,54.390625 Z"
         style="stroke-width:0.015625" />
      <use
         xlink:href="#DejaVuSans-39"
         x="63.623047"
         id="use94" />
      <use
         xlink:href="#DejaVuSans-33"
         x="127.24609"
         id="use95" />
      <path
         id="use96"
         d="m 202.58789,12.40625 h 10.29688 V 4 l -8,-15.625 h -6.29688 l 4,15.625 z"
         style="stroke-width:0.015625" />
      <use
         xlink:href="#DejaVuSans-31"
         x="222.65625"
         id="use97" />
      <use
         xlink:href="#DejaVuSans-39"
         x="286.2793"
         id="use98" />
      <path
         id="use99"
         d="m 369.08984,8.296875 h 34.42188 V 0 h -46.28125 v 8.296875 q 5.60937,5.8125 15.29687,15.59375 9.70313,9.796875 12.1875,12.640625 4.73438,5.3125 6.60938,9 1.89062,3.6875 1.89062,7.25 0,5.8125 -4.07812,9.46875 -4.07813,3.671875 -10.625,3.671875 -4.64063,0 -9.79688,-1.609375 -5.14062,-1.609375 -11,-4.890625 v 9.96875 q 5.95313,2.390625 11.125,3.609375 5.1875,1.21875 9.48438,1.21875 11.32812,0 18.0625,-5.671875 6.73437,-5.65625 6.73437,-15.125 0,-4.5 -1.6875,-8.53125 -1.67187,-4.015625 -6.125,-9.484375 -1.21875,-1.421875 -7.76562,-8.1875 -6.53125,-6.765625 -18.45313,-18.921875 z"
         style="stroke-width:0.015625" />
    </g>
  </g>
  <g
     id="text_13">
    <!-- 735,584 -->
    <g
       style="fill:#333333"
       transform="matrix(0.1,0,0,-0.1,550.80016,280.15438)"
       id="g106">
      <defs
         id="defs99">
        <path
           id="DejaVuSans-37"
           d="M 525,4666 H 3525 V 4397 L 1831,0 H 1172 L 2766,4134 H 525 Z"
           transform="scale(0.015625)" />
        <path
           id="DejaVuSans-35"
           d="M 691,4666 H 3169 V 4134 H 1269 V 2991 q 137,47 274,70 138,23 276,23 781,0 1237,-428 457,-428 457,-1159 Q 3513,744 3044,326 2575,-91 1722,-91 1428,-91 1123,-41 819,9 494,109 v 635 q 281,-153 581,-228 300,-75 634,-75 541,0 856,284 316,284 316,772 0,487 -316,771 -315,285 -856,285 -253,0 -505,-56 -251,-56 -513,-175 z"
           transform="scale(0.015625)" />
      </defs>
      <use
         xlink:href="#DejaVuSans-37"
         id="use100" />
      <use
         xlink:href="#DejaVuSans-33"
         x="63.623047"
         id="use101" />
      <use
         xlink:href="#DejaVuSans-35"
         x="127.24609"
         id="use102" />
      <path
         id="use103"
         d="m 202.58789,12.40625 h 10.29688 V 4 l -8,-15.625 h -6.29688 l 4,15.625 z"
         style="stroke-width:0.015625" />
      <use
         xlink:href="#DejaVuSans-35"
         x="222.65625"
         id="use104" />
      <path
         id="use105"
         d="m 318.06055,34.625 q -7.03125,0 -11.0625,-3.765625 -4.01563,-3.765625 -4.01563,-10.34375 0,-6.59375 4.01563,-10.359375 4.03125,-3.765625 11.0625,-3.765625 7.03125,0 11.07812,3.78125 4.0625,3.796875 4.0625,10.34375 0,6.578125 -4.03125,10.34375 Q 325.1543,34.625 318.06055,34.625 Z m -9.85938,4.1875 q -6.34375,1.5625 -9.89062,5.90625 -3.53125,4.359375 -3.53125,10.609375 0,8.734375 6.21875,13.8125 6.23437,5.078125 17.0625,5.078125 10.89062,0 17.09375,-5.078125 6.20312,-5.078125 6.20312,-13.8125 0,-6.25 -3.54687,-10.609375 -3.53125,-4.34375 -9.82813,-5.90625 7.125,-1.65625 11.09375,-6.5 3.98438,-4.828125 3.98438,-11.796875 0,-10.609375 -6.46875,-16.28125 -6.46875,-5.65625 -18.53125,-5.65625 -12.04688,0 -18.53125,5.65625 -6.46875,5.671875 -6.46875,16.28125 0,6.96875 4,11.796875 4.01562,4.84375 11.14062,6.5 z m -3.60937,15.578125 q 0,-5.65625 3.53125,-8.828125 3.54687,-3.171875 9.9375,-3.171875 6.35937,0 9.9375,3.171875 3.59375,3.171875 3.59375,8.828125 0,5.671875 -3.59375,8.84375 -3.57813,3.171875 -9.9375,3.171875 -6.39063,0 -9.9375,-3.171875 -3.53125,-3.171875 -3.53125,-8.84375 z"
         style="stroke-width:0.015625" />
      <path
         id="use106"
         d="M 387.69922,64.3125 362.79297,25.390625 h 24.90625 z m -2.59375,8.59375 h 12.40625 V 25.390625 h 10.40625 V 17.1875 H 397.51172 V 0 h -9.8125 v 17.1875 h -32.90625 v 9.515625 z"
         style="stroke-width:0.015625" />
    </g>
  </g>
  <g
     id="text_14">
    <!-- 165,640 -->
    <g
       style="fill:#333333"
       transform="matrix(0.1,0,0,-0.1,186.19546,211.52937)"
       id="g113">
      <use
         xlink:href="#DejaVuSans-31"
         id="use107" />
      <path
         id="use108"
         d="m 96.638672,40.375 q -6.640625,0 -10.53125,-4.546875 -3.875,-4.53125 -3.875,-12.4375 0,-7.859375 3.875,-12.4375 3.890625,-4.5625 10.53125,-4.5625 6.640628,0 10.515628,4.5625 3.875,4.578125 3.875,12.4375 0,7.90625 -3.875,12.4375 Q 103.2793,40.375 96.638672,40.375 Z M 116.2168,71.296875 V 62.3125 q -3.71875,1.75 -7.5,2.671875 -3.78125,0.9375 -7.5,0.9375 -9.765628,0 -14.921878,-6.59375 -5.140625,-6.59375 -5.875,-19.921875 2.875,4.25 7.21875,6.515625 4.359375,2.265625 9.578125,2.265625 10.984373,0 17.359373,-6.671875 6.375,-6.65625 6.375,-18.125 0,-11.234375 -6.64062,-18.03125 -6.64063,-6.78125 -17.671878,-6.78125 -12.65625,0 -19.34375,9.6875 -6.6875,9.703125 -6.6875,28.109375 0,17.28125 8.203125,27.5625 8.203125,10.28125 22.015623,10.28125 3.71875,0 7.5,-0.734375 3.78125,-0.734375 7.89063,-2.1875 z"
         style="stroke-width:0.015625" />
      <use
         xlink:href="#DejaVuSans-35"
         x="127.24609"
         id="use109" />
      <path
         id="use110"
         d="m 202.58789,12.40625 h 10.29688 V 4 l -8,-15.625 h -6.29688 l 4,15.625 z"
         style="stroke-width:0.015625" />
      <path
         id="use111"
         d="m 255.67187,40.375 q -6.64062,0 -10.53125,-4.546875 -3.875,-4.53125 -3.875,-12.4375 0,-7.859375 3.875,-12.4375 3.89063,-4.5625 10.53125,-4.5625 6.64063,0 10.51563,4.5625 3.875,4.578125 3.875,12.4375 0,7.90625 -3.875,12.4375 Q 262.3125,40.375 255.67187,40.375 Z M 275.25,71.296875 V 62.3125 q -3.71875,1.75 -7.5,2.671875 -3.78125,0.9375 -7.5,0.9375 -9.76563,0 -14.92188,-6.59375 -5.14062,-6.59375 -5.875,-19.921875 2.875,4.25 7.21875,6.515625 4.35938,2.265625 9.57813,2.265625 10.98437,0 17.35937,-6.671875 6.375,-6.65625 6.375,-18.125 0,-11.234375 -6.64062,-18.03125 -6.64063,-6.78125 -17.67188,-6.78125 -12.65625,0 -19.34375,9.6875 -6.6875,9.703125 -6.6875,28.109375 0,17.28125 8.20313,27.5625 8.20312,10.28125 22.01562,10.28125 3.71875,0 7.5,-0.734375 3.78125,-0.734375 7.89063,-2.1875 z"
         style="stroke-width:0.015625" />
      <path
         id="use112"
         d="M 324.07617,64.3125 299.16992,25.390625 h 24.90625 z m -2.59375,8.59375 h 12.40625 V 25.390625 h 10.40625 V 17.1875 H 333.88867 V 0 h -9.8125 v 17.1875 h -32.90625 v 9.515625 z"
         style="stroke-width:0.015625" />
      <path
         id="use113"
         d="m 381.68359,66.40625 q -7.60937,0 -11.45312,-7.5 -3.82813,-7.484375 -3.82813,-22.53125 0,-14.984375 3.82813,-22.484375 3.84375,-7.5 11.45312,-7.5 7.67188,0 11.5,7.5 3.84375,7.5 3.84375,22.484375 0,15.046875 -3.84375,22.53125 -3.82812,7.5 -11.5,7.5 z m 0,7.8125 q 12.26563,0 18.73438,-9.703125 6.46875,-9.6875 6.46875,-28.140625 0,-18.40625 -6.46875,-28.109375 -6.46875,-9.6875 -18.73438,-9.6875 -12.25,0 -18.71875,9.6875 -6.46875,9.703125 -6.46875,28.109375 0,18.453125 6.46875,28.140625 6.46875,9.703125 18.71875,9.703125 z"
         style="stroke-width:0.015625" />
    </g>
  </g>
  <g
     id="text_15">
    <!-- 21,935 -->
    <g
       style="fill:#333333"
       transform="matrix(0.1,0,0,-0.1,94.264465,142.90437)"
       id="g119">
      <path
         id="use114"
         d="M 19.1875,8.296875 H 53.609375 V 0 H 7.328125 v 8.296875 q 5.609375,5.8125 15.296875,15.59375 9.703125,9.796875 12.1875,12.640625 4.734375,5.3125 6.609375,9 1.890625,3.6875 1.890625,7.25 0,5.8125 -4.078125,9.46875 -4.078125,3.671875 -10.625,3.671875 -4.640625,0 -9.796875,-1.609375 -5.140625,-1.609375 -11,-4.890625 v 9.96875 Q 13.765625,71.78125 18.9375,73 q 5.1875,1.21875 9.484375,1.21875 11.328125,0 18.0625,-5.671875 6.734375,-5.65625 6.734375,-15.125 0,-4.5 -1.6875,-8.53125 Q 49.859375,40.875 45.40625,35.40625 44.1875,33.984375 37.640625,27.21875 31.109375,20.453125 19.1875,8.296875 Z"
         style="stroke-width:0.015625" />
      <use
         xlink:href="#DejaVuSans-31"
         x="63.623047"
         id="use115" />
      <path
         id="use116"
         d="m 138.96484,12.40625 h 10.29688 V 4 l -8,-15.625 h -6.29688 l 4,15.625 z"
         style="stroke-width:0.015625" />
      <use
         xlink:href="#DejaVuSans-39"
         x="159.0332"
         id="use117" />
      <use
         xlink:href="#DejaVuSans-33"
         x="222.65625"
         id="use118" />
      <use
         xlink:href="#DejaVuSans-35"
         x="286.2793"
         id="use119" />
    </g>
  </g>
  <g
     id="text_16">
    <!-- 4,222 -->
    <g
       style="fill:#333333"
       transform="matrix(0.1,0,0,-0.1,82.933101,74.279375)"
       id="g124">
      <path
         id="use120"
         d="M 37.796875,64.3125 12.890625,25.390625 h 24.90625 z m -2.59375,8.59375 h 12.40625 V 25.390625 h 10.40625 V 17.1875 H 47.609375 V 0 h -9.8125 V 17.1875 H 4.890625 v 9.515625 z"
         style="stroke-width:0.015625" />
      <path
         id="use121"
         d="M 75.341797,12.40625 H 85.638672 V 4 l -8,-15.625 h -6.296875 l 4,15.625 z"
         style="stroke-width:0.015625" />
      <path
         id="use122"
         d="m 114.59766,8.296875 h 34.42187 V 0 h -46.28125 v 8.296875 q 5.60938,5.8125 15.29688,15.59375 9.70312,9.796875 12.1875,12.640625 4.73437,5.3125 6.60937,9 1.89063,3.6875 1.89063,7.25 0,5.8125 -4.07813,9.46875 -4.07812,3.671875 -10.625,3.671875 -4.64062,0 -9.79687,-1.609375 -5.14063,-1.609375 -11,-4.890625 v 9.96875 q 5.95312,2.390625 11.125,3.609375 5.1875,1.21875 9.48437,1.21875 11.32813,0 18.0625,-5.671875 6.73438,-5.65625 6.73438,-15.125 0,-4.5 -1.6875,-8.53125 -1.67188,-4.015625 -6.125,-9.484375 -1.21875,-1.421875 -7.76563,-8.1875 -6.53125,-6.765625 -18.45312,-18.921875 z"
         style="stroke-width:0.015625" />
      <path
         id="use123"
         d="m 178.2207,8.296875 h 34.42188 V 0 h -46.28125 v 8.296875 q 5.60937,5.8125 15.29687,15.59375 9.70313,9.796875 12.1875,12.640625 4.73438,5.3125 6.60938,9 1.89062,3.6875 1.89062,7.25 0,5.8125 -4.07812,9.46875 -4.07813,3.671875 -10.625,3.671875 -4.64063,0 -9.79688,-1.609375 -5.14062,-1.609375 -11,-4.890625 v 9.96875 q 5.95313,2.390625 11.125,3.609375 5.1875,1.21875 9.48438,1.21875 11.32812,0 18.0625,-5.671875 6.73437,-5.65625 6.73437,-15.125 0,-4.5 -1.6875,-8.53125 -1.67187,-4.015625 -6.125,-9.484375 -1.21875,-1.421875 -7.76562,-8.1875 -6.53125,-6.765625 -18.45313,-18.921875 z"
         style="stroke-width:0.015625" />
      <path
         id="use124"
         d="m 241.84375,8.296875 h 34.42187 V 0 h -46.28125 v 8.296875 q 5.60938,5.8125 15.29688,15.59375 9.70312,9.796875 12.1875,12.640625 4.73437,5.3125 6.60937,9 1.89063,3.6875 1.89063,7.25 0,5.8125 -4.07813,9.46875 -4.07812,3.671875 -10.625,3.671875 -4.64062,0 -9.79687,-1.609375 -5.14063,-1.609375 -11,-4.890625 v 9.96875 q 5.95312,2.390625 11.125,3.609375 5.1875,1.21875 9.48437,1.21875 11.32813,0 18.0625,-5.671875 6.73438,-5.65625 6.73438,-15.125 0,-4.5 -1.6875,-8.53125 -1.67188,-4.015625 -6.125,-9.484375 -1.21875,-1.421875 -7.76563,-8.1875 -6.53125,-6.765625 -18.45312,-18.921875 z"
         style="stroke-width:0.015625" />
    </g>
  </g>
  <g
     id="text_17">
    <!-- UploadWizard Contributors by Number of Uploads -->
    <text
       xml:space="preserve"
       style="font-size:11px;line-height:1.25;font-family:'DejaVu Sans';-inkscape-font-specification:'DejaVu Sans';text-align:center;text-anchor:middle;stroke-width:0.75"
       x="381.36774"
       y="23.690321"
       id="text170"><tspan
         sodipodi:role="line"
         id="tspan170"
         style="font-style:normal;font-variant:normal;font-weight:bold;font-stretch:normal;font-family:'Linux biolinum o';-inkscape-font-specification:'Linux biolinum o';stroke-width:0.75"
         x="381.36774"
         y="23.690321">UploadWizard contributors by number of uploads</tspan></text>
  </g>
  <defs
     id="defs170">
    <clipPath
       id="p57413fd4f0">
      <rect
         x="73.835"
         y="27.6"
         width="635.365"
         height="362.34"
         id="rect170" />
    </clipPath>
  </defs>
</svg>
