<?xml version="1.0" encoding="utf-8" standalone="no"?>
<!DOCTYPE svg PUBLIC "-//W3C//DTD SVG 1.1//EN"
  "http://www.w3.org/Graphics/SVG/1.1/DTD/svg11.dtd">
<svg xmlns:xlink="http://www.w3.org/1999/xlink" width="1152pt" height="432pt" viewBox="0 0 1152 432" xmlns="http://www.w3.org/2000/svg" version="1.1">
 <metadata>
  <rdf:RDF xmlns:dc="http://purl.org/dc/elements/1.1/" xmlns:cc="http://creativecommons.org/ns#" xmlns:rdf="http://www.w3.org/1999/02/22-rdf-syntax-ns#">
   <cc:Work>
    <dc:type rdf:resource="http://purl.org/dc/dcmitype/StillImage"/>
    <dc:date>2025-04-22T09:04:20.087786</dc:date>
    <dc:format>image/svg+xml</dc:format>
    <dc:creator>
     <cc:Agent>
      <dc:title>Matplotlib v3.10.1, https://matplotlib.org/</dc:title>
     </cc:Agent>
    </dc:creator>
   </cc:Work>
  </rdf:RDF>
 </metadata>
 <defs>
  <style type="text/css">*{stroke-linejoin: round; stroke-linecap: butt}</style>
 </defs>
 <g id="figure_1">
  <g id="patch_1">
   <path d="M 0 432 
L 1152 432 
L 1152 0 
L 0 0 
z
" style="fill: #ffffff"/>
  </g>
  <g id="axes_1">
   <g id="patch_2">
    <path d="M 72.7 392.6225 
L 1134.72 392.6225 
L 1134.72 35.91375 
L 72.7 35.91375 
z
" style="fill: #ffffff"/>
   </g>
   <g id="patch_3">
    <path d="M 88.109854 392.6225 
L 92.95572 392.6225 
L 92.95572 392.617509 
L 88.109854 392.617509 
z
" clip-path="url(#p8351eb1e42)" style="fill: #9e0000"/>
   </g>
   <g id="patch_4">
    <path d="M 93.924893 392.6225 
L 98.770759 392.6225 
L 98.770759 391.977583 
L 93.924893 391.977583 
z
" clip-path="url(#p8351eb1e42)" style="fill: #9e0000"/>
   </g>
   <g id="patch_5">
    <path d="M 99.933767 392.6225 
L 104.779633 392.6225 
L 104.779633 392.221576 
L 99.933767 392.221576 
z
" clip-path="url(#p8351eb1e42)" style="fill: #9e0000"/>
   </g>
   <g id="patch_6">
    <path d="M 105.942641 392.6225 
L 110.788507 392.6225 
L 110.788507 392.54043 
L 105.942641 392.54043 
z
" clip-path="url(#p8351eb1e42)" style="fill: #9e0000"/>
   </g>
   <g id="patch_7">
    <path d="M 111.370011 392.6225 
L 116.215877 392.6225 
L 116.215877 392.520467 
L 111.370011 392.520467 
z
" clip-path="url(#p8351eb1e42)" style="fill: #9e0000"/>
   </g>
   <g id="patch_8">
    <path d="M 117.378885 392.6225 
L 122.224751 392.6225 
L 122.224751 391.711964 
L 117.378885 391.711964 
z
" clip-path="url(#p8351eb1e42)" style="fill: #9e0000"/>
   </g>
   <g id="patch_9">
    <path d="M 123.193924 392.6225 
L 128.03979 392.6225 
L 128.03979 388.347638 
L 123.193924 388.347638 
z
" clip-path="url(#p8351eb1e42)" style="fill: #9e0000"/>
   </g>
   <g id="patch_10">
    <path d="M 129.202798 392.6225 
L 134.048664 392.6225 
L 134.048664 382.363163 
L 129.202798 382.363163 
z
" clip-path="url(#p8351eb1e42)" style="fill: #9e0000"/>
   </g>
   <g id="patch_11">
    <path d="M 135.017837 392.6225 
L 139.863703 392.6225 
L 139.863703 380.196065 
L 135.017837 380.196065 
z
" clip-path="url(#p8351eb1e42)" style="fill: #9e0000"/>
   </g>
   <g id="patch_12">
    <path d="M 141.026711 392.6225 
L 145.872577 392.6225 
L 145.872577 379.439133 
L 141.026711 379.439133 
z
" clip-path="url(#p8351eb1e42)" style="fill: #9e0000"/>
   </g>
   <g id="patch_13">
    <path d="M 147.035585 392.6225 
L 151.881451 392.6225 
L 151.881451 346.852805 
L 147.035585 346.852805 
z
" clip-path="url(#p8351eb1e42)" style="fill: #9e0000"/>
   </g>
   <g id="patch_14">
    <path d="M 152.850624 392.6225 
L 157.69649 392.6225 
L 157.69649 374.638023 
L 152.850624 374.638023 
z
" clip-path="url(#p8351eb1e42)" style="fill: #9e0000"/>
   </g>
   <g id="patch_15">
    <path d="M 158.859498 392.6225 
L 163.705364 392.6225 
L 163.705364 372.598466 
L 158.859498 372.598466 
z
" clip-path="url(#p8351eb1e42)" style="fill: #9e0000"/>
   </g>
   <g id="patch_16">
    <path d="M 164.674537 392.6225 
L 169.520403 392.6225 
L 169.520403 376.198467 
L 164.674537 376.198467 
z
" clip-path="url(#p8351eb1e42)" style="fill: #9e0000"/>
   </g>
   <g id="patch_17">
    <path d="M 170.683411 392.6225 
L 175.529277 392.6225 
L 175.529277 375.383864 
L 170.683411 375.383864 
z
" clip-path="url(#p8351eb1e42)" style="fill: #9e0000"/>
   </g>
   <g id="patch_18">
    <path d="M 176.692285 392.6225 
L 181.538151 392.6225 
L 181.538151 375.066674 
L 176.692285 375.066674 
z
" clip-path="url(#p8351eb1e42)" style="fill: #9e0000"/>
   </g>
   <g id="patch_19">
    <path d="M 182.31349 392.6225 
L 187.159356 392.6225 
L 187.159356 374.225454 
L 182.31349 374.225454 
z
" clip-path="url(#p8351eb1e42)" style="fill: #9e0000"/>
   </g>
   <g id="patch_20">
    <path d="M 188.322364 392.6225 
L 193.16823 392.6225 
L 193.16823 372.722126 
L 188.322364 372.722126 
z
" clip-path="url(#p8351eb1e42)" style="fill: #9e0000"/>
   </g>
   <g id="patch_21">
    <path d="M 194.137403 392.6225 
L 198.983269 392.6225 
L 198.983269 372.990518 
L 194.137403 372.990518 
z
" clip-path="url(#p8351eb1e42)" style="fill: #9e0000"/>
   </g>
   <g id="patch_22">
    <path d="M 200.146277 392.6225 
L 204.992143 392.6225 
L 204.992143 372.570185 
L 200.146277 372.570185 
z
" clip-path="url(#p8351eb1e42)" style="fill: #9e0000"/>
   </g>
   <g id="patch_23">
    <path d="M 205.961316 392.6225 
L 210.807182 392.6225 
L 210.807182 370.113623 
L 205.961316 370.113623 
z
" clip-path="url(#p8351eb1e42)" style="fill: #9e0000"/>
   </g>
   <g id="patch_24">
    <path d="M 211.97019 392.6225 
L 216.816056 392.6225 
L 216.816056 359.470552 
L 211.97019 359.470552 
z
" clip-path="url(#p8351eb1e42)" style="fill: #9e0000"/>
   </g>
   <g id="patch_25">
    <path d="M 217.979064 392.6225 
L 222.82493 392.6225 
L 222.82493 157.679754 
L 217.979064 157.679754 
z
" clip-path="url(#p8351eb1e42)" style="fill: #9e0000"/>
   </g>
   <g id="patch_26">
    <path d="M 223.794103 392.6225 
L 228.639969 392.6225 
L 228.639969 310.436347 
L 223.794103 310.436347 
z
" clip-path="url(#p8351eb1e42)" style="fill: #9e0000"/>
   </g>
   <g id="patch_27">
    <path d="M 229.802977 392.6225 
L 234.648843 392.6225 
L 234.648843 324.590139 
L 229.802977 324.590139 
z
" clip-path="url(#p8351eb1e42)" style="fill: #9e0000"/>
   </g>
   <g id="patch_28">
    <path d="M 235.618016 392.6225 
L 240.463882 392.6225 
L 240.463882 329.104003 
L 235.618016 329.104003 
z
" clip-path="url(#p8351eb1e42)" style="fill: #9e0000"/>
   </g>
   <g id="patch_29">
    <path d="M 241.62689 392.6225 
L 246.472756 392.6225 
L 246.472756 323.189399 
L 241.62689 323.189399 
z
" clip-path="url(#p8351eb1e42)" style="fill: #9e0000"/>
   </g>
   <g id="patch_30">
    <path d="M 247.635764 392.6225 
L 252.48163 392.6225 
L 252.48163 325.800675 
L 247.635764 325.800675 
z
" clip-path="url(#p8351eb1e42)" style="fill: #9e0000"/>
   </g>
   <g id="patch_31">
    <path d="M 253.063134 392.6225 
L 257.909 392.6225 
L 257.909 319.796238 
L 253.063134 319.796238 
z
" clip-path="url(#p8351eb1e42)" style="fill: #9e0000"/>
   </g>
   <g id="patch_32">
    <path d="M 259.072008 392.6225 
L 263.917874 392.6225 
L 263.917874 312.19143 
L 259.072008 312.19143 
z
" clip-path="url(#p8351eb1e42)" style="fill: #9e0000"/>
   </g>
   <g id="patch_33">
    <path d="M 264.887047 392.6225 
L 269.732913 392.6225 
L 269.732913 298.110281 
L 264.887047 298.110281 
z
" clip-path="url(#p8351eb1e42)" style="fill: #9e0000"/>
   </g>
   <g id="patch_34">
    <path d="M 270.895921 392.6225 
L 275.741787 392.6225 
L 275.741787 307.86666 
L 270.895921 307.86666 
z
" clip-path="url(#p8351eb1e42)" style="fill: #9e0000"/>
   </g>
   <g id="patch_35">
    <path d="M 276.71096 392.6225 
L 281.556826 392.6225 
L 281.556826 301.436899 
L 276.71096 301.436899 
z
" clip-path="url(#p8351eb1e42)" style="fill: #9e0000"/>
   </g>
   <g id="patch_36">
    <path d="M 282.719834 392.6225 
L 287.5657 392.6225 
L 287.5657 296.384588 
L 282.719834 296.384588 
z
" clip-path="url(#p8351eb1e42)" style="fill: #9e0000"/>
   </g>
   <g id="patch_37">
    <path d="M 288.728708 392.6225 
L 293.574574 392.6225 
L 293.574574 132.698233 
L 288.728708 132.698233 
z
" clip-path="url(#p8351eb1e42)" style="fill: #9e0000"/>
   </g>
   <g id="patch_38">
    <path d="M 294.543747 392.6225 
L 299.389613 392.6225 
L 299.389613 300.138193 
L 294.543747 300.138193 
z
" clip-path="url(#p8351eb1e42)" style="fill: #9e0000"/>
   </g>
   <g id="patch_39">
    <path d="M 300.552621 392.6225 
L 305.398487 392.6225 
L 305.398487 310.093648 
L 300.552621 310.093648 
z
" clip-path="url(#p8351eb1e42)" style="fill: #9e0000"/>
   </g>
   <g id="patch_40">
    <path d="M 306.36766 392.6225 
L 311.213526 392.6225 
L 311.213526 308.955755 
L 306.36766 308.955755 
z
" clip-path="url(#p8351eb1e42)" style="fill: #9e0000"/>
   </g>
   <g id="patch_41">
    <path d="M 312.376534 392.6225 
L 317.2224 392.6225 
L 317.2224 302.632463 
L 312.376534 302.632463 
z
" clip-path="url(#p8351eb1e42)" style="fill: #9e0000"/>
   </g>
   <g id="patch_42">
    <path d="M 318.385408 392.6225 
L 323.231274 392.6225 
L 323.231274 305.874793 
L 318.385408 305.874793 
z
" clip-path="url(#p8351eb1e42)" style="fill: #9e0000"/>
   </g>
   <g id="patch_43">
    <path d="M 323.812778 392.6225 
L 328.658644 392.6225 
L 328.658644 290.889762 
L 323.812778 290.889762 
z
" clip-path="url(#p8351eb1e42)" style="fill: #9e0000"/>
   </g>
   <g id="patch_44">
    <path d="M 329.821652 392.6225 
L 334.667518 392.6225 
L 334.667518 294.108247 
L 329.821652 294.108247 
z
" clip-path="url(#p8351eb1e42)" style="fill: #9e0000"/>
   </g>
   <g id="patch_45">
    <path d="M 335.636691 392.6225 
L 340.482557 392.6225 
L 340.482557 259.376447 
L 335.636691 259.376447 
z
" clip-path="url(#p8351eb1e42)" style="fill: #9e0000"/>
   </g>
   <g id="patch_46">
    <path d="M 341.645565 392.6225 
L 346.491431 392.6225 
L 346.491431 293.000853 
L 341.645565 293.000853 
z
" clip-path="url(#p8351eb1e42)" style="fill: #9e0000"/>
   </g>
   <g id="patch_47">
    <path d="M 347.460604 392.6225 
L 352.30647 392.6225 
L 352.30647 295.573867 
L 347.460604 295.573867 
z
" clip-path="url(#p8351eb1e42)" style="fill: #9e0000"/>
   </g>
   <g id="patch_48">
    <path d="M 353.469478 392.6225 
L 358.315344 392.6225 
L 358.315344 283.472386 
L 353.469478 283.472386 
z
" clip-path="url(#p8351eb1e42)" style="fill: #9e0000"/>
   </g>
   <g id="patch_49">
    <path d="M 359.478352 392.6225 
L 364.324218 392.6225 
L 364.324218 162.628923 
L 359.478352 162.628923 
z
" clip-path="url(#p8351eb1e42)" style="fill: #9e0000"/>
   </g>
   <g id="patch_50">
    <path d="M 365.293391 392.6225 
L 370.139257 392.6225 
L 370.139257 242.347978 
L 365.293391 242.347978 
z
" clip-path="url(#p8351eb1e42)" style="fill: #9e0000"/>
   </g>
   <g id="patch_51">
    <path d="M 371.302265 392.6225 
L 376.148131 392.6225 
L 376.148131 290.366287 
L 371.302265 290.366287 
z
" clip-path="url(#p8351eb1e42)" style="fill: #9e0000"/>
   </g>
   <g id="patch_52">
    <path d="M 377.117304 392.6225 
L 381.96317 392.6225 
L 381.96317 300.596788 
L 377.117304 300.596788 
z
" clip-path="url(#p8351eb1e42)" style="fill: #9e0000"/>
   </g>
   <g id="patch_53">
    <path d="M 383.126178 392.6225 
L 387.972044 392.6225 
L 387.972044 299.028581 
L 383.126178 299.028581 
z
" clip-path="url(#p8351eb1e42)" style="fill: #9e0000"/>
   </g>
   <g id="patch_54">
    <path d="M 389.135052 392.6225 
L 393.980918 392.6225 
L 393.980918 296.012499 
L 389.135052 296.012499 
z
" clip-path="url(#p8351eb1e42)" style="fill: #9e0000"/>
   </g>
   <g id="patch_55">
    <path d="M 394.562422 392.6225 
L 399.408288 392.6225 
L 399.408288 278.78939 
L 394.562422 278.78939 
z
" clip-path="url(#p8351eb1e42)" style="fill: #9e0000"/>
   </g>
   <g id="patch_56">
    <path d="M 400.571296 392.6225 
L 405.417162 392.6225 
L 405.417162 287.341333 
L 400.571296 287.341333 
z
" clip-path="url(#p8351eb1e42)" style="fill: #9e0000"/>
   </g>
   <g id="patch_57">
    <path d="M 406.386335 392.6225 
L 411.232201 392.6225 
L 411.232201 222.643353 
L 406.386335 222.643353 
z
" clip-path="url(#p8351eb1e42)" style="fill: #9e0000"/>
   </g>
   <g id="patch_58">
    <path d="M 412.395209 392.6225 
L 417.241075 392.6225 
L 417.241075 271.235045 
L 412.395209 271.235045 
z
" clip-path="url(#p8351eb1e42)" style="fill: #9e0000"/>
   </g>
   <g id="patch_59">
    <path d="M 418.210248 392.6225 
L 423.056114 392.6225 
L 423.056114 278.299741 
L 418.210248 278.299741 
z
" clip-path="url(#p8351eb1e42)" style="fill: #9e0000"/>
   </g>
   <g id="patch_60">
    <path d="M 424.219122 392.6225 
L 429.064988 392.6225 
L 429.064988 271.415267 
L 424.219122 271.415267 
z
" clip-path="url(#p8351eb1e42)" style="fill: #9e0000"/>
   </g>
   <g id="patch_61">
    <path d="M 430.227996 392.6225 
L 435.073862 392.6225 
L 435.073862 173.977354 
L 430.227996 173.977354 
z
" clip-path="url(#p8351eb1e42)" style="fill: #9e0000"/>
   </g>
   <g id="patch_62">
    <path d="M 436.043035 392.6225 
L 440.888901 392.6225 
L 440.888901 270.415451 
L 436.043035 270.415451 
z
" clip-path="url(#p8351eb1e42)" style="fill: #9e0000"/>
   </g>
   <g id="patch_63">
    <path d="M 442.051909 392.6225 
L 446.897775 392.6225 
L 446.897775 292.385881 
L 442.051909 292.385881 
z
" clip-path="url(#p8351eb1e42)" style="fill: #9e0000"/>
   </g>
   <g id="patch_64">
    <path d="M 447.866948 392.6225 
L 452.712814 392.6225 
L 452.712814 301.582186 
L 447.866948 301.582186 
z
" clip-path="url(#p8351eb1e42)" style="fill: #9e0000"/>
   </g>
   <g id="patch_65">
    <path d="M 453.875822 392.6225 
L 458.721688 392.6225 
L 458.721688 302.721188 
L 453.875822 302.721188 
z
" clip-path="url(#p8351eb1e42)" style="fill: #9e0000"/>
   </g>
   <g id="patch_66">
    <path d="M 459.884696 392.6225 
L 464.730562 392.6225 
L 464.730562 306.967215 
L 459.884696 306.967215 
z
" clip-path="url(#p8351eb1e42)" style="fill: #9e0000"/>
   </g>
   <g id="patch_67">
    <path d="M 465.505901 392.6225 
L 470.351767 392.6225 
L 470.351767 293.885881 
L 465.505901 293.885881 
z
" clip-path="url(#p8351eb1e42)" style="fill: #9e0000"/>
   </g>
   <g id="patch_68">
    <path d="M 471.514775 392.6225 
L 476.360641 392.6225 
L 476.360641 286.048726 
L 471.514775 286.048726 
z
" clip-path="url(#p8351eb1e42)" style="fill: #9e0000"/>
   </g>
   <g id="patch_69">
    <path d="M 477.329814 392.6225 
L 482.17568 392.6225 
L 482.17568 246.128755 
L 477.329814 246.128755 
z
" clip-path="url(#p8351eb1e42)" style="fill: #9e0000"/>
   </g>
   <g id="patch_70">
    <path d="M 483.338688 392.6225 
L 488.184554 392.6225 
L 488.184554 264.050016 
L 483.338688 264.050016 
z
" clip-path="url(#p8351eb1e42)" style="fill: #9e0000"/>
   </g>
   <g id="patch_71">
    <path d="M 489.153727 392.6225 
L 493.999593 392.6225 
L 493.999593 283.43246 
L 489.153727 283.43246 
z
" clip-path="url(#p8351eb1e42)" style="fill: #9e0000"/>
   </g>
   <g id="patch_72">
    <path d="M 495.162601 392.6225 
L 500.008467 392.6225 
L 500.008467 270.805285 
L 495.162601 270.805285 
z
" clip-path="url(#p8351eb1e42)" style="fill: #9e0000"/>
   </g>
   <g id="patch_73">
    <path d="M 501.171475 392.6225 
L 506.017341 392.6225 
L 506.017341 147.918939 
L 501.171475 147.918939 
z
" clip-path="url(#p8351eb1e42)" style="fill: #9e0000"/>
   </g>
   <g id="patch_74">
    <path d="M 506.986514 392.6225 
L 511.83238 392.6225 
L 511.83238 275.946321 
L 506.986514 275.946321 
z
" clip-path="url(#p8351eb1e42)" style="fill: #9e0000"/>
   </g>
   <g id="patch_75">
    <path d="M 512.995388 392.6225 
L 517.841254 392.6225 
L 517.841254 294.707138 
L 512.995388 294.707138 
z
" clip-path="url(#p8351eb1e42)" style="fill: #9e0000"/>
   </g>
   <g id="patch_76">
    <path d="M 518.810427 392.6225 
L 523.656293 392.6225 
L 523.656293 292.629874 
L 518.810427 292.629874 
z
" clip-path="url(#p8351eb1e42)" style="fill: #9e0000"/>
   </g>
   <g id="patch_77">
    <path d="M 524.819301 392.6225 
L 529.665167 392.6225 
L 529.665167 287.39124 
L 524.819301 287.39124 
z
" clip-path="url(#p8351eb1e42)" style="fill: #9e0000"/>
   </g>
   <g id="patch_78">
    <path d="M 530.828175 392.6225 
L 535.674041 392.6225 
L 535.674041 295.345401 
L 530.828175 295.345401 
z
" clip-path="url(#p8351eb1e42)" style="fill: #9e0000"/>
   </g>
   <g id="patch_79">
    <path d="M 536.255545 392.6225 
L 541.101411 392.6225 
L 541.101411 280.708614 
L 536.255545 280.708614 
z
" clip-path="url(#p8351eb1e42)" style="fill: #9e0000"/>
   </g>
   <g id="patch_80">
    <path d="M 542.264419 392.6225 
L 547.110285 392.6225 
L 547.110285 270.638927 
L 542.264419 270.638927 
z
" clip-path="url(#p8351eb1e42)" style="fill: #9e0000"/>
   </g>
   <g id="patch_81">
    <path d="M 548.079458 392.6225 
L 552.925324 392.6225 
L 552.925324 224.156108 
L 548.079458 224.156108 
z
" clip-path="url(#p8351eb1e42)" style="fill: #9e0000"/>
   </g>
   <g id="patch_82">
    <path d="M 554.088332 392.6225 
L 558.934198 392.6225 
L 558.934198 247.296593 
L 554.088332 247.296593 
z
" clip-path="url(#p8351eb1e42)" style="fill: #9e0000"/>
   </g>
   <g id="patch_83">
    <path d="M 559.903371 392.6225 
L 564.749237 392.6225 
L 564.749237 275.25316 
L 559.903371 275.25316 
z
" clip-path="url(#p8351eb1e42)" style="fill: #9e0000"/>
   </g>
   <g id="patch_84">
    <path d="M 565.912245 392.6225 
L 570.758111 392.6225 
L 570.758111 258.648906 
L 565.912245 258.648906 
z
" clip-path="url(#p8351eb1e42)" style="fill: #9e0000"/>
   </g>
   <g id="patch_85">
    <path d="M 571.921119 392.6225 
L 576.766985 392.6225 
L 576.766985 149.267553 
L 571.921119 149.267553 
z
" clip-path="url(#p8351eb1e42)" style="fill: #9e0000"/>
   </g>
   <g id="patch_86">
    <path d="M 577.736158 392.6225 
L 582.582024 392.6225 
L 582.582024 262.236707 
L 577.736158 262.236707 
z
" clip-path="url(#p8351eb1e42)" style="fill: #9e0000"/>
   </g>
   <g id="patch_87">
    <path d="M 583.745032 392.6225 
L 588.590898 392.6225 
L 588.590898 269.080701 
L 583.745032 269.080701 
z
" clip-path="url(#p8351eb1e42)" style="fill: #9e0000"/>
   </g>
   <g id="patch_88">
    <path d="M 589.560071 392.6225 
L 594.405937 392.6225 
L 594.405937 283.41416 
L 589.560071 283.41416 
z
" clip-path="url(#p8351eb1e42)" style="fill: #9e0000"/>
   </g>
   <g id="patch_89">
    <path d="M 595.568945 392.6225 
L 600.414811 392.6225 
L 600.414811 280.074788 
L 595.568945 280.074788 
z
" clip-path="url(#p8351eb1e42)" style="fill: #9e0000"/>
   </g>
   <g id="patch_90">
    <path d="M 601.577819 392.6225 
L 606.423685 392.6225 
L 606.423685 275.004177 
L 601.577819 275.004177 
z
" clip-path="url(#p8351eb1e42)" style="fill: #9e0000"/>
   </g>
   <g id="patch_91">
    <path d="M 607.005189 392.6225 
L 611.851055 392.6225 
L 611.851055 270.03449 
L 607.005189 270.03449 
z
" clip-path="url(#p8351eb1e42)" style="fill: #9e0000"/>
   </g>
   <g id="patch_92">
    <path d="M 613.014063 392.6225 
L 617.859929 392.6225 
L 617.859929 266.117854 
L 613.014063 266.117854 
z
" clip-path="url(#p8351eb1e42)" style="fill: #9e0000"/>
   </g>
   <g id="patch_93">
    <path d="M 618.829102 392.6225 
L 623.674968 392.6225 
L 623.674968 218.517105 
L 618.829102 218.517105 
z
" clip-path="url(#p8351eb1e42)" style="fill: #9e0000"/>
   </g>
   <g id="patch_94">
    <path d="M 624.837976 392.6225 
L 629.683842 392.6225 
L 629.683842 257.594746 
L 624.837976 257.594746 
z
" clip-path="url(#p8351eb1e42)" style="fill: #9e0000"/>
   </g>
   <g id="patch_95">
    <path d="M 630.653015 392.6225 
L 635.498881 392.6225 
L 635.498881 262.23338 
L 630.653015 262.23338 
z
" clip-path="url(#p8351eb1e42)" style="fill: #9e0000"/>
   </g>
   <g id="patch_96">
    <path d="M 636.661889 392.6225 
L 641.507755 392.6225 
L 641.507755 260.357963 
L 636.661889 260.357963 
z
" clip-path="url(#p8351eb1e42)" style="fill: #9e0000"/>
   </g>
   <g id="patch_97">
    <path d="M 642.670763 392.6225 
L 647.516629 392.6225 
L 647.516629 140.523743 
L 642.670763 140.523743 
z
" clip-path="url(#p8351eb1e42)" style="fill: #9e0000"/>
   </g>
   <g id="patch_98">
    <path d="M 648.485802 392.6225 
L 653.331668 392.6225 
L 653.331668 244.426906 
L 648.485802 244.426906 
z
" clip-path="url(#p8351eb1e42)" style="fill: #9e0000"/>
   </g>
   <g id="patch_99">
    <path d="M 654.494676 392.6225 
L 659.340542 392.6225 
L 659.340542 278.214344 
L 654.494676 278.214344 
z
" clip-path="url(#p8351eb1e42)" style="fill: #9e0000"/>
   </g>
   <g id="patch_100">
    <path d="M 660.309715 392.6225 
L 665.155581 392.6225 
L 665.155581 277.169612 
L 660.309715 277.169612 
z
" clip-path="url(#p8351eb1e42)" style="fill: #9e0000"/>
   </g>
   <g id="patch_101">
    <path d="M 666.318589 392.6225 
L 671.164455 392.6225 
L 671.164455 271.691977 
L 666.318589 271.691977 
z
" clip-path="url(#p8351eb1e42)" style="fill: #9e0000"/>
   </g>
   <g id="patch_102">
    <path d="M 672.327463 392.6225 
L 677.173329 392.6225 
L 677.173329 259.128018 
L 672.327463 259.128018 
z
" clip-path="url(#p8351eb1e42)" style="fill: #9e0000"/>
   </g>
   <g id="patch_103">
    <path d="M 677.754833 392.6225 
L 682.600699 392.6225 
L 682.600699 253.147426 
L 677.754833 253.147426 
z
" clip-path="url(#p8351eb1e42)" style="fill: #9e0000"/>
   </g>
   <g id="patch_104">
    <path d="M 683.763707 392.6225 
L 688.609573 392.6225 
L 688.609573 266.497151 
L 683.763707 266.497151 
z
" clip-path="url(#p8351eb1e42)" style="fill: #9e0000"/>
   </g>
   <g id="patch_105">
    <path d="M 689.578746 392.6225 
L 694.424612 392.6225 
L 694.424612 218.59363 
L 689.578746 218.59363 
z
" clip-path="url(#p8351eb1e42)" style="fill: #9e0000"/>
   </g>
   <g id="patch_106">
    <path d="M 695.58762 392.6225 
L 700.433486 392.6225 
L 700.433486 250.850568 
L 695.58762 250.850568 
z
" clip-path="url(#p8351eb1e42)" style="fill: #9e0000"/>
   </g>
   <g id="patch_107">
    <path d="M 701.402659 392.6225 
L 706.248525 392.6225 
L 706.248525 255.493082 
L 701.402659 255.493082 
z
" clip-path="url(#p8351eb1e42)" style="fill: #9e0000"/>
   </g>
   <g id="patch_108">
    <path d="M 707.411533 392.6225 
L 712.257399 392.6225 
L 712.257399 258.776447 
L 707.411533 258.776447 
z
" clip-path="url(#p8351eb1e42)" style="fill: #9e0000"/>
   </g>
   <g id="patch_109">
    <path d="M 713.420407 392.6225 
L 718.266273 392.6225 
L 718.266273 152.455539 
L 713.420407 152.455539 
z
" clip-path="url(#p8351eb1e42)" style="fill: #9e0000"/>
   </g>
   <g id="patch_110">
    <path d="M 719.235446 392.6225 
L 724.081312 392.6225 
L 724.081312 257.641327 
L 719.235446 257.641327 
z
" clip-path="url(#p8351eb1e42)" style="fill: #9e0000"/>
   </g>
   <g id="patch_111">
    <path d="M 725.24432 392.6225 
L 730.090186 392.6225 
L 730.090186 267.405469 
L 725.24432 267.405469 
z
" clip-path="url(#p8351eb1e42)" style="fill: #9e0000"/>
   </g>
   <g id="patch_112">
    <path d="M 731.059359 392.6225 
L 735.905225 392.6225 
L 735.905225 260.473305 
L 731.059359 260.473305 
z
" clip-path="url(#p8351eb1e42)" style="fill: #9e0000"/>
   </g>
   <g id="patch_113">
    <path d="M 737.068233 392.6225 
L 741.914099 392.6225 
L 741.914099 253.325984 
L 737.068233 253.325984 
z
" clip-path="url(#p8351eb1e42)" style="fill: #9e0000"/>
   </g>
   <g id="patch_114">
    <path d="M 743.077107 392.6225 
L 747.922973 392.6225 
L 747.922973 242.526536 
L 743.077107 242.526536 
z
" clip-path="url(#p8351eb1e42)" style="fill: #9e0000"/>
   </g>
   <g id="patch_115">
    <path d="M 748.698312 392.6225 
L 753.544178 392.6225 
L 753.544178 240.964983 
L 748.698312 240.964983 
z
" clip-path="url(#p8351eb1e42)" style="fill: #9e0000"/>
   </g>
   <g id="patch_116">
    <path d="M 754.707186 392.6225 
L 759.553052 392.6225 
L 759.553052 239.83319 
L 754.707186 239.83319 
z
" clip-path="url(#p8351eb1e42)" style="fill: #9e0000"/>
   </g>
   <g id="patch_117">
    <path d="M 760.522225 392.6225 
L 765.368091 392.6225 
L 765.368091 217.608232 
L 760.522225 217.608232 
z
" clip-path="url(#p8351eb1e42)" style="fill: #9e0000"/>
   </g>
   <g id="patch_118">
    <path d="M 766.531099 392.6225 
L 771.376965 392.6225 
L 771.376965 242.838736 
L 766.531099 242.838736 
z
" clip-path="url(#p8351eb1e42)" style="fill: #9e0000"/>
   </g>
   <g id="patch_119">
    <path d="M 772.346138 392.6225 
L 777.192004 392.6225 
L 777.192004 235.122468 
L 772.346138 235.122468 
z
" clip-path="url(#p8351eb1e42)" style="fill: #9e0000"/>
   </g>
   <g id="patch_120">
    <path d="M 778.355012 392.6225 
L 783.200878 392.6225 
L 783.200878 243.824688 
L 778.355012 243.824688 
z
" clip-path="url(#p8351eb1e42)" style="fill: #9e0000"/>
   </g>
   <g id="patch_121">
    <path d="M 784.363886 392.6225 
L 789.209752 392.6225 
L 789.209752 167.526521 
L 784.363886 167.526521 
z
" clip-path="url(#p8351eb1e42)" style="fill: #9e0000"/>
   </g>
   <g id="patch_122">
    <path d="M 790.178925 392.6225 
L 795.024791 392.6225 
L 795.024791 214.754072 
L 790.178925 214.754072 
z
" clip-path="url(#p8351eb1e42)" style="fill: #9e0000"/>
   </g>
   <g id="patch_123">
    <path d="M 796.187799 392.6225 
L 801.033665 392.6225 
L 801.033665 248.840955 
L 796.187799 248.840955 
z
" clip-path="url(#p8351eb1e42)" style="fill: #9e0000"/>
   </g>
   <g id="patch_124">
    <path d="M 802.002838 392.6225 
L 806.848704 392.6225 
L 806.848704 254.73726 
L 802.002838 254.73726 
z
" clip-path="url(#p8351eb1e42)" style="fill: #9e0000"/>
   </g>
   <g id="patch_125">
    <path d="M 808.011712 392.6225 
L 812.857578 392.6225 
L 812.857578 234.056664 
L 808.011712 234.056664 
z
" clip-path="url(#p8351eb1e42)" style="fill: #9e0000"/>
   </g>
   <g id="patch_126">
    <path d="M 814.020586 392.6225 
L 818.866452 392.6225 
L 818.866452 253.16628 
L 814.020586 253.16628 
z
" clip-path="url(#p8351eb1e42)" style="fill: #9e0000"/>
   </g>
   <g id="patch_127">
    <path d="M 819.447956 392.6225 
L 824.293822 392.6225 
L 824.293822 227.019694 
L 819.447956 227.019694 
z
" clip-path="url(#p8351eb1e42)" style="fill: #9e0000"/>
   </g>
   <g id="patch_128">
    <path d="M 825.45683 392.6225 
L 830.302696 392.6225 
L 830.302696 212.459987 
L 825.45683 212.459987 
z
" clip-path="url(#p8351eb1e42)" style="fill: #9e0000"/>
   </g>
   <g id="patch_129">
    <path d="M 831.271869 392.6225 
L 836.117735 392.6225 
L 836.117735 216.559064 
L 831.271869 216.559064 
z
" clip-path="url(#p8351eb1e42)" style="fill: #9e0000"/>
   </g>
   <g id="patch_130">
    <path d="M 837.280743 392.6225 
L 842.126609 392.6225 
L 842.126609 211.480135 
L 837.280743 211.480135 
z
" clip-path="url(#p8351eb1e42)" style="fill: #9e0000"/>
   </g>
   <g id="patch_131">
    <path d="M 843.095782 392.6225 
L 847.941648 392.6225 
L 847.941648 237.550195 
L 843.095782 237.550195 
z
" clip-path="url(#p8351eb1e42)" style="fill: #9e0000"/>
   </g>
   <g id="patch_132">
    <path d="M 849.104656 392.6225 
L 853.950522 392.6225 
L 853.950522 221.634665 
L 849.104656 221.634665 
z
" clip-path="url(#p8351eb1e42)" style="fill: #9e0000"/>
   </g>
   <g id="patch_133">
    <path d="M 855.11353 392.6225 
L 859.959396 392.6225 
L 859.959396 172.877724 
L 855.11353 172.877724 
z
" clip-path="url(#p8351eb1e42)" style="fill: #9e0000"/>
   </g>
   <g id="patch_134">
    <path d="M 860.928569 392.6225 
L 865.774435 392.6225 
L 865.774435 219.221911 
L 860.928569 219.221911 
z
" clip-path="url(#p8351eb1e42)" style="fill: #9e0000"/>
   </g>
   <g id="patch_135">
    <path d="M 866.937443 392.6225 
L 871.783309 392.6225 
L 871.783309 247.408053 
L 866.937443 247.408053 
z
" clip-path="url(#p8351eb1e42)" style="fill: #9e0000"/>
   </g>
   <g id="patch_136">
    <path d="M 872.752482 392.6225 
L 877.598348 392.6225 
L 877.598348 253.339293 
L 872.752482 253.339293 
z
" clip-path="url(#p8351eb1e42)" style="fill: #9e0000"/>
   </g>
   <g id="patch_137">
    <path d="M 878.761356 392.6225 
L 883.607222 392.6225 
L 883.607222 226.212855 
L 878.761356 226.212855 
z
" clip-path="url(#p8351eb1e42)" style="fill: #9e0000"/>
   </g>
   <g id="patch_138">
    <path d="M 884.77023 392.6225 
L 889.616096 392.6225 
L 889.616096 245.426167 
L 884.77023 245.426167 
z
" clip-path="url(#p8351eb1e42)" style="fill: #9e0000"/>
   </g>
   <g id="patch_139">
    <path d="M 890.1976 392.6225 
L 895.043466 392.6225 
L 895.043466 228.880138 
L 890.1976 228.880138 
z
" clip-path="url(#p8351eb1e42)" style="fill: #9e0000"/>
   </g>
   <g id="patch_140">
    <path d="M 896.206474 392.6225 
L 901.05234 392.6225 
L 901.05234 233.310823 
L 896.206474 233.310823 
z
" clip-path="url(#p8351eb1e42)" style="fill: #9e0000"/>
   </g>
   <g id="patch_141">
    <path d="M 902.021513 392.6225 
L 906.867379 392.6225 
L 906.867379 208.89714 
L 902.021513 208.89714 
z
" clip-path="url(#p8351eb1e42)" style="fill: #9e0000"/>
   </g>
   <g id="patch_142">
    <path d="M 908.030387 392.6225 
L 912.876253 392.6225 
L 912.876253 214.502871 
L 908.030387 214.502871 
z
" clip-path="url(#p8351eb1e42)" style="fill: #9e0000"/>
   </g>
   <g id="patch_143">
    <path d="M 913.845426 392.6225 
L 918.691292 392.6225 
L 918.691292 213.620061 
L 913.845426 213.620061 
z
" clip-path="url(#p8351eb1e42)" style="fill: #9e0000"/>
   </g>
   <g id="patch_144">
    <path d="M 919.8543 392.6225 
L 924.700166 392.6225 
L 924.700166 221.255922 
L 919.8543 221.255922 
z
" clip-path="url(#p8351eb1e42)" style="fill: #9e0000"/>
   </g>
   <g id="patch_145">
    <path d="M 925.863174 392.6225 
L 930.70904 392.6225 
L 930.70904 180.917282 
L 925.863174 180.917282 
z
" clip-path="url(#p8351eb1e42)" style="fill: #9e0000"/>
   </g>
   <g id="patch_146">
    <path d="M 931.678213 392.6225 
L 936.524079 392.6225 
L 936.524079 216.213592 
L 931.678213 216.213592 
z
" clip-path="url(#p8351eb1e42)" style="fill: #9e0000"/>
   </g>
   <g id="patch_147">
    <path d="M 937.687087 392.6225 
L 942.532953 392.6225 
L 942.532953 217.875515 
L 937.687087 217.875515 
z
" clip-path="url(#p8351eb1e42)" style="fill: #9e0000"/>
   </g>
   <g id="patch_148">
    <path d="M 943.502126 392.6225 
L 948.347992 392.6225 
L 948.347992 216.208601 
L 943.502126 216.208601 
z
" clip-path="url(#p8351eb1e42)" style="fill: #9e0000"/>
   </g>
   <g id="patch_149">
    <path d="M 949.511 392.6225 
L 954.356866 392.6225 
L 954.356866 231.636146 
L 949.511 231.636146 
z
" clip-path="url(#p8351eb1e42)" style="fill: #9e0000"/>
   </g>
   <g id="patch_150">
    <path d="M 955.519874 392.6225 
L 960.36574 392.6225 
L 960.36574 224.986237 
L 955.519874 224.986237 
z
" clip-path="url(#p8351eb1e42)" style="fill: #9e0000"/>
   </g>
   <g id="patch_151">
    <path d="M 960.947244 392.6225 
L 965.79311 392.6225 
L 965.79311 198.842979 
L 960.947244 198.842979 
z
" clip-path="url(#p8351eb1e42)" style="fill: #9e0000"/>
   </g>
   <g id="patch_152">
    <path d="M 966.956118 392.6225 
L 971.801984 392.6225 
L 971.801984 194.723939 
L 966.956118 194.723939 
z
" clip-path="url(#p8351eb1e42)" style="fill: #9e0000"/>
   </g>
   <g id="patch_153">
    <path d="M 972.771157 392.6225 
L 977.617023 392.6225 
L 977.617023 195.144272 
L 972.771157 195.144272 
z
" clip-path="url(#p8351eb1e42)" style="fill: #9e0000"/>
   </g>
   <g id="patch_154">
    <path d="M 978.780031 392.6225 
L 983.625897 392.6225 
L 983.625897 183.242976 
L 978.780031 183.242976 
z
" clip-path="url(#p8351eb1e42)" style="fill: #9e0000"/>
   </g>
   <g id="patch_155">
    <path d="M 984.59507 392.6225 
L 989.440936 392.6225 
L 989.440936 153.310622 
L 984.59507 153.310622 
z
" clip-path="url(#p8351eb1e42)" style="fill: #9e0000"/>
   </g>
   <g id="patch_156">
    <path d="M 990.603944 392.6225 
L 995.44981 392.6225 
L 995.44981 165.871253 
L 990.603944 165.871253 
z
" clip-path="url(#p8351eb1e42)" style="fill: #9e0000"/>
   </g>
   <g id="patch_157">
    <path d="M 996.612818 392.6225 
L 1001.458684 392.6225 
L 1001.458684 96.698226 
L 996.612818 96.698226 
z
" clip-path="url(#p8351eb1e42)" style="fill: #9e0000"/>
   </g>
   <g id="patch_158">
    <path d="M 1002.427857 392.6225 
L 1007.273723 392.6225 
L 1007.273723 116.576973 
L 1002.427857 116.576973 
z
" clip-path="url(#p8351eb1e42)" style="fill: #9e0000"/>
   </g>
   <g id="patch_159">
    <path d="M 1008.436731 392.6225 
L 1013.282597 392.6225 
L 1013.282597 182.809889 
L 1008.436731 182.809889 
z
" clip-path="url(#p8351eb1e42)" style="fill: #9e0000"/>
   </g>
   <g id="patch_160">
    <path d="M 1014.25177 392.6225 
L 1019.097636 392.6225 
L 1019.097636 202.340392 
L 1014.25177 202.340392 
z
" clip-path="url(#p8351eb1e42)" style="fill: #9e0000"/>
   </g>
   <g id="patch_161">
    <path d="M 1020.260644 392.6225 
L 1025.10651 392.6225 
L 1025.10651 175.192327 
L 1020.260644 175.192327 
z
" clip-path="url(#p8351eb1e42)" style="fill: #9e0000"/>
   </g>
   <g id="patch_162">
    <path d="M 1026.269518 392.6225 
L 1031.115384 392.6225 
L 1031.115384 184.838909 
L 1026.269518 184.838909 
z
" clip-path="url(#p8351eb1e42)" style="fill: #9e0000"/>
   </g>
   <g id="patch_163">
    <path d="M 1031.890723 392.6225 
L 1036.736589 392.6225 
L 1036.736589 150.460899 
L 1031.890723 150.460899 
z
" clip-path="url(#p8351eb1e42)" style="fill: #9e0000"/>
   </g>
   <g id="patch_164">
    <path d="M 1037.899597 392.6225 
L 1042.745463 392.6225 
L 1042.745463 157.304338 
L 1037.899597 157.304338 
z
" clip-path="url(#p8351eb1e42)" style="fill: #9e0000"/>
   </g>
   <g id="patch_165">
    <path d="M 1043.714636 392.6225 
L 1048.560502 392.6225 
L 1048.560502 158.781048 
L 1043.714636 158.781048 
z
" clip-path="url(#p8351eb1e42)" style="fill: #9e0000"/>
   </g>
   <g id="patch_166">
    <path d="M 1049.72351 392.6225 
L 1054.569376 392.6225 
L 1054.569376 89.423918 
L 1049.72351 89.423918 
z
" clip-path="url(#p8351eb1e42)" style="fill: #9e0000"/>
   </g>
   <g id="patch_167">
    <path d="M 1055.538549 392.6225 
L 1060.384415 392.6225 
L 1060.384415 130.370876 
L 1055.538549 130.370876 
z
" clip-path="url(#p8351eb1e42)" style="fill: #9e0000"/>
   </g>
   <g id="patch_168">
    <path d="M 1061.547423 392.6225 
L 1066.393289 392.6225 
L 1066.393289 156.420974 
L 1061.547423 156.420974 
z
" clip-path="url(#p8351eb1e42)" style="fill: #9e0000"/>
   </g>
   <g id="patch_169">
    <path d="M 1067.556297 392.6225 
L 1072.402163 392.6225 
L 1072.402163 52.899881 
L 1067.556297 52.899881 
z
" clip-path="url(#p8351eb1e42)" style="fill: #9e0000"/>
   </g>
   <g id="patch_170">
    <path d="M 1073.371336 392.6225 
L 1078.217202 392.6225 
L 1078.217202 128.486033 
L 1073.371336 128.486033 
z
" clip-path="url(#p8351eb1e42)" style="fill: #9e0000"/>
   </g>
   <g id="patch_171">
    <path d="M 1079.38021 392.6225 
L 1084.226076 392.6225 
L 1084.226076 211.973111 
L 1079.38021 211.973111 
z
" clip-path="url(#p8351eb1e42)" style="fill: #9e0000"/>
   </g>
   <g id="patch_172">
    <path d="M 1085.195249 392.6225 
L 1090.041115 392.6225 
L 1090.041115 176.297503 
L 1085.195249 176.297503 
z
" clip-path="url(#p8351eb1e42)" style="fill: #9e0000"/>
   </g>
   <g id="patch_173">
    <path d="M 1091.204123 392.6225 
L 1096.049989 392.6225 
L 1096.049989 216.287344 
L 1091.204123 216.287344 
z
" clip-path="url(#p8351eb1e42)" style="fill: #9e0000"/>
   </g>
   <g id="patch_174">
    <path d="M 1097.212997 392.6225 
L 1102.058863 392.6225 
L 1102.058863 171.175875 
L 1097.212997 171.175875 
z
" clip-path="url(#p8351eb1e42)" style="fill: #9e0000"/>
   </g>
   <g id="patch_175">
    <path d="M 1102.640367 392.6225 
L 1107.486233 392.6225 
L 1107.486233 129.690469 
L 1102.640367 129.690469 
z
" clip-path="url(#p8351eb1e42)" style="fill: #9e0000"/>
   </g>
   <g id="patch_176">
    <path d="M 1108.649241 392.6225 
L 1113.495107 392.6225 
L 1113.495107 207.441502 
L 1108.649241 207.441502 
z
" clip-path="url(#p8351eb1e42)" style="fill: #9e0000"/>
   </g>
   <g id="matplotlib.axis_1">
    <g id="xtick_1">
     <g id="line2d_1">
      <path d="M 102.3567 392.6225 
L 102.3567 35.91375 
" clip-path="url(#p8351eb1e42)" style="fill: none; stroke: #b0b0b0; stroke-opacity: 0.5; stroke-width: 0.8; stroke-linecap: square"/>
     </g>
     <g id="line2d_2">
      <defs>
       <path id="m87eafb16e7" d="M 0 0 
L 0 3.5 
" style="stroke: #000000; stroke-width: 0.8"/>
      </defs>
      <g>
       <use xlink:href="#m87eafb16e7" x="102.3567" y="392.6225" style="stroke: #000000; stroke-width: 0.8"/>
      </g>
     </g>
     <g id="text_1">
      <!-- 2011 -->
      <g transform="translate(87.4767 410.79) scale(0.16 -0.16)">
       <defs>
        <path id="LinBiolinumO-32" d="M 1421 3539 
C 1754 3539 2093 3232 2093 2778 
C 2093 2515 2016 2176 1850 1926 
C 1395 1242 659 595 346 301 
C 339 275 333 250 333 218 
C 333 122 365 19 397 -32 
C 870 -19 1146 0 1613 0 
C 2074 0 2266 -13 2720 -32 
C 2714 32 2701 109 2701 179 
C 2701 282 2707 378 2733 480 
C 2374 448 2176 429 1562 429 
C 1338 429 1216 429 1037 416 
C 1037 422 1030 435 1030 448 
C 1030 506 1101 570 1146 621 
C 1459 922 1760 1210 2182 1779 
C 2419 2093 2643 2502 2643 2867 
C 2643 3475 2234 3904 1523 3904 
C 941 3904 563 3578 422 3386 
L 557 2944 
L 640 2938 
C 730 3130 762 3258 928 3392 
C 1056 3494 1242 3539 1421 3539 
z
" transform="scale(0.015625)"/>
        <path id="LinBiolinumO-30" d="M 1491 3654 
C 1600 3654 1702 3616 1773 3552 
C 1971 3386 2144 2886 2144 2029 
C 2144 1440 2125 1107 2035 781 
C 1894 250 1581 186 1466 186 
C 870 186 800 1280 800 1837 
C 800 3418 1197 3654 1491 3654 
z
M 1459 -64 
C 1952 -64 2694 480 2694 1978 
C 2694 2976 2330 3469 2099 3680 
C 1926 3840 1722 3904 1491 3904 
C 851 3904 250 3110 250 1850 
C 250 813 666 -64 1459 -64 
z
" transform="scale(0.015625)"/>
        <path id="LinBiolinumO-31" d="M 2086 1210 
L 2086 2835 
C 2086 3526 2125 3782 2138 3872 
C 2138 3904 2118 3904 2093 3904 
C 1677 3770 1190 3520 691 3366 
L 730 3181 
C 1018 3213 1331 3283 1459 3283 
C 1574 3283 1574 3027 1574 2797 
L 1574 1210 
C 1574 710 1568 365 1523 0 
L 1530 -19 
C 1530 -19 1709 0 1824 0 
C 1952 0 2131 -19 2131 -19 
L 2144 0 
C 2099 384 2086 704 2086 1210 
z
" transform="scale(0.015625)"/>
       </defs>
       <use xlink:href="#LinBiolinumO-32"/>
       <use xlink:href="#LinBiolinumO-30" transform="translate(46.499985 0)"/>
       <use xlink:href="#LinBiolinumO-31" transform="translate(92.999969 0)"/>
       <use xlink:href="#LinBiolinumO-31" transform="translate(139.499954 0)"/>
      </g>
     </g>
    </g>
    <g id="xtick_2">
     <g id="line2d_3">
      <path d="M 173.106344 392.6225 
L 173.106344 35.91375 
" clip-path="url(#p8351eb1e42)" style="fill: none; stroke: #b0b0b0; stroke-opacity: 0.5; stroke-width: 0.8; stroke-linecap: square"/>
     </g>
     <g id="line2d_4">
      <g>
       <use xlink:href="#m87eafb16e7" x="173.106344" y="392.6225" style="stroke: #000000; stroke-width: 0.8"/>
      </g>
     </g>
     <g id="text_2">
      <!-- 2012 -->
      <g transform="translate(158.226344 410.79) scale(0.16 -0.16)">
       <use xlink:href="#LinBiolinumO-32"/>
       <use xlink:href="#LinBiolinumO-30" transform="translate(46.499985 0)"/>
       <use xlink:href="#LinBiolinumO-31" transform="translate(92.999969 0)"/>
       <use xlink:href="#LinBiolinumO-32" transform="translate(139.499954 0)"/>
      </g>
     </g>
    </g>
    <g id="xtick_3">
     <g id="line2d_5">
      <path d="M 244.049823 392.6225 
L 244.049823 35.91375 
" clip-path="url(#p8351eb1e42)" style="fill: none; stroke: #b0b0b0; stroke-opacity: 0.5; stroke-width: 0.8; stroke-linecap: square"/>
     </g>
     <g id="line2d_6">
      <g>
       <use xlink:href="#m87eafb16e7" x="244.049823" y="392.6225" style="stroke: #000000; stroke-width: 0.8"/>
      </g>
     </g>
     <g id="text_3">
      <!-- 2013 -->
      <g transform="translate(229.169823 410.79) scale(0.16 -0.16)">
       <defs>
        <path id="LinBiolinumO-33" d="M 1338 186 
C 832 186 762 378 589 749 
L 493 742 
L 352 262 
L 371 243 
C 538 102 813 -64 1325 -64 
C 1869 -64 2726 307 2726 1152 
C 2726 1658 2336 2016 1843 2061 
L 1843 2093 
C 2176 2170 2598 2541 2598 3072 
C 2598 3533 2202 3904 1568 3904 
C 1075 3904 717 3686 557 3546 
L 538 3526 
L 672 3117 
L 768 3110 
C 922 3469 1126 3654 1510 3654 
C 1760 3654 2042 3392 2042 2976 
C 2042 2694 1946 2490 1798 2349 
C 1670 2227 1485 2170 1267 2170 
C 1190 2170 1120 2176 1030 2189 
L 1030 1907 
C 1107 1920 1242 1920 1299 1920 
C 1504 1920 1747 1862 1926 1715 
C 2093 1574 2176 1350 2176 1101 
C 2176 326 1568 186 1338 186 
z
" transform="scale(0.015625)"/>
       </defs>
       <use xlink:href="#LinBiolinumO-32"/>
       <use xlink:href="#LinBiolinumO-30" transform="translate(46.499985 0)"/>
       <use xlink:href="#LinBiolinumO-31" transform="translate(92.999969 0)"/>
       <use xlink:href="#LinBiolinumO-33" transform="translate(139.499954 0)"/>
      </g>
     </g>
    </g>
    <g id="xtick_4">
     <g id="line2d_7">
      <path d="M 314.799467 392.6225 
L 314.799467 35.91375 
" clip-path="url(#p8351eb1e42)" style="fill: none; stroke: #b0b0b0; stroke-opacity: 0.5; stroke-width: 0.8; stroke-linecap: square"/>
     </g>
     <g id="line2d_8">
      <g>
       <use xlink:href="#m87eafb16e7" x="314.799467" y="392.6225" style="stroke: #000000; stroke-width: 0.8"/>
      </g>
     </g>
     <g id="text_4">
      <!-- 2014 -->
      <g transform="translate(299.919467 410.79) scale(0.16 -0.16)">
       <defs>
        <path id="LinBiolinumO-34" d="M 1830 947 
C 1830 454 1818 326 1779 0 
L 1786 -19 
C 1786 -19 1984 0 2086 0 
C 2189 0 2298 -19 2355 -19 
C 2362 -19 2368 -6 2368 0 
C 2342 371 2330 576 2330 947 
L 2650 947 
C 2739 947 2835 1094 2835 1165 
C 2835 1222 2803 1267 2739 1267 
L 2330 1267 
L 2330 2893 
C 2330 3104 2336 3546 2368 3840 
C 2368 3853 2362 3866 2355 3866 
C 2298 3866 2202 3840 2106 3840 
C 2003 3840 1888 3866 1888 3866 
C 1888 3866 1862 3846 1862 3840 
C 1472 3302 550 1894 218 1325 
C 154 1210 134 1139 134 1075 
C 134 979 282 947 512 947 
L 1830 947 
z
M 1830 3277 
L 1830 1267 
L 531 1267 
L 1830 3277 
z
" transform="scale(0.015625)"/>
       </defs>
       <use xlink:href="#LinBiolinumO-32"/>
       <use xlink:href="#LinBiolinumO-30" transform="translate(46.499985 0)"/>
       <use xlink:href="#LinBiolinumO-31" transform="translate(92.999969 0)"/>
       <use xlink:href="#LinBiolinumO-34" transform="translate(139.499954 0)"/>
      </g>
     </g>
    </g>
    <g id="xtick_5">
     <g id="line2d_9">
      <path d="M 385.549111 392.6225 
L 385.549111 35.91375 
" clip-path="url(#p8351eb1e42)" style="fill: none; stroke: #b0b0b0; stroke-opacity: 0.5; stroke-width: 0.8; stroke-linecap: square"/>
     </g>
     <g id="line2d_10">
      <g>
       <use xlink:href="#m87eafb16e7" x="385.549111" y="392.6225" style="stroke: #000000; stroke-width: 0.8"/>
      </g>
     </g>
     <g id="text_5">
      <!-- 2015 -->
      <g transform="translate(370.669111 410.79) scale(0.16 -0.16)">
       <defs>
        <path id="LinBiolinumO-35" d="M 1293 -64 
C 2054 -64 2598 499 2598 1254 
C 2598 1875 2182 2432 1466 2432 
C 1203 2432 909 2387 768 2336 
L 902 3469 
C 1139 3437 1414 3411 1715 3411 
C 1907 3411 2125 3418 2387 3450 
L 2490 3885 
L 2445 3904 
C 2080 3859 1734 3840 1395 3840 
C 1158 3840 883 3859 666 3878 
L 461 1990 
L 506 1978 
C 755 2080 998 2176 1299 2176 
C 1715 2176 2035 1843 2035 1146 
C 2035 557 1741 192 1306 192 
C 826 192 742 448 531 832 
L 442 826 
L 301 314 
L 326 294 
C 486 154 806 -64 1293 -64 
z
" transform="scale(0.015625)"/>
       </defs>
       <use xlink:href="#LinBiolinumO-32"/>
       <use xlink:href="#LinBiolinumO-30" transform="translate(46.499985 0)"/>
       <use xlink:href="#LinBiolinumO-31" transform="translate(92.999969 0)"/>
       <use xlink:href="#LinBiolinumO-35" transform="translate(139.499954 0)"/>
      </g>
     </g>
    </g>
    <g id="xtick_6">
     <g id="line2d_11">
      <path d="M 456.298755 392.6225 
L 456.298755 35.91375 
" clip-path="url(#p8351eb1e42)" style="fill: none; stroke: #b0b0b0; stroke-opacity: 0.5; stroke-width: 0.8; stroke-linecap: square"/>
     </g>
     <g id="line2d_12">
      <g>
       <use xlink:href="#m87eafb16e7" x="456.298755" y="392.6225" style="stroke: #000000; stroke-width: 0.8"/>
      </g>
     </g>
     <g id="text_6">
      <!-- 2016 -->
      <g transform="translate(441.418755 410.79) scale(0.16 -0.16)">
       <defs>
        <path id="LinBiolinumO-36" d="M 813 1773 
C 1062 2029 1318 2035 1459 2035 
C 2106 2035 2202 1421 2202 1107 
C 2202 403 1939 173 1632 173 
C 1293 173 806 397 806 1536 
C 806 1600 806 1709 813 1773 
z
M 2560 3731 
L 2541 3910 
C 1882 3872 1414 3693 979 3251 
C 512 2784 294 2176 294 1555 
C 294 211 1069 -58 1562 -58 
C 2496 -58 2765 691 2765 1152 
C 2765 1459 2592 2291 1594 2291 
C 1338 2291 979 2150 826 1958 
C 896 2502 1126 2957 1434 3258 
C 1760 3571 2118 3686 2560 3731 
z
" transform="scale(0.015625)"/>
       </defs>
       <use xlink:href="#LinBiolinumO-32"/>
       <use xlink:href="#LinBiolinumO-30" transform="translate(46.499985 0)"/>
       <use xlink:href="#LinBiolinumO-31" transform="translate(92.999969 0)"/>
       <use xlink:href="#LinBiolinumO-36" transform="translate(139.499954 0)"/>
      </g>
     </g>
    </g>
    <g id="xtick_7">
     <g id="line2d_13">
      <path d="M 527.242234 392.6225 
L 527.242234 35.91375 
" clip-path="url(#p8351eb1e42)" style="fill: none; stroke: #b0b0b0; stroke-opacity: 0.5; stroke-width: 0.8; stroke-linecap: square"/>
     </g>
     <g id="line2d_14">
      <g>
       <use xlink:href="#m87eafb16e7" x="527.242234" y="392.6225" style="stroke: #000000; stroke-width: 0.8"/>
      </g>
     </g>
     <g id="text_7">
      <!-- 2017 -->
      <g transform="translate(512.362234 410.79) scale(0.16 -0.16)">
       <defs>
        <path id="LinBiolinumO-37" d="M 2208 3360 
C 1709 2125 1222 915 794 -45 
L 813 -83 
L 1280 -58 
C 1645 1030 1997 2093 2714 3840 
L 2605 3904 
C 2509 3872 2394 3840 2195 3840 
C 1242 3840 678 3846 403 3885 
C 416 3789 435 3712 435 3616 
C 435 3520 416 3398 403 3302 
C 870 3366 1786 3373 2208 3360 
z
" transform="scale(0.015625)"/>
       </defs>
       <use xlink:href="#LinBiolinumO-32"/>
       <use xlink:href="#LinBiolinumO-30" transform="translate(46.499985 0)"/>
       <use xlink:href="#LinBiolinumO-31" transform="translate(92.999969 0)"/>
       <use xlink:href="#LinBiolinumO-37" transform="translate(139.499954 0)"/>
      </g>
     </g>
    </g>
    <g id="xtick_8">
     <g id="line2d_15">
      <path d="M 597.991878 392.6225 
L 597.991878 35.91375 
" clip-path="url(#p8351eb1e42)" style="fill: none; stroke: #b0b0b0; stroke-opacity: 0.5; stroke-width: 0.8; stroke-linecap: square"/>
     </g>
     <g id="line2d_16">
      <g>
       <use xlink:href="#m87eafb16e7" x="597.991878" y="392.6225" style="stroke: #000000; stroke-width: 0.8"/>
      </g>
     </g>
     <g id="text_8">
      <!-- 2018 -->
      <g transform="translate(583.111878 410.79) scale(0.16 -0.16)">
       <defs>
        <path id="LinBiolinumO-38" d="M 1504 3693 
C 1920 3693 2074 3411 2074 3110 
C 2074 2765 1734 2458 1555 2330 
L 1357 2445 
C 954 2707 909 2944 909 3142 
C 909 3443 1120 3693 1504 3693 
z
M 2547 3104 
C 2547 3565 2176 3904 1542 3904 
C 890 3904 429 3520 429 3027 
C 429 2669 627 2349 992 2138 
L 1120 2067 
C 960 1946 832 1843 672 1702 
C 410 1472 250 1184 250 934 
C 250 282 768 -58 1446 -58 
C 2285 -58 2739 550 2739 1037 
C 2739 1408 2534 1690 2182 1920 
L 1792 2176 
C 2080 2368 2547 2694 2547 3104 
z
M 1459 154 
C 1165 154 749 358 749 934 
C 749 1126 800 1555 1350 1920 
L 1645 1734 
C 2042 1485 2208 1203 2208 902 
C 2208 282 1754 154 1459 154 
z
" transform="scale(0.015625)"/>
       </defs>
       <use xlink:href="#LinBiolinumO-32"/>
       <use xlink:href="#LinBiolinumO-30" transform="translate(46.499985 0)"/>
       <use xlink:href="#LinBiolinumO-31" transform="translate(92.999969 0)"/>
       <use xlink:href="#LinBiolinumO-38" transform="translate(139.499954 0)"/>
      </g>
     </g>
    </g>
    <g id="xtick_9">
     <g id="line2d_17">
      <path d="M 668.741522 392.6225 
L 668.741522 35.91375 
" clip-path="url(#p8351eb1e42)" style="fill: none; stroke: #b0b0b0; stroke-opacity: 0.5; stroke-width: 0.8; stroke-linecap: square"/>
     </g>
     <g id="line2d_18">
      <g>
       <use xlink:href="#m87eafb16e7" x="668.741522" y="392.6225" style="stroke: #000000; stroke-width: 0.8"/>
      </g>
     </g>
     <g id="text_9">
      <!-- 2019 -->
      <g transform="translate(653.861522 410.79) scale(0.16 -0.16)">
       <defs>
        <path id="LinBiolinumO-39" d="M 2131 2067 
C 1882 1811 1626 1805 1485 1805 
C 838 1805 742 2419 742 2733 
C 742 3437 1005 3667 1312 3667 
C 1651 3667 2138 3443 2138 2304 
C 2138 2240 2138 2131 2131 2067 
z
M 384 109 
L 403 -70 
C 1062 -32 1530 147 1965 589 
C 2432 1056 2650 1664 2650 2285 
C 2650 3629 1875 3898 1382 3898 
C 448 3898 179 3149 179 2688 
C 179 2381 352 1549 1350 1549 
C 1606 1549 1965 1690 2118 1882 
C 2048 1338 1818 883 1510 582 
C 1184 269 826 154 384 109 
z
" transform="scale(0.015625)"/>
       </defs>
       <use xlink:href="#LinBiolinumO-32"/>
       <use xlink:href="#LinBiolinumO-30" transform="translate(46.499985 0)"/>
       <use xlink:href="#LinBiolinumO-31" transform="translate(92.999969 0)"/>
       <use xlink:href="#LinBiolinumO-39" transform="translate(139.499954 0)"/>
      </g>
     </g>
    </g>
    <g id="xtick_10">
     <g id="line2d_19">
      <path d="M 739.491166 392.6225 
L 739.491166 35.91375 
" clip-path="url(#p8351eb1e42)" style="fill: none; stroke: #b0b0b0; stroke-opacity: 0.5; stroke-width: 0.8; stroke-linecap: square"/>
     </g>
     <g id="line2d_20">
      <g>
       <use xlink:href="#m87eafb16e7" x="739.491166" y="392.6225" style="stroke: #000000; stroke-width: 0.8"/>
      </g>
     </g>
     <g id="text_10">
      <!-- 2020 -->
      <g transform="translate(724.611166 410.79) scale(0.16 -0.16)">
       <use xlink:href="#LinBiolinumO-32"/>
       <use xlink:href="#LinBiolinumO-30" transform="translate(46.499985 0)"/>
       <use xlink:href="#LinBiolinumO-32" transform="translate(92.999969 0)"/>
       <use xlink:href="#LinBiolinumO-30" transform="translate(139.499954 0)"/>
      </g>
     </g>
    </g>
    <g id="xtick_11">
     <g id="line2d_21">
      <path d="M 810.434645 392.6225 
L 810.434645 35.91375 
" clip-path="url(#p8351eb1e42)" style="fill: none; stroke: #b0b0b0; stroke-opacity: 0.5; stroke-width: 0.8; stroke-linecap: square"/>
     </g>
     <g id="line2d_22">
      <g>
       <use xlink:href="#m87eafb16e7" x="810.434645" y="392.6225" style="stroke: #000000; stroke-width: 0.8"/>
      </g>
     </g>
     <g id="text_11">
      <!-- 2021 -->
      <g transform="translate(795.554645 410.79) scale(0.16 -0.16)">
       <use xlink:href="#LinBiolinumO-32"/>
       <use xlink:href="#LinBiolinumO-30" transform="translate(46.499985 0)"/>
       <use xlink:href="#LinBiolinumO-32" transform="translate(92.999969 0)"/>
       <use xlink:href="#LinBiolinumO-31" transform="translate(139.499954 0)"/>
      </g>
     </g>
    </g>
    <g id="xtick_12">
     <g id="line2d_23">
      <path d="M 881.184289 392.6225 
L 881.184289 35.91375 
" clip-path="url(#p8351eb1e42)" style="fill: none; stroke: #b0b0b0; stroke-opacity: 0.5; stroke-width: 0.8; stroke-linecap: square"/>
     </g>
     <g id="line2d_24">
      <g>
       <use xlink:href="#m87eafb16e7" x="881.184289" y="392.6225" style="stroke: #000000; stroke-width: 0.8"/>
      </g>
     </g>
     <g id="text_12">
      <!-- 2022 -->
      <g transform="translate(866.304289 410.79) scale(0.16 -0.16)">
       <use xlink:href="#LinBiolinumO-32"/>
       <use xlink:href="#LinBiolinumO-30" transform="translate(46.499985 0)"/>
       <use xlink:href="#LinBiolinumO-32" transform="translate(92.999969 0)"/>
       <use xlink:href="#LinBiolinumO-32" transform="translate(139.499954 0)"/>
      </g>
     </g>
    </g>
    <g id="xtick_13">
     <g id="line2d_25">
      <path d="M 951.933933 392.6225 
L 951.933933 35.91375 
" clip-path="url(#p8351eb1e42)" style="fill: none; stroke: #b0b0b0; stroke-opacity: 0.5; stroke-width: 0.8; stroke-linecap: square"/>
     </g>
     <g id="line2d_26">
      <g>
       <use xlink:href="#m87eafb16e7" x="951.933933" y="392.6225" style="stroke: #000000; stroke-width: 0.8"/>
      </g>
     </g>
     <g id="text_13">
      <!-- 2023 -->
      <g transform="translate(937.053933 410.79) scale(0.16 -0.16)">
       <use xlink:href="#LinBiolinumO-32"/>
       <use xlink:href="#LinBiolinumO-30" transform="translate(46.499985 0)"/>
       <use xlink:href="#LinBiolinumO-32" transform="translate(92.999969 0)"/>
       <use xlink:href="#LinBiolinumO-33" transform="translate(139.499954 0)"/>
      </g>
     </g>
    </g>
    <g id="xtick_14">
     <g id="line2d_27">
      <path d="M 1022.683577 392.6225 
L 1022.683577 35.91375 
" clip-path="url(#p8351eb1e42)" style="fill: none; stroke: #b0b0b0; stroke-opacity: 0.5; stroke-width: 0.8; stroke-linecap: square"/>
     </g>
     <g id="line2d_28">
      <g>
       <use xlink:href="#m87eafb16e7" x="1022.683577" y="392.6225" style="stroke: #000000; stroke-width: 0.8"/>
      </g>
     </g>
     <g id="text_14">
      <!-- 2024 -->
      <g transform="translate(1007.803577 410.79) scale(0.16 -0.16)">
       <use xlink:href="#LinBiolinumO-32"/>
       <use xlink:href="#LinBiolinumO-30" transform="translate(46.499985 0)"/>
       <use xlink:href="#LinBiolinumO-32" transform="translate(92.999969 0)"/>
       <use xlink:href="#LinBiolinumO-34" transform="translate(139.499954 0)"/>
      </g>
     </g>
    </g>
    <g id="xtick_15">
     <g id="line2d_29">
      <path d="M 1093.627056 392.6225 
L 1093.627056 35.91375 
" clip-path="url(#p8351eb1e42)" style="fill: none; stroke: #b0b0b0; stroke-opacity: 0.5; stroke-width: 0.8; stroke-linecap: square"/>
     </g>
     <g id="line2d_30">
      <g>
       <use xlink:href="#m87eafb16e7" x="1093.627056" y="392.6225" style="stroke: #000000; stroke-width: 0.8"/>
      </g>
     </g>
     <g id="text_15">
      <!-- 2025 -->
      <g transform="translate(1078.747056 410.79) scale(0.16 -0.16)">
       <use xlink:href="#LinBiolinumO-32"/>
       <use xlink:href="#LinBiolinumO-30" transform="translate(46.499985 0)"/>
       <use xlink:href="#LinBiolinumO-32" transform="translate(92.999969 0)"/>
       <use xlink:href="#LinBiolinumO-35" transform="translate(139.499954 0)"/>
      </g>
     </g>
    </g>
   </g>
   <g id="matplotlib.axis_2">
    <g id="ytick_1">
     <g id="line2d_31">
      <path d="M 72.7 392.6225 
L 1134.72 392.6225 
" clip-path="url(#p8351eb1e42)" style="fill: none; stroke: #b0b0b0; stroke-opacity: 0.5; stroke-width: 0.8; stroke-linecap: square"/>
     </g>
     <g id="line2d_32">
      <defs>
       <path id="m8f06c69539" d="M 0 0 
L -3.5 0 
" style="stroke: #000000; stroke-width: 0.8"/>
      </defs>
      <g>
       <use xlink:href="#m8f06c69539" x="72.7" y="392.6225" style="stroke: #000000; stroke-width: 0.8"/>
      </g>
     </g>
     <g id="text_16">
      <!-- 0 -->
      <g transform="translate(58.26 398.20625) scale(0.16 -0.16)">
       <use xlink:href="#LinBiolinumO-30"/>
      </g>
     </g>
    </g>
    <g id="ytick_2">
     <g id="line2d_33">
      <path d="M 72.7 337.169624 
L 1134.72 337.169624 
" clip-path="url(#p8351eb1e42)" style="fill: none; stroke: #b0b0b0; stroke-opacity: 0.5; stroke-width: 0.8; stroke-linecap: square"/>
     </g>
     <g id="line2d_34">
      <g>
       <use xlink:href="#m8f06c69539" x="72.7" y="337.169624" style="stroke: #000000; stroke-width: 0.8"/>
      </g>
     </g>
     <g id="text_17">
      <!-- 100,000 -->
      <g transform="translate(17.54 342.753374) scale(0.16 -0.16)">
       <defs>
        <path id="LinBiolinumO-2c" d="M 307 282 
C 358 64 448 26 653 -19 
C 730 -19 838 -32 838 -186 
C 838 -397 653 -576 339 -787 
C 339 -851 378 -890 422 -922 
C 768 -723 1088 -544 1088 -19 
C 1088 390 909 563 678 653 
L 653 653 
C 454 570 365 474 307 307 
L 307 282 
z
" transform="scale(0.015625)"/>
       </defs>
       <use xlink:href="#LinBiolinumO-31"/>
       <use xlink:href="#LinBiolinumO-30" transform="translate(46.499985 0)"/>
       <use xlink:href="#LinBiolinumO-30" transform="translate(92.999969 0)"/>
       <use xlink:href="#LinBiolinumO-2c" transform="translate(139.499954 0)"/>
       <use xlink:href="#LinBiolinumO-30" transform="translate(161.499939 0)"/>
       <use xlink:href="#LinBiolinumO-30" transform="translate(207.999924 0)"/>
       <use xlink:href="#LinBiolinumO-30" transform="translate(254.499908 0)"/>
      </g>
     </g>
    </g>
    <g id="ytick_3">
     <g id="line2d_35">
      <path d="M 72.7 281.716748 
L 1134.72 281.716748 
" clip-path="url(#p8351eb1e42)" style="fill: none; stroke: #b0b0b0; stroke-opacity: 0.5; stroke-width: 0.8; stroke-linecap: square"/>
     </g>
     <g id="line2d_36">
      <g>
       <use xlink:href="#m8f06c69539" x="72.7" y="281.716748" style="stroke: #000000; stroke-width: 0.8"/>
      </g>
     </g>
     <g id="text_18">
      <!-- 200,000 -->
      <g transform="translate(17.54 287.300498) scale(0.16 -0.16)">
       <use xlink:href="#LinBiolinumO-32"/>
       <use xlink:href="#LinBiolinumO-30" transform="translate(46.499985 0)"/>
       <use xlink:href="#LinBiolinumO-30" transform="translate(92.999969 0)"/>
       <use xlink:href="#LinBiolinumO-2c" transform="translate(139.499954 0)"/>
       <use xlink:href="#LinBiolinumO-30" transform="translate(161.499939 0)"/>
       <use xlink:href="#LinBiolinumO-30" transform="translate(207.999924 0)"/>
       <use xlink:href="#LinBiolinumO-30" transform="translate(254.499908 0)"/>
      </g>
     </g>
    </g>
    <g id="ytick_4">
     <g id="line2d_37">
      <path d="M 72.7 226.263871 
L 1134.72 226.263871 
" clip-path="url(#p8351eb1e42)" style="fill: none; stroke: #b0b0b0; stroke-opacity: 0.5; stroke-width: 0.8; stroke-linecap: square"/>
     </g>
     <g id="line2d_38">
      <g>
       <use xlink:href="#m8f06c69539" x="72.7" y="226.263871" style="stroke: #000000; stroke-width: 0.8"/>
      </g>
     </g>
     <g id="text_19">
      <!-- 300,000 -->
      <g transform="translate(17.54 231.847621) scale(0.16 -0.16)">
       <use xlink:href="#LinBiolinumO-33"/>
       <use xlink:href="#LinBiolinumO-30" transform="translate(46.499985 0)"/>
       <use xlink:href="#LinBiolinumO-30" transform="translate(92.999969 0)"/>
       <use xlink:href="#LinBiolinumO-2c" transform="translate(139.499954 0)"/>
       <use xlink:href="#LinBiolinumO-30" transform="translate(161.499939 0)"/>
       <use xlink:href="#LinBiolinumO-30" transform="translate(207.999924 0)"/>
       <use xlink:href="#LinBiolinumO-30" transform="translate(254.499908 0)"/>
      </g>
     </g>
    </g>
    <g id="ytick_5">
     <g id="line2d_39">
      <path d="M 72.7 170.810995 
L 1134.72 170.810995 
" clip-path="url(#p8351eb1e42)" style="fill: none; stroke: #b0b0b0; stroke-opacity: 0.5; stroke-width: 0.8; stroke-linecap: square"/>
     </g>
     <g id="line2d_40">
      <g>
       <use xlink:href="#m8f06c69539" x="72.7" y="170.810995" style="stroke: #000000; stroke-width: 0.8"/>
      </g>
     </g>
     <g id="text_20">
      <!-- 400,000 -->
      <g transform="translate(17.54 176.394745) scale(0.16 -0.16)">
       <use xlink:href="#LinBiolinumO-34"/>
       <use xlink:href="#LinBiolinumO-30" transform="translate(46.499985 0)"/>
       <use xlink:href="#LinBiolinumO-30" transform="translate(92.999969 0)"/>
       <use xlink:href="#LinBiolinumO-2c" transform="translate(139.499954 0)"/>
       <use xlink:href="#LinBiolinumO-30" transform="translate(161.499939 0)"/>
       <use xlink:href="#LinBiolinumO-30" transform="translate(207.999924 0)"/>
       <use xlink:href="#LinBiolinumO-30" transform="translate(254.499908 0)"/>
      </g>
     </g>
    </g>
    <g id="ytick_6">
     <g id="line2d_41">
      <path d="M 72.7 115.358119 
L 1134.72 115.358119 
" clip-path="url(#p8351eb1e42)" style="fill: none; stroke: #b0b0b0; stroke-opacity: 0.5; stroke-width: 0.8; stroke-linecap: square"/>
     </g>
     <g id="line2d_42">
      <g>
       <use xlink:href="#m8f06c69539" x="72.7" y="115.358119" style="stroke: #000000; stroke-width: 0.8"/>
      </g>
     </g>
     <g id="text_21">
      <!-- 500,000 -->
      <g transform="translate(17.54 120.941869) scale(0.16 -0.16)">
       <use xlink:href="#LinBiolinumO-35"/>
       <use xlink:href="#LinBiolinumO-30" transform="translate(46.499985 0)"/>
       <use xlink:href="#LinBiolinumO-30" transform="translate(92.999969 0)"/>
       <use xlink:href="#LinBiolinumO-2c" transform="translate(139.499954 0)"/>
       <use xlink:href="#LinBiolinumO-30" transform="translate(161.499939 0)"/>
       <use xlink:href="#LinBiolinumO-30" transform="translate(207.999924 0)"/>
       <use xlink:href="#LinBiolinumO-30" transform="translate(254.499908 0)"/>
      </g>
     </g>
    </g>
    <g id="ytick_7">
     <g id="line2d_43">
      <path d="M 72.7 59.905243 
L 1134.72 59.905243 
" clip-path="url(#p8351eb1e42)" style="fill: none; stroke: #b0b0b0; stroke-opacity: 0.5; stroke-width: 0.8; stroke-linecap: square"/>
     </g>
     <g id="line2d_44">
      <g>
       <use xlink:href="#m8f06c69539" x="72.7" y="59.905243" style="stroke: #000000; stroke-width: 0.8"/>
      </g>
     </g>
     <g id="text_22">
      <!-- 600,000 -->
      <g transform="translate(17.54 65.488993) scale(0.16 -0.16)">
       <use xlink:href="#LinBiolinumO-36"/>
       <use xlink:href="#LinBiolinumO-30" transform="translate(46.499985 0)"/>
       <use xlink:href="#LinBiolinumO-30" transform="translate(92.999969 0)"/>
       <use xlink:href="#LinBiolinumO-2c" transform="translate(139.499954 0)"/>
       <use xlink:href="#LinBiolinumO-30" transform="translate(161.499939 0)"/>
       <use xlink:href="#LinBiolinumO-30" transform="translate(207.999924 0)"/>
       <use xlink:href="#LinBiolinumO-30" transform="translate(254.499908 0)"/>
      </g>
     </g>
    </g>
   </g>
   <g id="patch_177">
    <path d="M 72.7 392.6225 
L 72.7 35.91375 
" style="fill: none; stroke: #000000; stroke-width: 0.8; stroke-linejoin: miter; stroke-linecap: square"/>
   </g>
   <g id="patch_178">
    <path d="M 72.7 392.6225 
L 1134.72 392.6225 
" style="fill: none; stroke: #000000; stroke-width: 0.8; stroke-linejoin: miter; stroke-linecap: square"/>
   </g>
   <g id="text_23">
    <!-- UploadWizard uploads by month -->
    <g transform="translate(467.696094 29.91375) scale(0.18 -0.18)">
     <defs>
      <path id="LinBiolinumOB-55" d="M 3501 2848 
L 3501 1773 
C 3501 1056 3354 352 2426 352 
C 1574 352 1472 1242 1472 1722 
L 1472 2848 
C 1472 3328 1485 3789 1536 4128 
L 1530 4147 
C 1530 4147 1222 4128 998 4128 
C 781 4128 499 4147 499 4147 
L 486 4128 
C 538 3763 550 3328 550 2848 
L 550 1510 
C 550 205 1619 -64 2291 -64 
C 3558 -64 4045 691 4045 1888 
L 4045 2848 
C 4045 3328 4058 3789 4109 4128 
L 4102 4147 
C 4102 4147 3917 4128 3776 4128 
C 3616 4128 3450 4147 3450 4147 
L 3437 4128 
C 3488 3763 3501 3328 3501 2848 
z
" transform="scale(0.015625)"/>
      <path id="LinBiolinumOB-70" d="M 1357 1805 
C 1498 2144 1856 2362 2074 2362 
C 2464 2362 2566 1946 2566 1331 
C 2566 646 2285 256 1926 256 
C 1766 256 1594 288 1357 486 
L 1357 1805 
z
M 1382 2291 
L 1350 2310 
C 1350 2451 1344 2662 1338 2720 
C 1325 2758 1318 2784 1280 2784 
C 1094 2752 678 2752 454 2765 
L 442 2746 
C 486 2470 512 1978 512 1504 
L 512 -205 
C 512 -685 499 -1146 448 -1485 
L 454 -1504 
C 454 -1504 704 -1485 928 -1485 
C 1146 -1485 1408 -1504 1408 -1504 
L 1421 -1485 
C 1363 -1120 1357 -685 1357 -205 
L 1357 115 
C 1568 -19 1805 -64 2042 -64 
C 2848 -64 3475 602 3475 1504 
C 3475 1978 3328 2336 3021 2598 
C 2874 2726 2650 2810 2374 2810 
C 2099 2810 1696 2720 1382 2291 
z
" transform="scale(0.015625)"/>
      <path id="LinBiolinumOB-6c" d="M 550 1280 
C 550 800 525 339 474 0 
L 480 -19 
C 480 -19 749 0 973 0 
C 1190 0 1459 -19 1459 -19 
L 1472 0 
C 1414 365 1395 794 1395 1280 
L 1395 3200 
C 1395 3680 1421 4006 1472 4403 
C 1472 4448 1440 4467 1402 4467 
C 1235 4403 742 4275 486 4256 
L 474 4237 
C 518 3962 550 3520 550 3034 
L 550 1280 
z
" transform="scale(0.015625)"/>
      <path id="LinBiolinumOB-6f" d="M 262 1312 
C 262 461 858 -64 1811 -64 
C 2790 -64 3360 480 3360 1370 
C 3360 2176 2906 2810 1824 2810 
C 909 2810 262 2304 262 1312 
z
M 1779 2490 
C 2323 2490 2451 2086 2451 1197 
C 2451 461 2189 256 1901 256 
C 1235 256 1171 966 1171 1459 
C 1171 2016 1229 2490 1779 2490 
z
" transform="scale(0.015625)"/>
      <path id="LinBiolinumOB-61" d="M 1990 1421 
L 1978 826 
C 1978 742 1926 582 1882 538 
C 1734 390 1587 320 1408 320 
C 1216 320 1075 512 1075 685 
C 1075 915 1152 1197 1478 1286 
L 1990 1421 
z
M 2797 512 
C 2797 698 2822 1702 2822 1773 
C 2822 2157 2739 2394 2566 2554 
C 2362 2733 1978 2810 1670 2810 
C 1210 2810 595 2605 442 2470 
L 422 2445 
L 550 1965 
L 762 1958 
C 979 2278 1261 2464 1549 2464 
C 1830 2464 1990 2304 1990 1811 
C 1990 1766 1971 1741 1952 1734 
L 1203 1536 
C 589 1389 218 1062 218 627 
C 218 186 646 -64 1094 -64 
C 1344 -64 1683 19 1971 307 
L 1984 307 
C 2074 45 2214 -64 2490 -64 
C 2739 -64 3059 0 3251 147 
C 3238 198 3226 250 3187 282 
C 2931 282 2797 301 2797 512 
z
" transform="scale(0.015625)"/>
      <path id="LinBiolinumOB-64" d="M 2387 851 
C 2227 442 2022 307 1766 307 
C 1421 307 1190 614 1190 1414 
C 1190 2278 1466 2490 1779 2490 
C 2080 2490 2317 2266 2387 1939 
L 2387 851 
z
M 2387 346 
L 2400 346 
L 2432 0 
C 2432 -13 2451 -19 2490 -19 
C 2573 -13 2803 0 2893 0 
C 2976 0 3258 -6 3341 -19 
L 3354 0 
C 3302 275 3232 749 3232 1229 
L 3232 3200 
C 3232 3674 3258 4006 3309 4403 
C 3309 4448 3277 4467 3238 4467 
C 3072 4403 2579 4275 2323 4256 
L 2310 4237 
C 2355 3962 2387 3520 2387 3034 
L 2387 2522 
C 2266 2694 1965 2810 1786 2810 
C 1357 2810 1120 2720 832 2509 
C 435 2221 282 1754 282 1299 
C 282 512 762 -64 1472 -64 
C 1875 -64 2214 45 2387 346 
z
" transform="scale(0.015625)"/>
      <path id="LinBiolinumOB-57" d="M 4704 1139 
C 3962 2906 3731 3930 3674 4147 
C 3565 4128 3168 4128 3059 4128 
C 2950 4128 2650 4128 2541 4147 
C 2682 3859 2912 3277 3174 2598 
C 2944 2035 2688 1440 2464 928 
C 1645 2829 1261 3923 1197 4147 
C 1088 4128 851 4128 742 4128 
C 634 4128 205 4128 96 4147 
C 416 3501 1325 1357 1914 -45 
L 2490 -45 
L 3411 1990 
C 3686 1293 3974 557 4224 -45 
L 4666 -45 
C 5280 1376 5907 2733 6554 4147 
C 6477 4128 6272 4128 6202 4128 
C 6131 4128 5952 4128 5875 4147 
C 5683 3392 5146 2157 4704 1139 
z
" transform="scale(0.015625)"/>
      <path id="LinBiolinumOB-69" d="M 544 3885 
C 544 3642 742 3443 998 3443 
C 1254 3443 1453 3642 1453 3885 
C 1453 4128 1254 4326 998 4326 
C 742 4326 544 4128 544 3885 
z
M 576 1504 
L 576 1152 
C 576 672 563 346 512 0 
L 525 -19 
C 653 -6 774 0 998 0 
C 1216 0 1350 -6 1472 -19 
L 1485 0 
C 1434 365 1421 666 1421 1152 
L 1421 1574 
C 1421 2054 1440 2330 1485 2714 
C 1485 2758 1466 2778 1427 2778 
C 1338 2765 1165 2746 986 2746 
C 819 2746 640 2752 531 2765 
L 512 2739 
C 563 2464 576 1984 576 1504 
z
" transform="scale(0.015625)"/>
      <path id="LinBiolinumOB-7a" d="M 1734 2368 
L 269 205 
C 218 128 192 102 134 45 
L 147 -19 
C 147 -19 858 0 1037 0 
L 2483 0 
C 2611 0 2746 -6 2842 -19 
L 2854 0 
C 2848 83 2842 147 2842 205 
C 2842 262 2848 378 2854 429 
L 2842 448 
C 2842 448 2048 384 1280 378 
L 2707 2477 
C 2816 2637 2861 2701 2899 2746 
C 2899 2771 2893 2784 2867 2784 
C 2835 2784 2534 2746 2349 2746 
L 736 2746 
C 608 2746 474 2752 378 2765 
L 365 2746 
C 371 2662 378 2598 378 2541 
C 378 2483 371 2368 365 2317 
L 378 2298 
C 378 2298 1018 2355 1734 2368 
z
" transform="scale(0.015625)"/>
      <path id="LinBiolinumOB-72" d="M 1440 2234 
L 1408 2253 
C 1408 2394 1402 2662 1395 2720 
C 1382 2758 1376 2784 1338 2784 
C 1152 2752 736 2752 512 2765 
L 499 2746 
C 544 2470 570 1978 570 1504 
L 570 1152 
C 570 672 557 346 506 0 
L 512 -19 
C 512 -19 717 0 941 0 
C 1158 0 1466 -19 1466 -19 
L 1478 0 
C 1427 365 1414 666 1414 1152 
L 1414 1619 
C 1414 2112 1850 2189 1952 2189 
C 2074 2189 2208 2157 2323 2067 
L 2438 2080 
L 2566 2739 
L 2541 2765 
C 2432 2797 2330 2810 2214 2810 
C 1914 2810 1606 2483 1440 2234 
z
" transform="scale(0.015625)"/>
      <path id="LinBiolinumOB-20" transform="scale(0.015625)"/>
      <path id="LinBiolinumOB-75" d="M 2381 410 
L 2394 410 
L 2426 0 
C 2426 -13 2445 -19 2483 -19 
C 2566 -13 2758 0 2848 0 
C 2931 0 3238 -6 3322 -19 
L 3334 0 
C 3283 275 3226 749 3226 1229 
L 3226 1594 
C 3226 2074 3226 2406 3283 2746 
L 3277 2765 
C 3277 2765 3008 2746 2784 2746 
C 2566 2746 2349 2765 2349 2765 
L 2336 2746 
C 2381 2387 2381 2080 2381 1594 
L 2381 1082 
C 2381 710 1946 429 1664 429 
C 1472 429 1286 493 1299 1018 
L 1312 1594 
C 1318 2074 1331 2413 1363 2746 
L 1357 2765 
C 1357 2765 1101 2746 877 2746 
C 659 2746 429 2765 429 2765 
L 416 2746 
C 454 2381 474 2054 467 1594 
L 454 806 
C 448 365 672 -64 1306 -64 
C 1568 -64 2022 26 2381 410 
z
" transform="scale(0.015625)"/>
      <path id="LinBiolinumOB-73" d="M 346 723 
L 243 109 
C 589 -19 1011 -64 1242 -64 
C 2074 -64 2426 339 2426 781 
C 2426 1357 1971 1536 1517 1779 
C 1306 1888 1133 2003 1133 2208 
C 1133 2387 1197 2522 1446 2522 
C 1760 2522 1946 2221 2029 2042 
L 2202 2048 
L 2323 2624 
L 2310 2643 
C 2138 2739 1766 2810 1459 2810 
C 883 2810 378 2528 378 2035 
C 378 1587 691 1357 1056 1158 
C 1523 902 1664 787 1664 531 
C 1664 230 1466 218 1222 218 
C 992 218 730 358 538 730 
L 346 723 
z
" transform="scale(0.015625)"/>
      <path id="LinBiolinumOB-62" d="M 1504 339 
C 1408 403 1389 512 1389 691 
L 1389 2099 
C 1702 2323 1837 2374 1990 2374 
C 2381 2374 2592 2042 2592 1421 
C 2592 1056 2554 762 2451 557 
C 2342 326 2150 256 1965 256 
C 1747 256 1600 282 1504 339 
z
M 1389 3200 
C 1389 3674 1421 4006 1466 4403 
C 1466 4448 1453 4467 1408 4467 
C 1248 4403 742 4275 480 4256 
L 467 4237 
C 518 3962 544 3520 544 3034 
L 544 858 
C 544 608 525 96 493 -38 
C 512 -51 525 -64 563 -70 
C 646 -58 934 70 1024 70 
C 1094 70 1286 26 1389 -13 
C 1491 -58 1779 -64 2003 -64 
C 2342 -64 2688 32 2963 275 
C 3277 538 3501 973 3501 1549 
C 3501 1926 3386 2272 3149 2490 
C 2899 2720 2618 2810 2272 2810 
C 1997 2810 1773 2746 1389 2458 
L 1389 3200 
z
" transform="scale(0.015625)"/>
      <path id="LinBiolinumOB-79" d="M 128 2765 
C 410 2182 1133 698 1376 51 
L 1446 -70 
C 1242 -544 966 -1037 672 -1523 
C 736 -1504 1018 -1491 1082 -1491 
C 1146 -1491 1331 -1504 1395 -1523 
C 1638 -723 3104 2330 3315 2758 
C 3251 2739 3066 2739 3002 2739 
C 2938 2739 2701 2739 2637 2758 
C 2438 2118 2176 1402 1901 787 
L 1843 794 
C 1549 1453 1306 2106 1088 2758 
C 1005 2739 774 2739 685 2739 
C 602 2739 218 2746 128 2765 
z
" transform="scale(0.015625)"/>
      <path id="LinBiolinumOB-6d" d="M 1382 2234 
L 1350 2253 
C 1350 2394 1344 2662 1338 2720 
C 1325 2758 1318 2784 1280 2784 
C 1094 2752 678 2752 454 2765 
L 442 2746 
C 486 2470 512 1978 512 1504 
L 512 1152 
C 512 672 486 346 435 0 
L 442 -19 
C 442 -19 710 0 934 0 
C 1152 0 1408 -19 1408 -19 
L 1421 0 
C 1370 365 1357 666 1357 1152 
L 1357 1798 
C 1626 2125 1856 2317 2035 2317 
C 2278 2317 2413 2227 2413 1798 
L 2413 1152 
C 2413 672 2387 346 2336 0 
L 2342 -19 
C 2342 -19 2630 0 2854 0 
C 3072 0 3322 -19 3322 -19 
L 3334 0 
C 3283 365 3258 666 3258 1152 
L 3258 1715 
C 3258 1805 3258 1830 3251 1907 
C 3558 2246 3699 2317 3949 2317 
C 4154 2317 4301 2176 4301 1747 
L 4301 1152 
C 4301 672 4275 346 4224 0 
L 4230 -19 
C 4230 -19 4518 0 4742 0 
C 4960 0 5210 -19 5210 -19 
L 5222 0 
C 5171 365 5146 666 5146 1152 
L 5146 1792 
C 5146 2432 4922 2810 4230 2810 
C 3910 2810 3578 2682 3213 2298 
C 3085 2618 2906 2810 2336 2810 
C 2022 2810 1626 2547 1382 2234 
z
" transform="scale(0.015625)"/>
      <path id="LinBiolinumOB-6e" d="M 3277 1152 
L 3277 1862 
C 3277 2534 2963 2810 2387 2810 
C 2061 2810 1677 2611 1382 2234 
L 1350 2253 
C 1350 2394 1344 2662 1338 2720 
C 1325 2758 1318 2784 1280 2784 
C 1094 2752 678 2752 454 2765 
L 442 2746 
C 486 2470 512 1978 512 1504 
L 512 1152 
C 512 672 493 339 442 0 
L 454 -19 
C 454 -19 755 0 979 0 
C 1197 0 1376 -19 1376 -19 
L 1395 0 
C 1363 365 1357 666 1357 1152 
L 1357 1805 
C 1600 2125 1869 2317 2099 2317 
C 2272 2317 2432 2189 2432 1722 
L 2432 1152 
C 2432 672 2432 339 2394 0 
L 2406 -19 
C 2406 -19 2611 0 2835 0 
C 3053 0 3334 -19 3334 -19 
L 3347 0 
C 3290 365 3277 666 3277 1152 
z
" transform="scale(0.015625)"/>
      <path id="LinBiolinumOB-74" d="M 576 2746 
C 442 2746 307 2752 230 2758 
C 192 2650 147 2547 90 2451 
L 122 2406 
C 230 2419 429 2419 576 2419 
L 557 1670 
C 544 1286 538 755 538 563 
C 538 262 749 -64 1158 -64 
C 1491 -64 1824 -6 2099 160 
C 2099 262 2061 358 1990 403 
C 1850 333 1786 326 1619 326 
C 1446 326 1382 576 1382 838 
C 1382 1030 1376 1357 1389 1741 
L 1402 2419 
L 1645 2419 
C 1798 2419 2016 2419 2106 2406 
C 2112 2502 2144 2618 2182 2707 
L 2150 2758 
C 2029 2752 1850 2739 1702 2739 
L 1402 2739 
C 1402 3098 1402 3290 1434 3629 
C 1434 3674 1414 3693 1376 3693 
C 1216 3629 870 3462 614 3405 
L 602 3386 
C 576 3219 576 2995 576 2746 
z
" transform="scale(0.015625)"/>
      <path id="LinBiolinumOB-68" d="M 550 3034 
L 550 1152 
C 550 672 525 339 474 0 
L 480 -19 
C 480 -19 768 0 992 0 
C 1210 0 1421 -19 1421 -19 
L 1434 0 
C 1402 365 1395 666 1395 1152 
L 1395 1805 
C 1638 2125 1907 2317 2138 2317 
C 2310 2317 2470 2189 2470 1722 
L 2470 1152 
C 2470 672 2470 339 2432 0 
L 2438 -19 
C 2438 -19 2752 0 2976 0 
C 3194 0 3366 -19 3366 -19 
L 3379 0 
C 3322 365 3315 666 3315 1152 
L 3315 1862 
C 3315 2438 3066 2810 2490 2810 
C 2163 2810 1690 2611 1395 2234 
L 1370 2246 
L 1395 2803 
L 1395 3200 
C 1395 3680 1408 4006 1459 4403 
C 1459 4448 1440 4467 1402 4467 
C 1235 4403 742 4275 486 4256 
L 474 4237 
C 518 3962 550 3520 550 3034 
z
" transform="scale(0.015625)"/>
     </defs>
     <use xlink:href="#LinBiolinumOB-55"/>
     <use xlink:href="#LinBiolinumOB-70" transform="translate(71.899994 0)"/>
     <use xlink:href="#LinBiolinumOB-6c" transform="translate(130.399979 0)"/>
     <use xlink:href="#LinBiolinumOB-6f" transform="translate(160.799973 0)"/>
     <use xlink:href="#LinBiolinumOB-61" transform="translate(217.399963 0)"/>
     <use xlink:href="#LinBiolinumOB-64" transform="translate(268.999954 0)"/>
     <use xlink:href="#LinBiolinumOB-57" transform="translate(328.099945 0)"/>
     <use xlink:href="#LinBiolinumOB-69" transform="translate(432.399933 0)"/>
     <use xlink:href="#LinBiolinumOB-7a" transform="translate(463.59993 0)"/>
     <use xlink:href="#LinBiolinumOB-61" transform="translate(511.999924 0)"/>
     <use xlink:href="#LinBiolinumOB-72" transform="translate(563.599915 0)"/>
     <use xlink:href="#LinBiolinumOB-64" transform="translate(605.699905 0)"/>
     <use xlink:href="#LinBiolinumOB-20" transform="translate(664.799896 0)"/>
     <use xlink:href="#LinBiolinumOB-75" transform="translate(689.799881 0)"/>
     <use xlink:href="#LinBiolinumOB-70" transform="translate(748.899872 0)"/>
     <use xlink:href="#LinBiolinumOB-6c" transform="translate(807.399857 0)"/>
     <use xlink:href="#LinBiolinumOB-6f" transform="translate(837.79985 0)"/>
     <use xlink:href="#LinBiolinumOB-61" transform="translate(894.399841 0)"/>
     <use xlink:href="#LinBiolinumOB-64" transform="translate(945.999832 0)"/>
     <use xlink:href="#LinBiolinumOB-73" transform="translate(1005.099823 0)"/>
     <use xlink:href="#LinBiolinumOB-20" transform="translate(1046.999817 0)"/>
     <use xlink:href="#LinBiolinumOB-62" transform="translate(1071.999802 0)"/>
     <use xlink:href="#LinBiolinumOB-79" transform="translate(1130.599792 0)"/>
     <use xlink:href="#LinBiolinumOB-20" transform="translate(1184.499786 0)"/>
     <use xlink:href="#LinBiolinumOB-6d" transform="translate(1209.499771 0)"/>
     <use xlink:href="#LinBiolinumOB-6f" transform="translate(1298.699753 0)"/>
     <use xlink:href="#LinBiolinumOB-6e" transform="translate(1355.299744 0)"/>
     <use xlink:href="#LinBiolinumOB-74" transform="translate(1415.299728 0)"/>
     <use xlink:href="#LinBiolinumOB-68" transform="translate(1450.699722 0)"/>
    </g>
   </g>
  </g>
 </g>
 <defs>
  <clipPath id="p8351eb1e42">
   <rect x="72.7" y="35.91375" width="1062.02" height="356.70875"/>
  </clipPath>
 </defs>
</svg>
